<svg xmlns="http://www.w3.org/2000/svg" xmlns:xlink="http://www.w3.org/1999/xlink" width="77" height="48" viewBox="0 0 77 48">
  <defs>
    <rect id="default-new-layout-visa-a" width="76.16" height="48" x="0" y="0" rx="2.56"/>
  </defs>
  <g fill="none" fill-rule="evenodd">
    <mask id="default-new-layout-visa-b" fill="#fff">
      <use xlink:href="#default-new-layout-visa-a"/>
    </mask>
    <polygon fill="#F4F4F4" points="0 48 76.16 48 76.16 0 0 0" mask="url(#default-new-layout-visa-b)"/>
    <polygon fill="#2DCCCD" points="61.76 14.4 76.16 14.4 76.16 0 61.76 0" mask="url(#default-new-layout-visa-b)"/>
    <g mask="url(#default-new-layout-visa-b)">
      <rect width="76.16" height="48"/>
    </g>
    <path fill="#004481" fill-rule="nonzero" d="M15.9116215,5.79861722 C15.9213805,5.76965431 15.9506575,5.76 15.9701754,5.76 L16.5849924,5.76 C16.6240284,5.76 16.6533054,5.79861722 16.6337874,5.83723444 L14.6234335,9.56379635 C14.6039155,9.61206788 14.5258435,9.61206788 14.4965665,9.56379635 L12.4862126,5.83723444 C12.4666946,5.80827153 12.4959716,5.76 12.5350076,5.76 L13.1498246,5.76 C13.1791015,5.76 13.2083785,5.77930861 13.2181375,5.79861722 L14.4965665,8.20253928 C14.5258435,8.25081081 14.6039155,8.25081081 14.6331925,8.20253928 L15.9116215,5.79861722 Z M16.7283785,8.92138278 C16.7186195,8.95034569 16.6893425,8.96 16.6698246,8.96 L16.0550076,8.96 C16.0159716,8.96 15.9866946,8.92138278 16.0062126,8.88276556 L18.0165665,5.15620365 C18.0360845,5.10793212 18.1141565,5.10793212 18.1434335,5.15620365 L20.1537874,8.88276556 C20.1733054,8.91172847 20.1440284,8.96 20.1049924,8.96 L19.4901754,8.96 C19.4608985,8.96 19.4316215,8.94069139 19.4218625,8.92138278 L18.1434335,6.51746072 C18.1141565,6.46918919 18.0360845,6.46918919 18.0068075,6.51746072 L16.7283785,8.92138278 Z M7.98584071,7.53082707 C7.98584071,7.53082707 8.62961652,7.70406015 8.64,8.45473684 C8.64,9.21503759 8.13120944,9.6 7.15516224,9.6 L5.20306785,9.6 C5.15115044,9.6 5.12,9.56150376 5.12,9.52300752 L5.12,5.83699248 C5.12,5.78887218 5.16153392,5.76 5.20306785,5.76 L7.22784661,5.76 C7.94430678,5.76 8.44271386,6.16421053 8.44271386,6.76090226 C8.44271386,7.11699248 8.26619469,7.39609023 7.98584071,7.53082707 Z M5.8779941,6.31819549 C5.83646018,6.31819549 5.80530973,6.35669173 5.80530973,6.38556391 L5.80530973,7.24210526 C5.80530973,7.29022556 5.84684366,7.31909774 5.88837758,7.31909774 L7.09286136,7.31909774 C7.53935103,7.31909774 7.76778761,7.14586466 7.76778761,6.81864662 C7.76778761,6.49142857 7.53935103,6.31819549 7.09286136,6.31819549 L5.8779941,6.31819549 Z M7.10324484,9.04180451 C7.69510324,9.04180451 7.94430678,8.86857143 7.94430678,8.44511278 C7.94430678,8.02165414 7.68471976,7.86766917 7.10324484,7.86766917 L5.8779941,7.86766917 C5.8260767,7.86766917 5.79492625,7.90616541 5.79492625,7.94466165 L5.79492625,8.96481203 C5.79492625,9.01293233 5.83646018,9.04180451 5.8779941,9.04180451 L7.10324484,9.04180451 Z M11.8258407,7.53082707 C11.8258407,7.53082707 12.48,7.70406015 12.48,8.45473684 C12.48,9.21503759 11.9712094,9.6 10.9951622,9.6 L9.04306785,9.6 C8.99115044,9.6 8.96,9.56150376 8.96,9.52300752 L8.96,5.83699248 C8.96,5.78887218 9.00153392,5.76 9.04306785,5.76 L11.0678466,5.76 C11.7843068,5.76 12.2827139,6.16421053 12.2827139,6.76090226 C12.2827139,7.11699248 12.1061947,7.39609023 11.8258407,7.53082707 Z M9.72837758,6.31819549 C9.68684366,6.31819549 9.64530973,6.35669173 9.64530973,6.38556391 L9.64530973,7.24210526 C9.64530973,7.29022556 9.68684366,7.31909774 9.72837758,7.31909774 L10.9328614,7.31909774 C11.379351,7.31909774 11.6077876,7.14586466 11.6077876,6.81864662 C11.6077876,6.49142857 11.379351,6.31819549 10.9328614,6.31819549 L9.72837758,6.31819549 Z M10.9536283,9.04180451 C11.5351032,9.04180451 11.7946903,8.86857143 11.7946903,8.44511278 C11.7946903,8.02165414 11.5351032,7.86766917 10.9536283,7.86766917 L9.72837758,7.86766917 C9.67646018,7.86766917 9.64530973,7.90616541 9.64530973,7.94466165 L9.64530973,8.96481203 C9.64530973,9.01293233 9.68684366,9.04180451 9.72837758,9.04180451 L10.9536283,9.04180451 Z" mask="url(#default-new-layout-visa-b)"/>
  </g>
</svg>
