<?xml version="1.0" encoding="UTF-8"?>
<svg width="360px" height="180px" viewBox="0 0 360 180" version="1.1" xmlns="http://www.w3.org/2000/svg" xmlns:xlink="http://www.w3.org/1999/xlink">
    <!-- Generator: Sketch 50.2 (55047) - http://www.bohemiancoding.com/sketch -->
    <title>ilus</title>
    <desc>Created with Sketch.</desc>
    <defs>
        <path d="M1,1 L1,6.85284168 C1,8.59133965 2.18930187,10 3.6531351,10 L91.3468649,10 C92.8117001,10 94,8.59133965 94,6.85284168 L94,1 L1,1 L1,1 Z" id="path-1"></path>
        <polygon id="path-3" points="9 12 0 12 0 1 9 1 9 12"></polygon>
        <polygon id="path-5" points="9 12 0 12 0 1 9 1 9 12"></polygon>
        <polygon id="path-7" points="1 12 10 12 10 1 1 1 1 12"></polygon>
        <polygon id="path-9" points="1 12 10 12 10 1 1 1 1 12"></polygon>
        <path d="M1,13.5 C1,20.9548173 7.04573991,27 14.501009,27 C21.956278,27 28,20.9548173 28,13.5 C28,6.04316466 21.956278,0 14.501009,0 C7.04573991,0 1,6.04316466 1,13.5 L1,13.5 Z" id="path-11"></path>
    </defs>
    <g id="Symbols" stroke="none" stroke-width="1" fill="none" fill-rule="evenodd">
        <g id="Illustration/Cash_Withdrawal">
            <g id="Illustration" transform="translate(-111.000000, -1.000000)">
                <g id="ilus" transform="translate(111.000000, 1.000000)">
                    <g transform="translate(-111.000000, -1.000000)">
                        <polygon id="Fill-1" fill="#2A86CA" points="111 181 471 181 471 1 111 1"></polygon>
                        <path d="M199,77 C199,77 197.899554,66.8394482 185.8955,68.8144198 C183.397028,65.3154152 179.067141,63 174.142094,63 C167.846981,63 162.519502,66.7807167 160.752996,71.986917 C159.315026,71.2234073 157.648379,70.7784414 155.861901,70.7784414 C151.494067,70.7784414 148,74.4387088 148,77 L199,77 Z" id="Fill-2" fill-opacity="0.200000018" fill="#F4F5F5"></path>
                        <polygon id="Fill-4" fill="#063563" points="256 130 471 130 471 1 256 1"></polygon>
                        <polygon id="Fill-5" fill="#072146" points="256 181 471 181 471 130 256 130"></polygon>
                        <g id="Group-24" transform="translate(180.000000, 0.000000)">
                            <polygon id="Fill-6" fill-opacity="0.3" fill="#000000" points="166.75 129 254 129 223 89 134 89"></polygon>
                            <g id="Group-11" transform="translate(117.000000, 0.000000)">
                                <path d="M120,1 L119.834692,54.4025231 C119.834692,56.3883063 118.496293,58 116.847194,58 L3.9874977,58 C2.3364073,58 1,56.3883063 1,54.4025231 L1,1.00100292" id="Fill-8" fill="#004481"></path>
                                <path d="M120,1 L119.834692,54.4025231 C119.834692,56.3883063 118.496293,58 116.847194,58 L3.9874977,58 C2.3364073,58 1,56.3883063 1,54.4025231 L1,1.00100292" id="Stroke-10" stroke="#BDBDBD" stroke-width="5"></path>
                            </g>
                            <path d="M203,50 L228.553113,50 C229.903608,50 231,48.7129248 231,47.1262547 L231,23 L203,50 Z" id="Fill-12" fill-opacity="0.57" fill="#FFFFFF"></path>
                            <polygon id="Fill-14" fill="#051B35" points="191 180 253 180 253 130 191 130"></polygon>
                            <path d="M267,9 C267,10.656 265.635361,12 263.951662,12 L249.048338,12 C247.365655,12 246,10.656 246,9 L246,8 C246,6.344 247.365655,5 249.048338,5 L263.951662,5 C265.635361,5 267,6.344 267,8 L267,9 Z" id="Fill-17" fill="#072146"></path>
                            <path d="M267,20 C267,21.656 265.635361,23 263.951662,23 L249.048338,23 C247.365655,23 246,21.656 246,20 L246,19 C246,17.344 247.365655,16 249.048338,16 L263.951662,16 C265.635361,16 267,17.344 267,19 L267,20 Z" id="Fill-18" fill="#072146"></path>
                            <path d="M267,32 C267,33.656 265.635361,35 263.951662,35 L249.048338,35 C247.365655,35 246,33.656 246,32 L246,31 C246,29.344 247.365655,28 249.048338,28 L263.951662,28 C265.635361,28 267,29.344 267,31 L267,32 Z" id="Fill-19" fill="#072146"></path>
                            <path d="M266,56.935691 C266,58.6278771 264.626821,60 262.934552,60 L249.06446,60 C247.372191,60 246,58.6278771 246,56.935691 L246,43.0652968 C246,41.3721229 247.372191,40 249.06446,40 L262.934552,40 C264.626821,40 266,41.3721229 266,43.0652968 L266,56.935691 Z" id="Fill-20" fill="#072146"></path>
                            <path d="M209.686892,134.070607 C212.863935,134.080988 209.278244,136.703129 209.270231,140.00001 C209.260215,143.2917 209.655843,146 209.655843,146 L182.743126,145.93045 C179.565082,145.922145 176.994001,143.246025 177.000011,139.950183 C177.008023,136.655378 179.594128,133.991715 182.773174,134.000019 L209.686892,134.070607 Z" id="Fill-21" fill="#EAA271"></path>
                            <path d="M204.351325,105 C201.234035,105 198.702649,107.56508 198.702649,110.72808 L198.702649,137.505957 C198.702649,137.908557 198.74787,138.302188 198.827498,138.682864 C198.785227,138.68685 198.743938,138.703791 198.702649,138.70977 C192.89865,139.411331 180.139486,146.243571 181.04587,160.854759 C181.569842,169.33726 188.543685,172 188.543685,172 L210,172 L210,137.505957 L210,127.034373 L210,110.72808 C210,107.56508 207.47353,105 204.351325,105" id="Fill-22" fill="#FAB27F"></path>
                            <path d="M225,85.9673244 C225,87.6425818 223.8117,89 222.346865,89 L134.653135,89 C133.1883,89 132,87.6425818 132,85.9673244 L132,75.0365875 C132,73.36133 133.1883,72 134.653135,72 L222.346865,72 C223.8117,72 225,73.36133 225,75.0365875 L225,85.9673244 Z" id="Fill-23" fill="#D3D3D3"></path>
                        </g>
                        <g id="Group-28" transform="translate(311.000000, 80.000000)">
                            <mask id="mask-2" fill="white">
                                <use xlink:href="#path-1"></use>
                            </mask>
                            <g id="Clip-26"></g>
                            <polygon id="Fill-25" fill="#BDBDBD" mask="url(#mask-2)" points="-32 25 123 25 123 1 -32 1"></polygon>
                            <polygon id="Stroke-27" stroke="#D3D3D3" stroke-width="1.391" mask="url(#mask-2)" points="-32 25 123 25 123 1 -32 1"></polygon>
                        </g>
                        <g id="Group-35" transform="translate(324.000000, 79.000000)">
                            <path d="M62,56.35828 L58.0782175,61 C56.4197569,61 56,59.4361158 56,57.5067262 L56,30.4952711 C56,28.5638842 57.344344,27 58.9981303,27 C60.6565908,27 62,28.5638842 62,30.4952711 L62,56.35828 L62,56.35828 Z" id="Fill-29" fill="#DD915E"></path>
                            <path d="M68,1.49882075 C68,2.32783019 67.5821206,3 67.0640303,3 L1.9329634,3 C1.41687731,3 1,2.32783019 1,1.49882075 C1,0.670990566 1.41687731,0 1.9329634,0 L67.0640303,0 C67.5821206,0 68,0.670990566 68,1.49882075" id="Fill-31" fill="#666666"></path>
                            <polygon id="Fill-33" fill="#88CA9A" points="11 61 57 61 57 0 11 0"></polygon>
                        </g>
                        <g id="Group-48" transform="translate(335.000000, 128.000000)">
                            <g id="Group-38">
                                <mask id="mask-4" fill="white">
                                    <use xlink:href="#path-3"></use>
                                </mask>
                                <g id="Clip-37"></g>
                                <path d="M10,14.4984966 C10,21.953339 3.95689943,28 -3.49749415,28 C-10.9558971,28 -17,21.953339 -17,14.4984966 C-17,7.04465645 -10.9558971,1 -3.49749415,1 C3.95689943,1 10,7.04465645 10,14.4984966" id="Fill-36" fill="#88CA9A" mask="url(#mask-4)"></path>
                            </g>
                            <g id="Group-41">
                                <mask id="mask-6" fill="white">
                                    <use xlink:href="#path-5"></use>
                                </mask>
                                <g id="Clip-40"></g>
                                <path d="M10,14.4984966 C10,21.953339 3.95689943,28 -3.49749415,28 C-10.9558971,28 -17,21.953339 -17,14.4984966 C-17,7.04465645 -10.9558971,1 -3.49749415,1 C3.95689943,1 10,7.04465645 10,14.4984966 L10,14.4984966 Z" id="Stroke-39" stroke="#C8E7D0" stroke-width="2.437" mask="url(#mask-6)"></path>
                            </g>
                            <g id="Group-44" transform="translate(37.000000, 0.000000)">
                                <mask id="mask-8" fill="white">
                                    <use xlink:href="#path-7"></use>
                                </mask>
                                <g id="Clip-43"></g>
                                <path d="M28,14.4984966 C28,21.953339 21.9565702,28 14.5050111,28 C7.0454343,28 1,21.953339 1,14.4984966 C1,7.04465645 7.0454343,1 14.5050111,1 C21.9565702,1 28,7.04465645 28,14.4984966" id="Fill-42" fill="#88CA9A" mask="url(#mask-8)"></path>
                            </g>
                            <g id="Group-47" transform="translate(37.000000, 0.000000)">
                                <mask id="mask-10" fill="white">
                                    <use xlink:href="#path-9"></use>
                                </mask>
                                <g id="Clip-46"></g>
                                <path d="M28,14.4984966 C28,21.953339 21.9565702,28 14.5050111,28 C7.0454343,28 1,21.953339 1,14.4984966 C1,7.04465645 7.0454343,1 14.5050111,1 C21.9565702,1 28,7.04465645 28,14.4984966 L28,14.4984966 Z" id="Stroke-45" stroke="#C8E7D0" stroke-width="2.437" mask="url(#mask-10)"></path>
                            </g>
                        </g>
                        <g id="Group-54" transform="translate(0.000000, 92.000000)">
                            <path d="M379,56.3066858 C379,59.4504887 376.536199,62 373.5,62 C370.461887,62 368,59.4504887 368,56.3066858 L368,29.6923237 C368,26.5485208 370.461887,24 373.5,24 C376.536199,24 379,26.5485208 379,29.6923237 L379,56.3066858 L379,56.3066858 Z" id="Fill-49" fill="#FAB27F"></path>
                            <polygon id="Fill-51" fill="#2DCCCD" points="364 89 391 89 391 80 364 80"></polygon>
                            <path d="M346,13.4994955 C346,20.9550432 352.04574,27 359.5,27 C366.956278,27 373,20.9550432 373,13.4994955 C373,6.04293882 366.956278,0 359.5,0 C352.04574,0 346,6.04293882 346,13.4994955" id="Fill-53" fill="#36824B"></path>
                        </g>
                        <g id="Group-57" transform="translate(345.000000, 92.000000)">
                            <mask id="mask-12" fill="white">
                                <use xlink:href="#path-11"></use>
                            </mask>
                            <g id="Clip-56"></g>
                            <polygon id="Fill-55" fill="#36824B" mask="url(#mask-12)" points="0 28 28 28 28 0 0 0"></polygon>
                        </g>
                        <g id="Group-66" transform="translate(335.000000, 14.000000)">
                            <polygon id="Fill-58" fill="#000000" opacity="0.300000012" points="46 67.281248 0 114 0 66 46 66"></polygon>
                            <polygon id="Fill-60" fill="#FFFFFF" points="23.1442872 84 23.2795026 84 25.7875968 86.4984324 25.7875968 97.0318646 29.180183 93.6089608 31 95.4425127 24.5005083 102 18 95.4425127 19.819817 93.6089608 23.1442872 96.9610671"></polygon>
                            <path d="M23,4 L24,79" id="Stroke-62" stroke="#FFFFFF" stroke-dasharray="3,5"></path>
                            <path d="M29,6.5 C29,9.53722108 26.5361898,12 23.4989687,12 C20.4617476,12 18,9.53722108 18,6.5 C18,3.46277892 20.4617476,1 23.4989687,1 C26.5361898,1 29,3.46277892 29,6.5" id="Fill-64" fill="#FFFFFF"></path>
                        </g>
                    </g>
                </g>
            </g>
        </g>
    </g>
</svg>