<?xml version="1.0" encoding="UTF-8"?>
<svg width="304px" height="127px" viewBox="0 0 304 127" version="1.1" xmlns="http://www.w3.org/2000/svg" xmlns:xlink="http://www.w3.org/1999/xlink">
    <!-- Generator: Sketch 52.3 (67297) - http://www.bohemiancoding.com/sketch -->
    <title>Page 1</title>
    <desc>Created with Sketch.</desc>
    <defs>
        <path d="M41.0125816,9.77089655 C42.5352997,8.96456897 44.2994243,8.49413793 46.1917685,8.49413793 C50.7793769,8.49413793 54.4579525,12.2980345 54.5180831,15.0010345 L0.57831454,15.0010345 L0.57831454,14.6044655 C0.978890208,12.5688621 3.268273,4.59527586 14.3827003,6.41896552 C17.0284451,2.72234483 21.6134006,0.276103448 26.8314955,0.276103448 C33.4980297,0.276103448 39.1405757,4.26993103 41.0125816,9.77089655 Z" id="path-1"></path>
        <path d="M41.0125816,9.77089655 C42.5352997,8.96456897 44.2994243,8.49413793 46.1917685,8.49413793 C50.7793769,8.49413793 54.4579525,12.2980345 54.5180831,15.0010345 L0.57831454,15.0010345 L0.57831454,14.6044655 C0.978890208,12.5688621 3.268273,4.59527586 14.3827003,6.41896552 C17.0284451,2.72234483 21.6134006,0.276103448 26.8314955,0.276103448 C33.4980297,0.276103448 39.1405757,4.26993103 41.0125816,9.77089655 Z" id="path-3"></path>
        <path d="M0.730461538,2.31846943 C1.49207977,1.21036636 2.76101022,0.484714286 4.1978022,0.484714286 L74.9784615,0.484714286 C77.309011,0.484714286 79.1973626,2.3925 79.1973626,4.74505102 L79.1973626,82.5470204 C79.1973626,84.8995714 77.309011,86.8064694 74.9784615,86.8064694 L4.1978022,86.8064694 C2.76101022,86.8064694 1.49207977,86.081155 0.730461538,84.9733108 L0.730461538,2.31846943 Z" id="path-5"></path>
        <path d="M0.225648649,17.1619474 C0.225648649,26.1701579 7.50794595,33.473 16.4875135,33.473 C25.4706486,33.473 32.7475946,26.1701579 32.7475946,17.1619474 C32.7475946,8.15284211 25.4706486,0.848210526 16.4875135,0.848210526 C7.50794595,0.848210526 0.225648649,8.15284211 0.225648649,17.1619474 Z" id="path-7"></path>
    </defs>
    <g id="Symbols" stroke="none" stroke-width="1" fill="none" fill-rule="evenodd">
        <g id="Illustration/-Cash-income" transform="translate(-25.000000, -16.000000)">
            <g id="Page-1" transform="translate(21.000000, 1.000000)">
                <g id="Group-27" transform="translate(4.000000, 40.000000)">
                    <path d="M165.232865,95.9847259 C165.232865,98.8644672 128.366639,101.200795 82.8875947,101.200795 C37.4085501,101.200795 0.542324629,98.8644672 0.542324629,95.9847259 C0.542324629,93.1041052 37.4085501,90.7677776 82.8875947,90.7677776 C128.366639,90.7677776 165.232865,93.1041052 165.232865,95.9847259" id="Fill-2" fill="#004481" opacity="0.400000006"></path>
                    <g id="Group-12" opacity="0.200000003" transform="translate(243.175074, 29.896552)">
                        <path d="M41.0124047,9.77116034 C42.5360071,8.96483276 44.2992475,8.49440172 46.1915917,8.49440172 C50.7792,8.49440172 54.4577757,12.2982983 54.5179062,15.000419 L0.578137685,15.000419 L0.578137685,14.6047293 C0.979597626,12.5691259 3.26809614,4.59466034 14.3825234,6.41835 C17.0282682,2.72172931 21.614108,0.276367241 26.8313187,0.276367241 C33.4978528,0.276367241 39.1403988,4.27019483 41.0124047,9.77116034" id="Fill-4" fill="#FFFFFF"></path>
                        <g id="Group-11">
                            <mask id="mask-2" fill="white">
                                <use xlink:href="#path-1"></use>
                            </mask>
                            <g id="Clip-7"></g>
                            <polygon id="Fill-6" fill="#FFFFFF" mask="url(#mask-2)" points="-4.78656973 20.3261379 59.8069199 20.3261379 59.8069199 -4.98217241 -4.78656973 -4.98217241"></polygon>
                            <g id="Group-10" mask="url(#mask-2)">
                                <mask id="mask-4" fill="white">
                                    <use xlink:href="#path-3"></use>
                                </mask>
                                <g id="Clip-9"></g>
                                <polygon id="Fill-8" fill="#FFFFFF" mask="url(#mask-4)" points="-4.78656973 20.3261379 59.8069199 20.3261379 59.8069199 -4.98217241 -4.78656973 -4.98217241"></polygon>
                            </g>
                        </g>
                    </g>
                    <path d="M25.0402237,89.1563534 C25.0402237,91.4548707 23.1664493,93.3181293 20.8558439,93.3181293 C18.54347,93.3181293 16.6705798,91.4548707 16.6705798,89.1563534 L16.6705798,82.8156466 C16.6705798,80.5180086 18.54347,78.65475 20.8558439,78.65475 C23.1664493,78.65475 25.0402237,80.5180086 25.0402237,82.8156466 L25.0402237,89.1563534 Z" id="Fill-13" fill="#072146"></path>
                    <path d="M51.0813561,89.1563534 C51.0813561,91.4548707 49.2066973,93.3181293 46.8952077,93.3181293 C44.5837181,93.3181293 42.7099436,91.4548707 42.7099436,89.1563534 L42.7099436,82.8156466 C42.7099436,80.5180086 44.5837181,78.65475 46.8952077,78.65475 C49.2066973,78.65475 51.0813561,80.5180086 51.0813561,82.8156466 L51.0813561,89.1563534 Z" id="Fill-15" fill="#004481"></path>
                    <path d="M85.8892593,89.1563534 C85.8892593,91.4548707 84.0154849,93.3181293 81.7048795,93.3181293 C79.3933899,93.3181293 77.5196154,91.4548707 77.5196154,89.1563534 L77.5196154,82.8156466 C77.5196154,80.5180086 79.3933899,78.65475 81.7048795,78.65475 C84.0154849,78.65475 85.8892593,80.5180086 85.8892593,82.8156466 L85.8892593,89.1563534 Z" id="Fill-17" fill="#072146"></path>
                    <path d="M112.341402,89.1563534 C112.341402,91.4548707 110.467627,93.3181293 108.157022,93.3181293 C105.845532,93.3181293 103.971758,91.4548707 103.971758,89.1563534 L103.971758,82.8156466 C103.971758,80.5180086 105.845532,78.65475 108.157022,78.65475 C110.467627,78.65475 112.341402,80.5180086 112.341402,82.8156466 L112.341402,89.1563534 Z" id="Fill-19" fill="#004481"></path>
                    <path d="M89.7112641,81.7612655 C89.7112641,84.0914379 87.8118457,85.9810759 85.4658694,85.9810759 L14.2712819,85.9810759 C11.9279585,85.9810759 10.0276558,84.0914379 10.0276558,81.7612655 L10.0276558,4.69938621 C10.0276558,2.36921379 11.9279585,0.479575862 14.2712819,0.479575862 L85.4658694,0.479575862 C87.8118457,0.479575862 89.7112641,2.36921379 89.7112641,4.69938621 L89.7112641,81.7612655 Z" id="Fill-21" fill="#072146"></path>
                    <path d="M118.472597,81.7612655 C118.472597,84.0914379 116.572294,85.9810759 114.227202,85.9810759 L43.0326148,85.9810759 C40.6884071,85.9810759 38.789873,84.0914379 38.789873,81.7612655 L38.789873,4.69938621 C38.789873,2.36921379 40.6884071,0.479575862 43.0326148,0.479575862 L114.227202,0.479575862 C116.572294,0.479575862 118.472597,2.36921379 118.472597,4.69938621 L118.472597,81.7612655 Z" id="Fill-23" fill="#004481"></path>
                    <path d="M198.153906,81.7612655 C198.153906,84.0914379 196.254488,85.9810759 193.91028,85.9810759 L122.714808,85.9810759 C120.371485,85.9810759 118.472951,84.0914379 118.472951,81.7612655 L118.472951,4.69938621 C118.472951,2.36921379 120.371485,0.479575862 122.714808,0.479575862 L193.91028,0.479575862 C196.254488,0.479575862 198.153906,2.36921379 198.153906,4.69938621 L198.153906,81.7612655 Z" id="Fill-25" fill="#004481"></path>
                </g>
                <g id="Group-30" opacity="0.400000006" transform="translate(123.000000, 39.000000)">
                    <mask id="mask-6" fill="white">
                        <use xlink:href="#path-5"></use>
                    </mask>
                    <g id="Clip-29"></g>
                    <polygon id="Fill-28" fill="#072146" mask="url(#mask-6)" points="0.730461538 91.8713786 92.0113407 -0.306009184 97.010022 69.9935418 85.9533187 96.0589194 23.7634286 101.175052"></polygon>
                </g>
                <g id="Group-47">
                    <path d="M115.755357,115.930522 C115.755357,117.910955 114.151223,119.516855 112.169023,119.516855 L51.9901733,119.516855 C50.00974,119.516855 48.40384,117.910955 48.40384,115.930522 L48.40384,50.4251717 C48.40384,48.4447383 50.00974,46.837955 51.9901733,46.837955 L112.169023,46.837955 C114.151223,46.837955 115.755357,48.4447383 115.755357,50.4251717 L115.755357,115.930522 Z" id="Fill-31" fill="#072146"></path>
                    <path d="M124.50071,75.5646617 C124.50071,76.993895 123.341777,78.1537117 121.912543,78.1537117 C120.484193,78.1537117 119.32526,76.993895 119.32526,75.5646617 L119.32526,63.7315283 C119.32526,62.3014117 120.484193,61.1433617 121.912543,61.1433617 C123.341777,61.1433617 124.50071,62.3014117 124.50071,63.7315283 L124.50071,75.5646617 Z" id="Fill-33" fill="#FDF0CA"></path>
                    <path d="M124.50071,105.426275 C124.50071,106.854625 123.341777,108.014442 121.912543,108.014442 C120.484193,108.014442 119.32526,106.854625 119.32526,105.426275 L119.32526,93.5931417 C119.32526,92.1621417 120.484193,91.004975 121.912543,91.004975 C123.341777,91.004975 124.50071,92.1621417 124.50071,93.5931417 L124.50071,105.426275 Z" id="Fill-35" fill="#FDF0CA"></path>
                    <polygon id="Fill-37" fill="#FADE8E" points="63.7492833 118.588383 85.0685333 118.588383 85.0685333 114.22825 63.7492833 114.22825"></polygon>
                    <polygon id="Fill-39" fill="#FADE8E" points="63.7492833 112.774283 85.0685333 112.774283 85.0685333 108.41415 63.7492833 108.41415"></polygon>
                    <polygon id="Fill-40" fill="#FADE8E" points="63.7492833 106.961067 85.0685333 106.961067 85.0685333 102.60005 63.7492833 102.60005"></polygon>
                    <polygon id="Fill-41" fill="#FADE8E" points="58.9042 100.662017 80.22345 100.662017 80.22345 96.301 58.9042 96.301"></polygon>
                    <polygon id="Fill-42" fill="#FADE8E" points="58.9042 94.8479167 80.22345 94.8479167 80.22345 90.4869 58.9042 90.4869"></polygon>
                    <polygon id="Fill-43" fill="#FADE8E" points="58.9042 89.0338167 80.22345 89.0338167 80.22345 84.6728 58.9042 84.6728"></polygon>
                    <polygon id="Fill-44" fill="#FADE8E" points="64.7183 83.2197167 86.03755 83.2197167 86.03755 78.8587 64.7183 78.8587"></polygon>
                    <path d="M171.116418,68.8249167 C171.116418,77.7192 163.910185,84.9280833 155.013252,84.9280833 C146.118968,84.9280833 138.907435,77.7192 138.907435,68.8249167 C138.907435,59.92975 146.118968,52.7199833 155.013252,52.7199833 C163.910185,52.7199833 171.116418,59.92975 171.116418,68.8249167" id="Fill-45" fill="#BA9A3D"></path>
                    <path d="M171.116418,66.40953 C171.116418,75.30293 163.910185,82.5126967 155.013252,82.5126967 C146.118968,82.5126967 138.907435,75.30293 138.907435,66.40953 C138.907435,57.51613 146.118968,50.3045967 155.013252,50.3045967 C163.910185,50.3045967 171.116418,57.51613 171.116418,66.40953" id="Fill-46" fill="#F8CD51"></path>
                </g>
                <g id="Group-50" transform="translate(139.000000, 49.000000)">
                    <mask id="mask-8" fill="white">
                        <use xlink:href="#path-7"></use>
                    </mask>
                    <g id="Clip-49"></g>
                    <polygon id="Fill-48" fill="#EAB642" mask="url(#mask-8)" points="-2.8413 37.1000842 33.3739703 0.7684 42.1555378 45.9087684"></polygon>
                </g>
                <g id="Group-63" transform="translate(58.000000, 16.000000)">
                    <path d="M98.8621908,54.7911661 C98.8621908,53.6030983 98.3833922,53.1227593 96.1342756,52.1074373 C92.8772085,50.6338102 91.9081272,49.5162508 91.9081272,47.2414712 C91.9081272,45.0081153 93.3374558,43.3969966 95.5927562,42.9157763 L95.5927562,39.8601153 L95.6908127,39.8601153 L98.2959364,41.3452 L98.2959364,42.8602508 C99.20053,42.9924542 99.9805654,43.2709627 100.721731,43.6948949 L100.863958,43.7777424 L100.958481,43.828861 L100.940813,43.9407932 L100.913428,44.1012 L100.576855,46.2067593 L100.513251,46.6033695 L100.471731,46.8660136 L100.258834,46.7029627 L99.9372792,46.4632339 C99.0574205,45.7889966 97.9646643,45.4038441 96.9266784,45.4038441 C95.5300353,45.4038441 94.7676678,46.0296068 94.7676678,47.0863525 C94.7676678,48.0743525 95.2597173,48.533539 97.475265,49.5453356 C100.742933,51.0277763 101.751767,52.2096746 101.751767,54.632522 C101.751767,56.8879119 100.325088,58.5439797 98.2959364,59.1362508 L98.2959364,62.3514373 L98.1369258,62.3514373 L95.5927562,60.8910305 L95.5927562,59.3372 C94.2402827,59.2270305 93.0114841,58.8762508 91.9646643,58.324522 L91.8012367,58.2434373 L91.6952297,58.1905559 L91.704947,58.0803864 L91.7279152,57.9138102 L92.0415194,55.7624203 L92.0962898,55.3887254 L92.1333922,55.1401831 L92.340106,55.2803186 L92.6572438,55.4847932 C93.8754417,56.2903525 95.2367491,56.7416068 96.5017668,56.7416068 C97.9699647,56.7416068 98.8621908,55.9977424 98.8621908,54.7911661" id="Fill-51" fill="#FFFFFF"></path>
                    <polygon id="Fill-53" fill="#FADE8E" points="42.1982332 41.0492407 39.1187279 42.035478 42.1982332 43.0243593 43.1893993 46.0985288 44.1787986 43.0243593 47.2591873 42.035478 44.1787986 41.0492407 43.1893993 37.9759525"></polygon>
                    <polygon id="Fill-55" fill="#FADE8E" points="6.20521201 49.6700475 3.12393993 50.6562847 6.20521201 51.6451661 7.1954947 54.7193356 8.1840106 51.6451661 11.2643993 50.6562847 8.1840106 49.6700475 7.1954947 46.5976407"></polygon>
                    <polygon id="Fill-57" fill="#072146" opacity="0.39" points="0.0145759717 98.7264949 43.1886042 55.6519864 41.0198763 97.2757831 39.1612191 103.077749 5.60026502 103.384461"></polygon>
                    <polygon id="Fill-59" fill="#FADE8E" points="41.7479682 79.9063729 37.265636 81.3421017 41.7479682 82.7804746 43.1905477 87.2533559 44.6295936 82.7804746 49.1119258 81.3421017 44.6295936 79.9063729 43.1905477 75.4343729"></polygon>
                    <path d="M249.285601,23.5822644 C249.285601,23.5822644 222.782951,-2.43800678 176.414576,0.542738983 C130.398675,3.5023322 106.764399,32.9836881 106.764399,32.9836881" id="Stroke-61" stroke="#FFFFFF" stroke-dasharray="3,5"></path>
                </g>
            </g>
        </g>
    </g>
</svg>