<?xml version="1.0" encoding="UTF-8"?>
<svg width="319px" height="137px" viewBox="0 0 319 137" version="1.1" xmlns="http://www.w3.org/2000/svg" xmlns:xlink="http://www.w3.org/1999/xlink">
    <!-- Generator: Sketch 50.2 (55047) - http://www.bohemiancoding.com/sketch -->
    <title>Page 1</title>
    <desc>Created with Sketch.</desc>
    <defs>
        <polygon id="path-1" points="0 163.639387 334.331285 163.639387 334.331285 0.481164618 0 0.481164618"></polygon>
        <polygon id="path-3" points="7.10630812 12.7921569 2.3341888 8.12891543 0.241435286 10.2359347 7.13790219 16.9744383 21.8937478 2.34864995 19.767514 0.272927576"></polygon>
        <path d="M0.21487939,56.5135549 C0.79951553,56.6872899 1.41998448,56.7807379 2.06279747,56.7807379 L73.1885457,56.7807379 C76.6875952,56.7807379 79.523616,54.0124698 79.523616,50.5979093 L82.5018473,6.29036236 C82.5018473,2.87580182 79.6654542,0.107533772 76.166777,0.107533772 L0.21487939,0.107533772 L0.21487939,56.5135549 Z" id="path-5"></path>
        <path d="M0.4167588,53.3331781 L80.9916358,53.3331781 C83.4305094,53.3331781 85.4077324,51.4038148 85.4077324,49.022027 L85.4077324,4.3139126 C85.4077324,1.93350548 83.4305094,0.00138074659 80.9916358,0.00138074659 L0.4167588,0.00138074659 L0.4167588,53.3331781 Z" id="path-7"></path>
        <path d="M9.44700436,53.4689515 L90.0218814,53.4689515 C92.460755,53.4689515 94.437978,51.5395883 94.437978,49.1582606 L94.437978,4.44922577 C94.437978,2.06881864 92.460755,0.137154161 90.0218814,0.137154161 L9.44700436,0.137154161 L9.44700436,53.4689515 Z" id="path-9"></path>
    </defs>
    <g id="Symbols" stroke="none" stroke-width="1" fill="none" fill-rule="evenodd">
        <g id="Illustration/Compra_establecimientos" transform="translate(-29.000000, -27.000000)">
            <g id="Page-1">
                <polygon id="Fill-2" fill="#FDF0CA" points="150.429365 123.988335 198.902685 123.988335 198.902685 45.6525974 150.429365 45.6525974"></polygon>
                <g id="Group-35" transform="translate(12.834358, 7.936839)">
                    <path d="M179.711553,69.9033082 C179.711553,70.5462759 179.177284,71.0668174 178.518995,71.0668174 L149.912686,71.0668174 C149.253926,71.0668174 148.719656,70.5462759 148.719656,69.9033082 C148.719656,69.2603406 149.253926,68.7397991 149.912686,68.7397991 L178.518995,68.7397991 C179.177284,68.7397991 179.711553,69.2603406 179.711553,69.9033082 Z" id="Fill-3" fill="#BA9A3D"></path>
                    <path d="M179.711553,76.884317 C179.711553,76.2408891 179.177284,75.7203476 178.518995,75.7203476 L163.421745,75.7203476 C162.763457,75.7203476 162.229658,76.2408891 162.229658,76.884317 C162.229658,77.5268244 162.763457,78.0464454 163.421745,78.0464454 L178.518995,78.0464454 C179.177284,78.0464454 179.711553,77.5268244 179.711553,76.884317" id="Fill-5" fill="#BA9A3D"></path>
                    <path d="M179.711553,83.8635768 C179.711553,83.2206091 179.177284,82.7005279 178.518995,82.7005279 L149.912686,82.7005279 C149.253926,82.7005279 148.719656,83.2206091 148.719656,83.8635768 C148.719656,84.5065444 149.253926,85.0266257 149.912686,85.0266257 L178.518995,85.0266257 C179.177284,85.0266257 179.711553,84.5065444 179.711553,83.8635768" id="Fill-7" fill="#BA9A3D"></path>
                    <path d="M147.131559,69.9033082 C147.131559,69.2603406 146.596818,68.7397991 145.939944,68.7397991 L145.144434,68.7397991 C144.486617,68.7397991 143.952347,69.2603406 143.952347,69.9033082 C143.952347,70.5462759 144.486617,71.0668174 145.144434,71.0668174 L145.939944,71.0668174 C146.596818,71.0668174 147.131559,70.5462759 147.131559,69.9033082" id="Fill-9" fill="#BA9A3D"></path>
                    <mask id="mask-2" fill="white">
                        <use xlink:href="#path-1"></use>
                    </mask>
                    <g id="Clip-12"></g>
                    <polygon id="Fill-11" fill="#BA9A3D" mask="url(#mask-2)" points="177.014504 105.967903 178.604111 105.967903 178.604111 96.6602902 177.014504 96.6602902"></polygon>
                    <polygon id="Fill-13" fill="#BA9A3D" mask="url(#mask-2)" points="169.067888 105.967903 170.657494 105.967903 170.657494 96.6602902 169.067888 96.6602902"></polygon>
                    <polygon id="Fill-14" fill="#BA9A3D" mask="url(#mask-2)" points="166.684186 105.967903 168.273321 105.967903 168.273321 96.6602902 166.684186 96.6602902"></polygon>
                    <polygon id="Fill-15" fill="#BA9A3D" mask="url(#mask-2)" points="171.45159 105.967903 175.42537 105.967903 175.42537 96.6602902 171.45159 96.6602902"></polygon>
                    <polygon id="Fill-16" fill="#BA9A3D" mask="url(#mask-2)" points="161.121744 105.967903 165.09458 105.967903 165.09458 96.6602902 161.121744 96.6602902"></polygon>
                    <path d="M182.686359,44.5434496 C182.652576,44.5324496 182.480761,44.5224496 182.186359,44.5134496" id="Stroke-17" stroke="#BA9A3D" stroke-width="4.165" stroke-linecap="round" stroke-linejoin="round" mask="url(#mask-2)"></path>
                    <path d="M182.040686,44.473638 C172.987334,44.4317554 148.676981,44.5040145 141.623958,44.5316294" id="Stroke-18" stroke="#BA9A3D" stroke-width="3" stroke-linecap="round" stroke-linejoin="round" stroke-dasharray="2.048,8.192" mask="url(#mask-2)"></path>
                    <polygon id="Fill-20" fill="#FDF0CA" mask="url(#mask-2)" points="161.918244 41.1952854 158.353773 37.7148835 161.918244 34.2358623 165.488374 37.7148835"></polygon>
                    <polygon id="Fill-21" fill="#FDF0CA" mask="url(#mask-2)" points="154.982639 41.1952854 151.415338 37.7148835 154.982639 34.2358623 158.549939 37.7148835"></polygon>
                    <polygon id="Fill-22" fill="#FDF0CA" mask="url(#mask-2)" points="148.042412 41.1952854 144.475111 37.7148835 148.042412 34.2358623 151.612542 37.7148835"></polygon>
                    <polygon id="Fill-23" fill="#FDF0CA" mask="url(#mask-2)" points="141.014711 41.0846876 137.592649 37.7147454 141.014711 34.1252645 144.583898 37.6042857"></polygon>
                    <polygon id="Fill-24" fill="#FDF0CA" mask="url(#mask-2)" points="168.861206 41.1952854 165.296264 37.7148835 168.861206 34.2358623 172.422849 37.7148835"></polygon>
                    <polygon id="Fill-25" fill="#FDF0CA" mask="url(#mask-2)" points="175.799123 41.1952854 172.229936 37.7148835 175.799123 34.2358623 179.367367 37.7148835"></polygon>
                    <polygon id="Fill-26" fill="#FDF0CA" mask="url(#mask-2)" points="182.7352 41.1952854 179.170257 37.7148835 182.7352 34.2358623 186.078042 37.7148835"></polygon>
                    <polygon id="Fill-27" fill="#FDF0CA" mask="url(#mask-2)" points="161.829357 119.531069 158.264414 116.050667 161.829357 112.571646 165.399487 116.050667"></polygon>
                    <polygon id="Fill-28" fill="#FDF0CA" mask="url(#mask-2)" points="154.893751 119.531069 151.32645 116.050667 154.893751 112.571646 158.461051 116.050667"></polygon>
                    <polygon id="Fill-29" fill="#FDF0CA" mask="url(#mask-2)" points="147.953524 119.531069 144.386223 116.050667 147.953524 112.571646 151.523654 116.050667"></polygon>
                    <polygon id="Fill-30" fill="#FDF0CA" mask="url(#mask-2)" points="141.014711 119.531069 137.595007 116.050667 141.014711 112.571646 144.583898 116.050667"></polygon>
                    <polygon id="Fill-31" fill="#FDF0CA" mask="url(#mask-2)" points="168.772366 119.531069 165.207423 116.050667 168.772366 112.571646 172.334008 116.050667"></polygon>
                    <polygon id="Fill-32" fill="#FDF0CA" mask="url(#mask-2)" points="175.710235 119.531069 172.141048 116.050667 175.710235 112.571646 179.278007 116.050667"></polygon>
                    <polygon id="Fill-33" fill="#FDF0CA" mask="url(#mask-2)" points="182.646313 119.531069 179.08137 116.050667 182.646313 112.571646 186.068375 116.050667"></polygon>
                </g>
                <g id="Group-43" transform="translate(239.179938, 78.063425)"></g>
                <g id="Group-74" transform="translate(184.046189, 26.792980)">
                    <path d="M37.8525469,18.749296 C37.8525469,28.8862773 29.4324913,37.104481 19.0460585,37.104481 C8.65962563,37.104481 0.239570031,28.8862773 0.239570031,18.749296 C0.239570031,8.61185456 8.65962563,0.393650853 19.0460585,0.393650853 C29.4324913,0.393650853 37.8525469,8.61185456 37.8525469,18.749296" id="Fill-70" fill="#48AE64"></path>
                    <polygon id="Fill-72" fill="#FFFFFF" points="15.0848693 22.9175859 10.31275 18.2543444 8.21952494 20.3613637 15.1159918 27.0998673 29.8718375 12.4740789 27.7460752 10.3983566"></polygon>
                </g>
                <g id="Group-77" transform="translate(192.024609, 36.918455)">
                    <mask id="mask-4" fill="white">
                        <use xlink:href="#path-3"></use>
                    </mask>
                    <g id="Clip-76"></g>
                    <polygon id="Fill-75" fill="#FFFFFF" mask="url(#mask-4)" points="-0.58708385 17.3863611 22.6095657 17.3863611 22.6095657 -0.077782058 -0.58708385 -0.077782058"></polygon>
                </g>
                <g id="basket" transform="translate(55.554466, 84.681293)">
                    <g id="Group-50" transform="translate(9.568602, 6.270422)" fill="#2A86CA">
                        <path d="M86.9693059,50.8119556 C86.9693059,54.2261528 84.1329129,56.9947842 80.6338634,56.9947842 L9.50848746,56.9947842 C6.00943794,56.9947842 3.17304488,54.2261528 3.17304488,50.8119556 L0.194813556,6.50404537 C0.194813556,3.08984811 3.03120661,0.321580068 6.53025614,0.321580068 L83.6120947,0.321580068 C87.1111442,0.321580068 89.9475373,3.08984811 89.9475373,6.50404537 L86.9693059,50.8119556 Z" id="Fill-49"></path>
                    </g>
                    <g id="Group-53" transform="translate(17.014181, 6.484359)">
                        <mask id="mask-6" fill="white">
                            <use xlink:href="#path-5"></use>
                        </mask>
                        <g id="Clip-52"></g>
                        <polygon id="Fill-51" fill-opacity="0.400000006" fill="#1464A5" mask="url(#mask-6)" points="0.21487939 61.8177868 91.5084655 -27.2714001 112.451388 54.7409021 76.6679389 68.3639052 27.5758906 71.0882152"></polygon>
                    </g>
                    <path d="M103.408353,10.0473598 C103.408353,12.4552444 101.408098,14.4068371 98.9410058,14.4068371 L10.3386239,14.4068371 C7.87153157,14.4068371 5.87127696,12.4552444 5.87127696,10.0473598 L5.87127696,5.06629381 C5.87127696,2.65877251 7.87153157,0.706816576 10.3386239,0.706816576 L98.9410058,0.706816576 C101.408098,0.706816576 103.408353,2.65877251 103.408353,5.06629381 L103.408353,10.0473598 Z" id="Fill-54" fill="#004481"></path>
                    <g id="Group-2" transform="translate(20.529114, 17.886975)" fill="#FFB886">
                        <path d="M5.63136388,36.7992515 C5.63136388,38.3043611 4.38162356,39.5239248 2.83927201,39.5239248 C1.29692047,39.5239248 0.0471801479,38.3043611 0.0471801479,36.7992515 L0.0471801479,3.37659273 C0.0471801479,1.87148321 1.29692047,0.651919455 2.83927201,0.651919455 C4.38162356,0.651919455 5.63136388,1.87148321 5.63136388,3.37659273 L5.63136388,36.7992515 Z" id="Fill-56"></path>
                        <path d="M21.2670783,36.7992515 C21.2670783,38.3043611 20.017338,39.5239248 18.4749865,39.5239248 C16.9326349,39.5239248 15.6828946,38.3043611 15.6828946,36.7992515 L15.6828946,3.37659273 C15.6828946,1.87148321 16.9326349,0.651919455 18.4749865,0.651919455 C20.017338,0.651919455 21.2670783,1.87148321 21.2670783,3.37659273 L21.2670783,36.7992515 Z" id="Fill-58"></path>
                        <path d="M36.9027928,36.7992515 C36.9027928,38.3043611 35.6530525,39.5239248 34.1107009,39.5239248 C32.5683494,39.5239248 31.318609,38.3043611 31.318609,36.7992515 L31.318609,3.37659273 C31.318609,1.87148321 32.5683494,0.651919455 34.1107009,0.651919455 C35.6530525,0.651919455 36.9027928,1.87148321 36.9027928,3.37659273 L36.9027928,36.7992515 Z" id="Fill-60"></path>
                        <path d="M52.5385072,36.7992515 C52.5385072,38.3043611 51.2887669,39.5239248 49.7464154,39.5239248 C48.2040638,39.5239248 46.9543235,38.3043611 46.9543235,36.7992515 L46.9543235,3.37659273 C46.9543235,1.87148321 48.2040638,0.651919455 49.7464154,0.651919455 C51.2887669,0.651919455 52.5385072,1.87148321 52.5385072,3.37659273 L52.5385072,36.7992515 Z" id="Fill-62"></path>
                        <path d="M68.1742217,36.7992515 C68.1742217,38.3043611 66.9244813,39.5239248 65.3821298,39.5239248 C63.8397783,39.5239248 62.5900379,38.3043611 62.5900379,36.7992515 L62.5900379,3.37659273 C62.5900379,1.87148321 63.8397783,0.651919455 65.3821298,0.651919455 C66.9244813,0.651919455 68.1742217,1.87148321 68.1742217,3.37659273 L68.1742217,36.7992515 Z" id="Fill-64"></path>
                    </g>
                    <path d="M39.5901419,4.58275513 C41.2799159,6.17360103 41.3275676,8.79945949 39.6977305,10.4484318 L7.57341061,42.9392523 C5.94320124,44.5878613 3.25199696,44.6354522 1.56296753,43.0438798 C-0.12717875,41.4530339 -0.174830452,38.8271754 1.45500664,37.1789297 L33.5793265,4.68738258 C35.2091636,3.03877361 37.8999956,2.99190923 39.5901419,4.58275513" id="Fill-66" fill="#5BBEFF"></path>
                    <path d="M71.5748572,4.58275513 C69.8850832,6.17360103 69.8374315,8.79945949 71.4672686,10.4484318 L103.591588,42.9392523 C105.221798,44.5878613 107.913002,44.6354522 109.602032,43.0438798 C111.292178,41.4530339 111.33983,38.8271754 109.710365,37.1789297 L77.5856726,4.68738258 C75.9558355,3.03877361 73.2650035,2.99190923 71.5748572,4.58275513" id="Fill-68" fill="#5BBEFF"></path>
                </g>
                <g id="card" transform="translate(209.718336, 90.119900)">
                    <g id="Group-38" transform="translate(9.030246, 2.151203)">
                        <mask id="mask-8" fill="white">
                            <use xlink:href="#path-7"></use>
                        </mask>
                        <g id="Clip-37"></g>
                        <path d="M0.4167588,65.1773144 L92.3097636,-24.5141432 L106.420524,50.3867569 C106.420524,50.3867569 64.7064485,68.1100201 62.7419575,67.1531628 C60.7784096,66.1930836 26.9185254,64.2789086 26.9185254,64.2789086 L0.4167588,65.1773144 Z" id="Fill-36" fill="#004481" mask="url(#mask-8)"></path>
                    </g>
                    <g>
                        <path d="M94.4380251,51.1735063 C94.4380251,53.5552942 92.4608022,55.4841972 90.0219285,55.4841972 L5.2757854,55.4841972 C2.83596866,55.4841972 0.859688808,53.5552942 0.859688808,51.1735063 L0.859688808,6.46493169 C0.859688808,4.08452457 2.83596866,2.15239984 5.2757854,2.15239984 L90.0219285,2.15239984 C92.4608022,2.15239984 94.4380251,4.08452457 94.4380251,6.46493169 L94.4380251,51.1735063 Z" id="Fill-34" fill="#004481"></path>
                        <path d="M94.4380251,49.1581226 C94.4380251,51.5394502 92.4608022,53.4688134 90.0219285,53.4688134 L5.2757854,53.4688134 C2.83596866,53.4688134 0.859688808,51.5394502 0.859688808,49.1581226 L0.859688808,4.44908769 C0.859688808,2.06868057 2.83596866,0.137016087 5.2757854,0.137016087 L90.0219285,0.137016087 C92.4608022,0.137016087 94.4380251,2.06868057 94.4380251,4.44908769 L94.4380251,49.1581226 Z" id="Fill-39" fill="#2A86CA"></path>
                        <mask id="mask-10" fill="white">
                            <use xlink:href="#path-9"></use>
                        </mask>
                        <g id="Clip-42"></g>
                        <path d="M9.44700436,65.3127196 L88.5472399,-11.8926465 L115.45077,50.5226224 C115.45077,50.5226224 73.7366941,68.2458856 71.7722031,67.288568 C69.8086552,66.3284888 35.948771,64.4143138 35.948771,64.4143138 L9.44700436,65.3127196 Z" id="Fill-41" fill="#0977BA" mask="url(#mask-10)"></path>
                        <polygon id="Fill-46" fill="#FFFFFF" mask="url(#mask-10)" points="12.8168185 39.088936 82.6618776 39.088936 82.6618776 32.7637359 12.8168185 32.7637359"></polygon>
                    </g>
                    <polygon id="Fill-44" fill="#072146" points="0.949708332 15.7980422 94.5289877 15.7980422 94.5289877 6.66072156 0.949708332 6.66072156"></polygon>
                </g>
                <polygon id="Fill-47" fill-opacity="0.5" fill="#FDF0CA" points="338.049927 154.050897 332 155.995153 338.049927 157.942317 339.999031 163.996607 341.945225 157.942317 348 155.995153 341.945225 154.050897 339.999031 148"></polygon>
                <polygon id="Fill-48" fill-opacity="0.5" fill="#FDF0CA" points="35.0499273 47.0508968 29 48.9951527 35.0499273 50.942317 36.9990305 56.9966069 38.9452254 50.942317 45 48.9951527 38.9452254 47.0508968 36.9990305 41"></polygon>
            </g>
        </g>
    </g>
</svg>