<?xml version="1.0" encoding="UTF-8"?>
<svg width="360px" height="119px" viewBox="0 0 360 119" version="1.1" xmlns="http://www.w3.org/2000/svg" xmlns:xlink="http://www.w3.org/1999/xlink">
    <!-- Generator: Sketch 52.3 (67297) - http://www.bohemiancoding.com/sketch -->
    <title>Page 1</title>
    <desc>Created with Sketch.</desc>
    <defs>
        <path d="M42.3279149,7.95809268 C41.2154132,5.48706701 38.7348197,3.76778049 35.85395,3.76778049 L2.63815,3.76778049 C2.1337,3.76778049 1.6492,3.82104878 1.178,3.92187805 C1.17135,3.86860976 1.15235,3.81629268 1.14285,3.76778049 C1.03384627,2.85233033 0.805571485,1.79964393 0.454005,0.660692775 L0.454005,7.95809268 L42.3279149,7.95809268 Z" id="path-1"></path>
        <path d="M0.16638802,7.95809268 C1.27866673,5.48706701 3.75893209,3.76778049 6.6405,3.76778049 L39.85535,3.76778049 C40.3598,3.76778049 40.8443,3.82104878 41.3155,3.92187805 C41.32215,3.86860976 41.3421,3.81629268 41.3516,3.76778049 C41.4605548,2.85274089 41.6886738,1.80058811 42.03997,0.662225098 L42.03997,7.95809268 L0.16638802,7.95809268 Z" id="path-3"></path>
        <path d="M40.512,9.623 C42.025,8.818 43.776,8.348 45.657,8.348 C50.213,8.348 53.867,12.148 53.928,14.848 L0.349,14.848 L0.349,14.452 C0.747,12.417 3.021,4.453 14.061,6.274 C16.688,2.582 21.242,0.139 26.427,0.139 C33.047,0.139 38.652,4.129 40.512,9.623 Z" id="path-5"></path>
        <path d="M40.512,9.623 C42.025,8.818 43.776,8.348 45.657,8.348 C50.213,8.348 53.867,12.148 53.928,14.848 L0.349,14.848 L0.349,14.452 C0.747,12.417 3.021,4.453 14.061,6.274 C16.688,2.582 21.242,0.139 26.427,0.139 C33.047,0.139 38.652,4.129 40.512,9.623 Z" id="path-7"></path>
        <path d="M11.744,8.65 C13.343,3.925 18.164,0.493 23.857,0.493 C28.316,0.493 32.232,2.595 34.493,5.771 C43.987,4.204 45.942,11.053 46.285,12.803 L46.285,13.144 L0.206,13.144 C0.258,10.822 3.401,7.554 7.319,7.554 C8.937,7.554 10.442,7.958 11.744,8.65 Z" id="path-9"></path>
        <path d="M11.744,8.65 C13.343,3.925 18.164,0.493 23.857,0.493 C28.316,0.493 32.232,2.595 34.493,5.771 C43.987,4.204 45.942,11.053 46.285,12.803 L46.285,13.144 L0.206,13.144 C0.258,10.822 3.401,7.554 7.319,7.554 C8.937,7.554 10.442,7.958 11.744,8.65 Z" id="path-11"></path>
        <path d="M0.638390873,16.1870528 C0.638390873,24.9863211 7.76810782,32.1197764 16.5614836,32.1197764 C25.3574793,32.1197764 32.4819564,24.9863211 32.4819564,16.1870528 C32.4819564,7.38691057 25.3574793,0.251707317 16.5614836,0.251707317 C7.76810782,0.251707317 0.638390873,7.38691057 0.638390873,16.1870528 Z" id="path-13"></path>
    </defs>
    <g id="Symbols" stroke="none" stroke-width="1" fill="none" fill-rule="evenodd">
        <g id="Illustration/-Commision" transform="translate(0.000000, -18.000000)">
            <g id="Page-1">
                <g>
                    <g id="Group-2" transform="translate(0.000000, 98.000000)">
                        <path d="M54.868105,32.2048683 C50.944605,32.2048683 55.359255,29.0639415 55.353555,25.1344537 C55.349755,21.2059171 54.850055,17.9803317 54.850055,17.9803317 L88.064905,17.9375268 C91.987455,17.9318195 95.168055,21.1136488 95.178505,25.0431366 C95.182305,28.9716732 92.003605,32.1573073 88.083905,32.1658683 L54.868105,32.2048683 Z" id="Fill-32" fill="#DD915E"></path>
                        <path d="M94.252255,29.9039634 C94.252255,25.9754268 91.073555,22.7916951 87.152905,22.7916951 L53.938055,22.7916951 C53.433605,22.7916951 52.949105,22.8449634 52.477905,22.9467439 C52.472205,22.8934756 52.452255,22.8411585 52.442755,22.7916951 C51.572555,15.4825244 43.098555,-0.577865854 24.972555,0.562646341 C14.454155,1.22184146 11.149105,10.0015976 11.149105,10.0015976 L11.149105,37.0171829 L53.938055,37.0171829 L66.926455,37.0171829 L87.152905,37.0171829 C91.073555,37.0171829 94.252255,33.8325 94.252255,29.9039634" id="Fill-34" fill="#FAB27F"></path>
                        <g id="Group-39" transform="translate(51.300000, 19.024390)">
                            <mask id="mask-2" fill="white">
                                <use xlink:href="#path-1"></use>
                            </mask>
                            <g id="Clip-38"></g>
                            <path d="M5.428205,7.95809268 L0.454005,3.0840439 L0.579405,2.58750732 C0.579405,0.393043902 1.488555,0.011604878 3.957605,0.011604878 L38.575605,0.011604878 C41.045605,0.011604878 43.052005,1.79323902 43.052005,3.9858 C43.052005,6.1793122 41.045605,7.95809268 38.575605,7.95809268 L5.428205,7.95809268 Z" id="Fill-37" fill="#DD915E" mask="url(#mask-2)"></path>
                        </g>
                        <g id="Group-45">
                            <polygon id="Fill-40" fill="#02A5A5" points="0 38.3465122 11.1492 38.3465122 11.1492 4.47929268 0 4.47929268"></polygon>
                            <path d="M39.95377,23.5370707 C36.03217,23.5370707 32.84967,20.3552415 32.84967,16.4267049 C32.84967,12.4981683 36.03217,9.3153878 39.95377,9.3153878 L73.17052,9.3153878 C77.08642,9.3153878 80.27082,12.4981683 80.27082,16.4267049 C80.27082,20.3552415 77.08642,23.5370707 73.17052,23.5370707 L39.95377,23.5370707 Z" id="Fill-42" fill="#FAB27F"></path>
                            <path d="M304.87587,32.2048683 C308.79937,32.2048683 304.38472,29.0639415 304.39042,25.1344537 C304.39422,21.2059171 304.89392,17.9803317 304.89392,17.9803317 L271.67907,17.9375268 C267.75652,17.9318195 264.57592,21.1136488 264.56547,25.0431366 C264.56167,28.9716732 267.74037,32.1573073 271.66007,32.1658683 L304.87587,32.2048683 Z" id="Fill-43" fill="#DD915E"></path>
                            <path d="M265.49172,29.9039634 C265.49172,25.9754268 268.67042,22.7916951 272.59107,22.7916951 L305.80592,22.7916951 C306.31037,22.7916951 306.79487,22.8449634 307.26607,22.9467439 C307.27177,22.8934756 307.29172,22.8411585 307.30122,22.7916951 C308.17142,15.4825244 316.64542,-0.577865854 334.77142,0.562646341 C345.28982,1.22184146 348.59487,10.0015976 348.59487,10.0015976 L348.59487,37.0171829 L305.80592,37.0171829 L292.81752,37.0171829 L272.59107,37.0171829 C268.67042,37.0171829 265.49172,33.8325 265.49172,29.9039634" id="Fill-44" fill="#FAB27F"></path>
                        </g>
                        <g id="Group-48" transform="translate(265.950000, 19.024390)">
                            <mask id="mask-4" fill="white">
                                <use xlink:href="#path-3"></use>
                            </mask>
                            <g id="Clip-47"></g>
                            <path d="M37.06577,7.95809268 L42.03997,3.0840439 L41.91457,2.58750732 C41.91457,0.393043902 41.00542,0.011604878 38.53637,0.011604878 L3.91837,0.011604878 C1.44837,0.011604878 -0.55803,1.79323902 -0.55803,3.9858 C-0.55803,6.1793122 1.44837,7.95809268 3.91837,7.95809268 L37.06577,7.95809268 Z" id="Fill-46" fill="#DD915E" mask="url(#mask-4)"></path>
                        </g>
                        <polygon id="Fill-49" fill="#E77D8E" points="348.5943 38.3465122 359.7435 38.3465122 359.7435 4.47929268 348.5943 4.47929268"></polygon>
                        <path d="M319.79011,23.5370707 C323.71171,23.5370707 326.89421,20.3552415 326.89421,16.4267049 C326.89421,12.4981683 323.71171,9.3153878 319.79011,9.3153878 L286.57336,9.3153878 C282.65746,9.3153878 279.47306,12.4981683 279.47306,16.4267049 C279.47306,20.3552415 282.65746,23.5370707 286.57336,23.5370707 L319.79011,23.5370707 Z" id="Fill-51" fill="#FAB27F"></path>
                    </g>
                    <g id="Group-10" opacity="0.400000006" transform="translate(24.000000, 33.000000)">
                        <path d="M40.5117,9.623 C42.0257,8.818 43.7767,8.348 45.6577,8.348 C50.2127,8.348 53.8667,12.148 53.9277,14.848 L0.3487,14.848 L0.3487,14.452 C0.7467,12.417 3.0207,4.453 14.0607,6.274 C16.6887,2.582 21.2417,0.139 26.4267,0.139 C33.0467,0.139 38.6527,4.129 40.5117,9.623" id="Fill-2" fill="#FFFFFF"></path>
                        <g id="Group-9">
                            <mask id="mask-6" fill="white">
                                <use xlink:href="#path-5"></use>
                            </mask>
                            <g id="Clip-5"></g>
                            <polygon id="Fill-4" fill="#FFFFFF" mask="url(#mask-6)" points="-4.98 20.167 59.18 20.167 59.18 -5.113 -4.98 -5.113"></polygon>
                            <g id="Group-8" mask="url(#mask-6)">
                                <mask id="mask-8" fill="white">
                                    <use xlink:href="#path-7"></use>
                                </mask>
                                <g id="Clip-7"></g>
                                <polygon id="Fill-6" fill="#FFFFFF" mask="url(#mask-8)" points="-4.98 20.167 59.18 20.167 59.18 -5.113 -4.98 -5.113"></polygon>
                            </g>
                        </g>
                    </g>
                    <g id="Group-19" opacity="0.400000006" transform="translate(294.000000, 28.000000)">
                        <path d="M11.7441,8.6504 C10.4421,7.9584 8.9361,7.5534 7.3191,7.5534 C3.4011,7.5534 0.2581,10.8224 0.2061,13.1434 L46.2851,13.1434 L46.2851,12.8024 C45.9421,11.0524 43.9871,4.2044 34.4931,5.7704 C32.2321,2.5944 28.3161,0.4934 23.8571,0.4934 C18.1641,0.4934 13.3431,3.9244 11.7441,8.6504" id="Fill-11" fill="#FFFFFF"></path>
                        <g id="Group-18">
                            <mask id="mask-10" fill="white">
                                <use xlink:href="#path-9"></use>
                            </mask>
                            <g id="Clip-14"></g>
                            <polygon id="Fill-13" fill="#FFFFFF" mask="url(#mask-10)" points="-4.311 17.718 50.868 17.718 50.868 -4.023 -4.311 -4.023"></polygon>
                            <g id="Group-17" opacity="0.200000003" mask="url(#mask-10)">
                                <mask id="mask-12" fill="white">
                                    <use xlink:href="#path-11"></use>
                                </mask>
                                <g id="Clip-16"></g>
                                <polygon id="Fill-15" fill="#FFFFFF" mask="url(#mask-12)" points="-4.311 17.718 50.868 17.718 50.868 -4.023 -4.311 -4.023"></polygon>
                            </g>
                        </g>
                    </g>
                    <g id="Group-3" transform="translate(73.000000, 18.000000)">
                        <g id="Group-24" transform="translate(187.762022, 51.040650)">
                            <path d="M32.4822184,18.576437 C32.4822184,27.3765793 25.3577413,34.5091606 16.5617456,34.5091606 C7.76836982,34.5091606 0.638652867,27.3765793 0.638652867,18.576437 C0.638652867,9.77542073 7.76836982,2.64196545 16.5617456,2.64196545 C25.3577413,2.64196545 32.4822184,9.77542073 32.4822184,18.576437" id="Fill-20" fill="#BA9A3D"></path>
                            <path d="M32.4822184,16.1866159 C32.4822184,24.9858841 25.3577413,32.1193394 16.5617456,32.1193394 C7.76836982,32.1193394 0.638652867,24.9858841 0.638652867,16.1866159 C0.638652867,7.38734756 7.76836982,0.252144309 16.5617456,0.252144309 C25.3577413,0.252144309 32.4822184,7.38734756 32.4822184,16.1866159" id="Fill-22" fill="#F8CD51"></path>
                        </g>
                        <g id="Group-27" transform="translate(187.762022, 51.040650)">
                            <mask id="mask-14" fill="white">
                                <use xlink:href="#path-13"></use>
                            </mask>
                            <g id="Clip-26"></g>
                            <polygon id="Fill-25" fill="#EAB642" mask="url(#mask-14)" points="-2.36492816 35.6626443 33.0958946 0.173660569 41.6945219 44.2670142"></polygon>
                        </g>
                        <path d="M206.44181,71.5852114 C206.44181,70.4070813 205.968475,69.9307602 203.745024,68.9239309 C200.525123,67.4626301 199.5671,66.3544187 199.5671,64.0986667 C199.5671,61.8839919 200.980119,60.2863496 203.209683,59.8091545 L203.209683,56.7790528 L203.306621,56.7790528 L205.882017,58.2517154 L205.882017,59.7540935 C206.776289,59.8851911 207.547423,60.1613699 208.280131,60.5817561 L208.420735,60.6639106 L208.514179,60.7146016 L208.496713,60.8255976 L208.46964,60.9846626 L208.136908,63.0726098 L208.07403,63.4659024 L208.032984,63.7263496 L207.822516,63.5646626 L207.504631,63.326939 C206.634812,62.6583415 205.554525,62.2764106 204.528384,62.2764106 C203.147678,62.2764106 202.39401,62.896939 202.39401,63.9448455 C202.39401,64.9245813 202.880445,65.3799268 205.070711,66.3832602 C208.301091,67.8533008 209.298413,69.025313 209.298413,71.4278943 C209.298413,73.6644187 207.888014,75.3066341 205.882017,75.8939512 L205.882017,79.0822439 L205.724821,79.0822439 L203.209683,77.6340528 L203.209683,76.0932195 C201.872643,75.9839715 200.657867,75.636126 199.622992,75.0890122 L199.46143,75.0086057 L199.356632,74.9561667 L199.366239,74.8469187 L199.388945,74.6817358 L199.69897,72.5483415 L199.753116,72.1777724 L199.789795,71.9313089 L199.99415,72.0702724 L200.307669,72.2730366 C201.511965,73.0718577 202.857739,73.5193374 204.108321,73.5193374 C205.559765,73.5193374 206.44181,72.7816951 206.44181,71.5852114" id="Fill-28" fill="#FFFFFF"></path>
                        <path d="M0.290812806,73.7232378 C0.290812806,73.7232378 31.730035,28.8398028 107.889804,29.0259614 C165.410481,29.1675467 195.653266,53.933624 195.653266,53.933624" id="Stroke-30" stroke="#FFFFFF" stroke-width="0.8708175" stroke-dasharray="2.612452483177185,4.354087471961975"></path>
                        <path d="M132.841752,31.9094959 C132.841752,49.2408902 118.802131,63.2913153 101.484063,63.2913153 C84.1659947,63.2913153 70.1263731,49.2408902 70.1263731,31.9094959 C70.1263731,14.5781017 84.1659947,0.527676608 101.484063,0.527676608 C118.802131,0.527676608 132.841752,14.5781017 132.841752,31.9094959" id="Fill-52" fill="#2A86CA"></path>
                        <path d="M116.615559,37.8977747 C116.615559,34.0958673 115.554101,31.7257554 113.266558,31.7257554 C110.938249,31.7257554 109.917557,34.2190409 109.917557,37.8561938 C109.917557,41.698113 110.980582,44.1098058 113.306539,44.1098058 C115.594082,44.1098058 116.615559,41.5357121 116.615559,37.8977747 Z M105.670941,37.9393556 C105.670941,32.0937072 108.611509,28.3349498 113.306539,28.3349498 C117.962372,28.3349498 120.86139,32.0937072 120.86139,37.8561938 C120.86139,43.5378722 118.043902,47.4605996 113.266558,47.4605996 C108.48843,47.4605996 105.670941,43.6194649 105.670941,37.9393556 Z M90.2735319,47.0534205 L108.32537,16.8084076 L112.69428,16.8084076 L94.6447938,47.0534205 L90.2735319,47.0534205 Z M93.0510392,25.9224724 C93.0510392,22.1213496 91.9480325,19.7104413 89.702038,19.7104413 C87.3752974,19.7104413 86.3122717,22.2021578 86.3122717,25.8400952 C86.3122717,29.6827989 87.4160624,32.1345036 89.742803,32.1345036 C91.9895814,32.1345036 93.0510392,29.5604098 93.0510392,25.9224724 Z M82.1056377,25.9224724 C82.1056377,20.0783931 85.046989,16.3580785 89.742803,16.3580785 C94.398636,16.3580785 97.2976544,20.0783931 97.2976544,25.8400952 C97.2976544,31.5633545 94.4809499,35.444501 89.702038,35.444501 C84.883145,35.444501 82.1056377,31.6441627 82.1056377,25.9224724 Z" id="Fill-53" fill="#FFFFFF"></path>
                    </g>
                </g>
            </g>
        </g>
    </g>
</svg>