<?xml version="1.0" encoding="UTF-8"?>
<svg width="244px" height="123px" viewBox="0 0 244 123" version="1.1" xmlns="http://www.w3.org/2000/svg" xmlns:xlink="http://www.w3.org/1999/xlink">
    <!-- Generator: Sketch 52.3 (67297) - http://www.bohemiancoding.com/sketch -->
    <title>Page 1</title>
    <desc>Created with Sketch.</desc>
    <defs>
        <polygon id="path-1" points="0 162.099448 323.8731 162.099448 323.8731 0.899651934 0 0.899651934"></polygon>
        <path d="M0.369,5.08451934 C0.369,7.74024862 2.5191,9.89256906 5.1732,9.89256906 C7.8237,9.89256906 9.9774,7.74024862 9.9774,5.08451934 C9.9774,2.42969061 7.8237,0.277370166 5.1732,0.277370166 C2.5191,0.277370166 0.369,2.42969061 0.369,5.08451934 Z" id="path-3"></path>
        <path d="M5.1561,0.894248619 C2.3661,0.894248619 0.1053,3.15823757 0.1053,5.94814917 L0.1053,50.443547 C0.1053,53.2343591 2.3661,55.496547 5.1561,55.496547 L85.9572,55.496547 C88.7472,55.496547 91.0071,53.2343591 91.0071,50.443547 L91.0071,5.94814917 C91.0071,3.15823757 88.7472,0.894248619 85.9572,0.894248619 L5.1561,0.894248619 Z" id="path-5"></path>
        <polygon id="path-7" points="0.459 6.76495028 58.5369 6.76495028 58.5369 0.0252154696 0.459 0.0252154696"></polygon>
        <polygon id="path-9" points="0.2196 7.18370718 47.7369 7.18370718 47.7369 0.445773481 0.2196 0.445773481"></polygon>
        <path d="M1.7739,0.819502762 C1.0755,0.819502762 0.5103,1.38595028 0.5103,2.0829779 C0.5103,2.78180663 1.0755,3.34735359 1.7739,3.34735359 L7.7733,3.34735359 C8.4708,3.34735359 9.0351,2.78180663 9.0351,2.0829779 C9.0351,1.38595028 8.4708,0.819502762 7.7733,0.819502762 L1.7739,0.819502762 Z" id="path-11"></path>
        <path d="M1.9017,0.819502762 C1.2042,0.819502762 0.6399,1.38595028 0.6399,2.0829779 C0.6399,2.78180663 1.2042,3.34735359 1.9017,3.34735359 L7.8993,3.34735359 C8.5995,3.34735359 9.1638,2.78180663 9.1638,2.0829779 C9.1638,1.38595028 8.5995,0.819502762 7.8993,0.819502762 L1.9017,0.819502762 Z" id="path-13"></path>
        <path d="M2.0304,0.819502762 C1.3311,0.819502762 0.7659,1.38595028 0.7659,2.0829779 C0.7659,2.78180663 1.3311,3.34735359 2.0304,3.34735359 L8.0289,3.34735359 C8.7255,3.34735359 9.2898,2.78180663 9.2898,2.0829779 C9.2898,1.38595028 8.7255,0.819502762 8.0289,0.819502762 L2.0304,0.819502762 Z" id="path-15"></path>
        <path d="M1.3833,0.819502762 C0.6876,0.819502762 0.1215,1.38595028 0.1215,2.0829779 C0.1215,2.78180663 0.6876,3.34735359 1.3833,3.34735359 L7.3845,3.34735359 C8.0802,3.34735359 8.6463,2.78180663 8.6463,2.0829779 C8.6463,1.38595028 8.0802,0.819502762 7.3845,0.819502762 L1.3833,0.819502762 Z" id="path-17"></path>
        <path d="M2.1564,0.819502762 C1.4589,0.819502762 0.8946,1.38595028 0.8946,2.0829779 C0.8946,2.78180663 1.4589,3.34735359 2.1564,3.34735359 L8.1558,3.34735359 C8.8542,3.34735359 9.4185,2.78180663 9.4185,2.0829779 C9.4185,1.38595028 8.8542,0.819502762 8.1558,0.819502762 L2.1564,0.819502762 Z" id="path-19"></path>
        <polygon id="path-21" points="0.5373 33.0421713 51.7599 33.0421713 51.7599 0.512414365 0.5373 0.512414365"></polygon>
        <polygon id="path-23" points="0.774 4.2911326 55.1205 4.2911326 55.1205 0.335005525 0.774 0.335005525"></polygon>
        <polygon id="path-25" points="0.774 3.18705525 55.1205 3.18705525 55.1205 0.658303867 0.774 0.658303867"></polygon>
        <polygon id="path-27" points="0.1197 0.582657459 0.1197 26.3564696 14.7888 26.7383039 14.7888 0.582657459"></polygon>
        <path d="M0.1197,14.8275967 L0.1197,20.8423867 L0.7398,21.8699171 L14.7888,22.2355414 L14.7888,0.0873535912 C10.7487,4.20918232 3.7818,11.2830221 0.1197,14.8275967 Z" id="path-29"></path>
        <polygon id="path-31" points="0.5427 22.2319392 24.2307 22.2319392 24.2307 0.581756906 0.5427 0.581756906"></polygon>
        <path d="M22.1976,0.581756906 C16.1838,6.38221547 4.4766,17.7345801 0.2718,22.2319392 L22.4316,22.2319392 L22.4316,0.581756906 L22.1976,0.581756906 Z" id="path-33"></path>
        <polygon id="path-35" points="0.1197 6.02559669 14.7888 6.02559669 14.7888 0.753762431 0.1197 0.753762431"></polygon>
        <polygon id="path-37" points="0.1197 2.05506077 14.7888 2.05506077 14.7888 0.582657459 0.1197 0.582657459"></polygon>
        <polygon id="path-39" points="0.5427 2.05506077 24.2307 2.05506077 24.2307 0.582657459 0.5427 0.582657459"></polygon>
        <polygon id="path-41" points="0.5427 1.49041436 24.2307 1.49041436 24.2307 0.0171104972 0.5427 0.0171104972"></polygon>
        <polygon id="path-43" points="0.5373 2.78450829 51.7599 2.78450829 51.7599 0.688922652 0.5373 0.688922652"></polygon>
        <path d="M0.3465,1.44088398 C0.3465,2.07307182 0.8604,2.58638674 1.4958,2.58638674 C2.1312,2.58638674 2.6478,2.07307182 2.6478,1.44088398 C2.6478,0.80779558 2.1312,0.29358011 1.4958,0.29358011 C0.8604,0.29358011 0.3465,0.80779558 0.3465,1.44088398 Z" id="path-45"></path>
    </defs>
    <g id="Symbols" stroke="none" stroke-width="1" fill="none" fill-rule="evenodd">
        <g id="Illustration/-Loans" transform="translate(-61.000000, -19.000000)">
            <g id="Page-1">
                <g transform="translate(18.000000, -8.000000)">
                    <g id="Group-12" transform="translate(0.000000, 0.000901)">
                        <path d="M83.68587,62.1384818 L86.74857,71.1872331 L84.02427,71.1872331 L83.36277,69.0123989 L79.69167,69.0123989 L79.03467,71.1872331 L77.47047,71.1872331 L80.55117,61.1163547 L82.47357,61.1163547 C83.26377,61.1163547 83.41677,61.3099735 83.68587,62.1384818 Z M80.13897,67.5363934 L82.90647,67.5363934 L81.51057,62.9444762 L80.13897,67.5363934 Z" id="Fill-1" fill="#F3F4F4"></path>
                        <path d="M68.45094,65.0652773 L68.93244,64.3331282 C69.97914,62.7877801 69.25734,61.1109514 67.20084,61.1109514 L62.82144,61.1109514 L62.82144,71.1872331 L67.04784,71.1872331 C70.76574,71.1872331 71.88984,66.8573768 68.45094,65.0652773 Z M65.18934,69.8382055 L65.18934,62.4284597 L66.48174,62.4284597 C67.10274,62.4284597 67.64364,62.9444762 67.64364,63.5595536 C67.64364,63.7765867 67.59594,63.9756088 67.38624,64.2917028 L66.55374,65.5497746 C67.42494,65.7596033 68.00904,66.4296144 68.00904,67.6849845 C68.00904,69.195211 67.10274,69.8382055 65.90574,69.8382055 L65.18934,69.8382055 Z" id="Fill-3" fill="#F3F4F4"></path>
                        <path d="M59.9229,65.0652773 L60.417,64.3331282 C61.4502,62.7877801 60.7401,61.1109514 58.6872,61.1109514 L54.2988,61.1109514 L54.2988,71.1872331 L58.5324,71.1872331 C62.2449,71.1872331 63.3672,66.8573768 59.9229,65.0652773 M57.3885,69.8382055 L56.6685,69.8382055 L56.6685,62.4284597 L57.9618,62.4284597 C58.5837,62.4284597 59.1255,62.9444762 59.1255,63.5595536 C59.1255,63.7765867 59.0769,63.9756088 58.869,64.2917028 L58.0311,65.5497746 C58.9005,65.7596033 59.4909,66.4296144 59.4909,67.6849845 C59.4909,69.195211 58.5837,69.8382055 57.3885,69.8382055" id="Fill-5" fill="#F3F4F4"></path>
                        <path d="M72.87093,62.4269287 C72.51273,61.291332 72.33093,61.1112215 71.64243,61.1112215 L69.86493,61.1112215 L73.15533,71.1884039 L75.57813,71.1884039 L78.64533,61.1112215 L77.04783,61.1112215 L74.78253,68.7614149 L72.87093,62.4269287 Z" id="Fill-7" fill="#F3F4F4"></path>
                        <mask id="mask-2" fill="white">
                            <use xlink:href="#path-1"></use>
                        </mask>
                        <g id="Clip-10"></g>
                        <path d="M219.70719,50.5307204 C222.29109,53.0009359 196.70679,26.4589525 146.90709,28.4752895 C95.27859,30.5654718 70.52499,57.9224552 70.52499,57.9224552" id="Stroke-11" stroke="#FFFFFF" stroke-width="0.9" stroke-dasharray="2.7,4.5" mask="url(#mask-2)"></path>
                    </g>
                    <g id="Group-15" transform="translate(218.700000, 52.232945)">
                        <mask id="mask-4" fill="white">
                            <use xlink:href="#path-3"></use>
                        </mask>
                        <g id="Clip-14"></g>
                        <polygon id="Fill-13" fill="#F3F4F4" mask="url(#mask-4)" points="-4.131 14.3953315 14.4774 14.3953315 14.4774 -4.22539227 -4.131 -4.22539227"></polygon>
                    </g>
                    <g id="Group-18" transform="translate(177.300000, 71.144547)">
                        <mask id="mask-6" fill="white">
                            <use xlink:href="#path-5"></use>
                        </mask>
                        <g id="Clip-17"></g>
                        <polygon id="Fill-16" fill="#FFFFFF" mask="url(#mask-6)" points="-8.7309 64.3354696 99.8424 64.3354696 99.8424 -7.94647514 -8.7309 -7.94647514"></polygon>
                    </g>
                    <g id="Group-21" transform="translate(204.300000, 108.067199)">
                        <mask id="mask-8" fill="white">
                            <use xlink:href="#path-7"></use>
                        </mask>
                        <g id="Clip-20"></g>
                        <polygon id="Fill-19" fill="#E9E9E9" mask="url(#mask-8)" points="-4.041 11.2677127 63.0369 11.2677127 63.0369 -4.47574586 -4.041 -4.47574586"></polygon>
                    </g>
                    <g id="Group-24" transform="translate(215.100000, 98.161122)">
                        <mask id="mask-10" fill="white">
                            <use xlink:href="#path-9"></use>
                        </mask>
                        <g id="Clip-23"></g>
                        <polygon id="Fill-22" fill="#E9E9E9" mask="url(#mask-10)" points="-4.2822 11.6864696 52.2369 11.6864696 52.2369 -4.0560884 -4.2822 -4.0560884"></polygon>
                    </g>
                    <path d="M255.57354,117.892767 C254.87604,117.892767 254.30994,118.458314 254.30994,119.156242 C254.30994,119.855071 254.87604,120.419717 255.57354,120.419717 L261.57294,120.419717 C262.27044,120.419717 262.83474,119.855071 262.83474,119.156242 C262.83474,118.458314 262.27044,117.892767 261.57294,117.892767 L255.57354,117.892767 Z" id="Fill-25" fill="#2A86CA"></path>
                    <g id="Group-29" transform="translate(253.800000, 117.072724)">
                        <mask id="mask-12" fill="white">
                            <use xlink:href="#path-11"></use>
                        </mask>
                        <g id="Clip-28"></g>
                        <polygon id="Fill-27" fill="#2A86CA" mask="url(#mask-12)" points="-3.9906 7.84921547 13.5369 7.84921547 13.5369 -3.68416022 -3.9906 -3.68416022"></polygon>
                    </g>
                    <path d="M243.10188,117.892767 C242.40438,117.892767 241.84008,118.458314 241.84008,119.156242 C241.84008,119.855071 242.40438,120.419717 243.10188,120.419717 L249.09948,120.419717 C249.79878,120.419717 250.36308,119.855071 250.36308,119.156242 C250.36308,118.458314 249.79878,117.892767 249.09948,117.892767 L243.10188,117.892767 Z" id="Fill-30" fill="#2A86CA"></path>
                    <g id="Group-34" transform="translate(241.200000, 117.072724)">
                        <mask id="mask-14" fill="white">
                            <use xlink:href="#path-13"></use>
                        </mask>
                        <g id="Clip-33"></g>
                        <polygon id="Fill-32" fill="#2A86CA" mask="url(#mask-14)" points="-3.8601 7.84921547 13.6638 7.84921547 13.6638 -3.68416022 -3.8601 -3.68416022"></polygon>
                    </g>
                    <path d="M230.63022,117.892767 C229.93092,117.892767 229.36662,118.458314 229.36662,119.156242 C229.36662,119.855071 229.93092,120.419717 230.63022,120.419717 L236.62962,120.419717 C237.32532,120.419717 237.88962,119.855071 237.88962,119.156242 C237.88962,118.458314 237.32532,117.892767 236.62962,117.892767 L230.63022,117.892767 Z" id="Fill-35" fill="#2A86CA"></path>
                    <g id="Group-39" transform="translate(228.600000, 117.072724)">
                        <mask id="mask-16" fill="white">
                            <use xlink:href="#path-15"></use>
                        </mask>
                        <g id="Clip-38"></g>
                        <polygon id="Fill-37" fill="#2A86CA" mask="url(#mask-16)" points="-3.7341 7.84921547 13.7916 7.84921547 13.7916 -3.68416022 -3.7341 -3.68416022"></polygon>
                    </g>
                    <path d="M205.6833,117.892767 C204.9876,117.892767 204.4215,118.458314 204.4215,119.156242 C204.4215,119.855071 204.9876,120.419717 205.6833,120.419717 L211.6845,120.419717 C212.3802,120.419717 212.9463,119.855071 212.9463,119.156242 C212.9463,118.458314 212.3802,117.892767 211.6845,117.892767 L205.6833,117.892767 Z" id="Fill-40" fill="#2A86CA"></path>
                    <g id="Group-44" transform="translate(204.300000, 117.072724)">
                        <mask id="mask-18" fill="white">
                            <use xlink:href="#path-17"></use>
                        </mask>
                        <g id="Clip-43"></g>
                        <polygon id="Fill-42" fill="#2A86CA" mask="url(#mask-18)" points="-4.3785 7.84921547 13.1472 7.84921547 13.1472 -3.68416022 -4.3785 -3.68416022"></polygon>
                    </g>
                    <path d="M218.15676,117.892767 C217.45926,117.892767 216.89496,118.458314 216.89496,119.156242 C216.89496,119.855071 217.45926,120.419717 218.15676,120.419717 L224.15616,120.419717 C224.85366,120.419717 225.41796,119.855071 225.41796,119.156242 C225.41796,118.458314 224.85366,117.892767 224.15616,117.892767 L218.15676,117.892767 Z" id="Fill-45" fill="#2A86CA"></path>
                    <g id="Group-49" transform="translate(216.000000, 117.072724)">
                        <mask id="mask-20" fill="white">
                            <use xlink:href="#path-19"></use>
                        </mask>
                        <g id="Clip-48"></g>
                        <polygon id="Fill-47" fill="#2A86CA" mask="url(#mask-20)" points="-3.6054 7.84921547 13.9185 7.84921547 13.9185 -3.68416022 -3.6054 -3.68416022"></polygon>
                    </g>
                    <g id="Group-52" transform="translate(44.100000, 86.453939)">
                        <mask id="mask-22" fill="white">
                            <use xlink:href="#path-21"></use>
                        </mask>
                        <g id="Clip-51"></g>
                        <polygon id="Fill-50" fill="#C2EEF0" mask="url(#mask-22)" points="-3.9636 37.5449337 56.2608 37.5449337 56.2608 -3.99034807 -3.9636 -3.99034807"></polygon>
                    </g>
                    <g id="Group-55" transform="translate(42.300000, 84.652834)">
                        <mask id="mask-24" fill="white">
                            <use xlink:href="#path-23"></use>
                        </mask>
                        <g id="Clip-54"></g>
                        <polygon id="Fill-53" fill="#5BBEFF" mask="url(#mask-24)" points="-3.726 8.79389503 59.6223 8.79389503 59.6223 -4.16865746 -3.726 -4.16865746"></polygon>
                    </g>
                    <g id="Group-58" transform="translate(42.300000, 118.873829)">
                        <mask id="mask-26" fill="white">
                            <use xlink:href="#path-25"></use>
                        </mask>
                        <g id="Clip-57"></g>
                        <polygon id="Fill-56" fill="#5BBEFF" mask="url(#mask-26)" points="-3.726 7.68891713 59.6223 7.68891713 59.6223 -3.84625967 -3.726 -3.84625967"></polygon>
                    </g>
                    <g id="Group-61" transform="translate(75.600000, 92.757807)">
                        <mask id="mask-28" fill="white">
                            <use xlink:href="#path-27"></use>
                        </mask>
                        <g id="Clip-60"></g>
                        <polygon id="Fill-59" fill="#00BEFF" mask="url(#mask-28)" points="-4.3803 31.2410663 19.2888 31.2410663 19.2888 -3.92010497 -4.3803 -3.92010497"></polygon>
                    </g>
                    <g id="Group-64" transform="translate(75.600000, 97.260569)">
                        <mask id="mask-30" fill="white">
                            <use xlink:href="#path-29"></use>
                        </mask>
                        <g id="Clip-63"></g>
                        <polygon id="Fill-62" fill="#0086CD" mask="url(#mask-30)" points="-6.7248 31.8903646 22.401 31.8903646 22.401 -7.59796133 -6.7248 -7.59796133"></polygon>
                    </g>
                    <g id="Group-67" transform="translate(46.800000, 92.757807)">
                        <mask id="mask-32" fill="white">
                            <use xlink:href="#path-31"></use>
                        </mask>
                        <g id="Clip-66"></g>
                        <polygon id="Fill-65" fill="#00BEFF" mask="url(#mask-32)" points="-3.9573 26.7356022 28.7307 26.7356022 28.7307 -3.92010497 -3.9573 -3.92010497"></polygon>
                    </g>
                    <g id="Group-70" transform="translate(48.600000, 92.757807)">
                        <mask id="mask-34" fill="white">
                            <use xlink:href="#path-33"></use>
                        </mask>
                        <g id="Clip-69"></g>
                        <polygon id="Fill-68" fill="#0086CD" mask="url(#mask-34)" points="-5.7789 34.7757348 32.319 34.7757348 32.319 -7.45027072 -5.7789 -7.45027072"></polygon>
                    </g>
                    <g id="Group-73" transform="translate(75.600000, 113.470514)">
                        <mask id="mask-36" fill="white">
                            <use xlink:href="#path-35"></use>
                        </mask>
                        <g id="Clip-72"></g>
                        <polygon id="Fill-71" fill="#004283" mask="url(#mask-36)" points="-4.3785 10.5283591 19.2888 10.5283591 19.2888 -3.749 -4.3785 -3.749"></polygon>
                    </g>
                    <g id="Group-76" transform="translate(75.600000, 92.757807)">
                        <mask id="mask-38" fill="white">
                            <use xlink:href="#path-37"></use>
                        </mask>
                        <g id="Clip-75"></g>
                        <polygon id="Fill-74" fill="#004283" mask="url(#mask-38)" points="-4.3785 6.55872376 19.2888 6.55872376 19.2888 -3.92010497 -4.3785 -3.92010497"></polygon>
                    </g>
                    <g id="Group-79" transform="translate(46.800000, 92.757807)">
                        <mask id="mask-40" fill="white">
                            <use xlink:href="#path-39"></use>
                        </mask>
                        <g id="Clip-78"></g>
                        <polygon id="Fill-77" fill="#004283" mask="url(#mask-40)" points="-3.9573 6.55872376 28.7307 6.55872376 28.7307 -3.92010497 -3.9573 -3.92010497"></polygon>
                    </g>
                    <g id="Group-82" transform="translate(46.800000, 113.470514)">
                        <mask id="mask-42" fill="white">
                            <use xlink:href="#path-41"></use>
                        </mask>
                        <g id="Clip-81"></g>
                        <polygon id="Fill-80" fill="#004283" mask="url(#mask-42)" points="-3.9573 5.9931768 28.7307 5.9931768 28.7307 -4.48565193 -3.9573 -4.48565193"></polygon>
                    </g>
                    <g id="Group-85" transform="translate(44.100000, 88.255044)">
                        <mask id="mask-44" fill="white">
                            <use xlink:href="#path-43"></use>
                        </mask>
                        <g id="Clip-84"></g>
                        <polygon id="Fill-83" fill="#004283" mask="url(#mask-44)" points="-3.9618 7.28637017 56.2608 7.28637017 56.2608 -3.81383978 -3.9618 -3.81383978"></polygon>
                    </g>
                    <g id="Group-88" transform="translate(76.500000, 103.564436)">
                        <mask id="mask-46" fill="white">
                            <use xlink:href="#path-45"></use>
                        </mask>
                        <g id="Clip-87"></g>
                        <polygon id="Fill-86" fill="#004283" mask="url(#mask-46)" points="-4.1535 7.08914917 7.1487 7.08914917 7.1487 -4.21008287 -4.1535 -4.21008287"></polygon>
                    </g>
                    <g id="Group-115" transform="translate(48.600000, 54.011950)">
                        <path d="M237.47337,88.615211 C237.47337,92.3462 209.46897,95.3693547 174.92337,95.3693547 C140.37777,95.3693547 112.37337,92.3462 112.37337,88.615211 C112.37337,84.8842221 140.37777,81.8610674 174.92337,81.8610674 C209.46897,81.8610674 237.47337,84.8842221 237.47337,88.615211" id="Fill-89" fill="#072146"></path>
                        <path d="M32.72427,0.728672928 L11.12427,0.728672928 C5.15907,0.728672928 0.32427,5.56644088 0.32427,11.5353028 L0.32427,12.7429436 C0.32427,18.710905 5.15907,23.5495735 11.12427,23.5495735 L17.11647,23.5495735 L21.92427,28.6313912 L26.73207,23.5495735 L32.72427,23.5495735 C38.68947,23.5495735 43.52427,18.710905 43.52427,12.7429436 L43.52427,11.5353028 C43.52427,5.56644088 38.68947,0.728672928 32.72427,0.728672928" id="Fill-91" fill="#2A86CA"></path>
                        <path d="M35.08587,8.12743204 C34.81677,7.29892376 34.66377,7.10530497 33.87357,7.10530497 L31.95117,7.10530497 L28.87047,17.1761834 L30.43467,17.1761834 L31.09167,15.0013492 L34.76277,15.0013492 L35.42427,17.1761834 L38.14857,17.1761834 L35.08587,8.12743204 Z M31.53897,13.5253436 L32.91057,8.93342652 L34.30647,13.5253436 L31.53897,13.5253436 Z" id="Fill-93" fill="#F3F4F4"></path>
                        <path d="M19.85094,11.0542276 L20.33244,10.3220785 C21.37914,8.77673039 20.65734,7.09990166 18.60084,7.09990166 L14.22144,7.09990166 L14.22144,17.1761834 L18.44784,17.1761834 C22.16574,17.1761834 23.28984,12.8463271 19.85094,11.0542276 Z M16.58934,15.8271558 L16.58934,8.41740994 L17.88174,8.41740994 C18.50274,8.41740994 19.04364,8.93342652 19.04364,9.54850387 C19.04364,9.76553702 18.99594,9.96455912 18.78624,10.280653 L17.95374,11.5387249 C18.82494,11.7485536 19.40904,12.4185646 19.40904,13.6739348 C19.40904,15.1841613 18.50274,15.8271558 17.30574,15.8271558 L16.58934,15.8271558 Z" id="Fill-95" fill="#F3F4F4"></path>
                        <path d="M11.3229,11.0542276 L11.817,10.3220785 C12.8502,8.77673039 12.1401,7.09990166 10.0872,7.09990166 L5.6988,7.09990166 L5.6988,17.1761834 L9.9324,17.1761834 C13.6449,17.1761834 14.7672,12.8463271 11.3229,11.0542276 M8.7885,15.8271558 L8.0685,15.8271558 L8.0685,8.41740994 L9.3618,8.41740994 C9.9837,8.41740994 10.5255,8.93342652 10.5255,9.54850387 C10.5255,9.76553702 10.4769,9.96455912 10.269,10.280653 L9.4311,11.5387249 C10.3005,11.7485536 10.8909,12.4185646 10.8909,13.6739348 C10.8909,15.1841613 9.9837,15.8271558 8.7885,15.8271558" id="Fill-97" fill="#F3F4F4"></path>
                        <path d="M24.27093,8.41587901 C23.91273,7.28028232 23.73093,7.10017182 23.04243,7.10017182 L21.26493,7.10017182 L24.55533,17.1773541 L26.97813,17.1773541 L30.04533,7.10017182 L28.44783,7.10017182 L26.18253,14.7503652 L24.27093,8.41587901 Z" id="Fill-99" fill="#F3F4F4"></path>
                        <g id="Group-109" opacity="0.200000003" transform="translate(165.600000, 23.436464)" fill="#5BBEFF">
                            <path d="M44.25021,1.58866464 C43.85151,0.359410497 43.62471,0.0721342541 42.45201,0.0721342541 L39.59901,0.0721342541 L35.02791,15.0132006 L37.34901,15.0132006 L38.32371,11.786521 L43.77051,11.786521 L44.75241,15.0132006 L48.79521,15.0132006 L44.25021,1.58866464 Z M38.98701,9.59817845 L41.02281,2.78369779 L43.09371,9.59817845 L38.98701,9.59817845 Z" id="Fill-101"></path>
                            <path d="M21.64653,5.93049834 L22.36113,4.84443204 C23.91453,2.55162541 22.84353,0.0642994475 19.79163,0.0642994475 L13.29453,0.0642994475 L13.29453,15.0134707 L19.56483,15.0134707 C25.08093,15.0134707 26.74953,8.59073039 21.64653,5.93049834 Z M16.80723,13.0124431 L16.80723,2.01849834 L18.72603,2.01849834 C19.64583,2.01849834 20.44863,2.78396796 20.44863,3.69802873 C20.44863,4.01952597 20.37843,4.31490718 20.06703,4.78319448 L18.83133,6.65094033 C20.12463,6.96163094 20.99043,7.95494033 20.99043,9.81818343 C20.99043,12.058758 19.64583,13.0124431 17.87013,13.0124431 L16.80723,13.0124431 Z" id="Fill-103"></path>
                            <path d="M8.99379,5.93049834 L9.72639,4.84443204 C11.25999,2.55162541 10.20699,0.0642994475 7.16049,0.0642994475 L0.64989,0.0642994475 L0.64989,15.0134707 L6.93009,15.0134707 C12.43899,15.0134707 14.10489,8.59073039 8.99379,5.93049834 M5.23269,13.0124431 L4.16529,13.0124431 L4.16529,2.01849834 L6.08409,2.01849834 C7.00569,2.01849834 7.81209,2.78396796 7.81209,3.69802873 C7.81209,4.01952597 7.73739,4.31490718 7.43049,4.78319448 L6.18759,6.65094033 C7.47729,6.96163094 8.35209,7.95494033 8.35209,9.81818343 C8.35209,12.058758 7.00569,13.0124431 5.23269,13.0124431" id="Fill-105"></path>
                            <path d="M28.20492,2.0169674 C27.67212,0.332934254 27.40302,0.0645696133 26.38152,0.0645696133 L23.74452,0.0645696133 L28.62702,15.015542 L32.22072,15.015542 L36.77292,0.0645696133 L34.40142,0.0645696133 L31.03992,11.4160337 L28.20492,2.0169674 Z" id="Fill-107"></path>
                        </g>
                        <path d="M143.41635,36.6241547 C143.41635,35.436326 142.93845,34.957232 140.68665,33.9423094 C137.43405,32.468105 136.43865,31.3523204 136.43865,29.079326 C136.43865,26.8468564 137.86065,25.235768 140.08995,24.7557735 L140.08995,21.8019613 L140.24565,21.8019613 L142.84755,23.1825083 L142.84755,24.7008398 C143.73405,24.8314199 144.53595,25.1078895 145.27305,25.5311492 L145.41435,25.6149006 L145.50975,25.6698343 L145.49445,25.7779006 L145.46745,25.9418011 L145.13085,28.0472928 L145.06605,28.4417348 L145.02645,28.7037956 L144.81315,28.5425967 L144.49185,28.3012486 C143.61075,27.6285359 142.52175,27.2412983 141.48225,27.2412983 C140.08545,27.2412983 139.32225,27.8653812 139.32225,28.9226298 C139.32225,29.9105359 139.81635,30.3716188 142.03035,31.3784365 C145.29555,32.8643481 146.30265,34.0449724 146.30265,36.4683591 C146.30265,38.7197403 144.96705,40.3767569 142.84755,40.9693204 L142.84755,44.1068453 L142.68825,44.1068453 L140.08995,42.7262983 L140.08995,41.1692431 C138.78225,41.0593757 137.53935,40.7081602 136.49265,40.1570221 L136.34235,40.0768729 L136.24515,40.0228398 L136.26045,39.9147735 L136.28385,39.7472707 L136.59795,37.5958508 L136.65375,37.2239227 L136.69065,36.9762707 L136.89855,37.1122541 L137.21265,37.3193812 C138.43485,38.122674 139.79205,38.5765525 141.05745,38.5765525 C142.52805,38.5765525 143.41635,37.8344972 143.41635,36.6241547" id="Fill-113" fill="#2A86CA"></path>
                    </g>
                </g>
            </g>
        </g>
    </g>
</svg>