<?xml version="1.0" encoding="UTF-8"?>
<svg width="281px" height="126px" viewBox="0 0 281 126" version="1.1" xmlns="http://www.w3.org/2000/svg" xmlns:xlink="http://www.w3.org/1999/xlink">
    <!-- Generator: Sketch 50.2 (55047) - http://www.bohemiancoding.com/sketch -->
    <title>Page 1</title>
    <desc>Created with Sketch.</desc>
    <defs>
        <polygon id="path-1" points="0.053 0.8236 9.41760976 0.8236 9.41760976 13.1365999 0.053 13.1365999"></polygon>
        <path d="M0.34580645,71.0268 C0.126555623,70.204194 0.0768359325,69.3222197 0.23,68.428 L10.906,6.061 C11.414,3.087 13.994,0.988 16.911,0.988 C17.253,0.988 17.599,1.017 17.948,1.076 L100.7022,15.2421478 L100.7022,71.0268 L0.34580645,71.0268 Z" id="path-3"></path>
        <path d="M10.906,6.061 L0.23,68.428 C0.077,69.322 0.126,70.204 0.346,71.026 L94.602,71.026 C97.971,71.026 100.702,68.296 100.702,64.925 L100.702,15.242 L17.948,1.076 C17.6,1.017 17.252,0.988 16.91,0.988 C13.993,0.988 11.414,3.087 10.906,6.061 Z" id="path-5"></path>
        <path d="M0.2999,76.026 L111.602,76.026 C114.97,76.026 117.702,73.296 117.702,69.925 L117.702,6.65 C117.702,3.28 114.97,0.55 111.602,0.55 L0.2999,0.55 L0.2999,76.026 Z" id="path-7"></path>
        <path d="M0.934,17.458 C0.934,26.995 8.668,34.725 18.205,34.725 C27.743,34.725 35.473,26.995 35.473,17.458 C35.473,7.922 27.743,0.189 18.205,0.189 C8.668,0.189 0.934,7.922 0.934,17.458 Z" id="path-9"></path>
    </defs>
    <g id="Symbols" stroke="none" stroke-width="1" fill="none" fill-rule="evenodd">
        <g id="Illustration/-Charges" transform="translate(-44.000000, -23.000000)">
            <g id="Page-1">
                <g id="Group-6" transform="translate(63.000000, 23.000000)">
                    <path d="M112.1924,56.5 C112.1924,87.428 87.1204,112.5 56.1924,112.5 C25.2644,112.5 0.1924,87.428 0.1924,56.5 C0.1924,25.572 25.2644,0.5 56.1924,0.5 C87.1204,0.5 112.1924,25.572 112.1924,56.5 Z" id="Stroke-2" stroke="#FFFFFF" stroke-dasharray="1.005,4.02"></path>
                    <path d="M250.6407,120.2373 C250.0717,123.5603 246.9187,125.7913 243.5987,125.2223 L128.2127,105.4703 C124.8917,104.9023 122.6617,101.7503 123.2297,98.4273 L133.9057,36.0603 C134.4737,32.7383 137.6267,30.5083 140.9487,31.0763 L256.3327,50.8283 C259.6537,51.3963 261.8857,54.5493 261.3177,57.8703 L250.6407,120.2373 Z" id="Fill-4" fill="#004480"></path>
                </g>
                <g id="Group-19" transform="translate(186.000000, 53.000000)">
                    <path d="M119.0059,76.3174 C118.8819,75.3294 118.7529,75.0794 117.8649,74.9094 L115.7059,74.4944 L110.0739,85.1304 L111.8309,85.4684 L113.0379,83.1704 L117.1599,83.9624 L117.4349,86.5464 L120.4939,87.1334 L119.0059,76.3174 Z M113.8589,81.6104 L116.3889,76.7524 L116.9659,82.2074 L113.8589,81.6104 Z" id="Fill-7" fill="#F3F4F4"></path>
                    <path d="M101.2657,76.3145 L101.9647,75.5955 C103.4737,74.0875 103.0247,72.0505 100.7147,71.6075 L95.7967,70.6625 L93.6237,81.9705 L98.3707,82.8825 C102.5457,83.6845 104.7417,79.0685 101.2657,76.3145 Z M96.5737,80.9665 L98.1717,72.6515 L99.6237,72.9305 C100.3207,73.0645 100.8167,73.7595 100.6837,74.4505 C100.6367,74.6945 100.5407,74.9075 100.2377,75.2155 L99.0307,76.4495 C99.9647,76.8725 100.4747,77.7505 100.2047,79.1595 C99.8787,80.8545 98.7227,81.3795 97.3777,81.1225 L96.5737,80.9665 Z" id="Fill-9" fill="#F3F4F4"></path>
                    <g id="Group-13" transform="translate(84.000000, 68.000000)">
                        <mask id="mask-2" fill="white">
                            <use xlink:href="#path-1"></use>
                        </mask>
                        <g id="Clip-12"></g>
                        <path d="M7.689,6.4746 L8.401,5.7586 C9.896,4.2466 9.46,2.2126 7.154,1.7696 L2.226,0.8236 L0.053,12.1306 L4.807,13.0446 C8.977,13.8456 11.17,9.2286 7.689,6.4746 M3.813,11.2846 L3.005,11.1276 L4.603,2.8126 L6.055,3.0916 C6.753,3.2266 7.251,3.9216 7.118,4.6126 C7.071,4.8566 6.973,5.0686 6.672,5.3776 L5.46,6.6106 C6.391,7.0326 6.909,7.9116 6.638,9.3216 C6.313,11.0156 5.155,11.5416 3.813,11.2846" id="Fill-11" fill="#F3F4F4" mask="url(#mask-2)"></path>
                    </g>
                    <path d="M106.7984,74.3066 C106.6404,72.9556 106.4764,72.7136 105.7024,72.5656 L103.7064,72.1816 L105.2294,84.2016 L107.9494,84.7236 L113.5674,74.0766 L111.7724,73.7316 L107.5794,81.8286 L106.7984,74.3066 Z" id="Fill-14" fill="#F3F4F4"></path>
                    <g id="Group-18">
                        <mask id="mask-4" fill="white">
                            <use xlink:href="#path-3"></use>
                        </mask>
                        <g id="Clip-17"></g>
                        <path d="M100.7022,64.9248 C100.7022,68.2958 97.9712,71.0268 94.6012,71.0268 L-22.4618,71.0268 C-25.8308,71.0268 -28.5628,68.2958 -28.5628,64.9248 L-28.5628,1.6508 C-28.5628,-1.7202 -25.8308,-4.4502 -22.4618,-4.4502 L94.6012,-4.4502 C97.9712,-4.4502 100.7022,-1.7202 100.7022,1.6508 L100.7022,64.9248 Z" id="Fill-16" fill="#072146" mask="url(#mask-4)"></path>
                    </g>
                </g>
                <g id="Group-22" transform="translate(186.000000, 53.000000)">
                    <mask id="mask-6" fill="white">
                        <use xlink:href="#path-5"></use>
                    </mask>
                    <g id="Clip-21"></g>
                    <path d="M-16.7001,87.7881 L110.2359,-39.1479 L129.7269,66.8571 C129.7269,66.8571 72.1059,91.9401 69.3939,90.5851 C66.6809,89.2271 19.9069,86.5171 19.9069,86.5171 L-16.7001,87.7881 Z" id="Fill-20" fill="#072146" mask="url(#mask-6)"></path>
                </g>
                <path d="M280.7022,111.9248 C280.7022,115.2958 277.9712,118.0268 274.6012,118.0268 L157.5382,118.0268 C154.1692,118.0268 151.4372,115.2958 151.4372,111.9248 L151.4372,48.6508 C151.4372,45.2798 154.1692,42.5498 157.5382,42.5498 L274.6012,42.5498 C277.9712,42.5498 280.7022,45.2798 280.7022,48.6508 L280.7022,111.9248 Z" id="Fill-23" fill="#2A85C9"></path>
                <g id="Group-27" transform="translate(163.000000, 42.000000)">
                    <mask id="mask-8" fill="white">
                        <use xlink:href="#path-7"></use>
                    </mask>
                    <g id="Clip-26"></g>
                    <path d="M0.2999,92.7881 L127.2359,-34.1479 L146.7269,71.8571 C146.7269,71.8571 89.1059,96.9401 86.3939,95.5851 C83.6809,94.2271 36.9069,91.5171 36.9069,91.5171 L0.2999,92.7881 Z" id="Fill-25" fill="#0977B9" mask="url(#mask-8)"></path>
                </g>
                <g id="Group-33" transform="translate(44.000000, 51.000000)">
                    <polygon id="Fill-28" fill="#072146" points="107.563 13.712 236.828 13.712 236.828 0.78 107.563 0.78"></polygon>
                    <polygon id="Fill-30" fill="#FFFFFF" points="123.956 46.676 220.436 46.676 220.436 37.722 123.956 37.722"></polygon>
                    <path d="M35.4727,34.0488 C35.4727,43.5858 27.7427,51.3158 18.2047,51.3158 C8.6677,51.3158 0.9347,43.5858 0.9347,34.0488 C0.9347,24.5118 8.6677,16.7788 18.2047,16.7788 C27.7427,16.7788 35.4727,24.5118 35.4727,34.0488" id="Fill-31" fill="#B9993D"></path>
                    <path d="M35.4727,31.458 C35.4727,40.995 27.7427,48.726 18.2047,48.726 C8.6677,48.726 0.9347,40.995 0.9347,31.458 C0.9347,21.922 8.6677,14.188 18.2047,14.188 C27.7427,14.188 35.4727,21.922 35.4727,31.458" id="Fill-32" fill="#F7CC51"></path>
                </g>
                <g id="Group-36" transform="translate(44.000000, 65.000000)">
                    <mask id="mask-10" fill="white">
                        <use xlink:href="#path-9"></use>
                    </mask>
                    <g id="Clip-35"></g>
                    <polygon id="Fill-34" fill="#E9B542" mask="url(#mask-10)" points="0.6758 40.1602 41.6608 -0.8258 51.5978 50.0962"></polygon>
                </g>
                <path d="M64.502,87.1797 C64.502,85.9027 63.989,85.3867 61.575,84.2967 C58.084,82.7117 57.018,81.5117 57.018,79.0667 C57.018,76.6667 58.542,74.9367 60.934,74.4177 L60.934,71.2437 L61.102,71.2437 L63.892,72.7307 L63.892,74.3597 C64.844,74.5017 65.7,74.7987 66.493,75.2537 L66.647,75.3417 L66.748,75.4027 L66.73,75.5197 L66.702,75.6947 L66.34,77.9567 L66.273,78.3817 L66.229,78.6657 L66,78.4907 L65.656,78.2307 C64.712,77.5077 63.543,77.0917 62.428,77.0917 C60.93,77.0917 60.111,77.7637 60.111,78.9007 C60.111,79.9607 60.64,80.4557 63.015,81.5417 C66.518,83.1367 67.598,84.4077 67.598,87.0127 C67.598,89.4347 66.166,91.2137 63.892,91.8517 L63.892,95.2247 L63.723,95.2247 L60.934,93.7387 L60.934,92.0677 C59.531,91.9477 58.198,91.5717 57.074,90.9777 L56.915,90.8907 L56.809,90.8337 L56.826,90.7157 L56.851,90.5347 L57.189,88.2247 L57.248,87.8247 L57.287,87.5567 L57.512,87.7047 L57.85,87.9267 C59.158,88.7907 60.614,89.2787 61.971,89.2787 C63.547,89.2787 64.502,88.4817 64.502,87.1797" id="Fill-37" fill="#FFFFFF"></path>
            </g>
        </g>
    </g>
</svg>