<?xml version="1.0" encoding="utf-8"?>
<!-- Generator: Adobe Illustrator 23.0.2, SVG Export Plug-In . SVG Version: 6.00 Build 0)  -->
<svg width="275px" height="159px" version="1.1" id="Layer_1" xmlns="http://www.w3.org/2000/svg" xmlns:xlink="http://www.w3.org/1999/xlink" x="0px" y="0px"
	 viewBox="0 0 275 159" style="enable-background:new 0 0 275 159;" xml:space="preserve">
<style type="text/css">
	.st0{fill-rule:evenodd;clip-rule:evenodd;fill:#FFFFFF;}
	.st1{fill:#36814B;}
	.st2{fill:#48AD64;}
	.st3{fill:none;}
	.st4{fill:#004480;}
	.st5{fill:#DC905E;}
	.st6{fill:#F9B17F;}
	.st7{fill:#1464A5;}
	.st8{fill:#5BBDFF;}
	.st9{fill:#FFFFFF;}
	.st10{fill:#2A85C9;}
	.st11{fill-rule:evenodd;clip-rule:evenodd;fill:#B9993D;}
	.st12{fill-rule:evenodd;clip-rule:evenodd;fill:#F7CC51;}
	.st13{fill:#E9B542;}
	.st14{filter:url(#Adobe_OpacityMaskFilter);}
	.st15{mask:url(#mask-4_1_);fill-rule:evenodd;clip-rule:evenodd;fill:#FFFFFF;}
	.st16{filter:url(#Adobe_OpacityMaskFilter_1_);}
	.st17{mask:url(#mask-2_1_);fill-rule:evenodd;clip-rule:evenodd;fill:#D93851;}
	.st18{fill:#B9993D;}
	.st19{filter:url(#Adobe_OpacityMaskFilter_2_);}
	.st20{mask:url(#mask-4_2_);fill-rule:evenodd;clip-rule:evenodd;fill:#FFFFFF;}
</style>
<polygon id="Fill-25_3_" class="st0" points="53.6,35.7 92.2,35.7 92.2,18.6 53.6,18.6 "/>
<title>Page 1</title>
<desc>Created with Sketch.</desc>
<g id="Clip-16">
</g>
<g id="Clip-21">
</g>
<g id="Clip-39">
</g>
<g id="Clip-48">
</g>
<polygon class="st1" points="24.7,85.8 24.7,85.8 24.7,85.8 "/>
<polygon class="st2" points="24.7,85.8 24.7,85.8 24.7,85.8 "/>
<rect x="11.7" y="49.4" class="st3" width="9.1" height="9"/>
<rect x="11.7" y="63.8" class="st3" width="9.1" height="9"/>
<rect x="26.3" y="63.8" class="st3" width="9.1" height="9"/>
<rect x="11.7" y="78.3" class="st3" width="9.1" height="9"/>
<rect x="26.3" y="49.4" class="st3" width="9.1" height="9"/>
<rect x="41" y="49.4" class="st3" width="9.1" height="9"/>
<rect x="41" y="63.8" class="st3" width="9.1" height="9"/>
<rect x="53.6" y="18.6" class="st3" width="38.6" height="17.1"/>
<polygon class="st4" points="53.6,18.6 92.2,18.6 92.2,15.6 50.1,15.6 50.1,35.7 53.6,35.7 "/>
<g id="Clip-55">
</g>
<path class="st3" d="M263.6,108.2c0.1,0.5-0.2,0.8-0.8,1l1.5,0.4c0.2,0.1,0.4,0.1,0.5,0.2l2.9-3.2V76.3c0-2.3-1.7-4.1-3.7-4.1
	c-2.1,0-3.7,1.8-3.7,4.1v15.8l3.3,14.7C263.8,107.5,263.8,107.9,263.6,108.2z"/>
<path class="st5" d="M247,116.6V90.9c0-3.7,3-6.7,6.7-6.7c2.4,0,4.4,1.2,5.6,3.1l-2.5-11c-0.8-3.6-4.4-5.9-8-5.1
	c-3.6,0.8-5.9,4.4-5.1,8l2,9.1l-3.8-4.2c-2.5-2.7-6.7-2.9-9.5-0.5c-2.7,2.5-2.9,6.7-0.5,9.5l9.6,10.5l-7.5-2
	c-3.6-0.9-7.2,1.2-8.2,4.8c-1,3.6,1.2,7.3,4.8,8.2l14.5,3.8C245.7,117.7,246.3,117.1,247,116.6z"/>
<g>
	<path class="st3" d="M264.1,72.2c-2.1,0-3.7,1.8-3.7,4.1v15.8v15.8c0,2.3,0.5,4.1,2.6,4.1l2-2.2l2.9-3.2V76.3
		C267.9,74.1,266.2,72.2,264.1,72.2z"/>
	<path class="st6" d="M266.4,71c-3.7,0-6.7,3-6.7,6.7v10.2c-0.1-0.2-0.2-0.4-0.4-0.7c-1.2-1.8-3.3-3.1-5.6-3.1c-3.7,0-6.7,3-6.7,6.7
		v25.7c-0.6,0.6-1.3,1.1-1.8,1.8c-4,4.2-6.9,10.1-6.4,18c0.6,9.9,8.9,13,8.9,13h25.5V109V96.7V77.7C273.1,74,270.1,71,266.4,71z
		 M267.9,106.5l-2.9,3.2l-2,2.2c-2.1,0-2.6-1.8-2.6-4.1V92.1V76.3c0-2.3,1.7-4.1,3.7-4.1c2.1,0,3.7,1.8,3.7,4.1V106.5z"/>
</g>
<path class="st5" d="M264.1,72.2c-2.1,0-3.7,1.8-3.7,4.1v31.6c0,2.3,0.5,4.1,2.6,4.1l4.9-5.4V76.3C267.9,74.1,266.2,72.2,264.1,72.2
	z"/>
<path class="st7" d="M152.3,4.6c-0.2-0.5-0.7-0.8-1.2-0.7c-0.3,0.1-0.6,0.2-1,0.3c-0.5,0.2-0.8,0.7-0.7,1.3c0.1,0.4,0.5,0.7,1,0.7
	c0.1,0,0.2,0,0.3,0c0.3-0.1,0.6-0.2,0.9-0.3C152.1,5.7,152.4,5.1,152.3,4.6z"/>
<path class="st7" d="M139.2,9.5c-0.2-0.5-0.8-0.7-1.3-0.5L137,9.5c-0.5,0.2-0.7,0.8-0.4,1.3c0.2,0.4,0.5,0.6,0.9,0.6
	c0.1,0,0.3,0,0.4-0.1l0.9-0.4C139.2,10.6,139.4,10,139.2,9.5z"/>
<path class="st7" d="M153.7,137.5c-0.3-0.1-0.6-0.1-1-0.2c-0.5-0.1-1.1,0.2-1.2,0.8s0.2,1.1,0.8,1.2c0.3,0.1,0.7,0.1,1,0.2
	c0.1,0,0.1,0,0.2,0c0.5,0,0.9-0.3,1-0.8C154.6,138.1,154.3,137.6,153.7,137.5z"/>
<path class="st7" d="M140.5,133.6c-0.3-0.1-0.6-0.2-0.9-0.4c-0.5-0.2-1.1,0-1.3,0.6c-0.2,0.5,0.1,1.1,0.6,1.3
	c0.3,0.1,0.6,0.2,0.9,0.4c0.1,0,0.2,0.1,0.4,0.1c0.4,0,0.8-0.2,0.9-0.6C141.2,134.4,141,133.8,140.5,133.6z"/>
<path class="st7" d="M145.6,6.8c-0.2-0.5-0.8-0.8-1.3-0.6c-0.3,0.1-0.6,0.2-0.9,0.4c-0.5,0.2-0.8,0.8-0.6,1.3
	c0.2,0.4,0.5,0.6,0.9,0.6c0.1,0,0.3,0,0.4-0.1c0.3-0.1,0.6-0.2,0.9-0.4C145.6,7.9,145.8,7.3,145.6,6.8z"/>
<path class="st7" d="M147,135.8c-0.3-0.1-0.6-0.2-0.9-0.3c-0.5-0.2-1.1,0.1-1.2,0.7c-0.2,0.5,0.1,1.1,0.7,1.2c0.3,0.1,0.6,0.2,1,0.3
	c0.1,0,0.2,0,0.3,0c0.4,0,0.8-0.3,1-0.7C147.8,136.5,147.5,136,147,135.8z"/>
<path class="st7" d="M174.3,139.4C174.3,139.4,174.3,139.4,174.3,139.4l-1,0c-0.6,0-1,0.4-1,1s0.4,1,1,1h0.2l0.8,0c0.6,0,1-0.5,1-1
	C175.3,139.8,174.9,139.4,174.3,139.4z"/>
<path class="st7" d="M159,2.9c-0.1-0.5-0.6-0.9-1.2-0.8c-0.3,0.1-0.7,0.1-1,0.2c-0.5,0.1-0.9,0.7-0.7,1.2c0.1,0.5,0.5,0.8,1,0.8
	c0.1,0,0.2,0,0.2,0c0.3-0.1,0.6-0.1,1-0.2C158.8,4,159.2,3.5,159,2.9z"/>
<path class="st7" d="M172.9,1.1c0-0.6-0.5-1-1.1-0.9l-1,0.1c-0.6,0-1,0.5-0.9,1.1c0,0.5,0.5,0.9,1,0.9c0,0,0.1,0,0.1,0l1-0.1
	C172.5,2.2,172.9,1.7,172.9,1.1z"/>
<path class="st7" d="M160.5,138.6c-0.3,0-0.7-0.1-1-0.1c-0.5-0.1-1.1,0.3-1.1,0.9c-0.1,0.5,0.3,1.1,0.9,1.1c0.3,0,0.7,0.1,1,0.1
	c0,0,0.1,0,0.1,0c0.5,0,0.9-0.4,1-0.9C161.5,139.2,161.1,138.7,160.5,138.6z"/>
<path class="st7" d="M165.9,1.8c-0.1-0.5-0.6-0.9-1.1-0.9c-0.3,0-0.7,0.1-1,0.1c-0.5,0.1-0.9,0.6-0.8,1.1c0.1,0.5,0.5,0.9,1,0.9
	c0,0,0.1,0,0.2,0c0.3,0,0.6-0.1,1-0.1C165.6,2.8,166,2.3,165.9,1.8z"/>
<path class="st7" d="M120.7,22.8c0.2-0.2,0.5-0.4,0.7-0.6c0.4-0.4,0.5-1,0.1-1.4s-1-0.5-1.4-0.1c-0.3,0.2-0.5,0.4-0.8,0.7
	c-0.4,0.4-0.5,1-0.1,1.4c0.2,0.2,0.5,0.3,0.8,0.3C120.2,23,120.5,22.9,120.7,22.8z"/>
<path class="st7" d="M115.6,27.5c0.2-0.2,0.5-0.5,0.7-0.7c0.4-0.4,0.4-1,0-1.4c-0.4-0.4-1-0.4-1.4,0c-0.2,0.2-0.5,0.5-0.7,0.7
	c-0.4,0.4-0.4,1,0,1.4c0.2,0.2,0.4,0.3,0.7,0.3C115.2,27.8,115.4,27.7,115.6,27.5z"/>
<path class="st7" d="M111.5,113.8c-0.4-0.4-1-0.5-1.4-0.1c-0.4,0.4-0.5,1-0.1,1.4c0.2,0.3,0.4,0.5,0.7,0.8c0.2,0.2,0.5,0.3,0.7,0.3
	c0.2,0,0.5-0.1,0.7-0.3c0.4-0.4,0.4-1,0.1-1.4C112,114.3,111.8,114.1,111.5,113.8z"/>
<path class="st7" d="M111.1,32.7c0.2-0.3,0.4-0.5,0.6-0.8c0.4-0.4,0.3-1.1-0.1-1.4c-0.4-0.4-1.1-0.3-1.4,0.1
	c-0.2,0.3-0.4,0.5-0.6,0.8c-0.3,0.4-0.3,1.1,0.2,1.4c0.2,0.1,0.4,0.2,0.6,0.2C110.6,33,110.9,32.9,111.1,32.7z"/>
<path class="st7" d="M105.9,36.3c-0.2,0.3-0.4,0.6-0.6,0.8c-0.3,0.5-0.2,1.1,0.3,1.4c0.2,0.1,0.4,0.2,0.6,0.2c0.3,0,0.6-0.2,0.8-0.4
	c0.2-0.3,0.4-0.5,0.5-0.8c0.3-0.5,0.2-1.1-0.3-1.4C106.8,35.7,106.2,35.8,105.9,36.3z"/>
<path class="st7" d="M116.3,118.8c-0.4-0.4-1-0.4-1.4,0c-0.4,0.4-0.4,1,0,1.4c0.2,0.2,0.5,0.5,0.7,0.7c0.2,0.2,0.4,0.3,0.7,0.3
	c0.3,0,0.5-0.1,0.7-0.3c0.4-0.4,0.3-1-0.1-1.4C116.8,119.2,116.6,119,116.3,118.8z"/>
<path class="st7" d="M128.1,127.6c-0.3-0.2-0.6-0.3-0.8-0.5c-0.5-0.3-1.1-0.1-1.4,0.3c-0.3,0.5-0.1,1.1,0.3,1.4
	c0.3,0.2,0.6,0.4,0.9,0.5c0.2,0.1,0.3,0.1,0.5,0.1c0.3,0,0.7-0.2,0.9-0.5C128.7,128.5,128.5,127.9,128.1,127.6z"/>
<path class="st7" d="M132.7,14.1c0.5-0.3,0.6-0.9,0.4-1.4c-0.3-0.5-0.9-0.6-1.4-0.4c-0.3,0.2-0.6,0.3-0.9,0.5
	c-0.5,0.3-0.6,0.9-0.3,1.4c0.2,0.3,0.5,0.5,0.9,0.5c0.2,0,0.4,0,0.5-0.1C132.1,14.5,132.4,14.3,132.7,14.1z"/>
<path class="st7" d="M134.1,130.9c-0.3-0.1-0.6-0.3-0.9-0.4c-0.5-0.2-1.1,0-1.3,0.4c-0.2,0.5,0,1.1,0.4,1.3c0.3,0.2,0.6,0.3,0.9,0.4
	c0.1,0.1,0.3,0.1,0.4,0.1c0.4,0,0.7-0.2,0.9-0.6C134.8,131.8,134.6,131.2,134.1,130.9z"/>
<path class="st7" d="M179.9,1c0-0.6-0.4-1-1-1l-0.7,0l-0.3,0c-0.6,0-1,0.5-1,1c0,0.6,0.5,1,1,1c0,0,0,0,0,0l0.3,0l0.7,0c0,0,0,0,0,0
	C179.4,2,179.9,1.6,179.9,1z"/>
<path class="st7" d="M126.9,17.9c0.5-0.3,0.6-0.9,0.2-1.4c-0.3-0.5-0.9-0.6-1.4-0.2c-0.3,0.2-0.5,0.4-0.8,0.6
	c-0.4,0.3-0.5,1-0.2,1.4c0.2,0.3,0.5,0.4,0.8,0.4c0.2,0,0.4-0.1,0.6-0.2C126.3,18.3,126.6,18.1,126.9,17.9z"/>
<path class="st7" d="M121.6,123.2c-0.4-0.3-1.1-0.3-1.4,0.2c-0.3,0.4-0.3,1.1,0.2,1.4c0.3,0.2,0.5,0.4,0.8,0.6
	c0.2,0.1,0.4,0.2,0.6,0.2c0.3,0,0.6-0.1,0.8-0.4c0.3-0.4,0.2-1.1-0.2-1.4C122.1,123.6,121.8,123.4,121.6,123.2z"/>
<path class="st7" d="M167.4,139.2l-1-0.1c-0.5,0-1,0.4-1.1,0.9c0,0.6,0.4,1,0.9,1.1l1,0.1c0,0,0,0,0.1,0c0.5,0,1-0.4,1-0.9
	C168.4,139.7,168,139.3,167.4,139.2z"/>
<path class="st7" d="M249.1,38.5c-0.3-0.5-0.9-0.6-1.4-0.4c-0.5,0.3-0.6,0.9-0.4,1.4c0.2,0.3,0.3,0.6,0.5,0.9
	c0.2,0.3,0.5,0.5,0.9,0.5c0.2,0,0.3,0,0.5-0.1c0.5-0.3,0.7-0.9,0.4-1.4C249.4,39.1,249.3,38.8,249.1,38.5z"/>
<path class="st7" d="M245.3,32.6c-0.3-0.4-0.9-0.6-1.4-0.2c-0.4,0.3-0.6,0.9-0.2,1.4c0.2,0.3,0.4,0.5,0.6,0.8
	c0.2,0.3,0.5,0.4,0.8,0.4c0.2,0,0.4-0.1,0.6-0.2c0.5-0.3,0.6-0.9,0.3-1.4C245.7,33.1,245.5,32.8,245.3,32.6z"/>
<path class="st7" d="M181.3,139.1c-0.3,0-0.7,0-1,0.1c-0.6,0-1,0.5-0.9,1.1c0,0.5,0.5,0.9,1,0.9c0,0,0,0,0.1,0c0.3,0,0.7,0,1-0.1
	c0.6,0,1-0.5,0.9-1.1C182.3,139.5,181.8,139.1,181.3,139.1z"/>
<path class="st7" d="M226.6,124l-0.8,0.5c-0.5,0.3-0.6,0.9-0.3,1.4c0.2,0.3,0.5,0.4,0.8,0.4c0.2,0,0.4-0.1,0.5-0.2l0.8-0.6
	c0.5-0.3,0.6-0.9,0.3-1.4C227.7,123.8,227.1,123.6,226.6,124z"/>
<path class="st7" d="M232.2,119.8l-0.8,0.6c-0.4,0.3-0.5,1-0.2,1.4c0.2,0.2,0.5,0.4,0.8,0.4c0.2,0,0.4-0.1,0.6-0.2
	c0.3-0.2,0.5-0.4,0.8-0.6c0.4-0.3,0.5-1,0.1-1.4C233.2,119.6,232.6,119.5,232.2,119.8z"/>
<path class="st7" d="M258.4,72.3c0-0.6-0.4-1-1-1s-1,0.4-1,1l0,0.2c0,0.3,0,0.7,0,1c0,0.6,0.4,1,1,1c0,0,0,0,0,0c0.5,0,1-0.4,1-1
	c0-0.3,0-0.7,0-1L258.4,72.3z"/>
<path class="st7" d="M257.1,67.3C257.2,67.3,257.2,67.3,257.1,67.3c0.6-0.1,1-0.5,1-1.1c0-0.3-0.1-0.7-0.1-1
	c-0.1-0.5-0.5-0.9-1.1-0.9c-0.5,0.1-0.9,0.6-0.9,1.1c0,0.3,0.1,0.7,0.1,1C256.2,67,256.6,67.3,257.1,67.3z"/>
<path class="st7" d="M252.3,44.8c-0.2-0.5-0.8-0.7-1.3-0.5c-0.5,0.2-0.7,0.8-0.5,1.3c0.1,0.3,0.3,0.6,0.4,0.9
	c0.2,0.4,0.5,0.6,0.9,0.6c0.1,0,0.3,0,0.4-0.1c0.5-0.2,0.7-0.8,0.5-1.3C252.6,45.4,252.5,45.1,252.3,44.8z"/>
<path class="st7" d="M220.8,127.6l-0.9,0.5c-0.5,0.3-0.7,0.9-0.4,1.4c0.2,0.3,0.5,0.5,0.9,0.5c0.2,0,0.3,0,0.5-0.1l0.9-0.5
	c0.5-0.3,0.7-0.9,0.4-1.4C221.8,127.5,221.2,127.3,220.8,127.6z"/>
<path class="st7" d="M256.3,60.4c0.5-0.1,0.9-0.6,0.8-1.2c-0.1-0.3-0.1-0.7-0.2-1c-0.1-0.5-0.7-0.9-1.2-0.8
	c-0.5,0.1-0.9,0.7-0.8,1.2c0.1,0.3,0.1,0.6,0.2,1c0.1,0.5,0.5,0.8,1,0.8C256.1,60.4,256.2,60.4,256.3,60.4z"/>
<path class="st7" d="M255.3,52.4c-0.1-0.3-0.2-0.6-0.3-1c-0.2-0.5-0.7-0.8-1.3-0.6c-0.5,0.2-0.8,0.7-0.6,1.3
	c0.1,0.3,0.2,0.6,0.3,0.9c0.1,0.4,0.5,0.7,1,0.7c0.1,0,0.2,0,0.3,0C255.1,53.5,255.4,52.9,255.3,52.4z"/>
<path class="st7" d="M236.6,117.4c0.2,0.2,0.5,0.3,0.7,0.3c0.2,0,0.5-0.1,0.7-0.3c0.2-0.2,0.5-0.5,0.7-0.7c0,0,0,0,0,0l-2.2-0.6
	C236.2,116.5,236.2,117,236.6,117.4z"/>
<path class="st7" d="M194.9,137.2c-0.3,0.1-0.6,0.1-1,0.2c-0.5,0.1-0.9,0.6-0.8,1.2c0.1,0.5,0.5,0.8,1,0.8c0.1,0,0.1,0,0.2,0
	c0.3-0.1,0.7-0.1,1-0.2c0.5-0.1,0.9-0.6,0.8-1.2C196,137.4,195.5,137.1,194.9,137.2z"/>
<path class="st7" d="M193.8,2.3c0.1-0.5-0.3-1.1-0.8-1.1c-0.3-0.1-0.7-0.1-1-0.2c-0.5-0.1-1.1,0.3-1.1,0.8c-0.1,0.5,0.3,1.1,0.8,1.1
	c0.3,0,0.7,0.1,1,0.1c0.1,0,0.1,0,0.2,0C193.3,3.1,193.7,2.8,193.8,2.3z"/>
<path class="st7" d="M200.6,3.7c0.1-0.5-0.2-1.1-0.7-1.2c-0.3-0.1-0.7-0.2-1-0.2c-0.5-0.1-1.1,0.2-1.2,0.8c-0.1,0.5,0.2,1.1,0.8,1.2
	c0.3,0.1,0.6,0.1,1,0.2c0.1,0,0.2,0,0.2,0C200.1,4.5,200.5,4.2,200.6,3.7z"/>
<path class="st7" d="M188.1,138.4l-1,0.1c-0.5,0.1-0.9,0.6-0.9,1.1c0.1,0.5,0.5,0.9,1,0.9c0,0,0.1,0,0.1,0l1-0.1
	c0.5-0.1,0.9-0.6,0.9-1.1C189.2,138.7,188.7,138.3,188.1,138.4z"/>
<path class="st7" d="M201.7,135.5l-1,0.3c-0.5,0.1-0.8,0.7-0.7,1.2c0.1,0.4,0.5,0.7,1,0.7c0.1,0,0.2,0,0.3,0l1-0.3
	c0.5-0.2,0.8-0.7,0.7-1.2S202.2,135.4,201.7,135.5z"/>
<path class="st7" d="M186.8,1.4c0-0.6-0.4-1-0.9-1.1c-0.3,0-0.7-0.1-1-0.1c-0.6,0-1,0.4-1.1,0.9c0,0.6,0.4,1,0.9,1.1
	c0.3,0,0.7,0,1,0.1c0,0,0.1,0,0.1,0C186.4,2.3,186.8,1.9,186.8,1.4z"/>
<path class="st7" d="M213.8,8.3c0.2-0.5,0-1.1-0.5-1.3c-0.3-0.1-0.6-0.3-0.9-0.4c-0.5-0.2-1.1,0-1.3,0.5c-0.2,0.5,0,1.1,0.5,1.3
	c0.3,0.1,0.6,0.3,0.9,0.4c0.1,0.1,0.3,0.1,0.4,0.1C213.2,8.9,213.6,8.7,213.8,8.3z"/>
<path class="st7" d="M214.6,130.7l-0.9,0.4c-0.5,0.2-0.7,0.8-0.5,1.3c0.2,0.4,0.5,0.6,0.9,0.6c0.1,0,0.3,0,0.4-0.1l0.9-0.4
	c0.5-0.2,0.7-0.8,0.5-1.3C215.7,130.7,215.1,130.5,214.6,130.7z"/>
<path class="st7" d="M208.2,133.4c-0.3,0.1-0.6,0.2-0.9,0.3c-0.5,0.2-0.8,0.8-0.6,1.3c0.1,0.4,0.5,0.7,0.9,0.7c0.1,0,0.2,0,0.3-0.1
	c0.3-0.1,0.6-0.2,0.9-0.3c0.5-0.2,0.8-0.8,0.6-1.3C209.3,133.4,208.7,133.2,208.2,133.4z"/>
<path class="st7" d="M207.3,5.7c0.2-0.5-0.1-1.1-0.6-1.3c-0.3-0.1-0.6-0.2-1-0.3c-0.5-0.2-1.1,0.1-1.3,0.6c-0.2,0.5,0.1,1.1,0.6,1.3
	c0.3,0.1,0.6,0.2,0.9,0.3c0.1,0,0.2,0.1,0.3,0.1C206.8,6.4,207.1,6.2,207.3,5.7z"/>
<polygon class="st4" points="86.2,21.1 86.2,21 86.2,21 86.2,21 "/>
<polygon class="st8" points="86.2,21.1 86.2,21.4 86.2,21.4 "/>
<g>
	<polygon class="st4" points="57.1,30 57.1,30 57.1,31.9 77.9,31.9 86.2,24.2 86.2,21.4 77.5,30 	"/>
	<polygon class="st8" points="86.2,21.4 86.2,21 57.1,21 57.1,30 77.5,30 	"/>
</g>
<g>
	<polygon class="st4" points="50.1,52.4 50.1,49.4 41,49.4 41,58.4 44.5,58.4 44.5,52.4 	"/>
	<rect x="44.5" y="52.4" class="st9" width="5.7" height="6"/>
</g>
<g>
	<polygon class="st4" points="35.5,52.4 35.5,49.4 26.3,49.4 26.3,58.4 29.8,58.4 29.8,52.4 	"/>
	<rect x="29.8" y="52.4" class="st9" width="5.7" height="6"/>
</g>
<g>
	<polygon class="st4" points="20.9,52.4 20.9,49.4 11.7,49.4 11.7,58.4 15.2,58.4 15.2,52.4 	"/>
	<rect x="15.2" y="52.4" class="st9" width="5.7" height="6"/>
</g>
<g>
	<polygon class="st4" points="50.1,66.8 50.1,63.8 41,63.8 41,72.8 44.5,72.8 44.5,66.8 	"/>
	<rect x="44.5" y="66.8" class="st9" width="5.7" height="6"/>
</g>
<g>
	<polygon class="st4" points="35.5,66.8 35.5,63.8 26.3,63.8 26.3,72.8 29.8,72.8 29.8,66.8 	"/>
	<rect x="29.8" y="66.8" class="st9" width="5.7" height="6"/>
</g>
<g>
	<polygon class="st4" points="20.9,66.8 20.9,63.8 11.7,63.8 11.7,72.8 15.2,72.8 15.2,66.8 	"/>
	<rect x="15.2" y="66.8" class="st9" width="5.7" height="6"/>
</g>
<g>
	<polygon class="st4" points="20.9,81.2 20.9,78.3 11.7,78.3 11.7,87.3 15.2,87.3 15.2,81.2 	"/>
	<rect x="15.2" y="81.2" class="st9" width="5.7" height="6"/>
</g>
<rect x="26.3" y="49.4" class="st3" width="9.1" height="9"/>
<rect x="26.3" y="63.8" class="st3" width="9.1" height="9"/>
<rect x="41" y="63.8" class="st3" width="9.1" height="9"/>
<polygon class="st3" points="92.2,35.7 92.2,18.6 92.2,15.6 50.1,15.6 50.1,35.7 53.6,35.7 "/>
<rect x="41" y="49.4" class="st3" width="9.1" height="9"/>
<rect x="11.7" y="49.4" class="st3" width="9.1" height="9"/>
<path class="st3" d="M57.3,46.7c1.2,1.5,1.9,3.3,1.9,5.3v36.2c0,4.8-4.1,8.7-9.1,8.7H18.5c-1.8,0-3.5-0.5-4.9-1.4c0,0,0,0,0,0
	c-0.1-0.1-0.3-0.1-0.4-0.2c1.7,1.9,4.2,3.2,7,3.2h31.6c5,0,9.1-3.9,9.1-8.7V53.5C60.8,50.7,59.4,48.3,57.3,46.7z"/>
<rect x="11.7" y="78.3" class="st3" width="9.1" height="9"/>
<rect x="11.7" y="63.8" class="st3" width="9.1" height="9"/>
<rect x="41" y="63.8" class="st3" width="9.1" height="9"/>
<rect x="41" y="49.4" class="st3" width="9.1" height="9"/>
<rect x="11.7" y="49.4" class="st3" width="9.1" height="9"/>
<rect x="26.3" y="63.8" class="st3" width="9.1" height="9"/>
<polygon class="st3" points="92.2,35.7 92.2,18.6 92.2,15.6 50.1,15.6 50.1,35.7 53.6,35.7 "/>
<rect x="26.3" y="49.4" class="st3" width="9.1" height="9"/>
<path class="st3" d="M57.3,46.7c1.2,1.5,1.9,3.3,1.9,5.3v36.2c0,4.8-4.1,8.7-9.1,8.7H18.5c-1.8,0-3.5-0.5-4.9-1.4c0,0,0,0,0,0
	c-0.1-0.1-0.3-0.1-0.4-0.2c1.7,1.9,4.2,3.2,7,3.2h31.6c5,0,9.1-3.9,9.1-8.7V53.5C60.8,50.7,59.4,48.3,57.3,46.7z"/>
<rect x="11.7" y="63.8" class="st3" width="9.1" height="9"/>
<rect x="11.7" y="78.3" class="st3" width="9.1" height="9"/>
<g>
	<polygon class="st1" points="48.8,77.1 48.8,85.8 24.7,85.8 26.3,87.4 50.4,87.4 50.4,78.7 	"/>
	<polygon class="st2" points="48.8,77.1 48.8,77.1 24.7,77.1 24.7,85.8 24.7,85.8 48.8,85.8 	"/>
</g>
<rect x="26.3" y="63.8" class="st3" width="9.1" height="9"/>
<rect x="11.7" y="78.3" class="st3" width="9.1" height="9"/>
<rect x="26.3" y="49.4" class="st3" width="9.1" height="9"/>
<rect x="41" y="63.8" class="st3" width="9.1" height="9"/>
<rect x="41" y="49.4" class="st3" width="9.1" height="9"/>
<polygon class="st3" points="48.8,77.1 24.7,77.1 24.7,85.8 24.7,85.8 26.3,87.4 50.4,87.4 50.4,78.7 48.8,77.1 "/>
<polygon class="st3" points="92.2,20.1 92.2,18.6 92.2,15.6 50.1,15.6 50.1,35.7 53.6,35.7 77.4,35.7 92.2,35.7 "/>
<rect x="11.7" y="49.4" class="st3" width="9.1" height="9"/>
<rect x="11.7" y="63.8" class="st3" width="9.1" height="9"/>
<path class="st3" d="M16.6,97.8c0.3,0.1,0.5,0.2,0.8,0.3c0.1,0,0.2,0.1,0.4,0.1c0.3,0.1,0.5,0.1,0.8,0.2c0.1,0,0.2,0,0.3,0.1
	c0.4,0,0.8,0.1,1.2,0.1h31.6c5,0,9.1-3.9,9.1-8.7V53.5c0-2.8-1.4-5.2-3.5-6.8c1.2,1.5,1.9,3.3,1.9,5.3v36.2c0,4.8-4.1,8.7-9.1,8.7
	H18.5c-1.8,0-3.5-0.5-4.9-1.4c0,0,0,0,0,0c-0.1-0.1-0.3-0.1-0.4-0.2c0.6,0.7,1.4,1.4,2.2,1.9c0.3,0.2,0.6,0.4,1,0.5
	C16.4,97.7,16.5,97.8,16.6,97.8z"/>
<path class="st8" d="M18.9,98.4c-0.1,0-0.2,0-0.3-0.1C18.7,98.4,18.8,98.4,18.9,98.4z"/>
<path class="st8" d="M17.8,98.2c-0.1,0-0.2-0.1-0.4-0.1C17.5,98.1,17.7,98.1,17.8,98.2z"/>
<path class="st8" d="M16.6,97.8c-0.1,0-0.2-0.1-0.3-0.1C16.4,97.7,16.5,97.8,16.6,97.8z"/>
<path class="st10" d="M18.6,98.3c-0.3,0-0.5-0.1-0.8-0.2C18,98.2,18.3,98.3,18.6,98.3z"/>
<path class="st10" d="M20.1,98.5c-0.4,0-0.8,0-1.2-0.1C19.3,98.4,19.7,98.5,20.1,98.5z"/>
<path class="st10" d="M15.4,97.2c0.3,0.2,0.6,0.4,1,0.5C16,97.5,15.7,97.4,15.4,97.2z"/>
<path class="st10" d="M17.4,98.1c-0.3-0.1-0.5-0.2-0.8-0.3C16.9,97.9,17.1,98,17.4,98.1z"/>
<g>
	<rect x="11.7" y="78.3" class="st3" width="9.1" height="9"/>
	<path class="st3" d="M58.1,47.3c0.6,0.5,1.1,1.2,1.5,1.8C59.2,48.5,58.7,47.8,58.1,47.3z"/>
	<polygon class="st3" points="26.3,87.4 50.4,87.4 50.4,78.7 48.8,77.1 48.8,77.1 24.7,77.1 24.7,85.8 24.7,85.8 	"/>
	<rect x="11.7" y="49.4" class="st3" width="9.1" height="9"/>
	<rect x="11.7" y="63.8" class="st3" width="9.1" height="9"/>
	<rect x="26.3" y="63.8" class="st3" width="9.1" height="9"/>
	<rect x="41" y="49.4" class="st3" width="9.1" height="9"/>
	<rect x="26.3" y="49.4" class="st3" width="9.1" height="9"/>
	<rect x="41" y="63.8" class="st3" width="9.1" height="9"/>
	<path class="st3" d="M18.6,98.3C18.6,98.3,18.6,98.3,18.6,98.3c0.1,0,0.2,0,0.3,0.1c0,0,0,0,0,0C18.8,98.4,18.7,98.4,18.6,98.3z"/>
	<polygon class="st3" points="92.2,20.1 92.2,18.6 92.2,15.6 50.1,15.6 50.1,35.7 53.6,35.7 77.4,35.7 92.2,35.7 	"/>
	<path class="st3" d="M13.6,95.5c-0.1-0.1-0.3-0.1-0.4-0.2C13.3,95.4,13.4,95.4,13.6,95.5C13.6,95.5,13.6,95.5,13.6,95.5z"/>
	<path class="st3" d="M86.1,48.7c-3.4,0-6.2,2.7-6.2,6.1c0,1.3,0.4,2.5,1.1,3.5c0.8,2.4,3.1,4.2,5.8,4.2c3.4,0,6.2-2.7,6.2-6.1
		c0-1.3-0.4-2.5-1.1-3.5C91.1,50.5,88.8,48.7,86.1,48.7z"/>
	<path class="st3" d="M17.4,98.1C17.4,98.1,17.4,98.1,17.4,98.1c0,0,0.1,0,0.1,0C17.5,98.1,17.5,98.1,17.4,98.1z"/>
	<path class="st3" d="M16.4,97.7C16.4,97.7,16.4,97.7,16.4,97.7c0.1,0,0.2,0.1,0.3,0.1c0,0,0,0,0,0C16.5,97.8,16.4,97.7,16.4,97.7z"
		/>
	<path class="st3" d="M14.1,96.2c0.1,0.1,0.1,0.1,0.2,0.2C14.2,96.3,14.1,96.3,14.1,96.2z"/>
	<path class="st8" d="M100.6,7.9c-0.5-0.8-1.3-1.3-2.4-1.3h-55c-1.5,0-2.7,1.2-2.7,2.7v28.8H3c-1.5,0-2.7,1.2-2.7,2.7V103
		c0,1.1,0.7,2.1,1.7,2.5c0.3,0.1,0.7,0.2,1.1,0.2h3.4h78.9c-0.7-1.8-1.1-3.7-1.1-5.7c0-0.4,0-0.7,0.1-1.1c0-0.4-0.1-0.8-0.1-1.3
		c0-8.8,7.1-16,16-16c0.3,0,0.5,0,0.8,0V53.5c0.1-0.3,0.2-0.6,0.2-0.9V10.8V9.3C101,8.8,100.9,8.3,100.6,7.9z M41,49.4h9.1v9H41
		V49.4z M41,63.8h9.1v9H41V63.8z M26.3,49.4h9.1v9h-9.1V49.4z M26.3,63.8h9.1v9h-9.1V63.8z M24.7,77.1l24.1,0l0,0l1.6,1.6v8.7H26.3
		l-1.6-1.6l0,0V77.1z M11.7,49.4h9.1v9h-9.1V49.4z M11.7,63.8h9.1v9h-9.1V63.8z M11.7,78.3h9.1v9h-9.1V78.3z M53.6,35.7h-3.5V15.6
		h42.1v3v1.5v15.6H77.4H53.6z M86.9,62.4c-2.7,0-5-1.7-5.8-4.2c-0.7-1-1.1-2.2-1.1-3.5c0-3.3,2.8-6.1,6.2-6.1c2.7,0,5,1.8,5.8,4.2
		c0.7,1,1.1,2.2,1.1,3.5C93,59.7,90.3,62.4,86.9,62.4z"/>
</g>
<path class="st9" d="M103.3,93.7l0.3,0.2l0.2,0.2l0-0.3l0.1-0.4l0.3-2.1l0-0.2l0-0.1l-0.1-0.1l-0.1-0.1c-0.7-0.4-1.5-0.7-2.4-0.8
	v-1.5l-0.8-0.4v4.5C101.7,92.8,102.6,93.1,103.3,93.7z"/>
<g>
	<path id="Fill-17_2_" class="st11" d="M244.6,23c0,8.8-7.1,16-16,16c-8.8,0-16-7.1-16-16s7.1-16,16-16C237.5,7,244.6,14.2,244.6,23
		"/>
	<path id="Fill-18_2_" class="st12" d="M244.6,20.6c0,8.8-7.1,16-16,16c-8.8,0-16-7.1-16-16c0-8.8,7.1-16,16-16
		C237.5,4.6,244.6,11.8,244.6,20.6"/>
	<path class="st13" d="M244.6,20.6c0-3.2-0.9-6.1-2.5-8.6l-22,22c2.5,1.6,5.4,2.5,8.6,2.5C237.5,36.6,244.6,29.4,244.6,20.6z"/>
	<defs>
		<filter id="Adobe_OpacityMaskFilter" filterUnits="userSpaceOnUse" x="223.7" y="10.2" width="10" height="22.2">
			<feColorMatrix  type="matrix" values="1 0 0 0 0  0 1 0 0 0  0 0 1 0 0  0 0 0 1 0"/>
		</filter>
	</defs>
	<mask maskUnits="userSpaceOnUse" x="223.7" y="10.2" width="10" height="22.2" id="mask-4_1_">
		<g class="st14">
			<path id="path-3_1_" class="st0" d="M212.7,20.6c0,8.8,7.1,16,16,16c8.8,0,16-7.1,16-16c0-8.8-7.1-16-16-16
				C219.8,4.6,212.7,11.8,212.7,20.6z"/>
		</g>
	</mask>
	<path id="Fill-23_2_" class="st15" d="M230.8,25c0-1.2-0.5-1.7-2.7-2.7c-3.2-1.5-4.2-2.6-4.2-4.8c0-2.2,1.4-3.8,3.6-4.3v-2.9h0.2
		l2.6,1.4v1.5c0.9,0.1,1.7,0.4,2.4,0.8l0.1,0.1l0.1,0.1l0,0.1l0,0.2l-0.3,2.1l-0.1,0.4l0,0.3l-0.2-0.2l-0.3-0.2
		c-0.9-0.7-2-1.1-3-1.1c-1.4,0-2.1,0.6-2.1,1.7c0,1,0.5,1.4,2.7,2.4c3.2,1.5,4.2,2.6,4.2,5.1c0,2.2-1.3,3.9-3.4,4.5v3.1h-0.2
		l-2.6-1.4v-1.5c-1.3-0.1-2.5-0.5-3.6-1l-0.1-0.1l-0.1-0.1l0-0.1l0-0.2l0.3-2.1l0.1-0.4l0-0.2l0.2,0.1l0.3,0.2
		c1.2,0.8,2.6,1.2,3.8,1.2C229.9,26.9,230.8,26.2,230.8,25z"/>
</g>
<path class="st4" d="M100.6,7.9L100.6,7.9c0.2,0.4,0.4,0.9,0.4,1.4v1.5v41.8c0,0.3-0.1,0.6-0.2,0.9v18.2h-3.8v29.6H69.5v4.4H6.4H3
	c-0.4,0-0.8-0.1-1.1-0.2l0,0l4.6,3.2h63h17.3h17.6V82.2c0,0,0,0,0,0V56.5c0.1-0.3,0.2-0.6,0.2-0.9V12.3
	C104.5,12,100.6,7.9,100.6,7.9z"/>
<defs>
	<filter id="Adobe_OpacityMaskFilter_1_" filterUnits="userSpaceOnUse" x="242.4" y="149.3" width="31.9" height="9.6">
		<feColorMatrix  type="matrix" values="1 0 0 0 0  0 1 0 0 0  0 0 1 0 0  0 0 0 1 0"/>
	</filter>
</defs>
<mask maskUnits="userSpaceOnUse" x="242.4" y="149.3" width="31.9" height="9.6" id="mask-2_1_">
	<g class="st16">
		<polygon id="path-1_1_" class="st0" points="-2,158.8 274.3,158.8 274.3,-2.1 -2,-2.1 		"/>
	</g>
</mask>
<polygon id="Fill-15" class="st17" points="242.4,158.8 274.3,158.8 274.3,149.3 242.4,149.3 "/>
<path class="st10" d="M92.2,20.1v15.6H77.4L60.8,53.1c0,0.1,0,0.2,0,0.4v36.2c0,3.2-1.7,5.9-4.3,7.4H15.4c0,0,0,0,0,0l-9,8.6h69.1
	h9.8h15.6V81.7v-2.9V53.5c0.1-0.3,0.2-0.6,0.2-0.9V10.8L92.2,20.1z"/>
<g>
	<path class="st18" d="M91.9,52.9c0.2,0.6,0.3,1.2,0.3,1.9c0,3.3-2.8,6.1-6.2,6.1c-2.1,0-3.9-1-5-2.6c0.8,2.4,3.1,4.2,5.8,4.2
		c3.4,0,6.2-2.7,6.2-6.1C93,55.1,92.6,53.9,91.9,52.9z"/>
	<path id="Fill-43_4_" class="st12" d="M92.2,54.8c0,3.3-2.8,6.1-6.2,6.1c-3.4,0-6.2-2.7-6.2-6.1c0-3.3,2.8-6.1,6.2-6.1
		C89.5,48.7,92.2,51.5,92.2,54.8"/>
</g>
<path class="st4" d="M57.3,46.7c1.2,1.5,1.9,3.3,1.9,5.3v36.2c0,4.8-4.1,8.7-9.1,8.7H18.5c-1.8,0-3.5-0.5-4.9-1.4
	c-0.1-0.1-0.3-0.1-0.4-0.2c1.7,1.9,4.2,3.2,7,3.2h31.6c5,0,9.1-3.9,9.1-8.7V53.5C60.8,50.7,59.4,48.3,57.3,46.7z"/>
<g>
	<path id="Fill-17_3_" class="st11" d="M116.1,100c0,8.8-7.1,16-16,16c-8.8,0-16-7.1-16-16s7.1-16,16-16
		C108.9,84,116.1,91.2,116.1,100"/>
	<path id="Fill-18_3_" class="st12" d="M116.1,97.6c0,8.8-7.1,16-16,16c-8.8,0-16-7.1-16-16c0-8.8,7.1-16,16-16
		C108.9,81.6,116.1,88.8,116.1,97.6"/>
	<path class="st13" d="M116.1,97.6c0-3.2-0.9-6.1-2.5-8.6l-22,22c2.5,1.6,5.4,2.5,8.6,2.5C108.9,113.6,116.1,106.4,116.1,97.6z"/>
	<defs>
		<filter id="Adobe_OpacityMaskFilter_2_" filterUnits="userSpaceOnUse" x="95.1" y="87.2" width="10" height="22.2">
			<feColorMatrix  type="matrix" values="1 0 0 0 0  0 1 0 0 0  0 0 1 0 0  0 0 0 1 0"/>
		</filter>
	</defs>
	<mask maskUnits="userSpaceOnUse" x="95.1" y="87.2" width="10" height="22.2" id="mask-4_2_">
		<g class="st19">
			<path id="path-3_2_" class="st0" d="M84.2,97.6c0,8.8,7.1,16,16,16c8.8,0,16-7.1,16-16c0-8.8-7.1-16-16-16
				C91.3,81.6,84.2,88.8,84.2,97.6z"/>
		</g>
	</mask>
	<path id="Fill-23_3_" class="st20" d="M102.2,102c0-1.2-0.5-1.7-2.7-2.7c-3.2-1.5-4.2-2.6-4.2-4.8c0-2.2,1.4-3.8,3.6-4.3v-2.9h0.2
		l2.6,1.4v1.5c0.9,0.1,1.7,0.4,2.4,0.8l0.1,0.1l0.1,0.1l0,0.1l0,0.2l-0.3,2.1l-0.1,0.4l0,0.3l-0.2-0.2l-0.3-0.2
		c-0.9-0.7-2-1.1-3-1.1c-1.4,0-2.1,0.6-2.1,1.7c0,1,0.5,1.4,2.7,2.4c3.2,1.5,4.2,2.6,4.2,5.1c0,2.2-1.3,3.9-3.4,4.5v3.1h-0.2
		l-2.6-1.4v-1.5c-1.3-0.1-2.5-0.5-3.6-1l-0.1-0.1l-0.1-0.1l0-0.1l0-0.2l0.3-2.1l0.1-0.4l0-0.2l0.2,0.1l0.3,0.2
		c1.2,0.8,2.6,1.2,3.8,1.2C101.4,103.9,102.2,103.2,102.2,102z"/>
</g>
</svg>
