<?xml version="1.0" encoding="UTF-8"?>
<svg width="293px" height="106px" viewBox="0 0 293 106" version="1.1" xmlns="http://www.w3.org/2000/svg" xmlns:xlink="http://www.w3.org/1999/xlink">
    <!-- Generator: Sketch 50.2 (55047) - http://www.bohemiancoding.com/sketch -->
    <title>Illustration</title>
    <desc>Created with Sketch.</desc>
    <defs>
        <polygon id="path-1" points="40.742 40.7373 40.742 0.0703 0.0758 0.0703 0.0758 40.7373 40.742 40.7373"></polygon>
        <path d="M36.527,13.313 L35.197,13.313 L35.197,33.738 L5.622,33.718 L5.622,13.404 L0.076,13.404 L0.076,11.257 L5.622,6.454 L5.622,6.443 L12.4130017,0.3018 L28.4404176,0.3018 L34.568,5.82 L34.57,5.82 L36.527,7.51513672 L36.527,13.313 L36.527,13.313 Z M16.712,10.625 C16.712,12.666 18.367,14.321 20.41,14.321 C22.451,14.321 24.107,12.666 24.107,10.625 C24.107,8.583 22.451,6.928 20.41,6.928 C18.367,6.928 16.712,8.583 16.712,10.625 Z M15.787,33.722 L25.03,33.722 L25.03,18.939 L15.787,18.939 L15.787,33.722 Z" id="path-3"></path>
        <path d="M36.527,13.313 L35.197,13.313 L35.197,33.738 L5.622,33.718 L5.622,13.404 L0.076,13.404 L0.076,11.257 L5.622,6.454 L5.622,6.443 L12.4130017,0.3018 L28.4404176,0.3018 L34.568,5.82 L34.57,5.82 L36.527,7.51513672 L36.527,13.313 L36.527,13.313 Z M16.712,10.625 C16.712,12.666 18.367,14.321 20.41,14.321 C22.451,14.321 24.107,12.666 24.107,10.625 C24.107,8.583 22.451,6.928 20.41,6.928 C18.367,6.928 16.712,8.583 16.712,10.625 Z M15.787,33.722 L25.03,33.722 L25.03,18.939 L15.787,18.939 L15.787,33.722 Z" id="path-5"></path>
        <polygon id="path-7" points="40.742 40.7233 40.742 0.0703 0.0758 0.0703 0.0758 40.7233 40.742 40.7233"></polygon>
        <polygon id="path-9" points="0 107 296.742 107 296.742 0.849 0 0.849"></polygon>
        <polygon id="path-11" points="0.122 36.193 27.528 36.193 27.528 0.42 0.122 0.42"></polygon>
        <path d="M0.4138,18.6985667 C1.88153075,20.7392644 3.91990684,22.3450664 6.28,23.285 L6.28,28.185 L15.941,28.185 L15.941,23.285 C20.772,21.361 24.135,16.647 24.135,11.124 C24.135,7.01089214 22.2270166,3.34072633 19.251014,0.9404 L2.79834884,0.9404 C1.89553894,1.67444414 1.09298539,2.52724346 0.4138,3.47514928 L0.4138,18.6985667 L0.4138,18.6985667 Z" id="path-13"></path>
        <polygon id="path-15" points="0 107 296.742 107 296.742 0.849 0 0.849"></polygon>
        <polygon id="path-17" points="0.842 58.586 0.842 0.225 69.485 0.225 69.485 58.586"></polygon>
        <polygon id="path-19" points="0 107 296.742 107 296.742 0.849 0 0.849"></polygon>
    </defs>
    <g id="Symbols" stroke="none" stroke-width="1" fill="none" fill-rule="evenodd">
        <g id="Illustration/Pay-Service" transform="translate(-36.000000, -27.000000)">
            <g id="Illustration/-Card-pay">
                <g id="Illustration">
                    <g id="Page-1" transform="translate(32.000000, 26.000000)">
                        <g id="Group-3" transform="translate(256.000000, 62.151000)">
                            <mask id="mask-2" fill="white">
                                <use xlink:href="#path-1"></use>
                            </mask>
                            <g id="Clip-2"></g>
                            <path d="M5.6218,13.4433 L5.6218,13.4543 L0.0758,18.2573 L0.0758,20.4043 L5.6218,20.4043 L5.6218,40.7173 L35.1968,40.7373 L35.1968,20.3133 L40.7428,20.3133 L40.7428,18.1663 L34.5708,12.8203 L34.5678,12.8203 L20.4098,0.0703 L5.6218,13.4433 Z M16.7118,17.6253 C16.7118,15.5823 18.3668,13.9273 20.4098,13.9273 C22.4518,13.9273 24.1068,15.5823 24.1068,17.6253 C24.1068,19.6663 22.4518,21.3203 20.4098,21.3203 C18.3668,21.3203 16.7118,19.6663 16.7118,17.6253 L16.7118,17.6253 Z M15.7878,40.7233 L25.0308,40.7233 L25.0308,25.9393 L15.7878,25.9393 L15.7878,40.7233 Z" id="Fill-1" fill="#FADE8E" mask="url(#mask-2)"></path>
                        </g>
                        <g id="Group-10" transform="translate(256.000000, 69.151000)">
                            <g id="Group-6">
                                <mask id="mask-4" fill="white">
                                    <use xlink:href="#path-3"></use>
                                </mask>
                                <g id="Clip-5"></g>
                                <polygon id="Fill-4" fill="#F8CD51" mask="url(#mask-4)" points="0.032 36.7968 36.527 0.3018 36.527 37.4908"></polygon>
                            </g>
                            <g id="Group-9">
                                <mask id="mask-6" fill="white">
                                    <use xlink:href="#path-5"></use>
                                </mask>
                                <g id="Clip-8"></g>
                                <polygon id="Stroke-7" stroke="#FADE8E" mask="url(#mask-6)" points="0.032 36.7968 36.527 0.3018 36.527 37.4908"></polygon>
                            </g>
                        </g>
                        <g id="Group-21" transform="translate(0.000000, 0.151000)">
                            <g id="Group-13" transform="translate(256.000000, 62.000000)">
                                <mask id="mask-8" fill="white">
                                    <use xlink:href="#path-7"></use>
                                </mask>
                                <g id="Clip-12"></g>
                                <path d="M5.6218,13.4433 L5.6218,13.4543 L0.0758,18.2573 L0.0758,20.4043 L5.6218,20.4043 L20.8128,6.9713 L35.1968,20.3133 L40.7428,20.3133 L40.7428,18.1663 L34.5708,12.8203 L34.5678,12.8203 L20.4098,0.0703 L5.6218,13.4433 Z M15.7878,40.7233 L25.0308,40.7233 L25.0308,25.9393 L15.7878,25.9393 L15.7878,40.7233 Z" id="Fill-11" fill="#B4474B" mask="url(#mask-8)"></path>
                            </g>
                            <path d="M272.7116,79.6249 C272.7116,77.5829 274.3666,75.9279 276.4096,75.9279 C278.4516,75.9279 280.1066,77.5829 280.1066,79.6249 C280.1066,81.6659 278.4516,83.3209 276.4096,83.3209 C274.3666,83.3209 272.7116,81.6659 272.7116,79.6249" id="Fill-14" fill="#2A86CA"></path>
                            <mask id="mask-10" fill="white">
                                <use xlink:href="#path-9"></use>
                            </mask>
                            <g id="Clip-17"></g>
                            <polygon id="Fill-16" fill="#A28E58" mask="url(#mask-10)" points="270.872 102.968 281.109 102.968 281.109 88.007 270.872 88.007"></polygon>
                            <path d="M250.5276,102.5502 C250.5276,103.7682 249.4606,104.7572 248.1446,104.7572 L225.5056,104.7572 C224.1896,104.7572 223.1216,103.7682 223.1216,102.5502 L223.1216,57.9722 C223.1216,56.7542 224.1896,55.7642 225.5056,55.7642 L248.1446,55.7642 C249.4606,55.7642 250.5276,56.7542 250.5276,57.9722 L250.5276,102.5502 Z" id="Fill-18" fill="#5BBEFF" mask="url(#mask-10)"></path>
                            <path d="M250.5276,101.2753 C250.5276,102.4953 249.4606,103.4833 248.1446,103.4833 L225.5056,103.4833 C224.1896,103.4833 223.1216,102.4953 223.1216,101.2753 L223.1216,56.6983 C223.1216,55.4783 224.1896,54.4923 225.5056,54.4923 L248.1446,54.4923 C249.4606,54.4923 250.5276,55.4783 250.5276,56.6983 L250.5276,101.2753 Z" id="Fill-19" fill="#2A86CA" mask="url(#mask-10)"></path>
                            <polygon id="Fill-20" fill="#D0EFF0" mask="url(#mask-10)" points="223.122 96.193 250.528 96.193 250.528 60.42 223.122 60.42"></polygon>
                        </g>
                        <g id="Group-24" transform="translate(223.000000, 60.151000)">
                            <mask id="mask-12" fill="white">
                                <use xlink:href="#path-11"></use>
                            </mask>
                            <g id="Clip-23"></g>
                            <polygon id="Fill-22" fill="#68CCCC" mask="url(#mask-12)" points="-5.1814 40.1542 35.0876 -0.1138 35.0876 40.3982"></polygon>
                        </g>
                        <g id="Group-35" transform="translate(174.000000, 54.151000)">
                            <path d="M64.8474,45.8051 C64.8474,46.9211 63.9414,47.8261 62.8244,47.8261 C61.7074,47.8261 60.8004,46.9211 60.8004,45.8051 C60.8004,44.6861 61.7074,43.7821 62.8244,43.7821 C63.9414,43.7821 64.8474,44.6861 64.8474,45.8051" id="Fill-25" fill="#004481"></path>
                            <path d="M66.3479,2.5033 C66.3479,2.8983 66.0269,3.2163 65.6339,3.2163 L60.0159,3.2163 C59.6209,3.2163 59.3029,2.8983 59.3029,2.5033 C59.3029,2.1083 59.6209,1.7883 60.0159,1.7883 L65.6339,1.7883 C66.0269,1.7883 66.3479,2.1083 66.3479,2.5033" id="Fill-27" fill="#004481"></path>
                            <path d="M66.4153,0.4921 L51.2213,0.4921 C50.2733,0.4921 49.1223,1.5961 49.1223,2.5061 L49.1223,17.8131 L66.4153,0.4921 Z" id="Fill-29" fill-opacity="0.38" fill="#FFFFFF"></path>
                            <path d="M41.5847,28.8515 C41.5847,40.1585 32.4177,49.3245 21.1107,49.3245 C9.8037,49.3245 0.6367,40.1585 0.6367,28.8515 C0.6367,17.5445 9.8037,8.3775 21.1107,8.3775 C32.4177,8.3775 41.5847,17.5445 41.5847,28.8515" id="Fill-31" fill="#FDF0CA" opacity="0.3"></path>
                            <path d="M34.135,28.1239 C34.135,20.8929 28.238,15.0309 21.009,15.0309 C13.777,15.0309 7.966,20.8929 7.966,28.1239 C7.966,33.6469 11.449,38.3609 16.28,40.2849 L16.28,45.1849 L25.942,45.1849 L25.942,40.2849 C30.772,38.3609 34.135,33.6469 34.135,28.1239" id="Fill-33" fill="#FADE8E"></path>
                        </g>
                        <g id="Group-38" transform="translate(184.000000, 71.151000)">
                            <mask id="mask-14" fill="white">
                                <use xlink:href="#path-13"></use>
                            </mask>
                            <g id="Clip-37"></g>
                            <path d="M0.4138,24.9384 L24.4118,0.9404 L27.8468,11.9664 C27.8468,11.9664 33.2138,27.9544 25.2678,31.3474 C17.3218,34.7404 10.9388,35.6034 10.9388,35.6034 L0.4138,24.9384 Z" id="Fill-36" fill="#F8CD51" mask="url(#mask-14)"></path>
                        </g>
                        <g id="Group-49" transform="translate(0.000000, 0.151000)">
                            <path d="M195.1106,84.6918 L195.1106,97.8038 L195.1106,84.6918 Z" id="Stroke-39" stroke="#FDF0CA" stroke-width="3.711"></path>
                            <mask id="mask-16" fill="white">
                                <use xlink:href="#path-15"></use>
                            </mask>
                            <g id="Clip-42"></g>
                            <polygon id="Fill-41" fill="#BDBDBD" mask="url(#mask-16)" points="189.59 104.016 200.632 104.016 200.632 97.115 189.59 97.115"></polygon>
                            <path d="M196.0818,71.643 C195.0788,71.274 193.9988,71.062 192.8678,71.062 C187.7228,71.062 183.5508,75.233 183.5508,80.379 C183.5508,81.511 183.7628,82.59 184.1318,83.593 L196.0818,71.643 Z" id="Fill-43" fill="#FDF0CA" mask="url(#mask-16)"></path>
                            <path d="M197.987,83.7724 C197.987,85.4234 196.648,86.7624 194.996,86.7624 C193.345,86.7624 192.006,85.4234 192.006,83.7724 C192.006,82.1204 193.345,80.7814 194.996,80.7814 C196.648,80.7814 197.987,82.1204 197.987,83.7724" id="Fill-44" fill="#FDF0CA" mask="url(#mask-16)"></path>
                            <path d="M232.6013,29.3559 C235.9203,32.3399 194.6503,-8.7081 114.6753,3.6889 C50.9053,13.5749 39.9343,47.9449 39.9343,47.9449" id="Stroke-45" stroke="#FFFFFF" stroke-dasharray="3,5" mask="url(#mask-16)"></path>
                            <path d="M232.0461,36.5595 C232.0461,39.8725 234.7331,42.5595 238.0461,42.5595 C241.3591,42.5595 244.0461,39.8725 244.0461,36.5595 C244.0461,33.2465 241.3591,30.5595 238.0461,30.5595 C234.7331,30.5595 232.0461,33.2465 232.0461,36.5595" id="Fill-46" fill="#F3F4F4" mask="url(#mask-16)"></path>
                            <polygon id="Fill-47" fill="#734620" mask="url(#mask-16)" points="67.695 101.079 76.485 101.079 76.485 72.745 67.695 72.745"></polygon>
                            <polygon id="Fill-48" fill="#875630" mask="url(#mask-16)" points="7.842 94.586 76.485 94.586 76.485 36.226 7.842 36.226"></polygon>
                        </g>
                        <g id="Group-52" transform="translate(7.000000, 36.151000)">
                            <mask id="mask-18" fill="white">
                                <use xlink:href="#path-17"></use>
                            </mask>
                            <g id="Clip-51"></g>
                            <path d="M-6.9998,63.6576 L69.8312,-13.1744 C69.8312,-13.1744 78.7652,66.7846 77.4252,66.3386 C76.0852,65.8916 -6.9998,63.6576 -6.9998,63.6576" id="Fill-50" fill="#734620" mask="url(#mask-18)"></path>
                        </g>
                        <g id="Group-74" transform="translate(0.000000, 0.151000)">
                            <polygon id="Stroke-53" stroke="#BA9A3D" stroke-width="1.832" points="12.8313 87.3798 15.5793 90.1278 12.8313 90.1278"></polygon>
                            <path d="M24.7463,90.1278 L64.1643,90.1278" id="Stroke-55" stroke="#BA9A3D" stroke-width="1.832" stroke-dasharray="5.5,9.167"></path>
                            <polyline id="Stroke-57" stroke="#BA9A3D" stroke-width="1.832" points="68.7478 90.1278 71.4958 90.1278 71.4958 87.3798"></polyline>
                            <path d="M71.4958,76.9184 L71.4958,48.6734" id="Stroke-59" stroke="#BA9A3D" stroke-width="1.832" stroke-dasharray="6.277,10.461"></path>
                            <polyline id="Stroke-61" stroke="#BA9A3D" stroke-width="1.832" points="71.4958 43.4423 71.4958 40.6943 68.7478 40.6943"></polyline>
                            <path d="M59.5808,40.6942 L20.1628,40.6942" id="Stroke-63" stroke="#BA9A3D" stroke-width="1.832" stroke-dasharray="5.5,9.167"></path>
                            <polyline id="Stroke-65" stroke="#BA9A3D" stroke-width="1.832" points="15.5793 40.6942 12.8313 40.6942 12.8313 43.4422"></polyline>
                            <path d="M12.8313,53.9037 L12.8313,82.1497" id="Stroke-67" stroke="#BA9A3D" stroke-width="1.832" stroke-dasharray="6.277,10.461"></path>
                            <mask id="mask-20" fill="white">
                                <use xlink:href="#path-19"></use>
                            </mask>
                            <g id="Clip-70"></g>
                            <polygon id="Fill-69" fill="#5F370E" mask="url(#mask-20)" points="7.582 75.538 24.259 75.538 24.259 61.838 7.582 61.838"></polygon>
                            <polygon id="Fill-71" fill="#875630" mask="url(#mask-20)" points="4.009 73.751 21.877 73.751 21.877 60.051 4.009 60.051"></polygon>
                            <path d="M10.862,106.1303 L70.889,106.1303 C73.979,106.1303 76.485,103.6243 76.485,100.5333 L76.485,100.1853 C76.485,97.0913 73.979,94.5863 70.889,94.5863 L10.862,94.5863 L10.862,106.1303 Z" id="Fill-72" fill="#5F370E" mask="url(#mask-20)"></path>
                            <polygon id="Fill-73" fill="#734620" mask="url(#mask-20)" points="10.831 102.408 71.547 102.408 71.547 97.825 10.831 97.825"></polygon>
                        </g>
                    </g>
                </g>
            </g>
        </g>
    </g>
</svg>