<?xml version="1.0" encoding="UTF-8"?>
<svg width="230px" height="122px" viewBox="0 0 230 122" version="1.1" xmlns="http://www.w3.org/2000/svg" xmlns:xlink="http://www.w3.org/1999/xlink">
    <!-- Generator: Sketch 52.3 (67297) - http://www.bohemiancoding.com/sketch -->
    <title>Group</title>
    <desc>Created with Sketch.</desc>
    <defs>
        <path d="M10.7624222,7.6995989 C12.2080583,3.40551099 16.5633611,0.288346154 21.7104611,0.288346154 C25.7380083,0.288346154 29.2781028,2.19748352 31.3215583,5.08262637 C39.9017306,3.65939011 41.6675972,9.88363187 41.9769583,11.472478 L41.9769583,11.781 L0.335280556,11.781 C0.382102778,9.67178571 3.22237222,6.70257692 6.76413889,6.70257692 C8.224825,6.70257692 9.58685,7.06994505 10.7624222,7.6995989 Z" id="path-1"></path>
        <path d="M10.7624222,7.6995989 C12.2080583,3.40551099 16.5633611,0.288346154 21.7104611,0.288346154 C25.7380083,0.288346154 29.2781028,2.19748352 31.3215583,5.08262637 C39.9017306,3.65939011 41.6675972,9.88363187 41.9769583,11.472478 L41.9769583,11.781 L0.335280556,11.781 C0.382102778,9.67178571 3.22237222,6.70257692 6.76413889,6.70257692 C8.224825,6.70257692 9.58685,7.06994505 10.7624222,7.6995989 Z" id="path-3"></path>
        <path d="M13.9404806,9.54652747 C15.7941389,4.04273077 21.3760167,0.0470769231 27.9720972,0.0470769231 C33.1342472,0.0470769231 37.6726583,2.4933956 40.2913583,6.19313736 C51.2887278,4.36806593 53.5529167,12.3459231 53.9492333,14.382 L53.9492333,14.7787912 L0.576080556,14.7787912 C0.635444444,12.0752308 4.27587222,8.26872527 8.81511944,8.26872527 C10.6880083,8.26872527 12.4329722,8.73949451 13.9404806,9.54652747 Z" id="path-5"></path>
        <path d="M13.9404806,9.54652747 C15.7941389,4.04273077 21.3760167,0.0470769231 27.9720972,0.0470769231 C33.1342472,0.0470769231 37.6726583,2.4933956 40.2913583,6.19313736 C51.2887278,4.36806593 53.5529167,12.3459231 53.9492333,14.382 L53.9492333,14.7787912 L0.576080556,14.7787912 C0.635444444,12.0752308 4.27587222,8.26872527 8.81511944,8.26872527 C10.6880083,8.26872527 12.4329722,8.73949451 13.9404806,9.54652747 Z" id="path-7"></path>
        <path d="M0.510863889,11.1387363 C0.510863889,17.133478 5.35947222,21.992489 11.3393389,21.992489 C17.3200417,21.992489 22.1669778,17.133478 22.1669778,11.1387363 C22.1669778,5.14483516 17.3200417,0.284142857 11.3393389,0.284142857 C5.35947222,0.284142857 0.510863889,5.14483516 0.510863889,11.1387363 Z" id="path-9"></path>
        <path d="M0.455680556,11.1387363 C0.455680556,17.133478 5.30345278,21.992489 11.2833194,21.992489 C17.2640222,21.992489 22.1109583,17.133478 22.1109583,11.1387363 C22.1109583,5.14483516 17.2640222,0.284142857 11.2833194,0.284142857 C5.30345278,0.284142857 0.455680556,5.14483516 0.455680556,11.1387363 Z" id="path-11"></path>
        <polygon id="path-13" points="0 151.716313 301 151.716313 301 0.397631868 0 0.397631868"></polygon>
        <path d="M0.558778236,0.665802198 C0.554355498,0.744737322 0.552020428,0.824332839 0.551833333,0.904549451 L0.634608333,0.904549451 L0.634608333,42.0338077 L32.4143556,42.0338077 L32.2847583,1.39801648 L32.3028219,0.665802198 L0.558778236,0.665802198 Z M0.545144444,0.904549451 L0.551833333,0.904549451 C0.551833333,0.907071429 0.551833333,0.910434066 0.551833333,0.913796703 C0.551833333,0.958351648 0.544308333,0.904549451 0.545144444,0.904549451 Z" id="path-15"></path>
        <polygon id="path-17" points="0.634608333 0.272541758 0.634608333 26.0612802 23.5363606 26.0612802 23.5363606 0.272541758 0.634608333 0.272541758"></polygon>
        <path d="M33.9477833,0.638480769 L33.9477833,30.1561319 L33.9477833,39.1175604 C33.9477833,41.6916593 31.943625,43.7790165 29.3826167,43.7790165 C26.8232806,43.7790165 24.8199583,41.958989 24.8199583,39.3840495 L24.8199583,29.8442473 L0.816880556,29.8442473 L0.816880556,0.638480769 L33.9477833,0.638480769 Z" id="path-19"></path>
        <path d="M0.470314321,0.128704945 L0.594475,51.0389505 C0.597819444,52.2587473 1.58275833,53.2448407 2.79428333,53.241478 L41.94435,53.1448022 C43.1567111,53.1405989 44.1366333,52.1511429 44.1349611,50.9313462 L44.0104126,0.128704945 L0.470314321,0.128704945 Z" id="path-21"></path>
    </defs>
    <g id="Symbols" stroke="none" stroke-width="1" fill="none" fill-rule="evenodd">
        <g id="Illustration/-Taxes" transform="translate(-63.000000, -16.000000)">
            <g id="Group">
                <g transform="translate(30.000000, 1.000000)">
                    <g id="Group-36" transform="translate(36.788889, 26.503467)">
                        <g id="Group-10" opacity="0.200000003" transform="translate(121.236111, 18.494505)">
                            <path d="M10.7627567,7.6993467 C9.58718444,7.06969286 8.22432333,6.70232473 6.76363722,6.70232473 C3.22187056,6.70232473 0.382437222,9.67237418 0.335615,11.7807478 L41.9772928,11.7807478 L41.9772928,11.4722258 C41.6679317,9.88422033 39.902065,3.65913791 31.3210567,5.08321484 C29.2784372,2.19723132 25.7375067,0.288934615 21.7099594,0.288934615 C16.5636956,0.288934615 12.2083928,3.40609945 10.7627567,7.6993467" id="Fill-2" fill="#FFFFFF"></path>
                            <g id="Group-9">
                                <mask id="mask-2" fill="white">
                                    <use xlink:href="#path-1"></use>
                                </mask>
                                <g id="Clip-5"></g>
                                <polygon id="Fill-4" fill="#FFFFFF" mask="url(#mask-2)" points="-3.74745 15.9380604 46.1182167 15.9380604 46.1182167 -3.81659341 -3.74745 -3.81659341"></polygon>
                                <g id="Group-8" mask="url(#mask-2)">
                                    <mask id="mask-4" fill="white">
                                        <use xlink:href="#path-3"></use>
                                    </mask>
                                    <g id="Clip-7"></g>
                                    <polygon id="Fill-6" fill="#FFFFFF" mask="url(#mask-4)" points="-3.74745 15.9380604 46.1182167 15.9380604 46.1182167 -3.81659341 -3.74745 -3.81659341"></polygon>
                                </g>
                            </g>
                        </g>
                        <g id="Group-19" opacity="0.200000003" transform="translate(158.025000, 0.000000)">
                            <path d="M13.9406478,9.54652747 C12.4331394,8.73949451 10.6873394,8.26872527 8.81528667,8.26872527 C4.27603944,8.26872527 0.635611667,12.0752308 0.576247778,14.7787912 L53.9494006,14.7787912 L53.9494006,14.382 C53.5522478,12.3459231 51.288895,4.36806593 40.2915256,6.19313736 C37.6719894,2.4933956 33.1344144,0.0470769231 27.9722644,0.0470769231 C21.3761839,0.0470769231 15.79347,4.04273077 13.9406478,9.54652747" id="Fill-11" fill="#FFFFFF"></path>
                            <g id="Group-18">
                                <mask id="mask-6" fill="white">
                                    <use xlink:href="#path-5"></use>
                                </mask>
                                <g id="Clip-14"></g>
                                <polygon id="Fill-13" fill="#FFFFFF" mask="url(#mask-6)" points="-4.65713889 20.1060495 59.2577028 20.1060495 59.2577028 -5.21376923 -4.65713889 -5.21376923"></polygon>
                                <g id="Group-17" mask="url(#mask-6)">
                                    <mask id="mask-8" fill="white">
                                        <use xlink:href="#path-7"></use>
                                    </mask>
                                    <g id="Clip-16"></g>
                                    <polygon id="Fill-15" fill="#FFFFFF" mask="url(#mask-8)" points="-4.65713889 20.1060495 59.2577028 20.1060495 59.2577028 -5.21376923 -4.65713889 -5.21376923"></polygon>
                                </g>
                            </g>
                        </g>
                        <path d="M52.9786756,55.0734429 C52.9786756,55.8132231 52.3816922,56.4126132 51.6467506,56.4126132 L50.5915783,56.4126132 C49.8558006,56.4126132 49.2596533,55.8132231 49.2596533,55.0734429 L49.2596533,55.0322505 C49.2596533,54.2924703 49.8558006,53.6930802 50.5915783,53.6930802 L51.6467506,53.6930802 C52.3816922,53.6930802 52.9786756,54.2924703 52.9786756,55.0322505 L52.9786756,55.0734429 Z" id="Fill-20" fill="#BA9A3D"></path>
                        <path d="M133.561309,93.5992632 C133.561309,94.4567357 132.867336,95.151961 132.011995,95.151961 L1.93818917,95.151961 C1.0828475,95.151961 0.389711389,94.4567357 0.389711389,93.5992632 L0.389711389,93.5900159 C0.389711389,92.7333841 1.0828475,92.0381588 1.93818917,92.0381588 L132.011995,92.0381588 C132.867336,92.0381588 133.561309,92.7333841 133.561309,93.5900159 L133.561309,93.5992632 Z" id="Fill-22" fill="#B6A8EE" opacity="0.300000012"></path>
                        <path d="M158.337622,78.8072736 C158.337622,79.6655868 157.644486,80.3608121 156.787472,80.3608121 L26.7145025,80.3608121 C25.8583247,80.3608121 25.1660247,79.6655868 25.1660247,78.8072736 L25.1660247,78.7997077 C25.1660247,77.9422352 25.8583247,77.2478505 26.7145025,77.2478505 L156.787472,77.2478505 C157.644486,77.2478505 158.337622,77.9422352 158.337622,78.7997077 L158.337622,78.8072736 Z" id="Fill-24" fill="#B6A8EE" opacity="0.300000012"></path>
                        <path d="M150.206776,86.2033104 C150.206776,87.0616236 149.514476,87.7560082 148.658298,87.7560082 L18.5844925,87.7560082 C17.7299869,87.7560082 17.0368508,87.0616236 17.0368508,86.2033104 L17.0368508,86.1949038 C17.0368508,85.338272 17.7299869,84.6430467 18.5844925,84.6430467 L148.658298,84.6430467 C149.514476,84.6430467 150.206776,85.338272 150.206776,86.1949038 L150.206776,86.2033104 Z" id="Fill-26" fill="#B6A8EE" opacity="0.300000012"></path>
                        <path d="M157.56355,86.2271011 C157.56355,87.0711231 156.879611,87.7554198 156.037648,87.7554198 L154.830303,87.7554198 C153.987503,87.7554198 153.3044,87.0711231 153.3044,86.2271011 L153.3044,86.1716176 C153.3044,85.3275956 153.987503,84.6424582 154.830303,84.6424582 L156.037648,84.6424582 C156.879611,84.6424582 157.56355,85.3275956 157.56355,86.1716176 L157.56355,86.2271011 Z" id="Fill-28" fill="#B6A8EE" opacity="0.300000012"></path>
                        <path d="M13.9394772,86.2271011 C13.9394772,87.0711231 13.2563744,87.7554198 12.4135744,87.7554198 L11.20623,87.7554198 C10.36343,87.7554198 9.68032722,87.0711231 9.68032722,86.2271011 L9.68032722,86.1716176 C9.68032722,85.3275956 10.36343,84.6424582 11.20623,84.6424582 L12.4135744,84.6424582 C13.2563744,84.6424582 13.9394772,85.3275956 13.9394772,86.1716176 L13.9394772,86.2271011 Z" id="Fill-30" fill="#B6A8EE"></path>
                        <path d="M192.73331,85.904456 C192.73331,91.8991978 187.886374,96.7573681 181.905671,96.7573681 C175.925804,96.7573681 171.078032,91.8991978 171.078032,85.904456 C171.078032,79.9097143 175.925804,75.0498626 181.905671,75.0498626 C187.886374,75.0498626 192.73331,79.9097143 192.73331,85.904456" id="Fill-32" fill="#BA9A3D"></path>
                        <path d="M192.73331,84.2765192 C192.73331,90.2704203 187.886374,95.1294313 181.905671,95.1294313 C175.925804,95.1294313 171.078032,90.2704203 171.078032,84.2765192 C171.078032,78.2826181 175.925804,73.4210852 181.905671,73.4210852 C187.886374,73.4210852 192.73331,78.2826181 192.73331,84.2765192" id="Fill-34" fill="#F8CD51"></path>
                    </g>
                    <g id="Group-39" transform="translate(207.355556, 99.640830)">
                        <mask id="mask-10" fill="white">
                            <use xlink:href="#path-9"></use>
                        </mask>
                        <g id="Clip-38"></g>
                        <polygon id="Fill-37" fill="#EAB642" mask="url(#mask-10)" points="0.349327222 25.4073313 26.0463661 -0.353833516 32.2770661 31.6534302"></polygon>
                    </g>
                    <g id="Group-46" transform="translate(214.880556, 99.640830)">
                        <path d="M5.25420583,14.1069363 C5.25420583,13.3041066 4.93230306,12.9796121 3.41977806,12.2944747 C1.23083917,11.2982934 0.561950278,10.544222 0.561950278,9.00833736 C0.561950278,7.49935385 1.51762528,6.41238132 3.0167725,6.08620549 L3.0167725,4.09048022 L3.12295861,4.09048022 L4.87210306,5.02361209 L4.87210306,6.04837582 C5.46908639,6.13832637 6.00586972,6.32495275 6.50335583,6.60993626 L6.5986725,6.66541978 L6.66388917,6.70324945 L6.6513475,6.77722747 L6.63378917,6.88735385 L6.40720306,8.30974945 L6.3653975,8.57707912 L6.33696972,8.7552989 L6.19315861,8.64517253 L5.97911417,8.48208462 C5.38631139,8.02812857 4.65304194,7.76584286 3.95405306,7.76584286 C3.01426417,7.76584286 2.50256417,8.18785385 2.50256417,8.90325495 C2.50256417,9.5698978 2.83282806,9.88094176 4.32194194,10.5627165 C6.51840583,11.5656231 7.19565583,12.3642495 7.19565583,14.0018538 C7.19565583,15.5234473 6.2976725,16.6423648 4.87210306,17.0425187 L4.87210306,19.1635022 L4.76591694,19.1635022 L3.0167725,18.228689 L3.0167725,17.1787055 C2.13718361,17.1030462 1.30190861,16.8659802 0.598739167,16.4935681 L0.498405833,16.4389253 L0.429844722,16.4027769 L0.441550278,16.3304802 L0.457436389,16.2169912 L0.6689725,14.7626505 L0.7065975,14.5104527 L0.730844722,14.3431615 L0.871311389,14.4373154 L1.08368361,14.5768648 C1.90474472,15.1199308 2.81777806,15.4259308 3.66810306,15.4259308 C4.65555028,15.4259308 5.25420583,14.9248978 5.25420583,14.1069363" id="Fill-40" fill="#FFFFFF"></path>
                        <path d="M47.1944589,12.7670934 C47.1944589,18.7618352 42.3475228,23.6200055 36.36682,23.6200055 C30.3869533,23.6200055 25.5391811,18.7618352 25.5391811,12.7670934 C25.5391811,6.77235165 30.3869533,1.9125 36.36682,1.9125 C42.3475228,1.9125 47.1944589,6.77235165 47.1944589,12.7670934" id="Fill-42" fill="#BA9A3D"></path>
                        <path d="M47.1944589,11.1391566 C47.1944589,17.1330577 42.3475228,21.9920687 36.36682,21.9920687 C30.3869533,21.9920687 25.5391811,17.1330577 25.5391811,11.1391566 C25.5391811,5.14525549 30.3869533,0.283722527 36.36682,0.283722527 C42.3475228,0.283722527 47.1944589,5.14525549 47.1944589,11.1391566" id="Fill-44" fill="#F8CD51"></path>
                    </g>
                    <g id="Group-49" transform="translate(239.963889, 99.640830)">
                        <mask id="mask-12" fill="white">
                            <use xlink:href="#path-11"></use>
                        </mask>
                        <g id="Clip-48"></g>
                        <polygon id="Fill-47" fill="#EAB642" mask="url(#mask-12)" points="0.293809444 25.4073313 25.9908483 -0.353833516 32.2215483 31.6534302"></polygon>
                    </g>
                    <g id="Group-58" transform="translate(0.000000, 0.443027)">
                        <path d="M252.687577,113.304738 C252.687577,112.501909 252.365674,112.177414 250.853149,111.492277 C248.66421,110.496096 247.995321,109.742024 247.995321,108.20614 C247.995321,106.697156 248.950996,105.610184 250.450144,105.284008 L250.450144,103.288282 L250.55633,103.288282 L252.305474,104.221414 L252.305474,105.246178 C252.902458,105.336129 253.439241,105.522755 253.936727,105.807738 L254.032044,105.863222 L254.09726,105.901052 L254.084719,105.97503 L254.06716,106.085156 L253.840574,107.507552 L253.798769,107.774881 L253.770341,107.953101 L253.62653,107.842975 L253.412485,107.679887 C252.819683,107.225931 252.086413,106.963645 251.387424,106.963645 C250.447635,106.963645 249.935935,107.385656 249.935935,108.101057 C249.935935,108.7677 250.266199,109.078744 251.755313,109.760519 C253.951777,110.763425 254.629027,111.562052 254.629027,113.199656 C254.629027,114.721249 253.731044,115.840167 252.305474,116.240321 L252.305474,118.361304 L252.199288,118.361304 L250.450144,117.426491 L250.450144,116.376508 C249.570555,116.300848 248.73528,116.063782 248.03211,115.69137 L247.931777,115.636727 L247.863216,115.600579 L247.874921,115.528282 L247.890808,115.414793 L248.102344,113.960453 L248.139969,113.708255 L248.164216,113.540964 L248.304683,113.635118 L248.517055,113.774667 C249.338116,114.317733 250.251149,114.623733 251.101474,114.623733 C252.088921,114.623733 252.687577,114.1227 252.687577,113.304738 Z" id="Fill-50" fill="#FFFFFF"></path>
                        <path d="M77.5789875,133.513348 C77.5806597,134.733145 76.6015736,135.723442 75.3883764,135.726804 L36.2391458,135.82264 C35.0276208,135.826843 34.0418458,134.840749 34.0385014,133.620953 L33.8788042,68.1394747 C33.8754597,66.9205187 34.8553819,65.930222 36.0685792,65.9277 L75.2178097,65.8301835 C76.4310069,65.8268209 77.4167819,66.8129143 77.4184542,68.0318703 L77.5789875,133.513348 Z" id="Fill-52" fill="#2A86CA"></path>
                        <mask id="mask-14" fill="white">
                            <use xlink:href="#path-13"></use>
                        </mask>
                        <g id="Clip-55"></g>
                        <polygon id="Fill-54" fill="#F8CD51" mask="url(#mask-14)" points="74.369575 64.7963407 95.3149944 64.7963407 95.3149944 54.280533 74.369575 54.280533"></polygon>
                        <polygon id="Fill-56" fill="#A28E58" mask="url(#mask-14)" points="82.6111222 64.7963407 103.642661 64.7963407 103.642661 56.0064066 82.6111222 56.0064066"></polygon>
                        <path d="M62.720875,44.0619824 L62.720875,44.3200648 C60.3538444,44.4116967 58.2435,46.3174714 58.2435,48.8318835 C58.2435,48.8755978 58.235975,48.8217956 58.2368111,48.8217956 L58.326275,48.8217956 L58.326275,89.9518945 L90.1051861,89.9518945 L89.976425,49.3161033 L90.1051861,44.0619824 L62.720875,44.0619824 Z" id="Fill-57" fill="#FFFFFF" mask="url(#mask-14)"></path>
                    </g>
                    <g id="Group-65" transform="translate(57.691667, 48.360610)">
                        <g id="Group-61">
                            <mask id="mask-16" fill="white">
                                <use xlink:href="#path-15"></use>
                            </mask>
                            <g id="Clip-60"></g>
                            <polyline id="Fill-59" fill="#E9E9E9" mask="url(#mask-16)" points="-1.43309444 39.1083132 36.8081194 0.665802198 36.8081194 48.1521264 -1.73158611 48.1521264 -1.73158611 39.6530604"></polyline>
                        </g>
                        <g id="Group-64" transform="translate(0.000000, 15.972527)">
                            <mask id="mask-18" fill="white">
                                <use xlink:href="#path-17"></use>
                            </mask>
                            <g id="Clip-63"></g>
                            <path d="M23.5363606,67.9624319 C23.5363606,69.1805473 22.55393,70.1691626 21.3407328,70.1691626 L-17.8084978,70.1691626 C-19.0208589,70.1691626 -20.0041256,69.1805473 -20.0041256,67.9624319 L-20.0041256,2.48095385 C-20.0041256,1.2619978 -19.0208589,0.272541758 -17.8084978,0.272541758 L21.3407328,0.272541758 C22.55393,0.272541758 23.5363606,1.2619978 23.5363606,2.48095385 L23.5363606,67.9624319 Z" id="Fill-62" fill="#121212" opacity="0.100000001" mask="url(#mask-18)"></path>
                        </g>
                    </g>
                    <path d="M108.361171,15.9520995 L75.2302678,15.9520995 L75.2302678,51.3043467 L99.2333456,51.3043467 L99.2333456,60.8433082 C99.2333456,63.4182478 101.236668,65.2391159 103.79684,65.2391159 C106.357848,65.2391159 108.361171,63.1517588 108.361171,60.5776599 L108.361171,51.6153907 L108.361171,15.9520995 Z" id="Fill-66" fill="#FFFFFF"></path>
                    <g id="Group-70" transform="translate(74.413889, 21.459511)">
                        <mask id="mask-20" fill="white">
                            <use xlink:href="#path-19"></use>
                        </mask>
                        <g id="Clip-69"></g>
                        <polyline id="Fill-68" fill="#E9E9E9" mask="url(#mask-20)" points="-2.43534083 38.9490082 35.9756036 0.638480769 35.9756036 48.1996236 -2.90356306 48.1996236 -2.90356306 39.361772"></polyline>
                    </g>
                    <g id="Group-80" transform="translate(33.444444, 20.618852)">
                        <polygon id="Fill-71" fill="#FFFFFF" points="35.77385 30.9967912 61.0127 30.9967912 61.0127 24.092456 35.77385 24.092456"></polygon>
                        <path d="M65.7889011,39.2626582 L65.7889011,28.7527352 C65.7889011,26.1794769 63.756315,24.0921198 61.16019,24.0921198 C58.5649011,24.0921198 56.532315,26.1794769 56.532315,28.7527352 L56.532315,39.5232626 L56.532315,39.5644549 L56.532315,39.9108066 C56.532315,42.4832242 58.5381456,44.571422 61.1351067,44.571422 C63.7303956,44.571422 65.7830483,42.508444 65.7830483,39.9351857 C65.7830483,39.6989604 65.7889011,39.5014055 65.7889011,39.2626582" id="Fill-73" fill="#A28E58"></path>
                        <path d="M52.2658072,32.6326302 C52.2658072,32.8705368 52.0743378,33.0647291 51.8368822,33.0647291 L29.0286072,33.0647291 C28.7919878,33.0647291 28.6005183,32.8705368 28.6005183,32.6326302 L28.6005183,32.4754269 C28.6005183,32.2375203 28.7919878,32.0441687 29.0286072,32.0441687 L51.8368822,32.0441687 C52.0743378,32.0441687 52.2658072,32.2375203 52.2658072,32.4754269 L52.2658072,32.6326302 Z" id="Fill-74" fill="#B4474B"></path>
                        <path d="M69.8453778,1.02005604 C69.8453778,1.2588033 69.6530722,1.45215495 69.4164528,1.45215495 L46.6090139,1.45215495 C46.3723944,1.45215495 46.1800889,1.2588033 46.1800889,1.02005604 L46.1800889,0.863693407 C46.1800889,0.624946154 46.3723944,0.432435165 46.6090139,0.432435165 L69.4164528,0.432435165 C69.6530722,0.432435165 69.8453778,0.624946154 69.8453778,0.863693407 L69.8453778,1.02005604 Z" id="Fill-75" fill="#B4474B"></path>
                        <path d="M52.2658072,37.3908462 C52.2658072,37.6295934 52.0743378,37.8229451 51.8368822,37.8229451 L29.0286072,37.8229451 C28.7919878,37.8229451 28.6005183,37.6295934 28.6005183,37.3908462 L28.6005183,37.2344835 C28.6005183,36.9965769 28.7919878,36.8032253 29.0286072,36.8032253 L51.8368822,36.8032253 C52.0743378,36.8032253 52.2658072,36.9965769 52.2658072,37.2344835 L52.2658072,37.3908462 Z" id="Fill-76" fill="#B4474B"></path>
                        <path d="M56.2594083,3.97631868 C56.2594083,4.28147802 56.0135917,4.52863187 55.7109194,4.52863187 L46.5630278,4.52863187 C46.2603556,4.52863187 46.015375,4.28147802 46.015375,3.97631868 C46.015375,3.67284066 46.2603556,3.42568681 46.5630278,3.42568681 L55.7109194,3.42568681 C56.0135917,3.42568681 56.2594083,3.67284066 56.2594083,3.97631868" id="Fill-77" fill="#B4474B"></path>
                        <path d="M56.2594083,6.91946703 C56.2594083,7.22462637 56.0135917,7.47178022 55.7109194,7.47178022 L46.5630278,7.47178022 C46.2603556,7.47178022 46.015375,7.22462637 46.015375,6.91946703 C46.015375,6.61598901 46.2603556,6.36799451 46.5630278,6.36799451 L55.7109194,6.36799451 C56.0135917,6.36799451 56.2594083,6.61598901 56.2594083,6.91946703" id="Fill-78" fill="#B4474B"></path>
                        <path d="M44.1345431,110.618496 C44.1362153,111.837452 43.1571292,112.827748 41.9439319,112.831111 L2.79470139,112.927787 C1.58317639,112.931149 0.597401389,111.945056 0.594056944,110.7261 L0.434359722,45.2437813 C0.431015278,44.0256659 1.4109375,43.0353692 2.62413472,43.0328473 L41.7733653,42.9353308 C42.9865625,42.9319681 43.9723375,43.9180615 43.9740097,45.1370176 L44.1345431,110.618496 Z" id="Fill-79" fill="#2DCCCD"></path>
                    </g>
                    <g id="Group-83" transform="translate(33.444444, 80.305665)">
                        <mask id="mask-22" fill="white">
                            <use xlink:href="#path-21"></use>
                        </mask>
                        <g id="Clip-82"></g>
                        <polygon id="Fill-81" fill="#2A86CA" opacity="0.300000012" mask="url(#mask-22)" points="-9.95624389 64.571128 53.82482 0.128704945 55.75122 77.4685236 1.79613389 82.3838588 -7.73469667 75.4189962"></polygon>
                    </g>
                    <polygon id="Fill-84" fill="#D0EFF0" points="74.4015144 78.8850346 36.9596228 78.9766665 36.9337033 68.393606 74.375595 68.3011335"></polygon>
                    <polygon id="Fill-86" fill="#004481" points="36.9335361 93.5090604 42.6809639 93.5090604 42.6809639 87.9850879 36.9335361 87.9850879"></polygon>
                    <polygon id="Fill-88" fill="#004481" points="47.4969639 93.5090604 53.2435556 93.5090604 53.2435556 87.9850879 47.4969639 87.9850879"></polygon>
                    <polygon id="Fill-89" fill="#004481" points="58.0595556 93.5090604 63.8061472 93.5090604 63.8061472 87.9850879 58.0595556 87.9850879"></polygon>
                    <polygon id="Fill-90" fill="#004481" points="68.6221472 93.5090604 74.369575 93.5090604 74.369575 87.9850879 68.6221472 87.9850879"></polygon>
                    <polygon id="Fill-91" fill="#004481" points="36.9335361 104.076148 42.6809639 104.076148 42.6809639 98.5521758 36.9335361 98.5521758"></polygon>
                    <polygon id="Fill-92" fill="#004481" points="47.4969639 104.076148 53.2435556 104.076148 53.2435556 98.5521758 47.4969639 98.5521758"></polygon>
                    <polygon id="Fill-93" fill="#004481" points="58.0595556 104.076148 63.8061472 104.076148 63.8061472 98.5521758 58.0595556 98.5521758"></polygon>
                    <polygon id="Fill-94" fill="#004481" points="68.6221472 104.076148 74.369575 104.076148 74.369575 98.5521758 68.6221472 98.5521758"></polygon>
                    <polygon id="Fill-95" fill="#004481" points="36.9335361 114.642396 42.6809639 114.642396 42.6809639 109.120104 36.9335361 109.120104"></polygon>
                    <polygon id="Fill-96" fill="#004481" points="47.4969639 114.642396 53.2435556 114.642396 53.2435556 109.120104 47.4969639 109.120104"></polygon>
                    <polygon id="Fill-97" fill="#004481" points="58.0595556 114.642396 63.8061472 114.642396 63.8061472 109.120104 58.0595556 109.120104"></polygon>
                    <polygon id="Fill-98" fill="#B4474B" points="68.6221472 125.211165 74.369575 125.211165 74.369575 109.120104 68.6221472 109.120104"></polygon>
                    <polygon id="Fill-99" fill="#004481" points="36.9335361 125.211165 42.6809639 125.211165 42.6809639 119.687192 36.9335361 119.687192"></polygon>
                    <polygon id="Fill-100" fill="#004481" points="47.4969639 125.211165 53.2435556 125.211165 53.2435556 119.687192 47.4969639 119.687192"></polygon>
                    <polygon id="Fill-101" fill="#004481" points="58.0595556 125.211165 63.8061472 125.211165 63.8061472 119.687192 58.0595556 119.687192"></polygon>
                    <polygon id="Fill-102" fill="#02A5A5" points="74.3802772 69.9029258 36.9383856 69.9945577 36.9333689 68.2577555 74.3752606 68.1661236"></polygon>
                    <polygon id="Fill-103" fill="#2A86CA" points="36.9335361 92.4027527 42.6809639 92.4027527 42.6809639 86.8804615 36.9335361 86.8804615"></polygon>
                    <polygon id="Fill-104" fill="#2A86CA" points="47.4969639 92.4027527 53.2435556 92.4027527 53.2435556 86.8804615 47.4969639 86.8804615"></polygon>
                    <polygon id="Fill-105" fill="#2A86CA" points="58.0595556 92.4027527 63.8061472 92.4027527 63.8061472 86.8804615 58.0595556 86.8804615"></polygon>
                    <polygon id="Fill-106" fill="#2A86CA" points="68.6221472 92.4027527 74.369575 92.4027527 74.369575 86.8804615 68.6221472 86.8804615"></polygon>
                    <polygon id="Fill-107" fill="#2A86CA" points="36.9335361 102.971522 42.6809639 102.971522 42.6809639 97.4475495 36.9335361 97.4475495"></polygon>
                    <polygon id="Fill-108" fill="#2A86CA" points="47.4969639 102.971522 53.2435556 102.971522 53.2435556 97.4475495 47.4969639 97.4475495"></polygon>
                    <polygon id="Fill-109" fill="#2A86CA" points="58.0595556 102.971522 63.8061472 102.971522 63.8061472 97.4475495 58.0595556 97.4475495"></polygon>
                    <polygon id="Fill-110" fill="#2A86CA" points="68.6221472 102.971522 74.369575 102.971522 74.369575 97.4475495 68.6221472 97.4475495"></polygon>
                    <polygon id="Fill-111" fill="#2A86CA" points="36.9335361 113.53861 42.6809639 113.53861 42.6809639 108.015478 36.9335361 108.015478"></polygon>
                    <polygon id="Fill-112" fill="#2A86CA" points="47.4969639 113.53861 53.2435556 113.53861 53.2435556 108.015478 47.4969639 108.015478"></polygon>
                    <polygon id="Fill-113" fill="#2A86CA" points="58.0595556 113.53861 63.8061472 113.53861 63.8061472 108.015478 58.0595556 108.015478"></polygon>
                    <polygon id="Fill-114" fill="#F59799" points="68.6221472 124.105698 74.369575 124.105698 74.369575 108.014637 68.6221472 108.014637"></polygon>
                    <polygon id="Fill-115" fill="#2A86CA" points="36.9335361 124.105698 42.6809639 124.105698 42.6809639 118.582566 36.9335361 118.582566"></polygon>
                    <polygon id="Fill-116" fill="#2A86CA" points="47.4969639 124.105698 53.2435556 124.105698 53.2435556 118.582566 47.4969639 118.582566"></polygon>
                    <polygon id="Fill-117" fill="#2A86CA" points="58.0595556 124.105698 63.8061472 124.105698 63.8061472 118.582566 58.0595556 118.582566"></polygon>
                    <polygon id="Fill-118" fill="#2A86CA" points="59.7753392 71.0185648 57.9275336 71.0185648 58.5914058 71.6986582 59.7753392 71.6986582 60.7469003 71.6986582 61.4116086 71.0185648"></polygon>
                    <polygon id="Fill-119" fill="#2A86CA" points="61.5308381 72.9963 61.5308381 71.1392835 60.9162964 71.806767 60.9162964 72.9963 60.9162964 73.9731462 61.5308381 74.6406297"></polygon>
                    <polygon id="Fill-120" fill="#2A86CA" points="61.5308381 76.5567445 61.5308381 74.699728 60.9162964 75.3672115 60.9162964 76.5567445 60.9162964 77.5335907 61.5308381 78.2019148"></polygon>
                    <polygon id="Fill-121" fill="#2A86CA" points="65.6288694 71.0185648 63.7819 71.0185648 64.4457722 71.6986582 65.6288694 71.6986582 66.6004306 71.6986582 67.2651389 71.0185648"></polygon>
                    <polygon id="Fill-122" fill="#2A86CA" points="65.4169989 78.2626945 67.2648044 78.2626945 66.6009322 77.5262769 65.4169989 77.5262769 64.4454378 77.5262769 63.7815656 78.2626945"></polygon>
                    <polygon id="Fill-123" fill="#2A86CA" points="67.3856225 72.9963 67.3856225 71.1392835 66.7694086 71.806767 66.7694086 72.9963 66.7694086 73.9731462 67.3856225 74.6406297"></polygon>
                    <polygon id="Fill-124" fill="#2A86CA" points="67.3856225 76.5567445 67.3856225 74.699728 66.7694086 75.3672115 66.7694086 76.5567445 66.7694086 77.5335907 67.3856225 78.2019148"></polygon>
                    <polygon id="Fill-125" fill="#2A86CA" points="63.6844094 76.3433011 63.6844094 78.2011582 64.2997872 77.5336747 64.2997872 76.3433011 64.2997872 75.3664549 63.6844094 74.6989714"></polygon>
                    <polygon id="Fill-126" fill="#2A86CA" points="63.6844094 72.7836132 63.6844094 74.6406297 64.2997872 73.9731462 64.2997872 72.7836132 64.2997872 71.806767 63.6844094 71.1392835"></polygon>
                    <polygon id="Fill-127" fill="#2A86CA" points="71.1171028 71.0185648 69.2709694 71.0185648 69.9331694 71.6986582 71.1171028 71.6986582 72.0895 71.6986582 72.7533722 71.0185648"></polygon>
                    <polygon id="Fill-128" fill="#2A86CA" points="70.9052322 78.2626945 72.7530378 78.2626945 72.0891656 77.5262769 70.9052322 77.5262769 69.9336711 77.5262769 69.270635 78.2626945"></polygon>
                    <polygon id="Fill-129" fill="#2A86CA" points="72.8734378 72.9963 72.8734378 71.1392835 72.25806 71.806767 72.25806 72.9963 72.25806 73.9731462 72.8734378 74.6406297"></polygon>
                    <polygon id="Fill-130" fill="#2A86CA" points="72.8734378 76.5567445 72.8734378 74.699728 72.25806 75.3672115 72.25806 76.5567445 72.25806 77.5335907 72.8734378 78.2019148"></polygon>
                    <polygon id="Fill-131" fill="#2A86CA" points="69.1725592 76.3433011 69.1725592 78.2011582 69.7871008 77.5336747 69.7871008 76.3433011 69.7871008 75.3664549 69.1725592 74.6989714"></polygon>
                    <polygon id="Fill-132" fill="#2A86CA" points="69.1725592 72.7836132 69.1725592 74.6406297 69.7871008 73.9731462 69.7871008 72.7836132 69.7871008 71.806767 69.1725592 71.1392835"></polygon>
                    <polygon id="Fill-133" fill="#2A86CA" points="56.9571431 72.9963 56.9571431 71.1392835 56.3417653 71.806767 56.3417653 72.9963 56.3417653 73.9731462 56.9571431 74.6406297"></polygon>
                    <polygon id="Fill-134" fill="#2A86CA" points="56.9571431 76.5567445 56.9571431 74.699728 56.3417653 75.3672115 56.3417653 76.5567445 56.3417653 77.5335907 56.9571431 78.2019148"></polygon>
                    <polygon id="Fill-135" fill="#2A86CA" points="57.9884861 78.1249945 58.7209194 78.1249945 58.7209194 77.3894176 57.9884861 77.3894176"></polygon>
                    <path d="M35.3362294,79.1764071 L35.3362294,66.9969346 C35.3362294,65.7779786 36.2250156,64.9003302 37.4390489,64.9003302 L49.5350683,64.9003302" id="Fill-136" fill="#FFFFFF" opacity="0.300000012"></path>
                </g>
            </g>
        </g>
    </g>
</svg>