<?xml version="1.0" encoding="UTF-8"?>
<svg width="360px" height="180px" viewBox="0 0 360 180" version="1.1" xmlns="http://www.w3.org/2000/svg" xmlns:xlink="http://www.w3.org/1999/xlink">
    <!-- Generator: Sketch 53.2 (72643) - https://sketchapp.com -->
    <title>Illustration/Transferencias-MisCuentas</title>
    <desc>Created with Sketch.</desc>
    <defs>
        <rect id="path-1" x="0" y="0" width="360" height="180"></rect>
        <path d="M4.75322,0.322758621 C2.55592,0.322758621 0.77658,2.17862069 0.77658,4.47110345 L0.77658,4.47110345 L0.77658,47.4849655 C0.77658,49.7765517 2.55592,51.6333103 4.75322,51.6333103 L4.75322,51.6333103 L81.09026,51.6333103 C83.28584,51.6333103 85.06518,49.7765517 85.06518,47.4849655 L85.06518,47.4849655 L85.06518,4.47110345 C85.06518,2.17862069 83.28584,0.322758621 81.09026,0.322758621 L81.09026,0.322758621 L4.75322,0.322758621 Z" id="path-3"></path>
        <path d="M6.51806927,0.756052632 C3.20229765,0.756052632 0.512126984,3.5344397 0.512126984,6.96293535 L0.512126984,6.96293535 L0.512126984,61.6176631 C0.512126984,65.047053 3.20229765,67.8245458 6.51806927,67.8245458 L6.51806927,67.8245458 L102.607954,67.8245458 C105.925456,67.8245458 108.611301,65.047053 108.611301,61.6176631 L108.611301,61.6176631 L108.611301,6.96293535 C108.611301,3.5344397 105.925456,0.756052632 102.607954,0.756052632 L102.607954,0.756052632 L6.51806927,0.756052632 Z" id="path-5"></path>
        <polygon id="path-7" points="0.160904762 11.9375789 69.2089444 11.9375789 69.2089444 20.2174737 0.160904762 20.2174737"></polygon>
        <polygon id="path-9" points="12.7158016 0.278263158 69.2080794 0.278263158 69.2080794 8.55636842 12.7158016 8.55636842"></polygon>
        <path d="M61.4396667,0.715789474 L68.572246,0.715789474 C69.4018571,0.715789474 70.0740238,1.40921053 70.0740238,2.26905263 C70.0740238,3.12621053 69.4018571,3.82142105 68.572246,3.82142105 L61.4396667,3.82142105 C60.6100556,3.82142105 59.939619,3.12621053 59.939619,2.26905263 C59.939619,1.40921053 60.6100556,0.715789474 61.4396667,0.715789474 Z M46.6122063,0.715789474 L53.7430556,0.715789474 C54.5743968,0.715789474 55.2448333,1.40921053 55.2448333,2.26905263 C55.2448333,3.12621053 54.5743968,3.82142105 53.7430556,3.82142105 L46.6122063,3.82142105 C45.7825952,3.82142105 45.1104286,3.12621053 45.1104286,2.26905263 C45.1104286,1.40921053 45.7825952,0.715789474 46.6122063,0.715789474 Z M2.1255,0.715789474 L9.25807937,0.715789474 C10.0876905,0.715789474 10.7598571,1.40921053 10.7598571,2.26905263 C10.7598571,3.12621053 10.0876905,3.82142105 9.25807937,3.82142105 L2.1255,3.82142105 C1.29588889,3.82142105 0.625452381,3.12621053 0.625452381,2.26905263 C0.625452381,1.40921053 1.29588889,0.715789474 2.1255,0.715789474 Z M16.9546905,0.715789474 L24.0872698,0.715789474 C24.916881,0.715789474 25.5873175,1.40921053 25.5873175,2.26905263 C25.5873175,3.12621053 24.916881,3.82142105 24.0872698,3.82142105 L16.9546905,3.82142105 C16.1250794,3.82142105 15.4537778,3.12621053 15.4537778,2.26905263 C15.4537778,1.40921053 16.1250794,0.715789474 16.9546905,0.715789474 Z M31.7830159,0.715789474 L38.9155952,0.715789474 C39.7452063,0.715789474 40.4165079,1.40921053 40.4165079,2.26905263 C40.4165079,3.12621053 39.7452063,3.82142105 38.9155952,3.82142105 L31.7830159,3.82142105 C30.9534048,3.82142105 30.2821032,3.12621053 30.2821032,2.26905263 C30.2821032,1.40921053 30.9534048,0.715789474 31.7830159,0.715789474 Z" id="path-11"></path>
    </defs>
    <g id="Illustration/Transferencias-MisCuentas" stroke="none" stroke-width="1" fill="none" fill-rule="evenodd">
        <mask id="mask-2" fill="white">
            <use xlink:href="#path-1"></use>
        </mask>
        <use id="bg" fill="#5BBEFF" xlink:href="#path-1"></use>
        <g id="Group-8" transform="translate(93.000000, 18.000000)">
            <path d="M150,27 C150,30.313 152.687,33 156,33 C159.313,33 162,30.313 162,27 C162,23.687 159.313,21 156,21 C152.687,21 150,23.687 150,27" id="Fill-4" fill="#FFFFFF"></path>
            <path d="M0,36 C23.6741542,0.792894677 100.633727,-17.582917 153,23.4502929" id="Path-2" stroke="#FFFFFF" stroke-width="2" stroke-linecap="round" stroke-dasharray="4,7" fill-rule="nonzero"></path>
        </g>
        <g id="Tarjeta" transform="translate(50.000000, 64.000000)">
            <g id="Group-11">
                <mask id="mask-4" fill="white">
                    <use xlink:href="#path-3"></use>
                </mask>
                <use id="Clip-10" fill="#2A85C9" xlink:href="#path-3"></use>
                <path d="M8.5097,63.0271379 L91.28298,-23.2641724 L103.99206,48.7988621 C103.99206,48.7988621 66.41952,65.8494828 64.6505,64.9287241 C62.88148,64.0061724 32.38158,62.1628621 32.38158,62.1628621 L8.5097,63.0271379 Z" id="Fill-9" fill="#0977B9" mask="url(#mask-4)"></path>
            </g>
            <polygon id="Fill-12" fill="#072146" points="0.85656 15.3893103 85.14946 15.3893103 85.14946 6.59772414 0.85656 6.59772414"></polygon>
            <polygon id="Fill-14" fill="#FFFFFF" points="11.54722 37.7977241 74.46052 37.7977241 74.46052 31.7110345 11.54722 31.7110345"></polygon>
        </g>
        <g id="Cheque" transform="translate(201.000000, 56.000000)">
            <mask id="mask-6" fill="white">
                <use xlink:href="#path-5"></use>
            </mask>
            <use id="Clip-17" fill="#FFFFFF" xlink:href="#path-5"></use>
            <g id="Plecas" mask="url(#mask-6)">
                <g transform="translate(32.873016, 33.132105)">
                    <mask id="mask-8" fill="white">
                        <use xlink:href="#path-7"></use>
                    </mask>
                    <use id="Clip-20" stroke="none" fill="#E9E9E9" fill-rule="evenodd" xlink:href="#path-7"></use>
                    <mask id="mask-10" fill="white">
                        <use xlink:href="#path-9"></use>
                    </mask>
                    <use id="Clip-23" stroke="none" fill="#E9E9E9" fill-rule="evenodd" xlink:href="#path-9"></use>
                </g>
            </g>
            <g id="Lineas" mask="url(#mask-6)">
                <g transform="translate(32.007937, 56.395263)">
                    <mask id="mask-12" fill="white">
                        <use xlink:href="#path-11"></use>
                    </mask>
                    <use id="Clip-39" stroke="none" fill="#072146" fill-rule="evenodd" xlink:href="#path-11"></use>
                </g>
            </g>
            <g id="Logo" mask="url(#mask-6)" fill="#004481">
                <g transform="translate(7.785714, 8.079474)">
                    <path d="M45.306023,2.44674737 C44.8933802,1.13416842 44.6589437,0.827273684 43.4478325,0.827273684 L40.498777,0.827273684 L35.7745786,16.7893789 L38.1734437,16.7893789 L39.180396,13.3419579 L44.8103325,13.3419579 L45.8250706,16.7893789 L50.0025389,16.7893789 L45.306023,2.44674737 Z M39.866404,11.0031158 L41.970277,3.72353684 L44.1104833,11.0031158 L39.866404,11.0031158 Z" id="Fill-40"></path>
                    <path d="M21.9437762,7.08595789 L22.682554,5.92458947 C24.2872762,3.47569474 23.1808397,0.819221053 20.0276254,0.819221053 L13.3111492,0.819221053 L13.3111492,16.7893789 L19.7931889,16.7893789 C25.4940619,16.7893789 27.2173,9.92674737 21.9437762,7.08595789 L21.9437762,7.08595789 Z M16.9418873,14.6509579 L16.9418873,2.90664211 L18.9246492,2.90664211 C19.8762365,2.90664211 20.7049825,3.72353684 20.7049825,4.69969474 C20.7049825,5.04416842 20.6323159,5.35911579 20.3122365,5.85927368 L19.0336492,7.85364211 C20.3710619,8.18558947 21.265554,9.24853684 21.265554,11.2384316 C21.265554,13.6318526 19.8762365,14.6509579 18.0405381,14.6509579 L16.9418873,14.6509579 Z" id="Fill-42"></path>
                    <path d="M8.86663095,7.08595789 L9.6235754,5.92458947 C11.2092659,3.47569474 10.120131,0.819221053 6.97124206,0.819221053 L0.241789683,0.819221053 L0.241789683,16.7893789 L6.73421032,16.7893789 C12.4272976,16.7893789 14.1479405,9.92674737 8.86663095,7.08595789 M4.97982937,14.6509579 L3.87512302,14.6509579 L3.87512302,2.90664211 L5.85961508,2.90664211 C6.81206746,2.90664211 7.64427381,3.72353684 7.64427381,4.69969474 C7.64427381,5.04416842 7.5690119,5.35911579 7.2506627,5.85927368 L5.96601984,7.85364211 C7.29910714,8.18558947 8.20311508,9.24853684 8.20311508,11.2384316 C8.20311508,13.6318526 6.81206746,14.6509579 4.97982937,14.6509579" id="Fill-44"></path>
                    <path d="M28.721673,2.90413684 C28.1723476,1.10482105 27.8937921,0.818505263 26.8375302,0.818505263 L24.1125302,0.818505263 L29.1585381,16.7913474 L32.8723238,16.7913474 L37.5766254,0.818505263 L35.1267206,0.818505263 L31.653427,12.9448737 L28.721673,2.90413684 Z" id="Fill-46"></path>
                </g>
            </g>
        </g>
    </g>
</svg>