<?xml version="1.0" encoding="UTF-8"?>
<svg width="276px" height="70px" viewBox="0 0 276 70" version="1.1" xmlns="http://www.w3.org/2000/svg" xmlns:xlink="http://www.w3.org/1999/xlink">
    <!-- Generator: Sketch 50.2 (55047) - http://www.bohemiancoding.com/sketch -->
    <title>ilus2</title>
    <desc>Created with Sketch.</desc>
    <defs>
        <path d="M0.8635,21.1938022 C0.8635,32.5372071 10.1410833,41.731517 21.58475,41.731517 C33.0265833,41.731517 42.3014167,32.5372071 42.3014167,21.1938022 C42.3014167,9.85221468 33.0265833,0.653361221 21.58475,0.653361221 C10.1410833,0.653361221 0.8635,9.85221468 0.8635,21.1938022 Z" id="path-1"></path>
        <path d="M-9.20681195e-12,43.2188615 C5.02563488,56.1644534 17.6909702,65.3515701 32.5215,65.3515701 C51.7595833,65.3515701 67.3548333,49.8908082 67.3548333,30.8206572 C67.3548333,17.4583365 59.6987532,5.86884317 48.4978716,0.12776216 L16.5445227,0.127764378 C9.00654828,3.99129095 3.07407391,10.5034354 -2.64540526e-11,18.4220817 L-8.81801754e-14,43.2188615 L-9.20681195e-12,43.2188615 Z" id="path-3"></path>
        <path d="M0.41525,37.2656396 C1.48373182,32.2611118 5.71338074,24.8845577 13.585,22.698623 C15.3550833,23.5019211 16.5898333,24.39609 20.5315,24.3788245 C24.4759167,24.3606504 27.6686667,22.5114291 27.6686667,22.5114291 C40.6248333,26.0581173 38.8703333,41.9205283 38.9354167,41.9205283 L2.31825,41.9205283 C2.32552571,41.9205283 0.973407259,39.9535248 0.41525,39.1419922 L0.41525,37.2656396 L0.41525,37.2656396 Z M10.20525,11.1289498 C10.20525,16.6520784 14.8298333,21.2065241 20.5315,21.2065241 C26.2359167,21.2065241 30.8605,16.6520784 30.8605,11.1289498 C30.8605,5.4186272 26.2359167,0.865090239 20.5315,0.865090239 C14.8298333,0.865090239 10.20525,5.4186272 10.20525,11.1289498 Z M20.72125,30.7243341 L30.0978333,30.7243341 L30.0978333,30.911528 L26.6566667,34.3691629 L20.72125,34.3691629 L20.72125,30.7243341 Z" id="path-5"></path>
        <path d="M8.41683333,10.6382473 C8.41683333,16.161376 13.0405,20.7158216 18.7430833,20.7158216 C24.4475,20.7158216 29.0711667,16.161376 29.0711667,10.6382473 C29.0711667,4.92792476 24.4475,0.374387793 18.7430833,0.374387793 C13.0405,0.374387793 8.41683333,4.92792476 8.41683333,10.6382473 Z M18.7430833,23.8872134 C14.7995833,23.9044788 13.56575,23.0103099 11.7956667,22.2088293 C-0.974416667,25.7546088 0.557333333,41.4298258 0.528916667,41.4298258 L37.147,41.4298258 C37.0819167,41.4298258 38.8355,25.5683236 25.8793333,22.0216354 C25.8793333,22.0216354 22.6875,23.8699479 18.7430833,23.8872134 Z M18.9328333,30.232723 L28.3094167,30.232723 L28.3094167,30.4208256 L24.8673333,33.8775517 L18.9328333,33.8775517 L18.9328333,30.232723 Z" id="path-7"></path>
    </defs>
    <g id="Symbols" stroke="none" stroke-width="1" fill="none" fill-rule="evenodd">
        <g id="Illustration/Transfer" transform="translate(-40.000000, -43.000000)">
            <g id="Illustration">
                <g id="ilus2" transform="translate(0.000000, -7.000000)">
                    <g id="Group-28" transform="translate(17.416667, 9.995791)">
                        <path d="M191.979883,75.1609846 C191.979883,76.1641985 191.15855,76.9784011 190.14655,76.9784011 L92.3684667,76.9784011 C91.3564667,76.9784011 90.5351333,76.1641985 90.5351333,75.1609846 C90.5351333,74.156862 91.3564667,73.3435682 92.3684667,73.3435682 L190.14655,73.3435682 C191.15855,73.3435682 191.979883,74.156862 191.979883,75.1609846" id="Fill-8" fill="#F7893B"></path>
                        <g id="Group-13" transform="translate(67.833333, 66.335701)"></g>
                        <path d="M23.2362167,81.3772759 C23.2362167,82.317789 24.0062167,83.0811039 24.9549667,83.0811039 L160.8508,83.0811039 C161.79955,83.0811039 162.56955,82.317789 162.56955,81.3772759 C162.56955,80.4367629 161.79955,79.673448 160.8508,79.673448 L24.9549667,79.673448 C24.0062167,79.673448 23.2362167,80.4367629 23.2362167,81.3772759" id="Fill-22" fill="#F35E61"></path>
                        <path d="M200.885208,76.9801277 C200.885208,88.3226238 191.610375,97.5169338 180.167625,97.5169338 C168.724875,97.5169338 159.447292,88.3226238 159.447292,76.9801277 C159.447292,65.6376315 168.724875,56.4396867 180.167625,56.4396867 C191.610375,56.4396867 200.885208,65.6376315 200.885208,76.9801277" id="Fill-24" fill="#BA9A3D"></path>
                        <path d="M200.885208,73.8990615 C200.885208,85.2415577 191.610375,94.4367763 180.167625,94.4367763 C168.724875,94.4367763 159.447292,85.2415577 159.447292,73.8990615 C159.447292,62.557474 168.724875,53.3586206 180.167625,53.3586206 C191.610375,53.3586206 200.885208,62.557474 200.885208,73.8990615" id="Fill-26" fill="#F8CD51"></path>
                    </g>
                    <g id="Group-31" transform="translate(176.000000, 62.700868)">
                        <mask id="mask-2" fill="white">
                            <use xlink:href="#path-1"></use>
                        </mask>
                        <g id="Clip-30"></g>
                        <polygon id="Fill-29" fill="#EAB642" mask="url(#mask-2)" points="0.553208333 48.1943408 49.726875 -0.553312444 61.648125 60.0120914"></polygon>
                    </g>
                    <g id="Group-36" transform="translate(190.666667, 49.978953)">
                        <path d="M9.67330833,39.5323522 C9.67330833,38.0120833 9.058225,37.3996139 6.162475,36.1028873 C1.97330833,34.2173177 0.693641667,32.7906458 0.693641667,29.8827794 C0.693641667,27.0285269 2.52239167,24.9703027 5.392475,24.3541985 L5.392475,20.5794245 L5.59414167,20.5794245 L8.94089167,22.3459533 L8.94089167,24.284228 C10.0830583,24.452339 11.1106417,24.8067352 12.0621417,25.3474166 L12.2463917,25.4528268 L12.3683083,25.523706 L12.3463083,25.6627384 L12.3133083,25.8717413 L11.8788083,28.5633351 L11.7981417,29.0676681 L11.744975,29.4057076 L11.4708917,29.1967047 L11.0593083,28.8877439 C9.92539167,28.0290146 8.52289167,27.5337686 7.18455833,27.5337686 C5.386975,27.5337686 4.40614167,28.3325232 4.40614167,29.684681 C4.40614167,30.9468768 5.03955833,31.534811 7.889475,32.8260854 C12.0923917,34.7234682 13.3885583,36.2337413 13.3885583,39.3324364 C13.3885583,42.2130415 11.6698083,44.3294229 8.94089167,45.0881943 L8.94089167,49.0992325 L8.73830833,49.0992325 L5.392475,47.3317949 L5.392475,45.34445 C3.71039167,45.2017828 2.11080833,44.7546984 0.762391667,44.0486321 L0.570808333,43.9450394 L0.443391667,43.8777949 L0.463558333,43.7378539 L0.493808333,43.5233987 L0.898975,40.7736476 L0.970475,40.2983932 L1.017225,39.9803453 L1.28764167,40.1566347 L1.69189167,40.4210688 C3.26214167,41.4479091 5.00930833,42.027665 6.63639167,42.027665 C8.527475,42.027665 9.67330833,41.0798823 9.67330833,39.5323522" id="Fill-32" fill="#FFFFFF"></path>
                        <path d="M125.104375,35.3641984 C125.104375,54.4343494 109.509125,69.8951113 90.2710417,69.8951113 C71.0329583,69.8951113 55.4377083,54.4343494 55.4377083,35.3641984 C55.4377083,16.2931386 71.0329583,0.833285451 90.2710417,0.833285451 C109.509125,0.833285451 125.104375,16.2931386 125.104375,35.3641984" id="Fill-34" fill="#5BBEFF"></path>
                    </g>
                    <g id="Group-39" transform="translate(248.416667, 54.522494)">
                        <mask id="mask-4" fill="white">
                            <use xlink:href="#path-3"></use>
                        </mask>
                        <g id="Clip-38"></g>
                        <path d="M0,63.2829867 L63.7083333,0.127764378 C63.7083333,0.127764378 84.3333333,50.5610714 75.1666667,63.2829867 C66,76.004902 48.67775,81.7343074 32.5893333,82.5039833 C16.5,83.2745679 0.916666667,66.0372813 0.916666667,66.0372813" id="Fill-37" fill="#237ABA" opacity="0.599999964" mask="url(#mask-4)"></path>
                    </g>
                    <g id="Group-48" transform="translate(262.166667, 62.700868)">
                        <g id="Group-45" opacity="0.4" style="mix-blend-mode: soft-light;" transform="translate(0.000000, 2.726125)">
                            <path d="M10.2050667,11.1289498 C10.2050667,16.6520784 14.82965,21.2065241 20.5322333,21.2065241 C26.2357333,21.2065241 30.8603167,16.6520784 30.8603167,11.1289498 C30.8603167,5.4186272 26.2357333,0.865090239 20.5322333,0.865090239 C14.82965,0.865090239 10.2050667,5.4186272 10.2050667,11.1289498 L10.2050667,11.1289498 Z M20.5322333,24.3788245 C16.58965,24.39609 15.3549,23.5019211 13.5857333,22.698623 C4.8609,25.1212391 0.610316667,33.9193523 0.178566667,38.7982068 C0.178566667,38.7982068 2.32723333,41.9205283 2.31806667,41.9205283 L38.9352333,41.9205283 C38.87015,41.9205283 40.6255667,26.0581173 27.6684833,22.5114291 C27.6684833,22.5114291 24.4757333,24.3606504 20.5322333,24.3788245 L20.5322333,24.3788245 Z M20.7219833,30.7243341 L30.09765,30.7243341 L30.09765,30.911528 L26.6564833,34.3691629 L20.7219833,34.3691629 L20.7219833,30.7243341 Z" id="Fill-40" fill="#000000"></path>
                            <g id="Group-44">
                                <mask id="mask-6" fill="white">
                                    <use xlink:href="#path-5"></use>
                                </mask>
                                <g id="Clip-43" opacity="0.4" style="mix-blend-mode: soft-light;"></g>
                                <polygon id="Fill-42" opacity="0.4" style="mix-blend-mode: soft-light;" mask="url(#mask-6)" points="0.41525 42.8528629 39.0069167 42.8528629 39.0069167 -0.0672444094 0.41525 -0.0672444094"></polygon>
                            </g>
                        </g>
                        <path d="M8.41646667,10.6382473 C8.41646667,16.161376 13.0401333,20.7158216 18.7436333,20.7158216 C24.4471333,20.7158216 29.0708,16.161376 29.0708,10.6382473 C29.0708,4.92792476 24.4471333,0.374387793 18.7436333,0.374387793 C13.0401333,0.374387793 8.41646667,4.92792476 8.41646667,10.6382473 L8.41646667,10.6382473 Z M18.7436333,23.8872134 C14.8001333,23.9053875 13.5653833,23.0103099 11.7962167,22.2079205 C-0.973866667,25.7546088 0.556966667,41.4298258 0.529466667,41.4298258 L37.1466333,41.4298258 C37.08155,41.4298258 38.83605,25.5683236 25.8798833,22.0207267 C25.8798833,22.0207267 22.6871333,23.8699479 18.7436333,23.8872134 L18.7436333,23.8872134 Z M18.9333833,30.2318143 L28.30905,30.2318143 L28.30905,30.4208256 L24.8669667,33.8775517 L18.9333833,33.8775517 L18.9333833,30.2318143 Z" id="Fill-46" fill="#FFFFFF"></path>
                    </g>
                    <g id="Group-51" transform="translate(262.166667, 62.700868)">
                        <mask id="mask-8" fill="white">
                            <use xlink:href="#path-7"></use>
                        </mask>
                        <g id="Clip-50"></g>
                        <polygon id="Fill-49" fill="#FFFFFF" mask="url(#mask-8)" points="-1.37316667 42.3621605 37.2185 42.3621605 37.2185 -0.558855564 -1.37316667 -0.558855564"></polygon>
                    </g>
                </g>
            </g>
        </g>
    </g>
</svg>