<svg xmlns="http://www.w3.org/2000/svg" width="360" height="180" viewBox="0 0 360 180">
  <g fill="none" fill-rule="evenodd">
    <polygon fill="#2DCCCD" points="0 180 360 180 360 0 0 0"/>
    <path stroke="#FFF" stroke-dasharray="3 5" d="M57.1611,125.4903 C57.1611,125.4903 76.4221,35.8123 187.5001,33.0003 C266.5001,31.0003 302.6541,87.0943 308.6191,93.9383"/>
    <path fill="#B9993D" d="M328.2143,91.1485 C328.2143,103.6305 318.0963,113.7485 305.6133,113.7485 C293.1303,113.7485 283.0093,103.6305 283.0093,91.1485 C283.0093,78.6665 293.1303,68.5445 305.6133,68.5445 C318.0963,68.5445 328.2143,78.6665 328.2143,91.1485"/>
    <path fill="#F7CC51" d="M328.2143,87.7579 C328.2143,100.2399 318.0963,110.3589 305.6133,110.3589 C293.1303,110.3589 283.0093,100.2399 283.0093,87.7579 C283.0093,75.2769 293.1303,65.1539 305.6133,65.1539 C318.0963,65.1539 328.2143,75.2769 328.2143,87.7579"/>
    <path fill="#E9B542" d="M324.619245,75.5211732 C326.894545,79.0481575 328.215,83.2490322 328.215,87.758 C328.215,100.24 318.096,110.359 305.614,110.359 C301.104844,110.359 296.903968,109.038858 293.376947,106.764053 L324.619245,75.5211732 Z"/>
    <path fill="#FFF" d="M308.6186 93.9386C308.6186 92.2656 307.9476 91.5916 304.7896 90.1646 300.2196 88.0896 298.8226 86.5196 298.8226 83.3196 298.8226 80.1786 300.8186 77.9136 303.9496 77.2356L303.9496 73.0816 304.1686 73.0816 307.8206 75.0256 307.8206 77.1586C309.0666 77.3436 310.1876 77.7336 311.2256 78.3286L311.4266 78.4446 311.5596 78.5226 311.5356 78.6756 311.4996 78.9056 311.0256 81.8676 310.9376 82.4226 310.8796 82.7946 310.5806 82.5646 310.1316 82.2246C308.8936 81.2796 307.3646 80.7346 305.9046 80.7346 303.9436 80.7346 302.8726 81.6136 302.8726 83.1016 302.8726 84.4906 303.5646 85.1376 306.6736 86.5586 311.2586 88.6466 312.6726 90.3086 312.6726 93.7186 312.6726 96.8886 310.7976 99.2176 307.8206 100.0526L307.8206 104.4666 307.5996 104.4666 303.9496 102.5216 303.9496 100.3346C302.1146 100.1776 300.3686 99.6856 298.8976 98.9086L298.6896 98.7946 298.5506 98.7206 298.5726 98.5666 298.6056 98.3306 299.0476 95.3046 299.1256 94.7816 299.1766 94.4316 299.4716 94.6256 299.9126 94.9166C301.6256 96.0466 303.5316 96.6846 305.3056 96.6846 307.3686 96.6846 308.6186 95.6416 308.6186 93.9386M28.8134 133.0255C28.8134 133.0255 30.0684 120.2985 43.7584 122.7725 46.6074 118.3905 51.5444 115.4905 57.1614 115.4905 64.3404 115.4905 70.4154 120.2265 72.4284 126.7465 74.0694 125.7905 75.9714 125.2325 78.0074 125.2325 82.9884 125.2325 86.9724 129.8175 86.9724 133.0255L28.8134 133.0255z"/>
    <path stroke="#FFF" d="M28.8134,133.0255 C28.8134,133.0255 30.0684,120.2985 43.7584,122.7725 C46.6074,118.3905 51.5444,115.4905 57.1614,115.4905 C64.3404,115.4905 70.4154,120.2265 72.4284,126.7465 C74.0694,125.7905 75.9714,125.2325 78.0074,125.2325 C82.9884,125.2325 86.9724,129.8175 86.9724,133.0255 L28.8134,133.0255 Z"/>
    <path fill="#E67D8D" d="M223.977,98.2764 C223.977,119.2624 206.964,136.2764 185.977,136.2764 C164.99,136.2764 147.977,119.2624 147.977,98.2764 C147.977,77.2894 164.99,60.2764 185.977,60.2764 C206.964,60.2764 223.977,77.2894 223.977,98.2764"/>
    <path fill="#D93851" fill-opacity=".5" d="M217.480299,77.0198005 C221.581843,83.0864752 223.977,90.4014296 223.977,98.276 C223.977,119.262 206.964,136.276 185.977,136.276 C178.102579,136.276 170.787613,133.880794 164.72083,129.77927 L217.480299,77.0198005 Z"/>
    <path fill="#000" fill-opacity=".2" d="M177.0156 88.502C177.0156 94.58 182.0586 99.592 188.2816 99.592 194.5046 99.592 199.5476 94.58 199.5476 88.502 199.5476 82.218 194.5046 77.207 188.2816 77.207 182.0586 77.207 177.0156 82.218 177.0156 88.502zM188.2816 103.082C183.9786 103.102 182.6336 102.117 180.7016 101.234 171.1856 103.9 166.5486 113.582 166.0776 118.951 166.0776 118.951 168.4196 122.387 168.4106 122.387L208.3556 122.387C208.2856 122.387 210.1996 104.932 196.0666 101.028 196.0666 101.028 192.5846 103.063 188.2816 103.082z"/>
    <polygon fill="#000" fill-opacity=".2" points="188.489 110.064 198.717 110.064 198.717 110.272 194.961 114.076 188.489 114.076"/>
    <path fill="#FFF" d="M174.643103 85.249253C174.643103 91.3041679 179.680331 96.2953142 185.896209 96.2953142 192.112087 96.2953142 197.149315 91.3041679 197.149315 85.249253 197.149315 78.9901503 192.112087 74 185.896209 74 179.680331 74 174.643103 78.9901503 174.643103 85.249253zM185.896209 99.7724828C190.193285 99.752562 193.672299 97.7266208 193.672299 97.7266208 207.790122 101.615153 205.878313 119 205.948233 119L166.047951 119C166.078916 119 164.409828 101.818345 178.324884 97.9318046 180.254673 98.8103101 181.599133 99.7914075 185.896209 99.7724828z"/>
    <polygon fill="#B24858" points="186.103 106.727 186.103 110.723 192.57 110.723 196.32 106.933 196.32 106.727"/>
  </g>
</svg>
