<?xml version="1.0" encoding="UTF-8"?>
<svg width="80px" height="80px" viewBox="0 0 80 80" version="1.1" xmlns="http://www.w3.org/2000/svg" xmlns:xlink="http://www.w3.org/1999/xlink">
    <!-- Generator: sketchtool 64 (101010) - https://sketch.com -->
    <title>6DEF7EFF-BA11-412E-8A4C-4F1BF92AEDB4</title>
    <desc>Created with sketchtool.</desc>
    <defs>
        <linearGradient x1="38.4767309%" y1="9.16069018%" x2="61.2443693%" y2="97.5759509%" id="linearGradient-1">
            <stop stop-color="#192647" stop-opacity="0.5" offset="0%"></stop>
            <stop stop-color="#192647" stop-opacity="0" offset="100%"></stop>
        </linearGradient>
        <linearGradient x1="100.004208%" y1="50.0010363%" x2="0.139031133%" y2="50.0010363%" id="linearGradient-2">
            <stop stop-color="#043263" stop-opacity="0.6" offset="0%"></stop>
            <stop stop-color="#043263" stop-opacity="0" offset="100%"></stop>
        </linearGradient>
    </defs>
    <g id="Page-1" stroke="none" stroke-width="1" fill="none" fill-rule="evenodd">
        <g id="MX-Simulador_CreditCardPayments-02-01-00-02" transform="translate(-120.000000, -108.000000)">
            <g id="Component/Panels/Panel-Info/Light-Background/Default/Success" transform="translate(0.000000, 92.000000)">
                <g id="Actions/Lean-Operations" transform="translate(120.000000, 16.000000)">
                    <g id="Lean-Operations">
                        <g id="Cuadrados_Blancos">
                            <rect id="Rectangle" x="0" y="0" width="80" height="80"></rect>
                        </g>
                        <g id="Capa_30" transform="translate(23.866667, 7.466667)" fill-rule="nonzero">
                            <g id="Group">
                                <path d="M36.256,31.9586667 C35.212,31.9026667 34.2506667,32.5213333 33.8666667,33.4933333 C33.84,33.5613333 33.8146667,33.5573333 33.8213333,33.484 C33.828,33.4106667 33.8293333,33.356 33.8293333,33.292 C33.836,31.812 32.6413333,30.6066667 31.1613333,30.6 C30.0253333,30.5946667 29.0106667,31.3066667 28.6266667,32.3746667 C28.608,32.4266667 28.584,32.4213333 28.5866667,32.3746667 C28.5893333,32.328 28.5866667,32.2933333 28.5866667,32.252 C28.5853333,30.788 27.3973333,29.6026667 25.9333333,29.604 C24.7173333,29.6053333 23.6586667,30.4333333 23.364,31.6133333 C23.3586667,31.6386667 23.3346667,31.656 23.3093333,31.6506667 C23.2906667,31.6466667 23.2746667,31.632 23.272,31.6133333 C23.2,29.9813333 23.1,27.2413333 23.0373333,25.256 C23.0373333,24.972 23.02,24.6693333 23.0093333,24.3546667 C26.26,23.3 28.46,20.272 28.46,16.8546667 C28.46,16.7333333 28.46,16.6133333 28.4506667,16.4933333 L28.4506667,16.3973333 C28.4506667,16.2933333 28.4386667,16.192 28.4266667,16.0893333 C28.4266667,16.072 28.4266667,16.0533333 28.4266667,16.036 C28.416,15.9186667 28.4,15.8026667 28.3826667,15.688 C28.3826667,15.6586667 28.3733333,15.628 28.368,15.6 C28.3533333,15.5053333 28.336,15.412 28.3186667,15.3186667 C28.3186667,15.2933333 28.308,15.2666667 28.3026667,15.2413333 C28.2786667,15.1293333 28.2533333,15.0186667 28.2253333,14.908 C28.2253333,14.8813333 28.2106667,14.856 28.2053333,14.8293333 C28.1813333,14.7413333 28.156,14.6506667 28.1293333,14.564 C28.1213333,14.5346667 28.112,14.504 28.1026667,14.476 C28.0693333,14.3693333 28.0333333,14.2613333 27.996,14.16 C27.988,14.1413333 27.98,14.1226667 27.9733333,14.1013333 C27.94,14.0133333 27.9053333,13.9266667 27.8693333,13.84 C27.8573333,13.808 27.844,13.7773333 27.8293333,13.7466667 C27.7866667,13.6493333 27.744,13.5506667 27.6973333,13.4546667 C27.6973333,13.4426667 27.6866667,13.4306667 27.6813333,13.42 C27.636,13.3253333 27.588,13.2333333 27.54,13.1426667 L27.4893333,13.0493333 C27.4453333,12.972 27.4013333,12.892 27.3546667,12.8173333 L27.3186667,12.7546667 C27.2613333,12.6626667 27.204,12.5733333 27.1453333,12.4853333 L27.084,12.396 C27.0373333,12.3293333 26.9906667,12.264 26.9426667,12.1973333 L26.884,12.1173333 C26.8213333,12.0333333 26.7546667,11.9506667 26.688,11.8693333 C26.6653333,11.8413333 26.644,11.816 26.62,11.7893333 C26.5693333,11.7293333 26.5186667,11.6693333 26.4626667,11.6106667 L26.3853333,11.5253333 C26.3146667,11.448 26.244,11.368 26.1706667,11.3 L26.1013333,11.232 C26.044,11.1773333 25.988,11.1213333 25.9293333,11.0746667 L25.8373333,10.9906667 L25.636,10.8173333 L25.5466667,10.7413333 C25.48,10.688 25.412,10.636 25.3453333,10.584 L25.2413333,10.5066667 C25.18,10.4613333 25.1186667,10.4173333 25.0533333,10.372 C25.0253333,10.3533333 24.9986667,10.332 24.968,10.3133333 C24.884,10.256 24.7973333,10.2013333 24.7106667,10.148 L24.6,10.0813333 C24.5373333,10.044 24.4733333,10.0066667 24.4106667,9.972 L24.3053333,9.91333333 L24.288,9.904 L24.288,9.904 C20.5546667,7.66266667 15.7106667,8.87333333 13.4706667,12.6066667 C11.2293333,16.34 12.44,21.184 16.1733333,23.424 C16.404,23.5626667 16.6426667,23.6893333 16.8866667,23.804 L16.8866667,23.804 L16.94,23.8306667 C17.0453333,23.8853333 17.1506667,23.94 17.256,23.988 L17.3653333,24.0373333 C17.4666667,24.0813333 17.5666667,24.124 17.6693333,24.1653333 L17.7813333,24.2093333 C17.8946667,24.252 18.0093333,24.2933333 18.1266667,24.3306667 L18.1986667,24.356 L18.2906667,24.3826667 C18.2466667,25.1013333 18.2026667,25.7653333 18.16,26.32 C17.896,29.748 17.296,37.8306667 17.024,39.1506667 C16.7533333,40.4706667 16.404,40.708 16.2226667,39.9693333 C15.8066667,38.452 15.244,36.9786667 14.5426667,35.5693333 C13.656,33.784 12.6,32.8213333 11.4493333,31.9 C10.624,31.244 8.61066667,31.3293333 8.04933333,31.9573333 C7.94266667,32.0826667 7.88666667,32.2426667 7.892,32.4066667 C7.81733333,32.4346667 7.74533333,32.464 7.68266667,32.4906667 C7.72933333,33.1733333 8.364,34.296 9.064,36.2186667 L9.24666667,36.1386667 C9.336,36.3866667 9.42933333,36.6466667 9.52133333,36.9266667 C10.5413333,39.9666667 10.796,41.9 11.7053333,45.6293333 C12.4933333,48.8266667 14.836,51.0853333 17.12,54.6626667 C19.4053333,58.24 19.616,62.3653333 19.616,62.3653333 L19.616,62.7746667 L19.3413333,62.8293333 C18.184,63.0746667 17.3533333,64.0906667 17.3413333,65.2733333 L17.332,69.988 C17.3293333,71.372 18.4493333,72.496 19.8333333,72.4986667 C19.9893333,72.4986667 20.1453333,72.4853333 20.2986667,72.456 C24.8026667,71.6493333 29.4146667,71.6586667 33.9146667,72.4853333 C35.2733333,72.7453333 36.5866667,71.8546667 36.8466667,70.496 C36.876,70.3426667 36.8906667,70.1866667 36.892,70.0306667 L36.9026667,65.316 C36.9,64.132 36.0733333,63.1093333 34.9173333,62.8573333 L34.864,62.8466667 C34.9266667,62.1506667 35.2946667,59.6106667 35.8413333,57.8573333 C36.472,55.8453333 37.2946667,53.212 37.6466667,50.276 C37.9986667,47.34 38.3746667,43.0333333 38.4813333,37.8093333 C38.5146667,36.1973333 38.556,35.3426667 38.558672,34.4613333 C38.5613333,33.156 37.564,32.0253333 36.256,31.9586667 Z" id="Path" fill="url(#linearGradient-1)"></path>
                                <g>
                                    <circle id="Oval" fill="#1464A5" cx="13.0106667" cy="7.95333333" r="7.884"></circle>
                                    <path d="M16.72,0.994666667 L9.308,14.92 C13.1533333,16.9666667 17.9293333,15.508 19.976,11.6626667 C22.0226667,7.81733333 20.5653333,3.04133333 16.72,0.994666667 Z" id="Path" fill="url(#linearGradient-2)"></path>
                                    <path d="M28.6866667,23.0773333 C27.644,23.0213333 26.6813333,23.6386667 26.2973333,24.6106667 C26.2706667,24.68 26.2453333,24.6773333 26.252,24.6013333 C26.2586667,24.5253333 26.26,24.4733333 26.26,24.4093333 C26.2653333,22.9293333 25.0706667,21.724 23.5893333,21.7186667 C22.4546667,21.7146667 21.44,22.4253333 21.056,23.4933333 C21.0386667,23.544 21.0146667,23.54 21.0186667,23.484 C21.0213333,23.4266667 21.0186667,23.404 21.0186667,23.3626667 C21.0173333,21.8986667 19.8306667,20.712 18.3666667,20.7133333 C17.1506667,20.7146667 16.0906667,21.5426667 15.796,22.7226667 C15.7906667,22.748 15.7666667,22.7653333 15.7413333,22.76 C15.7226667,22.756 15.7066667,22.7413333 15.704,22.7226667 C15.632,21.0906667 15.532,18.348 15.4693333,16.3626667 C15.3973333,14.0506667 15.296,10.536 15.228,8.74133333 C15.1866667,7.64266667 14.296,6.768 13.1973333,6.74756668 L13.1973333,6.74756668 C12.0786667,6.72533333 11.144,7.59466667 11.0853333,8.71066667 C10.9706667,10.892 10.7693333,15.124 10.5906667,17.4426667 C10.3266667,20.872 9.72666667,28.9533333 9.45466667,30.2746667 C9.184,31.596 8.83466667,31.832 8.65333333,31.0933333 C8.23733333,29.576 7.67466667,28.1026667 6.97333333,26.6933333 C6.08666667,24.9066667 5.03066667,23.9386667 3.88,23.0146667 C3.05466667,22.3586667 1.03333333,22.4453333 0.48,23.072 C-0.0733333333,23.6986667 0.934666667,24.9946667 1.95333333,28.036 C2.972,31.0773333 3.228,33.0093333 4.13733333,36.7373333 C4.91733333,39.9373333 7.268,42.1933333 9.552,45.7706667 C11.8373333,49.348 12.048,53.4733333 12.048,53.4733333 L12.048,54.504 C12.048,54.504 27.324,54.2533333 27.2893333,54.1413333 C27.2546667,54.0293333 27.6453333,50.988 28.2733333,48.972 C28.9013333,46.9573333 29.7266667,44.328 30.0786667,41.3906667 C30.4306667,38.4533333 30.8066667,34.148 30.9133333,28.9253333 C30.9466667,27.3133333 30.988,26.4573333 30.990668,25.5773333 C30.992,24.2773333 29.9933333,23.1453333 28.6866667,23.0773333 Z" id="Path" fill="#F7B27F"></path>
                                    <path d="M9.76266192,61.108 C9.76,62.4933333 10.8813333,63.6173333 12.2653333,63.62 C12.4213333,63.62 12.576,63.6066667 12.7293333,63.5773333 C17.2333333,62.768 21.8453333,62.7786667 26.3453333,63.6066667 C27.7053333,63.8666667 29.0186667,62.9733333 29.2786667,61.6133333 C29.308,61.4613333 29.3226667,61.3066667 29.3226667,61.1506667 L29.3333333,56.436 C29.3306667,55.252 28.504,54.2293333 27.348,53.9773333 C22.2133333,52.8813333 16.908,52.8693333 11.768,53.9426667 C10.6106667,54.1906667 9.78133333,55.208 9.77333333,56.392 L9.76266192,61.108 Z" id="Path" fill="#2DCCCD"></path>
                                    <circle id="Oval" fill="#02A5A5" cx="25.6466667" cy="58.8293333" r="1.57733333"></circle>
                                    <path d="M1.48933333,27.3373333 C2.068,27.0866667 3.344,26.5066667 3.268,26.2786667 C3.17066667,25.984 3.13733333,25.4613333 2.64666667,24.4813333 C2.156,23.5 1.27466667,23.3386667 0.784,23.404 C0.550666667,23.4413333 0.322666667,23.5106667 0.108,23.6093333 C0.154666667,24.292 0.789333333,25.4146667 1.48933333,27.3373333 Z" id="Path" fill="#FACBA9"></path>
                                    <path d="M14.56,9.34266667 C14.58,9.18533333 14.6213333,7.96133333 14.6533333,7.21333333 C14.344,6.69866667 13.7973333,6.37333333 13.1973333,6.34798009 C12.6373333,6.34533333 12.1093333,6.61066667 11.7786667,7.06266667 C11.7386667,7.78933333 11.6906667,9.08533333 11.6906667,9.192 C11.6906667,9.36533333 12.3653333,9.90533333 13.1933333,9.91066667 C14.0773333,9.91733333 14.52,9.62666667 14.56,9.34266667 Z" id="Path" fill="#FACBA9"></path>
                                </g>
                            </g>
                        </g>
                    </g>
                </g>
            </g>
        </g>
    </g>
</svg>