<?xml version="1.0" encoding="UTF-8"?>
<svg width="80px" height="80px" viewBox="0 0 80 80" version="1.1" xmlns="http://www.w3.org/2000/svg" xmlns:xlink="http://www.w3.org/1999/xlink">
    <!-- Generator: sketchtool 64 (101010) - https://sketch.com -->
    <title>C65C70C8-E07D-4EB7-A23D-81328C0B3C9A</title>
    <desc>Created with sketchtool.</desc>
    <defs>
        <linearGradient x1="34.6213535%" y1="13.6558381%" x2="59.1149719%" y2="79.0304366%" id="linearGradient-1">
            <stop stop-color="#192647" stop-opacity="0.5" offset="0%"></stop>
            <stop stop-color="#192647" stop-opacity="0" offset="100%"></stop>
        </linearGradient>
        <linearGradient x1="49.9940485%" y1="101.526588%" x2="49.9940485%" y2="2.41413519%" id="linearGradient-2">
            <stop stop-color="#028484" offset="0%"></stop>
            <stop stop-color="#028484" stop-opacity="0" offset="100%"></stop>
        </linearGradient>
    </defs>
    <g id="Page-1" stroke="none" stroke-width="1" fill="none" fill-rule="evenodd">
        <g id="MX-Simulador_CreditCardPayments-02-01-00-03" transform="translate(-120.000000, -108.000000)">
            <g id="Component/Panels/Panel-Info/Light-Background/Default/Success" transform="translate(0.000000, 92.000000)">
                <g id="Actions/Search-Ticket" transform="translate(120.000000, 16.000000)">
                    <g id="Search-Ticket">
                        <g id="Cuadrados_Blancos">
                            <rect id="Rectangle" x="0" y="0" width="80" height="80"></rect>
                        </g>
                        <g id="Capa_4" transform="translate(14.933333, 2.800000)">
                            <g id="Group">
                                <path d="M52.5013333,18.8093333 L52.5093333,8.57333333 L52.5266667,8.556 L50.9653333,6.97733333 L49.3866667,8.55733333 L47.792,6.97866667 L46.2133333,8.55733333 L44.6186667,6.97866667 L43.04,8.55733333 L41.4613333,6.97866667 L39.8826667,8.55733333 L38.304,6.97866667 L36.7093333,8.55733333 L36.624,8.55733333 L35.0453333,6.97866667 L33.4666667,8.55733333 L33.416,8.55733333 L33.416,11.0226667 C23.0426667,12.316 14.9853333,21.1906667 14.9853333,31.9066667 C14.9853333,38.4613333 18.0066667,44.3306667 22.7133333,48.1853333 L10.0533333,70.1426667 L10.012,70.1186667 C9.796,69.9893333 9.52266667,70.0613333 9.408,70.2773333 L7.65466667,73.3253333 C7.54,73.5413333 7.612,73.8 7.81333333,73.9293333 L13.392,77.1346667 C13.608,77.264 13.8813333,77.192 13.996,76.976 L15.7493333,73.928 C15.868,73.7293333 15.8146667,73.484 15.6373333,73.356 L28.2706667,51.472 L28.2786667,51.46 C30.6866667,52.4173333 33.2893333,52.9386667 36.0346667,52.9386667 C47.636,52.9386667 57.0813333,43.4933333 57.0813333,31.892 C57.0813333,26.9506667 55.3666667,22.4026667 52.5013333,18.8093333 Z" id="Path" fill="url(#linearGradient-1)" fill-rule="nonzero"></path>
                                <circle id="Oval" transform="translate(28.485238, 25.078986) rotate(-45.000000) translate(-28.485238, -25.078986) " cx="28.4852377" cy="25.078986" r="16.6478403"></circle>
                                <path d="M20.68,44.544 C18.7386667,43.7533333 16.9133333,42.6893333 15.2746667,41.352 L15.2026667,41.2946667 L0.596,66.6266667 C0.524,66.7413333 0.509333333,66.8853333 0.538666667,67.0146667 C0.568,67.144 0.653333333,67.2453333 0.769333333,67.316 L5.47066667,70.0333333 C5.55733333,70.076 5.64266667,70.1053333 5.744,70.1053333 C5.78666667,70.1053333 5.83066667,70.1053333 5.87333333,70.0906667 C6.00266667,70.048 6.11733333,69.9613333 6.17466667,69.8466667 L20.724,44.644 L20.7666667,44.572 L20.68,44.544 Z" id="Path" fill="#004481" fill-rule="nonzero"></path>
                                <path d="M0.106666667,66.4973333 L1.86,63.4493333 C1.97466667,63.2333333 2.248,63.1613333 2.464,63.2906667 L8.04266667,66.496 C8.25866667,66.6106667 8.33066667,66.884 8.20133333,67.1 L6.448,70.148 C6.33333333,70.364 6.06,70.436 5.844,70.3066667 L0.265333333,67.1013333 C0.064,66.972 -0.008,66.712 0.106666667,66.4973333 Z" id="Path" fill="#2DCCCD" fill-rule="nonzero"></path>
                                <circle id="Oval" fill="#49A5E6" fill-rule="nonzero" transform="translate(28.485238, 25.078986) rotate(-45.000000) translate(-28.485238, -25.078986) " cx="28.4852377" cy="25.078986" r="16.6478403"></circle>
                                <path d="M28.4866667,4.03066667 C16.8853333,4.03066667 7.44,13.476 7.44,25.0773333 C7.44,31.6613333 10.488,37.556 15.232,41.4093333 C16.856,42.732 18.6826667,43.8106667 20.652,44.6013333 C23.0813333,45.5786667 25.712,46.1106667 28.4866667,46.1106667 C40.088,46.1106667 49.5333333,36.6653333 49.5333333,25.064 C49.5333333,13.4626667 40.088,4.03066667 28.4866667,4.03066667 Z M28.4866667,41.7266667 C19.3,41.7266667 11.8386667,34.2506667 11.8386667,25.0786667 C11.8386667,15.9066667 19.3146667,8.43066667 28.4866667,8.43066667 C37.6733333,8.43066667 45.1346667,15.9066667 45.1346667,25.0786667 C45.1346667,34.2506667 37.6733333,41.7266667 28.4866667,41.7266667 Z" id="Shape" fill="#1464A5" fill-rule="nonzero"></path>
                                <g transform="translate(16.800000, 0.000000)" fill-rule="nonzero">
                                    <path d="M21.408,22.3093333 C20.1693333,22.292 19.168,23.3106667 19.168,24.5493333 L19.168,39.9413333 C20.8653333,39.076 22.376,37.9386667 23.6826667,36.5813333 L23.6826667,24.532 C23.6653333,23.2933333 22.664,22.292 21.408,22.3093333 Z" id="Path" fill="#02A5A5"></path>
                                    <path d="M9.12133333,22.292 L9.104,22.292 L2.77466667,22.292 C1.28133333,22.292 0.076,23.5133333 0.076,24.9906667 L0.0933333333,37.0733333 C1.07733333,38.024 2.18133333,38.8546667 3.368,39.5506667 C3.38533333,39.5506667 3.40133333,39.5506667 3.40133333,39.5506667 L10.3586667,39.5506667 C10.732,39.5506667 11.0373333,39.856 11.0373333,40.2293333 C11.0373333,40.6026667 10.732,40.908 10.3586667,40.908 L6.33733333,40.908 C8,41.468 9.78266667,41.7733333 11.6493333,41.7733333 C14.348,41.7733333 16.8933333,41.128 19.1506667,39.992 L19.1506667,39.9413333 L19.1506667,26.3653333 L19.1506667,24.5493333 C19.1506667,23.9346667 19.396,23.3813333 19.7893333,22.9773333 C19.7986667,22.968 19.8053333,22.9586667 19.8146667,22.9493333 C19.8346667,22.9293333 19.856,22.912 19.876,22.8933333 C19.9093333,22.8626667 19.9413333,22.832 19.976,22.804 C20.024,22.764 20.0746667,22.728 20.1266667,22.692 C20.1333333,22.688 20.1386667,22.6826667 20.1453333,22.6786667 C20.5026667,22.4386667 20.9333333,22.3026667 21.3906667,22.308 C22.6466667,22.2906667 23.648,23.3093333 23.648,24.548 L23.648,36.5973333 C26.16,33.9666667 27.8053333,30.5053333 28.1626667,26.652 L28.1626667,23.58 C28.1586667,23.5306667 28.1506667,23.4813333 28.1453333,23.432 L28.1626667,1.70533333 L28.18,1.688 L26.6186667,0.109333333 L25.04,1.688 L23.4453333,0.109333333 L21.8666667,1.688 L20.272,0.109333333 L18.6933333,1.688 L17.1146667,0.109333333 L15.536,1.688 L13.9573333,0.109333333 L12.3626667,1.688 L12.2773333,1.688 L10.6986667,0.109333333 L9.12,1.688 L9.06933333,1.688 L9.06933333,8.832 C9.08666667,8.82933333 9.104,8.828 9.12,8.82533333 L9.12,18.336 L9.12,22.2733333 M19.8213333,18.3213333 L19.7786667,18.3213333 C19.6933333,18.5413333 19.4733333,18.6946667 19.2013333,18.6946667 L12.2773333,18.6946667 C12.0226667,18.6946667 11.8026667,18.5413333 11.684,18.3386667 C11.6333333,18.2373333 11.5986667,18.1346667 11.5986667,18.0333333 C11.5986667,17.66 11.904,17.3546667 12.2773333,17.3546667 L19.2186667,17.3546667 C19.592,17.3546667 19.8973333,17.66 19.8973333,18.0333333 C19.8973333,18.144 19.8666667,18.24 19.8213333,18.3213333 Z M10.7506667,37.8373333 L3.40266667,37.8373333 C3.02933333,37.8373333 2.724,37.532 2.724,37.1586667 C2.724,36.7853333 3.02933333,36.48 3.40266667,36.48 L10.7506667,36.48 C11.124,36.48 11.4293333,36.7853333 11.4293333,37.1586667 C11.412,37.532 11.1066667,37.8373333 10.7506667,37.8373333 Z M10.7506667,31.796 L3.40266667,31.796 C3.02933333,31.796 2.724,31.4906667 2.724,31.1173333 C2.724,30.7266667 3.02933333,30.4386667 3.40266667,30.4386667 L10.7506667,30.4386667 C11.124,30.4386667 11.4293333,30.744 11.4293333,31.1173333 C11.4293333,31.4906667 11.124,31.796 10.7506667,31.796 Z M15.74,28.7746667 L3.40266667,28.7746667 C3.02933333,28.7746667 2.724,28.4693333 2.724,28.096 C2.724,27.7053333 3.02933333,27.4173333 3.40266667,27.4173333 L15.74,27.4173333 C16.1133333,27.4173333 16.4186667,27.7226667 16.4186667,28.096 C16.4186667,28.4693333 16.1133333,28.7746667 15.74,28.7746667 Z" id="Shape" fill="#BAE6E8"></path>
                                    <path d="M19.2013333,18.6946667 L12.2773333,18.6946667 C12.0226667,18.6946667 11.8026667,18.5413333 11.684,18.3386667 L9.12133333,18.3386667 L9.12133333,22.276 L21.408,22.276 C20.1693333,22.276 19.168,23.2946667 19.1173333,24.516 L19.1173333,26.332 L19.1346667,26.332 L19.1346667,39.9586667 C19.1346667,39.9586667 19.152,39.9586667 19.152,39.9413333 L19.152,24.5493333 C19.152,23.2933333 20.1706667,22.292 21.392,22.3093333 C22.648,22.292 23.6493333,23.3106667 23.6493333,24.5493333 L23.6493333,36.5986667 C26.1613333,33.968 27.8066667,30.5066667 28.164,26.6533333 L28.164,23.5813333 C28.164,21.6973333 28.164,20.052 28.164,18.32 L19.78,18.32 C19.6933333,18.5413333 19.4733333,18.6946667 19.2013333,18.6946667 Z" id="Path" fill="url(#linearGradient-2)"></path>
                                    <g transform="translate(2.666667, 5.333333)" fill="#5AC4C4" id="Path">
                                        <path d="M9.61066667,13.3613333 L16.552,13.3613333 C16.8066667,13.3613333 17.0266667,13.208 17.1453333,13.0053333 C17.196,12.904 17.2306667,12.8013333 17.2306667,12.7 C17.2306667,12.3266667 16.9253333,12.0213333 16.552,12.0213333 L9.61066667,12.0213333 C9.23733333,12.0213333 8.932,12.3266667 8.932,12.7 C8.932,12.8186667 8.96533333,12.92 9.01733333,13.0053333 C9.11866667,13.208 9.34,13.3613333 9.61066667,13.3613333 Z"></path>
                                        <path d="M0.736,23.4253333 L13.0733333,23.4253333 C13.4466667,23.4253333 13.752,23.12 13.752,22.7466667 C13.752,22.3733333 13.4466667,22.068 13.0733333,22.068 L0.736,22.068 C0.362666667,22.068 0.0573290019,22.3733333 0.0573290019,22.7466667 C0.056,23.1186667 0.362666667,23.4253333 0.736,23.4253333 Z"></path>
                                        <path d="M0.736,26.4453333 L8.084,26.4453333 C8.45733333,26.4453333 8.76266667,26.14 8.76266667,25.7666667 C8.76266667,25.3933333 8.45733333,25.088 8.084,25.088 L0.736,25.088 C0.362666667,25.088 0.0573333333,25.3933333 0.0573333333,25.7666667 C0.0573333333,26.14 0.362666667,26.4453333 0.736,26.4453333 Z"></path>
                                        <path d="M8.74533333,31.8253333 C8.74533333,31.452 8.44,31.1466667 8.06666667,31.1466667 L0.718666667,31.1466667 C0.345333333,31.1466667 0.04,31.452 0.04,31.8253333 C0.04,32.1986667 0.345333333,32.504 0.718666667,32.504 L8.084,32.504 C8.44,32.504 8.74533333,32.1986667 8.74533333,31.8253333 Z"></path>
                                        <path d="M7.676,35.5413333 C8.04933333,35.5413333 8.35466667,35.236 8.35466667,34.8626667 C8.35466667,34.4893333 8.04933333,34.184 7.676,34.184 L0.718666667,34.184 C0.701333333,34.184 0.685333333,34.184 0.685333333,34.184 C1.61866667,34.7266667 2.62,35.168 3.65466667,35.524 L7.676,35.524 L7.676,35.5413333 Z"></path>
                                        <path d="M9.61066667,0.04 L21.948,0.04 C22.3213333,0.04 22.6266667,0.345333333 22.6266667,0.718666667 C22.6266667,1.092 22.3213333,1.39733333 21.948,1.39733333 L9.61066667,1.39733333 C9.23733333,1.39733333 8.932,1.092 8.932,0.718666667 C8.932,0.345333333 9.23733333,0.04 9.61066667,0.04 Z"></path>
                                        <path d="M9.61066667,2.992 L21.948,2.992 C22.3213333,2.992 22.6266667,3.29733333 22.6266667,3.67066667 C22.6266667,4.044 22.3213333,4.34933333 21.948,4.34933333 L9.61066667,4.34933333 C9.23733333,4.34933333 8.932,4.044 8.932,3.67066667 C8.932,3.29733333 9.23733333,2.992 9.61066667,2.992 Z"></path>
                                        <path d="M9.61066667,5.996 L21.948,5.996 C22.3213333,5.996 22.6266667,6.30133333 22.6266667,6.67466667 C22.6266667,7.048 22.3213333,7.35333333 21.948,7.35333333 L9.61066667,7.35333333 C9.23733333,7.35333333 8.932,7.048 8.932,6.67466667 C8.932,6.30133333 9.23733333,5.996 9.61066667,5.996 Z"></path>
                                        <path d="M9.61066667,9.03333333 L21.948,9.03333333 C22.3213333,9.03333333 22.6266667,9.33866667 22.6266667,9.712 C22.6266667,10.0853333 22.3213333,10.3906667 21.948,10.3906667 L9.61066667,10.3906667 C9.23733333,10.3906667 8.932,10.0853333 8.932,9.712 C8.932,9.33866667 9.23733333,9.03333333 9.61066667,9.03333333 Z"></path>
                                    </g>
                                </g>
                            </g>
                        </g>
                    </g>
                </g>
            </g>
        </g>
    </g>
</svg>