<?xml version="1.0" encoding="UTF-8"?>
<svg width="64px" height="64px" viewBox="0 0 64 64" version="1.1" xmlns="http://www.w3.org/2000/svg" xmlns:xlink="http://www.w3.org/1999/xlink">
    <!-- Generator: Sketch 64 (93537) - https://sketch.com -->
    <title>🖼 Microillustration</title>
    <desc>Created with Sketch.</desc>
    <defs>
        <linearGradient x1="19.011064%" y1="12.0921385%" x2="71.5558107%" y2="100.961128%" id="linearGradient-1">
            <stop stop-color="#192647" stop-opacity="0.5" offset="0%"></stop>
            <stop stop-color="#192647" stop-opacity="0" offset="100%"></stop>
        </linearGradient>
        <linearGradient x1="99.9997093%" y1="50.0004694%" x2="0.001254293%" y2="50.0004694%" id="linearGradient-2">
            <stop stop-color="#028484" stop-opacity="0.4" offset="0%"></stop>
            <stop stop-color="#028484" stop-opacity="0.1" offset="100%"></stop>
        </linearGradient>
        <linearGradient x1="100.000037%" y1="50.000663%" x2="-0.00103142152%" y2="50.000663%" id="linearGradient-3">
            <stop stop-color="#043263" stop-opacity="0.4" offset="0%"></stop>
            <stop stop-color="#043263" stop-opacity="0.1" offset="100%"></stop>
        </linearGradient>
    </defs>
    <g id="Page-1" stroke="none" stroke-width="1" fill="none" fill-rule="evenodd">
        <g id="compra_utilizando-puntos" transform="translate(-16.000000, -18.000000)">
            <rect id="Rectangle" fill="#FFFFFF" x="0" y="2" width="320" height="200"></rect>
            <g id="Objects/Shopping-bag" transform="translate(16.000000, 18.000000)">
                <g id="Shopping-Bag">
                    <g id="Cuadrados_Blancos">
                        <rect id="Rectangle" x="0" y="0" width="64" height="64"></rect>
                    </g>
                    <g id="Capa_75" transform="translate(5.333333, 7.573333)" fill-rule="nonzero">
                        <g id="Group">
                            <path d="M58.6421333,30.2933333 C58.5941333,30.1770667 58.48,30.1013333 58.3541333,30.1024 L52.3658667,30.1024 L52.3658667,26.1461333 L50.2826667,24.0629333 L45.8112,24.0629333 L45.8112,18.5536 C45.8112,18.2976 45.6042667,18.0906667 45.3482667,18.0906667 L36.4821333,18.0906667 L36.4821333,12.2314667 L33.3984,9.14773333 L19.9829333,9.14773333 L16.8992,12.2314667 L16.8992,18.0906667 L8.03306667,18.0906667 C7.77706667,18.0906667 7.57013333,18.2976 7.57013333,18.5536 L7.57013333,50.2752 C7.57013333,50.4010667 7.62026667,50.5205333 7.71093333,50.608 L12.2144,54.9674667 C12.3008,55.0506667 12.416,55.0976 12.5365333,55.0965511 L55.3045333,55.0965511 C55.3856,55.0965511 55.4634667,55.0656 55.5221333,55.0090667 L58.4714667,52.1674667 L58.5706667,52.0714667 L58.5706667,52.0714667 C58.6325333,52.0128 58.6666667,51.9317333 58.6666667,51.8464 L58.6666667,30.4149333 C58.6666667,30.3733333 58.6581333,30.3317333 58.6421333,30.2933333 Z M19.9850667,12.2314667 L33.3994667,12.2314667 L33.3994667,18.0906667 L19.9850667,18.0906667 L19.9850667,12.2314667 Z M50.2837333,26.1450667 L50.2837333,30.1013333 L45.8122667,30.1013333 L45.8122667,26.1450667 L50.2837333,26.1450667 Z" id="Shape" fill="url(#linearGradient-1)"></path>
                            <path d="M47.7386667,45.9989333 L28.6197333,45.9989333 C28.5386667,45.9989333 28.4608,45.968 28.4021333,45.9114667 L25.3610667,42.9674667 C25.2992,42.9088 25.2650667,42.8277333 25.2650667,42.7424 L25.2650667,21.3173333 C25.2650667,21.1466667 25.4026667,21.0090667 25.5733333,21.0090667 L50.7808,21.0090667 C50.9514667,21.0090667 51.0890667,21.1466667 51.0890667,21.3173333 L51.0890667,42.7424 C51.0890667,42.8277333 51.0549333,42.9088 50.9930667,42.9674667 L47.9509333,45.9114667 C47.8954667,45.9669333 47.8186667,45.9989333 47.7386667,45.9989333 Z" id="Path" fill="#2DCCCD"></path>
                            <rect id="Rectangle" fill="#1464A5" x="31.5658667" y="17.0485333" width="2.0832" height="3.9584"></rect>
                            <polygon id="Path" fill="#043263" points="44.7925333 17.0485333 44.7925333 17.0485333 42.7093333 14.9653333 33.6490667 14.9653333 31.5594667 17.0485333 44.7861333 17.0485333"></polygon>
                            <rect id="Rectangle" fill="#1464A5" x="42.7093333" y="17.0485333" width="2.0832" height="3.9584"></rect>
                            <path d="M50.7808,21.0048 L44.8202667,21.0048 L31.5349333,45.9989333 L47.7386667,45.9989333 C47.8197333,45.9989333 47.8976,45.968 47.9562667,45.9114667 L50.9984,42.9674667 C51.0602667,42.9088 51.0944249,42.8277333 51.0944249,42.7424 L51.0944249,21.3173333 C51.0965333,21.1466667 50.9610667,21.0069333 50.7904,21.0048 C50.7872,21.0048 50.784,21.0048 50.7808,21.0048 Z" id="Path" fill="url(#linearGradient-2)"></path>
                            <path d="M33.2714667,45.9989511 L4.9664,45.9989511 C4.84586667,45.9989511 4.73066667,45.9530667 4.64426667,45.8698667 L0.1408,41.5104 C0.0512,41.4229333 7.57912251e-16,41.3024 7.57912251e-16,41.1776 L7.57912251e-16,9.456 C7.57912251e-16,9.2 0.206933333,8.99306667 0.462933333,8.99306667 L37.7770667,8.99306667 C38.0330667,8.99306667 38.24,9.2 38.24,9.456 L38.24,41.1776 C38.24,41.3034667 38.1898667,41.4229333 38.0992,41.5104 L33.5957333,45.8698667 C33.5082667,45.9530667 33.392,46 33.2714667,45.9989511 Z" id="Path" fill="#1464A5"></path>
                            <rect id="Rectangle" fill="#2DCCCD" x="9.32906667" y="3.13386667" width="3.08373333" height="5.8592"></rect>
                            <polygon id="Path" fill="#028484" points="28.9109333 3.13386667 28.9109333 3.13386667 25.8272 0.0501333333 12.4128 0.0501333333 9.32906667 3.13386667"></polygon>
                            <rect id="Rectangle" fill="#2DCCCD" x="25.8272" y="3.13386667" width="3.08373333" height="5.8592"></rect>
                            <path d="M37.7770667,8.99306667 L28.9568,8.99306667 L9.28106667,45.9989333 L33.2714667,45.9989333 C33.392,45.9989333 33.5072,45.9530667 33.5936,45.8698667 L38.0970667,41.5104 C38.1866667,41.4229333 38.2378667,41.3024 38.2378667,41.1776 L38.2378667,9.456 C38.2378667,9.20106667 38.032,8.99413333 37.7770667,8.99306667 Z" id="Path" fill="url(#linearGradient-3)"></path>
                        </g>
                    </g>
                </g>
            </g>
        </g>
    </g>
</svg>