<?xml version="1.0" encoding="UTF-8"?>
<svg width="64px" height="66px" viewBox="0 0 64 66" version="1.1" xmlns="http://www.w3.org/2000/svg" xmlns:xlink="http://www.w3.org/1999/xlink">
    <!-- Generator: Sketch 64 (93537) - https://sketch.com -->
    <title>🖼 Microillustration</title>
    <desc>Created with Sketch.</desc>
    <defs>
        <linearGradient x1="33.9867987%" y1="37.9604858%" x2="65.9962282%" y2="62.0436636%" id="linearGradient-1">
            <stop stop-color="#192647" stop-opacity="0.5" offset="0%"></stop>
            <stop stop-color="#192647" stop-opacity="0" offset="100%"></stop>
        </linearGradient>
        <linearGradient x1="33.9853843%" y1="37.9605802%" x2="65.994578%" y2="62.0435693%" id="linearGradient-2">
            <stop stop-color="#192647" stop-opacity="0.5" offset="0%"></stop>
            <stop stop-color="#192647" stop-opacity="0" offset="100%"></stop>
        </linearGradient>
        <linearGradient x1="41.3431596%" y1="8.95290795%" x2="58.6550895%" y2="91.0056282%" id="linearGradient-3">
            <stop stop-color="#192647" stop-opacity="0.5" offset="0%"></stop>
            <stop stop-color="#192647" stop-opacity="0" offset="100%"></stop>
        </linearGradient>
        <linearGradient x1="39.2292159%" y1="34.5453978%" x2="60.7169405%" y2="65.3311216%" id="linearGradient-4">
            <stop stop-color="#192647" stop-opacity="0.5" offset="0%"></stop>
            <stop stop-color="#192647" stop-opacity="0" offset="100%"></stop>
        </linearGradient>
        <linearGradient x1="39.1616927%" y1="34.4623328%" x2="60.7874095%" y2="65.4918656%" id="linearGradient-5">
            <stop stop-color="#192647" stop-opacity="0.5" offset="0%"></stop>
            <stop stop-color="#192647" stop-opacity="0" offset="100%"></stop>
        </linearGradient>
        <linearGradient x1="30.625137%" y1="2.03883843%" x2="69.3970274%" y2="97.9117649%" id="linearGradient-6">
            <stop stop-color="#192647" stop-opacity="0.5" offset="0%"></stop>
            <stop stop-color="#192647" stop-opacity="0" offset="100%"></stop>
        </linearGradient>
        <linearGradient x1="35.9915034%" y1="15.4673769%" x2="64.0033767%" y2="84.5234229%" id="linearGradient-7">
            <stop stop-color="#192647" stop-opacity="0.5" offset="0%"></stop>
            <stop stop-color="#192647" stop-opacity="0" offset="100%"></stop>
        </linearGradient>
        <linearGradient x1="26.7918457%" y1="16.6578696%" x2="73.1931566%" y2="83.2262609%" id="linearGradient-8">
            <stop stop-color="#192647" stop-opacity="0.5" offset="0%"></stop>
            <stop stop-color="#192647" stop-opacity="0" offset="100%"></stop>
        </linearGradient>
        <linearGradient x1="26.8297534%" y1="16.7550197%" x2="73.2001335%" y2="83.1700893%" id="linearGradient-9">
            <stop stop-color="#192647" stop-opacity="0.5" offset="0%"></stop>
            <stop stop-color="#192647" stop-opacity="0" offset="100%"></stop>
        </linearGradient>
        <linearGradient x1="30.1703606%" y1="-18.8945461%" x2="66.8112979%" y2="96.1561386%" id="linearGradient-10">
            <stop stop-color="#192647" stop-opacity="0.5" offset="0%"></stop>
            <stop stop-color="#192647" stop-opacity="0" offset="100%"></stop>
        </linearGradient>
        <linearGradient x1="10.4293186%" y1="-47.9134321%" x2="526.182891%" y2="1228.21696%" id="linearGradient-11">
            <stop stop-color="#192647" offset="0%"></stop>
            <stop stop-color="#192647" stop-opacity="0.5" offset="0%"></stop>
            <stop stop-color="#192647" stop-opacity="0" offset="100%"></stop>
        </linearGradient>
        <linearGradient x1="-20.7715735%" y1="-50.9646332%" x2="628.186477%" y2="875.329229%" id="linearGradient-12">
            <stop stop-color="#192647" offset="0%"></stop>
            <stop stop-color="#192647" stop-opacity="0.5" offset="0%"></stop>
            <stop stop-color="#192647" stop-opacity="0" offset="100%"></stop>
        </linearGradient>
        <linearGradient x1="100.005231%" y1="50.0022999%" x2="0.00256191289%" y2="50.0022999%" id="linearGradient-13">
            <stop stop-color="#028484" stop-opacity="0.3" offset="0%"></stop>
            <stop stop-color="#028484" stop-opacity="0.1" offset="100%"></stop>
        </linearGradient>
        <linearGradient x1="28.1322498%" y1="30.4297639%" x2="57.5976601%" y2="51.7338815%" id="linearGradient-14">
            <stop stop-color="#FFFFFF" stop-opacity="0.6" offset="0%"></stop>
            <stop stop-color="#FFFFFF" stop-opacity="0.15" offset="100%"></stop>
        </linearGradient>
    </defs>
    <g id="Page-1" stroke="none" stroke-width="1" fill="none" fill-rule="evenodd">
        <g id="gana_-puntos" transform="translate(-16.000000, -16.000000)">
            <g id="🖼-Microillustration" transform="translate(16.000000, 16.000000)">
                <g id="Idea">
                    <g id="Cuadrados_Blancos">
                        <rect id="Rectangle" x="0" y="0" width="64" height="64"></rect>
                    </g>
                    <g id="Capa_49" transform="translate(4.586667, 0.853333)" fill-rule="nonzero">
                        <g id="Group">
                            <g transform="translate(6.080000, 4.586667)" id="Path">
                                <path d="M4.6272,25.9594667 C4.6272,25.4592 4.22293333,25.0538667 3.72266667,25.0538667 L1.008,25.0538667 C1.008,25.0538667 1.00693333,25.0538667 1.00693333,25.0538667 C0.506666667,25.0538667 0.1024,25.4602667 0.1024,25.9594667 C0.1024,26.4597333 0.5088,26.864 1.008,26.864 L3.72266667,26.864 C4.22186667,26.864 4.62613333,26.4597333 4.6272,25.9594667 Z" fill="url(#linearGradient-1)"></path>
                                <path d="M51.0016,25.0538667 L48.2869333,25.0538667 C48.2869333,25.0538667 48.2858667,25.0538667 48.2858667,25.0538667 C47.7856,25.0538667 47.3813333,25.4602667 47.3813333,25.9594667 C47.3813333,26.4597333 47.7877333,26.864 48.2869333,26.864 L51.0016,26.864 C51.5008,26.864 51.9061333,26.4586667 51.9061333,25.9594667 C51.9061333,25.4602667 51.5008,25.0538667 51.0016,25.0538667 Z" fill="url(#linearGradient-2)"></path>
                                <path d="M25.9669333,0.0213333333 C25.4677333,0.0416 25.0794667,0.464 25.0997333,0.9632 L25.0997333,3.67786667 L25.0997333,3.67786667 C25.0997333,4.17813333 25.5050667,4.58346667 26.0053333,4.58346667 C26.0053333,4.58346667 26.0064,4.58346667 26.0064,4.58346667 C26.5056,4.5824 26.9098667,4.17706667 26.9088,3.67786667 L26.9088,0.962133333 C26.9098667,0.9376 26.9098667,0.912 26.9088,0.887466667 C26.8874667,0.388266667 26.4661333,3.46944695e-18 25.9669333,0.0213333333 Z" fill="url(#linearGradient-3)"></path>
                                <path d="M6.26026667,36.3178667 L3.8976,37.68 C3.62666667,37.8421333 3.4592,38.1344 3.4570477,38.4512 C3.45386667,38.9514667 3.856,39.3589333 4.35626667,39.3621333 C4.51626667,39.3610667 4.672,39.3173333 4.80853333,39.2352 L7.1648,37.8848 C7.5776,37.6330667 7.72053333,37.1018667 7.488,36.6773333 C7.24906667,36.2389333 6.69973333,36.0778667 6.26026667,36.3178667 Z" fill="url(#linearGradient-4)"></path>
                                <path d="M45.3024,15.7237333 C45.4581333,15.7237333 45.6117333,15.6842667 45.7472,15.6074667 L48.0992,14.2506667 C48.512,13.9989333 48.6549333,13.4677333 48.4224,13.0432 C48.1824,12.6048 47.632,12.4437333 47.1936,12.6837333 L44.8437333,14.0416 C44.5728,14.2037333 44.4053333,14.496 44.403181,14.8128 C44.4,15.312 44.8021333,15.7194667 45.3024,15.7237333 Z" fill="url(#linearGradient-5)"></path>
                                <path d="M14.2901333,3.8528 C14.0384,3.44 13.5072,3.29706667 13.0826667,3.5296 C12.6442667,3.7696 12.4832,4.32 12.7221333,4.7584 L14.0789333,7.10826667 C14.2389333,7.39093333 14.5386667,7.56586667 14.8629333,7.56693333 C15.0218667,7.56586667 15.1776,7.5232 15.3152,7.4432 C15.3152,7.4432 15.3152,7.4432 15.3152,7.4432 C15.7482667,7.19253333 15.8954667,6.63893333 15.6448,6.20586667 L14.2901333,3.8528 Z" fill="url(#linearGradient-6)"></path>
                                <path d="M38.9738667,3.584 C38.5525333,3.31413333 37.9925333,3.43786667 37.7237333,3.8592 L36.3658667,6.20906667 C36.2869333,6.34666667 36.2442646,6.5024 36.2442646,6.66026667 C36.2432,7.16053333 36.6485333,7.56586667 37.1488,7.56693333 C37.472,7.56693333 37.7706667,7.39413333 37.9317333,7.11466667 L39.2896,4.7648 C39.5061333,4.3488 39.3685333,3.8368 38.9738667,3.584 Z" fill="url(#linearGradient-7)"></path>
                                <path d="M3.904,14.2442667 L6.25386667,15.6010667 C6.3904,15.6810667 6.54613333,15.7226667 6.70506667,15.7237333 L6.7008,15.7173333 C7.0176,15.7152 7.3088,15.5477333 7.472,15.2768 C7.72906667,14.848 7.58933333,14.2922667 7.15946667,14.0352 L4.8096,12.6773333 C4.79786667,12.6698667 4.78506667,12.6624 4.77333333,12.656 C4.33493333,12.416 3.78453333,12.5770667 3.54453333,13.0154667 C3.30453333,13.4549333 3.4656,14.0042667 3.904,14.2442667 Z" fill="url(#linearGradient-8)"></path>
                                <path d="M48.1045333,37.6736 L45.7525333,36.3168 C45.7333333,36.3050667 45.7141333,36.2933333 45.6938667,36.2826667 C45.2522667,36.0490667 44.704,36.2186667 44.4704,36.6602667 C44.2368,37.1029333 44.4064,37.6501333 44.848,37.8837333 L47.1978667,39.2405333 C47.3344,39.3194667 47.4901333,39.3621333 47.6490667,39.3610862 L47.6448,39.3546667 C47.9605333,39.3525333 48.2528,39.1850667 48.416,38.9141333 C48.6741333,38.4864 48.5344,37.9306667 48.1045333,37.6736 Z" fill="url(#linearGradient-9)"></path>
                            </g>
                            <path d="M33.8816,15.5882667 C33.7792,15.5744 33.6768,15.5605333 33.5754667,15.5498667 L33.2693333,15.5146667 C33.0922667,15.4976 32.9130667,15.4858667 32.7338667,15.4752 L32.5472,15.4656 C32.3349333,15.456 32.1216,15.4485191 31.9061333,15.4485191 C28.1205333,15.4432 24.4874667,16.9418667 21.8058667,19.6149333 C21.6437333,19.7749333 21.4858667,19.9392 21.3333333,20.1088 C18.9429333,22.7189333 17.6181333,26.1322667 17.6223897,29.6714667 L17.6223897,29.6714667 C17.6223897,29.904 17.6288,30.1344 17.6405333,30.3637333 C17.6405333,30.3925333 17.6405333,30.4202667 17.6405333,30.4490667 C17.6522667,30.6677333 17.6693333,30.8853333 17.6928,31.1008 C17.6928,31.1370667 17.6928,31.1722667 17.7034667,31.2096 C17.7269333,31.424 17.7536,31.6373333 17.7877333,31.8485333 L17.8016,31.9402667 C17.8368,32.1589333 17.8762667,32.3776 17.9221333,32.5930667 C17.9221333,32.6037333 17.9221333,32.6144 17.9296,32.6272 C18.0256,33.0805333 18.144,33.5285333 18.2858667,33.9701333 C18.2858667,33.984 18.2933333,33.9978667 18.2976,34.0096 C18.368,34.2250667 18.4416,34.4394667 18.5205333,34.6506667 C18.5205333,34.6624 18.5312,34.6752 18.5354667,34.6890667 C18.6165333,34.9045333 18.704,35.1168 18.7957333,35.3269333 L18.7957333,35.3269333 C19.7333333,37.4666667 21.1818667,39.3429333 23.0144,40.7925333 C25.44,42.7136 25.44,46.3445333 25.44,48.2485333 L25.44,49.2437333 L25.44,49.2437333 L25.44,51.5285333 L25.3024,51.5285333 C25.0026667,51.5285333 24.7594667,51.7717333 24.7594667,52.0714667 L24.7594667,52.5909333 C24.7594667,52.8906667 25.0026667,53.1338667 25.3024,53.1338667 L25.44,53.1338667 L25.44,54.9429333 L25.3024,54.9429333 C25.0026667,54.9429333 24.7594667,55.1861333 24.7594667,55.4858667 L24.7594667,56.0053333 C24.7594667,56.3050667 25.0026667,56.5482667 25.3024,56.5482667 L25.44,56.5482667 L25.44,58.3573333 L25.3024,58.3573333 C25.0026667,58.3573333 24.7594667,58.6005333 24.7594667,58.9002667 L24.7594667,59.4186667 C24.7594667,59.7184 25.0026667,59.9616 25.3024,59.9616 L25.4890667,59.9616 C25.7162667,61.4933333 26.8629333,62.7274667 28.3744,63.0656 L28.3744,63.0656 L28.3882667,63.0656 L28.5034667,63.0869333 C28.5962667,63.1050667 28.6901333,63.1189333 28.7850667,63.1296 L28.8490667,63.1296 C28.9610667,63.1402667 29.072,63.1466667 29.1872,63.1466667 L34.6282667,63.1466667 C36.4832,63.1456 38.0565333,61.7856 38.3253333,59.9509333 L38.5066667,59.9509333 C38.8064,59.9509333 39.0496,59.7077333 39.0496,59.408 L39.0496,58.8885333 C39.0496,58.5888 38.8064,58.3456 38.5066667,58.3456 L38.3701333,58.3456 L38.3701333,56.5493333 L38.5066667,56.5493333 C38.8064,56.5493333 39.0496,56.3061333 39.0496,56.0064 L39.0496,55.4869333 C39.0496,55.1872 38.8064,54.944 38.5066667,54.944 L38.3701333,54.944 L38.3701333,53.1349333 L38.5066667,53.1349333 C38.8064,53.1349333 39.0496,52.8917333 39.0496,52.592 L39.0496,52.08 C39.0496,51.7802667 38.8064,51.5370667 38.5066667,51.5370667 L38.3701333,51.5370667 L38.3701333,49.2469333 L38.3701333,49.2469333 L38.3701333,48.2570667 C38.3701333,46.3530667 38.7093333,42.6314667 40.7957333,40.8010667 C43.9477333,38.0362667 46.192,34.1877333 46.192,29.68 C46.1877333,22.4853333 40.8330667,16.5472 33.8816,15.5882667 Z" id="Path" fill="url(#linearGradient-10)"></path>
                            <path d="M23.0645333,16.1610667 C23.3141333,16.5930667 23.8677333,16.7413333 24.2997333,16.4917333 C24.7317333,16.2421333 24.88,15.6885333 24.6304,15.2565333 L23.2736,12.9066667 C23.04,12.4650667 22.4928,12.2954667 22.0501333,12.5290667 C21.6085333,12.7626667 21.4389333,13.3098667 21.6725333,13.7525333 C21.6832,13.7728 21.6938667,13.792 21.7066667,13.8112 L23.0645333,16.1610667 Z" id="Path" fill="url(#linearGradient-11)"></path>
                            <path d="M16.144,23.0805333 L13.7941333,21.7237333 C13.3621333,21.4741333 12.8085333,21.6213333 12.5589333,22.0544 C12.3093333,22.4864 12.4565333,23.04 12.8896,23.2896 L12.8896,23.2896 L15.248,24.6474667 C15.6746667,24.9077333 16.2314667,24.7722667 16.4917333,24.3456 C16.752,23.9189333 16.6165333,23.3621333 16.1898667,23.1018667 C16.1781333,23.0944 16.1653333,23.0869333 16.1536,23.0805333 L16.144,23.0805333 Z" id="Path" fill="url(#linearGradient-12)"></path>
                            <path d="M28.6581333,58.6997333 L23.2256,58.6997333 C21.1573333,58.6997333 19.4805333,57.0229333 19.4805333,54.9546667 L19.4805333,44.7861333 L32.4032,44.7861333 L32.4032,54.9546667 C32.4021333,57.0229333 30.7264,58.6997333 28.6581333,58.6997333 L28.6581333,58.6997333 Z" id="Path" fill="#2DCCCD"></path>
                            <path d="M22.4096,58.608 C22.6752,58.6677333 22.9472,58.6986667 23.2202667,58.6997333 L28.6624,58.6997333 C30.7285333,58.6986667 32.4021333,57.024 32.4021333,54.9578667 L32.4021333,44.7861333 L29.2309333,44.7861333 L22.4096,58.608 Z" id="Path" fill="url(#linearGradient-13)"></path>
                            <path d="M19.3429333,47.0677333 L32.5408,47.0677333 C32.8405333,47.0677333 33.0837333,47.3109333 33.0837333,47.6106667 L33.0837333,48.1301333 C33.0837333,48.4298667 32.8405333,48.6730667 32.5408,48.6730667 L19.3429333,48.6730667 C19.0432,48.6730667 18.8,48.4298667 18.8,48.1301333 L18.8,47.6106667 C18.8,47.3109333 19.0421333,47.0677333 19.3429333,47.0677333 Z" id="Path" fill="#004481"></path>
                            <path d="M19.3429333,50.4842667 L32.5408,50.4842667 C32.8405333,50.4842667 33.0837333,50.7274667 33.0837333,51.0272 L33.0837333,51.5466667 C33.0837333,51.8464 32.8405333,52.0896 32.5408,52.0896 L19.3429333,52.0896 C19.0432,52.0896 18.8,51.8464 18.8,51.5466667 L18.8,51.0272 C18.8,50.7274667 19.0421333,50.4842667 19.3429333,50.4842667 Z" id="Path" fill="#004481"></path>
                            <path d="M19.3429333,53.8986667 L32.5408,53.8986667 C32.8405333,53.8986667 33.0837333,54.1418667 33.0837333,54.4416 L33.0837333,54.9610667 C33.0837333,55.2608 32.8405333,55.504 32.5408,55.504 L19.3429333,55.504 C19.0432,55.504 18.8,55.2608 18.8,54.9610667 L18.8,54.4416 C18.8,54.1418667 19.0421333,53.8986667 19.3429333,53.8986667 Z" id="Path" fill="#004481"></path>
                            <path d="M25.9498667,10.9898667 C18.0608,10.9898667 11.6661316,17.3568 11.6661316,25.2106667 C11.664,29.5466667 13.6490667,33.6437333 17.0528,36.3285333 C19.4794667,38.2474667 19.4794667,41.8794667 19.4794667,43.7834667 L19.4794667,44.7808 L32.4021333,44.7808 L32.4021333,43.7834667 C32.4021333,41.8794667 32.7434667,38.1578667 34.8288,36.3285333 C37.9808,33.5626667 40.2250667,29.7130667 40.2250667,25.2053333 C40.2261333,17.3568 33.8304,10.9898667 25.9498667,10.9898667 Z" id="Path" fill="#F8CD50"></path>
                            <path d="M25.9498667,10.9898615 C18.0608,10.9898615 11.6661285,17.3568 11.6661285,25.2106667 C11.6629333,29.0773333 13.2458667,32.7754667 16.0437333,35.4432 L29.6533333,11.4794667 C28.4458667,11.1530667 27.2,10.9888 25.9498667,10.9898615 Z" id="Path" fill="url(#linearGradient-14)"></path>
                            <path d="M3.68533333,26.864 L0.971733333,26.864 C0.471466667,26.864 0.0661333333,26.4597333 0.0661333333,25.9594667 C0.0661333333,25.4592 0.4704,25.0538667 0.970666667,25.0538667 C0.970666667,25.0538667 0.971733333,25.0538667 0.971733333,25.0538667 L3.6864,25.0538667 C4.18666667,25.0538667 4.59093333,25.4602667 4.59093333,25.9594667 C4.58986667,26.4586667 4.1856,26.8629333 3.68533333,26.864 Z" id="Path" fill="#F8CD50"></path>
                            <path d="M50.9642667,26.864 L48.2496,26.864 C47.7493333,26.864 47.344,26.4597333 47.344,25.9594667 C47.344,25.4592 47.7482667,25.0538667 48.2485333,25.0538667 C48.2485333,25.0538667 48.2496,25.0538667 48.2496,25.0538667 L50.9642667,25.0538667 C51.4645333,25.0538667 51.8688,25.4602667 51.8688,25.9594667 C51.8688,26.4586667 51.4645333,26.8629333 50.9642667,26.864 Z" id="Path" fill="#F8CD50"></path>
                            <path d="M25.968,4.58133333 C25.4677333,4.58133333 25.0624,4.176 25.0624,3.67573333 L25.0624,3.67573333 L25.0624,0.962133333 C25.0421333,0.462933333 25.4304,0.0405333333 25.9296,0.0202666667 C26.4288,-9.71445147e-17 26.8512,0.388266667 26.8714667,0.887466667 C26.8725333,0.912 26.8725333,0.9376 26.8714667,0.962133333 L26.8714667,3.6768 C26.8725333,4.176 26.4682667,4.58133333 25.9690667,4.5824 C25.9690667,4.58133333 25.9690667,4.58133333 25.968,4.58133333 Z" id="Path" fill="#F8CD50"></path>
                            <path d="M4.32,39.3610667 C3.81973333,39.3578667 3.4176,38.9493333 3.42078103,38.4501333 C3.42293333,38.1344 3.5904,37.8421333 3.86133333,37.6789333 L6.224,36.3168 C6.6624,36.0768 7.2128,36.2378667 7.4528,36.6762667 C7.68426667,37.1008 7.5424,37.632 7.1296,37.8837333 L4.77333333,39.2341333 C4.63573333,39.3162667 4.48,39.36 4.32,39.3610667 Z" id="Path" fill="#F8CD50"></path>
                            <path d="M45.2661333,15.7226667 C44.7658667,15.7194667 44.3637333,15.3109333 44.3669144,14.8117333 C44.3690667,14.496 44.5365333,14.2037333 44.8074667,14.0405333 L47.1573333,12.6826667 C47.5957333,12.4426667 48.1461333,12.6037333 48.3861333,13.0421333 C48.6176,13.4666667 48.4757333,13.9978667 48.0629333,14.2496 L45.7109333,15.6064 C45.5744,15.6832 45.4218667,15.7226667 45.2661333,15.7226667 Z" id="Path" fill="#F8CD50"></path>
                            <path d="M14.8266667,7.56586667 C14.5013333,7.5648 14.2026667,7.38986667 14.0426667,7.1072 L12.6858667,4.75733333 C12.4458667,4.31893333 12.6069333,3.76853333 13.0453333,3.52853333 C13.4698667,3.29706667 14.0010667,3.43893333 14.2528,3.85173333 L15.6096,6.2048 C15.8602667,6.63786667 15.712,7.19146667 15.28,7.44213333 C15.28,7.44213333 15.28,7.44213333 15.28,7.44213333 C15.1424,7.52213333 14.9856,7.5648 14.8266667,7.56586667 Z" id="Path" fill="#F8CD50"></path>
                            <path d="M37.1125333,7.56587158 C36.6122667,7.5648 36.208,7.15946667 36.208,6.6592 C36.208,6.50026667 36.2496,6.34453333 36.3296,6.208 L37.6874667,3.85813333 C37.9573333,3.4368 38.5162667,3.31413333 38.9376,3.58293333 C39.3322667,3.83573333 39.4688,4.34773333 39.2533333,4.76266667 L37.8954667,7.11253333 C37.7344,7.39413333 37.4357333,7.56693333 37.1125333,7.56587158 Z" id="Path" fill="#F8CD50"></path>
                            <path d="M6.6688,15.7226667 C6.50986667,15.7226667 6.35413333,15.68 6.2176,15.6 L3.86773333,14.2432 C3.42933333,14.0032 3.26826667,13.4528 3.50826667,13.0144 C3.74826667,12.576 4.29866667,12.4149333 4.73706667,12.6549333 C4.74986667,12.6613333 4.7616,12.6688 4.77333333,12.6762667 L7.1232,14.0341333 C7.552,14.2912 7.69173333,14.8469333 7.43573333,15.2757333 C7.2736,15.5466667 6.98133333,15.7141333 6.66453333,15.7162667 L6.6688,15.7226667 Z" id="Path" fill="#F8CD50"></path>
                            <path d="M47.6138667,39.3610667 C47.4549333,39.3610667 47.3002667,39.3194667 47.1626667,39.2405333 L44.8128,37.8837333 C44.3712,37.6501333 44.2016,37.1029333 44.4352,36.6602667 C44.6688,36.2186667 45.216,36.0490667 45.6586667,36.2826667 C45.6789333,36.2933333 45.6981333,36.304 45.7173333,36.3168 L48.0693333,37.6736 C48.4981333,37.9306667 48.6378667,38.4864 48.3818667,38.9152 C48.2197333,39.1861333 47.9274667,39.3536 47.6106667,39.3557333 L47.6138667,39.3610667 Z" id="Path" fill="#F8CD50"></path>
                        </g>
                    </g>
                </g>
            </g>
        </g>
    </g>
</svg>