<svg width="600" height="600" xmlns="http://www.w3.org/2000/svg"><defs><linearGradient x1="23.02%" y1="18.396%" x2="70.369%" y2="79.776%" id="a"><stop stop-color="#192647" offset="0%"/><stop stop-color="#192647" stop-opacity=".5" offset="0%"/><stop stop-color="#192647" stop-opacity="0" offset="100%"/></linearGradient><linearGradient x1="14.166%" y1="34.398%" x2="72.538%" y2="59.094%" id="b"><stop stop-color="#EAF9FA" offset="0%"/><stop stop-color="#EAF9FA" stop-opacity=".2" offset="100%"/><stop stop-color="#EAF9FA" stop-opacity=".5" offset="100%"/></linearGradient><linearGradient x1="26.561%" y1="29.673%" x2="60.915%" y2="53.076%" id="c"><stop stop-color="#FADE8E" offset="0%"/><stop stop-color="#FADE8E" stop-opacity=".4" offset="100%"/></linearGradient></defs><g fill="none" fill-rule="evenodd"><path d="M385.9 185.4c-.6-.3-1.3-.7-1.9-1l-.2-.1v-121c0-5.5-4.5-10-10-10h-315c-4.5 0-8.1 3.6-8.1 8.1v204.2c0 4.5 3.6 8.1 8.1 8.1h238.7l.5 1 .9 1.5c.2.3.3.6.5.9.4.7.9 1.4 1.3 2 .2.4.5.7.7 1 .2.3.6.8.9 1.2.3.4.5.7.8 1 .5.6.9 1.2 1.4 1.8.3.4.6.7.9 1l.8 1 1 1.1.9.9 1.8 1.8.8.8 1.2 1.1c.2.2.5.5.8.7.7.6 1.5 1.2 2.2 1.8l.7.5 1.4 1 .7.5c1 .7 1.9 1.3 2.9 1.9l.3.2 1.5.9.8.5c.5.3 1 .6 1.5.8 31.8 16.9 71.4 4.8 88.3-27 16.8-31.7 4.7-71.3-27.1-88.2z" fill="url(#a)" fill-rule="nonzero" transform="translate(115 173)"/><path d="M125.7 173.2h313.1c5.5 0 10 4.5 10 10v200.5c0 5.5-4.5 10-10 10H125.7c-5.5 0-10-4.5-10-10V183.2c0-5.5 4.4-10 10-10z" fill="#49A5E6" fill-rule="nonzero"/><path d="M8.8 220.7h160.9L277.9.2H8.9C4.4.2.798 3.8.798 8.3v204.2C.7 217.1 4.3 220.7 8.8 220.7z" fill="url(#b)" opacity=".5" transform="translate(115 173)"/><path fill="#D4EDFC" fill-rule="nonzero" d="M147.9 281.1h124.5v29.3H147.9zm-2.4 49.4h271.8v29.3H145.5z"/><path d="M253 207.7l-12 22.8c-.2.3-.6.5-1 .3l-.3-.3-12-22.8c-.1-.2-.4-.4-.6-.4h-5.8c-.3 0-.5.2-.5.5 0 .1 0 .2.1.2l18.9 35.3c.2.3.6.5.9.3l.3-.3 18.9-35.3c.1-.3 0-.6-.2-.7-.1 0-.2-.1-.3-.1h-5.8c-.3.1-.5.3-.6.5m6.8 30.5l12-22.8c.2-.3.6-.5 1-.3l.3.3 12 22.8c.1.2.4.4.6.4h5.8c.3 0 .5-.2.5-.5 0-.1 0-.2-.1-.2L273 202.6c-.2-.3-.6-.5-.9-.3l-.3.3-18.8 35.2c-.1.3 0 .6.2.7.1 0 .1.1.2.1h5.8c.3-.1.5-.2.6-.4m-89.6.3h-10.8c-.4 0-.7-.3-.7-.7v-9.7c0-.4.3-.7.7-.7h10.8c5.1 0 7.4 1.5 7.4 5.5s-2.2 5.6-7.4 5.6m-10.8-25.9H170c3.9 0 5.9 1.7 5.9 4.8 0 3.1-2 4.8-5.9 4.8h-10.6c-.4 0-.7-.3-.7-.7v-8.2c0-.4.3-.7.7-.7m18.5 11.6c2.6-1.4 4.2-4.3 4.1-7.3 0-5.7-4.4-9.5-10.7-9.5h-18c-.4 0-.7.3-.7.7v35.1c0 .4.3.7.7.7h17.2c8.6 0 13.1-3.7 13.1-10.9s-5.7-8.8-5.7-8.8m29.1 14.3h-10.8c-.4 0-.7-.3-.7-.7v-9.7c0-.4.3-.7.7-.7H207c5.1 0 7.4 1.5 7.4 5.5s-2.2 5.6-7.4 5.6m-10.8-25.9h10.6c3.9 0 5.9 1.7 5.9 4.8 0 3.1-2 4.8-5.9 4.8h-10.6c-.4 0-.7-.3-.7-.7v-8.2c0-.4.3-.7.7-.7m18.6 11.6c2.6-1.4 4.2-4.3 4.1-7.3 0-5.7-4.4-9.5-10.7-9.5h-18c-.4 0-.7.3-.7.7v35.1c0 .4.3.7.7.7h17.2c8.6 0 13.1-3.7 13.1-10.9s-5.7-8.8-5.7-8.8" fill="#004481" fill-rule="nonzero"/><path d="M485.5 363c0 36.1-29.3 65.3-65.3 65.3S354.8 399 354.8 363s29.3-65.3 65.3-65.3c36.1 0 65.4 29.2 65.4 65.3" fill="#F8CD51" fill-rule="nonzero"/><path d="M335.9 132.4c-31.8-16.9-71.4-4.8-88.3 27-16.9 31.8-4.8 71.4 27 88.3l61.3-115.3z" fill="url(#c)" fill-rule="nonzero" transform="translate(115 173)"/><path d="M427.8 375.9c0-4.3-1.7-6-9.9-9.7-11.8-5.3-15.2-9.4-15.2-17.6 0-8.1 6.6-13.9 13.3-15.6v-10h.4l9.6 4.2v5.5c3 .4 6 1.4 8.6 3l.5.3.3.2-.1.4-.1.6-1.2 7.6-.2 1.4-.1 1-.8-.6-1.1-.9c-3.1-2.4-6.9-3.8-10.9-3.8-5 0-7.8 2.3-7.8 6.1 0 3.6 1.8 5.2 9.8 8.9 11.8 5.4 15.6 9.6 15.6 18.4 0 8.1-5.7 14.1-12.4 16.3v11.5h-.8l-9.2-5.2v-5.6c-3.3-.4-9.3-1.7-13.1-3.7l-.6-.3-.4-.2v-.4l.1-.6 1.1-7.8.2-1.4.1-.9.8.5 1.1.7c4.1 2.8 8.9 4.4 13.9 4.5 5.3.2 8.5-2.5 8.5-6.8" fill="#FEF5DC" fill-rule="nonzero"/></g></svg>