<svg width="600" height="600" xmlns="http://www.w3.org/2000/svg"><defs><linearGradient x1="28.792%" y1="26.497%" x2="70.395%" y2="76.134%" id="a"><stop stop-color="#192647" offset="0%"/><stop stop-color="#192647" stop-opacity=".5" offset="0%"/><stop stop-color="#192647" stop-opacity="0" offset="100%"/></linearGradient><linearGradient x1="100%" y1="50%" x2="0%" y2="50%" id="b"><stop stop-color="#043263" offset="0%"/><stop stop-color="#043263" stop-opacity="0" offset="100%"/></linearGradient><linearGradient x1="26.593%" y1="29.672%" x2="60.926%" y2="53.071%" id="c"><stop stop-color="#FADE8E" offset="0%"/><stop stop-color="#FADE8E" stop-opacity=".4" offset="100%"/></linearGradient></defs><g transform="translate(79 159)" fill="none"><path d="M490.42 107.5c.013-26.985-19.06-50.21-45.533-55.445-26.472-5.234-52.95 8.986-63.207 33.945H70.42c-12.703 0-23 10.297-23 23v200c0 12.703 10.297 23 23 23h362.09a22.91 22.91 0 0022.91-22.91V159.76c21.18-8.716 35-29.356 35-52.26z" fill="url(#a)"/><rect fill="#1464A5" y="36" width="408" height="246" rx="23"/><path d="M385.09 282c12.653 0 22.91-10.257 22.91-22.91V58.91C408 46.257 397.743 36 385.09 36H268.34l-130.8 246h247.55z" fill="url(#b)"/><path fill="#043263" opacity=".6" style="mix-blend-mode:multiply" d="M0 71h408v40H0z"/><rect fill="#FFF" x="60" y="188" width="288" height="36" rx="3"/><path d="M443 57.5c0 31.199-25.288 56.493-56.487 56.5-31.199.007-56.498-25.274-56.513-56.473-.015-31.2 25.261-56.505 56.46-56.527A56.51 56.51 0 01443 57.5" fill="#F8CD51"/><path d="M413 7.6c-27.548-14.636-61.744-4.168-76.38 23.38-14.636 27.548-4.168 61.744 23.38 76.38L413 7.6z" fill="url(#c)"/><path d="M393.41 68.67c0-3.73-1.47-5.21-8.47-8.4-10.1-4.58-13.13-8.08-13.13-15.15s5.67-12 11.42-13.45v-8.55h.31l8.32 3.65v4.75a21.14 21.14 0 017.46 2.56l.39.23.31.16-.08.31-.08.47-1.08 6.52-.24 1.25-.15.85-.7-.46-1-.78a15 15 0 00-9.33-3.26c-4.35 0-6.68 1.94-6.68 5.2 0 3.26 1.55 4.51 8.39 7.7 10.18 4.58 13.37 8.31 13.37 15.85a14.77 14.77 0 01-10.65 14V92h-.7l-7.93-4.43v-4.82a39 39 0 01-11.26-3.18l-.47-.24-.31-.15v-.31l.08-.55.93-6.68.15-1.17.08-.77.62.46.94.62a22.5 22.5 0 0012 3.89c4.59 0 7.54-2.25 7.54-6" fill="#FEF5DC"/></g></svg>