<?xml version="1.0" encoding="UTF-8"?>
<svg width="145px" height="147px" viewBox="0 0 145 147" version="1.1" xmlns="http://www.w3.org/2000/svg" xmlns:xlink="http://www.w3.org/1999/xlink">
    <!-- Generator: Sketch 50.2 (55047) - http://www.bohemiancoding.com/sketch -->
    <title>Illustration/Error/Captive-portals</title>
    <desc>Created with Sketch.</desc>
    <defs>
        <polygon id="path-1" points="0 134.834483 132.660789 134.834483 132.660789 0.343889782 0 0.343889782"></polygon>
        <polygon id="path-3" points="0.148168317 56.5780615 40.8408713 56.5780615 40.8408713 0.31452746 0.148168317 0.31452746"></polygon>
        <path d="M20.8636345,0.271756187 C24.1265565,0.349370629 26.7481343,3.12290992 26.7481343,6.53508925 L26.7481343,21.8394292 C26.7481343,25.2987895 24.0501493,28.1040146 20.7231045,28.1040146 L6.156,28.1065193 C2.82814925,28.1065193 0.130567164,25.3025465 0.130567164,21.8419339 L0.130567164,6.53717647 C0.130567164,3.07698134 2.82855224,0.272173631 6.156,0.272173631 L9.0694209,0.271756187 L20.8636345,0.271756187 Z" id="path-5"></path>
        <path d="M0.1755,13.9113954 L2.99176119,13.9109112 C6.31880597,13.9109112 9.01679104,11.105686 9.01679104,7.64632576 L9.01679104,3.85843692 L9.01679104,0.070548073 L4.59614552,0.070548073 L0.1755,0.070548073 L0.1755,13.9113954 Z" id="path-7"></path>
        <path d="M15.7783125,0.270615172 L18.261375,0.270615172 C18.6544375,0.270615172 18.9726875,0.580475402 18.9726875,0.967068506 L18.9726875,18.1569894 C18.9726875,18.5429968 18.6562187,18.8552 18.261375,18.8552 L0.757625,18.8552 C0.36575,18.8552 0.0475,18.544754 0.0475,18.1569894 L0.0475,0.967068506 C0.0475,0.583404138 0.36396875,0.270615172 0.757625,0.270615172 L3.59634375,0.270615172 L5.7249375,0.270615172 L13.649125,0.270615172 L15.7783125,0.270615172 Z M8.32675,12.9315393 L10.5723125,15.1386345 L10.69225,15.1386345 L10.69225,5.03156782 L8.32675,5.03156782 L8.32675,12.9315393 Z" id="path-9"></path>
    </defs>
    <g id="91_Messages-management-for-developers_v08" stroke="none" stroke-width="1" fill="none" fill-rule="evenodd">
        <g id="91_Messages-management-01-02-03-02" transform="translate(-108.000000, -111.000000)">
            <g id="Illustration/Error/Rooted-device" transform="translate(73.000000, 111.000000)">
                <g id="illustration" transform="translate(35.000000, 0.000000)">
                    <path d="M145,73.5 C145,114.092815 112.540976,147 72.5,147 C32.4590239,147 0,114.092815 0,73.5 C0,32.9071853 32.4590239,0 72.5,0 C112.540976,0 145,32.9071853 145,73.5" id="Page-1" fill="#D0EFF0"></path>
                    <g transform="translate(5.000000, 5.068966)">
                        <g id="Group-35">
                            <path d="M93.170852,119.182179 C93.170852,121.208819 81.3794055,122.850749 66.8340049,122.850749 C52.2886043,122.850749 40.4975645,121.208819 40.4975645,119.182179 C40.4975645,117.156363 52.2886043,115.514021 66.8340049,115.514021 C81.3794055,115.514021 93.170852,117.156363 93.170852,119.182179" id="Fill-3" fill="#004481" opacity="0.300000012"></path>
                            <path d="M19.8732505,94.9895324 C19.8732505,94.528951 20.2413391,94.1561976 20.6956541,94.1561976 L113.76515,94.1561976 C114.219465,94.1561976 114.58796,94.5297757 114.58796,94.9903571 C114.58796,95.4501138 114.219465,95.8236919 113.76515,95.8236919 L20.6956541,95.8236919 C20.2413391,95.8236919 19.8732505,95.4501138 19.8732505,94.9895324" id="Fill-5" fill="#BDBDBD"></path>
                            <path d="M93.8480945,94.9903158 C93.8480945,94.7767248 93.9282199,94.5627215 94.0888774,94.4002603 L101.979397,86.400081 L114.169844,86.400081 C114.624159,86.400081 114.991841,86.7736591 114.991841,87.2342405 C114.991841,87.6952343 114.624159,88.0688124 114.169844,88.0688124 L102.660666,88.0688124 L95.252119,95.579959 C94.9312107,95.9052936 94.4101924,95.9052936 94.0888774,95.579959 C93.9282199,95.4166732 93.8480945,95.2034945 93.8480945,94.9903158" id="Fill-7" fill="#BDBDBD"></path>
                            <path d="M115.959121,92.8843414 C114.812962,92.8843414 113.883182,93.8269458 113.883182,94.9901509 C113.883182,96.1512943 114.812962,97.0938987 115.959121,97.0938987 C117.10528,97.0938987 118.034246,96.1512943 118.034246,94.9901509 C118.034246,93.8269458 117.10528,92.8843414 115.959121,92.8843414" id="Fill-9" fill="#02A5A5"></path>
                            <path d="M16.88677,87.9189688 C16.88677,87.4592121 17.2552654,87.0852216 17.7091737,87.0852216 L35.8366263,87.0852216 L42.6029505,93.943225 C42.9242654,94.2685596 42.9242654,94.7967644 42.6033572,95.1229237 C42.2820422,95.4482583 41.7610239,95.4482583 41.4401156,95.1229237 L35.1557639,88.7531283 L17.7091737,88.7531283 C17.2552654,88.7531283 16.88677,88.3795502 16.88677,87.9189688" id="Fill-11" fill="#BDBDBD"></path>
                            <path d="M17.7093364,85.8150148 C16.5627706,85.8150148 15.6338043,86.7567945 15.6338043,87.919175 C15.6338043,89.0807307 16.5627706,90.0225104 17.7093364,90.0225104 C18.8550887,90.0225104 19.7852752,89.0807307 19.7852752,87.919175 C19.7852752,86.7567945 18.8550887,85.8150148 17.7093364,85.8150148" id="Fill-13" fill="#02A5A5"></path>
                            <path d="M16.8482122,75.0406676 C16.8482122,74.5800862 17.2167076,74.2065081 17.6714294,74.2065081 L113.765353,74.2065081 C114.219668,74.2065081 114.588163,74.5800862 114.588163,75.0406676 C114.588163,75.501249 114.219668,75.8744147 113.765353,75.8744147 L17.6714294,75.8740024 C17.2167076,75.8740024 16.8482122,75.501249 16.8482122,75.0406676" id="Fill-15" fill="#BDBDBD"></path>
                            <path d="M115.959121,77.1446628 C114.812962,77.1446628 113.883182,76.2028831 113.883182,75.0405026 C113.883182,73.8789469 114.812962,72.9363425 115.959121,72.9363425 C117.10528,72.9363425 118.03506,73.8789469 118.03506,75.0405026 C118.03506,76.2028831 117.10528,77.1446628 115.959121,77.1446628" id="Fill-17" fill="#02A5A5"></path>
                            <path d="M17.7093364,77.1446628 C16.5627706,77.1446628 15.6338043,76.2028831 15.6338043,75.0405026 C15.6338043,73.8789469 16.5627706,72.9363425 17.7093364,72.9363425 C18.8550887,72.9363425 19.7852752,73.8789469 19.7852752,75.0405026 C19.7852752,76.2028831 18.8550887,77.1446628 17.7093364,77.1446628" id="Fill-19" fill="#02A5A5"></path>
                            <path d="M16.88677,53.329512 C16.88677,52.8689306 17.2552654,52.4953525 17.7091737,52.4953525 L113.764865,52.4953525 C114.219587,52.4953525 114.587675,52.8689306 114.587675,53.329512 C114.587675,53.7900934 114.219587,54.1632591 113.764865,54.1632591 L17.7091737,54.1628468 C17.2552654,54.1628468 16.88677,53.789681 16.88677,53.329512" id="Fill-21" fill="#BDBDBD"></path>
                            <path d="M93.8480945,53.3297181 C93.8480945,53.1161271 93.9282199,52.9029484 94.0888774,52.740075 C94.4101924,52.4139157 94.930804,52.4139157 95.252119,52.740075 L102.660666,60.2503969 L108.794122,60.2503969 C109.248437,60.2503969 109.616526,60.6235627 109.616526,61.0841441 C109.616526,61.5451378 109.248437,61.9183036 108.794122,61.9183036 L101.979397,61.9183036 L94.0888774,53.9189489 C93.9282199,53.7560755 93.8480945,53.5428968 93.8480945,53.3297181" id="Fill-23" fill="#BDBDBD"></path>
                            <path d="M115.959121,55.4338783 C114.812962,55.4338783 113.883182,54.4912739 113.883182,53.3297181 C113.883182,52.1673377 114.812962,51.2251457 115.959121,51.2251457 C117.10528,51.2251457 118.034246,52.1673377 118.034246,53.3297181 C118.034246,54.4912739 117.10528,55.4338783 115.959121,55.4338783" id="Fill-25" fill="#02A5A5"></path>
                            <path d="M19.1922661,60.3998694 C19.1922661,59.939288 19.5603547,59.5652975 20.0146697,59.5652975 L35.1555199,59.5652975 L41.4398716,53.1955022 C41.7607798,52.8701676 42.2817982,52.8701676 42.6031131,53.1959145 C42.9244281,53.5216614 42.9248349,54.0490415 42.6027064,54.3752008 L35.836789,61.2332042 L20.0146697,61.2332042 C19.5603547,61.2332042 19.1922661,60.8596261 19.1922661,60.3998694" id="Fill-27" fill="#BDBDBD"></path>
                            <path d="M85.6533422,107.017387 C85.6533422,108.935583 84.0707642,110.489684 82.1184706,110.489684 L48.4418131,110.489684 C46.4895196,110.489684 44.9073483,108.935583 44.9073483,107.017387 L44.9073483,37.3500176 C44.9073483,35.4322342 46.4895196,33.8789575 48.4418131,33.8789575 L82.1184706,33.8789575 C84.0707642,33.8789575 85.6533422,35.4322342 85.6533422,37.3500176 L85.6533422,107.017387 Z" id="Fill-29" fill="#2A86CA"></path>
                            <path d="M88.074837,106.922343 C88.074837,108.840951 86.492259,110.396289 84.5395587,110.396289 L50.8637147,110.396289 C48.9106076,110.396289 47.3284364,108.840951 47.3284364,106.922343 L47.3284364,37.2599218 C47.3284364,35.341726 48.9106076,33.7859753 50.8637147,33.7859753 L84.5395587,33.7859753 C86.492259,33.7859753 88.074837,35.341726 88.074837,37.2599218 L88.074837,106.922343 Z" id="Fill-31" fill="#2A86CA"></path>
                            <mask id="mask-2" fill="white">
                                <use xlink:href="#path-1"></use>
                            </mask>
                            <g id="Clip-34"></g>
                            <polygon id="Fill-33" fill="#FFFFFF" mask="url(#mask-2)" points="47.3284771 99.5919652 88.1000948 99.5919652 88.1000948 43.6080282 47.3284771 43.6080282"></polygon>
                        </g>
                        <g id="Group-38" transform="translate(47.000000, 43.593103)">
                            <mask id="mask-4" fill="white">
                                <use xlink:href="#path-3"></use>
                            </mask>
                            <g id="Clip-37"></g>
                            <polygon id="Fill-36" fill-opacity="0.26" fill="#D3D3D3" mask="url(#mask-4)" points="-7.69919109 62.824063 51.907096 -0.833974327 51.907096 63.2115244"></polygon>
                        </g>
                        <g id="Group-47" transform="translate(47.000000, 33.455172)">
                            <path d="M22.8587642,71.8030188 C22.8587642,73.5578242 21.5277045,74.979303 19.8875552,74.979303 C18.245794,74.979303 16.9127194,73.5578242 16.9127194,71.8030188 C16.9127194,70.0445052 18.245794,68.6217902 19.8875552,68.6217902 C21.5277045,68.6217902 22.8587642,70.0445052 22.8587642,71.8030188" id="Fill-39" fill="#004481"></path>
                            <path d="M24.9213224,3.33038082 C24.9213224,3.87342696 24.5098746,4.31099524 24.0029194,4.31099524 L15.7449493,4.31099524 C15.237591,4.31099524 14.8277552,3.87342696 14.8277552,3.33038082 C14.8277552,2.78815873 15.237591,2.34935438 15.7449493,2.34935438 L24.0029194,2.34935438 C24.5098746,2.34935438 24.9213224,2.78815873 24.9213224,3.33038082" id="Fill-41" fill="#004481"></path>
                            <path d="M25.1637582,0.386271436 L2.83556418,0.386271436 C1.44284776,0.386271436 0.146847761,2.31742261 0.146847761,3.74549386 L0.146847761,27.8072172 L25.1637582,0.386271436 Z" id="Fill-43" fill="#FFFFFF" opacity="0.300000012"></path>
                            <path d="M0.146807463,51.4533743 L0.146807463,74.2827372 C0.146807463,75.7066882 2.03559851,77.0313417 3.43274776,77.0313417 L26.9662701,77.0313417 L0.146807463,51.4533743 Z" id="Fill-45" fill="#FFFFFF" opacity="0.300000012"></path>
                        </g>
                        <g id="Logo-app" transform="translate(53.000000, 59.813793)">
                            <mask id="mask-6" fill="white">
                                <use xlink:href="#path-5"></use>
                            </mask>
                            <g id="Clip-49"></g>
                            <polygon id="Fill-48" fill="#1465A5" mask="url(#mask-6)" points="0.130567164 28.1090239 26.7481343 28.1090239 26.7481343 0.271756187 0.130567164 0.271756187"></polygon>
                            <polygon id="Fill-50" fill="#0C457F" mask="url(#mask-6)" points="26.7483358 28.1090239 0.130768657 0.271756187 26.7483358 0.271756187"></polygon>
                            <polygon id="Fill-51" fill="#1D355C" mask="url(#mask-6)" points="0.130647761 28.1090239 26.7482149 14.2636515 26.7482149 28.1090239"></polygon>
                            <g id="Group-54" mask="url(#mask-6)">
                                <g transform="translate(17.731343, 14.193103)">
                                    <mask id="mask-8" fill="white">
                                        <use xlink:href="#path-7"></use>
                                    </mask>
                                    <g id="Clip-53" stroke="none" fill="none"></g>
                                    <polygon id="Fill-52" stroke="none" fill="#1A2541" fill-rule="evenodd" mask="url(#mask-8)" points="9.01699254 0.070548073 0.1755 4.66994848 9.01699254 13.9159205"></polygon>
                                </g>
                            </g>
                            <path d="M11.0622224,13.8139806 L11.5643418,13.0296029 C11.6908791,12.8321518 11.7182821,12.7094232 11.7182821,12.5716666 C11.7182821,12.1872005 11.3942821,11.8632638 11.0219239,11.8632638 L10.2502075,11.8632638 L10.2502075,16.4935551 L10.6777746,16.4935551 C11.3938791,16.4935551 11.9367,16.0898865 11.9367,15.143123 C11.9367,14.3620849 11.586103,13.9454755 11.0622224,13.8139806 M11.3628493,17.339297 L8.8345209,17.339297 L8.8345209,11.042151 L11.4551328,11.042151 C12.6830284,11.042151 13.1114015,12.0895185 12.4891925,13.0554845 L12.1954164,13.5113335 C14.2562821,14.6309189 13.5861179,17.339297 11.3628493,17.339297" id="Fill-55" fill="#FFFFFF" mask="url(#mask-6)"></path>
                            <path d="M5.97018358,13.8139806 L6.4719,13.0296029 C6.59924328,12.8321518 6.6258403,12.7094232 6.6258403,12.5716666 C6.6258403,12.1872005 6.30224328,11.8632638 5.93028806,11.8632638 L5.15776567,11.8632638 L5.15776567,16.4935551 L5.58573582,16.4935551 C6.30143731,16.4935551 6.84425821,16.0898865 6.84425821,15.143123 C6.84425821,14.3620849 6.49406418,13.9454755 5.97018358,13.8139806 M6.27040746,17.339297 L3.7420791,17.339297 L3.7420791,11.042151 L6.36269104,11.042151 C7.59098955,11.042151 8.0189597,12.0895185 7.39755672,13.0554845 L7.10337761,13.5113335 C9.1638403,14.6309189 8.4940791,17.339297 6.27040746,17.339297" id="Fill-56" fill="#FFFFFF" mask="url(#mask-6)"></path>
                            <path d="M17.3439134,11.042318 L18.2937493,11.042318 L16.4589582,17.3369594 L15.0154657,17.3361245 L13.0464806,11.0431529 L14.1099582,11.042318 C14.521003,11.042318 14.629003,11.1533581 14.843391,11.8663529 L15.9822269,15.8233066 L17.3439134,11.042318 Z" id="Fill-57" fill="#FFFFFF" mask="url(#mask-6)"></path>
                            <path d="M19.1866433,15.0565451 L20.0087328,12.1861986 L20.841703,15.0565451 L19.1866433,15.0565451 Z M21.3107776,11.685683 C21.1415239,11.1597033 21.0270761,11.0440712 20.5825836,11.0440712 L19.4312552,11.0432363 L17.5892104,17.3378777 L18.5285687,17.3378777 L18.923091,15.9795142 L21.112509,15.9795142 L21.5098522,17.3374603 L23.136703,17.3374603 L21.3107776,11.685683 Z" id="Fill-58" fill="#FFFFFF" mask="url(#mask-6)"></path>
                        </g>
                    </g>
                    <g id="symbol-locker" transform="translate(98.000000, 0.000000)">
                        <path d="M47,23.8247297 C47,36.9821823 36.4792846,47.6482759 23.5,47.6482759 C10.5212991,47.6482759 0,36.9821823 0,23.8247297 C0,10.6655018 10.5212991,0 23.5,0 C36.4792846,0 47,10.6655018 47,23.8247297" id="Fill-60" fill="#E77D8E"></path>
                        <g id="locker-icon" transform="translate(15.000000, 9.124138)">
                            <path d="M15.7784313,7.29928782 L13.6492438,7.29928782 L5.72505625,7.29928782 L3.59586875,7.29928782 L0.75715,7.29928782 C0.3640875,7.29928782 0.04761875,7.61207678 0.04761875,7.99574115 L0.04761875,25.1862478 C0.04761875,25.5740124 0.36586875,25.8844584 0.75715,25.8844584 L18.2614938,25.8844584 C18.6563375,25.8844584 18.9728063,25.5716694 18.9728063,25.1862478 L18.9728063,7.99574115 C18.9728063,7.60914805 18.6545563,7.29928782 18.2614938,7.29928782 L15.7784313,7.29928782 Z M8.32686875,19.960212 L8.32686875,12.0602405 L10.6923688,12.0602405 L10.6923688,22.1673071 L10.5718375,22.1673071 L8.32686875,19.960212 Z" id="Fill-62" fill="#FFFFFF"></path>
                            <g id="Group-67" transform="translate(0.000000, 7.028966)">
                                <mask id="mask-10" fill="white">
                                    <use xlink:href="#path-9"></use>
                                </mask>
                                <g id="Clip-66"></g>
                                <polygon id="Fill-65" fill="#FFFFFF" mask="url(#mask-10)" points="-0.543875 19.4380184 19.562875 19.4380184 19.562875 -0.313374713 -0.543875 -0.313374713"></polygon>
                            </g>
                            <path d="M3.59610625,7.29928782 L15.7786687,7.29928782 C15.7786687,2.37549747 13.1768562,0.214090575 9.50985625,0.214090575 C5.96160625,0.214090575 3.59610625,2.37549747 3.59610625,7.29928782 M9.50985625,2.07149471 C11.8741687,2.07149471 13.6494812,3.28984874 13.6494812,7.29928782 L5.72529375,7.29928782 C5.72529375,3.28984874 7.2625125,2.07149471 9.50985625,2.07149471" id="Fill-68" fill="#FFFFFF"></path>
                        </g>
                    </g>
                </g>
            </g>
        </g>
    </g>
</svg>