<svg xmlns="http://www.w3.org/2000/svg" xmlns:xlink="http://www.w3.org/1999/xlink" width="117" height="137"><defs><path id="c" d="M0 19.539V0h9v25h-.459L0 19.539"/><path id="m" d="M0 16h26V0H0v16"/><path id="e" d="M0 15h4.629c0-8.487 3.346-11.067 8.23-11.067 3.978 0 7.184 1.54 8.438 6.148H26C24.456 3.126 19.45 0 12.86 0 5.144 0 0 4.58 0 15"/><path id="g" d="M0 15h4.63c0-8.487 3.346-11.067 8.233-11.067 3.973 0 7.182 1.54 8.436 6.148H26C24.458 3.126 19.45 0 12.863 0 5.144 0 0 4.58 0 15"/><path id="i" d="M0 19h30V0H0v19"/><path id="k" d="M0 18h28V0H0v18"/><path id="w" d="M0 41h3V0H0v41"/><path id="o" d="M18 28.195V11h5v22h-.252L18 28.195M34.084 0H1.538A1.524 1.524 0 00.453.447 1.54 1.54 0 000 1.537v37.92c0 .41.163.804.451 1.093.29.29.68.452 1.087.45h37.924c.407.002.798-.16 1.087-.45A1.55 1.55 0 0041 39.458V1.537a1.546 1.546 0 00-.452-1.09A1.523 1.523 0 0039.462 0h-5.378"/><path id="q" d="M0 41h.36c.434.001.851-.16 1.159-.45.308-.29.48-.682.481-1.092V1.537a1.498 1.498 0 00-.482-1.09A1.682 1.682 0 00.36 0H0v41"/><path id="s" d="M0 66h28V0H0v66"/><path id="u" d="M0 65h27V0H0v65"/><circle id="a" cx="58.5" cy="58.5" r="58.5"/></defs><g fill="none" fill-rule="evenodd"><mask id="b" fill="#fff"><use xlink:href="#a"/></mask><use fill="#B79E5E" xlink:href="#a"/><path fill="#B79E5E" fill-opacity=".3" mask="url(#b)" transform="matrix(-1 0 0 1 117 0)" style="mix-blend-mode:multiply" d="M0 0l117 117H0z"/><g transform="translate(54 104)"><mask id="d" fill="#fff"><use xlink:href="#c"/></mask><path fill="#B79E5E" fill-rule="nonzero" mask="url(#d)" d="M-4-4h17v34H-4z"/></g><g transform="translate(46 80)"><mask id="f" fill="#fff"><use xlink:href="#e"/></mask><path fill="#F35E61" fill-rule="nonzero" mask="url(#f)" d="M-4-4h34v24H-4z"/></g><g transform="translate(46 80)"><mask id="h" fill="#fff"><use xlink:href="#g"/></mask><g mask="url(#h)"><g transform="translate(-2 -2)"><mask id="j" fill="#fff"><use xlink:href="#i"/></mask><g mask="url(#j)"><g transform="translate(1 1)"><mask id="l" fill="#fff"><use xlink:href="#k"/></mask><g mask="url(#l)"><g transform="translate(1 1)"><mask id="n" fill="#fff"><use xlink:href="#m"/></mask><path fill="#F8CD51" fill-rule="nonzero" mask="url(#n)" d="M-5-5h37v26H-5z"/></g></g></g></g></g></g></g><g transform="translate(38 95)"><mask id="p" fill="#fff"><use xlink:href="#o"/></mask><path fill="#F8CD51" fill-rule="nonzero" mask="url(#p)" d="M-4-4h49v49H-4z"/></g><g transform="translate(77 95)"><mask id="r" fill="#fff"><use xlink:href="#q"/></mask><g mask="url(#r)"><g transform="translate(0 -5)"><mask id="t" fill="#fff"><use xlink:href="#s"/></mask><g mask="url(#t)"><g transform="translate(0 1)"><mask id="v" fill="#fff"><use xlink:href="#u"/></mask><g mask="url(#v)"><g transform="translate(0 4)"><mask id="x" fill="#fff"><use xlink:href="#w"/></mask><path fill="#FEF5DC" fill-rule="nonzero" mask="url(#x)" d="M-4-9h36v73H-4z"/></g></g></g></g></g></g></g><path fill="#FFF" d="M70 56.929v-2.707C70 47.47 64.628 42 58 42c-6.629 0-12 5.472-12 12.222V61l2.667-2.714v-4.078c0-5.243 4.19-9.493 9.333-9.493 5.155 0 9.333 4.24 9.333 9.493v.007L70 56.929zm0 3.737v1.328C70 68.624 64.574 74 57.876 74 52.02 74 47.134 69.89 46 64.421L48.447 62v.007c0 5.16 4.221 9.326 9.43 9.326 5.196 0 9.429-4.176 9.429-9.326V58L70 60.666zm-19-7.108C51 49.936 53.917 47 57.5 47c3.59 0 6.5 2.942 6.5 6.558v7.884C64 65.064 61.082 68 57.5 68c-3.59 0-6.5-2.942-6.5-6.558v-7.884zm3 .438a4 4 0 018 0v8.008a4.001 4.001 0 01-8 0v-8.008zm3 .375c0-.758.666-1.371 1.5-1.371.828 0 1.5.622 1.5 1.37v8.26c0 .756-.666 1.37-1.5 1.37-.829 0-1.5-.623-1.5-1.37v-8.26z"/></g></svg>
