<svg xmlns="http://www.w3.org/2000/svg" xmlns:xlink="http://www.w3.org/1999/xlink" width="118" height="137"><defs><path id="c" d="M0 19.539V0h9v25h-.459L0 19.539"/><path id="m" d="M0 16h27V0H0v16"/><path id="e" d="M0 16h4.629c0-9.053 3.346-11.805 8.23-11.805 3.978 0 7.184 1.643 8.438 6.558H26C24.456 3.334 19.45 0 12.86 0 5.144 0 0 4.885 0 16"/><path id="g" d="M0 16h4.63c0-9.053 3.346-11.805 8.233-11.805 3.973 0 7.182 1.643 8.436 6.558H26C24.458 3.334 19.45 0 12.863 0 5.144 0 0 4.885 0 16"/><path id="i" d="M0 20h30V0H0v20"/><path id="k" d="M0 18h29V0H0v18"/><path id="w" d="M0 42h3V0H0v42"/><path id="o" d="M18 28.195V11h5v22h-.252L18 28.195M34.084 0H1.538A1.524 1.524 0 00.453.447 1.54 1.54 0 000 1.537v37.92c0 .41.163.804.451 1.093.29.29.68.452 1.087.45h37.924c.407.002.798-.16 1.087-.45A1.55 1.55 0 0041 39.458V1.537a1.546 1.546 0 00-.452-1.09A1.523 1.523 0 0039.462 0h-5.378"/><path id="q" d="M0 41h.36c.434.001.851-.16 1.159-.45.308-.29.48-.682.481-1.092V1.537a1.498 1.498 0 00-.482-1.09A1.682 1.682 0 00.36 0H0v41"/><path id="s" d="M0 67h26V0H0v67"/><path id="u" d="M0 66h26V0H0v66"/><circle id="a" cx="58.5" cy="58.5" r="58.5"/></defs><g fill="none" fill-rule="evenodd"><g transform="translate(0 1)"><mask id="b" fill="#fff"><use xlink:href="#a"/></mask><use fill="#B79E5E" xlink:href="#a"/><path fill="#B79E5E" fill-opacity=".3" mask="url(#b)" transform="matrix(-1 0 0 1 117 0)" style="mix-blend-mode:multiply" d="M0 0l117 117H0z"/></g><g transform="translate(55 105)"><mask id="d" fill="#fff"><use xlink:href="#c"/></mask><path fill="#B79E5E" fill-rule="nonzero" mask="url(#d)" d="M-4-4h17v33H-4z"/></g><g transform="translate(47 81)"><mask id="f" fill="#fff"><use xlink:href="#e"/></mask><path fill="#F35E61" fill-rule="nonzero" mask="url(#f)" d="M-4-4h34v24H-4z"/></g><g transform="translate(47 81)"><mask id="h" fill="#fff"><use xlink:href="#g"/></mask><g mask="url(#h)"><g transform="translate(-2 -2)"><mask id="j" fill="#fff"><use xlink:href="#i"/></mask><g mask="url(#j)"><g transform="translate(1 1)"><mask id="l" fill="#fff"><use xlink:href="#k"/></mask><g mask="url(#l)"><g transform="translate(1 1)"><mask id="n" fill="#fff"><use xlink:href="#m"/></mask><path fill="#F8CD51" fill-rule="nonzero" mask="url(#n)" d="M-5-5h38v26H-5z"/></g></g></g></g></g></g></g><g transform="translate(39 96)"><mask id="p" fill="#fff"><use xlink:href="#o"/></mask><path fill="#F8CD51" fill-rule="nonzero" mask="url(#p)" d="M-4-4h49v49H-4z"/></g><g transform="translate(78 96)"><mask id="r" fill="#fff"><use xlink:href="#q"/></mask><g mask="url(#r)"><g transform="translate(0 -5)"><mask id="t" fill="#fff"><use xlink:href="#s"/></mask><g mask="url(#t)"><g transform="translate(0 1)"><mask id="v" fill="#fff"><use xlink:href="#u"/></mask><g mask="url(#v)"><g transform="translate(0 5)"><mask id="x" fill="#fff"><use xlink:href="#w"/></mask><path fill="#FEF5DC" fill-rule="nonzero" mask="url(#x)" d="M-4-9h39v74H-4z"/></g></g></g></g></g></g></g><path fill="#FFF" d="M53 43h-8.5a1.5 1.5 0 00-1.5 1.5V53h2.5v-6.75a.75.75 0 01.75-.75H53V43zm21 10v-8.5a1.5 1.5 0 00-1.5-1.5H64v2.5h6.75a.75.75 0 01.75.75V53H74zM64 74h8.5a1.5 1.5 0 001.5-1.5V64h-2.5v6.75a.75.75 0 01-.75.75H64V74zM43 64v8.5a1.5 1.5 0 001.5 1.5H53v-2.5h-6.75a.75.75 0 01-.75-.75V64H43zm20.984-3.415c-.88 2.583-3.826 4.007-6.577 3.18-1.61-.484-2.872-1.669-3.388-3.18a.465.465 0 01.343-.578.37.37 0 01.03-.007h9.094c.275-.008.505.194.514.453a.45.45 0 01-.016.132M56.5 55a1.5 1.5 0 110 3 1.5 1.5 0 010-3m6 0a1.5 1.5 0 110 3 1.5 1.5 0 010-3m5.5 4a9 9 0 10-18 0 9 9 0 0018 0"/></g></svg>
