<svg width="145" height="157" xmlns="http://www.w3.org/2000/svg" xmlns:xlink="http://www.w3.org/1999/xlink"><defs><path d="M.04 45.057c.21.112.45.175.706.175h60.635c.81 0 1.466-.633 1.466-1.414V.607H.04v44.45z" id="c"/><path d="M.484 2.222L2.876.411A1.738 1.738 0 013.918.084c.377 0 .754.108 1.042.327l29.738 22.53c.58.188 1.002.712 1.002 1.335V67.63c0 .78-.656 1.414-1.465 1.414H.485V2.222z" id="e"/><path d="M.33 11.207h37.115c.146 0 .264-.12.264-.264V.4a.263.263 0 00-.264-.261H.33v11.067z" id="g"/><circle id="a" cx="72.5" cy="72.5" r="72.5"/></defs><g fill="none" fill-rule="evenodd"><mask id="b" fill="#fff"><use xlink:href="#a"/></mask><use fill="#B79E5E" xlink:href="#a"/><path fill-opacity=".3" fill="#B79E5E" style="mix-blend-mode:multiply" mask="url(#b)" transform="matrix(-1 0 0 1 145 0)" d="M0 0l145 145H0z"/><path d="M95.657 63.378a2.638 2.638 0 01-2.639 2.638 2.638 2.638 0 110-5.275 2.64 2.64 0 012.64 2.637" fill="#2DCCCD"/><path d="M104.219 110.178L74.48 87.647c-.575-.436-1.508-.436-2.084 0l-29.735 22.529c-.582.186-1.005.71-1.005 1.336v43.354c0 .78.656 1.414 1.465 1.414h60.635c.81 0 1.465-.633 1.465-1.414v-43.354c0-.622-.422-1.147-1.002-1.334" fill="#F8CD51"/><g transform="translate(42.374 111.048)"><mask id="d" fill="#fff"><use xlink:href="#c"/></mask><path fill="#EDBA48" mask="url(#d)" d="M74.24.672L63.52 45.243.04.607z"/></g><g transform="translate(69.52 87.236)"><mask id="f" fill="#fff"><use xlink:href="#e"/></mask><path fill="#FADE8E" mask="url(#f)" d="M.484-.929l33.489 25.347.165 45.693 7.366-.827-.58-72.206-22.38-7.23z"/></g><path d="M103.456 30.524l-60.052.271a1.746 1.746 0 00-1.735 1.744l-.15 52.03c-.011.957.53 1.186 1.21.51l8.224-8.186 52.512.067a1.735 1.735 0 001.735-1.733l-.008-42.975c0-.955-.774-1.728-1.727-1.728h-.01" fill="#FFF"/><path d="M42.414 111.655l29.982 21.394c.576.436 1.51.436 2.085 0l29.984-21.394H42.414z" fill="#BA9A3D"/><path d="M100.608 60.478a.264.264 0 01-.263.263H46.534a.264.264 0 01-.264-.263V49.936c0-.144.117-.262.264-.262h53.81c.146 0 .264.118.264.262v10.542z" fill="#68CCCC"/><g transform="translate(62.9 49.535)"><mask id="h" fill="#fff"><use xlink:href="#g"/></mask><path d="M.33 16.575l35.944-35.908 27.53 12.232S49.557 23.958 48.52 24.217c-1.036.258-22.483 6.988-23.937 6.988-1.454 0-21.035-.424-21.348-2.071C2.92 27.488.33 16.575.33 16.575" fill="#02A5A5" mask="url(#h)"/></g><path d="M60.203 55.516a1.714 1.714 0 11-3.428-.001 1.714 1.714 0 013.428.001m7.475 0a1.714 1.714 0 11-3.428-.001 1.714 1.714 0 013.428.001m7.476 0a1.714 1.714 0 11-3.43-.002 1.714 1.714 0 013.43.002m7.475 0a1.714 1.714 0 11-3.429-.002 1.714 1.714 0 013.429.002m7.475 0a1.714 1.714 0 11-3.428-.001 1.714 1.714 0 013.428.001" fill="#FFF"/></g></svg>