<svg xmlns="http://www.w3.org/2000/svg" xmlns:xlink="http://www.w3.org/1999/xlink" width="117" height="133"><defs><path id="y" d="M.072 22.341h87.992V.049H.072v22.292"/><path id="a" d="M117 58.321c0 32.21-26.191 58.323-58.5 58.323S0 90.531 0 58.321C0 26.113 26.191 0 58.5 0S117 26.113 117 58.321"/><path id="e" d="M.159 15.613h4.608c0-8.746 3.332-11.405 8.195-11.405 3.96 0 7.152 1.587 8.401 6.335h4.682C24.508 3.377 19.523.155 12.962.155 5.28.155.159 4.875.159 15.613"/><path id="g" d="M.159 15.613h4.608c0-8.746 3.332-11.405 8.197-11.405 3.956 0 7.15 1.587 8.4 6.335h4.68C24.507 3.377 19.522.155 12.963.155 5.28.155.16 4.875.16 15.613"/><path id="i" d="M.133 19.452h29.575V.076H.133v19.376"/><path id="k" d="M.047 18.051h28.45V.048H.047v18.003"/><path id="m" d="M.068 16.018h26.195V.011H.068v16.007"/><path id="o" d="M18.008 27.726v-17.23h5.122V32.54h-.258l-4.864-4.813M34.148.06H1.614A1.532 1.532 0 00.53.502 1.522 1.522 0 00.077 1.58v37.496a1.534 1.534 0 001.538 1.525h37.908a1.524 1.524 0 001.538-1.525V1.58a1.52 1.52 0 00-.453-1.078A1.53 1.53 0 0039.523.06h-5.376"/><path id="q" d="M.188 40.602h.337a1.524 1.524 0 001.535-1.525V1.58A1.52 1.52 0 001.61.502 1.53 1.53 0 00.524.061H.188V40.6"/><path id="s" d="M.134 65.721h27.885V.012H.134v65.709"/><path id="u" d="M.188 64.748H27.63V.099H.188v64.649"/><path id="w" d="M.134 41.292h2.534V.011H.134v41.281"/><path id="c" d="M.009 19.618V.002h8.956V25.1h-.457L.009 19.618"/><path id="A" d="M.083 22.339h79.011V.049H.083v22.29"/><path id="C" d="M.067 124.69H135.27V.011H.067V124.69"/><path id="E" d="M.083 85.49L86.052.066l47.621 101.14s-90.608 22.012-93.34 22.128C37.603 123.448.083 85.49.083 85.49"/><path id="G" d="M.067 22.887h80.277V.141H.067v22.746"/><path id="I" d="M.049 18.403h.537V.098H.049v18.305"/><path id="K" d="M.586.098H.049v18.305h.537V.098"/><path id="M" d="M.054 18.403h.534V.098H.054v18.305"/><path id="O" d="M.06 18.403h.534V.098H.06v18.305"/><path id="Q" d="M4.547 10H2.635V2.837a6.689 6.689 0 01-2.471 1.44V2.551a5.452 5.452 0 001.624-.924c.55-.4.969-.952 1.206-1.587h1.553V10"/><path id="S" d="M.149 7.256l1.905-.196c.034.387.205.748.484 1.019.246.241.579.376.925.374a1.29 1.29 0 001.015-.482c.278-.325.416-.807.416-1.46 0-.609-.137-1.066-.414-1.37a1.368 1.368 0 00-1.071-.455 1.947 1.947 0 00-1.476.722L.38 5.186 1.357.024h5.06v1.78H2.81l-.3 1.682a2.934 2.934 0 011.307-.317 2.875 2.875 0 012.158.922c.592.613.885 1.408.885 2.387a3.565 3.565 0 01-.715 2.185c-.648.875-1.55 1.313-2.705 1.313-.92 0-1.67-.245-2.25-.737A3.027 3.027 0 01.148 7.256"/><path id="U" d="M4.556 5.75c.448-.39.868-.813 1.256-1.264a5.31 5.31 0 00.763-1.268 3.42 3.42 0 00.243-1.275A2.577 2.577 0 006.039.049H1.216C.736.51.436 1.19.336 2.117l1.907.19c.033-.555.172-.95.407-1.19a1.468 1.468 0 011.904-.018c.243.266.367.62.343.978a2.077 2.077 0 01-.393 1.162c-.199.286-.729.828-1.59 1.625-1.071.99-1.789 1.782-2.152 2.378A4.606 4.606 0 00.11 9.14h6.708V7.375h-3.8a3.13 3.13 0 01.39-.526c.165-.18.544-.546 1.148-1.1"/><path id="W" d="M5.949.049H2.837L.011 4.159v1.664h4.086V7.82H5.95V5.823h1.239V4.152h-1.24V.049m-1.85 4.103H1.8L4.097.762v3.39"/></defs><g fill="none" fill-rule="evenodd"><path fill="#A28E58" fill-rule="nonzero" d="M117 58.321c0 32.21-26.191 58.323-58.5 58.323S0 90.531 0 58.321C0 26.113 26.191 0 58.5 0S117 26.113 117 58.321"/><mask id="b" fill="#fff"><use xlink:href="#a"/></mask><path fill="#BEA667" fill-rule="nonzero" d="M58.5 0C26.191 0 0 26.113 0 58.321a58.04 58.04 0 0016.82 40.925l32.29-32.192H14.892V44.76H71.47l28.078-27.99A58.409 58.409 0 0058.5 0" mask="url(#b)"/><g transform="translate(54.015 99.729)"><mask id="d" fill="#fff"><use xlink:href="#c"/></mask><path fill="#B79E5E" fill-rule="nonzero" mask="url(#d)" d="M-4.215-4.21h17.406v33.522H-4.215z"/></g><g transform="translate(45.825 75.817)"><mask id="f" fill="#fff"><use xlink:href="#e"/></mask><path fill="#F35E61" fill-rule="nonzero" mask="url(#f)" d="M-4.066-4.056h34.335v23.881H-4.066z"/></g><g transform="translate(45.825 75.817)"><mask id="h" fill="#fff"><use xlink:href="#g"/></mask><g mask="url(#h)"><g transform="translate(-1.755 -1.75)"><mask id="j" fill="#fff"><use xlink:href="#i"/></mask><g mask="url(#j)"><g transform="translate(.585 .583)"><mask id="l" fill="#fff"><use xlink:href="#k"/></mask><g mask="url(#l)"><g transform="translate(1.17 1.166)"><mask id="n" fill="#fff"><use xlink:href="#m"/></mask><path fill="#F8CD51" fill-rule="nonzero" mask="url(#n)" d="M-5.349-5.331h36.901v26.427H-5.349z"/></g></g></g></g></g></g></g><g transform="translate(38.22 91.37)"><mask id="p" fill="#fff"><use xlink:href="#o"/></mask><path fill="#F8CD51" fill-rule="nonzero" mask="url(#p)" d="M-4.148-4.152h49.434v48.965H-4.148z"/></g><g transform="translate(77.22 91.37)"><mask id="r" fill="#fff"><use xlink:href="#q"/></mask><g mask="url(#r)"><g transform="translate(-.195 -5.443)"><mask id="t" fill="#fff"><use xlink:href="#s"/></mask><g mask="url(#t)"><g transform="translate(.195 .583)"><mask id="v" fill="#fff"><use xlink:href="#u"/></mask><g mask="url(#v)"><g transform="translate(-.195 4.471)"><mask id="x" fill="#fff"><use xlink:href="#w"/></mask><path fill="#FEF5DC" fill-rule="nonzero" mask="url(#x)" d="M-3.842-8.584H32.05v73.072H-3.842z"/></g></g></g></g></g></g></g><g transform="translate(14.82 44.713)"><mask id="z" fill="#fff"><use xlink:href="#y"/></mask><path fill="#FFF" fill-rule="nonzero" mask="url(#z)" d="M-4.153 26.551H92.29V-4.164H-4.153v30.715"/></g><g transform="translate(23.79 44.713)"><mask id="B" fill="#fff"><use xlink:href="#A"/></mask><g mask="url(#B)"><g transform="translate(-.78 -39.658)"><mask id="D" fill="#fff"><use xlink:href="#C"/></mask><g mask="url(#D)"><g transform="translate(.78 .778)"><mask id="F" fill="#fff"><use xlink:href="#E"/></mask><g mask="url(#F)"><g transform="translate(-.78 38.686)"><mask id="H" fill="#fff"><use xlink:href="#G"/></mask><path fill="#F4F4F4" fill-rule="nonzero" mask="url(#H)" d="M-3.362 88.859h142.041V-42.832H-3.362V88.859"/></g></g></g></g></g></g></g><g transform="translate(35.295 46.657)"><mask id="J" fill="#fff"><use xlink:href="#I"/></mask><g mask="url(#J)"><mask id="L" fill="#fff"><use xlink:href="#K"/></mask><path fill="#CDEDED" fill-rule="nonzero" mask="url(#L)" d="M.049.098h.537v18.305H.049z"/></g></g><g transform="translate(57.33 46.657)"><mask id="N" fill="#fff"><use xlink:href="#M"/></mask><g fill-rule="nonzero" mask="url(#N)"><path fill="#CDEDED" d="M.754.098H.07v11.268l.684-.53V.098"/><path fill="#C5E6E6" d="M.754 10.836l-.684.53v7.037h.684v-7.567"/></g></g><g transform="translate(79.365 46.657)"><mask id="P" fill="#fff"><use xlink:href="#O"/></mask><path fill="#C5E6E6" fill-rule="nonzero" mask="url(#P)" d="M.594.098H.06v18.305h.534V.098"/></g><g transform="translate(22.23 50.934)"><mask id="R" fill="#fff"><use xlink:href="#Q"/></mask><path fill="#02A5A5" fill-rule="nonzero" mask="url(#R)" d="M-4.062-4.171H8.772v18.384H-4.062z"/></g><g transform="translate(87.165 51.128)"><mask id="T" fill="#fff"><use xlink:href="#S"/></mask><path fill="#02A5A5" fill-rule="nonzero" mask="url(#T)" d="M-4.077-4.188h15.161v18.377H-4.077z"/></g><g transform="translate(42.9 44.713)"><mask id="V" fill="#fff"><use xlink:href="#U"/></mask><path fill="#02A5A5" fill-rule="nonzero" mask="url(#V)" d="M-4.114-4.164h15.158v17.516H-4.114z"/></g><g transform="translate(64.74 44.713)"><mask id="X" fill="#fff"><use xlink:href="#W"/></mask><path fill="#02A5A5" fill-rule="nonzero" mask="url(#X)" d="M-4.215-4.164h15.628v16.196H-4.215z"/></g><path fill="#02A5A5" fill-rule="nonzero" d="M66.572 57.392h1.023v6.897h-1.023zm-22.361-4.253h1.022v6.897h-1.022zm25.781 2.126h1.022v6.898h-1.022z"/></g></svg>
