<svg width="145" height="155" xmlns="http://www.w3.org/2000/svg" xmlns:xlink="http://www.w3.org/1999/xlink"><defs><path id="c" d="M.494 131.893h73.779V.52H.493z"/><path d="M.02 11.185h37.117a.264.264 0 00.263-.263V.412a.262.262 0 00-.263-.261H.02v11.034z" id="e"/><circle id="a" cx="72.5" cy="72.5" r="72.5"/></defs><g fill="none" fill-rule="evenodd"><mask id="b" fill="#fff"><use xlink:href="#a"/></mask><use fill="#B79E5E" xlink:href="#a"/><path fill-opacity=".3" fill="#B79E5E" style="mix-blend-mode:multiply" mask="url(#b)" transform="matrix(-1 0 0 1 145 0)" d="M0 0l145 145H0z"/><g transform="translate(35.091 23.075)"><mask id="d" fill="#fff"><use xlink:href="#c"/></mask><path d="M74.273 125.974c0 3.27-2.872 5.92-6.415 5.92H6.909c-3.543 0-6.415-2.65-6.415-5.92V6.437C.494 3.17 3.366.521 6.909.521h60.949c3.543 0 6.415 2.648 6.415 5.916v119.537z" fill="#5BBEFF" mask="url(#d)"/></g><path d="M109.364 145.635c0 3.27-2.872 5.918-6.415 5.918H42.001c-3.544 0-6.416-2.649-6.416-5.918V26.1c0-3.27 2.872-5.918 6.416-5.918h60.948c3.543 0 6.415 2.648 6.415 5.918v119.536z" fill="#237ABA"/><path fill="#004481" d="M35.585 132.006h73.78v-95.93h-73.78zm42.335 9.682c0 2.994-2.439 5.422-5.445 5.422-3.008 0-5.445-2.428-5.445-5.422 0-2.996 2.437-5.424 5.445-5.424 3.006 0 5.445 2.428 5.445 5.424m4.04-116.115c0 1.06-.862 1.918-1.925 1.918h-15.12a1.92 1.92 0 01-1.925-1.918c0-1.057.861-1.917 1.924-1.917h15.121c1.063 0 1.926.86 1.926 1.917"/><path d="M82.14 20.18H41.234c-2.547 0-5.647 2.96-5.647 5.4v41.05L82.14 20.18z" fill="#FFF" opacity=".3"/><path d="M104.888 115.705c0 .135-.11.245-.246.245H40.308a.245.245 0 01-.246-.245V47.028c0-.136.11-.246.246-.246h64.334c.136 0 .246.11.246.246v68.677z" fill="#FFF"/><path d="M99.638 85.435a.264.264 0 01-.264.263h-53.81a.263.263 0 01-.264-.263v-10.51a.26.26 0 01.263-.26h53.81c.146 0 .265.116.265.26v10.51z" fill="#68CCCC"/><g transform="translate(62.237 74.513)"><mask id="f" fill="#fff"><use xlink:href="#e"/></mask><path d="M.02 16.538l35.945-35.802 27.53 12.197S49.248 23.899 48.21 24.157c-1.036.258-22.483 6.967-23.936 6.967-1.453 0-21.036-.423-21.349-2.065C2.612 27.42.021 16.54.021 16.54" fill="#02A5A5" mask="url(#f)"/></g><path d="M59.233 80.489c0 .943-.768 1.708-1.714 1.708a1.711 1.711 0 01-1.715-1.708c0-.943.767-1.708 1.715-1.708.946 0 1.714.765 1.714 1.708m7.475 0c0 .943-.768 1.708-1.715 1.708a1.711 1.711 0 01-1.715-1.708c0-.943.768-1.708 1.715-1.708.947 0 1.715.765 1.715 1.708m7.475 0c0 .943-.767 1.708-1.715 1.708a1.711 1.711 0 01-1.715-1.708c0-.943.768-1.708 1.715-1.708.948 0 1.715.765 1.715 1.708m7.475 0c0 .943-.768 1.708-1.715 1.708a1.712 1.712 0 01-1.715-1.708c0-.943.769-1.708 1.715-1.708.947 0 1.715.765 1.715 1.708m7.476 0c0 .943-.768 1.708-1.715 1.708a1.711 1.711 0 01-1.715-1.708c0-.943.768-1.708 1.715-1.708.947 0 1.715.765 1.715 1.708" fill="#FFF"/><path d="M112.265 121.277l.063 1.48" fill="#000"/></g></svg>