<svg width="145" height="155" xmlns="http://www.w3.org/2000/svg" xmlns:xlink="http://www.w3.org/1999/xlink"><defs><path d="M145 73.347c0 39.54-32.46 72-72 72-40.54 0-73-32.46-73-72 0-40.54 32.46-73 73-73 39.54 0 72 32.46 72 73" id="a"/></defs><g fill="none" fill-rule="evenodd"><mask id="b" fill="#fff"><use xlink:href="#a"/></mask><use fill="#DA3851" xlink:href="#a"/><path fill-opacity=".3" fill="#B92A45" style="mix-blend-mode:multiply" mask="url(#b)" transform="matrix(-1 0 0 1 145 0)" d="M0 .007l145 145.106H0z"/><path d="M108.935 148.294c0 3.27-2.859 5.919-6.386 5.919H41.88c-3.528 0-6.388-2.65-6.388-5.92V28.738c0-3.27 2.86-5.918 6.387-5.918h60.671c3.527 0 6.386 2.649 6.386 5.918v119.557z" fill="#5BBEFF"/><path d="M108.818 144.985c0 3.29-2.848 5.936-6.59 5.936H42.25c-3.743 0-6.59-2.646-6.59-5.936V25.602c0-3.29 2.847-5.936 6.59-5.936h59.977c3.743 0 6.591 2.646 6.591 5.936v119.383z" fill="#237ABA"/><path fill="#004481" d="M35.492 131.247h73.444V35.302H35.492zm42.142 9.684a5.421 5.421 0 01-10.84 0 5.422 5.422 0 015.42-5.425 5.423 5.423 0 015.42 5.425m4.161-115.988a1.967 1.967 0 01-1.977 1.978H64.66a1.967 1.967 0 01-1.977-1.978c0-1.092.868-1.979 1.977-1.979h15.16c1.107 0 1.976.887 1.976 1.979"/><path d="M81.835 19.404H41.113c-2.535 0-5.621 2.96-5.621 5.4V65.86l46.343-46.456z" fill="#FFF" opacity=".3"/><path d="M104.48 114.944c0 .135-.11.245-.245.245H40.193a.245.245 0 01-.245-.245V46.256c0-.136.11-.247.245-.247h64.042c.135 0 .244.111.244.247v68.688z" fill="#FFF"/><path d="M98.864 84.738c0-.12-.118 0 0 0H44.818c.117 0 0-.12 0 0V73.525c0 .119.117 0 0 0h54.046c-.118 0 0 .119 0 0v11.213z" fill="#E77D8E"/><path d="M78.132 73.532h20.732c-.117 0 0 .118 0 0v11.213c0-.12-.117 0 0 0H67.13l11.001-11.213z" fill="#B92A45"/><path d="M58.964 79.502a1.707 1.707 0 11-3.415.002 1.707 1.707 0 013.415-.002zm7.44 0a1.708 1.708 0 11-3.415 0 1.708 1.708 0 013.416 0zm7.442 0a1.708 1.708 0 11-3.415.002 1.708 1.708 0 013.415-.002zm7.441 0a1.708 1.708 0 11-3.416 0 1.708 1.708 0 013.416 0zm7.442 0a1.708 1.708 0 11-3.416 0 1.708 1.708 0 013.416 0z" fill="#FFF"/></g></svg>