<svg width="145" height="157" xmlns="http://www.w3.org/2000/svg" xmlns:xlink="http://www.w3.org/1999/xlink"><defs><path d="M.04 45.057c.21.112.45.175.706.175h60.635c.81 0 1.466-.633 1.466-1.414V.607H.04v44.45z" id="c"/><path d="M.484 2.222L2.876.411A1.738 1.738 0 013.918.084c.377 0 .754.108 1.042.327l29.738 22.53c.58.188 1.002.712 1.002 1.335V67.63c0 .78-.656 1.414-1.465 1.414H.485V2.222z" id="e"/><circle id="a" cx="72.5" cy="72.5" r="72.5"/></defs><g fill="none" fill-rule="evenodd"><mask id="b" fill="#fff"><use xlink:href="#a"/></mask><use fill="#DA3851" xlink:href="#a"/><path fill-opacity=".3" fill="#B92A45" style="mix-blend-mode:multiply" mask="url(#b)" transform="matrix(-1 0 0 1 145 0)" d="M0 0l145 145H0z"/><path d="M95.657 63.378a2.638 2.638 0 01-2.639 2.638 2.638 2.638 0 110-5.275 2.64 2.64 0 012.64 2.637" fill="#2DCCCD"/><path d="M104.219 110.178L74.48 87.647c-.575-.436-1.508-.436-2.084 0l-29.735 22.529c-.582.186-1.005.71-1.005 1.336v43.354c0 .78.656 1.414 1.465 1.414h60.635c.81 0 1.465-.633 1.465-1.414v-43.354c0-.622-.422-1.147-1.002-1.334" fill="#F8CD51"/><g transform="translate(42.374 111.048)"><mask id="d" fill="#fff"><use xlink:href="#c"/></mask><path fill="#EDBA48" mask="url(#d)" d="M74.24.672L63.52 45.243.04.607z"/></g><g transform="translate(69.52 87.236)"><mask id="f" fill="#fff"><use xlink:href="#e"/></mask><path fill="#FADE8E" mask="url(#f)" d="M.484-.929l33.489 25.347.165 45.693 7.366-.827-.58-72.206-22.38-7.23z"/></g><path d="M42.414 111.655l29.982 21.394c.576.436 1.51.436 2.085 0l29.984-21.394H42.414z" fill="#BA9A3D"/><path d="M103 31H43c-1.066.275-1.849 1.057-2 2v52c-.01 1.06.534 1.288 1 1l8-9h53c1.215.486 2-.293 2-1V33c-.008-1.227-.786-2-2-2" fill="#FFF"/><path d="M100 60c0-.118-.118 0 0 0H46c.116 0 0-.118 0 0V49c0 .116.116 0 0 0h54c-.118 0 0 .116 0 0v11z" fill="#E77D8E"/><path d="M79.457 49H100c-.117 0 0 .116 0 0v11c0-.118-.117 0 0 0H68.143l11.314-11z" fill="#B92A45"/><path d="M60.145 54.63a1.707 1.707 0 11-3.415.002 1.707 1.707 0 013.415-.002zm7.442 0a1.708 1.708 0 11-3.417 0 1.708 1.708 0 013.417 0zm7.44 0a1.708 1.708 0 11-3.415.001 1.708 1.708 0 013.416-.001zm7.442 0a1.708 1.708 0 11-3.416 0 1.708 1.708 0 013.416 0zm7.442 0a1.708 1.708 0 11-3.416 0 1.708 1.708 0 013.416 0z" fill="#FFF"/></g></svg>