<?xml version="1.0" encoding="UTF-8"?>
<svg width="22px" height="21px" viewBox="0 0 22 21" version="1.1" xmlns="http://www.w3.org/2000/svg" xmlns:xlink="http://www.w3.org/1999/xlink">
    <!-- Generator: Sketch 57.1 (83088) - https://sketch.com -->
    <title>Communication and Multimedia/BBBVA-Contigo</title>
    <desc>Created with Sketch.</desc>
    <g id="Symbols" stroke="none" stroke-width="1" fill="none" fill-rule="evenodd">
        <g id="Help/asset/contact" transform="translate(-33.000000, -17.000000)" fill="#1973B8">
            <g id="Communication-and-Multimedia/BBBVA-Contigo" transform="translate(32.000000, 16.000000)">
                <path d="M11.31668,13.8949933 L12.8167133,13.8949933 L13.816705,12.8949933 L11.31668,12.8949933 L11.31668,13.8949933 Z M16.5,15.67 L6.5,15.67 L6.5,14.6700083 C6.5,12.553425 7.95915,10.7784833 9.93080833,10.2983333 C10.4028917,10.5355667 10.9355667,10.6700417 11.50005,10.6700417 C12.0642583,10.6700417 12.5968417,10.5356583 13.0688333,10.2985167 C15.0382,10.7789417 16.5,12.5533333 16.5,14.6700083 L16.5,15.67 Z M11.50005,4.67 C12.8807333,4.67 14.000075,5.78934167 14.000075,7.16993333 C14.000075,8.55070833 12.8807333,9.66995833 11.50005,9.66995833 C10.1193667,9.66995833 9.000025,8.55070833 9.000025,7.16993333 C9.000025,5.78934167 10.1193667,4.67 11.50005,4.67 L11.50005,4.67 Z M22.0826917,1.92 L1.91730833,1.92 C1.41020833,1.92 1,2.32773333 1,2.83061667 L1,22.0866667 L4.66666667,18.42 L22.0826917,18.42 C22.5898833,18.42 23,18.0123583 23,17.5093833 L23,2.83061667 C23,2.327825 22.5893333,1.92 22.0826917,1.92 L22.0826917,1.92 Z" id="icon-bbvacontigo"></path>
            </g>
        </g>
    </g>
</svg>