<svg xmlns="http://www.w3.org/2000/svg" width="300" height="120" viewBox="0 0 300 120">
  <g fill="none" fill-rule="evenodd">
    <path fill="#D4EDFC" d="M255.49,33.762 L279,33.762 L283.119,33.762 C283.547,33.762 283.966,33.729 284.386,33.698 C293.115,33.048 300,25.776 300,16.881 C300,7.558 292.442,0 283.119,0 L16.881,0 C7.557,0 0,7.558 0,16.881 C0,25.776 6.885,33.048 15.614,33.698 C16.034,33.729 16.453,33.762 16.881,33.762 L21,33.762 L44.509,33.762 C53.239,34.412 60.123,41.683 60.123,50.579 C60.123,59.779 52.761,67.245 43.608,67.441 L21,67.441 L16.881,67.441 C16.758,67.441 16.638,67.457 16.516,67.46 C7.363,67.656 0,75.123 0,84.322 C0,93.645 7.557,101.203 16.881,101.203 L283.119,101.203 C292.442,101.203 300,93.645 300,84.322 C300,75.123 292.636,67.656 283.484,67.46 C283.361,67.457 283.242,67.441 283.119,67.441 L279,67.441 L256.392,67.441 C247.239,67.245 239.876,59.779 239.876,50.579 C239.876,41.683 246.761,34.412 255.49,33.762"/>
    <g transform="translate(120 22.075)">
      <path fill="#004481" d="M48.5799,2.1926 L4.0389,2.1926 C2.1979,2.1926 0.7059,3.6846 0.7059,5.5256 L0.7059,94.6676 C0.7059,96.5076 2.1979,98.0006 4.0389,98.0006 L48.5799,98.0006 C50.4209,98.0006 51.9129,96.5076 51.9129,94.6676 L51.9129,5.5256 C51.9129,3.6846 50.4209,2.1926 48.5799,2.1926"/>
      <path fill="#1973B8" d="M48.5799,0.824 L4.0389,0.824 C2.1979,0.824 0.7059,2.316 0.7059,4.157 L0.7059,93.298 C0.7059,95.139 2.1979,96.631 4.0389,96.631 L48.5799,96.631 C50.4209,96.631 51.9129,95.139 51.9129,93.298 L51.9129,4.157 C51.9129,2.316 50.4209,0.824 48.5799,0.824"/>
      <polygon fill="#FFF" points=".706 80.901 51.913 80.901 51.913 11.523 .706 11.523"/>
      <polygon fill="#D3D3D3" points="51.913 64.983 51.913 81.418 .705 81.418 .705 14.039" opacity=".3"/>
      <path fill="#004481" d="M22.5457,88.9192 C22.5457,91.0952 24.2327,92.8562 26.3067,92.8562 C28.3837,92.8562 30.0727,91.0952 30.0727,88.9192 C30.0727,86.7402 28.3837,84.9772 26.3067,84.9772 C24.2327,84.9772 22.5457,86.7402 22.5457,88.9192"/>
      <path fill="#FFF" d="M51.9129,65.5217 L51.9129,93.0237 C51.9129,95.0157 50.2979,96.6307 48.3059,96.6307 L20.8029,96.6307 L51.9129,65.5217 Z" opacity=".3"/>
      <path fill="#004481" d="M19.9231 6.2048C19.9231 6.8768 20.4431 7.4218 21.0841 7.4218L31.5351 7.4218C32.1771 7.4218 32.6951 6.8768 32.6951 6.2048 32.6951 5.5318 32.1771 4.9888 31.5351 4.9888L21.0841 4.9888C20.4431 4.9888 19.9231 5.5318 19.9231 6.2048M17.908 6.2053C17.908 5.5423 17.371 5.0053 16.708 5.0053 16.045 5.0053 15.508 5.5423 15.508 6.2053 15.508 6.8683 16.045 7.4053 16.708 7.4053 17.371 7.4053 17.908 6.8683 17.908 6.2053"/>
      <path fill="#FFF" d="M51.9129,31.9338 L51.9129,4.2088 C51.9129,2.3398 50.3969,0.8238 48.5279,0.8238 L20.8039,0.8238 L51.9129,31.9338 Z" opacity=".3"/>
    </g>
    <g transform="translate(128 48.075)">
      <path fill="#0086CD" d="M18.4832,18.8352 C13.4732,18.8352 9.4132,14.7742 9.4132,9.7652 C9.4132,4.7552 13.4732,0.6952 18.4832,0.6952 C23.4932,0.6952 27.5522,4.7552 27.5522,9.7652 C27.5522,14.7742 23.4932,18.8352 18.4832,18.8352 M24.1662,21.1152 C31.3102,22.8582 36.6062,29.2952 36.6062,36.9752 L36.6062,40.5702 L0.3572,40.5702 L0.3572,36.9752 C0.3572,29.2972 5.6442,22.8572 12.7972,21.1152 C13.9942,21.7172 15.1872,22.1362 16.6692,22.3332 L16.6692,22.4642 L14.8552,35.1602 L18.4822,38.7892 L22.1102,35.1602 L20.2952,22.4642 L20.2952,22.3332 C21.6142,22.1362 22.9692,21.7172 24.1662,21.1152"/>
      <path fill="#1464A5" d="M24.7644 3.2317L11.9494 16.0467C13.5994 17.7627 15.9134 18.8357 18.4834 18.8357 23.4934 18.8357 27.5524 14.7747 27.5524 9.7657 27.5524 7.1967 26.4804 4.8817 24.7644 3.2317M21.1687875 28.5774125L27.4344 22.3118C32.8644 24.9638 36.6064 30.5248 36.6064 36.9748L36.6064 40.5708 9.1754 40.5708 14.8994 34.8458 14.8544 35.1608 18.4814 38.7898 22.1104 35.1608 21.1684 28.5778 20.2938 22.4645 20.2938 22.3335C21.6138 22.1365 22.9698 21.7175 24.1658 21.1155 25.3098 21.3945 26.3988 21.8055 27.4348 22.3115L21.1688 28.5775z"/>
    </g>
    <path stroke="#5BBEFF" stroke-dasharray="0 4.427" stroke-linecap="round" stroke-linejoin="round" stroke-width="2" d="M117.7739,38.461 C96.5089,33.585 80.7949,33.966 78.1699,40.535 C74.2139,50.436 101.4999,70.646 139.1139,85.675 C176.7299,100.703 210.4289,104.86 214.3849,94.96 C217.6049,86.9 200.1239,72.011 173.2219,58.644"/>
    <g transform="translate(69 14.075)">
      <path fill="#FFF" d="M33.3128,28.5432 C33.3128,29.9922 32.3158,31.1322 31.0168,31.1322 L2.4088,31.1322 C1.1098,31.1322 -0.000200000002,29.9922 -0.000200000002,28.5432 L-0.000200000002,5.8052 C-0.000200000002,4.3572 1.1098,3.1492 2.4088,3.1492 L31.0168,3.1492 C32.3158,3.1492 33.3128,4.3572 33.3128,5.8052 L33.3128,28.5432 Z"/>
      <path fill="#FFF" d="M-0.000200000002,8.6667 L-0.000200000002,28.5427 C-0.000200000002,29.9917 1.1098,31.1317 2.4088,31.1317 L31.0168,31.1317 C32.3158,31.1317 33.3128,29.9917 33.3128,28.5427 L33.3128,8.6667 L-0.000200000002,8.6667 Z"/>
      <path fill="#F4F4F4" d="M7.116,31.1321 L31.017,31.1321 C32.316,31.1321 33.313,29.9921 33.313,28.5431 L33.313,5.8051 C33.313,5.5391 33.269,5.2861 33.206,5.0421 L7.116,31.1321 Z"/>
      <path fill="#0086CD" d="M33.3128,5.8054 C33.3128,4.3574 32.3158,3.1494 31.0168,3.1494 L2.4088,3.1494 C1.1098,3.1494 -0.000200000002,4.3574 -0.000200000002,5.8054 L-0.000200000002,8.6664 L33.3128,8.6664 L33.3128,5.8054 Z"/>
      <path fill="#E57D8C" d="M9.886 22.2546C10.299 21.6236 10.862 21.1216 11.577 20.7086L13.76 19.4216C14.257 19.1286 14.607 18.8296 14.81 18.5166 15.014 18.1976 15.116 17.8156 15.116 17.3626 15.116 16.7416 14.92 16.2506 14.528 15.8866 14.14 15.5246 13.614 15.3426 12.948 15.3426 12.203 15.3426 11.662 15.5746 11.324 16.0176 10.991 16.4546 10.8 17.0476 10.75 17.9746L9.431 17.9746C9.431 16.8626 9.732 15.8986 10.333 15.1966 10.934 14.4956 11.855 14.1406 13.097 14.1406 14.1 14.1406 14.925 14.4286 15.571 15.0106 16.221 15.5876 16.546 16.3746 16.546 17.3736 16.546 18.0456 16.392 18.6196 16.084 19.0966 15.777 19.5686 15.303 19.9836 14.661 20.3416L12.844 21.4016C12.203 21.7786 11.716 22.0716 11.384 22.4006 11.056 22.7236 10.818 23.1636 10.668 23.5346L16.471 23.5346 16.471 24.8316 9.156 24.8316C9.231 23.7196 9.474 22.8806 9.886 22.2546M18.6922 16.2761C19.6172 16.2361 20.3872 16.0861 20.7592 15.8021 21.1362 15.5181 21.4732 15.0091 21.6712 14.2681L22.5792 14.2681 22.5792 24.8311 21.2832 24.8311 21.2832 17.2341 18.6922 17.2341 18.6922 16.2761z"/>
      <path fill="#004480" d="M5.552 5.9587C5.552 6.1657 5.138 6.3337 4.627 6.3337 4.115 6.3337 3.701 6.1657 3.701 5.9587L3.701 4.7597C3.701 4.5527 4.115 4.3847 4.627 4.3847 5.138 4.3847 5.552 4.5527 5.552 4.7597L5.552 5.9587zM11.6595 5.9587C11.6595 6.1657 11.2445 6.3337 10.7345 6.3337 10.2225 6.3337 9.8085 6.1657 9.8085 5.9587L9.8085 4.7597C9.8085 4.5527 10.2225 4.3847 10.7345 4.3847 11.2445 4.3847 11.6595 4.5527 11.6595 4.7597L11.6595 5.9587zM17.7669 5.9587C17.7669 6.1657 17.3519 6.3337 16.8419 6.3337 16.3299 6.3337 15.9159 6.1657 15.9159 5.9587L15.9159 4.7597C15.9159 4.5527 16.3299 4.3847 16.8419 4.3847 17.3519 4.3847 17.7669 4.5527 17.7669 4.7597L17.7669 5.9587zM23.8743 5.9587C23.8743 6.1657 23.4593 6.3337 22.9493 6.3337 22.4373 6.3337 22.0233 6.1657 22.0233 5.9587L22.0233 4.7597C22.0233 4.5527 22.4373 4.3847 22.9493 4.3847 23.4593 4.3847 23.8743 4.5527 23.8743 4.7597L23.8743 5.9587zM29.9817 5.9587C29.9817 6.1657 29.5667 6.3337 29.0567 6.3337 28.5447 6.3337 28.1307 6.1657 28.1307 5.9587L28.1307 4.7597C28.1307 4.5527 28.5447 4.3847 29.0567 4.3847 29.5667 4.3847 29.9817 4.5527 29.9817 4.7597L29.9817 5.9587z"/>
      <path fill="#D3D3D3" d="M5.552 4.8171C5.552 5.3291 5.138 5.7441 4.627 5.7441 4.115 5.7441 3.701 5.3291 3.701 4.8171L3.701 1.8521C3.701 1.3401 4.115.9251 4.627.9251 5.138.9251 5.552 1.3401 5.552 1.8521L5.552 4.8171zM11.6595 4.8171C11.6595 5.3291 11.2455 5.7441 10.7345 5.7441 10.2225 5.7441 9.8085 5.3291 9.8085 4.8171L9.8085 1.8521C9.8085 1.3401 10.2225.9251 10.7345.9251 11.2455.9251 11.6595 1.3401 11.6595 1.8521L11.6595 4.8171zM17.7669 4.8171C17.7669 5.3291 17.3519 5.7441 16.8419 5.7441 16.3299 5.7441 15.9159 5.3291 15.9159 4.8171L15.9159 1.8521C15.9159 1.3401 16.3299.9251 16.8419.9251 17.3519.9251 17.7669 1.3401 17.7669 1.8521L17.7669 4.8171zM23.8743 4.8171C23.8743 5.3291 23.4593 5.7441 22.9493 5.7441 22.4373 5.7441 22.0233 5.3291 22.0233 4.8171L22.0233 1.8521C22.0233 1.3401 22.4373.9251 22.9493.9251 23.4593.9251 23.8743 1.3401 23.8743 1.8521L23.8743 4.8171zM29.9817 4.8171C29.9817 5.3291 29.5667 5.7441 29.0567 5.7441 28.5447 5.7441 28.1307 5.3291 28.1307 4.8171L28.1307 1.8521C28.1307 1.3401 28.5447.9251 29.0567.9251 29.5667.9251 29.9817 1.3401 29.9817 1.8521L29.9817 4.8171z"/>
    </g>
    <g transform="translate(191 80.075)">
      <path fill="#F8CD51" d="M23.0232,11.7688 L1.2582,11.8698 C0.9152,11.8708 0.6302,12.1618 0.6302,12.5138 L0.6732,31.5838 C0.6692,31.9398 0.7692,32.2438 1.0172,31.9928 L3.9962,28.9568 L23.0252,28.9828 C23.3712,28.9828 23.6542,28.6918 23.6542,28.3398 L23.6502,12.4098 C23.6502,12.0538 23.3712,11.7688 23.0252,11.7688 L23.0232,11.7688 Z"/>
      <polygon fill="#FFF" points="3.808 18.926 13.17 18.926 13.17 19.03 11.344 20.922 3.808 20.922"/>
      <polygon fill="#FFF" points="3.808 15.038 16.194 15.038 16.194 15.142 14.37 17.032 3.808 17.032"/>
      <path fill="#A98D54" d="M14.3142,2.301 L14.3122,2.301 C13.8782,2.301 13.5312,2.657 13.5312,3.096 L13.5262,22.871 C13.5262,23.314 13.8772,23.67 14.3072,23.67 L23.6542,23.657 L23.6542,2.345 L14.3142,2.301 Z"/>
      <path fill="#2DCCCD" d="M11.7019,0.3411 L11.6999,0.3411 C11.2659,0.3411 10.9179,0.6981 10.9179,1.1371 L10.9139,20.9121 C10.9139,21.3541 11.2649,21.7101 11.6949,21.7101 L35.3139,21.6801 L39.0159,25.4451 C39.3219,25.7621 39.5649,25.6521 39.5599,25.2131 L39.5629,1.2951 C39.5629,0.8531 39.1449,0.4721 38.7129,0.4701 L11.7019,0.3411"/>
      <polygon fill="#FFF" points="15.667 8.964 27.291 8.964 27.291 9.094 25.023 11.44 15.667 11.44"/>
      <polygon fill="#FFF" points="15.667 4.14 31.047 4.14 31.047 4.269 28.778 6.616 15.667 6.616"/>
    </g>
  </g>
</svg>
