<?xml version="1.0" encoding="UTF-8"?>
<svg width="300px" height="169px" viewBox="0 0 300 169" version="1.1" xmlns="http://www.w3.org/2000/svg" xmlns:xlink="http://www.w3.org/1999/xlink">
    <!-- Generator: Sketch 50.2 (55047) - http://www.bohemiancoding.com/sketch -->
    <title>Illustration/ATM/Location</title>
    <desc>Created with Sketch.</desc>
    <defs>
        <circle id="path-1" cx="24.5" cy="24.5" r="21.5"></circle>
    </defs>
    <g id="ATM-&amp;-Branch-Locator" stroke="none" stroke-width="1" fill="none" fill-rule="evenodd">
        <g id="ATM-Branch-Locator-01-00-00-01" transform="translate(-30.000000, -110.000000)">
            <g id="Illustration/ATM/Location" transform="translate(0.000000, 80.000000)">
                <g id="Illustration/Branch/2" transform="translate(30.000000, 30.000000)">
                    <path d="M41,13 C41,5.82029825 46.8255007,0 54,0 L79,0 C86.1790696,0 92,5.81871963 92,13 C92,20.1797017 86.1744993,26 79,26 L54,26 C46.8209304,26 41,20.1812804 41,13 Z M242,77 L222,77 C213.162275,77 206,84.1615011 206,93 C206,101.836556 213.157341,109 222,109 L283,109 C292.203251,109 300,116.8344 300,126 L300,127 C300,136.1656 292.203251,144 283,144 L17,144 C7.79674923,144 0,136.1656 0,127 L0,126 C0,116.8344 7.79674923,109 17,109 L65,109 C73.9847341,108.856924 81,101.748412 81,93 C81,84.1615011 73.8377247,77 65,77 L52,77 C41.5057878,77 33,68.4957175 33,58 C33,47.5065898 41.5046059,39 52,39 L242,39 C252.494212,39 261,47.5042825 261,58 C261,68.4934102 252.495394,77 242,77 Z" id="clouds" fill="#D4EDFC"></path>
                    <g id="store" transform="translate(87.000000, 67.000000)">
                        <polygon id="wall" fill="#5ABCFD" points="4 88 123 88 123 9 4 9"></polygon>
                        <polygon id="floor" fill="#237ABA" points="0 88 127 88 127 82 0 82"></polygon>
                        <g id="window" transform="translate(10.000000, 20.000000)">
                            <polygon id="glass" fill="#FFFFFF" points="0 52.2142857 55 52.2142857 55 0.214285714 0 0.214285714"></polygon>
                            <polygon id="shine" fill-opacity="0.3" fill="#2C84C8" points="3 52.2142857 55 52.2142857 55 0.214285714"></polygon>
                            <polygon id="top" fill="#237ABA" points="0 4.21428571 55 4.21428571 55 0.214285714 0 0.214285714"></polygon>
                            <polygon id="bottom" fill="#237ABA" points="0 52.2142857 55 52.2142857 55 48.2142857 0 48.2142857"></polygon>
                        </g>
                        <g id="door" transform="translate(76.000000, 20.000000)">
                            <polygon id="background" fill="#237ABA" points="0 62.2142857 35 62.2142857 35 0.214285714 0 0.214285714"></polygon>
                            <polygon id="glass" fill="#FFFFFF" points="35 52.2142857 0 52.2142857 0 4.21428571 35 4.21428571"></polygon>
                            <polygon id="shine" fill-opacity="0.3" fill="#2C84C8" points="35 52.2142857 0 52.2142857 0 45.2142857 35 9.21428571"></polygon>
                            <circle id="knob" fill="#004282" cx="6" cy="28" r="3"></circle>
                        </g>
                        <polygon id="shadow" fill="#237ABA" points="4 14.2142857 123 14.2142857 123 9.21428571 4 9.21428571"></polygon>
                        <polygon id="roof" fill="#2DCCCD" points="0 9.21428571 127 9.21428571 127 0.214285714 0 0.214285714"></polygon>
                    </g>
                    <g id="clock" transform="translate(182.000000, 120.000000)">
                        <g id="background">
                            <circle fill="#184B88" cx="24.5" cy="24.5" r="24.5"></circle>
                            <mask id="mask-2" fill="white">
                                <use xlink:href="#path-1"></use>
                            </mask>
                            <use id="Mask" fill="#F3F3F3" xlink:href="#path-1"></use>
                            <polygon id="shine" fill="#EAEAEA" mask="url(#mask-2)" points="3 3 46 3 3 46"></polygon>
                            <path d="M42.998689,38.9946985 C45.5176089,35.4732716 47,31.1597513 47,26.5 C47,14.6258779 37.3741221,5 25.5,5 C13.6258779,5 4,14.6258779 4,26.5 C4,38.2107323 13.3627931,47.734667 25.0111267,47.9945515 C24.841189,47.9981777 24.6708073,48 24.5,48 C11.5213084,48 1,37.4786916 1,24.5 C1,11.5213084 11.5213084,1 24.5,1 C37.4786916,1 48,11.5213084 48,24.5 C48,29.9690391 46.1317716,35.00173 42.998689,38.9946985 Z" id="shadow" fill="#BDBDBD" opacity="0.5" mask="url(#mask-2)"></path>
                        </g>
                        <path d="M16.8484,9.2672381 C16.8484,9.84402381 16.3864,10.3115238 15.8164,10.3115238 C15.2454,10.3115238 14.7844,9.84402381 14.7844,9.2672381 C14.7844,8.68944048 15.2454,8.22194048 15.8164,8.22194048 C16.3864,8.22194048 16.8484,8.68944048 16.8484,9.2672381 Z M25.6607,7.04529762 C25.6607,7.62208333 25.1997,8.08958333 24.6277,8.08958333 C24.0577,8.08958333 23.5957,7.62208333 23.5957,7.04529762 C23.5957,6.4675 24.0577,6 24.6277,6 C25.1997,6 25.6607,6.4675 25.6607,7.04529762 Z M34.5184,9.38330357 C34.5184,9.96008929 34.0564,10.4286012 33.4844,10.4286012 C32.9144,10.4286012 32.4534,9.96008929 32.4534,9.38330357 C32.4534,8.80651786 32.9144,8.33800595 33.4844,8.33800595 C34.0564,8.33800595 34.5184,8.80651786 34.5184,9.38330357 Z M10.42,33.3627143 C10.42,33.9395 9.958,34.4080119 9.388,34.4080119 C8.818,34.4080119 8.355,33.9395 8.355,33.3627143 C8.355,32.7859286 8.818,32.3174167 9.388,32.3174167 C9.958,32.3174167 10.42,32.7859286 10.42,33.3627143 Z M8.065,24.4719167 C8.065,25.0497143 7.602,25.5172143 7.032,25.5172143 C6.461,25.5172143 6,25.0497143 6,24.4719167 C6,23.895131 6.461,23.427631 7.032,23.427631 C7.602,23.427631 8.065,23.895131 8.065,24.4719167 Z M25.6614,42.3961905 C25.6614,42.9729762 25.1994,43.4414881 24.6284,43.4414881 C24.0574,43.4414881 23.5954,42.9729762 23.5954,42.3961905 C23.5954,41.8194048 24.0574,41.3508929 24.6284,41.3508929 C25.1994,41.3508929 25.6614,41.8194048 25.6614,42.3961905 Z M16.7725,39.8367798 C16.7725,40.4135655 16.3105,40.8820774 15.7395,40.8820774 C15.1695,40.8820774 14.7075,40.4135655 14.7075,39.8367798 C14.7075,39.259994 15.1695,38.7914821 15.7395,38.7914821 C16.3105,38.7914821 16.7725,39.259994 16.7725,39.8367798 Z M41.0052,15.8900536 C41.0052,16.4668393 40.5422,16.9353512 39.9722,16.9353512 C39.4012,16.9353512 38.9392,16.4668393 38.9392,15.8900536 C38.9392,15.3132679 39.4012,14.844756 39.9722,14.844756 C40.5422,14.844756 41.0052,15.3132679 41.0052,15.8900536 Z M34.6766,40.1120179 C34.6766,40.6888036 34.2146,41.1573155 33.6446,41.1573155 C33.0736,41.1573155 32.6116,40.6888036 32.6116,40.1120179 C32.6116,39.5352321 33.0736,39.0677321 33.6446,39.0677321 C34.2146,39.0677321 34.6766,39.5352321 34.6766,40.1120179 Z M41.0052,33.6383571 C41.0052,34.2151429 40.5422,34.6826429 39.9722,34.6826429 C39.4012,34.6826429 38.9392,34.2151429 38.9392,33.6383571 C38.9392,33.0605595 39.4012,32.5930595 39.9722,32.5930595 C40.5422,32.5930595 41.0052,33.0605595 41.0052,33.6383571 Z M43.285,24.7471548 C43.285,25.3249524 42.823,25.7924524 42.253,25.7924524 C41.683,25.7924524 41.22,25.3249524 41.22,24.7471548 C41.22,24.171381 41.683,23.702869 42.253,23.702869 C42.823,23.702869 43.285,24.171381 43.285,24.7471548 Z M10.513,15.6143095 C10.513,16.1910952 10.051,16.6596071 9.48,16.6596071 C8.91,16.6596071 8.447,16.1910952 8.447,15.6143095 C8.447,15.0375238 8.91,14.5690119 9.48,14.5690119 C10.051,14.5690119 10.513,15.0375238 10.513,15.6143095 Z" id="dots" fill="#BEBEBE"></path>
                        <g id="handles" transform="translate(22.000000, 9.404762)">
                            <path d="M11.5132101,20.662465 C11.8109573,21.1375861 11.8383731,21.7574822 11.5779,22.356869 C11.1719,23.2888333 10.0969,23.7107976 9.1759,23.3009762 L1.5749,20.0821071 C1.1699,19.9019881 0.9169,19.5569286 0.6789,19.2179405 C0.3579,18.7575238 0.4389,17.6262143 0.4239,17.3722262 L1.5749,1.68770238 L5.0639,3.85722619 L5.0089,17.6262143 L9.89195526,19.666319 L10.7142,19.3107321 L11.5132101,20.662465 Z" id="shadow" fill="#BEBEBE"></path>
                            <polygon id="Fill-46" fill="#184B88" points="4.0018 17.6263155 0.4388 17.5028631 0.3578 0.838815476 4.0018 3.202625"></polygon>
                            <path d="M9.9906,18.7163393 C10.9116,19.1271726 11.3286,20.2139583 10.9236,21.1469345 C10.5176,22.0788988 9.4426,22.5008631 8.5216,22.0900298 L1.5116,18.9662798 C0.5906,18.5554464 0.1726,17.4666369 0.5796,16.5346726 C0.9846,15.6037202 2.0586,15.181756 2.9806,15.5915774 L9.9906,18.7163393 Z" id="Fill-48" fill="#4084BD"></path>
                        </g>
                    </g>
                    <g id="tooltip" transform="translate(116.000000, 21.000000)">
                        <path d="M17.2160962,0.350138507 C7.70686538,0.350138507 0.000134615385,8.14861607 0.000134615385,17.771052 L0.000134615385,19.7176065 C0.000134615385,29.337318 7.70686538,37.1385199 17.2160962,37.1385199 L26.7684038,37.1385199 L34.4320577,45.3306674 L42.0943654,37.1385199 L51.6480192,37.1385199 C61.1559038,37.1385199 68.8626346,29.337318 68.8626346,19.7176065 L68.8626346,17.771052 C68.8626346,8.14861607 61.1559038,0.350138507 51.6480192,0.350138507 L17.2160962,0.350138507 Z" id="background" fill="#004481"></path>
                        <path d="M55.4117308,12.2772459 C54.9836538,10.94231 54.74,10.6303709 53.48,10.6303709 L50.4148077,10.6303709 L45.5040385,26.8634638 L47.9971154,26.8634638 L49.0444231,23.358576 L54.8961538,23.358576 L55.9515385,26.8634638 L60.2942308,26.8634638 L55.4117308,12.2772459 Z M49.7578846,20.9788484 L51.9440385,13.5754029 L54.1692308,20.9788484 L49.7578846,20.9788484 Z M38.1720769,12.7421577 L41.2197692,22.9544174 L44.8301538,10.6212443 L47.3770769,10.6212443 L42.4878462,26.8652347 L38.6270769,26.8652347 L33.3797692,10.6212443 L36.2134231,10.6212443 C37.3118846,10.6212443 37.5999615,10.9127507 38.1720769,12.7421577 Z M31.8944231,15.8146898 L31.1271154,16.9956994 C36.6086538,19.8848821 34.8169231,26.8646898 28.8911538,26.8646898 L22.1536538,26.8646898 L22.1536538,10.6220616 L29.1348077,10.6220616 C32.4126923,10.6220616 33.5636538,13.3232635 31.8944231,15.8146898 Z M25.9282692,24.6892891 L27.0684615,24.6892891 C28.9773077,24.6892891 30.4230769,23.6526706 30.4230769,21.2184558 C30.4230769,19.1942571 29.4915385,18.1140488 28.1023077,17.7762283 L29.4296154,15.747943 C29.7634615,15.2384879 29.8388462,14.9183757 29.8388462,14.5682956 C29.8388462,13.5752667 28.9773077,12.7456994 27.9878846,12.7456994 L25.9282692,12.7456994 L25.9282692,24.6892891 Z M18.3202115,15.8146898 L17.5327115,16.9956994 C23.0223269,19.8848821 21.2332885,26.8646898 15.3169423,26.8646898 L8.56732692,26.8646898 L8.56732692,10.6220616 L15.5619423,10.6220616 C18.8357885,10.6220616 19.9679038,13.3232635 18.3202115,15.8146898 Z M12.3446346,24.6892891 L13.4915577,24.6892891 C15.3977115,24.6892891 16.8421346,23.6526706 16.8421346,21.2184558 C16.8421346,19.1942571 15.9025192,18.1140488 14.5173269,17.7762283 L15.8527115,15.747943 C16.1838654,15.2384879 16.2619423,14.9183757 16.2619423,14.5682956 C16.2619423,13.5752667 15.3977115,12.7456994 14.4069423,12.7456994 L12.3446346,12.7456994 L12.3446346,24.6892891 Z" id="brand" fill="#F3F4F4"></path>
                    </g>
                </g>
            </g>
        </g>
    </g>
</svg>