<svg id="Capa_1" data-name="Capa 1" xmlns="http://www.w3.org/2000/svg" xmlns:xlink="http://www.w3.org/1999/xlink" viewBox="0 0 50.88 59.15"><defs><style>.cls-1{fill:url(#Degradado_sin_nombre);}.cls-2{fill:#0e71b9;}.cls-3{fill:#0a62a7;}.cls-4{fill:url(#Degradado_sin_nombre_2);}.cls-5{fill:#bdbcbc;}.cls-6{fill:url(#Degradado_sin_nombre_3);}.cls-7{fill:#fff;}.cls-8{fill:url(#Degradado_sin_nombre_4);}</style><linearGradient id="Degradado_sin_nombre" x1="-272.63" y1="420.25" x2="-272.04" y2="418.94" gradientTransform="matrix(44.53, 0, 0, -52.19, 12151.23, 21927.07)" gradientUnits="userSpaceOnUse"><stop offset="0" stop-color="#182548" stop-opacity="0.5"/><stop offset="1" stop-color="#182548" stop-opacity="0"/></linearGradient><linearGradient id="Degradado_sin_nombre_2" x1="-268.47" y1="416.79" x2="-269.47" y2="416.79" gradientTransform="matrix(29.28, 0, 0, -37.58, 7902.37, 15682.63)" gradientUnits="userSpaceOnUse"><stop offset="0" stop-color="#003165" stop-opacity="0.8"/><stop offset="1" stop-color="#003165" stop-opacity="0.1"/></linearGradient><linearGradient id="Degradado_sin_nombre_3" x1="-265.85" y1="413.73" x2="-265.47" y2="413.25" gradientTransform="matrix(21.75, 0, 0, -27.82, 5797.39, 11521.03)" gradientUnits="userSpaceOnUse"><stop offset="0.01" stop-color="#eaf9fa" stop-opacity="0.5"/><stop offset="1" stop-color="#eaf9fa" stop-opacity="0.1"/><stop offset="1" stop-color="#e8f7f8" stop-opacity="0.2"/></linearGradient><linearGradient id="Degradado_sin_nombre_4" x1="-252.18" y1="391.69" x2="-253.18" y2="391.69" gradientTransform="matrix(10.8, 0, 0, -10.49, 2755.36, 4129.42)" gradientUnits="userSpaceOnUse"><stop offset="0" stop-color="#bdbcbc" stop-opacity="0.3"/><stop offset="1" stop-color="#bdbcbc" stop-opacity="0"/></linearGradient></defs><title>sin_puntos</title><path class="cls-1" d="M51.65,53,44.11,39.25l.08,0h0c.2-.1.41-.2.62-.28A6.77,6.77,0,0,0,49,32.65c0-.11,0-.22,0-.34s0-.22,0-.33a6.94,6.94,0,0,0-.52-2h0a6.52,6.52,0,0,1-.33-1,6.78,6.78,0,0,1,.32-4.33,6.76,6.76,0,0,0-3.58-8.86l-.13-.05h0A6.8,6.8,0,0,1,41,12h0c0-.13-.11-.25-.16-.36a.54.54,0,0,1-.05-.11l-.13-.25-.06-.11L40.46,11l-.06-.09a3,3,0,0,0-.2-.29v0a6.1,6.1,0,0,0-.52-.62l0,0a3.19,3.19,0,0,0-.26-.26l0,0-.28-.25h0a6.75,6.75,0,0,0-7-1h0a6.8,6.8,0,0,1-5.31,0A6.76,6.76,0,0,0,17.91,12a.5.5,0,0,1-.05.13h0a6.74,6.74,0,0,1-3.74,3.76h0a6.76,6.76,0,0,0-3.73,8.8.69.69,0,0,0,0,.13h0a6.75,6.75,0,0,1,0,5.31h0A6.77,6.77,0,0,0,14,38.94l.13.05h0c.22.09.43.19.64.3L7.29,53a.64.64,0,0,0,.25.88.62.62,0,0,0,.48.06l7.18-1.83a.65.65,0,0,1,.78.43l2.3,7a.65.65,0,0,0,.83.4.66.66,0,0,0,.36-.3l7.26-13.21.13-.05h0a5.63,5.63,0,0,1,1.05-.35,4.82,4.82,0,0,1,.52-.11l.1,0a6.73,6.73,0,0,1,3.63.47h0l7.3,13.27a.65.65,0,0,0,.88.26.75.75,0,0,0,.31-.37l2.3-7a.65.65,0,0,1,.78-.43l7.17,1.84a.65.65,0,0,0,.79-.47A.64.64,0,0,0,51.65,53Z" transform="translate(-0.85 -0.85)"/><path class="cls-2" d="M11.93,52.6l-2.31-7a.64.64,0,0,0-.78-.43L1.66,47a.66.66,0,0,1-.79-.48A.64.64,0,0,1,.93,46L13.81,22.6,26,29.29,13.12,52.72a.65.65,0,0,1-1.19-.12Z" transform="translate(-0.85 -0.85)"/><path class="cls-2" d="M34.32,52.6l2.3-7a.65.65,0,0,1,.78-.43L44.58,47a.67.67,0,0,0,.8-.48.69.69,0,0,0-.06-.47L32.44,22.6,20.26,29.3,33.13,52.72a.65.65,0,0,0,1.19-.12Z" transform="translate(-0.85 -0.85)"/><path class="cls-3" d="M20.43,1.41h0a6.8,6.8,0,0,0,5.31,0h0a6.74,6.74,0,0,1,8.87,3.54l.06.14h0a6.75,6.75,0,0,0,3.76,3.73h0A6.78,6.78,0,0,1,42.2,17.6l-.06.13h0a6.77,6.77,0,0,0,0,5.3h0a6.76,6.76,0,0,1-3.54,8.88l-.13.05h0a6.74,6.74,0,0,0-3.74,3.76h0A6.77,6.77,0,0,1,26,39.49l-.13-.05h0a6.73,6.73,0,0,0-5.3,0h0a6.77,6.77,0,0,1-8.88-3.54l-.06-.14h0A6.75,6.75,0,0,0,7.83,32h0a6.74,6.74,0,0,1-3.77-8.78.5.5,0,0,1,.05-.13h0a6.75,6.75,0,0,0,0-5.31h0A6.75,6.75,0,0,1,7.65,8.94l.13-.06h0a6.8,6.8,0,0,0,3.74-3.76h0A6.76,6.76,0,0,1,20.3,1.35Z" transform="translate(-0.85 -0.85)"/><path class="cls-4" d="M42.15,23h0a6.8,6.8,0,0,1,0-5.31h0a6.76,6.76,0,0,0-3.58-8.86l-.13,0a6.74,6.74,0,0,1-3.76-3.74,6.81,6.81,0,0,0-1.94-2.66L13.43,38.35a6.77,6.77,0,0,0,7.09,1.1h0a6.77,6.77,0,0,1,5.3,0h0a6.76,6.76,0,0,0,8.86-3.58l.06-.13A6.74,6.74,0,0,1,38.48,32h0a6.76,6.76,0,0,0,3.73-8.8Z" transform="translate(-0.85 -0.85)"/><circle class="cls-5" cx="22.27" cy="19.58" r="14.8"/><path class="cls-6" d="M23.12,5.63a14.8,14.8,0,0,0-7,27.82l14-26.09A14.68,14.68,0,0,0,23.12,5.63Z" transform="translate(-0.85 -0.85)"/><path class="cls-7" d="M23.22,13.21l2.31,4.66,5.14.75a.11.11,0,0,1,.09.13.07.07,0,0,1,0,.06L27,22.44l.88,5.12a.12.12,0,0,1-.17.12l-4.6-2.42-4.6,2.42a.11.11,0,0,1-.15-.05.08.08,0,0,1,0-.07l.88-5.12-3.72-3.62a.12.12,0,0,1,0-.16s0,0,.06,0l5.14-.75L23,13.22a.1.1,0,0,1,.14-.05A.1.1,0,0,1,23.22,13.21Z" transform="translate(-0.85 -0.85)"/><path class="cls-8" d="M30.67,18.62l-5.15-.74-.33-.67L20,26.92l3.16-1.66,4.6,2.42a.11.11,0,0,0,.15,0,.08.08,0,0,0,0-.08L27,22.44l3.71-3.62a.11.11,0,0,0,0-.16Z" transform="translate(-0.85 -0.85)"/></svg>