<svg id="Capa_1" data-name="Capa 1" xmlns="http://www.w3.org/2000/svg" xmlns:xlink="http://www.w3.org/1999/xlink" viewBox="0 0 84 97.8"><defs><style>.cls-1{fill:url(#Degradado_sin_nombre);}.cls-2{fill:#0e71b9;}.cls-3{fill:#0a62a7;}.cls-4{fill:url(#Degradado_sin_nombre_2);}.cls-5{fill:#f9ce42;}.cls-6{fill:url(#Degradado_sin_nombre_3);}.cls-7{fill:#fff;}.cls-8{fill:url(#Degradado_sin_nombre_4);}</style><linearGradient id="Degradado_sin_nombre" x1="-259.32" y1="442.24" x2="-258.73" y2="440.93" gradientTransform="matrix(73.6, 0, 0, -86.4, 19104.4, 38200.6)" gradientUnits="userSpaceOnUse"><stop offset="0" stop-color="#182548" stop-opacity="0.5"/><stop offset="1" stop-color="#182548" stop-opacity="0"/></linearGradient><linearGradient id="Degradado_sin_nombre_2" x1="-256.57" y1="439.94" x2="-257.57" y2="439.94" gradientTransform="matrix(48.4, 0, 0, -62.2, 12487.2, 27398.6)" gradientUnits="userSpaceOnUse"><stop offset="0" stop-color="#003165" stop-opacity="0.8"/><stop offset="1" stop-color="#003165" stop-opacity="0.1"/></linearGradient><linearGradient id="Degradado_sin_nombre_3" x1="-255.43" y1="438.22" x2="-255.07" y2="437.97" gradientTransform="matrix(36, 0, 0, -46, 9217.4, 20178.81)" gradientUnits="userSpaceOnUse"><stop offset="0.01" stop-color="#eaf9fa" stop-opacity="0.5"/><stop offset="1" stop-color="#eaf9fa" stop-opacity="0.1"/><stop offset="1" stop-color="#e8f7f8" stop-opacity="0.2"/></linearGradient><linearGradient id="Degradado_sin_nombre_4" x1="-247.22" y1="425.61" x2="-248.22" y2="425.61" gradientTransform="matrix(17.8, 0, 0, -17.4, 4450.2, 7442.2)" gradientUnits="userSpaceOnUse"><stop offset="0" stop-color="#f9ce42" stop-opacity="0.3"/><stop offset="1" stop-color="#f9ce42" stop-opacity="0"/></linearGradient></defs><title>Star-Aqua_1</title><path class="cls-1" d="M84.07,87,71.6,64.25l.14-.08h0a9.64,9.64,0,0,1,1-.48,11.18,11.18,0,0,0,7-10.37c0-.19,0-.37,0-.56s0-.36,0-.55a11.09,11.09,0,0,0-.86-3.3h0a13.28,13.28,0,0,1-.55-1.61,11.23,11.23,0,0,1,.54-7.17,11.21,11.21,0,0,0-6.14-14.76h0a11.25,11.25,0,0,1-6.22-6.19h0c-.08-.21-.17-.4-.26-.6l-.09-.18L65.91,18l-.1-.18-.24-.4-.09-.15c-.11-.17-.22-.33-.33-.47l0,0a9.19,9.19,0,0,0-.85-1l0,0-.42-.43-.05,0a4.81,4.81,0,0,0-.48-.42h0a11.15,11.15,0,0,0-11.56-1.69h0a11.18,11.18,0,0,1-8.77,0,11.18,11.18,0,0,0-14.74,6.16h0A11.21,11.21,0,0,1,22,25.5h0A11.17,11.17,0,0,0,16,40.28h0a11.2,11.2,0,0,1,0,8.78h0a11.2,11.2,0,0,0,6.15,14.76h0c.36.15.71.31,1.06.49L10.73,87a1.08,1.08,0,0,0,.1,1.18,1.07,1.07,0,0,0,1.12.38l11.86-3a1.08,1.08,0,0,1,1.29.72l3.8,11.66a1.11,1.11,0,0,0,.93.72,1.08,1.08,0,0,0,1-.56l12-21.87.21-.09h0a11.72,11.72,0,0,1,1.73-.58c.29-.07.59-.13.88-.18l.16,0a11.11,11.11,0,0,1,6,.76h0l12,22a1.08,1.08,0,0,0,2-.19l3.8-11.66A1.07,1.07,0,0,1,71,85.47l11.86,3A1.07,1.07,0,0,0,84.07,87Z" transform="translate(-0.2 -0.8)"/><path class="cls-2" d="M18.53,86.45,14.72,74.79a1.07,1.07,0,0,0-1.29-.71l-11.88,3a1.07,1.07,0,0,1-1.12-.38,1.08,1.08,0,0,1-.1-1.18L21.64,36.8,41.8,47.88,20.5,86.64a1.08,1.08,0,0,1-1.05.56A1.1,1.1,0,0,1,18.53,86.45Z" transform="translate(-0.2 -0.8)"/><path class="cls-2" d="M55.48,86.45l3.8-11.66a1.08,1.08,0,0,1,1.3-.71l11.87,3a1.07,1.07,0,0,0,1.12-.38,1.08,1.08,0,0,0,.1-1.18L52.35,36.8,32.2,47.88,53.51,86.64a1.06,1.06,0,0,0,1,.56A1.12,1.12,0,0,0,55.48,86.45Z" transform="translate(-0.2 -0.8)"/><path class="cls-3" d="M32.54,1.73h0a11.2,11.2,0,0,0,8.78,0h0A11.18,11.18,0,0,1,56.11,7.8h0A11.17,11.17,0,0,0,62.33,14h0a11.21,11.21,0,0,1,6.15,14.76h0a11.2,11.2,0,0,0,0,8.78h0A11.17,11.17,0,0,1,62.41,52.3h0a11.19,11.19,0,0,0-6.19,6.22h0a11.19,11.19,0,0,1-14.76,6.15h0a11.2,11.2,0,0,0-8.78,0h0A11.18,11.18,0,0,1,17.89,58.6h0a11.17,11.17,0,0,0-6.22-6.18h0A11.21,11.21,0,0,1,5.52,37.66h0a11.2,11.2,0,0,0,0-8.78h0A11.17,11.17,0,0,1,11.59,14.1h0a11.21,11.21,0,0,0,6.19-6.23h0A11.19,11.19,0,0,1,32.54,1.73Z" transform="translate(-0.2 -0.8)"/><path class="cls-4" d="M68.49,37.52h0a11.2,11.2,0,0,1,0-8.78h0A11.21,11.21,0,0,0,62.33,14,11.15,11.15,0,0,1,56.12,7.8a11.2,11.2,0,0,0-3.2-4.4L21,62.86a11.17,11.17,0,0,0,11.73,1.83h0a11.18,11.18,0,0,1,8.77,0h0a11.16,11.16,0,0,0,14.74-6.15,11.17,11.17,0,0,1,6.18-6.22h0a11.18,11.18,0,0,0,6.07-14.78Z" transform="translate(-0.2 -0.8)"/><circle class="cls-5" cx="36.7" cy="32.3" r="24.5"/><path class="cls-6" d="M36.89,8.8a24.46,24.46,0,0,0-11.63,46L48.4,11.67A24.3,24.3,0,0,0,36.89,8.8Z" transform="translate(-0.2 -0.8)"/><path class="cls-7" d="M37.16,21.29,41,29l8.48,1.23a.18.18,0,0,1,.15.13.19.19,0,0,1,0,.19l-6.14,6L44.86,45a.18.18,0,0,1-.08.18.17.17,0,0,1-.19,0l-7.59-4-7.59,4a.18.18,0,0,1-.2,0,.16.16,0,0,1-.07-.18l1.44-8.45-6.12-6a.19.19,0,0,1-.05-.19.19.19,0,0,1,.15-.12L33,29l3.79-7.69A.19.19,0,0,1,37,21.2a.19.19,0,0,1,.17.09Z" transform="translate(-0.2 -0.8)"/><path class="cls-8" d="M49.43,30.15,41,28.91l-.55-1.11L31.8,43.92,37,41.17l7.58,4a.18.18,0,0,0,.2,0,.16.16,0,0,0,.07-.18l-1.44-8.5,6.11-6a.19.19,0,0,0,.06-.2A.17.17,0,0,0,49.43,30.15Z" transform="translate(-0.2 -0.8)"/></svg>