<?xml version="1.0" encoding="UTF-8"?>
<svg width="320px" height="68px" viewBox="0 0 320 68" version="1.1" xmlns="http://www.w3.org/2000/svg" xmlns:xlink="http://www.w3.org/1999/xlink">
    <!-- Generator: Sketch 59.1 (86144) - https://sketch.com -->
    <title>icon/header/title</title>
    <desc>Created with Sketch.</desc>
    <g id="Transaction_Download_MX" stroke="none" stroke-width="1" fill="none" fill-rule="evenodd">
        <g id="Transaction_Download_MX-05-00-00-05">
            <g id="header/title">
                <rect id="Rectangle" fill="#004481" fill-rule="evenodd" x="0" y="0" width="320" height="68"></rect>
                <g id="Foundations/Logo/White" transform="translate(128.000000, 25.000000)" fill="#FFFFFF" fill-rule="nonzero">
                    <path d="M8.53817528,2.37888997 C11.4403137,2.37888997 13.4591926,4.13947814 13.4591926,6.73844164 C13.4591926,8.28943598 12.744173,9.50508019 11.6085536,10.0919429 C11.6085536,10.0919429 14.2162721,10.8464807 14.2583321,14.1161445 C14.2583321,17.427727 12.1973933,19.1044776 8.24375544,19.1044776 L8.24375544,19.1044776 L0.336479814,19.1044776 C0.12617993,19.1044776 0,18.9368025 0,18.7691275 L0,18.7691275 L0,2.7142401 C0,2.50464627 0.168239907,2.37888997 0.336479814,2.37888997 L0.336479814,2.37888997 Z M25.4462859,2.37888997 C28.3484243,2.37888997 30.3673032,4.13947814 30.3673032,6.73844164 C30.3673032,8.28943598 29.6522836,9.50508019 28.5166642,10.0919429 C28.5166642,10.0919429 31.1664428,10.8464807 31.1664428,14.1161445 C31.1664428,17.427727 29.1055039,19.1044776 25.1518661,19.1044776 L25.1518661,19.1044776 L17.2445905,19.1044776 C17.0342906,19.1044776 16.9081107,18.9368025 16.9081107,18.7691275 L16.9081107,18.7691275 L16.9081107,2.7142401 C16.9081107,2.50464627 17.0763506,2.37888997 17.2445905,2.37888997 L17.2445905,2.37888997 Z M34.1947611,2.42080874 C34.320941,2.42080874 34.447121,2.50464627 34.4891809,2.5884838 L34.4891809,2.5884838 L39.9990379,13.0262565 C40.1252178,13.2358504 40.4616976,13.2358504 40.5878776,13.0262565 L40.5878776,13.0262565 L46.0977345,2.5884838 C46.1397945,2.4627275 46.2659744,2.42080874 46.3500944,2.42080874 L46.3500944,2.42080874 L48.9998729,2.42080874 C49.1681128,2.42080874 49.2942928,2.5884838 49.2101728,2.75615887 L49.2101728,2.75615887 L40.5458176,18.9368025 C40.4616976,19.1463964 40.1252178,19.1463964 39.9990379,18.9368025 L39.9990379,18.9368025 L31.3346827,2.75615887 C31.2505627,2.63040257 31.3767427,2.42080874 31.5449826,2.42080874 L31.5449826,2.42080874 Z M54.7620897,0.157195373 C54.8462097,-0.0523984575 55.1826895,-0.0523984575 55.3088694,0.157195373 L55.3088694,0.157195373 L63.9732246,16.3378391 C64.0573446,16.4635954 63.9311647,16.6731892 63.7629248,16.6731892 L63.7629248,16.6731892 L61.1131462,16.6731892 C60.9869663,16.6731892 60.8607864,16.5893517 60.8187264,16.5055141 L60.8187264,16.5055141 L55.3088694,6.06774138 C55.1826895,5.85814755 54.8462097,5.85814755 54.7200298,6.06774138 L54.7200298,6.06774138 L49.2101728,16.5055141 C49.1681128,16.6312704 49.0419329,16.6731892 48.9578129,16.6731892 L48.9578129,16.6731892 L46.3080344,16.6731892 C46.1397945,16.6731892 46.0136146,16.5055141 46.0977345,16.3378391 L46.0977345,16.3378391 Z M8.03345556,11.5590997 L3.0703783,11.5590997 C2.86007842,11.5590997 2.73389849,11.7267748 2.73389849,11.8944499 L2.73389849,11.8944499 L2.73389849,16.3378391 C2.73389849,16.5474329 2.9021384,16.6731892 3.0703783,16.6731892 L3.0703783,16.6731892 L8.03345556,16.6731892 C10.4308742,16.6731892 11.4403137,15.9186514 11.4403137,14.0742257 C11.4403137,12.2298 10.3888143,11.5590997 8.03345556,11.5590997 L8.03345556,11.5590997 Z M24.9836262,11.5590997 L20.0205489,11.5590997 C19.8102491,11.5590997 19.6840691,11.7267748 19.6840691,11.8944499 L19.6840691,11.8944499 L19.6840691,16.3378391 C19.6840691,16.5474329 19.852309,16.6731892 20.0205489,16.6731892 L20.0205489,16.6731892 L24.9836262,16.6731892 C27.3389849,16.6731892 28.3904843,15.9186514 28.3904843,14.0742257 C28.3904843,12.2298 27.3389849,11.5590997 24.9836262,11.5590997 L24.9836262,11.5590997 Z M7.99139558,4.8101784 L3.0703783,4.8101784 C2.9021384,4.8101784 2.77595847,4.97785346 2.77595847,5.10360976 L2.77595847,5.10360976 L2.77595847,8.83437994 C2.77595847,9.04397377 2.94419837,9.16973007 3.11243828,9.16973007 L3.11243828,9.16973007 L7.99139558,9.16973007 C9.79997458,9.16973007 10.7252941,8.41519228 10.7252941,6.98995423 C10.7252941,5.56471619 9.79997458,4.8101784 7.99139558,4.8101784 L7.99139558,4.8101784 Z M24.8995062,4.8101784 L20.0205489,4.8101784 C19.852309,4.8101784 19.6840691,4.97785346 19.6840691,5.10360976 L19.6840691,5.10360976 L19.6840691,8.83437994 C19.6840691,9.04397377 19.852309,9.16973007 20.0205489,9.16973007 L20.0205489,9.16973007 L24.8995062,9.16973007 C26.7080852,9.16973007 27.6334047,8.41519228 27.6334047,6.98995423 C27.6334047,5.56471619 26.7080852,4.8101784 24.8995062,4.8101784 L24.8995062,4.8101784 Z" id="BBVA"></path>
                </g>
            </g>
        </g>
    </g>
</svg>