<?xml version="1.0" encoding="UTF-8"?>
<svg width="45px" height="45px" viewBox="0 0 45 45" version="1.1" xmlns="http://www.w3.org/2000/svg" xmlns:xlink="http://www.w3.org/1999/xlink">
    <!-- Generator: Sketch 59.1 (86144) - https://sketch.com -->
    <title>Products and Services/Car-Insurance</title>
    <desc>Created with Sketch.</desc>
    <defs>
        <linearGradient x1="20.7421555%" y1="-5.69025236%" x2="81.0313779%" y2="105.690252%" id="linearGradient-1">
            <stop stop-color="#192647" offset="0%"></stop>
            <stop stop-color="#192647" stop-opacity="0.5" offset="0%"></stop>
            <stop stop-color="#192647" stop-opacity="0" offset="100%"></stop>
        </linearGradient>
        <linearGradient x1="100%" y1="50%" x2="0%" y2="50%" id="linearGradient-2">
            <stop stop-color="#043263" stop-opacity="0.6" offset="0%"></stop>
            <stop stop-color="#043263" stop-opacity="0" offset="100%"></stop>
        </linearGradient>
    </defs>
    <g id="Symbols" stroke="none" stroke-width="1" fill="none" fill-rule="evenodd">
        <g id="Account/Header_Saving_Account_Offer" transform="translate(-140.000000, -20.000000)">
            <g id="Products-and-Services/Deposit" transform="translate(128.000000, 8.000000)">
                <g id="Deposit" transform="translate(12.480000, 12.800000)">
                    <path d="M0.0533333333,14.1866667 L0.746666667,14.1866667 L0.746666667,14.8266667 L0.373333333,14.8266667 C0.196602213,14.8266667 0.0533333333,14.6833978 0.0533333333,14.5066667 L0.0533333333,14.1866667 L0.0533333333,14.1866667 Z" id="Path" fill="#028484" fill-rule="nonzero"></path>
                    <path d="M42.0266667,5.33333333 L8.53333333,5.33333333 C7.17839475,5.33333333 6.08,6.43172808 6.08,7.78666667 L6.08,14.4 L5.70666667,14.4 C5.52993555,14.4 5.38666667,14.5432689 5.38666667,14.72 L5.38666667,19.2 C5.38666667,19.3767311 5.52993555,19.52 5.70666667,19.52 L6.08,19.52 L6.08,29.5466667 L5.70666667,29.5466667 C5.52993555,29.5466667 5.38666667,29.6899355 5.38666667,29.8666667 L5.38666667,34.3466667 C5.38666667,34.5233978 5.52993555,34.6666667 5.70666667,34.6666667 L6.08,34.6666667 L6.08,41.28 C6.08,42.6349386 7.17839475,43.7333333 8.53333333,43.7333333 L42.0266667,43.7333333 C43.3816053,43.7333333 44.48,42.6349386 44.48,41.28 L44.48,7.78666667 C44.48,6.43172808 43.3816053,5.33333333 42.0266667,5.33333333 Z" id="Path" fill="url(#linearGradient-1)" fill-rule="nonzero"></path>
                    <rect id="Rectangle" fill="#49A5E6" fill-rule="nonzero" x="0.746666667" y="0" width="38.4" height="38.4" rx="2.76"></rect>
                    <rect id="Rectangle" fill="#1464A5" fill-rule="nonzero" x="4.48" y="3.73333333" width="30.9333333" height="30.9333333" rx="1.92"></rect>
                    <path d="M33.7066667,3.73333333 L23.7706667,3.73333333 L6.51946667,34.6666667 L33.7066667,34.6666667 C34.6492326,34.6666667 35.4133333,33.902566 35.4133333,32.96 L35.4133333,5.44 C35.4133333,4.49743403 34.6492326,3.73333333 33.7066667,3.73333333 Z" id="Path" fill="url(#linearGradient-2)" fill-rule="nonzero"></path>
                    <path d="M0.373333333,9.06666667 L4.85333333,9.06666667 C5.03006445,9.06666667 5.17333333,9.20993555 5.17333333,9.38666667 L5.17333333,13.8666667 C5.17333333,14.0433978 5.03006445,14.1866667 4.85333333,14.1866667 L0.0533333333,14.1866667 L0.0533333333,9.38666667 C0.0533333333,9.20993555 0.196602213,9.06666667 0.373333333,9.06666667 L0.373333333,9.06666667 Z" id="Path" fill="#2DCCCD" fill-rule="nonzero"></path>
                    <circle id="Oval" fill="#043263" fill-rule="nonzero" cx="25.1733333" cy="18.7733333" r="5.6544"></circle>
                    <rect id="Rectangle" fill="#2DCCCD" fill-rule="nonzero" x="24.1066667" y="11.3066667" width="2.13333333" height="14.9333333" rx="0.3324"></rect>
                    <path d="M24.4386913,11.3069724 L25.9072246,11.3069724 C26.090804,11.3069724 26.2396246,11.4557929 26.2396246,11.6393724 L26.2396246,25.9079057 C26.2396246,26.0914851 26.090804,26.2403057 25.9072246,26.2403057 L24.4386913,26.2403057 C24.2551118,26.2403057 24.1062913,26.0914851 24.1062913,25.9079057 L24.1062913,11.6393724 C24.1062913,11.4557929 24.2551118,11.3069724 24.4386913,11.3069724 Z" id="Rectangle" fill="#2DCCCD" fill-rule="nonzero" transform="translate(25.172958, 18.773639) rotate(60.000000) translate(-25.172958, -18.773639) "></path>
                    <path d="M24.4386913,11.3069724 L25.9072246,11.3069724 C26.090804,11.3069724 26.2396246,11.4557929 26.2396246,11.6393724 L26.2396246,25.9079057 C26.2396246,26.0914851 26.090804,26.2403057 25.9072246,26.2403057 L24.4386913,26.2403057 C24.2551118,26.2403057 24.1062913,26.0914851 24.1062913,25.9079057 L24.1062913,11.6393724 C24.1062913,11.4557929 24.2551118,11.3069724 24.4386913,11.3069724 Z" id="Rectangle" fill="#2DCCCD" fill-rule="nonzero" transform="translate(25.172958, 18.773639) rotate(120.000000) translate(-25.172958, -18.773639) "></path>
                    <circle id="Oval" fill="#2DCCCD" fill-rule="nonzero" cx="25.1733333" cy="18.7733333" r="3.73333333"></circle>
                    <circle id="Oval" fill="#1464A5" fill-rule="nonzero" cx="25.1733333" cy="18.7733333" r="1.81333333"></circle>
                    <path d="M0.0533333333,14.1866667 L0.373333333,14.1866667 L0.373333333,14.1866667 C0.373333333,14.3633978 0.230064453,14.5066667 0.0533333333,14.5066667 L0.0533333333,14.5066667 L0.0533333333,14.1866667 L0.0533333333,14.1866667 Z" id="Path" fill="#2DCCCD" fill-rule="nonzero"></path>
                    <path d="M0.0533333333,29.3333333 L0.746666667,29.3333333 L0.746666667,29.9733333 L0.373333333,29.9733333 C0.196602213,29.9733333 0.0533333333,29.8300645 0.0533333333,29.6533333 L0.0533333333,29.3333333 L0.0533333333,29.3333333 Z" id="Path" fill="#028484" fill-rule="nonzero"></path>
                    <path d="M0.373333333,24.2133333 L4.85333333,24.2133333 C5.03006445,24.2133333 5.17333333,24.3566022 5.17333333,24.5333333 L5.17333333,29.0133333 C5.17333333,29.1900645 5.03006445,29.3333333 4.85333333,29.3333333 L0.0533333333,29.3333333 L0.0533333333,24.5333333 C0.0533333333,24.3566022 0.196602213,24.2133333 0.373333333,24.2133333 L0.373333333,24.2133333 Z" id="Path" fill="#2DCCCD" fill-rule="nonzero"></path>
                    <path d="M0.0533333333,29.3333333 L0.373333333,29.3333333 L0.373333333,29.3333333 C0.373333333,29.5100645 0.230064453,29.6533333 0.0533333333,29.6533333 L0.0533333333,29.6533333 L0.0533333333,29.3333333 L0.0533333333,29.3333333 Z" id="Path" fill="#2DCCCD" fill-rule="nonzero"></path>
                </g>
            </g>
        </g>
    </g>
</svg>