<?xml version="1.0" encoding="UTF-8"?>
<svg width="54px" height="36px" viewBox="0 0 54 36" version="1.1" xmlns="http://www.w3.org/2000/svg" xmlns:xlink="http://www.w3.org/1999/xlink">
    <!-- Generator: Sketch 58 (84663) - https://sketch.com -->
    <title>Communication/Request-Progress</title>
    <desc>Created with Sketch.</desc>
    <defs>
        <linearGradient x1="37.0482182%" y1="41.9941738%" x2="65.4528339%" y2="75.4001276%" id="linearGradient-1">
            <stop stop-color="#192647" offset="0%"></stop>
            <stop stop-color="#192647" stop-opacity="0.5" offset="0%"></stop>
            <stop stop-color="#192647" stop-opacity="0" offset="100%"></stop>
        </linearGradient>
        <linearGradient x1="100%" y1="50%" x2="0.00423190859%" y2="50%" id="linearGradient-2">
            <stop stop-color="#043263" offset="0%"></stop>
            <stop stop-color="#043263" stop-opacity="0" offset="100%"></stop>
        </linearGradient>
        <linearGradient x1="99.9999987%" y1="49.9987795%" x2="-21.2521043%" y2="49.9987795%" id="linearGradient-3">
            <stop stop-color="#043263" offset="0%"></stop>
            <stop stop-color="#043263" stop-opacity="0" offset="100%"></stop>
        </linearGradient>
        <linearGradient x1="20.4471263%" y1="42.8573998%" x2="79.5627659%" y2="57.1470966%" id="linearGradient-4">
            <stop stop-color="#EAF9FA" offset="0%"></stop>
            <stop stop-color="#EAF9FA" stop-opacity="0.2" offset="100%"></stop>
            <stop stop-color="#EAF9FA" stop-opacity="0.5" offset="100%"></stop>
        </linearGradient>
        <linearGradient x1="26.6091984%" y1="29.6275052%" x2="60.9401744%" y2="53.0217514%" id="linearGradient-5">
            <stop stop-color="#FADE8E" offset="0%"></stop>
            <stop stop-color="#FADE8E" stop-opacity="0.4" offset="100%"></stop>
        </linearGradient>
    </defs>
    <g id="Symbols" stroke="none" stroke-width="1" fill="none" fill-rule="evenodd">
        <g id="Component/Headers/Header-Category/Action" transform="translate(-136.000000, -93.000000)">
            <g id="Products-and-Services/Car-Loan-Dollar" transform="translate(128.000000, 76.000000)">
                <g id="Car-Loan-Dollar" transform="translate(8.426667, 17.280000)">
                    <path d="M52.464,24.5706667 L52.2666667,24.5706667 L52.2666667,23.7173333 L52.2666667,23.7173333 C52.2666667,23.7173333 52.2666667,23.7098667 52.2666667,23.7066667 C52.2639795,23.4139801 52.130076,23.137951 51.9018667,22.9546667 C51.8478248,22.9099253 51.7887611,22.8716234 51.7258667,22.8405333 L51.6842667,22.6730667 C51.6666012,22.604634 51.6448738,22.5373147 51.6192,22.4714667 C51.3938499,21.8866298 50.8700002,21.4692636 50.2496,21.3802667 L45.3429333,20.6794667 L45.3429333,20.6794667 L42.496,17.9957333 C45.1287793,17.3536 47.0527849,15.0951871 47.2684243,12.3938242 C47.4840637,9.69246128 45.942701,7.15742135 43.4451314,6.10575208 C40.9475618,5.05408281 38.0570943,5.72298066 36.2754344,7.76492827 C34.4937745,9.80687587 34.2227628,12.7613266 35.6032,15.0933333 L25.5626667,15.0933333 C24.3874866,15.0948833 23.2714661,15.6090707 22.5066667,16.5013333 L22.4725333,16.544 L22.4181333,16.6037333 L22.4106667,16.6144 L22.3712,16.6144 L19.0506667,20.8650667 L18.5173333,21.5424 L18.5173333,21.5424 L11.6458667,22.1002667 C10.1078556,22.1898586 8.72042696,23.0538884 7.9616,24.3946667 L7.7312,24.4032 C7.60025076,24.40841 7.48571401,24.4929389 7.44213333,24.6165333 L7.04,25.7514667 C7.00953515,25.8420905 7.02118729,25.9415892 7.07176634,26.0227221 C7.12234539,26.103855 7.20655238,26.1581223 7.30133333,26.1706667 L6.912,27.4506667 C6.51039636,27.5999503 6.21011682,27.9402672 6.112,28.3573333 L5.67466667,30.2346667 L5.67466667,30.2346667 C5.57963322,30.6432748 5.67634547,31.0729134 5.93729739,31.4013887 C6.19824931,31.729864 6.59488611,31.9212324 7.0144,31.9210667 L11.2810667,31.9210667 C11.9994757,33.831439 13.8267449,35.0964848 15.8677333,35.0964848 C17.9087218,35.0964848 19.735991,33.831439 20.4544,31.9210667 L38.9824,31.9210667 C39.7721035,34.0139346 41.878842,35.3063736 44.1023607,35.0620529 C46.3258793,34.8177323 48.1017141,33.0986756 48.4181333,30.8842667 L50.5418667,30.4170667 C51.5468393,30.1970096 52.26397,29.3082464 52.2666667,28.2794667 L52.2538667,28.2794667 L52.2666667,28.2794667 L52.2666667,28.2794667 L52.2666667,26.3008 L52.4661333,26.3008 C52.5519348,26.3008119 52.6341469,26.2663666 52.6943142,26.2051965 C52.7544815,26.1440264 52.7875634,26.0612562 52.786178,25.9754667 L52.786178,24.896 C52.7875715,24.8098392 52.7541991,24.7267399 52.6935676,24.6655062 C52.6329362,24.6042724 52.5501708,24.5700802 52.464,24.5706667 Z" id="Path" fill="url(#linearGradient-1)" fill-rule="nonzero"></path>
                    <path d="M1.94773333,19.6864 L0.4544,24.6133333 L33.6672,25.4346667 L46.6453333,19.3781333 L46.0618667,17.0453333 C45.8908729,16.3626564 45.3238515,15.8512832 44.6272,15.7514667 L39.7205333,15.0506667 L35.1210667,10.7168 C34.1799312,9.91020495 32.9813551,9.46666667 31.7418667,9.46666667 L19.9466667,9.46666667 C18.7676791,9.46720364 17.6479607,9.98360697 16.8821333,10.88 L12.8970667,15.9210667 L6.02666667,16.4778667 C4.12924403,16.5875946 2.50124834,17.8681937 1.94773333,19.6864 L1.94773333,19.6864 Z" id="Path" fill="#1464A5" fill-rule="nonzero"></path>
                    <path d="M0.0597333333,24.6133333 C-0.0352467688,25.022046 0.0614538574,25.4517611 0.322360453,25.7803871 C0.583267048,26.109013 0.979862973,26.3006317 1.39946667,26.3008 L37.9914667,26.3008 C38.0546412,26.30066 38.1176048,26.2935051 38.1792,26.2794667 L44.9226667,24.7968 C45.9286807,24.5746378 46.6453333,23.6830525 46.6453333,22.6528 L46.6453333,22.6528 L37.8986667,24.5728 L0.0608,24.6165333 L0.0597333333,24.6133333 Z" id="Path" fill="#1464A5" fill-rule="nonzero"></path>
                    <path d="M35.6608,15.728 C34.9092729,15.853649 34.1486251,15.9168 33.3866667,15.9168 L12.8970667,15.9168 L16.7936,10.9781333 C17.6157041,10.0190676 18.8157381,9.46697404 20.0789333,9.46666667 L31.744,9.46666667 C32.9834884,9.46679234 34.1820645,9.91020495 35.1232,10.7168 L39.7226667,15.0506667 L35.6608,15.728 Z" id="Path" fill="#1464A5" fill-rule="nonzero"></path>
                    <path d="M46.6453333,19.3781333 L46.0618667,17.0453333 C45.8908729,16.3626564 45.3238515,15.8512832 44.6272,15.7514667 L39.7205333,15.0506667 L35.1210667,10.7168 C34.1799312,9.91020495 32.9813551,9.46666667 31.7418667,9.46666667 L29.3536,9.46666667 L21.44,24.5493333 L33.8730667,24.5493333 L46.6453333,19.3781333 Z" id="Path" fill="url(#linearGradient-2)" fill-rule="nonzero"></path>
                    <path d="M0.0597333333,24.6133333 L38.3050667,24.5493333 L46.6453337,22.6528 L46.6453337,18.0896 C46.6453337,17.8222463 46.5366056,17.5663939 46.3436716,17.3813141 C46.1507375,17.1962344 45.8905796,17.0979874 45.6234667,17.1093333 L1.6128,21.76 C1.07026608,21.8153885 0.622404807,22.2084446 0.497066667,22.7392 L0.0597333333,24.6133333 Z" id="Path" fill="#004481" fill-rule="nonzero"></path>
                    <path d="M45.6234667,17.1093333 L18.0864,19.8474667 L15.6021333,24.5856 L38.3050667,24.5493333 L46.6453337,22.6528 L46.6453337,18.0896 C46.6453337,17.8222463 46.5366056,17.5663939 46.3436716,17.3813141 C46.1507375,17.1962344 45.8905796,17.0979874 45.6234667,17.1093333 L45.6234667,17.1093333 Z" id="Path" fill="url(#linearGradient-3)" fill-rule="nonzero"></path>
                    <path d="M1.72586667,20.5493338 L2.736,20.5493338 C3.68501144,20.5500125 4.48843301,19.8491263 4.61653333,18.9088 L4.61653333,18.9088 C4.62338098,18.8539571 4.60599175,18.7988525 4.56890583,18.7578736 C4.5318199,18.7168946 4.47871877,18.6941093 4.42346667,18.6954667 L2.11093333,18.7733333 C1.97998409,18.7785433 1.86544735,18.8630723 1.82186667,18.9866667 L1.42506667,20.1216 C1.3900561,20.2195207 1.40481116,20.3283475 1.46463123,20.4134108 C1.5244513,20.4984741 1.62187543,20.5491645 1.72586667,20.5493338 Z" id="Path" fill="#D4EDFC" fill-rule="nonzero"></path>
                    <path d="M30.352,10.9866667 L16.7936,10.9781333 L12.9205333,15.8848 C12.9164864,15.8898486 12.9156424,15.8967516 12.9183539,15.9026264 C12.9210654,15.9085013 12.9268659,15.9123376 12.9333333,15.9125333 L35.8666667,15.3194667 C36.0033107,15.3158985 36.1233641,15.2278308 36.1677994,15.0985644 C36.2122347,14.9692979 36.1717033,14.8260292 36.0661333,14.7392 L32.8448,11.84 C32.1316506,11.2866873 31.2546279,10.9864655 30.352,10.9866667 Z" id="Path" fill="#49A5E6" fill-rule="nonzero"></path>
                    <path d="M46.8448,18.944 L45.3514667,18.944 C44.8881374,18.9383484 44.4988276,19.2909133 44.4586667,19.7525333 C44.4427265,19.9913989 44.5264848,20.2261902 44.6900096,20.4010344 C44.8535344,20.5758786 45.0822032,20.6751409 45.3216,20.6752 L46.8437333,20.6752 C46.9304558,20.6766578 47.0140553,20.6428501 47.075386,20.5815194 C47.1367167,20.5201887 47.1705245,20.4365891 47.1690667,20.3498667 L47.1690667,19.2693333 C47.170517,19.1827988 47.1368542,19.0993668 47.075757,19.0380686 C47.0146598,18.9767704 46.9313389,18.9428339 46.8448,18.944 L46.8448,18.944 Z" id="Path" fill="#DA3951" fill-rule="nonzero"></path>
                    <circle id="Oval" fill="#D4EDFC" fill-rule="nonzero" cx="10.2549333" cy="24.5696" r="4.08426667"></circle>
                    <path d="M5.35253333,24.5696 C5.3554781,21.8633646 7.55118203,19.6716386 10.2574184,19.6736 C12.9636547,19.6755639 15.1561773,21.8704723 15.1551971,24.5767092 C15.1542163,27.282946 12.9601037,29.4762667 10.2538667,29.4762667 C7.54607252,29.4733234 5.35253333,27.2773957 5.35253333,24.5696 L5.35253333,24.5696 Z M7.1392,24.5696 C7.1392,26.2897829 8.53368377,27.6842667 10.2538667,27.6842667 C11.9740496,27.6842667 13.3685333,26.2897829 13.3685333,24.5696 C13.3685333,22.8494171 11.9740496,21.4549333 10.2538667,21.4549333 C8.5344149,21.4566972 7.14096384,22.8501482 7.1392,24.5696 Z" id="Shape" fill="#043263" fill-rule="nonzero"></path>
                    <circle id="Oval" fill="#D4EDFC" fill-rule="nonzero" cx="37.9488" cy="24.5696" r="4.08426667"></circle>
                    <path d="M33.0464,24.5696 C33.0493448,21.8633646 35.2450487,19.6716386 37.951285,19.6736 C40.6575213,19.6755639 42.850044,21.8704723 42.8490638,24.5767092 C42.8480829,27.282946 40.6539704,29.4762667 37.9477333,29.4762667 C35.2399392,29.4733234 33.0464,27.2773957 33.0464,24.5696 L33.0464,24.5696 Z M34.8330667,24.5696 C34.8330667,26.2897829 36.2275504,27.6842667 37.9477333,27.6842667 C39.6679162,27.6842667 41.0624,26.2897829 41.0624,24.5696 C41.0624,22.8494171 39.6679162,21.4549333 37.9477333,21.4549333 C36.2282816,21.4566972 34.8348305,22.8501482 34.8330667,24.5696 L34.8330667,24.5696 Z" id="Shape" fill="#043263" fill-rule="nonzero"></path>
                    <polygon id="Path" fill="#043263" fill-rule="nonzero" points="25.6469333 10.9877333 27.3781333 10.9877333 29.1082667 15.4976 25.8634667 15.5946667"></polygon>
                    <g id="Group" opacity="0.5" transform="translate(12.906667, 10.986667)" fill="url(#linearGradient-4)" fill-rule="nonzero">
                        <polygon id="Path" points="10.8 0.00106666667 3.84 0.00106666667 0.0170666667 4.9024 8.05546667 4.70613333"></polygon>
                    </g>
                    <path d="M41.648,6.28053333 C41.648,9.74272949 38.8417507,12.5496136 35.3795546,12.5503986 C31.9173585,12.5511832 29.1098377,9.74557164 29.1082667,6.28337584 C29.1066969,2.82118004 31.9116713,0.0130227035 35.3738667,0.010665849 L35.3738667,0.010665849 C37.0373912,0.00981776117 38.6330881,0.669982281 39.8097777,1.84587172 C40.9864674,3.02176115 41.6477173,4.61700865 41.648,6.28053333" id="Path" fill="#F8CD51" fill-rule="nonzero"></path>
                    <path d="M38.3146667,0.746666667 C35.2575129,-0.877197685 31.4627979,0.284712951 29.8389334,3.34186673 C28.215069,6.39902051 29.3769796,10.1937355 32.4341333,11.8176 L38.3146667,0.746666667 Z" id="Path" fill="url(#linearGradient-5)" fill-rule="nonzero"></path>
                    <path d="M36.1461333,7.52 C36.1461333,7.10506667 35.9818667,6.94186667 35.2053333,6.58773333 C34.0842667,6.07893333 33.7482667,5.69066667 33.7482667,4.90666667 C33.7482667,4.13866667 34.3776,3.5776 35.0154667,3.41333333 L35.0154667,2.464 L35.0506667,2.464 L35.9733333,2.86933333 L35.9733333,3.39626667 C36.264504,3.43848204 36.5452284,3.53470975 36.8010667,3.68 L36.8437333,3.70666667 L36.8789333,3.72373333 L36.8704,3.75786667 L36.8618667,3.81013333 L36.7402667,4.5344 L36.7146667,4.672 L36.6976,4.76693333 L36.6197333,4.71573333 L36.5077333,4.62933333 C36.2137997,4.39488244 35.8490508,4.26703232 35.4730667,4.26666667 C34.9898667,4.26666667 34.7264,4.48 34.7264,4.8448 C34.7264,5.18933333 34.8992,5.34506667 35.6586667,5.69813333 C36.7882667,6.20693333 37.1413333,6.6208 37.1413333,7.45706667 C37.1323353,8.17794131 36.6528892,8.80810759 35.9605333,9.00906667 L35.9605333,10.1045333 L35.8826667,10.1045333 L35.0026667,9.6128 L35.0026667,9.07946667 C34.6826667,9.0368 34.1141333,8.9152 33.7525333,8.7264 L33.7002667,8.69973333 L33.6661333,8.68266667 L33.6661333,8.64853333 L33.6746667,8.58773333 L33.7813333,7.84106667 L33.7984,7.712 L33.8069333,7.6256 L33.8762667,7.6768 L33.9829333,7.74613333 C34.3762397,8.01129426 34.8367847,8.15926055 35.3109333,8.1728 C35.8197333,8.1728 36.1482667,7.9232 36.1482667,7.50933333" id="Path" fill="#FEF5DC" fill-rule="nonzero"></path>
                </g>
            </g>
        </g>
    </g>
</svg>