<svg xmlns="http://www.w3.org/2000/svg" width="116" height="116" viewBox="0 0 116 116">
  <defs>
    <linearGradient id="error-a" x1="6.336%" x2="47.616%" y1="12.104%" y2="81.056%">
      <stop offset="0%" stop-color="#1A2542" stop-opacity=".5"/>
      <stop offset="100%" stop-color="#1A2542" stop-opacity="0"/>
    </linearGradient>
  </defs>
  <g fill="none" fill-rule="evenodd" transform="translate(22.233 26.293)">
    <path fill="url(#error-a)" fill-rule="nonzero" d="M19.7374,76.6605335 L84.2082667,76.6605335 C85.4729249,76.6605335 86.6421566,75.9880243 87.2772248,74.8943841 C87.9122931,73.800744 87.9171603,72.4517275 87.29,71.3535333 L55.0574667,14.8866667 C54.426236,13.7798284 53.2499166,13.0965148 51.9757333,13.0965148 C50.70155,13.0965148 49.5252307,13.7798284 48.894,14.8866667 L16.6556667,71.3535333 C16.0285064,72.4517275 16.0333736,73.800744 16.6684418,74.8943841 C17.3035101,75.9880243 18.4727418,76.6605335 19.7374,76.6605335 Z"/>
    <path fill="#DA3951" fill-rule="nonzero" d="M3.65786667,63.5718667 L68.1287333,63.5718667 C69.3934859,63.5718667 70.5624764,62.8980917 71.1974191,61.8042695 C71.8323618,60.7104473 71.8373322,59.3614045 71.2104667,58.2629333 L38.976,1.79026667 C38.3447693,0.68342842 37.16845,0.000114847732 35.8942667,0.000114847732 C34.6200834,0.000114847732 33.443764,0.68342842 32.8125333,1.79026667 L0.58,58.2629333 C-0.0465250117,59.3608051 -0.0419257722,60.7090281 0.592074986,61.8025997 C1.22607574,62.8961714 2.39380468,63.5700672 3.65786667,63.5718667 L3.65786667,63.5718667 Z"/>
    <path fill="#FFF" fill-rule="nonzero" d="M35.8923333,45.414 C35.1500463,45.414 34.4381896,45.1189955 33.9134947,44.593938 C33.3887998,44.0688805 33.094287,43.3568202 33.0948,42.6145333 L33.0948,19.2212 C33.0680578,18.2038548 33.5955229,17.2521327 34.4723827,16.7355834 C35.3492425,16.219034 36.4373575,16.219034 37.3142173,16.7355834 C38.1910771,17.2521327 38.7185422,18.2038548 38.6918,19.2212 L38.6918,42.6145333 C38.6918,44.1606361 37.4384361,45.414 35.8923333,45.414 Z"/>
    <circle cx="35.892" cy="53.037" r="3.265" fill="#FFF" fill-rule="nonzero"/>
  </g>
</svg>
