<?xml version="1.0" encoding="UTF-8"?>
<svg width="124px" height="109px" viewBox="0 0 124 109" version="1.1" xmlns="http://www.w3.org/2000/svg" xmlns:xlink="http://www.w3.org/1999/xlink">
    <!-- Generator: Sketch 62 (91390) - https://sketch.com -->
    <title>Clock</title>
    <desc>Created with Sketch.</desc>
    <defs>
        <linearGradient x1="30.6601838%" y1="16.7141351%" x2="69.320386%" y2="79.6416086%" id="linearGradient-1">
            <stop stop-color="#192647" offset="0%"></stop>
            <stop stop-color="#192647" stop-opacity="0.5" offset="0%"></stop>
            <stop stop-color="#192647" stop-opacity="0" offset="100%"></stop>
        </linearGradient>
        <linearGradient x1="25.6309059%" y1="11.1129961%" x2="76.0194302%" y2="73.8741177%" id="linearGradient-2">
            <stop stop-color="#FFFFFF" stop-opacity="0.5" offset="0%"></stop>
            <stop stop-color="#ECF7F8" stop-opacity="0.2" offset="100%"></stop>
            <stop stop-color="#FFFFFF" stop-opacity="0" offset="100%"></stop>
        </linearGradient>
        <linearGradient x1="100%" y1="50%" x2="0%" y2="50%" id="linearGradient-3">
            <stop stop-color="#C49735" stop-opacity="0.4" offset="0%"></stop>
            <stop stop-color="#C49735" stop-opacity="0" offset="100%"></stop>
        </linearGradient>
        <linearGradient x1="100%" y1="50%" x2="0%" y2="50%" id="linearGradient-4">
            <stop stop-color="#028484" stop-opacity="0.4" offset="0%"></stop>
            <stop stop-color="#028484" stop-opacity="0" offset="100%"></stop>
        </linearGradient>
    </defs>
    <g id="Page-1" stroke="none" stroke-width="1" fill="none" fill-rule="evenodd">
        <g id="CoDi_Presencial-01-00-00-07-Copy" transform="translate(-103.000000, -107.000000)">
            <g id="Clock" transform="translate(103.000000, 107.000000)">
                <g transform="translate(0.600000, 0.280000)">
                    <path d="M118.352727,10.3646833 L94.1018182,10.3646833 C91.4694545,10.3646833 89.3345455,12.4998081 89.3345455,15.1324376 L89.3345455,16.2103647 C75.1778182,8.35393474 57.9741818,8.41612284 43.8796364,16.3554702 L26.3236364,33.9339731 C18.6752727,47.5117083 18.3229091,64.0330134 25.3909091,77.9424184 L15.1309091,77.9424184 C12.4985455,77.9424184 10.3636364,80.0775432 10.3636364,82.7101727 L10.3636364,82.7101727 L10.3636364,98.4644914 C10.3636364,101.097121 12.4985455,103.232246 15.1309091,103.232246 L15.1309091,103.232246 L38.5527273,103.232246 L43.092,107.751248 C43.3407273,108 43.7345455,108 43.9625455,107.751248 C44.0869091,107.626871 44.1490909,107.481766 44.1490909,107.315931 L44.1490909,101.283685 L44.1490909,101.283685 L44.1490909,97.3658349 C66.576,109.824184 94.848,101.739731 107.325818,79.3105566 C114.829091,65.7950096 115.119273,49.41881 108.092727,35.6337812 L118.352727,35.6337812 C120.985091,35.6337812 123.12,33.4986564 123.12,30.8660269 L123.12,15.1117083 C123.12,12.4998081 120.985091,10.3646833 118.352727,10.3646833 Z" id="Path" fill="url(#linearGradient-1)" fill-rule="nonzero"></path>
                    <g id="Group" transform="translate(9.949091, 0.000000)">
                        <ellipse id="Oval" fill="#4EA5E2" fill-rule="nonzero" cx="46.4290909" cy="46.4337812" rx="40.2109091" ry="40.2149712"></ellipse>
                        <path d="M46.4290909,0 C20.8309091,0 0,20.8330134 0,46.4337812 C0,72.0345489 20.8309091,92.8675624 46.4290909,92.8675624 C72.0272727,92.8675624 92.8581818,72.0345489 92.8581818,46.4337812 C92.8581818,20.8330134 72.0272727,0 46.4290909,0 Z M46.4290909,86.6487524 C24.2509091,86.6487524 6.21818182,68.6142035 6.21818182,46.4337812 C6.21818182,24.2533589 24.2509091,6.21880998 46.4290909,6.21880998 C68.6072727,6.21880998 86.64,24.2533589 86.64,46.4337812 C86.64,68.6142035 68.6072727,86.6487524 46.4290909,86.6487524 Z" id="Shape" fill="#1B65A2" fill-rule="nonzero"></path>
                        <g transform="translate(6.010909, 6.011516)" id="Path">
                            <path d="M60.5236364,5.36890595 L20.1469091,75.371977 C26.3029091,78.9581574 33.288,80.8238004 40.4181818,80.8238004 C62.7207273,80.8238004 80.8156364,62.7270633 80.8156364,40.4222649 C80.8156364,25.953167 73.0843636,12.5827255 60.5236364,5.36890595 Z"></path>
                            <path d="M40.4181818,0.0205565899 C18.1156364,0.0205565899 0.0207272727,18.1174664 0.0207272727,40.4222649 C0.0207272727,54.8291747 7.68981818,68.137428 20.1469091,75.371977 L60.5236364,5.36890595 C54.4090909,1.84491363 47.4654545,3.46944695e-18 40.4181818,0.0205565899 Z" fill="url(#linearGradient-2)" fill-rule="nonzero" opacity="0.5"></path>
                        </g>
                        <ellipse id="Oval" fill="#FFFFFF" fill-rule="nonzero" cx="46.4290909" cy="13.7228407" rx="1.90690909" ry="1.90710173"></ellipse>
                        <ellipse id="Oval" fill="#FFFFFF" fill-rule="nonzero" cx="46.4290909" cy="79.1447217" rx="1.90690909" ry="1.90710173"></ellipse>
                        <ellipse id="Oval" fill="#FFFFFF" fill-rule="nonzero" cx="79.1367273" cy="46.4337812" rx="1.90690909" ry="1.90710173"></ellipse>
                        <ellipse id="Oval" fill="#FFFFFF" fill-rule="nonzero" cx="14.2810909" cy="46.4337812" rx="1.90690909" ry="1.90710173"></ellipse>
                        <ellipse id="Oval" fill="#FFFFFF" fill-rule="nonzero" cx="30.0752727" cy="18.096737" rx="1.90690909" ry="1.90710173"></ellipse>
                        <ellipse id="Oval" fill="#FFFFFF" fill-rule="nonzero" cx="62.7829091" cy="74.7708253" rx="1.90690909" ry="1.90710173"></ellipse>
                        <ellipse id="Oval" fill="#FFFFFF" fill-rule="nonzero" cx="74.7632727" cy="30.0783109" rx="1.90690909" ry="1.90710173"></ellipse>
                        <ellipse id="Oval" fill="#FFFFFF" fill-rule="nonzero" cx="18.0949091" cy="62.7892514" rx="1.90690909" ry="1.90710173"></ellipse>
                        <ellipse id="Oval" fill="#FFFFFF" fill-rule="nonzero" cx="18.0949091" cy="30.0783109" rx="1.90690909" ry="1.90710173"></ellipse>
                        <ellipse id="Oval" fill="#FFFFFF" fill-rule="nonzero" cx="74.7632727" cy="62.7892514" rx="1.90690909" ry="1.90710173"></ellipse>
                        <ellipse id="Oval" fill="#FFFFFF" fill-rule="nonzero" cx="62.7829091" cy="18.096737" rx="1.90690909" ry="1.90710173"></ellipse>
                        <ellipse id="Oval" fill="#FFFFFF" fill-rule="nonzero" cx="30.0752727" cy="74.7708253" rx="1.90690909" ry="1.90710173"></ellipse>
                        <polygon id="Path" fill="#1B65A2" fill-rule="nonzero" points="49.7869091 50.9527831 43.0298182 50.7040307 42.864 19.4026871 49.7869091 23.8387716"></polygon>
                        <path d="M61.1869091,52.984261 C62.9072727,53.8134357 63.6534545,55.8863724 62.8243636,57.6069098 C62.0367273,59.2652591 60.1090909,60.0115163 58.4094545,59.3274472 L45.0818182,53.4610365 C43.3614545,52.6111324 42.6567273,50.5381958 43.5065455,48.8176583 C44.2941818,47.2007678 46.2010909,46.4752399 47.88,47.1178503 L61.1869091,52.984261 Z" id="Path" fill="#083361" fill-rule="nonzero"></path>
                    </g>
                    <path d="M83.7381818,0 L107.989091,0 C110.621455,0 112.756364,2.13512476 112.756364,4.76775432 L112.756364,20.5220729 C112.756364,23.1547025 110.621455,25.2898273 107.989091,25.2898273 L107.989091,25.2898273 L84.5672727,25.2898273 L80.028,29.8295585 C79.7792727,30.0783109 79.3854545,30.0783109 79.1574545,29.8295585 C79.0330909,29.7051823 78.9709091,29.5600768 78.9709091,29.3942418 L78.9709091,23.3619962 L78.9709091,4.76775432 C78.9709091,2.13512476 81.1058182,0 83.7381818,0 L83.7381818,0 Z" id="Path" fill="#F8CD50" fill-rule="nonzero"></path>
                    <path d="M107.989091,0 L104.009455,0 L86.2254545,25.2898273 L107.989091,25.2898273 C110.621455,25.2898273 112.756364,23.1547025 112.756364,20.5220729 L112.756364,20.5220729 L112.756364,4.76775432 C112.756364,2.13512476 110.621455,0 107.989091,0 Z" id="Path" fill="url(#linearGradient-3)" fill-rule="nonzero"></path>
                    <path d="M29.0181818,67.5777351 L4.76727273,67.5777351 C2.13490909,67.5777351 0,69.7128599 0,72.3454894 L0,88.0998081 C0,90.7324376 2.13490909,92.8675624 4.76727273,92.8675624 L28.1890909,92.8675624 L32.7283636,97.3865643 C32.9770909,97.6353167 33.3709091,97.6353167 33.5989091,97.3865643 C33.7232727,97.2621881 33.7854545,97.1170825 33.7854545,96.9512476 L33.7854545,72.3454894 C33.7854545,69.7128599 31.6505455,67.5777351 29.0181818,67.5777351 Z" id="Path" fill="#2DCCCD" fill-rule="nonzero"></path>
                    <path d="M29.0181818,67.5777351 L25.0385455,67.5777351 L7.25454545,92.8675624 L28.1890909,92.8675624 L32.7283636,97.3865643 C32.9770909,97.6353167 33.3709091,97.6353167 33.5989091,97.3865643 C33.7232727,97.2621881 33.7854545,97.1170825 33.7854545,96.9512476 L33.7854545,72.3454894 C33.7854545,69.7128599 31.6505455,67.5777351 29.0181818,67.5777351 Z" id="Path" fill="url(#linearGradient-4)" fill-rule="nonzero"></path>
                    <path d="M106.123636,10.9865643 L85.6036364,10.9865643 C85.0232727,10.9865643 84.5672727,10.5305182 84.5672727,9.95009597 C84.5672727,9.3696737 85.0232727,8.91362764 85.6036364,8.91362764 L106.123636,8.91362764 C106.704,8.91362764 107.16,9.3696737 107.16,9.95009597 C107.16,10.5305182 106.704,10.9865643 106.123636,10.9865643 Z" id="Path" fill="#FFFFFF" fill-rule="nonzero"></path>
                    <path d="M96.2781818,16.3761996 L85.6036364,16.3761996 C85.0232727,16.3761996 84.5672727,15.9201536 84.5672727,15.3397313 C84.5672727,14.759309 85.0232727,14.303263 85.6036364,14.303263 L96.2781818,14.303263 C96.8585455,14.303263 97.3145455,14.759309 97.3145455,15.3397313 C97.3145455,15.9201536 96.8585455,16.3761996 96.2781818,16.3761996 Z" id="Path" fill="#FFFFFF" fill-rule="nonzero"></path>
                    <path d="M27.1527273,78.5642994 L6.63272727,78.5642994 C6.05236364,78.5642994 5.59636364,78.1082534 5.59636364,77.5278311 C5.59636364,76.9474088 6.05236364,76.4913628 6.63272727,76.4913628 L27.1527273,76.4913628 C27.7330909,76.4913628 28.1890909,76.9474088 28.1890909,77.5278311 C28.1890909,78.1082534 27.7330909,78.5642994 27.1527273,78.5642994 Z" id="Path" fill="#FFFFFF" fill-rule="nonzero"></path>
                    <path d="M17.3072727,83.9539347 L6.63272727,83.9539347 C6.05236364,83.9539347 5.59636364,83.4978887 5.59636364,82.9174664 C5.59636364,82.3370441 6.05236364,81.8809981 6.63272727,81.8809981 L17.3072727,81.8809981 C17.8876364,81.8809981 18.3436364,82.3370441 18.3436364,82.9174664 C18.3436364,83.4978887 17.8876364,83.9539347 17.3072727,83.9539347 Z" id="Path" fill="#FFFFFF" fill-rule="nonzero"></path>
                </g>
            </g>
        </g>
    </g>
</svg>