<svg xmlns="http://www.w3.org/2000/svg" width="120" height="120" viewBox="0 0 300 120">
    <g id="confirm" >
      <g id="Illustration/confirm" stroke="none" stroke-width="1" fill="none" fill-rule="evenodd">
        <path d="M247.043654,105.319655 L16.0835091,105.319655 C7.2006425,105.319655 0.000148270182,98.1684289 0.000148270182,89.3463422 L0.000148270182,89.3448697 C0.000148270182,81.5437555 5.63095552,75.0537076 13.0756013,73.6547789 L51.455832,73.6547789 C59.6620923,73.6547789 66.3154695,67.0474173 66.3154695,58.8973072 C66.3154695,50.7471972 59.6620923,44.1398356 51.455832,44.1398356 L45.3955354,44.1398356 C38.72486,42.5018618 33.8265074,37.0872711 33.8265074,30.6561255 L33.8265074,27.9750908 C33.8265074,27.8063413 33.8298784,27.6382895 33.8365639,27.4709855 L14.5056178,27.4709855 C7.00462932,27.4709855 0.922586491,21.43154 0.922586491,13.9808943 C0.922586491,6.53073953 7.00462932,0.490803122 14.5056178,0.490803122 L69.3814003,0.490803122 C76.8823888,0.490803122 82.9644316,6.53073953 82.9644316,13.9808943 L222.191417,13.9808943 C222.247759,13.9808943 222.303114,13.9843303 222.358468,13.9848211 C222.409374,13.9843303 222.458797,13.9808943 222.508715,13.9808943 L284.516787,13.9808943 C292.993394,13.9808943 299.865717,20.8057034 299.865717,29.2248005 C299.865717,37.6434067 292.993394,44.4682158 284.516787,44.4682158 L224.731779,44.4682158 C223.904432,44.587002 223.05682,44.6503219 222.191417,44.6503219 L211.013328,44.6503219 C205.66374,47.330375 201.958962,52.2482232 201.958962,58.3554064 L201.958962,58.3573698 C201.958962,64.9352802 206.25682,70.8078361 212.308715,73.3715571 L260.991252,73.3715571 C269.874613,73.3715571 277.075107,80.5227829 277.075107,89.3448697 L277.075107,89.3463422 C277.075107,90.6036277 276.92886,91.8269769 276.652337,93.0005262 C284.052184,93.0649748 290.029489,99.0417031 290.029489,106.405665 C290.029489,113.809679 283.986985,119.81182 276.531466,119.81182 L260.498023,119.81182 C253.043987,119.81182 247,113.809679 247,106.405665 C247,106.040057 247.014737,105.677869 247.043654,105.319655 Z"
          id="Combined-Shape" fill="#D9EFE0"></path>
        <path d="M181.173575,70.1097636 C181.173575,71.2159604 180.278023,72.1123016 179.17341,72.1123016 L77.7190445,72.1123016 C76.6144316,72.1123016 75.7188797,71.2159604 75.7188797,70.1097636 L75.7188797,69.9533618 C75.7188797,68.8476599 76.6144316,67.9513188 77.7190445,67.9513188 L179.17341,67.9513188 C180.278023,67.9513188 181.173575,68.8476599 181.173575,69.9533618 L181.173575,70.1097636 Z"
          id="Fill-10" fill="#88CA9A"></path>
        <path d="M171.525387,50.2632566 C171.525387,51.4125134 172.178764,52.3444904 171.031153,52.3444904 L24.4018287,52.3444904 C23.2537232,52.3444904 22.323575,51.4125134 22.323575,50.2632566 C22.323575,49.1139998 23.2537232,48.1820228 24.4018287,48.1820228 L168.230824,48.1820228 C169.378929,48.1820228 171.196227,49.1139998 171.196227,50.2632566 L171.525387,50.2632566 Z"
          id="Fill-12" fill="#88CA9A"></path>
        <path d="M171.903773,60.1478551 C171.903773,61.296617 170.97313,62.228594 169.826507,62.228594 L15.0507249,62.228594 C13.9031137,62.228594 12.9724712,61.296617 12.9724712,60.1478551 C12.9724712,58.9981033 13.9031137,58.0666213 15.0507249,58.0666213 L169.826507,58.0666213 C170.97313,58.0666213 171.903773,58.9981033 171.903773,60.1478551"
          id="Fill-14" fill="#88CA9A"></path>
        <path d="M72.4889127,70.06314 C72.4889127,71.1955688 71.5730972,72.1126975 70.44229,72.1126975 L68.8221911,72.1126975 C67.6918781,72.1126975 66.7755684,71.1955688 66.7755684,70.06314 L66.7755684,70.0002823 C66.7755684,68.8678536 67.6918781,67.9512198 68.8221911,67.9512198 L70.44229,67.9512198 C71.5730972,67.9512198 72.4889127,68.8678536 72.4889127,70.0002823 L72.4889127,70.06314 Z"
          id="Fill-16" fill="#88CA9A"></path>
        <circle id="icon-enable" fill="#48AE64" cx="160" cy="53" r="30"></circle>
        <polygon id="Combined-Shape" fill="#FFFFFF" points="153.75 59.25 173.75 39.25 177.5 43 153.75 66.75 142.5 55.5 146.25 51.75"></polygon>
      </g>
    </g>
</svg>
