<?xml version="1.0" encoding="UTF-8"?>
<svg width="200px" height="200px" viewBox="0 0 600 600" version="1.1" xmlns="http://www.w3.org/2000/svg" xmlns:xlink="http://www.w3.org/1999/xlink">
    <!-- Generator: Sketch 60.1 (88133) - https://sketch.com -->
    <title>Artboard</title>
    <desc>Created with Sketch.</desc>
    <defs>
        <linearGradient x1="38.0538805%" y1="14.7643404%" x2="68.747704%" y2="78.4843031%" id="linearGradient-1">
            <stop stop-color="#192647" offset="0%"></stop>
            <stop stop-color="#192647" stop-opacity="0.5" offset="0%"></stop>
            <stop stop-color="#192647" stop-opacity="0" offset="100%"></stop>
        </linearGradient>
        <linearGradient x1="21.5281771%" y1="10.3629075%" x2="65.8843856%" y2="95.2040112%" id="linearGradient-2">
            <stop stop-color="#192647" offset="0%"></stop>
            <stop stop-color="#192647" stop-opacity="0.5" offset="0%"></stop>
            <stop stop-color="#192647" stop-opacity="0" offset="100%"></stop>
        </linearGradient>
        <linearGradient x1="100.013303%" y1="49.9973212%" x2="0.01581113%" y2="49.9973212%" id="linearGradient-3">
            <stop stop-color="#028484" stop-opacity="0.4" offset="0%"></stop>
            <stop stop-color="#028484" stop-opacity="0.1" offset="100%"></stop>
        </linearGradient>
        <linearGradient x1="100.01661%" y1="49.9941091%" x2="-0.00952448433%" y2="49.9941091%" id="linearGradient-4">
            <stop stop-color="#043263" stop-opacity="0.4" offset="1%"></stop>
            <stop stop-color="#043263" stop-opacity="0.1" offset="100%"></stop>
        </linearGradient>
        <linearGradient x1="100.023228%" y1="50.0112%" x2="-0.0130151434%" y2="50.0112%" id="linearGradient-5">
            <stop stop-color="#043263" stop-opacity="0.4" offset="1%"></stop>
            <stop stop-color="#043263" stop-opacity="0.1" offset="100%"></stop>
        </linearGradient>
    </defs>
    <g id="Artboard" stroke="none" stroke-width="1" fill="none" fill-rule="evenodd">
        <g id="Connectivity/Error-Connection">
            <g id="Error-connectiion" transform="translate(120.000000, 123.000000)">
                <path d="M400.94,86 L400.94,86 C400.36,85 399.76,84.11 399.15,83.18 L398.58,82.36 C398.12,81.68 397.65,81.02 397.17,80.36 L396.58,79.55 C395.94,78.71 395.29,77.89 394.58,77.08 L394.49,76.97 C393.79,76.13 393.08,75.32 392.35,74.52 L391.68,73.8 C391.14,73.23 390.6,72.66 390.04,72.11 L389.33,71.4 C388.63,70.72 387.93,70.06 387.21,69.4 L386.97,69.19 C386.18,68.48 385.38,67.81 384.56,67.19 L383.77,66.55 C383.18,66.09 382.59,65.64 381.99,65.2 C381.71,64.98 381.42,64.77 381.13,64.56 C380.42,64.05 379.7,63.56 378.97,63.07 L378.51,62.76 C377.66,62.2 376.79,61.67 375.92,61.15 L374.97,60.6 C374.356667,60.2466667 373.746667,59.9133333 373.14,59.6 L372.14,59.05 C371.45,58.69 370.75,58.35 370.04,58.05 L369.32,57.7 C368.43,57.29 367.52,56.9 366.61,56.52 L365.48,56.07 L363.69,55.39 L362.47,54.95 L360.47,54.31 L359.39,53.97 C358.5,53.71 357.6,53.46 356.7,53.23 L355.4,52.92 L353.68,52.53 L352.29,52.25 L350.47,51.94 C349.98,51.85 349.47,51.77 348.98,51.7 C348.14,51.58 347.3,51.47 346.45,51.38 L345.01,51.25 C344.46,51.25 343.91,51.15 343.36,51.12 L341.86,51.03 L340.16,51.03 L338.43,51.03 C337.61,51.03 336.8,51.03 335.98,51.08 L334.47,51.16 C333.94,51.16 333.41,51.22 332.88,51.27 L331.32,51.4 L329.69,51.6 C319.687406,52.8387668 310.056329,56.163822 301.42,61.36 L202.85,120.59 C173.503302,138.275671 160.511178,174.067577 171.68,206.46 L146.14,221.8 C145.481752,222.201992 144.999589,222.837733 144.79,223.58 L143.08,229.86 C142.863161,230.649889 142.978732,231.494093 143.399884,232.196642 C143.821035,232.899191 144.51114,233.398984 145.31,233.58 L149.77,234.58 C150.568445,234.758957 151.259146,235.256287 151.682076,235.956765 C152.105007,236.657244 152.223463,237.50008 152.01,238.29 L150.8,242.71 C150.586537,243.49992 150.704993,244.342756 151.127924,245.043235 C151.550854,245.743713 152.241555,246.241043 153.04,246.42 L159.39,247.86 C160.141074,248.030019 160.928768,247.904704 161.59,247.51 L187.19,232 C209.370291,255.758239 244.636144,261.885038 273.53,247 C276.795771,264.459927 268.869319,282.111035 253.65,291.27 L219.86,311.57 L204.06,321.07 C203.007945,321.700014 202.445234,322.906896 202.638973,324.117764 C202.832712,325.328633 203.743894,326.299691 204.94,326.57 L205.17,326.62 C205.970702,326.798727 206.663277,327.297571 207.086484,328.000397 C207.509691,328.703222 207.626602,329.548703 207.41,330.34 L206.2,334.75 C205.983161,335.539889 206.098732,336.384093 206.519884,337.086642 C206.941035,337.789191 207.63114,338.288984 208.43,338.47 L212.9,339.47 C213.696602,339.65124 214.384837,340.149515 214.805714,340.849719 C215.226591,341.549923 215.343705,342.391487 215.13,343.18 L215.07,343.42 C214.806443,344.343226 215.011923,345.336999 215.62,346.08 C216.232586,346.85292 217.185931,347.275383 218.17,347.21 L218.17,347.21 C218.559937,347.173657 218.939721,347.065147 219.29,346.89 L219.51,346.78 L269.11,316.98 C270.18,316.33 271.24,315.66 272.27,314.98 C273.76,313.98 275.18,312.92 276.57,311.83 C300.813355,292.697479 310.318093,260.333244 300.27,231.13 L342.68,205.65 L376.13,185.55 C410.449767,164.895367 421.552681,120.34498 400.94,86 Z M218.33,146.12 L306,93.43 L306,93.43 L310,91.04 L316.9,86.89 C323.569787,82.8774419 331.216412,80.780675 339,80.8291494 C342.598755,80.8553789 346.18009,81.3324423 349.66,82.25 C351.092764,82.6292145 352.504696,83.0831689 353.89,83.61 C354.62,83.89 355.35,84.18 356.08,84.5 C375.434579,93.0950535 385.482343,114.650366 379.62,135 C379.27,136.23 378.85,137.45 378.39,138.65 C378.24,139.04 378.09,139.43 377.93,139.81 C377.026949,141.951143 375.950014,144.014711 374.71,145.98 C374.41,146.46 374.1,146.98 373.77,147.41 C371.977555,150.024018 369.89792,152.429015 367.57,154.58 C366.57,155.53 365.44,156.44 364.29,157.3 C363.129995,158.169496 361.924992,158.977282 360.68,159.72 L284.8,205.32 C284.6,205.11 284.4,204.92 284.21,204.71 C283.67,204.15 283.12,203.59 282.56,203.05 L281.82,202.33 C281.15,201.69 280.47,201.07 279.77,200.46 L279.44,200.16 C278.65,199.48 277.84,198.82 277.02,198.16 L276.21,197.53 C275.63,197.08 275.04,196.65 274.45,196.22 L273.53,195.57 C272.87,195.11 272.19,194.66 271.53,194.22 L270.9,193.81 C270.06,193.27 269.19,192.75 268.32,192.25 L267.32,191.69 C266.74,191.37 266.16,191.05 265.57,190.75 L264.44,190.17 C263.82,189.86 263.19,189.57 262.56,189.28 L261.56,188.83 C260.68,188.44 259.79,188.07 258.9,187.71 L257.65,187.24 L256,186.64 L254.63,186.17 C254.08,185.99 253.52,185.82 252.97,185.66 C252.42,185.5 252.09,185.38 251.65,185.26 C250.77,185.013333 249.88,184.783333 248.98,184.57 L247.47,184.23 C246.98,184.12 246.47,184.01 245.99,183.92 C245.51,183.83 244.93,183.71 244.39,183.62 L242.95,183.39 C242.17,183.27 241.39,183.16 240.6,183.06 L238.7,182.84 L236.97,182.71 L235.65,182.62 L233.89,182.55 L232.62,182.55 C230.54,182.55 228.453333,182.61 226.36,182.73 L225.14,182.82 L223.31,183.01 C222.9,183.01 222.5,183.11 222.1,183.16 C213.859246,184.235145 205.859732,186.696534 198.44,190.44 C195.165718,172.962825 203.096423,155.291188 218.33,146.12 Z M214.22,216.17 L214.22,216.17 C220.793602,213.305954 227.973028,212.110528 235.12,212.69 L235.27,212.69 C235.84,212.69 236.4,212.79 236.96,212.86 L237.26,212.86 C237.79,212.93 238.32,213.01 238.84,213.1 L239.23,213.16 L240.74,213.45 L241.18,213.55 L242.63,213.9 L243.1,214.03 L244.52,214.43 L244.99,214.59 C245.45,214.74 245.92,214.89 246.38,215.06 L246.8,215.21 L248.23,215.76 L248.42,215.85 C249.936469,216.481578 251.415553,217.199418 252.85,218 L253.47,218.35 C253.79,218.53 254.1,218.73 254.42,218.93 C254.74,219.13 254.94,219.24 255.19,219.41 L256.06,219.99 L256.86,220.55 L257.68,221.15 L257.74,221.2 C243.415886,227.678076 226.688742,225.744768 214.22,216.17 L214.22,216.17 Z" id="Shape" fill="url(#linearGradient-1)" fill-rule="nonzero"></path>
                <path d="M207.61,344.49 C207.123415,344.115208 206.533518,343.898796 205.92,343.87 L203.6,343.76 L201.35,343.65 C200.531631,343.612441 199.76422,343.241843 199.225957,342.624258 C198.687694,342.006672 198.425408,341.195828 198.5,340.38 L198.84,336.68 L198.92,335.82 L198.92,335.82 L198.92,335.82 C198.988825,335.009109 198.725264,334.20505 198.189769,333.592248 C197.654274,332.979446 196.892799,332.610487 196.08,332.57 L191.68,332.36 L189.58,332.26 C189.450191,332.250044 189.319809,332.250044 189.19,332.26 C188.868801,332.280829 188.553881,332.358712 188.26,332.49 C187.970671,332.602667 187.703301,332.765119 187.47,332.97 L161.55,355.5 L151.46,364.27 L151.39,364.33 C150.836667,364.803333 150.276667,365.263333 149.71,365.71 L149.12,366.15 C148.72,366.45 148.32,366.76 147.91,367.05 L147.22,367.5 C146.83,367.76 146.44,368.03 146.04,368.28 C145.81,368.43 145.57,368.56 145.33,368.7 L144.13,369.41 L143.43,369.78 L142.17,370.44 L141.49,370.76 L140.16,371.36 L139.52,371.62 C139.05,371.82 138.58,372 138.11,372.18 L137.51,372.39 C137.02,372.56 136.51,372.74 136.02,372.89 L135.48,373.05 C134.96,373.21 134.48,373.36 133.9,373.5 L133.42,373.62 L131.76,374 L131.34,374.08 C130.76,374.19 130.18,374.3 129.59,374.39 L129.24,374.44 C128.63,374.53 128.02,374.61 127.4,374.67 L127.12,374.67 C126.49,374.73 125.85,374.78 125.21,374.81 L125,374.81 C124.34,374.81 123.67,374.81 123,374.81 L122.85,374.81 C122.17,374.81 121.48,374.81 120.79,374.81 L120.71,374.81 C120,374.81 119.3,374.72 118.59,374.65 C107.653476,373.649649 97.5493476,368.387456 90.46,360 C75.5805067,342.232209 77.6566895,315.824229 95.13,300.6 L132.88,267.78 C133.803825,266.976567 134.146738,265.692368 133.746401,264.535352 C133.346064,263.378335 132.282814,262.580679 131.06,262.52 L130.82,262.52 C130.001631,262.482441 129.23422,262.111843 128.695957,261.494258 C128.157694,260.876672 127.895408,260.065828 127.97,259.25 L128.39,254.69 C128.464571,253.875826 128.20362,253.066485 127.667514,252.449208 C127.131408,251.831931 126.366593,251.460196 125.55,251.42 L121,251.2 C120.183407,251.159804 119.418592,250.788069 118.882486,250.170792 C118.34638,249.553515 118.085429,248.744174 118.16,247.93 L118.16,247.69 C118.292554,246.451615 117.646167,245.260123 116.535771,244.696042 C115.425374,244.13196 114.081934,244.31262 113.16,245.15 L76.1,277.36 C45.98,303.55 41.9,349.36 67.79,379.71 C77.1939854,390.769226 89.7165695,398.733074 103.72,402.56 L103.72,402.56 L104.02,402.64 C104.93,402.88 105.84,403.1 106.75,403.31 L107.52,403.49 C108.52,403.69 109.44,403.89 110.41,404.06 L111.09,404.17 C111.95,404.31 112.81,404.43 113.67,404.55 L114.28,404.63 C115.28,404.74 116.28,404.84 117.28,404.92 L118.07,404.97 C119.07,405.04 120.07,405.1 121.07,405.13 L121.34,405.13 C122.29,405.13 123.24,405.13 124.19,405.13 L124.96,405.13 C125.96,405.13 126.96,405.06 127.96,405 L128.6,405 C129.48,404.93 130.37,404.85 131.26,404.75 L131.83,404.69 C132.83,404.57 133.83,404.42 134.83,404.26 L135.57,404.14 C136.57,403.96 137.57,403.77 138.57,403.55 L138.72,403.55 C139.72,403.33 140.67,403.09 141.64,402.84 L142.33,402.65 C143.33,402.39 144.33,402.1 145.26,401.79 L145.8,401.61 C146.686667,401.323333 147.566667,401.013333 148.44,400.68 L148.94,400.5 C149.94,400.13 150.86,399.74 151.82,399.33 L152.46,399.04 C153.46,398.61 154.4,398.17 155.35,397.69 L155.35,397.69 C156.3,397.22 157.24,396.69 158.17,396.2 L158.77,395.86 C159.69,395.34 160.61,394.8 161.51,394.24 L161.95,393.95 C162.78,393.42 163.6,392.88 164.41,392.31 L164.84,392.02 C165.72,391.39 166.58,390.75 167.44,390.08 L167.98,389.65 C168.86,388.96 169.72,388.25 170.58,387.51 L200.51,361.51 L207.15,355.74 L207.15,355.74 C207.719758,355.220365 208.076147,354.507588 208.15,353.74 L208.74,347.26 C208.801889,346.647952 208.668898,346.031992 208.36,345.5 C208.184192,345.114111 207.928572,344.769877 207.61,344.49 L207.61,344.49 Z" id="Path" fill="url(#linearGradient-2)" fill-rule="nonzero"></path>
                <path d="M155.92,293.87 L151.35,293.65 C150.531631,293.612441 149.76422,293.241843 149.225957,292.624258 C148.687694,292.006672 148.425408,291.195828 148.5,290.38 L148.92,285.82 C148.994571,285.005826 148.73362,284.196485 148.197514,283.579208 C147.661408,282.961931 146.896593,282.590196 146.08,282.55 L139.58,282.24 C138.808941,282.202799 138.053217,282.464258 137.47,282.97 L101.47,314.27 C83.47,329.87 55.76,328.27 40.47,310.01 C25.5905067,292.242209 27.6666895,265.834229 45.14,250.61 L82.89,217.79 C83.8138248,216.986567 84.1567375,215.702368 83.756401,214.545352 C83.3560645,213.388335 82.2928142,212.590679 81.07,212.53 L80.83,212.53 C80.0134065,212.489804 79.2485922,212.118069 78.7124861,211.500792 C78.17638,210.883515 77.9154289,210.074174 77.99,209.26 L78.4,204.7 C78.4745711,203.885826 78.21362,203.076485 77.6775139,202.459208 C77.1414078,201.841931 76.3765935,201.470196 75.56,201.43 L71,201.2 C70.1834065,201.159804 69.4185922,200.788069 68.8824861,200.170792 C68.34638,199.553515 68.0854289,198.744174 68.16,197.93 L68.16,197.69 C68.2925543,196.451615 67.6461674,195.260123 66.5357708,194.696042 C65.4253742,194.13196 64.0819344,194.31262 63.16,195.15 L26.1,227.37 C-4.02,253.55 -8.1,299.37 17.79,329.71 C30.3527811,344.422412 48.2694022,353.510461 67.5615864,354.956201 C86.8537705,356.401942 105.924775,350.085715 120.54,337.41 L150.47,311.41 L157.11,305.63 C157.688614,305.117111 158.046857,304.400624 158.11,303.63 L158.7,297.14 C158.774633,296.335631 158.521716,295.535156 157.998476,294.91969 C157.475236,294.304224 156.725895,293.925785 155.92,293.87 Z" id="Path" fill="#1464A5" fill-rule="nonzero"></path>
                <path d="M143.63,143.1 L96.17,171.62 C95.5055771,172.019774 95.0217552,172.661286 94.82,173.41 L93.11,179.69 C92.8962955,180.478513 93.0134091,181.320077 93.4342863,182.020281 C93.8551634,182.720485 94.5433979,183.21876 95.34,183.4 L99.8,184.4 C100.600702,184.578727 101.293277,185.077571 101.716484,185.780397 C102.139691,186.483222 102.256602,187.328703 102.04,188.12 L100.83,192.53 C100.613161,193.319889 100.728732,194.164093 101.149884,194.866642 C101.571035,195.569191 102.26114,196.068984 103.06,196.25 L109.42,197.68 C110.171074,197.850019 110.958768,197.724704 111.62,197.33 L159.23,168.72 C179.62,156.47 206.67,162.92 218.57,183.51 C230.13432,203.589197 223.506225,229.230277 203.66,241.19 L154.06,271 C153.015029,271.632445 152.457833,272.835295 152.651154,274.041354 C152.844475,275.247414 153.749709,276.215848 154.94,276.49 L155.17,276.55 C155.968445,276.728957 156.659146,277.226287 157.082076,277.926765 C157.505007,278.627244 157.623463,279.47008 157.41,280.26 L156.2,284.68 C155.986295,285.468513 156.103409,286.310077 156.524286,287.010281 C156.945163,287.710485 157.633398,288.20876 158.43,288.39 L162.9,289.39 C163.69886,289.571016 164.388965,290.070809 164.810116,290.773358 C165.231268,291.475907 165.346839,292.320111 165.13,293.11 L165.07,293.34 C164.747835,294.522227 165.177034,295.781556 166.154125,296.520977 C167.131217,297.260398 168.459787,297.331272 169.51,296.7 L219.11,266.9 C235.679718,256.915505 247.578534,240.730009 252.165276,221.936193 C256.752019,203.142378 253.647202,183.295156 243.54,166.8 C222.65,132.81 177.85,122.55 143.63,143.1 Z" id="Path" fill="#1464A5" fill-rule="nonzero"></path>
                <path d="M251.45,11.18 L152.88,70.41 C119.30672,90.5570482 107.799586,133.723739 126.889168,167.909357 C145.978751,202.094976 188.765339,214.943523 223.53,196.93 C222.638245,192.208134 220.947312,187.673052 218.53,183.52 C215.775596,178.753684 212.096981,174.585493 207.71,171.26 C187.196929,180.58243 162.973637,172.27137 152.504811,152.31899 C142.035986,132.366609 148.962314,107.711638 168.29,96.13 L266.9,36.9 C287.019733,24.8104868 313.130487,31.3202666 325.22,51.44 C337.309513,71.5597334 330.799733,97.6704868 310.68,109.76 L234.79,155.35 C238.086957,158.867669 241.018626,162.710669 243.54,166.82 C246.292477,171.308899 248.549053,176.083587 250.27,181.06 L326.13,135.47 C360.451736,114.847687 371.557313,70.3067358 350.935,35.985 C330.312687,1.66326422 285.771736,-9.44231256 251.45,11.18 L251.45,11.18 Z" id="Path" fill="#2DCCCD" fill-rule="nonzero"></path>
                <path d="M350.94,36 C335.850413,10.9505804 307.208061,-2.60398838 278.27,1.61 L256,43.43 L266.88,36.9 C286.999733,24.8104874 313.110486,31.3202673 325.199999,51.4400005 C337.289512,71.5597336 330.779733,97.6704866 310.66,109.76 L234.77,155.35 C238.066957,158.867669 240.998626,162.710669 243.52,166.82 C246.272477,171.308899 248.529053,176.083587 250.25,181.06 L326.11,135.47 C360.393341,114.82828 371.500627,70.3320357 350.94,36 L350.94,36 Z" id="Path" fill="url(#linearGradient-3)" fill-rule="nonzero"></path>
                <path d="M155.92,293.87 L151.35,293.65 C150.531631,293.612441 149.76422,293.241843 149.225957,292.624258 C148.687694,292.006672 148.425408,291.195828 148.5,290.38 L148.92,285.82 C148.994571,285.005826 148.73362,284.196485 148.197514,283.579208 C147.661408,282.961931 146.896593,282.590196 146.08,282.55 L139.58,282.24 C138.808941,282.202799 138.053217,282.464258 137.47,282.97 L101.47,314.27 C92.4103708,322.119804 80.5179006,325.892263 68.59,324.7 L53.77,352.56 C77.1750106,359.017201 102.25855,353.330047 120.59,337.41 L150.52,311.41 L157.16,305.63 C157.738614,305.117111 158.096857,304.400624 158.16,303.63 L158.75,297.14 C158.824559,296.327473 158.564944,295.519629 158.030991,294.902659 C157.497038,294.285688 156.734816,293.912823 155.92,293.87 Z" id="Path" fill="url(#linearGradient-4)" fill-rule="nonzero"></path>
                <path d="M243.54,166.82 C227.78,141.17 198.43,129.04 170.27,133.44 L156.79,158.79 C158.953109,161.546758 161.448699,164.025554 164.22,166.17 C183.84,157.61 207.62,164.57 218.57,183.52 C230.13432,203.599197 223.506225,229.240277 203.66,241.2 L154.06,271 C153.015029,271.632445 152.457833,272.835295 152.651154,274.041354 C152.844475,275.247414 153.749709,276.215848 154.94,276.49 L155.17,276.55 C155.968445,276.728957 156.659146,277.226287 157.082076,277.926765 C157.505007,278.627244 157.623463,279.47008 157.41,280.26 L156.2,284.68 C155.986295,285.468513 156.103409,286.310077 156.524286,287.010281 C156.945163,287.710485 157.633398,288.20876 158.43,288.39 L162.9,289.39 C163.69886,289.571016 164.388965,290.070809 164.810116,290.773358 C165.231268,291.475907 165.346839,292.320111 165.13,293.11 L165.07,293.34 C164.747835,294.522227 165.177034,295.781556 166.154125,296.520977 C167.131217,297.260398 168.459787,297.331272 169.51,296.7 L219.11,266.9 C235.674187,256.915588 247.569062,240.733793 252.155536,221.944832 C256.74201,203.155871 253.640813,183.313464 243.54,166.82 Z" id="Path" fill="url(#linearGradient-5)" fill-rule="nonzero"></path>
            </g>
        </g>
    </g>
</svg>