<svg xmlns="http://www.w3.org/2000/svg" xmlns:xlink="http://www.w3.org/1999/xlink" width="120" height="120" viewBox="0 0 120 120">
  <defs>
    <path id="illustration-contact-outoftime-a" d="M0.137014925,13.8679412 C0.137014925,21.2417647 6.20238806,27.2179412 13.6853731,27.2179412 C21.1674627,27.2179412 27.2337313,21.2417647 27.2337313,13.8679412 C27.2337313,6.49676471 21.1674627,0.520588235 13.6853731,0.520588235 C6.20238806,0.520588235 0.137014925,6.49676471 0.137014925,13.8679412 Z"/>
    <path id="illustration-contact-outoftime-c" d="M0.829253731,21.8091176 C0.829253731,33.6794118 10.5940299,43.3014706 22.640597,43.3014706 C34.6871642,43.3014706 44.4528358,33.6794118 44.4528358,21.8091176 C44.4528358,9.94058824 34.6871642,0.319411765 22.640597,0.319411765 C10.5940299,0.319411765 0.829253731,9.94058824 0.829253731,21.8091176 Z"/>
    <path id="illustration-contact-outoftime-e" d="M0.000895522388,29.7502941 C0.000895522388,45.9697059 13.3441791,59.1185294 29.8047761,59.1185294 C46.2653731,59.1185294 59.6086567,45.9697059 59.6086567,29.7502941 C59.6086567,13.5335294 46.2653731,0.385588235 29.8047761,0.385588235 C13.3441791,0.385588235 0.000895522388,13.5335294 0.000895522388,29.7502941 Z"/>
    <path id="illustration-contact-outoftime-g" d="M0.745074627,26.2932353 C0.745074627,40.7144118 12.6107463,52.4038235 27.2453731,52.4038235 C41.8808955,52.4038235 53.7447761,40.7144118 53.7447761,26.2932353 C53.7447761,11.8738235 41.8808955,0.184411765 27.2453731,0.184411765 C12.6107463,0.184411765 0.745074627,11.8738235 0.745074627,26.2932353 Z"/>
    <path id="illustration-contact-outoftime-i" d="M0.745074627,26.2932353 C0.745074627,40.7144118 12.6107463,52.4038235 27.2453731,52.4038235 C41.8808955,52.4038235 53.7447761,40.7144118 53.7447761,26.2932353 C53.7447761,11.8738235 41.8808955,0.184411765 27.2453731,0.184411765 C12.6107463,0.184411765 0.745074627,11.8738235 0.745074627,26.2932353"/>
  </defs>
  <g fill="none" fill-rule="evenodd">
    <g transform="translate(12 5)">
      <path fill="#1464A5" d="M107.9783,54.9995 C107.9783,85.3685 83.8623,109.9865 54.1133,109.9865 C24.3653,109.9865 0.2493,85.3685 0.2493,54.9995 C0.2493,24.6325 24.3653,0.0135 54.1133,0.0135 C83.8623,0.0135 107.9783,24.6325 107.9783,54.9995"/>
      <path fill="#004481" d="M19.2157,96.8813 C28.6157,105.0523 40.7987,109.9863 54.1127,109.9863 C83.8617,109.9863 107.9787,85.3683 107.9787,54.9993 C107.9787,41.8153 103.4307,29.7173 95.8527,20.2443 L19.2157,96.8813 Z"/>
    </g>
    <g transform="translate(59 62)">
      <path fill="#5BBEFF" d="M35.0379 30.1587C45.2629 32.6537 52.8409 41.8647 52.8409 52.8537L52.8409 58.0007.9669 58.0007.9669 52.8537C.9669 41.8667 8.5319 32.6517 18.7689 30.1587 20.4809 31.0197 22.1879 31.6197 24.3099 31.9017L24.3099 32.0887 21.7139 50.2577 26.9039 55.4507 32.0969 50.2577 29.4979 32.0887 29.4979 31.9017C31.3859 31.6197 33.3259 31.0197 35.0379 30.1587M26.9051 26.896C19.7361 26.896 13.9261 21.085 13.9261 13.917 13.9261 6.748 19.7361.938 26.9051.938 34.0751.938 39.8841 6.748 39.8841 13.917 39.8841 21.085 34.0751 26.896 26.9051 26.896"/>
      <path fill="#FFF" d="M24.3104,31.9018 C26.0254,32.2128 27.7554,32.1868 29.4974,31.9018 L32.0964,50.2568 L26.9044,55.4508 L21.7124,50.2588 L24.3104,31.9018 Z"/>
    </g>
    <g transform="translate(16.12 15.882)">
      <mask id="illustration-contact-outoftime-b" fill="#fff">
        <use xlink:href="#illustration-contact-outoftime-a"/>
      </mask>
      <path stroke="#BBB" stroke-width="2" d="M13.685194,27.2173235 C21.1672836,27.2173235 27.2326567,21.2411471 27.2326567,13.8690882 C27.2326567,6.49702941 21.1672836,0.520852941 13.685194,0.520852941 C6.204,0.520852941 0.137731343,6.49702941 0.137731343,13.8690882 C0.137731343,21.2411471 6.204,27.2173235 13.685194,27.2173235 Z" mask="url(#illustration-contact-outoftime-b)"/>
    </g>
    <g transform="translate(7.164 7.941)">
      <mask id="illustration-contact-outoftime-d" fill="#fff">
        <use xlink:href="#illustration-contact-outoftime-c"/>
      </mask>
      <path stroke="#BBB" stroke-width="2" d="M22.6404179,43.3009412 C34.6869851,43.3009412 44.4517612,33.6797647 44.4517612,21.8112353 C44.4517612,9.94182353 34.6869851,0.319764706 22.6404179,0.319764706 C10.5947463,0.319764706 0.829074627,9.94182353 0.829074627,21.8112353 C0.829074627,33.6797647 10.5947463,43.3009412 22.6404179,43.3009412 Z" mask="url(#illustration-contact-outoftime-d)"/>
    </g>
    <mask id="illustration-contact-outoftime-f" fill="#fff">
      <use xlink:href="#illustration-contact-outoftime-e"/>
    </mask>
    <path stroke="#BBB" stroke-width="2" d="M29.804597,59.1178235 C46.265194,59.1178235 59.6093731,45.9707647 59.6093731,29.7513529 C59.6093731,13.5328235 46.265194,0.384882353 29.804597,0.384882353 C13.344,0.384882353 -0.000179104478,13.5328235 -0.000179104478,29.7513529 C-0.000179104478,45.9707647 13.344,59.1178235 29.804597,59.1178235 Z" mask="url(#illustration-contact-outoftime-f)"/>
    <path fill="#004280" d="M59.7459403,29.8230882 C59.7459403,46.0469118 46.3981791,59.1992647 29.9313134,59.1992647 C13.4662388,59.1992647 0.118477612,46.0469118 0.118477612,29.8230882 C0.118477612,13.5992647 13.4662388,0.447794118 29.9313134,0.447794118 C46.3981791,0.447794118 59.7459403,13.5992647 59.7459403,29.8230882"/>
    <path fill="#F2F2F2" d="M56.4323284,29.8230882 C56.4323284,44.2433824 44.5675522,55.9327941 29.9311343,55.9327941 C15.2965075,55.9327941 3.43262687,44.2433824 3.43262687,29.8230882 C3.43262687,15.4036765 15.2965075,3.71338235 29.9311343,3.71338235 C44.5675522,3.71338235 56.4323284,15.4036765 56.4323284,29.8230882"/>
    <g transform="translate(2.687 3.53)">
      <mask id="illustration-contact-outoftime-h" fill="#fff">
        <use xlink:href="#illustration-contact-outoftime-g"/>
      </mask>
      <path fill="#E9E9E9" d="M46.0210746,6.83108824 C35.3813731,-3.65214706 18.1309254,-3.65214706 7.4921194,6.83108824 C-3.14668657,17.3143235 -3.14668657,34.3119706 7.4921194,44.7943235 L46.0210746,6.83108824 Z" mask="url(#illustration-contact-outoftime-h)"/>
      <mask id="illustration-contact-outoftime-j" fill="#fff">
        <use xlink:href="#illustration-contact-outoftime-i"/>
      </mask>
      <path fill="#BCBCBC" d="M9.58531343,8.89305882 C19.3760597,-0.752823529 34.7638209,-1.52223529 45.447403,6.58570588 L45.6094925,6.426 C34.9706866,-4.05723529 17.7202388,-4.05723529 7.08053731,6.426 C-3.55916418,16.9083529 -3.55916418,33.9051176 7.08053731,44.3883529 L7.24262687,44.2286471 C-0.986328358,33.7021765 -0.206328358,18.5407059 9.58531343,8.89305882" mask="url(#illustration-contact-outoftime-j)"/>
    </g>
    <path fill="#BDBDBD" d="M20.3989254,11.2350882 C20.3989254,11.9242059 19.8329552,12.4818529 19.1335522,12.4818529 C18.4350448,12.4818529 17.8690746,11.9242059 17.8690746,11.2350882 C17.8690746,10.5468529 18.4350448,9.98832353 19.1335522,9.98832353 C19.8329552,9.98832353 20.3989254,10.5468529 20.3989254,11.2350882"/>
    <polygon fill="#BDBDBD" points="40.392 34.449 41.414 36.133 41.019 37.207 39.523 36.473 39.369 34.879"/>
    <path fill="#BDBDBD" d="M31.1985672 8.58414706C31.1985672 9.27238235 30.632597 9.83091176 29.933194 9.83091176 29.2346866 9.83091176 28.6678209 9.27238235 28.6678209 8.58414706 28.6678209 7.89502941 29.2346866 7.33738235 29.933194 7.33738235 30.632597 7.33738235 31.1985672 7.89502941 31.1985672 8.58414706M42.0523881 11.3737941C42.0523881 12.0620294 41.4855224 12.6205588 40.7870149 12.6205588 40.0885075 12.6205588 39.5216418 12.0620294 39.5216418 11.3737941 39.5216418 10.6846765 40.0885075 10.1270294 40.7870149 10.1270294 41.4855224 10.1270294 42.0523881 10.6846765 42.0523881 11.3737941M12.522 39.9869118C12.522 40.6760294 11.9551343 41.2336765 11.2575224 41.2336765 10.5581194 41.2336765 9.99125373 40.6760294 9.99125373 39.9869118 9.99125373 39.2977941 10.5581194 38.7401471 11.2575224 38.7401471 11.9551343 38.7401471 12.522 39.2977941 12.522 39.9869118M9.63519403 29.3784706C9.63519403 30.0675882 9.06832836 30.6252353 8.3698209 30.6252353 7.67131343 30.6252353 7.10444776 30.0675882 7.10444776 29.3784706 7.10444776 28.6893529 7.67131343 28.1308235 8.3698209 28.1308235 9.06832836 28.1308235 9.63519403 28.6893529 9.63519403 29.3784706M40.4607761 35.3106176L33.4004776 32.4385588 33.4676418 16.0091471 29.1915224 13.4194412 27.7819701 32.1350294C27.7989851 32.4385588 27.7004776 33.7885588 28.0936119 34.3373824 28.3846567 34.7415 28.6945075 35.1535588 29.1915224 35.3688529L38.5058507 39.2097353C39.6351045 39.6994412 40.9524179 39.1947353 41.4494328 38.0829706 41.9464478 36.9720882 41.5900299 35.8003235 40.4607761 35.3106176"/>
    <path fill="#D3D3D3" d="M31.1985672 50.7655588C31.1985672 51.4537941 30.632597 52.0123235 29.933194 52.0123235 29.2346866 52.0123235 28.6678209 51.4537941 28.6678209 50.7655588 28.6678209 50.0773235 29.2346866 49.5187941 29.933194 49.5187941 30.632597 49.5187941 31.1985672 50.0773235 31.1985672 50.7655588M20.3062388 47.7118235C20.3062388 48.4000588 19.7393731 48.9585882 19.0408657 48.9585882 18.3423582 48.9585882 17.7754925 48.4000588 17.7754925 47.7118235 17.7754925 47.0227059 18.3423582 46.4650588 19.0408657 46.4650588 19.7393731 46.4650588 20.3062388 47.0227059 20.3062388 47.7118235M50.0019403 19.1374412C50.0019403 19.8256765 49.4350746 20.3850882 48.7365672 20.3850882 48.0371642 20.3850882 47.4702985 19.8256765 47.4702985 19.1374412 47.4702985 18.4492059 48.0371642 17.8906765 48.7365672 17.8906765 49.4350746 17.8906765 50.0019403 18.4492059 50.0019403 19.1374412M42.2465373 48.0401471C42.2465373 48.7283824 41.6796716 49.2869118 40.9811642 49.2869118 40.2826567 49.2869118 39.715791 48.7283824 39.715791 48.0401471 39.715791 47.3510294 40.2826567 46.7933824 40.9811642 46.7933824 41.6796716 46.7933824 42.2465373 47.3510294 42.2465373 48.0401471M50.0019403 40.3156765C50.0019403 41.0039118 49.4350746 41.5624412 48.7365672 41.5624412 48.0380597 41.5624412 47.4702985 41.0039118 47.4702985 40.3156765 47.4702985 39.6265588 48.0380597 39.0680294 48.7365672 39.0680294 49.4350746 39.0680294 50.0019403 39.6265588 50.0019403 40.3156765M52.7960597 29.7067059C52.7960597 30.3958235 52.229194 30.9534706 51.5306866 30.9534706 50.8321791 30.9534706 50.2653134 30.3958235 50.2653134 29.7067059 50.2653134 29.0184706 50.8321791 28.4599412 51.5306866 28.4599412 52.229194 28.4599412 52.7960597 29.0184706 52.7960597 29.7067059"/>
    <path fill="#BDBDBD" d="M12.6357313,18.8087647 C12.6357313,19.4978824 12.0688657,20.0564118 11.3703582,20.0564118 C10.6718507,20.0564118 10.1049851,19.4978824 10.1049851,18.8087647 C10.1049851,18.1205294 10.6718507,17.562 11.3703582,17.562 C12.0688657,17.562 12.6357313,18.1205294 12.6357313,18.8087647"/>
    <polygon fill="#0086C7" points="32.166 32.438 27.799 32.291 27.701 12.407 32.166 15.228"/>
    <path fill="#40BEF9" d="M39.5048955,33.7393235 C40.6332537,34.2290294 41.144597,35.5269706 40.6475821,36.6387353 C40.1514627,37.7505 38.8332537,38.2552059 37.7048955,37.7646176 L29.1132537,34.0357941 C27.985791,33.5460882 27.4744478,32.2490294 27.9714627,31.1363824 C28.4684776,30.0255 29.7848955,29.5207941 30.9141493,30.0105 L39.5048955,33.7393235 Z"/>
  </g>
</svg>
