<svg xmlns="http://www.w3.org/2000/svg" width="120" height="120" viewBox="0 0 120 120">
  <g fill="none" fill-rule="evenodd">
    <g transform="translate(6 5)">
      <path fill="#1464A5" d="M107.9783,54.9995 C107.9783,85.3685 83.8623,109.9865 54.1133,109.9865 C24.3653,109.9865 0.2493,85.3685 0.2493,54.9995 C0.2493,24.6325 24.3653,0.0135 54.1133,0.0135 C83.8623,0.0135 107.9783,24.6325 107.9783,54.9995"/>
      <path fill="#004481" d="M19.2157,96.8813 C28.6157,105.0523 40.7987,109.9863 54.1127,109.9863 C83.8617,109.9863 107.9787,85.3683 107.9787,54.9993 C107.9787,41.8153 103.4307,29.7173 95.8527,20.2443 L19.2157,96.8813 Z"/>
    </g>
    <g transform="translate(53 62)">
      <path fill="#5BBEFF" d="M35.0379 30.1587C45.2629 32.6537 52.8409 41.8647 52.8409 52.8537L52.8409 58.0007.9669 58.0007.9669 52.8537C.9669 41.8667 8.5319 32.6517 18.7689 30.1587 20.4809 31.0197 22.1879 31.6197 24.3099 31.9017L24.3099 32.0887 21.7139 50.2577 26.9039 55.4507 32.0969 50.2577 29.4979 32.0887 29.4979 31.9017C31.3859 31.6197 33.3259 31.0197 35.0379 30.1587M26.9051 26.896C19.7361 26.896 13.9261 21.085 13.9261 13.917 13.9261 6.748 19.7361.938 26.9051.938 34.0751.938 39.8841 6.748 39.8841 13.917 39.8841 21.085 34.0751 26.896 26.9051 26.896"/>
      <path fill="#FFF" d="M24.3104,31.9018 C26.0254,32.2128 27.7554,32.1868 29.4974,31.9018 L32.0964,50.2568 L26.9044,55.4508 L21.7124,50.2588 L24.3104,31.9018 Z"/>
    </g>
    <path fill="#FADE8E" d="M1.768,0 L1.761,0 C0.795,0 0.012,0.797 0.012,1.785 L0,46.185 C0,47.173 0.789,47.976 1.755,47.972 L54.847,47.91 L63.159,56.366 C63.844,57.067 64.392,56.831 64.382,55.842 L64.402,1.857 C64.402,0.865 63.459,0.006 62.493,0 L1.768,0"/>
    <polygon fill="#FFF" points="10.684 19.361 36.806 19.361 36.806 19.649 31.71 24.918 10.684 24.918"/>
    <polygon fill="#FFF" points="10.684 8.527 45.247 8.527 45.247 8.816 40.151 14.084 10.684 14.084"/>
  </g>
</svg>
