<?xml version="1.0" encoding="UTF-8"?>
<svg width="128px" height="128px" viewBox="0 0 128 128" version="1.1" xmlns="http://www.w3.org/2000/svg" xmlns:xlink="http://www.w3.org/1999/xlink">
    <title>error</title>
    <defs>
        <rect id="path-1" x="0" y="0" width="128" height="128"></rect>
        <linearGradient x1="5.0385447%" y1="-21.3388734%" x2="72.2644576%" y2="73.5215355%" id="linearGradient-3">
            <stop stop-color="#192647" stop-opacity="0.5" offset="0%"></stop>
            <stop stop-color="#192647" stop-opacity="0" offset="100%"></stop>
        </linearGradient>
        <linearGradient x1="20.7494212%" y1="-14.8387241%" x2="119.181372%" y2="203.9037%" id="linearGradient-4">
            <stop stop-color="#192647" offset="0%"></stop>
            <stop stop-color="#192647" stop-opacity="0.5" offset="0%"></stop>
            <stop stop-color="#192647" stop-opacity="0" offset="100%"></stop>
        </linearGradient>
        <linearGradient x1="-6.62780495%" y1="-65.9572173%" x2="194.45157%" y2="346.597217%" id="linearGradient-5">
            <stop stop-color="#192647" offset="0%"></stop>
            <stop stop-color="#192647" stop-opacity="0.5" offset="0%"></stop>
            <stop stop-color="#192647" stop-opacity="0" offset="100%"></stop>
        </linearGradient>
        <linearGradient x1="155.844469%" y1="49.9999987%" x2="-13.7489989%" y2="49.9999987%" id="linearGradient-6">
            <stop stop-color="#043263" offset="0%"></stop>
            <stop stop-color="#043263" stop-opacity="0" offset="100%"></stop>
        </linearGradient>
    </defs>
    <g id="Fixed-Payment-Plan-01" stroke="none" stroke-width="1" fill="none" fill-rule="evenodd">
        <g id="FPP-MX-01-01-01-03" transform="translate(-96.000000, -76.000000)">
            <g id="error" transform="translate(96.000000, 76.000000)">
                <mask id="mask-2" fill="white">
                    <use xlink:href="#path-1"></use>
                </mask>
                <g id="Rectangle"></g>
                <g id="ErrorConexion" mask="url(#mask-2)">
                    <g transform="translate(6.000000, 29.000000)" id="Micro">
                        <g>
                            <path d="M102.816796,17.5870206 C103.045069,17.5870206 103.255839,17.7081832 103.369082,17.9045069 L103.369082,17.9045069 L116.067174,39.841802 C116.173028,40.0370613 116.167522,40.2730506 116.052674,40.4632577 C115.937827,40.653465 115.73053,40.7699115 115.506778,40.7699115 L115.506778,40.7699115 L97.6047461,40.7691717 C98.2018158,41.5373055 98.7630817,42.3341496 99.2862115,43.1571805 L99.2862115,43.1571805 L94.7313451,48.9333031 C95.2721055,50.0060116 95.729672,51.1406071 96.1040445,52.2958317 L96.1040445,52.2958317 L103.383511,53.2241371 C104.298644,57.514971 104.257047,61.950208 103.300318,66.241042 L103.300318,66.241042 L95.8544628,67.3137504 C95.4384933,68.530862 94.9185314,69.6860865 94.3153755,70.820682 L94.3153755,70.820682 L98.8910405,76.4111435 C96.4576187,80.1037362 93.2338547,83.2393456 89.4693304,85.5910527 L89.4693304,85.5910527 L83.8329432,80.9907836 C82.8138178,81.5065088 81.7530955,81.939718 80.6715747,82.3110402 L80.6715747,82.3110402 L79.5276584,89.6343385 C75.1183813,90.5832729 70.5635149,90.5626439 66.1750363,89.5930805 L66.1750363,89.5930805 L65.3430972,82.3522982 C64.2823749,82.0016051 63.2632495,81.5890249 62.2649226,81.1145577 L62.2649226,81.1145577 L56.3581552,85.5704237 C52.5728324,83.1980876 49.3490684,80.0418492 46.9156466,76.3079985 L46.9156466,76.3079985 L51.3873192,70.4493598 C50.8465588,69.4179094 50.3889923,68.3452009 50.0146197,67.2312344 L50.0146197,67.2312344 L42.7143543,66.406074 C41.7368259,62.0946111 41.6744304,57.6181161 42.5895634,53.2860241 L42.5895634,53.2860241 L49.8690304,52.3370897 C50.2849999,51.0787201 50.7841633,49.8616086 51.3873192,48.685755 L51.3873192,48.685755 L46.8532512,42.9508905 C49.1826806,39.3614428 52.2608552,36.2670914 55.8589917,33.8947554 L55.8589917,33.8947554 L61.8489531,38.2474763 C63.0136678,37.6286061 64.2407779,37.1128808 65.4886865,36.7209296 L65.4886865,36.7209296 L66.1750363,29.5214054 C68.4212718,29.0263092 70.7091042,28.7787611 72.9969367,28.7787611 C75.3055676,28.7787611 77.5726016,29.0263092 79.8188371,29.5214054 L79.8188371,29.5214054 L80.7131716,36.7828167 C81.8362894,37.1541388 82.9178102,37.607977 83.9785325,38.1443313 L83.9785325,38.1443313 L87.0644762,35.8000206 L102.264509,17.9045069 C102.361575,17.7362294 102.530293,17.6231724 102.720269,17.5943046 Z" id="Combined-Shape" fill="url(#linearGradient-3)" fill-rule="nonzero"></path>
                            <path d="M45.436948,45.5591926 L42.3439353,42.0121364 C42.7126388,41.2621873 43.0198917,40.4919694 43.265694,39.7014826 L48.0383559,38.8501891 C48.5709277,36.0530819 48.5094771,33.1748992 47.8130371,30.4183298 L43.0608588,29.9724141 C42.7945729,29.2224651 42.4668365,28.5130539 42.098133,27.8239115 L44.9453433,23.9930908 C43.2861776,21.5810926 41.1354072,19.5542033 38.6159333,18.0543053 L34.9084148,21.0541014 C34.2119749,20.7297991 33.4950514,20.4663035 32.7576444,20.2433457 L32.0202375,15.5612315 C30.565907,15.277467 29.0706095,15.1558536 27.575312,15.1963914 C26.0800145,15.2369292 24.6052005,15.459887 23.1713536,15.8247271 L22.8641007,20.5068413 C22.0652431,20.7906058 21.2663855,21.1351769 20.5289785,21.5608237 L16.5551742,18.865061 C14.2610191,20.4663035 12.3355675,22.5337305 10.9017206,24.9254599 L13.9742497,28.5535916 C13.6055463,29.3238096 13.2982933,30.1345653 13.0729745,30.945321 L8.36176322,31.7155389 C7.87015856,34.532915 7.99305972,37.4313666 8.70998319,40.2082049 L13.4826451,40.5933139 C13.7489309,41.3027251 14.0766674,41.9918675 14.4453709,42.6607409 L11.6596111,46.5523683 C13.3187769,48.9238287 15.4695473,50.8899113 17.9890211,52.3695405 L21.7375067,49.3697444 C22.3929795,49.6737778 23.0689359,49.9170045 23.7653759,50.1196934 L24.4618158,54.8018076 C27.3295097,55.3490677 30.2996211,55.2679921 33.1468315,54.5585809 L33.7408538,49.7953911 C34.4372937,49.5318955 35.1132501,49.2278621 35.768723,48.883291 L39.5172085,51.7614737 C41.8932977,50.0994245 43.9211669,47.9914597 45.436948,45.5591926 Z" id="Path" fill="url(#linearGradient-4)" fill-rule="nonzero"></path>
                            <path d="M47.9056762,23.2209995 L50.2906775,23.4001878 C50.4162039,23.7386546 50.5835724,24.0771214 50.771862,24.3956783 L49.3910717,26.2672006 C50.2279143,27.4020598 51.2948886,28.3577308 52.5501525,29.0545742 L54.4330482,27.6011579 C54.7677853,27.7405266 55.1025223,27.8599855 55.4372593,27.9595345 L55.7929174,30.2093432 C57.2364709,30.4681708 58.7009454,30.4283511 60.1235778,30.0898843 L60.4164727,27.8002561 C60.7721307,27.6807972 61.1068678,27.5215187 61.4416048,27.3622402 L63.3245006,28.7360172 C64.5170013,27.9595345 65.5212124,26.964044 66.2743707,25.7893651 L64.7262119,24.0970312 C64.9145015,23.7386546 65.0609489,23.3603682 65.1864753,22.9820817 L67.5714767,22.5838855 C67.8434505,21.2499282 67.8016084,19.8562414 67.4668713,18.522284 L65.08187,18.3032761 C64.9563436,17.9448995 64.7889751,17.6064327 64.6006855,17.2679659 L66.0233179,15.4362633 C65.2073964,14.2814942 64.119501,13.3059135 62.8642372,12.5692505 L61.0022625,14.0226667 C60.6466044,13.8633882 60.2909463,13.7240195 59.9352882,13.6244705 L59.5796301,11.3746618 C58.8473928,11.2352931 58.0942345,11.1755637 57.3619973,11.1954735 C56.6088389,11.2153833 55.8766017,11.3149324 55.1652855,11.4941207 L55.018838,13.7439293 C54.6213378,13.883298 54.2238376,14.0425765 53.8472584,14.2615844 L51.8597573,12.9674467 C50.7090988,13.7439293 49.7467298,14.7394199 49.0354136,15.8742791 L50.5626513,17.6263425 C50.3743618,18.0046289 50.2279143,18.3829154 50.1023879,18.7811116 L47.7383077,19.1394882 C47.4872549,20.4933553 47.5500181,21.8671323 47.9056762,23.2209995 L47.9056762,23.2209995 Z" id="Path" fill="url(#linearGradient-5)" fill-rule="nonzero"></path>
                            <path d="M39.9730532,27.6784319 C40.5053643,24.8766774 40.4439438,21.9937126 39.7478447,19.2325632 L34.9979919,18.7859067 C34.7318363,18.0347116 34.4042603,17.3241217 34.0357372,16.6338343 L36.8815542,12.7966488 C35.2232004,10.380643 33.0734825,8.35038614 30.5552416,6.82769345 L26.8495375,9.85277625 C26.1534384,9.52793515 25.4368657,9.26400175 24.6998196,9.04067349 L23.9627735,4.35078002 C22.5091547,4.06654406 21.014589,3.96503121 19.5200232,4.00563635 C18.0254575,4.04624149 16.5513652,4.24926718 15.11822,4.61471342 L14.8111174,9.30460689 C13.9921773,9.58884285 13.2141841,9.9542891 12.477138,10.3603405 L8.50527832,7.66009879 C6.21224593,9.24369918 4.28773659,11.3145612 2.85459135,13.7102644 L5.92561688,17.3444243 C5.55709381,18.1159219 5.24999126,18.9280246 5.02478272,19.7401274 L0.315876911,20.511625 C0.0701948692,21.8718972 -0.0321726484,23.2321693 0.00877435865,24.612744 C0.0497213657,26.1151341 0.274929904,27.5972217 0.663926471,29.0387041 L5.43425279,29.4244529 C5.70040834,30.1350428 6.02798439,30.8253301 6.39650746,31.4953149 L3.59163747,35.3528031 C5.24999126,37.7282036 7.42018263,39.6975528 9.91795006,41.1796404 L13.6646012,38.1748602 C14.3197533,38.4793987 14.9953789,38.7230295 15.6914781,38.9260552 L16.3875772,43.6159487 C19.2538677,44.164118 22.2225257,44.0626052 25.0683427,43.3723178 L25.6620743,38.6012141 C26.3581734,38.3372807 27.033799,38.0327422 27.6889511,37.6875985 L31.4560758,40.5705633 C33.8514757,38.9666604 35.8783525,36.8754957 37.3933918,34.4188849 L34.3018928,30.8862378 C34.6704158,30.1350428 34.9775184,29.3635452 35.2232004,28.571745 L39.9730532,27.6784319 Z" id="Path" fill="#004481" fill-rule="nonzero"></path>
                            <path d="M59.5122191,11.3861991 C59.658569,10.6902312 59.7003832,9.99426331 59.6794761,9.2982954 C59.658569,8.64209708 59.5540334,7.98589876 59.4076835,7.32970044 L57.0242721,7.11096767 C56.8988294,6.75304131 56.7315725,6.41499975 56.5434084,6.07695819 L57.9650924,4.22767202 C57.1497148,3.07435376 56.0625447,2.09999868 54.8081177,1.36426116 L52.9473842,2.81585139 C52.5919632,2.65677301 52.2365422,2.51757942 51.8811212,2.41815544 L51.5257002,0.17117331 C50.7939511,0.0319797271 50.0412949,-0.0276746656 49.3095458,0.0120949296 C48.5568895,0.0319797271 47.8251404,0.131403715 47.1142984,0.310366893 L46.9679486,2.55734902 C46.5707134,2.6965426 46.1734781,2.85562098 45.79715,3.07435376 L43.8109739,1.78184191 C42.6610824,2.55734902 41.699355,3.5515889 40.9676059,4.70490716 L42.4938254,6.45476934 C42.3056614,6.8325805 42.1593116,7.21039165 42.0338689,7.6080876 L39.6713646,7.96601396 C39.4204792,9.3181802 39.4832005,10.710116 39.8595286,12.0423975 L42.24294,12.2213606 C42.3683827,12.5594022 42.5356397,12.8974438 42.7238037,13.2156005 L41.343934,15.0847715 C42.1802187,16.218205 43.2464817,17.1726752 44.5009087,17.8686432 L46.3825493,16.4170529 C46.7170632,16.5562465 47.0515771,16.6755553 47.386091,16.7749793 L47.741512,19.0219614 C48.4732611,19.161155 49.2050102,19.2009246 49.9576664,19.1810398 C50.6685084,19.161155 51.3793504,19.061731 52.0901924,18.9026526 L52.382892,16.6159009 C52.738313,16.4965921 53.0728269,16.3375137 53.4073408,16.1784354 L55.2889814,17.5504864 C56.4806871,16.7749793 57.5051358,15.7807394 58.2577921,14.6075364 L56.7106654,12.9173286 C56.8988294,12.5594022 57.0451793,12.181591 57.170622,11.8037799 L59.5122191,11.3861991 Z" id="Path" fill="#2DCCCD" fill-rule="nonzero"></path>
                            <path d="M94.4282418,54.8740483 C95.3850385,50.6948498 95.4266384,46.3750052 94.5114415,42.1958067 L87.2106666,41.2916532 C86.8362679,40.1664844 86.3786694,39.0614079 85.8378713,38.0166082 L90.3930556,32.3907641 C87.9802639,28.6937808 84.756275,25.5392896 80.9498881,23.1683982 L75.1051081,27.5083351 C74.0443118,26.9859353 72.9627155,26.5439047 71.8395193,26.1822433 L70.9451224,19.1097535 C68.6987301,18.6275383 66.4315379,18.3864307 64.1227458,18.3864307 C61.8347537,18.3864307 59.5467615,18.6275383 57.3211691,19.1097535 L56.6139716,26.1219664 C55.3659759,26.5037201 54.1387801,27.0060276 52.9739841,27.6087966 L46.9836046,23.3693212 C43.385217,25.6799358 40.3068275,28.6736885 37.9772355,32.1898411 L42.51162,37.7755006 C41.908422,38.9207618 41.4092238,40.1062075 40.9932252,41.3318378 L33.7132502,42.2560836 C33.2764517,44.2653137 33.0684524,46.3147283 33.0684524,48.364143 C33.0684524,50.6144806 33.3388515,52.844726 33.8380497,55.0347867 L41.1596246,55.8384788 C41.5340233,56.923463 41.9916218,57.9682626 42.5324199,58.9728776 L38.0604352,64.679091 C40.4940269,68.3157974 43.7180158,71.3899193 47.5036028,73.7005339 L53.4107826,69.360597 C54.4091791,69.8227199 55.4283756,70.2245659 56.489172,70.566135 L57.3211691,77.6185325 C61.7099541,78.5628706 66.2859384,78.5829629 70.6747233,77.6788094 L71.8187194,70.5460427 C72.9003157,70.1843813 73.961112,69.762443 74.9803085,69.2601355 L80.6170892,73.7407185 C84.3818763,71.4501962 87.6058652,68.3961666 90.0602568,64.7996448 L85.4842725,59.3546313 C86.0874704,58.2495548 86.6074686,57.124386 87.0234672,55.9389403 L94.4282418,54.8740483 Z" id="Path" fill="#1464A5" fill-rule="nonzero"></path>
                            <g id="Group" transform="translate(33.068452, 18.386431)">
                                <path d="M41.8970587,9.09637435 C40.8397851,8.57543661 39.7617806,8.13464314 38.6423144,7.77399394 L37.7508877,0.721298407 C35.5119553,0.240432802 33.252292,-3.68442155e-13 30.9511671,-3.68442155e-13 C28.670773,-3.68442155e-13 26.3903789,0.240432802 24.1721774,0.721298407 L23.4673283,7.71388574 C22.223477,8.09457101 21.0003565,8.59547268 19.8394286,9.19655468 L13.8689423,4.96894458 C10.2825043,7.27309227 7.21433767,10.2584662 4.89248187,13.7647779 L9.41180835,19.3348045 C8.81061354,20.4768603 8.31307301,21.6589883 7.8984559,22.8811883 L0.642656517,23.8028474 C0.207308554,25.8064541 0,27.8501329 0,29.8938117 C0,32.1378512 0.26950112,34.3618546 0.767041649,36.5457859 L8.06430275,37.3472286 C8.43745814,38.4291762 8.89353696,39.4710517 9.4325392,40.472855 L4.97540529,46.163098 C7.40091537,49.7896261 10.614198,52.8551443 14.3872136,55.159292 L18.8650784,51.8733771 L42.7470238,8.45522021 L41.8970587,9.09637435 Z" id="Path"></path>
                                <path d="M23.3275523,52.1790011 L24.0450442,59.2570714 C28.3931279,60.1986355 33.1060366,60.1786023 37.4747273,59.2570714 L38.6393172,52.1790011 C39.7108829,51.8184021 40.8122549,51.393793 41.8219994,50.892961 L47.4963868,55.3740071 C51.2262596,53.0902131 54.5709263,50.0179665 57.0025561,46.4320093 L52.3960423,40.9864332 C52.9936463,39.8846027 53.5333654,38.7523526 53.945506,37.5703891 L61.3264144,36.4773456 C62.2743379,32.3104232 62.390147,27.9927576 61.4834376,23.8258352 L54.1339543,22.9215882 C53.7630278,21.7997245 53.287783,20.6879354 52.7520002,19.6462048 L57.3375753,14.0197792 C54.9471595,10.3336556 51.5709331,7.11103548 47.831406,4.79646018 L42.4063405,8.92726108 L18.5505952,52.0651236 L19.9724804,51.023393 C20.961618,51.4841585 22.2765936,51.8584687 23.3275523,52.1790011 Z" id="Path" fill="url(#linearGradient-6)" fill-rule="nonzero"></path>
                            </g>
                            <g id="Group-Copy" transform="translate(79.848214, 11.191740)" fill-rule="nonzero">
                                <path d="M13.1425528,0.327953407 L0.0870841199,23.0062336 C-0.0294787459,23.2080665 -0.0289960703,23.4565188 0.0883501335,23.6579009 C0.205696337,23.8592831 0.422055709,23.9829616 0.655840878,23.9823009 L26.7667782,23.9823009 C27.0005633,23.9829616 27.2169227,23.8592831 27.3342689,23.6579009 C27.4516151,23.4565188 27.4520978,23.2080665 27.3355349,23.0062336 L14.2800663,0.327953407 C14.1631223,0.125091134 13.9461816,-1.12729129e-13 13.7113095,-1.12729129e-13 C13.4764374,-1.12729129e-13 13.2594967,0.125091134 13.1425528,0.327953407 Z" id="Path" fill="#D72544"></path>
                                <path d="M13.7064709,15.9882006 C13.2617808,15.9831883 12.9038612,15.5761861 12.9047619,15.076487 L12.9047619,8.90034311 C12.9047619,8.39983902 13.2658538,7.99410029 13.7112811,7.99410029 C14.1567084,7.99410029 14.5177986,8.39983902 14.5177986,8.90034311 L14.5177986,15.076487 C14.5204062,15.3191574 14.4357648,15.5527448 14.2830424,15.7243512 C14.1303201,15.8959576 13.9224372,15.9910648 13.7064709,15.9882006 Z" id="Path" fill="#FFFFFF"></path>
                                <path d="M13.7112898,19.9852507 C13.4968897,19.9843404 13.291608,19.8998024 13.1404671,19.7501775 C13.1025217,19.7133143 13.06866,19.6725927 13.0394507,19.6286967 C13.0101793,19.5855344 12.985465,19.5395432 12.9656927,19.4914391 C12.9455969,19.4429733 12.9300327,19.3928061 12.9191931,19.3415602 C12.9095482,19.2895081 12.9047181,19.236703 12.9047619,19.1837929 C12.9051089,18.9728786 12.9897746,18.7705655 13.1404671,18.6205636 C13.2910647,18.4707403 13.4963252,18.3864307 13.7104881,18.3864307 C13.924651,18.3864307 14.1299115,18.4707403 14.2805091,18.6205636 C14.5117288,18.8486874 14.581281,19.1910351 14.456961,19.4890888 C14.3326409,19.7871426 14.0387188,19.9827153 13.7112898,19.9852507 L13.7112898,19.9852507 Z" id="Path" fill="#FFFFFF"></path>
                            </g>
                        </g>
                    </g>
                </g>
            </g>
        </g>
    </g>
</svg>