<svg xmlns="http://www.w3.org/2000/svg" width="63" height="97" viewBox="0 0 63 97">
  <g fill="none" fill-rule="evenodd">
    <g transform="translate(3 22.37)">
      <path fill="#001B46" d="M57.2727273,72.5580896 C57.2727273,73.5632905 44.4518059,74.3781725 28.6363636,74.3781725 C12.8209214,74.3781725 0,73.5632905 0,72.5580896 C0,71.5528888 12.8209214,70.7377231 28.6363636,70.7377231 C44.4518059,70.7377231 57.2727273,71.5528888 57.2727273,72.5580896" opacity=".39"/>
      <path fill="#004481" d="M29.3939941,62.7521749 L6.75719814,48.5190754 C3.84366985,46.6873718 2.94618733,42.8679758 4.74085993,39.9402767 L26.555914,4.35476327 L51.4008854,0.239105129 L59.9034283,23.8332752 L38.2062255,60.6221719 C36.4010252,63.6825779 32.4084124,64.6476127 29.3939941,62.7521749"/>
      <path fill="#072146" d="M51.2636351,38.4823338 L38.2061962,60.6219973 C36.4012884,63.6826943 32.4083831,64.6477291 29.3939648,62.7522913 L8.43753043,49.575735 L51.2636351,38.4823338 L51.2636351,38.4823338 Z"/>
    </g>
    <g transform="translate(17.545 16)">
      <path fill="#072146" d="M35.5565924,20.2323319 C34.2336741,22.428172 31.3344361,23.1632425 29.0805753,21.8746727 C26.8267145,20.5858101 26.0722213,17.7612065 27.3951395,15.5653665 C28.7180578,13.3698193 31.6172959,12.634456 33.8708561,13.9233186 C36.1247168,15.2118884 36.8792101,18.0364919 35.5565924,20.2323319"/>
      <path fill="#2A86CA" d="M33.6181459,19.1239569 C32.9237716,20.276934 31.4015589,20.6626264 30.2184173,19.9861273 C29.0349751,19.3096281 28.6390915,17.8266015 29.3334658,16.6739172 C30.0278401,15.5209401 31.5500528,15.1349549 32.7331944,15.811454 C33.9163361,16.488246 34.3128208,17.9712727 33.6181459,19.1239569"/>
      <polygon fill="#FFF" points="33.348 17.133 31.519 16.011 41.758 .172 43.587 1.295"/>
      <path fill="#80BCFC" d="M35.5805198,36.9144199 L12.8783885,24.1446934 C12.1058595,23.7103868 11.8389312,22.7392737 12.2847135,21.9866318 C12.7304958,21.2345757 13.7275691,20.974226 14.4997975,21.4085326 L37.2019288,34.1782591 C37.9741572,34.6125657 38.2413861,35.5839716 37.7956038,36.3363206 C37.3495209,37.0886696 36.3527481,37.3487265 35.5805198,36.9144199"/>
      <polygon fill="#F8CD51" points="13.997 34.794 16.203 33.341 17.841 35.387 20.4 34.669 21.308 37.108 23.97 37.196 24.06 39.789 26.563 40.674 25.827 43.167 27.927 44.763 26.435 46.912 27.927 49.061 25.827 50.657 26.563 53.15 24.06 54.035 23.97 56.628 21.308 56.716 20.4 59.155 17.841 58.437 16.203 60.483 13.997 59.03 11.791 60.483 10.153 58.437 7.594 59.155 6.686 56.716 4.025 56.628 3.934 54.035 1.431 53.15 2.167 50.657 .067 49.061 1.559 46.912 .067 44.763 2.167 43.167 1.431 40.674 3.934 39.789 4.025 37.196 6.686 37.108 7.594 34.669 10.153 35.387 11.791 33.341"/>
      <path fill="#FFF" d="M14.02104,49.9475418 C14.5125127,49.2206713 14.4115128,48.7342362 13.4225555,47.2081595 C11.9905212,44.9956267 11.8462357,43.9220138 12.787699,42.5297727 C13.7117278,41.163303 15.2745208,40.752425 16.8872126,41.3653742 L18.1521161,39.494898 L18.2131368,39.5341408 L19.2315524,41.4915954 L18.604812,42.41878 C19.1158234,42.8633365 19.4897635,43.3471359 19.7792364,43.9053209 L19.8339447,44.0130922 L19.871519,44.0824993 L19.8141054,44.1439992 L19.7308406,44.2306848 L18.6489995,45.3839547 L18.4442943,45.6009616 L18.3105296,45.74534 L18.2437975,45.5599617 L18.1415952,45.2835049 C17.8692562,44.5173916 17.3444175,43.8420639 16.6936295,43.4241572 C15.8179965,42.8621651 15.0818395,42.9388936 14.6444739,43.5855213 C14.2353642,44.1902706 14.3528968,44.6690914 15.3229166,46.1793537 C16.757055,48.401258 16.9001382,49.5302209 15.8973535,51.0129547 C14.9643069,52.3931886 13.3849811,52.8327666 11.8687803,52.3791315 L10.5380466,54.3468361 L10.4376478,54.2827005 L9.44808934,52.3653672 L10.0910619,51.4147542 C9.28847344,50.8029764 8.66443837,50.0939701 8.23639119,49.3354711 L8.16725436,49.2200855 L8.12276631,49.1454071 L8.17476923,49.0818571 L8.25803403,48.9890216 L9.34528588,47.7982659 L9.5337589,47.5915091 L9.65970817,47.4547449 L9.73185096,47.6234304 L9.84517524,47.875873 C10.2762284,48.8595789 10.9420461,49.6827992 11.7350156,50.1917843 C12.6551366,50.7824764 13.5214512,50.6861265 14.02104,49.9475418"/>
    </g>
    <path fill="#FFF" d="M18.9633499,11.9798346 L25.3790778,12 C25.7702997,11.3916769 25.9975471,10.6728921 25.9999978,9.89585169 C26.0022257,7.75607782 24.2976477,6.01333844 22.1860295,6.0068407 C21.5060697,6.00415197 20.8702227,6.18586471 20.3139122,6.49708417 C20.1265445,2.88366709 17.1832455,0.00964830911 13.5737999,1.37252157e-05 C10.3308463,-0.00648401741 7.61613138,2.29483717 6.94374652,5.38014462 C6.24173039,4.90760189 5.39846442,4.63290422 4.49281682,4.62999144 C2.01738006,4.62259746 0.0080231891,6.65056534 2.69377768e-06,9.16160677 C-0.00111126391,10.2032621 0.343324452,11.1640318 0.92436478,11.9350226 L8.01737893,11.951379 L18.9633499,11.9798346 Z" opacity=".4"/>
  </g>
</svg>
