<?xml version="1.0" encoding="UTF-8"?>
<svg width="100px" height="60px" viewBox="0 0 100 60" version="1.1" xmlns="http://www.w3.org/2000/svg" xmlns:xlink="http://www.w3.org/1999/xlink">
    <!-- Generator: Sketch 57.1 (83088) - https://sketch.com -->
    <title>Account</title>
    <desc>Created with Sketch.</desc>
    <g id="Symbols" stroke="none" stroke-width="1" fill="none" fill-rule="evenodd">
        <g id="Receipt/Resources/Account">
            <g id="Account">
                <path d="M0,30 C0,13.4314575 13.4345247,0 30.0032973,0 L69.9967027,0 C86.5670662,0 100,13.4278145 100,30 L100,30 C100,46.5685425 86.5654753,60 69.9967027,60 L30.0032973,60 C13.4329338,60 0,46.5721855 0,30 L0,30 Z" id="bg" fill="#F4F4F4"></path>
                <g id="Avatars/Accounts/Pagare" transform="translate(20.000000, 10.000000)">
                    <g id="Page-1" transform="translate(15.000000, 0.000000)">
                        <path d="M29.8501277,3.04680851 L3.63906383,3.04680851 C3.22544681,3.04680851 2.89012766,3.43319149 2.89012766,3.90808511 L2.89012766,38.0119149 L2.89012766,38.0919149 C2.89012766,38.5676596 3.22544681,38.9531915 3.63906383,38.9531915 L29.8501277,38.9531915 C30.2637447,38.9531915 30.5990638,38.5676596 30.5990638,38.0919149 L30.5990638,6.12765957 L30.5990638,3.90808511 C30.5990638,3.43319149 30.2637447,3.04680851 29.8501277,3.04680851" id="Fill-4" fill="#D3D3D3"></path>
                        <path d="M27.7090213,35.0451064 C27.7090213,35.5208511 27.3737021,35.906383 26.9600851,35.906383 L0.749021277,35.906383 C0.335404255,35.906383 8.5106383e-05,35.5208511 8.5106383e-05,35.0451064 L8.5106383e-05,0.861276596 C8.5106383e-05,0.386382979 0.335404255,-7.10542736e-15 0.749021277,-7.10542736e-15 L26.9600851,-7.10542736e-15 C27.3737021,-7.10542736e-15 27.7090213,0.386382979 27.7090213,0.861276596 L27.7090213,35.0451064 Z" id="Fill-6" fill="#FFFFFF"></path>
                        <path d="M0,34.9657021 C0,35.5205957 0.335319149,35.9061277 0.74893617,35.9061277 L26.96,35.9061277 C27.373617,35.9061277 27.7089362,35.5205957 27.7089362,35.0448511 L27.7089362,3.08059574 L0,34.9657021 Z" id="Fill-19" fill="#E9E9E9"></path>
                        <path d="M15,9.87106383 L23,9.87106383" id="Stroke-9" stroke="#2DCCCD" stroke-width="2" stroke-linecap="round" stroke-linejoin="round"></path>
                        <path d="M5,14.6382979 L23,14.6382979" id="Stroke-11" stroke="#2A86CA" stroke-width="2" stroke-linecap="round" stroke-linejoin="round"></path>
                        <path d="M5,19.4870638 L23,19.4870638" id="Stroke-13" stroke="#2A86CA" stroke-width="2" stroke-linecap="round" stroke-linejoin="round"></path>
                    </g>
                </g>
            </g>
        </g>
    </g>
</svg>