<?xml version="1.0" encoding="UTF-8"?>
<svg width="48px" height="32px" viewBox="0 0 48 32" version="1.1" xmlns="http://www.w3.org/2000/svg" xmlns:xlink="http://www.w3.org/1999/xlink">
    <!-- Generator: Sketch 59.1 (86144) - https://sketch.com -->
    <title>🏦 Account Icon</title>
    <desc>Created with Sketch.</desc>
    <defs>
        <path d="M41.0714201,0 L0.29701334,0 C0.132687994,0 0,0.110119003 0,0.245948609 L0.0179435722,31.7768514 C0.0179435722,31.912681 0.132687994,32 0.29701334,32 L16.4844764,32 C16.4844764,32 48,31.9689016 48,31.9697439 L48,0.245948609 C48,0.110119003 47.9253925,0 47.7610672,0 L41.0714201,0 Z" id="path-1"></path>
        <path d="M30.6142636,0.905581977 L0.353398058,30.905582 C0.353398058,30.905582 32.3533981,30.9007026 32.3533981,30.905582 L32.3533981,1.13618621 C32.3533981,1.00883082 32.2821922,0.905581977 32.1253592,0.905581977 L30.6142636,0.905581977 Z" id="path-3"></path>
    </defs>
    <g id="Symbols" stroke="none" stroke-width="1" fill="none" fill-rule="evenodd">
        <g id="Block/Recipe/Avatar" transform="translate(-136.000000, -8.000000)">
            <g id="Component/Clips/Clip-Box/Reciept/Account" transform="translate(120.000000, 0.000000)">
                <g id="Component/⛔️Assets/Clips/Account" transform="translate(16.000000, 8.000000)">
                    <g id="Account-Illustration" stroke-width="1" fill-rule="evenodd">
                        <g id="account-microillustration">
                            <g id="Group-3">
                                <mask id="mask-2" fill="white">
                                    <use xlink:href="#path-1"></use>
                                </mask>
                                <g id="Clip-2"></g>
                                <polygon id="Fill-1" fill="#004481" mask="url(#mask-2)" points="-4.63735922 36.6540205 52.8139806 36.6540205 52.8139806 -4.76102879 -4.63735922 -4.76102879"></polygon>
                            </g>
                            <polygon id="Fill-7" fill="#237ABA" points="6 25 42 25 42 22 6 22"></polygon>
                            <polygon id="Fill-8" fill="#237ABA" points="26 19 42 19 42 16 26 16"></polygon>
                            <g id="Group-11" transform="translate(14.646602, 0.094418)">
                                <mask id="mask-4" fill="white">
                                    <use xlink:href="#path-3"></use>
                                </mask>
                                <g id="Clip-10"></g>
                                <polygon id="Fill-9" fill="#FFFFFF" opacity="0.200000003" mask="url(#mask-4)" points="-5.04660194 31.905582 32.5533981 32 32.5533981 0 -5.00073877 0"></polygon>
                            </g>
                        </g>
                    </g>
                    <g id="Foundations/Logo/White" transform="translate(5.000000, 4.000000)" fill="#FFFFFF" fill-rule="nonzero">
                        <path d="M2.66817978,0.747120132 C3.57509802,0.747120132 4.20599768,1.30005485 4.20599768,2.11629183 C4.20599768,2.60340099 3.98255405,2.98518925 3.62767299,3.16950082 C3.62767299,3.16950082 4.44258504,3.40647285 4.45572879,4.43335162 C4.45572879,5.4733955 3.81168539,6 2.57617358,6 L2.57617358,6 L0.105149942,6 C0.0394312282,6 0,5.94733955 0,5.8946791 L0,5.8946791 L0,0.852441031 C0,0.786615469 0.0525749709,0.747120132 0.105149942,0.747120132 L0.105149942,0.747120132 Z M7.95196435,0.747120132 C8.8588826,0.747120132 9.48978225,1.30005485 9.48978225,2.11629183 C9.48978225,2.60340099 9.26633863,2.98518925 8.91145757,3.16950082 C8.91145757,3.16950082 9.73951337,3.40647285 9.73951337,4.43335162 C9.73951337,5.4733955 9.09546997,6 7.85995816,6 L7.85995816,6 L5.38893452,6 C5.32321581,6 5.28378458,5.94733955 5.28378458,5.8946791 L5.28378458,5.8946791 L5.28378458,0.852441031 C5.28378458,0.786615469 5.33635955,0.747120132 5.38893452,0.747120132 L5.38893452,0.747120132 Z M10.6858628,0.760285244 C10.7252941,0.760285244 10.7647253,0.786615469 10.777869,0.812945694 L10.777869,0.812945694 L12.4996993,4.09105869 C12.5391306,4.15688426 12.6442805,4.15688426 12.6837117,4.09105869 L12.6837117,4.09105869 L14.405542,0.812945694 C14.4186858,0.773450357 14.458117,0.760285244 14.4844045,0.760285244 L14.4844045,0.760285244 L15.3124603,0.760285244 C15.3650353,0.760285244 15.4044665,0.812945694 15.378179,0.865606144 L15.378179,0.865606144 L12.670568,5.94733955 C12.6442805,6.01316511 12.5391306,6.01316511 12.4996993,5.94733955 L12.4996993,5.94733955 L9.79208834,0.865606144 C9.76580085,0.826110806 9.80523208,0.760285244 9.85780705,0.760285244 L9.85780705,0.760285244 Z M17.113153,0.0493691717 C17.1394405,-0.0164563906 17.2445905,-0.0164563906 17.2840217,0.0493691717 L17.2840217,0.0493691717 L19.9916327,5.13110258 C20.0179202,5.17059792 19.978489,5.23642348 19.925914,5.23642348 L19.925914,5.23642348 L19.0978582,5.23642348 C19.058427,5.23642348 19.0189957,5.21009325 19.005852,5.18376303 L19.005852,5.18376303 L17.2840217,1.90565003 C17.2445905,1.83982447 17.1394405,1.83982447 17.1000093,1.90565003 L17.1000093,1.90565003 L15.378179,5.18376303 C15.3650353,5.22325837 15.325604,5.23642348 15.2993165,5.23642348 L15.2993165,5.23642348 L14.4712608,5.23642348 C14.4186858,5.23642348 14.3792546,5.18376303 14.405542,5.13110258 L14.405542,5.13110258 Z M2.51045486,3.63027976 L0.95949322,3.63027976 C0.893774506,3.63027976 0.854343278,3.68294021 0.854343278,3.73560066 L0.854343278,3.73560066 L0.854343278,5.13110258 C0.854343278,5.19692814 0.906918249,5.23642348 0.95949322,5.23642348 L0.95949322,5.23642348 L2.51045486,5.23642348 C3.2596482,5.23642348 3.57509802,4.99945145 3.57509802,4.42018651 C3.57509802,3.84092156 3.24650446,3.63027976 2.51045486,3.63027976 L2.51045486,3.63027976 Z M7.80738318,3.63027976 L6.25642154,3.63027976 C6.19070283,3.63027976 6.1512716,3.68294021 6.1512716,3.73560066 L6.1512716,3.73560066 L6.1512716,5.13110258 C6.1512716,5.19692814 6.20384657,5.23642348 6.25642154,5.23642348 L6.25642154,5.23642348 L7.80738318,5.23642348 C8.54343278,5.23642348 8.87202635,4.99945145 8.87202635,4.42018651 C8.87202635,3.84092156 8.54343278,3.63027976 7.80738318,3.63027976 L7.80738318,3.63027976 Z M2.49731112,1.51069665 L0.95949322,1.51069665 C0.906918249,1.51069665 0.867487021,1.5633571 0.867487021,1.60285244 L0.867487021,1.60285244 L0.867487021,2.77454745 C0.867487021,2.84037301 0.920061991,2.87986835 0.972636962,2.87986835 L0.972636962,2.87986835 L2.49731112,2.87986835 C3.06249206,2.87986835 3.3516544,2.64289632 3.3516544,2.1952825 C3.3516544,1.74766868 3.06249206,1.51069665 2.49731112,1.51069665 L2.49731112,1.51069665 Z M7.7810957,1.51069665 L6.25642154,1.51069665 C6.20384657,1.51069665 6.1512716,1.5633571 6.1512716,1.60285244 L6.1512716,1.60285244 L6.1512716,2.77454745 C6.1512716,2.84037301 6.20384657,2.87986835 6.25642154,2.87986835 L6.25642154,2.87986835 L7.7810957,2.87986835 C8.34627664,2.87986835 8.63543898,2.64289632 8.63543898,2.1952825 C8.63543898,1.74766868 8.34627664,1.51069665 7.7810957,1.51069665 L7.7810957,1.51069665 Z" id="BBVA"></path>
                    </g>
                </g>
            </g>
        </g>
    </g>
</svg>