<svg id="Capa_1" data-name="Capa 1" xmlns="http://www.w3.org/2000/svg" xmlns:xlink="http://www.w3.org/1999/xlink" viewBox="0 0 600 600"><defs><style>.cls-1{fill:url(#Degradado_sin_nombre_14);}.cls-2{fill:url(#Degradado_sin_nombre_14-2);}.cls-3{fill:url(#Degradado_sin_nombre_14-3);}.cls-4{fill:url(#Degradado_sin_nombre_14-4);}.cls-5{fill:url(#Degradado_sin_nombre_14-5);}.cls-6{fill:url(#Degradado_sin_nombre_14-6);}.cls-7{fill:url(#Degradado_sin_nombre_14-7);}.cls-8{fill:url(#Degradado_sin_nombre_14-8);}.cls-15,.cls-9{fill:#f8cd50;}.cls-10{fill:url(#Degradado_sin_nombre_41);}.cls-11{fill:#d4edfc;}.cls-12{fill:#49a5e6;}.cls-13{fill:url(#Degradado_sin_nombre_19);}.cls-14{fill:#1464a5;}.cls-15{opacity:0.2;}</style><linearGradient id="Degradado_sin_nombre_14" x1="240.03" y1="99.28" x2="447.8" y2="490.04" gradientUnits="userSpaceOnUse"><stop offset="0" stop-color="#1c2645" stop-opacity="0.5"/><stop offset="1" stop-color="#1c2645" stop-opacity="0"/></linearGradient><linearGradient id="Degradado_sin_nombre_14-2" x1="139.89" y1="208.61" x2="328.03" y2="562.46" xlink:href="#Degradado_sin_nombre_14"/><linearGradient id="Degradado_sin_nombre_14-3" x1="284.62" y1="117.31" x2="477.76" y2="480.55" xlink:href="#Degradado_sin_nombre_14"/><linearGradient id="Degradado_sin_nombre_14-4" x1="89.43" y1="219.98" x2="294.79" y2="606.2" xlink:href="#Degradado_sin_nombre_14"/><linearGradient id="Degradado_sin_nombre_14-5" x1="185.88" y1="185.12" x2="378.21" y2="546.84" xlink:href="#Degradado_sin_nombre_14"/><linearGradient id="Degradado_sin_nombre_14-6" x1="172.85" y1="177.09" x2="376.71" y2="560.49" xlink:href="#Degradado_sin_nombre_14"/><linearGradient id="Degradado_sin_nombre_14-7" x1="247.16" y1="101.54" x2="461" y2="503.71" xlink:href="#Degradado_sin_nombre_14"/><linearGradient id="Degradado_sin_nombre_14-8" x1="113.65" y1="194.09" x2="327.49" y2="596.25" xlink:href="#Degradado_sin_nombre_14"/><linearGradient id="Degradado_sin_nombre_41" x1="147.59" y1="233.37" x2="223.14" y2="273.54" gradientUnits="userSpaceOnUse"><stop offset="0" stop-color="#fff" stop-opacity="0.5"/><stop offset="1" stop-color="#fff" stop-opacity="0.2"/></linearGradient><linearGradient id="Degradado_sin_nombre_19" x1="337.16" y1="197.19" x2="397.51" y2="257.54" gradientUnits="userSpaceOnUse"><stop offset="0" stop-color="#fff" stop-opacity="0.2"/><stop offset="1" stop-color="#fff" stop-opacity="0"/></linearGradient></defs><title>empty-states</title><path class="cls-1" d="M521.9,168a4,4,0,0,0,5.44-1.56l7-12.55a4,4,0,0,0-1.56-5.45l-48.2-26.71a4,4,0,0,0-5.45,1.56l-6.95,12.55a4,4,0,0,0,1.56,5.44L435.6,210a60.15,60.15,0,0,1-42.16,30.07,60.16,60.16,0,0,0-42.16,30.08l-5.13,9.25a85.36,85.36,0,0,0-34.57-34.21c-.84-.45-1.7-.89-2.56-1.31l-1.46-.7c-.69-.32-1.37-.63-2.07-.93s-1.22-.53-1.84-.78-1.39-.56-2.1-.83l-1.36-.5c-1-.35-2-.69-3-1L296,238.8c-.85-.26-1.71-.5-2.58-.73l-.91-.25c-1.1-.28-2.22-.53-3.34-.77l-1.07-.22c-1.15-.23-2.31-.44-3.47-.62l-.69-.1c-1.08-.16-2.17-.29-3.26-.41l-.76-.08c-1.23-.13-2.47-.22-3.71-.29l-.82,0c-1.3-.06-2.6-.1-3.91-.1h0a85,85,0,0,0-84.93,85c0,1.73.07,3.44.17,5.15s.26,3.68.49,5.5l.06.39c.14,1,.28,2.06.45,3.08,0,.17.07.34.1.51a84.61,84.61,0,0,0,16,36.63H135.12a10.86,10.86,0,0,0,0,21.71H520.41a10.86,10.86,0,1,0,0-21.71H460.09l17.37-31.34a60.16,60.16,0,0,0,3.17-51.69h0a60.13,60.13,0,0,1,3.16-51.69Z"/><path class="cls-2" d="M366.07,426.2a11,11,0,0,0-10.4-11.31H155.12a10.86,10.86,0,0,0,0,21.71H354.75A11,11,0,0,0,366.07,426.2Z"/><path class="cls-3" d="M500.7,414.89H396.49a10.86,10.86,0,0,0,0,21.71H500.86a10.73,10.73,0,0,0,10.4-11.31A11,11,0,0,0,500.7,414.89Z"/><path class="cls-4" d="M238.7,458.63H205.12a10.86,10.86,0,0,0,0,21.71H238.7a10.86,10.86,0,1,0,0-21.71Z"/><path class="cls-5" d="M393.93,458.48H280.87a10.86,10.86,0,0,0-.91,21.71h114a10.86,10.86,0,0,0,0-21.71Z"/><path class="cls-6" d="M370.86,502.06H332.05a10.86,10.86,0,0,0,0,21.71h38.81a10.73,10.73,0,0,0,10.4-11.32A10.94,10.94,0,0,0,370.86,502.06Z"/><path class="cls-7" d="M450.86,458.63H434.75a10.86,10.86,0,0,0,0,21.71h16.11a10.86,10.86,0,0,0,0-21.71Z"/><path class="cls-8" d="M291.23,502.06H275.12a10.86,10.86,0,0,0,0,21.71h16.11a10.86,10.86,0,0,0,0-21.71Z"/><path class="cls-9" d="M305.76,276.78A85,85,0,1,0,153.06,328h135.5A84.61,84.61,0,0,0,305.76,276.78Z"/><path class="cls-10" d="M260.8,201.8A84.93,84.93,0,0,0,153.07,328h41.09Z"/><path class="cls-11" d="M426.67,296.7A60.13,60.13,0,0,0,429.83,245h0A60.16,60.16,0,0,1,433,193.32l38.1-68.74a4,4,0,0,0,5.45-1.57l7-12.54a4,4,0,0,0-1.57-5.45L433.75,78.3a4,4,0,0,0-5.45,1.57l-6.95,12.54a4,4,0,0,0,1.56,5.45L384.8,166.61a60.11,60.11,0,0,1-42.15,30.07,60.15,60.15,0,0,0-42.16,30.07L244.35,328h165Z"/><path class="cls-12" d="M416.13,290.85a47.9,47.9,0,0,0,2.59-41.18c-8-20-7.22-42.44,3.23-61.28l38.61-69.66,3.24-5.85a3.6,3.6,0,0,0-1.41-4.91L441.61,96.45a3.6,3.6,0,0,0-4.91,1.41l-3.25,5.85-38.1,68.74a71.88,71.88,0,0,1-50.56,36.09A48.21,48.21,0,0,0,311,232.6L258.13,328H395.51Z"/><path class="cls-13" d="M452.15,102.29l-10.54-5.84a3.6,3.6,0,0,0-4.91,1.41l-3.25,5.85-38.1,68.74a71.88,71.88,0,0,1-50.56,36.09A48.21,48.21,0,0,0,311,232.6L258.13,328H327Z"/><path class="cls-14" d="M304,393.18a10.86,10.86,0,1,0,.92-21.71H104.33a10.86,10.86,0,0,0,0,21.71Z"/><path class="cls-14" d="M449.91,371.47H345.69a10.86,10.86,0,0,0,0,21.71H450.07a10.71,10.71,0,0,0,10.39-11.31A11,11,0,0,0,449.91,371.47Z"/><path class="cls-14" d="M198.76,426.07a10.89,10.89,0,0,0-10.85-10.86H154.33a10.86,10.86,0,0,0,0,21.71h33.58A11,11,0,0,0,198.76,426.07Z"/><path class="cls-14" d="M343.14,436.77a10.86,10.86,0,0,0,0-21.71H230.08a10.86,10.86,0,1,0-.91,21.71h114Z"/><path class="cls-14" d="M320.07,458.63H281.26a10.87,10.87,0,0,0,0,21.72h38.81A10.72,10.72,0,0,0,330.46,469a10.94,10.94,0,0,0-10.39-10.4Z"/><path class="cls-14" d="M400.07,415.21H384a10.86,10.86,0,0,0,0,21.71h16.11a10.86,10.86,0,0,0,0-21.71Z"/><path class="cls-14" d="M240.44,458.63H224.33a10.87,10.87,0,0,0,0,21.72h16.11a10.87,10.87,0,0,0,0-21.72Z"/><path class="cls-14" d="M480.48,338.9A10.9,10.9,0,0,0,469.62,328H84.33a10.86,10.86,0,0,0,0,21.71H469.62A10.9,10.9,0,0,0,480.48,338.9Z"/><path class="cls-15" d="M295.36,236l-51,92h44.21a85,85,0,0,0,6.8-92Z"/></svg>