<?xml version="1.0" encoding="UTF-8"?>
<svg width="144px" height="144px" viewBox="0 0 144 144" version="1.1" xmlns="http://www.w3.org/2000/svg" xmlns:xlink="http://www.w3.org/1999/xlink">
    <!-- Generator: Sketch 57.1 (83088) - https://sketch.com -->
    <title>Alerts/Error@1x</title>
    <desc>Created with Sketch.</desc>
    <defs>
        <linearGradient x1="6.33619369%" y1="12.1036464%" x2="47.6160294%" y2="81.0559259%" id="linearGradient-1">
            <stop stop-color="#1A2542" stop-opacity="0.5" offset="0%"></stop>
            <stop stop-color="#1A2542" stop-opacity="0" offset="100%"></stop>
        </linearGradient>
    </defs>
    <g id="Alerts/Error" stroke="none" stroke-width="1" fill="none" fill-rule="evenodd">
        <g id="Alert">
            <g transform="translate(27.600000, 32.640000)">
                <path d="M24.5016,95.1648002 L104.5344,95.1648002 C106.104321,95.1648002 107.555781,94.3299611 108.344141,92.9723389 C109.132502,91.6147166 109.138544,89.9400755 108.36,88.5768 L68.3472,18.48 C67.5636033,17.1059939 66.1033448,16.2577426 64.5216,16.2577426 C62.9398552,16.2577426 61.4795967,17.1059939 60.696,18.48 L20.676,88.5768 C19.8974562,89.9400755 19.9034982,91.6147166 20.6918588,92.9723389 C21.4802194,94.3299611 22.9316795,95.1648002 24.5016,95.1648002 Z" id="Path" fill="url(#linearGradient-1)" fill-rule="nonzero"></path>
                <path d="M4.5408,78.9168 L84.5736,78.9168 C86.1436377,78.9168 87.5947983,78.0803897 88.383003,76.7225415 C89.1712078,75.3646932 89.1773779,73.6900194 88.3992,72.3264 L48.384,2.2224 C47.6004033,0.848393901 46.1401448,0.000142569599 44.5584,0.000142569599 C42.9766552,0.000142569599 41.5163967,0.848393901 40.7328,2.2224 L0.72,72.3264 C-0.057755187,73.6892753 -0.0520457862,75.3629314 0.734989637,76.7204686 C1.52202506,78.0780059 2.97161961,78.9145662 4.5408,78.9168 L4.5408,78.9168 Z" id="Path" fill="#DA3951" fill-rule="nonzero"></path>
                <path d="M44.556,56.376 C43.6345402,56.376 42.750856,56.0097876 42.0995107,55.357992 C41.4481653,54.7061965 41.0825632,53.8222596 41.0832,52.9008 L41.0832,23.8608 C41.0500028,22.5978887 41.704787,21.4164406 42.7933026,20.7752069 C43.8818183,20.1339732 45.2325817,20.1339732 46.3210974,20.7752069 C47.409613,21.4164406 48.0643972,22.5978887 48.0312,23.8608 L48.0312,52.9008 C48.0312,54.8201 46.4753,56.376 44.556,56.376 Z" id="Path" fill="#FFFFFF" fill-rule="nonzero"></path>
                <circle id="Oval" fill="#FFFFFF" fill-rule="nonzero" cx="44.556" cy="65.8392" r="4.0536"></circle>
            </g>
        </g>
    </g>
</svg>