<?xml version="1.0" encoding="UTF-8"?>
<svg width="111px" height="110px" viewBox="0 0 450 443" version="1.1" xmlns="http://www.w3.org/2000/svg" xmlns:xlink="http://www.w3.org/1999/xlink">
    <!-- Generator: Sketch 58 (84663) - https://sketch.com -->
    <title>Alerts/Error</title>
    <desc>Created with Sketch.</desc>
    <defs>
        <linearGradient x1="6.33559938%" y1="12.1630204%" x2="47.6154324%" y2="81.0077771%" id="linearGradient-1">
            <stop stop-color="#1A2542" stop-opacity="0.5" offset="0%"></stop>
            <stop stop-color="#1A2542" stop-opacity="0" offset="100%"></stop>
        </linearGradient>
    </defs>
    <g id="Digital_Activation_MX" stroke="none" stroke-width="1" fill="none" fill-rule="evenodd">
        <g id="Alerts/Error" transform="translate(-93.000000, -84.000000)">
            <g id="Error">
                <rect id="Rectangle" x="0" y="0" width="600" height="600"></rect>
                <path d="M207.007996,526.464384 L579.407313,526.464384 C586.712284,526.464384 593.466049,522.582838 597.134357,516.270635 C600.802665,509.958433 600.830779,502.172266 597.20815,495.833778 L411.025242,169.921914 C407.379101,163.533536 400.584396,159.58963 393.224405,159.58963 C385.864414,159.58963 379.069709,163.533536 375.423568,169.921914 L189.207159,495.833778 C185.584529,502.172266 185.612643,509.958433 189.280951,516.270635 C192.949259,522.582838 199.703024,526.464384 207.007996,526.464384 Z" id="Path" fill="url(#linearGradient-1)" fill-rule="nonzero"></path>
                <path d="M114.128722,450.92005 L486.52804,450.92005 C493.833556,450.92005 500.585928,447.031199 504.253511,440.717946 C507.921093,434.404692 507.949803,426.618373 504.328877,420.278287 L318.134802,94.3329471 C314.488661,87.9445686 307.693956,84.0006629 300.333965,84.0006629 C292.973974,84.0006629 286.179269,87.9445686 282.533128,94.3329471 L96.3502203,420.278287 C92.7312603,426.614913 92.7578266,434.396501 96.4199683,440.708308 C100.08211,447.020115 106.827195,450.909664 114.128722,450.92005 Z" id="Path" fill="#DA3951" fill-rule="nonzero"></path>
                <path d="M300.322797,346.117632 C291.398302,346.117632 284.163568,338.888542 284.163568,329.971008 L284.163568,194.939698 C284.006122,189.16546 286.94555,183.746456 291.873336,180.726298 C296.801123,177.70614 302.967602,177.544285 308.047274,180.301772 C313.126946,183.059259 316.34704,188.31659 316.493194,194.091124 C316.500639,194.37393 316.500639,194.656788 316.493194,194.939698 L316.493194,329.959849 C316.493194,338.883546 309.253461,346.117632 300.322797,346.117632 L300.322797,346.117632 Z" id="Path" fill="#FFFFFF" fill-rule="nonzero"></path>
                <ellipse id="Oval" fill="#FFFFFF" fill-rule="nonzero" cx="300.322786" cy="390.116336" rx="18.8617178" ry="18.8470054"></ellipse>
            </g>
        </g>
    </g>
</svg>