<?xml version="1.0" encoding="UTF-8"?>
<svg width="300px" height="130px" viewBox="0 0 300 130" version="1.1" xmlns="http://www.w3.org/2000/svg" xmlns:xlink="http://www.w3.org/1999/xlink">
    <!-- Generator: Sketch 51.2 (57519) - http://www.bohemiancoding.com/sketch -->
    <title>Illustration/fuerahorario</title>
    <desc>Created with Sketch.</desc>
    <defs></defs>
    <g id="Illustration/fuerahorario" stroke="none" stroke-width="1" fill="none" fill-rule="evenodd">
        <g id="Background" transform="translate(23.000000, 0.000000)" fill="#D4EDFC">
            <path d="M41.4307,22.0425 L62.5157,22.0425 C66.4337,22.0425 70.0547,19.9415 72.0137,16.5315 C73.9727,13.1225 73.9727,8.9205 72.0137,5.5105 C70.0547,2.1005 66.4337,0.0005 62.5157,0.0005 L41.4307,0.0005 C37.5127,0.0005 33.8917,2.1005 31.9327,5.5105 C29.9737,8.9205 29.9737,13.1225 31.9327,16.5315 C33.8917,19.9415 37.5127,22.0425 41.4307,22.0425" id="Fill-1"></path>
            <path d="M239.333,90.667 L210.473,90.667 L191.18,90.667 C183.08,90.667 176.514,84.101 176.514,76 C176.514,67.899 183.08,61.334 191.18,61.334 L198.307,61.334 C206.406,61.334 212.973,54.767 212.973,46.667 C212.973,38.566 206.406,32 198.307,32 L50.693,32 C42.593,32 36.027,38.566 36.027,46.667 C36.027,54.767 42.593,61.334 50.693,61.334 L57.82,61.334 C65.92,61.334 72.486,67.899 72.486,76 C72.486,84.101 65.92,90.667 57.82,90.667 L33.527,90.667 L14.666,90.667 C6.566,90.667 0,97.233 0,105.333 C0,113.434 6.566,120 14.666,120 L239.333,120 C247.434,120 254,113.434 254,105.333 C254,97.233 247.434,90.667 239.333,90.667" id="Fill-3"></path>
        </g>
        <g id="Clock" transform="translate(102.000000, 20.000000)">
            <polygon id="Fill-1" fill="#004481" points="66.8326 16.4534 75.2926 22.5634 81.0286 14.7144 72.5676 8.6034"></polygon>
            <path d="M71.2603,5.0887 C70.2803,6.4317 70.5783,8.3087 71.9293,9.2837 L80.5763,15.5297 C81.9263,16.5057 83.8153,16.2077 84.7963,14.8647 C85.7773,13.5237 85.4773,11.6467 84.1273,10.6717 L75.4803,4.4247 C74.1293,3.4487 72.2413,3.7467 71.2603,5.0887" id="Fill-2" fill="#49A5E6"></path>
            <path d="M79.7045,7.4762 L81.2365,15.8812 C82.4905,16.3782 83.9665,16.0002 84.7965,14.8652 C85.7765,13.5242 85.4775,11.6462 84.1275,10.6712 L79.7045,7.4762 Z" id="Fill-4" fill-opacity="0.5" fill="#1973B8"></path>
            <polygon id="Fill-6" fill="#004481" points="30.0733 15.8196 21.6123 21.9296 15.8763 14.0806 24.3373 7.9696"></polygon>
            <path d="M25.6446,4.4549 C26.6256,5.7969 26.3266,7.6749 24.9756,8.6499 L16.3296,14.8959 C14.9786,15.8709 13.0896,15.5739 12.1096,14.2309 C11.1286,12.8899 11.4276,11.0119 12.7786,10.0379 L21.4246,3.7909 C22.7756,2.8149 24.6646,3.1119 25.6446,4.4549" id="Fill-8" fill="#49A5E6"></path>
            <path d="M17.2014,6.8424 L15.6684,15.2464 C14.4144,15.7444 12.9384,15.3664 12.1094,14.2304 C11.1284,12.8894 11.4274,11.0124 12.7784,10.0374 L17.2014,6.8424 Z" id="Fill-10" fill-opacity="0.5" fill="#1973B8"></path>
            <polygon id="Clip-13" points="0 109.491 96.905 109.491 96.905 0 0 0"></polygon>
            <polygon id="Fill-12" fill="#004481" points="38.999 11.586 57.999 11.586 57.999 0.586 38.999 0.586"></polygon>
            <polygon id="Fill-14" fill="#001B46" points="53.7134 0.5862 42.9994 11.5862 57.9994 11.5862 57.9994 0.5862"></polygon>
            <path d="M59.1412,4.4143 L38.0412,4.4143 C36.8202,4.4143 35.8202,3.4203 35.8202,2.2073 C35.8202,0.9943 36.8202,0.0003 38.0412,0.0003 L59.1412,0.0003 C60.3632,0.0003 61.3632,0.9943 61.3632,2.2073 C61.3632,3.4203 60.3632,4.4143 59.1412,4.4143" id="Fill-15" fill="#49A5E6"></path>
            <path d="M96.9058,61.032 C96.9058,87.794 75.2128,109.491 48.4518,109.491 C21.6918,109.491 -0.0002,87.794 -0.0002,61.032 C-0.0002,34.269 21.6918,12.573 48.4518,12.573 C75.2128,12.573 96.9058,34.269 96.9058,61.032" id="Fill-16" fill="#004481"></path>
            <path d="M96.9058,56.0183 C96.9058,82.7823 75.2128,104.4773 48.4518,104.4773 C21.6918,104.4773 -0.0002,82.7823 -0.0002,56.0183 C-0.0002,29.2553 21.6918,7.5593 48.4518,7.5593 C75.2128,7.5593 96.9058,29.2553 96.9058,56.0183" id="Fill-17" fill="#237ABA"></path>
            <path d="M91.8463,55.5506 C91.8463,79.4416 72.4813,98.8106 48.5913,98.8106 C24.7033,98.8106 5.3363,79.4416 5.3363,55.5506 C5.3363,31.6586 24.7033,12.2916 48.5913,12.2916 C72.4813,12.2916 91.8463,31.6586 91.8463,55.5506" id="Fill-19" fill="#FFFFFF"></path>
            <path d="M30.3589,94.7801 C35.9009,97.3601 42.0749,98.8101 48.5909,98.8101 C72.4809,98.8101 91.8459,79.4411 91.8459,55.5511 C91.8459,48.3841 90.0929,41.6301 87.0079,35.6781 C67.2489,54.5461 48.4369,74.4591 30.3589,94.7801" id="Fill-21" fill="#D4EDFC" opacity="0.3"></path>
            <path d="M48.5914,12.2918 C24.7034,12.2918 5.3364,31.6588 5.3364,55.5508 C5.3364,61.9898 6.7544,68.0958 9.2774,73.5878 L66.6304,16.2348 C61.1384,13.7098 55.0314,12.2918 48.5914,12.2918" id="Fill-23" fill="#F4F4F4" opacity="0.5"></path>
            <path d="M85.6422,55.116 C86.1752,75.523 69.9572,92.504 49.4182,93.041 C28.8782,93.577 11.7952,77.468 11.2622,57.059 C10.7282,36.652 26.9472,19.673 47.4862,19.136 C68.0262,18.599 85.1092,34.708 85.6422,55.116 Z" id="Stroke-25" stroke="#67CBCB" stroke-width="4" stroke-linejoin="round" stroke-dasharray="1,2.960000038146973"></path>
            <g id="Minutes" transform="translate(15.000000, 23.491000)">
                <path d="M66.317,32.5273 C66.317,34.3313 64.845,35.7953 63.028,35.7953 C61.213,35.7953 59.74,34.3313 59.74,32.5273 C59.74,30.7233 61.213,29.2593 63.028,29.2593 C64.845,29.2593 66.317,30.7233 66.317,32.5273" id="Fill-28" fill="#2DCCCD"></path>
                <path d="M7.1651,32.5273 C7.1651,34.3313 5.6941,35.7953 3.8771,35.7953 C2.0611,35.7953 0.5891,34.3313 0.5891,32.5273 C0.5891,30.7233 2.0611,29.2593 3.8771,29.2593 C5.6941,29.2593 7.1651,30.7233 7.1651,32.5273" id="Fill-30" fill="#2DCCCD"></path>
                <path d="M36.7398,4.2207 C36.7398,6.0247 35.2688,7.4877 33.4528,7.4877 C31.6358,7.4877 30.1648,6.0247 30.1648,4.2207 C30.1648,2.4147 31.6358,0.9527 33.4528,0.9527 C35.2688,0.9527 36.7398,2.4147 36.7398,4.2207" id="Fill-32" fill="#FF5E61"></path>
                <path d="M36.7398,60.333 C36.7398,62.138 35.2688,63.601 33.4528,63.601 C31.6358,63.601 30.1648,62.138 30.1648,60.333 C30.1648,58.528 31.6358,57.066 33.4528,57.066 C35.2688,57.066 36.7398,58.528 36.7398,60.333" id="Fill-34" fill="#2DCCCD"></path>
                <path d="M33.4527,37.1973 C32.5357,37.1973 31.7867,36.4533 31.7867,35.5413 L31.7867,13.4733 C31.7867,12.5633 32.5357,11.8183 33.4527,11.8183 C34.3687,11.8183 35.1187,12.5633 35.1187,13.4733 L35.1187,35.5413 C35.1187,36.4533 34.3687,37.1973 33.4527,37.1973" id="Fill-36" fill="#FF5E61"></path>
                <path d="M55.6763,18.4893 L33.0263,36.2823 C32.7873,36.4693 32.7463,36.8183 32.9353,37.0563 C33.1243,37.2953 33.4763,37.3353 33.7153,37.1473 L56.3653,19.3543 C56.6053,19.1673 56.6473,18.8173 56.4563,18.5793 C56.2683,18.3423 55.9173,18.3003 55.6763,18.4893" id="Fill-38" fill="#FF5E61"></path>
                <path d="M36.441,34.7021 C36.883,36.2411 35.985,37.8461 34.435,38.2851 C32.886,38.7231 31.271,37.8311 30.83,36.2921 C30.387,34.7521 31.286,33.1471 32.836,32.7091 C34.385,32.2701 35.999,33.1621 36.441,34.7021" id="Fill-40" fill="#B92A45"></path>
            </g>
        </g>
    </g>
</svg>