<?xml version="1.0" encoding="UTF-8"?>
<svg width="288px" height="116px" viewBox="0 0 288 116" version="1.1" xmlns="http://www.w3.org/2000/svg" xmlns:xlink="http://www.w3.org/1999/xlink">
    <!-- Generator: Sketch 53.2 (72643) - https://sketchapp.com -->
    <title>Illustration/General</title>
    <desc>Created with Sketch.</desc>
    <g id="Ω" stroke="none" stroke-width="1" fill="none" fill-rule="evenodd">
        <g id="CoDi-01-00-08" transform="translate(-16.000000, -104.000000)">
            <g id="Illustration/QRPayments_Info" transform="translate(16.000000, 104.000000)">
                <g id="Background" fill="#D4EDFC">
                    <path d="M215.04096,68.11488 C205.63584,68.11488 198.01248,60.49152 198.01248,51.0864 C198.01248,41.68128 205.63584,34.05696 215.04096,34.05696 L225.36768,34.05696 C234.7728,34.05696 242.39616,26.4336 242.39616,17.02848 C242.39616,7.62336 234.7728,0 225.36768,0 L36.22944,0 C26.82432,0 19.2,7.62336 19.2,17.02848 C19.2,26.4336 26.82432,34.05696 36.22944,34.05696 L55.59936,34.05696 C65.00448,34.05696 72.6288,41.68128 72.6288,51.0864 C72.6288,60.49152 65.00448,68.11488 55.59936,68.11488 L17.02944,68.11488 C7.62432,68.11488 0,75.73824 0,85.14336 C0,94.54752 7.62432,102.1728 17.02944,102.1728 L270.97152,102.1728 C280.37664,102.1728 288,94.54752 288,85.14336 C288,75.73824 280.37664,68.11488 270.97152,68.11488 L215.04096,68.11488 Z" id="Fill-1"></path>
                    <path d="M272.3808,0 L266.93376,0 C258.42048,0 251.52,6.90144 251.52,15.41472 C251.52,23.928 258.42048,30.82944 266.93376,30.82944 L272.3808,30.82944 C280.89408,30.82944 287.79552,23.928 287.79552,15.41472 C287.79552,6.90144 280.89408,0 272.3808,0" id="Fill-4"></path>
                </g>
                <g id="Group-53" transform="translate(87.360000, 2.880000)">
                    <path d="M73.474944,71.086464 C76.414464,71.865024 72.481344,73.336704 71.702784,76.280064 C70.924224,79.217664 70.654464,81.732864 70.654464,81.732864 L45.759744,75.139584 C42.820224,74.361984 41.067264,71.348544 41.847744,68.404224 C42.625344,65.466624 45.639744,63.714624 48.580224,64.490304 L73.474944,71.086464 Z" id="Fill-1" fill="#DD915E"></path>
                    <path d="M72.327456,69.827424 C74.368416,72.078624 70.267296,71.176224 68.014176,73.221024 C65.762016,75.264864 64.170336,77.229984 64.170336,77.229984 L46.862496,58.160544 C44.817696,55.909344 44.987616,52.425504 47.238816,50.380704 C49.490016,48.336864 52.971936,48.505824 55.018656,50.757024 L72.327456,69.827424 Z" id="Fill-3" fill="#DD915E"></path>
                    <path d="M72.865536,68.786784 C73.526016,71.752224 70.407936,68.940384 67.439616,69.604704 C64.471296,70.266144 62.116416,71.185824 62.116416,71.185824 L56.504256,46.052064 C55.840896,43.085664 57.710976,40.141344 60.679296,39.476064 C63.646656,38.812704 66.590976,40.682784 67.254336,43.651104 L72.865536,68.786784 Z" id="Fill-5" fill="#DD915E"></path>
                    <path d="M75.098688,39.343584 C72.058368,39.343584 69.592128,41.805984 69.592128,44.847264 L69.592128,70.602144 C69.592128,70.991904 69.633408,71.366304 69.711168,71.733024 L69.592128,71.760864 C63.934848,72.434784 51.494208,79.005984 52.378368,93.057504 C52.889088,101.214624 59.685888,103.776864 59.685888,103.776864 L80.606208,103.776864 L80.606208,70.602144 L80.606208,60.531744 L80.606208,44.847264 C80.606208,41.805984 78.140928,39.343584 75.098688,39.343584" id="Fill-7" fill="#FAB27F"></path>
                    <path d="M77.96928,70.64112 L73.45632,74.20656 L73.25952,73.0248 C71.56128,73.0248 71.1312,71.52144 71.1312,69.67152 L71.1312,43.7448 C71.1312,41.89392 72.50976,40.39248 74.208,40.39248 C75.90624,40.39248 77.2848,41.89392 77.96928,44.62608 L77.96928,70.64112 Z" id="Fill-9" fill="#DD915E"></path>
                    <polygon id="Fill-11" fill="#DA3851" points="55.41024 112.32 81.63648 112.32 81.63648 103.77696 55.41024 103.77696"></polygon>
                    <path d="M74.7312,71.7024 C74.7312,73.49376 73.16352,74.94528 71.232,74.94528 L37.992,74.94528 C36.06144,74.94528 34.49568,73.49376 34.49568,71.7024 L34.49568,6.25248 C34.49568,4.46208 36.06144,3.01248 37.992,3.01248 L71.232,3.01248 C73.16352,3.01248 74.7312,4.46208 74.7312,6.25248 L74.7312,71.7024" id="Fill-13" fill="#004481"></path>
                    <path d="M74.7312,69.834912 C74.7312,71.624352 73.16352,73.074912 71.232,73.074912 L37.992,73.074912 C36.06144,73.074912 34.49568,71.624352 34.49568,69.834912 L34.49568,4.381152 C34.49568,2.591712 36.06144,1.141152 37.992,1.141152 L71.232,1.141152 C73.16352,1.141152 74.7312,2.591712 74.7312,4.381152 L74.7312,69.834912" id="Fill-14" fill="#1973B8"></path>
                    <polygon id="Fill-15" fill="#FFFFFF" points="36.58752 62.3712 72.69504 62.3712 72.69504 9.84576 36.58752 9.84576"></polygon>
                    <path d="M57.582432,67.672032 C57.582432,69.313632 56.251872,70.641312 54.614112,70.641312 C52.973472,70.641312 51.643872,69.313632 51.643872,67.672032 C51.643872,66.032352 52.973472,64.703712 54.614112,64.703712 C56.251872,64.703712 57.582432,66.032352 57.582432,67.672032" id="Fill-16" fill="#004481"></path>
                    <path d="M59.786496,4.095072 C59.786496,4.674912 59.316096,5.143392 58.736256,5.143392 L50.490816,5.143392 C49.909056,5.143392 49.440576,4.674912 49.440576,4.095072 C49.440576,3.514272 49.909056,3.044832 50.490816,3.044832 L58.736256,3.044832 C59.316096,3.044832 59.786496,3.514272 59.786496,4.095072" id="Fill-17" fill="#004481"></path>
                    <path d="M47.759328,1.14144 L37.573728,1.14144 C37.050528,1.14144 36.485088,1.37088 35.983968,1.72896 C36.552288,1.35936 37.244448,1.14144 37.992288,1.14144 L47.759328,1.14144 M34.899168,2.86944 C34.647648,3.27072 34.495968,3.69792 34.495968,4.0992 L34.495968,4.38144 C34.495968,3.8352 34.640928,3.32064 34.899168,2.86944" id="Fill-18" fill="#FFFFFF"></path>
                    <path d="M43.40448,31.19136 L50.9568,31.19136 L50.9568,23.63808 L43.40448,23.63808 L43.40448,31.19136 Z M42.19584,32.4 L52.16544,32.4 L52.16544,22.4304 L42.19584,22.4304 L42.19584,32.4 Z" id="Fill-19" fill="#004481"></path>
                    <path d="M45.57792,29.01792 L48.78336,29.01792 L48.78336,25.81344 L45.57792,25.81344 L45.57792,29.01792 Z M44.36928,30.2256 L49.99104,30.2256 L49.99104,24.60384 L44.36928,24.60384 L44.36928,30.2256 Z" id="Fill-20" fill="#004481"></path>
                    <path d="M58.17408,31.19136 L65.7264,31.19136 L65.7264,23.63808 L58.17408,23.63808 L58.17408,31.19136 Z M56.96544,32.4 L66.93504,32.4 L66.93504,22.4304 L56.96544,22.4304 L56.96544,32.4 Z" id="Fill-21" fill="#004481"></path>
                    <path d="M60.34752,29.01792 L63.55296,29.01792 L63.55296,25.81344 L60.34752,25.81344 L60.34752,29.01792 Z M59.13984,30.2256 L64.7616,30.2256 L64.7616,24.60384 L59.13984,24.60384 L59.13984,30.2256 Z" id="Fill-22" fill="#004481"></path>
                    <path d="M43.26816,45.83424 L50.82048,45.83424 L50.82048,38.28192 L43.26816,38.28192 L43.26816,45.83424 Z M42.05952,47.04192 L52.02912,47.04192 L52.02912,37.07232 L42.05952,37.07232 L42.05952,47.04192 Z" id="Fill-23" fill="#004481"></path>
                    <path d="M45.44256,43.6608 L48.64704,43.6608 L48.64704,40.45536 L45.44256,40.45536 L45.44256,43.6608 Z M44.23392,44.86848 L49.85568,44.86848 L49.85568,39.24672 L44.23392,39.24672 L44.23392,44.86848 Z" id="Fill-24" fill="#004481"></path>
                    <polygon id="Fill-25" fill="#004481" points="42.60864 35.59392 44.62272 35.59392 44.62272 33.57984 42.60864 33.57984"></polygon>
                    <polygon id="Fill-26" fill="#004481" points="45.63648 35.42496 47.3136 35.42496 47.3136 33.74784 45.63648 33.74784"></polygon>
                    <polygon id="Fill-27" fill="#004481" points="48.69024 35.42496 50.36736 35.42496 50.36736 33.74784 48.69024 33.74784"></polygon>
                    <polygon id="Fill-28" fill="#004481" points="59.89536 36.37152 62.4048 36.37152 62.4048 33.86208 59.89536 33.86208"></polygon>
                    <polygon id="Fill-29" fill="#004481" points="64.88736 35.32704 66.76704 35.32704 66.76704 33.44736 64.88736 33.44736"></polygon>
                    <polygon id="Fill-30" fill="#004481" points="64.88736 38.01312 66.76704 38.01312 66.76704 36.13344 64.88736 36.13344"></polygon>
                    <polygon id="Fill-31" fill="#004481" points="53.3664 45.4128 55.24608 45.4128 55.24608 43.53312 53.3664 43.53312"></polygon>
                    <polygon id="Fill-32" fill="#004481" points="53.3664 41.98752 55.24608 41.98752 55.24608 40.10784 53.3664 40.10784"></polygon>
                    <polygon id="Fill-33" fill="#004481" points="55.41312 43.58688 57.2928 43.58688 57.2928 41.7072 55.41312 41.7072"></polygon>
                    <polygon id="Fill-34" fill="#004481" points="60.83328 43.992 62.71296 43.992 62.71296 42.11232 60.83328 42.11232"></polygon>
                    <polygon id="Fill-35" fill="#004481" points="58.77408 46.96704 66.76704 46.96704 66.76704 39.08736 58.77408 39.08736"></polygon>
                    <polygon id="Fill-36" fill="#004481" points="53.51424 37.32384 57.312 37.32384 57.312 33.52608 53.51424 33.52608"></polygon>
                    <polygon id="Fill-37" fill="#004481" points="52.8 31.24512 54.49056 31.24512 54.49056 29.55456 52.8 29.55456"></polygon>
                    <polygon id="Fill-38" fill="#004481" points="52.8 28.16544 54.49056 28.16544 54.49056 26.47488 52.8 26.47488"></polygon>
                    <polygon id="Fill-39" fill="#004481" points="52.8 25.08672 54.49056 25.08672 54.49056 23.39616 52.8 23.39616"></polygon>
                    <polygon id="Fill-40" fill="#004481" points="54.64128 29.60352 56.33184 29.60352 56.33184 27.91296 54.64128 27.91296"></polygon>
                    <polygon id="Fill-41" fill="#004481" points="54.64128 26.52384 56.33184 26.52384 56.33184 24.83328 54.64128 24.83328"></polygon>
                    <path d="M47.759328,1.14144 L37.992288,1.14144 C37.244448,1.14144 36.552288,1.35936 35.983968,1.72896 C35.552928,2.03616 35.168928,2.4384 34.899168,2.86944 C34.640928,3.32064 34.495968,3.8352 34.495968,4.38144 L34.495968,36.17568 L59.885088,1.14144 L47.759328,1.14144 Z" id="Fill-42" fill="#FFFFFF" opacity="0.3"></path>
                    <path d="M61.523712,73.074912 L71.291712,73.074912 C72.038592,73.074912 72.731712,72.856992 73.300032,72.487392 C73.731072,72.180192 74.114112,71.777952 74.383872,71.346912 C74.642112,70.894752 74.788032,70.380192 74.788032,69.834912 L74.788032,28.440672 L39.798912,73.074912 L61.523712,73.074912 Z" id="Fill-43" fill="#D3D3D3" opacity="0.3" style="mix-blend-mode: multiply;"></path>
                    <path d="M70.16928,81.443904 C70.16928,84.485184 67.70496,86.953344 64.66272,86.953344 C61.62144,86.953344 59.1552,84.485184 59.1552,81.443904 L59.1552,55.691904 C59.1552,52.651584 61.62144,50.183424 64.66272,50.183424 C67.70496,50.183424 70.16928,52.651584 70.16928,55.691904 L70.16928,81.443904 Z" id="Fill-44" fill="#FAB27F"></path>
                    <path d="M113.865216,12.639456 C113.865216,18.709536 108.946176,23.628576 102.876096,23.628576 C96.806016,23.628576 91.885056,18.709536 91.885056,12.639456 C91.885056,6.569376 96.806016,1.649376 102.876096,1.649376 C108.946176,1.649376 113.865216,6.569376 113.865216,12.639456" id="Fill-45" fill="#BA9A3D"></path>
                    <path d="M113.865216,10.991328 C113.865216,17.060448 108.946176,21.980448 102.876096,21.980448 C96.806016,21.980448 91.885056,17.060448 91.885056,10.991328 C91.885056,4.922208 96.806016,0.000288 102.876096,0.000288 C108.946176,0.000288 113.865216,4.922208 113.865216,10.991328" id="Fill-46" fill="#F8CD51"></path>
                    <path d="M95.343072,18.978816 C97.311072,20.835456 99.957792,21.980736 102.876192,21.980736 C108.946272,21.980736 113.865312,17.059776 113.865312,10.991616 C113.865312,8.073216 112.720032,5.426496 110.863392,3.458496 L95.343072,18.978816 Z" id="Fill-47" fill="#EAB642"></path>
                    <path d="M104.337408,13.995936 C104.337408,13.182816 104.011968,12.856416 102.476928,12.161376 C100.253568,11.152416 99.574848,10.389216 99.574848,8.833056 C99.574848,7.305696 100.545408,6.202656 102.068928,5.875296 L102.068928,3.854496 L102.173568,3.854496 L103.949568,4.801056 L103.949568,5.836896 C104.556288,5.926176 105.099648,6.117216 105.605568,6.407136 L105.703488,6.462816 L105.767808,6.499296 L105.756288,6.576096 L105.738048,6.685536 L105.508608,8.126496 L105.465408,8.397216 L105.437568,8.576736 L105.290688,8.465376 L105.072768,8.299296 C104.472768,7.839456 103.726848,7.575456 103.016448,7.575456 C102.064128,7.575456 101.544768,8.003616 101.544768,8.726496 C101.544768,9.402336 101.878848,9.716256 103.391808,10.408416 C105.621888,11.423136 106.308288,12.231456 106.308288,13.888416 C106.308288,15.430176 105.397248,16.562976 103.949568,16.968096 L103.949568,19.115616 L103.842048,19.115616 L102.068928,18.169056 L102.068928,17.106336 C101.174208,17.031456 100.327488,16.790496 99.611328,16.413216 L99.510528,16.358496 L99.442368,16.322016 L99.452928,16.246176 L99.469248,16.132896 L99.684288,14.660256 L99.720768,14.405856 L99.745728,14.235936 L99.888768,14.330976 L100.103808,14.471136 C100.937088,15.022176 101.864448,15.331296 102.726528,15.331296 C103.729728,15.331296 104.337408,14.822496 104.337408,13.995936" id="Fill-48" fill="#FFFFFF"></path>
                    <path d="M21.979968,80.18112 C21.979968,86.25024 17.060928,91.17024 10.990848,91.17024 C4.920768,91.17024 -0.000192,86.25024 -0.000192,80.18112 C-0.000192,74.112 4.920768,69.19104 10.990848,69.19104 C17.060928,69.19104 21.979968,74.112 21.979968,80.18112" id="Fill-49" fill="#BA9A3D"></path>
                    <path d="M21.979968,78.532992 C21.979968,84.602112 17.060928,89.522112 10.990848,89.522112 C4.920768,89.522112 -0.000192,84.602112 -0.000192,78.532992 C-0.000192,72.463872 4.920768,67.541952 10.990848,67.541952 C17.060928,67.541952 21.979968,72.463872 21.979968,78.532992" id="Fill-50" fill="#F8CD51"></path>
                    <path d="M3.457728,86.52048 C5.425728,88.37712 8.071488,89.5224 10.990848,89.5224 C17.060928,89.5224 21.979968,84.6024 21.979968,78.53328 C21.979968,75.61488 20.834688,72.96816 18.978048,71.00016 L3.457728,86.52048 Z" id="Fill-51" fill="#EAB642"></path>
                    <path d="M12.452064,81.537696 C12.452064,80.724576 12.126624,80.398176 10.591584,79.703136 C8.368224,78.694176 7.689504,77.930976 7.689504,76.373856 C7.689504,74.847456 8.659104,73.744416 10.182624,73.416096 L10.182624,71.396256 L10.288224,71.396256 L12.063264,72.342816 L12.063264,73.378656 C12.669984,73.467936 13.214304,73.658976 13.720224,73.949856 L13.817184,74.004576 L13.882464,74.041056 L13.869984,74.117856 L13.851744,74.227296 L13.623264,75.668256 L13.579104,75.938976 L13.552224,76.117536 L13.405344,76.007136 L13.186464,75.841056 C12.586464,75.381216 11.841504,75.117216 11.131104,75.117216 C10.178784,75.117216 9.658464,75.545376 9.658464,76.268256 C9.658464,76.945056 9.993504,77.258016 11.506464,77.950176 C13.735584,78.964896 14.421984,79.772256 14.421984,81.430176 C14.421984,82.971936 13.510944,84.104736 12.063264,84.509856 L12.063264,86.656416 L11.956704,86.656416 L10.182624,85.710816 L10.182624,84.648096 C9.287904,84.572256 8.442144,84.332256 7.725984,83.954976 L7.625184,83.900256 L7.557024,83.863776 L7.567584,83.787936 L7.583904,83.674656 L7.798944,82.202016 L7.834464,81.947616 L7.860384,81.777696 L8.003424,81.872736 L8.218464,82.012896 C9.051744,82.563936 9.978144,82.873056 10.841184,82.873056 C11.844384,82.873056 12.452064,82.363296 12.452064,81.537696" id="Fill-52" fill="#FFFFFF"></path>
                </g>
            </g>
        </g>
    </g>
</svg>