<svg xmlns="http://www.w3.org/2000/svg" xmlns:xlink="http://www.w3.org/1999/xlink" width="45" height="29"><defs><path id="a" d="M1.922.136L.318 5.656h.814l.342-1.193h1.91l.346 1.193h1.418L3.554.696c-.14-.453-.22-.56-.63-.56H1.922zm.5 1.002l.725 2.516h-1.44L2.42 1.14z"/><path id="c" d="M.429.136v5.52h2.274c2 0 2.606-2.372.754-3.355l.26-.4c.563-.846.175-1.765-.933-1.765H.43zm1.275.722h.695c.333 0 .624.283.624.62 0 .118-.026.228-.138.4l-.448.69c.47.116.782.482.782 1.17 0 .828-.487 1.178-1.13 1.178h-.385V.858z"/><path id="e" d="M0 .136v5.52h2.277c1.999 0 2.601-2.372.75-3.355l.265-.4c.556-.846.173-1.765-.931-1.765H0zm1.275.722h.695c.336 0 .628.283.628.62 0 .118-.03.228-.138.4l-.451.69c.467.116.784.482.784 1.17 0 .828-.487 1.178-1.13 1.178h-.388V.858z"/><path id="g" d="M4.529.136L3.284 4.327 2.232.857c-.198-.622-.298-.72-.678-.72H.58l1.81 5.52h1.33L5.408.136h-.88z"/><path id="i" d="M26.235.138h-1.272l1.248-.002c.008 0 .016 0 .024.002h.165v26.398c0-.003-26.4 0-26.4 0L24.963.137h1.272z"/></defs><g fill="none" fill-rule="evenodd"><path fill="#004481" d="M.5 28.983h44V.383H.5z"/><g transform="translate(2.7 3.752)"><g transform="translate(12.1)"><mask id="b" fill="#fff"><use xlink:href="#a"/></mask><path fill="#FFFFFE" mask="url(#b)" d="M-3.994 9.967H9.458V-4.176H-3.994z"/></g><g transform="translate(4.4)"><mask id="d" fill="#fff"><use xlink:href="#c"/></mask><path fill="#FFFFFE" mask="url(#d)" d="M-3.882 9.967H8.881V-4.176H-3.882z"/></g><mask id="f" fill="#fff"><use xlink:href="#e"/></mask><path fill="#FFFFFE" mask="url(#f)" d="M-4.312 9.967H8.452V-4.176H-4.312z"/><g transform="translate(7.7)"><mask id="h" fill="#fff"><use xlink:href="#g"/></mask><path fill="#FFFFFE" mask="url(#h)" d="M-3.733 9.967H9.719V-4.176H-3.733z"/></g></g><path fill="#237ABA" d="M15.9 19.288h26.4v-2.2H15.9zm-8.8 4.4h35.2v-2.2H7.1z"/><g transform="translate(17 1.138)"><mask id="j" fill="#fff"><use xlink:href="#i"/></mask><path fill="#FFF" mask="url(#j)" opacity=".197" d="M-8.581 31.9H30.69V-5.06H-8.581z"/></g></g></svg>