<?xml version="1.0" encoding="UTF-8"?>
<svg width="116px" height="116px" viewBox="0 0 116 116" version="1.1" xmlns="http://www.w3.org/2000/svg" xmlns:xlink="http://www.w3.org/1999/xlink">
    <!-- Generator: Sketch 58 (84663) - https://sketch.com -->
    <title>🖼 Illustration_deskmob</title>
    <desc>Created with Sketch.</desc>
    <defs>
        <linearGradient x1="24.4284966%" y1="17.2722911%" x2="73.9683144%" y2="86.1831269%" id="linearGradient-1">
            <stop stop-color="#192647" offset="0%"></stop>
            <stop stop-color="#192647" stop-opacity="0.5" offset="0%"></stop>
            <stop stop-color="#192647" stop-opacity="0" offset="100%"></stop>
        </linearGradient>
        <linearGradient x1="14.9961129%" y1="36.0491089%" x2="71.4951569%" y2="57.9152154%" id="linearGradient-2">
            <stop stop-color="#EAF9FA" offset="0%"></stop>
            <stop stop-color="#EAF9FA" stop-opacity="0.2" offset="100%"></stop>
            <stop stop-color="#EAF9FA" stop-opacity="0.5" offset="100%"></stop>
        </linearGradient>
        <linearGradient x1="31.8125455%" y1="21.6975596%" x2="57.7623203%" y2="62.0461941%" id="linearGradient-3">
            <stop stop-color="#FFFFFF" stop-opacity="0.5" offset="0%"></stop>
            <stop stop-color="#EDF8F9" stop-opacity="0.2" offset="100%"></stop>
            <stop stop-color="#FFFFFF" stop-opacity="0" offset="100%"></stop>
        </linearGradient>
    </defs>
    <g id="🖼-Illustration_deskmob" stroke="none" stroke-width="1" fill="none" fill-rule="evenodd">
        <g id="Devices/Devices">
            <g id="Devices" transform="translate(16.626667, 27.453333)">
                <path d="M88.5138669,27.285056 L84.8171446,27.285056 L84.8171446,12.9254933 C84.8171446,10.981952 83.2516959,9.396928 81.2901697,9.396928 L19.3889314,9.396928 C17.4462661,9.396928 15.8619566,10.981952 15.8619566,12.9254933 L15.8619566,12.9254933 L15.8619566,52.7397867 C15.8619566,53.041696 15.8996782,53.324736 15.9751215,53.607776 L12.3915642,53.607776 C12.1463734,53.607776 11.9389043,53.8153387 11.9389043,54.06064 L11.9389043,54.06064 L11.9389043,55.702272 L10.0905431,55.702272 C9.84535234,55.702272 9.63788323,55.9098347 9.63788323,56.155136 L9.63788323,59.834656 C9.63788323,60.0799573 9.84535234,60.28752 10.0905431,60.28752 C10.0905431,60.28752 10.0905431,60.28752 10.0905431,60.28752 L68.0121466,60.28752 L68.0121466,66.7030933 C68.0121466,68.8541973 69.7662037,70.6090453 71.9163381,70.6090453 L71.9163381,70.6090453 L88.5138669,70.6090453 C90.6640014,70.6090453 92.4180584,68.8730667 92.4369192,66.7030933 C92.4369192,66.7030933 92.4369192,66.7030933 92.4369192,66.7030933 L92.4369192,31.191008 C92.4180584,29.0210347 90.6640014,27.285056 88.5138669,27.285056 C88.5138669,27.285056 88.5138669,27.285056 88.5138669,27.285056 Z" id="Path" fill="url(#linearGradient-1)" fill-rule="nonzero"></path>
                <path d="M10.6752288,0 L70.9544358,0 C73.349761,0 75.2924263,1.94354133 75.2924263,4.33994667 L75.2924263,4.33994667 L75.2924263,46.6261227 L75.2924263,46.6261227 L6.33723829,46.6261227 L6.33723829,46.6261227 L6.33723829,4.33994667 C6.33723829,1.94354133 8.2799036,0 10.6752288,0 L10.6752288,0 Z" id="Path" fill="#1464A5" fill-rule="nonzero"></path>
                <path d="M11.2599145,3.056832 L70.3131677,3.056832 C71.3505132,3.056832 72.1992505,3.905952 72.1992505,4.94376533 L72.1992505,39.1916053 C72.1992505,40.2294187 71.3505132,41.0785387 70.3131677,41.0785387 L11.2599145,41.0785387 C10.2225689,41.0785387 9.37383164,40.2294187 9.37383164,39.1916053 L9.37383164,4.94376533 C9.37383164,3.905952 10.2037081,3.056832 11.2599145,3.056832 Z" id="Path" fill="#49A5E6" fill-rule="nonzero"></path>
                <path d="M0.565824847,46.305344 L80.7432057,46.305344 C80.9883965,46.305344 81.1958656,46.5129067 81.1958656,46.758208 L81.1958656,50.437728 C81.1958656,50.6830293 80.9883965,50.890592 80.7432057,50.890592 L0.565824847,50.890592 C0.32063408,50.890592 0.113164969,50.6830293 0.113164969,50.437728 L0.113164969,46.758208 C0.113164969,46.5129067 0.32063408,46.305344 0.565824847,46.305344 Z" id="Path" fill="#1464A5" fill-rule="nonzero"></path>
                <path d="M79.177757,46.305344 L2.41418601,46.305344 L2.41418601,44.663712 C2.41418601,44.4184107 2.62165513,44.210848 2.86684589,44.210848 C2.86684589,44.210848 2.86684589,44.210848 2.86684589,44.210848 L78.7062363,44.210848 C78.951427,44.210848 79.1588961,44.4184107 79.1588961,44.663712 L79.1588961,44.663712 L79.177757,46.305344 Z" id="Path" fill="#043263" fill-rule="nonzero"></path>
                <path d="M46.0204209,47.83376 L36.0619036,47.83376 C35.2131663,47.83376 34.5341765,47.154464 34.5341765,46.305344 C34.5341765,46.305344 34.5341765,46.305344 34.5341765,46.305344 L47.548148,46.305344 C47.548148,47.154464 46.8691582,47.83376 46.0204209,47.83376 C46.0204209,47.83376 46.0204209,47.83376 46.0204209,47.83376 Z" id="Path" fill="#5AC4C4" fill-rule="nonzero"></path>
                <path d="M10.9015587,41.0785387 L41.2486314,41.0785387 L61.6560475,3.056832 L10.9204196,3.056832 C10.0716823,3.056832 9.39230884,3.736128 9.39230884,4.585248 C9.39230884,4.585248 9.39230884,4.585248 9.39230884,4.585248 L9.39230884,39.5312533 C9.37383164,40.3992427 10.0528215,41.0785387 10.9015587,41.0785387 Z" id="Path" fill="url(#linearGradient-2)" opacity="0.5"></path>
                <path d="M62.8631405,17.8126507 L78.6119321,17.8126507 C81.0072573,17.8126507 82.9499226,19.756192 82.9499226,22.1525973 L82.9499226,56.834432 C82.9499226,59.2308373 81.0072573,61.1743787 78.6119321,61.1743787 L62.8631405,61.1743787 C60.4678153,61.1743787 58.52515,59.2308373 58.52515,56.834432 L58.52515,22.1525973 C58.52515,19.7373227 60.4678153,17.8126507 62.8631405,17.8126507 Z" id="Path" fill="#1464A5" fill-rule="nonzero"></path>
                <rect id="Rectangle" fill="#49A5E6" fill-rule="nonzero" x="58.52515" y="23.2281493" width="24.4247726" height="32.5118613"></rect>
                <polygon id="Path" fill="url(#linearGradient-3)" opacity="0.5" points="58.5628717 23.265888 58.5628717 55.7400107 61.825795 55.7400107 79.4606694 23.265888"></polygon>
            </g>
        </g>
    </g>
</svg>