<?xml version="1.0" encoding="UTF-8"?>
<svg width="116px" height="116px" viewBox="0 0 116 116" version="1.1" xmlns="http://www.w3.org/2000/svg" xmlns:xlink="http://www.w3.org/1999/xlink">
    <!-- Generator: Sketch 58 (84663) - https://sketch.com -->
    <title>🖼 Illustration_mobile</title>
    <desc>Created with Sketch.</desc>
    <defs>
        <linearGradient x1="35.3583055%" y1="1.02606635%" x2="64.6416945%" y2="98.9739336%" id="linearGradient-1">
            <stop stop-color="#192647" offset="0%"></stop>
            <stop stop-color="#192647" stop-opacity="0.5" offset="0%"></stop>
            <stop stop-color="#192647" stop-opacity="0" offset="100%"></stop>
        </linearGradient>
        <linearGradient x1="28.1381889%" y1="20.8619652%" x2="66.6789257%" y2="70.0242005%" id="linearGradient-2">
            <stop stop-color="#FFFFFF" stop-opacity="0.5" offset="0%"></stop>
            <stop stop-color="#EDF8F9" stop-opacity="0.2" offset="100%"></stop>
            <stop stop-color="#FFFFFF" stop-opacity="0" offset="100%"></stop>
        </linearGradient>
    </defs>
    <g id="🖼-Illustration_mobile" stroke="none" stroke-width="1" fill="none" fill-rule="evenodd">
        <g id="Products-and-Services/App-BBVA">
            <g id="App-bbva" transform="translate(34.800000, 16.820000)">
                <rect id="Rectangle" fill="url(#linearGradient-1)" fill-rule="nonzero" x="9.6715" y="9.68229718" width="46.3328704" height="82.2780791" rx="4.48435028"></rect>
                <rect id="Rectangle" fill="#1464A5" fill-rule="nonzero" x="0" y="0" width="46.3328704" height="82.2780791" rx="4.48435028"></rect>
                <rect id="Rectangle" fill="#49A5E6" fill-rule="nonzero" x="0" y="10.3335028" width="46.3328704" height="61.6110734"></rect>
                <polygon id="Path" fill="url(#linearGradient-2)" opacity="0.5" points="0.0700833333 71.9055819 15.9965208 71.9055819 46.3328704 15.8044102 46.3328704 10.3354525 0.0700833333 10.3724972"></polygon>
                <path d="M30.7587963,37.3234424 L27.7977755,42.9776232 C27.7659524,43.0337457 27.7064777,43.068419 27.6420347,43.068419 C27.5775918,43.068419 27.5181171,43.0337457 27.486294,42.9776232 L24.5213796,37.3234424 C24.491067,37.2676117 24.4329824,37.2325589 24.3695324,37.2317159 L22.9367176,37.2317159 C22.8895667,37.230045 22.8452456,37.2543088 22.8212693,37.2950084 C22.797293,37.3357079 22.7975193,37.3862946 22.8218588,37.4267774 L27.494081,46.1751599 C27.5239488,46.2307722 27.5819038,46.2654585 27.6449549,46.2654585 C27.7080059,46.2654585 27.7659609,46.2307722 27.7958287,46.1751599 L32.4680509,37.4267774 C32.4921794,37.3865972 32.4925769,37.3364534 32.4690885,37.2958946 C32.4456001,37.2553357 32.4019437,37.230782 32.3551389,37.2317159 L30.9184306,37.2317159 C30.8549806,37.2325589 30.796896,37.2676117 30.7665833,37.3234424" id="Path" fill="#FFFFFF" fill-rule="nonzero"></path>
                <path d="M32.4427431,44.8591006 L35.4057106,39.2049198 C35.4375338,39.1487973 35.4970084,39.1141239 35.5614514,39.1141239 C35.6258944,39.1141239 35.685369,39.1487973 35.7171921,39.2049198 L38.6821065,44.8591006 C38.7114436,44.9158564 38.7701428,44.9512802 38.8339537,44.9507681 L40.2667685,44.9507681 C40.3135734,44.9517609 40.3572297,44.9272072 40.3807181,44.8866484 C40.4042066,44.8460895 40.4038091,44.7959458 40.3796806,44.7557655 L35.7074583,36.0073831 C35.6770173,35.9519002 35.6188224,35.9174235 35.5556111,35.9174235 C35.4923998,35.9174235 35.4342049,35.9519002 35.4037639,36.0073831 L30.7315417,44.7557655 C30.7074132,44.7959458 30.7070157,44.8460895 30.7305041,44.8866484 C30.7539925,44.9272072 30.7976488,44.9517609 30.8444537,44.9507681 L32.2792153,44.9507681 C32.3430262,44.9512802 32.4017254,44.9158564 32.4310625,44.8591006" id="Path" fill="#FFFFFF" fill-rule="nonzero"></path>
                <path d="M10.2827824,44.9507373 L7.6118287,44.9507373 C7.5169001,44.949669 7.44051389,44.8722913 7.44051389,44.7772124 L7.44051389,42.3790599 C7.44156622,42.2847416 7.51765348,42.2085387 7.6118287,42.2074847 L10.2827824,42.2074847 C11.555963,42.2074847 12.1244167,42.5681825 12.1244167,43.572287 C12.1244167,44.5763915 11.5676435,44.9370893 10.2827824,44.9370893 M7.61377546,38.5244684 L10.2477407,38.5244684 C11.2211204,38.5244684 11.7136505,38.9397582 11.7136505,39.7059972 C11.7136505,40.4722362 11.2211204,40.8875373 10.2477407,40.8875373 L7.61377546,40.8875373 C7.56818038,40.888054 7.52429883,40.8701469 7.49205608,40.8378552 C7.45981334,40.8055634 7.44193348,40.7616152 7.44244931,40.7159508 L7.44244931,38.7096915 C7.44193348,38.6640272 7.45981334,38.6200789 7.49205608,38.5877872 C7.52429883,38.5554954 7.56818038,38.5375884 7.61377546,38.5381164 M12.1983935,41.398352 C12.817463,41.0883469 13.2029213,40.4234932 13.2029213,39.5929136 C13.2029213,38.1852175 12.1088426,37.2317943 10.5631157,37.2317943 L6.12255787,37.2317943 C6.07696279,37.2312777 6.03308124,37.2491847 6.00083849,37.2814764 C5.96859575,37.3137682 5.95071589,37.3577164 5.95123172,37.4033808 L5.95123172,46.0893723 C5.95123172,46.1841307 6.02794331,46.2609475 6.12255787,46.2609475 L10.3684398,46.2609475 C12.4943009,46.2609475 13.6136875,45.3445802 13.6136875,43.5527898 C13.6136875,41.7980441 12.1983935,41.398352 12.1983935,41.398352" id="Shape" fill="#FFFFFF" fill-rule="nonzero"></path>
                <path d="M19.3936157,44.9507373 L16.722662,44.9507373 C16.6269723,44.9507373 16.5494005,44.8730476 16.5494005,44.7772124 L16.5494005,42.3790599 C16.5504671,42.283987 16.6277274,42.2074847 16.722662,42.2074847 L19.3936157,42.2074847 C20.6648495,42.2074847 21.2333032,42.5681825 21.2333032,43.572287 C21.2333032,44.5763915 20.6784769,44.9370893 19.3936157,44.9370893 M16.7246088,38.5244684 L19.3566273,38.5244684 C20.3300069,38.5244684 20.822537,38.9397582 20.822537,39.7059972 C20.822537,40.4722362 20.3300069,40.8875371 19.3566273,40.8875371 L16.7246088,40.8875371 C16.6788369,40.8880469 16.6347605,40.8702006 16.6022105,40.8379674 C16.5696604,40.8057341 16.5513472,40.7617952 16.5513472,40.7159508 L16.5513472,38.7096915 C16.5513472,38.6638471 16.5696604,38.6199082 16.6022105,38.587675 C16.6347605,38.5554418 16.6788369,38.5375954 16.7246088,38.5381164 M21.3092269,41.398352 C21.9263495,41.0883469 22.3137546,40.4234932 22.3137546,39.5929136 C22.3137546,38.1852175 21.2196759,37.2318056 19.6739491,37.2318056 L15.2314444,37.2318056 C15.1368299,37.2318056 15.0601296,37.3086225 15.0601296,37.4033808 L15.0601296,46.0893723 C15.061182,46.1836906 15.1372692,46.2598935 15.2314444,46.2609475 L19.4773264,46.2609475 C21.6031875,46.2609475 22.7245208,45.3445802 22.7245208,43.5527898 C22.7245208,41.7980441 21.3092269,41.398352 21.3092269,41.398352" id="Shape" fill="#FFFFFF" fill-rule="nonzero"></path>
            </g>
        </g>
    </g>
</svg>