<?xml version="1.0" encoding="UTF-8"?>
<svg width="116px" height="116px" viewBox="0 0 116 116" version="1.1" xmlns="http://www.w3.org/2000/svg" xmlns:xlink="http://www.w3.org/1999/xlink">
    <!-- Generator: Sketch 58 (84663) - https://sketch.com -->
    <title>🖼 Illustration_error</title>
    <desc>Created with Sketch.</desc>
    <defs>
        <linearGradient x1="6.33619369%" y1="12.1906432%" x2="47.6160294%" y2="80.9846324%" id="linearGradient-1">
            <stop stop-color="#1A2542" stop-opacity="0.5" offset="0%"></stop>
            <stop stop-color="#1A2542" stop-opacity="0" offset="100%"></stop>
        </linearGradient>
    </defs>
    <g id="🖼-Illustration_error" stroke="none" stroke-width="1" fill="none" fill-rule="evenodd">
        <g id="Alerts/Error">
            <g id="Alert" transform="translate(19.720000, 24.166667)">
                <path d="M20.2790891,78.88 L86.6342442,78.88 C87.9358645,78.88 89.1392693,78.1886303 89.7928987,77.0643191 C90.4465281,75.9400079 90.4515375,74.5531584 89.8060473,73.4241654 L56.6314545,15.3736898 C55.9817748,14.2358104 54.7710752,13.5333333 53.4596514,13.5333333 C52.1482276,13.5333333 50.937528,14.2358104 50.2878483,15.3736898 L17.1072861,73.4241654 C16.4617958,74.5531584 16.4668052,75.9400079 17.1204346,77.0643191 C17.774064,78.1886303 18.9774688,78.88 20.2790891,78.88 Z" id="Path" fill="url(#linearGradient-1)" fill-rule="nonzero"></path>
                <path d="M3.64837027,65.3466667 L70.0076518,65.3466667 C71.3094502,65.3466667 72.5126816,64.65408 73.1662224,63.5297184 C73.8197632,62.4053568 73.8248791,61.018649 73.1796521,59.8895086 L40.0010063,1.84013262 C39.3512863,0.702391597 38.1405114,5.1159077e-13 36.829006,5.1159077e-13 C35.5175006,5.1159077e-13 34.3067257,0.702391597 33.6570057,1.84013262 L0.480349873,59.8895086 C-0.16452667,61.0180328 -0.159792714,62.403898 0.492778547,63.528002 C1.14534981,64.6521061 2.34728267,65.344817 3.64837027,65.3466667 L3.64837027,65.3466667 Z" id="Path" fill="#DA3951" fill-rule="nonzero"></path>
                <path d="M36.9256653,46.7866667 C36.1567226,46.7866667 35.4193031,46.4825191 34.8757663,45.9411885 C34.3322296,45.3998579 34.0271408,44.6657287 34.0276722,43.9004361 L34.0276722,19.7820725 C33.9999697,18.7331967 34.5463761,17.7519779 35.454724,17.2194191 C36.363072,16.6868603 37.4902613,16.6868603 38.3986093,17.2194191 C39.3069572,17.7519779 39.8533636,18.7331967 39.8256611,19.7820725 L39.8256611,43.9004361 C39.8256611,45.4944572 38.5272888,46.7866667 36.9256653,46.7866667 Z" id="Path" fill="#FFFFFF" fill-rule="nonzero"></path>
                <circle id="Oval" fill="#FFFFFF" fill-rule="nonzero" cx="36.83" cy="54.4233333" r="3.38333333"></circle>
            </g>
        </g>
    </g>
</svg>