<svg xmlns="http://www.w3.org/2000/svg" width="35" height="49" viewBox="0 0 35 49">
  <defs>
    <linearGradient id="official-document-a" x1="31.667%" x2="68.758%" y1="-3.3%" y2="99.746%">
      <stop offset="0%" stop-color="#192647"/>
      <stop offset="0%" stop-color="#192647" stop-opacity=".5"/>
      <stop offset="100%" stop-color="#192647" stop-opacity="0"/>
    </linearGradient>
    <linearGradient id="official-document-b" x1="100%" x2="-.016%" y1="50%" y2="50%">
      <stop offset="0%" stop-color="#043263" stop-opacity=".1"/>
      <stop offset="100%" stop-color="#043263" stop-opacity="0"/>
    </linearGradient>
  </defs>
  <g fill="none" fill-rule="evenodd" transform="translate(.493 .627)">
    <path fill="url(#official-document-a)" fill-rule="nonzero" d="M34.304,5.65333333 C34.304,5.61066667 34.2933333,5.568 34.2826667,5.52533333 C34.272,5.504 34.2613333,5.49333333 34.2506667,5.472 C34.1866667,5.38666667 34.0906667,5.33333333 33.984,5.33333333 L5.65333333,5.33333333 C5.472,5.33333333 5.33333333,5.472 5.33333333,5.65333333 L5.33333333,45.76 C5.33333333,45.9413333 5.472,46.08 5.65333333,46.08 L28.1173333,46.08 L28.1173333,48.192 L29.8133333,46.6986667 L31.5093333,48.192 L31.5093333,46.08 L34.0266667,46.08 C34.208,46.08 34.3466667,45.9413333 34.3466667,45.76 L34.3466667,45.76 L34.3466667,16.5866667 L34.3466667,16.5866667 L34.304,5.65333333 Z"/>
    <path fill="#D4EDFC" fill-rule="nonzero" d="M28.6506667,0 L0.32,0 C0.138666667,0 0,0.138666667 0,0.32 L0,40.4266667 C0,40.608 0.138666667,40.7466667 0.32,40.7466667 L28.6933333,40.7466667 C28.8746667,40.7466667 29.0133333,40.608 29.0133333,40.4266667 L29.0133333,11.2533333 L28.9706667,0.32 C28.9706667,0.138666667 28.832,0 28.6506667,0 Z"/>
    <path fill="url(#official-document-b)" fill-rule="nonzero" d="M28.9706667,0.32 C28.9706667,0.138666667 28.832,0 28.6506667,0 L24.4053333,0 L2.688,40.7466667 L28.6933333,40.7466667 C28.8746667,40.7466667 29.0133333,40.608 29.0133333,40.4266667 L29.0133333,11.2533333 L28.9706667,0.32 Z"/>
    <path fill="#1464A5" fill-rule="nonzero" d="M10.6133333 14.5066667L3.46666667 14.5066667C3.168 14.5066667 2.93333333 14.272 2.93333333 13.9733333 2.93333333 13.6746667 3.168 13.44 3.46666667 13.44L10.6133333 13.44C10.912 13.44 11.1466667 13.6746667 11.1466667 13.9733333 11.1466667 14.272 10.912 14.5066667 10.6133333 14.5066667zM25.5466667 17.7066667L3.46666667 17.7066667C3.168 17.7066667 2.93333333 17.472 2.93333333 17.1733333 2.93333333 16.8746667 3.168 16.64 3.46666667 16.64L25.5466667 16.64C25.8453333 16.64 26.08 16.8746667 26.08 17.1733333 26.08 17.472 25.8453333 17.7066667 25.5466667 17.7066667zM25.5466667 20.9066667L3.46666667 20.9066667C3.168 20.9066667 2.93333333 20.672 2.93333333 20.3733333 2.93333333 20.0746667 3.168 19.84 3.46666667 19.84L25.5466667 19.84C25.8453333 19.84 26.08 20.0746667 26.08 20.3733333 26.08 20.672 25.8453333 20.9066667 25.5466667 20.9066667zM25.5466667 24.1066667L3.46666667 24.1066667C3.168 24.1066667 2.93333333 23.872 2.93333333 23.5733333 2.93333333 23.2746667 3.168 23.04 3.46666667 23.04L25.5466667 23.04C25.8453333 23.04 26.08 23.2746667 26.08 23.5733333 26.08 23.872 25.8453333 24.1066667 25.5466667 24.1066667zM17.0133333 27.3066667L3.46666667 27.3066667C3.168 27.3066667 2.93333333 27.072 2.93333333 26.7733333 2.93333333 26.4746667 3.168 26.24 3.46666667 26.24L17.0133333 26.24C17.312 26.24 17.5466667 26.4746667 17.5466667 26.7733333 17.5466667 27.072 17.312 27.3066667 17.0133333 27.3066667z"/>
    <polygon fill="#C49735" fill-rule="nonzero" points="26.165 42.869 24.48 41.376 22.784 42.859 22.795 35.125 26.176 35.125"/>
    <circle cx="24.48" cy="36.181" r="3.392" fill="#FFF" fill-rule="nonzero"/>
    <circle cx="24.48" cy="36.181" r="2.261" fill="#F8CD50" fill-rule="nonzero"/>
    <path fill="#1464A5" fill-rule="nonzero" d="M10.8053333 4.43733333L9.87733333 6.208C9.86666667 6.24 9.824 6.24 9.80266667 6.22933333 9.792 6.22933333 9.78133333 6.21866667 9.78133333 6.208L8.85333333 4.43733333C8.84266667 4.416 8.82133333 4.40533333 8.81066667 4.40533333L8.36266667 4.40533333C8.34133333 4.40533333 8.32 4.42666667 8.32 4.448 8.32 4.45866667 8.32 4.45866667 8.32 4.46933333L9.78133333 7.21066667C9.792 7.232 9.824 7.24266667 9.856 7.232 9.86666667 7.232 9.87733333 7.22133333 9.87733333 7.21066667L11.3386667 4.46933333C11.3493333 4.448 11.3386667 4.42666667 11.3173333 4.416 11.3173333 4.416 11.3066667 4.416 11.296 4.416L10.848 4.416C10.8373333 4.416 10.816 4.42666667 10.8053333 4.43733333M11.3386667 6.80533333L12.2666667 5.03466667C12.2773333 5.00266667 12.32 5.00266667 12.3413333 5.01333333 12.352 5.01333333 12.3626667 5.024 12.3626667 5.03466667L13.2906667 6.80533333C13.3013333 6.82666667 13.3226667 6.83733333 13.344 6.83733333L13.792 6.83733333C13.8133333 6.83733333 13.8346667 6.816 13.8346667 6.79466667 13.8346667 6.784 13.8346667 6.784 13.8346667 6.77333333L12.3733333 4.032C12.3626667 4.01066667 12.3306667 4 12.2986667 4.01066667 12.288 4.01066667 12.288 4.02133333 12.2773333 4.032L10.816 6.77333333C10.8053333 6.79466667 10.816 6.816 10.8373333 6.82666667 10.848 6.82666667 10.848 6.82666667 10.8586667 6.82666667L11.3066667 6.82666667C11.3066667 6.82666667 11.328 6.816 11.3386667 6.80533333M4.39466667 6.82666667L3.56266667 6.82666667C3.53066667 6.82666667 3.50933333 6.80533333 3.50933333 6.77333333L3.50933333 6.02666667C3.50933333 5.99466667 3.53066667 5.97333333 3.56266667 5.97333333L4.39466667 5.97333333C4.78933333 5.97333333 4.97066667 6.09066667 4.97066667 6.4 4.97066667 6.70933333 4.8 6.82666667 4.39466667 6.82666667M3.56266667 4.82133333L4.384 4.82133333C4.69333333 4.82133333 4.84266667 4.94933333 4.84266667 5.19466667 4.84266667 5.44 4.69333333 5.568 4.384 5.568L3.56266667 5.568C3.53066667 5.568 3.50933333 5.54666667 3.50933333 5.51466667L3.50933333 4.88533333C3.50933333 4.84266667 3.53066667 4.82133333 3.56266667 4.82133333M4.992 5.71733333C5.19466667 5.6 5.32266667 5.38666667 5.30133333 5.152 5.30133333 4.71466667 4.96 4.416 4.46933333 4.416L3.08266667 4.416C3.05066667 4.416 3.02933333 4.43733333 3.02933333 4.46933333L3.02933333 7.18933333C3.02933333 7.22133333 3.05066667 7.24266667 3.08266667 7.24266667L4.416 7.24266667C5.07733333 7.24266667 5.42933333 6.95466667 5.42933333 6.38933333 5.46133333 6.09066667 5.28 5.81333333 4.992 5.71733333M7.25333333 6.82666667L6.42133333 6.82666667C6.38933333 6.82666667 6.368 6.80533333 6.368 6.77333333L6.368 6.02666667C6.368 5.99466667 6.38933333 5.97333333 6.42133333 5.97333333L7.25333333 5.97333333C7.648 5.97333333 7.82933333 6.09066667 7.82933333 6.4 7.82933333 6.70933333 7.65866667 6.82666667 7.25333333 6.82666667M6.42133333 4.82133333L7.24266667 4.82133333C7.552 4.82133333 7.70133333 4.94933333 7.70133333 5.19466667 7.70133333 5.44 7.552 5.568 7.24266667 5.568L6.42133333 5.568C6.38933333 5.568 6.368 5.54666667 6.368 5.51466667L6.368 4.88533333C6.368 4.84266667 6.38933333 4.82133333 6.42133333 4.82133333M7.85066667 5.71733333C8.05333333 5.6 8.18133333 5.38666667 8.16 5.152 8.16 4.71466667 7.81866667 4.416 7.328 4.416L5.94133333 4.416C5.90933333 4.416 5.888 4.43733333 5.888 4.46933333L5.888 7.18933333C5.888 7.22133333 5.90933333 7.24266667 5.94133333 7.24266667L7.27466667 7.24266667C7.936 7.24266667 8.288 6.95466667 8.288 6.38933333 8.32 6.09066667 8.13866667 5.81333333 7.85066667 5.71733333"/>
  </g>
</svg>
