<?xml version="1.0" encoding="UTF-8"?>
<svg width="24px" height="31px" viewBox="0 0 24 31" version="1.1" xmlns="http://www.w3.org/2000/svg" xmlns:xlink="http://www.w3.org/1999/xlink">
    <!-- Generator: Sketch 58 (84663) - https://sketch.com -->
    <title>@0.5xPage 1</title>
    <desc>Created with Sketch.</desc>
    <g id="--⎿--Clip-Product" stroke="none" stroke-width="1" fill="none" fill-rule="evenodd">
        <g id="Component/Clips/Clip-Product/Reciept/Reciept" transform="translate(-27.000000, -8.000000)">
            <g id="Page-1" transform="translate(27.000000, 8.000000)">
                <path d="M23.2976606,2.37799689 L2.84024494,2.37799689 C2.5174219,2.37799689 2.25570939,2.67956409 2.25570939,3.05021277 L2.25570939,29.667836 L2.25570939,29.730275 C2.25570939,30.101588 2.5174219,30.4024909 2.84024494,30.4024909 L23.2976606,30.4024909 C23.6204837,30.4024909 23.8821962,30.101588 23.8821962,29.730275 L23.8821962,4.78256357 L23.8821962,3.05021277 C23.8821962,2.67956409 23.6204837,2.37799689 23.2976606,2.37799689" id="Fill-4" fill="#1464A5"></path>
                <g id="Group-8" fill="#FFFFFF">
                    <path d="M21.6265532,27.3522782 C21.6265532,27.7235911 21.3648407,28.024494 21.0420176,28.024494 L0.584601972,28.024494 C0.261778931,28.024494 6.6424494e-05,27.7235911 6.6424494e-05,27.3522782 L6.6424494e-05,0.67221588 C6.6424494e-05,0.301567203 0.261778931,-7.10542736e-15 0.584601972,-7.10542736e-15 L21.0420176,-7.10542736e-15 C21.3648407,-7.10542736e-15 21.6265532,0.301567203 21.6265532,0.67221588 L21.6265532,27.3522782 Z" id="Fill-6"></path>
                </g>
                <path d="M3.6371396,7.70424494 L14.1275599,7.70424494" id="Stroke-9" stroke="#2A85C9" stroke-width="2" stroke-linecap="round" stroke-linejoin="round"></path>
                <path d="M3.6371396,11.425013 L14.1275599,11.425013" id="Stroke-11" stroke="#2A85C9" stroke-width="2" stroke-linecap="round" stroke-linejoin="round"></path>
                <path d="M3.6371396,15.2094157 L14.1275599,15.2094157" id="Stroke-13" stroke="#2A85C9" stroke-width="2" stroke-linecap="round" stroke-linejoin="round"></path>
                <path d="M13.8210109,23.1377769 C13.8210109,21.6704598 15.0106736,20.4807971 16.4779907,20.4807971 C17.9453077,20.4807971 19.1349704,21.6704598 19.1349704,23.1377769 C19.1349704,24.6050939 17.9453077,25.7947566 16.4779907,25.7947566 C15.0106736,25.7947566 13.8210109,24.6050939 13.8210109,23.1377769" id="Fill-15" fill="#2A85C9"></path>
                <path d="M0,27.2903041 C0,27.7233918 0.261712506,28.0242948 0.584535547,28.0242948 L21.0419512,28.0242948 C21.3647743,28.0242948 21.6264868,27.7233918 21.6264868,27.3520789 L21.6264868,2.40436741 L0,27.2903041 Z" id="Fill-19" fill="#00BEFF" opacity="0.15"></path>
            </g>
        </g>
    </g>
</svg>