<?xml version="1.0" encoding="UTF-8"?>
<svg width="95px" height="102px" viewBox="0 0 95 102" version="1.1" xmlns="http://www.w3.org/2000/svg" xmlns:xlink="http://www.w3.org/1999/xlink">
    <!-- Generator: Sketch 62 (91390) - https://sketch.com -->
    <title>Newletter</title>
    <desc>Created with Sketch.</desc>
    <defs>
        <linearGradient x1="21.0560308%" y1="-4.29497307%" x2="76.1320803%" y2="107.235515%" id="linearGradient-1">
            <stop stop-color="#192647" offset="0%"></stop>
            <stop stop-color="#192647" stop-opacity="0.5" offset="0%"></stop>
            <stop stop-color="#192647" stop-opacity="0" offset="100%"></stop>
        </linearGradient>
        <linearGradient x1="99.9848278%" y1="49.998578%" x2="0%" y2="49.998578%" id="linearGradient-2">
            <stop stop-color="#043263" stop-opacity="0.1" offset="0%"></stop>
            <stop stop-color="#043263" stop-opacity="0" offset="100%"></stop>
        </linearGradient>
        <linearGradient x1="100.044838%" y1="50.0355366%" x2="0.0448380226%" y2="50.0355366%" id="linearGradient-3">
            <stop stop-color="#028484" stop-opacity="0.8" offset="0%"></stop>
            <stop stop-color="#028484" stop-opacity="0" offset="100%"></stop>
        </linearGradient>
    </defs>
    <g id="Page-1" stroke="none" stroke-width="1" fill="none" fill-rule="evenodd">
        <g id="CoDi_Presencial-01-00-00-07" transform="translate(-119.000000, -112.000000)" fill-rule="nonzero">
            <g id="Newletter" transform="translate(119.000000, 112.000000)">
                <g id="Newsletter" transform="translate(0.200000, 0.080000)">
                    <path d="M92.4408,45.0384 L88.9032,42.5736 L88.836,13.68 L88.836,13.68 C88.836,13.6536 88.836,13.6296 88.836,13.6032 C88.8373078,13.5808191 88.8373078,13.5583809 88.836,13.536 C88.836,13.5096 88.8192,13.488 88.812,13.464 C88.8070236,13.4427884 88.8006088,13.4219401 88.7928,13.4016 C88.7822425,13.3784566 88.770218,13.356011 88.7568,13.3344 C88.7478391,13.3152229 88.737408,13.2967679 88.7256,13.2792 C88.7109181,13.2589388 88.6948815,13.2396948 88.6776,13.2216 C88.6661373,13.2045745 88.653294,13.1885204 88.6392,13.1736 C88.6185164,13.1532045 88.5960241,13.1347287 88.572,13.1184 L88.5312,13.0848 C88.5079856,13.0705786 88.4839428,13.0577557 88.4592,13.0464 C88.4431824,13.0361808 88.4263211,13.0273487 88.4088,13.02 C88.3772169,13.006093 88.3442262,12.9956326 88.3104,12.9888 L88.2744,12.9888 C88.2270282,12.9790264 88.1787691,12.9743941 88.1304,12.9743941 L19.572,12.9743941 C19.1425434,12.9743941 18.7944,13.3225434 18.7944,13.752 L18.7944,42.6576 L15.3792,45.0384 C13.8971162,46.0700575 13.0128,47.7614067 13.0128,49.5672 L13.0128,95.52 C13.0128,98.5686118 15.4841882,101.04 18.5328,101.04 L89.28,101.04 C92.3286118,101.04 94.800001,98.5686118 94.800001,95.52 L94.800001,49.5672 C94.8010932,47.7627345 93.9201533,46.0716525 92.4408,45.0384 Z" id="Path" fill="url(#linearGradient-1)"></path>
                    <path d="M2.508,32.0784 L41.04,5.2512 L79.572,32.0784 C81.0540838,33.1100575 81.9384,34.8014067 81.9384,36.6072 L81.9384,50.808 L0.1416,50.808 L0.1416,36.6072 C0.1416,34.8014067 1.02591615,33.1100575 2.508,32.0784 Z" id="Path" fill="#043263"></path>
                    <path d="M75.2448,0 L6.7008,0 C6.49478767,0 6.29724794,0.0820010042 6.15180055,0.227898694 C6.00635316,0.373796383 5.92559628,0.571588661 5.92559628,0.7776 L5.92559628,84.2976 L75.192,84.2976 C75.7221934,84.2976 76.152,83.8677934 76.152,83.3376 L76.0152,25.4016 L75.9648,0.72 C75.9648,0.32235498 75.642445,0 75.2448,0 L75.2448,0 Z" id="Path" fill="#D4EDFC"></path>
                    <path d="M58.6344,0 L12.8904,84.3864 L75.204,84.3864 C75.7296,84.3864 76.164,83.8488 76.164,83.3232 L75.9648,0.72 C75.9648,0.32235498 75.642445,0 75.2448,0 L58.6344,0 Z" id="Path" fill="url(#linearGradient-2)"></path>
                    <path d="M40.5216,29.76 L14.7456,29.76 C14.0828583,29.76 13.5456,29.2227417 13.5456,28.56 C13.5456,27.8972583 14.0828583,27.36 14.7456,27.36 L40.5216,27.36 C41.1843417,27.36 41.7216,27.8972583 41.7216,28.56 C41.7216,29.2227417 41.1843417,29.76 40.5216,29.76 L40.5216,29.76 Z" id="Path" fill="#FFFFFF"></path>
                    <path d="M40.5216,34.56 L14.7456,34.56 C14.0828583,34.56 13.5456,34.0227417 13.5456,33.36 C13.5456,32.6972583 14.0828583,32.16 14.7456,32.16 L40.5216,32.16 C41.1843417,32.16 41.7216,32.6972583 41.7216,33.36 C41.7216,34.0227417 41.1843417,34.56 40.5216,34.56 L40.5216,34.56 Z" id="Path" fill="#FFFFFF"></path>
                    <path d="M40.5216,39.36 L14.7456,39.36 C14.0828583,39.36 13.5456,38.8227417 13.5456,38.16 C13.5456,37.4972583 14.0828583,36.96 14.7456,36.96 L40.5216,36.96 C41.1843417,36.96 41.7216,37.4972583 41.7216,38.16 C41.7216,38.8227417 41.1843417,39.36 40.5216,39.36 L40.5216,39.36 Z" id="Path" fill="#FFFFFF"></path>
                    <path d="M67.2792,47.76 L14.7456,47.76 C14.0828583,47.76 13.5456,47.2227417 13.5456,46.56 C13.5456,45.8972583 14.0828583,45.36 14.7456,45.36 L67.2792,45.36 C67.9419417,45.36 68.4792,45.8972583 68.4792,46.56 C68.4792,47.2227417 67.9419417,47.76 67.2792,47.76 L67.2792,47.76 Z" id="Path" fill="#FFFFFF"></path>
                    <path d="M67.2792,52.56 L14.7456,52.56 C14.0828583,52.56 13.5456,52.0227417 13.5456,51.36 C13.5456,50.6972583 14.0828583,50.16 14.7456,50.16 L67.2792,50.16 C67.9419417,50.16 68.4792,50.6972583 68.4792,51.36 C68.4792,52.0227417 67.9419417,52.56 67.2792,52.56 L67.2792,52.56 Z" id="Path" fill="#FFFFFF"></path>
                    <path d="M40.5216,58.5744 L0.1416,40.4544 L0.1416,82.56 C0.1416,85.6086118 2.61298818,88.08 5.6616,88.08 L34.56,88.08 C36.1389845,88.08 37.6532628,87.4525868 38.7695483,86.3358511 C39.8858339,85.2191155 40.5126367,83.7045843 40.512,82.1256 L40.5216,58.5744 Z" id="Path" fill="#1464A5"></path>
                    <path d="M41.5584,58.5744 L81.9384,40.4544 L81.9384,82.56 C81.9384,85.6086118 79.4670118,88.08 76.4184,88.08 L47.52,88.08 C45.9410155,88.08 44.4267372,87.4525868 43.3104517,86.3358511 C42.1941661,85.2191155 41.5673633,83.7045843 41.568,82.1256 L41.5584,58.5744 Z" id="Path" fill="#1464A5"></path>
                    <path d="M81.9384,82.128 L44.076,57.2064 C42.2337966,55.9932119 39.8462034,55.9932119 38.004,57.2064 L0.1416,82.128 L0.1416,82.56 C0.1416,85.6086118 2.61298818,88.08 5.6616,88.08 L76.4184,88.08 C79.4670118,88.08 81.9384,85.6086118 81.9384,82.56 L81.9384,82.128 Z" id="Path" fill="#004481"></path>
                    <rect id="Rectangle" fill="#FFFFFF" x="48.4584" y="27.3264" width="20.0016" height="12.0912" rx="0.72"></rect>
                    <rect id="Rectangle" fill="#2DCCCD" x="13.62" y="7.8528" width="54.84" height="13.5192" rx="0.72"></rect>
                    <path d="M67.74,7.8528 L54.3768,7.8528 L47.04,21.36 L67.7304,21.36 C68.128045,21.36 68.4504,21.037645 68.4504,20.64 L68.4504,8.5728 C68.4504,8.17887404 68.1338909,7.85805234 67.74,7.8528 Z" id="Path" fill="url(#linearGradient-3)"></path>
                </g>
            </g>
        </g>
    </g>
</svg>