<?xml version="1.0" encoding="UTF-8"?>
<svg width="82px" height="69px" viewBox="0 0 82 69" version="1.1" xmlns="http://www.w3.org/2000/svg" xmlns:xlink="http://www.w3.org/1999/xlink">
    <!-- Generator: Sketch 63.1 (92452) - https://sketch.com -->
    <title>Illustration/Offer-Detail-Head-01@1x</title>
    <desc>Created with Sketch.</desc>
    <defs>
        <rect id="path-1" x="0" y="0" width="88" height="88"></rect>
        <linearGradient x1="22.4616818%" y1="4.23858551%" x2="77.5383182%" y2="95.7614145%" id="linearGradient-3">
            <stop stop-color="#192647" offset="0%"></stop>
            <stop stop-color="#192647" stop-opacity="0.5" offset="0%"></stop>
            <stop stop-color="#192647" stop-opacity="0" offset="100%"></stop>
        </linearGradient>
        <linearGradient x1="100%" y1="50%" x2="0%" y2="50%" id="linearGradient-4">
            <stop stop-color="#192647" offset="0%"></stop>
            <stop stop-color="#043263" stop-opacity="0.2" offset="0%"></stop>
            <stop stop-color="#043263" stop-opacity="0" offset="100%"></stop>
        </linearGradient>
        <linearGradient x1="30.1756022%" y1="-24.5138006%" x2="60.0069072%" y2="100%" id="linearGradient-5">
            <stop stop-color="#192647" offset="0%"></stop>
            <stop stop-color="#192647" stop-opacity="0.5" offset="9.6879682%"></stop>
            <stop stop-color="#192647" stop-opacity="0" offset="100%"></stop>
        </linearGradient>
        <linearGradient x1="61.3987517%" y1="1.50436948%" x2="43.820775%" y2="94.6832358%" id="linearGradient-6">
            <stop stop-color="#D8722C" offset="0%"></stop>
            <stop stop-color="#D8722C" stop-opacity="0" offset="100%"></stop>
        </linearGradient>
        <linearGradient x1="37.6082447%" y1="6.34824468%" x2="61.1251741%" y2="106.535348%" id="linearGradient-7">
            <stop stop-color="#192647" offset="0%"></stop>
            <stop stop-color="#192647" stop-opacity="0.5" offset="0%"></stop>
            <stop stop-color="#192647" stop-opacity="0" offset="100%"></stop>
        </linearGradient>
        <linearGradient x1="38.5597781%" y1="1.5723039%" x2="56.1347595%" y2="94.755409%" id="linearGradient-8">
            <stop stop-color="#D8722C" offset="0%"></stop>
            <stop stop-color="#D8722C" stop-opacity="0" offset="100%"></stop>
        </linearGradient>
    </defs>
    <g id="COVID-MX" stroke="none" stroke-width="1" fill="none" fill-rule="evenodd">
        <g id="COVID-01-02-03" transform="translate(-122.000000, -101.000000)">
            <g id="Illustration/Offer-Detail-Head-01" transform="translate(116.000000, 92.000000)">
                <mask id="mask-2" fill="white">
                    <use xlink:href="#path-1"></use>
                </mask>
                <g id="Rectangle"></g>
                <g id="Transactions/Donation" mask="url(#mask-2)">
                    <g transform="translate(5.536667, 9.496667)">
                        <g id="Planning/Calendar" transform="translate(23.051790, 0.842654)">
                            <g id="Calendar" transform="translate(0.123733, 0.063056)" fill-rule="nonzero">
                                <path d="M5.11903755,6.19676531 L33.7341453,6.19676531 C34.6237342,6.19676531 35.341648,6.93428459 35.341648,7.84816719 L35.341648,31.9217587 C35.341648,32.8356413 34.6237342,33.5731605 33.7341453,33.5731605 L5.11903755,33.5731605 C4.22944871,33.5731605 3.51153491,32.8356413 3.51153491,31.9217587 L3.51153491,7.84816719 C3.51153491,6.93428459 4.22944871,6.19676531 5.11903755,6.19676531 Z" id="Path" fill="url(#linearGradient-3)"></path>
                                <path d="M31.8535233,8.00849747 L31.8535233,28.3063109 C31.8535233,29.2201935 31.1356095,29.9577127 30.2460207,29.9577127 L1.62310947,29.9577127 C0.733520625,29.9577127 0.0156068218,29.2201935 0.0156068218,28.3063109 L0.0156068218,8.00849747" id="Path" fill="#D4EDFC"></path>
                                <path d="M30.2382172,2.62941659 L1.62310947,2.62941659 C0.733520625,2.62941659 0.0156068218,3.36693587 0.0156068218,4.28081847 L0.0156068218,8.00849747 L31.8535233,8.00849747 L31.8535233,4.28081847 C31.8457199,3.36693587 31.1278061,2.62941659 30.2382172,2.62941659 Z" id="Path" fill="#1464A5"></path>
                                <path d="M16.7929403,11.9526223 C16.7929403,12.4736958 16.3793595,12.898571 15.8721378,12.898571 C15.3649161,12.898571 14.9513353,12.4736958 14.9513353,11.9526223 C14.9513353,11.4315489 15.3649161,11.0066737 15.8721378,11.0066737 C16.3793595,11.0066737 16.7929403,11.4315489 16.7929403,11.9526223 L16.7929403,11.9526223 Z" id="Path" fill="#FFFFFF"></path>
                                <path d="M20.7492696,11.9526223 C20.7492696,12.4736958 20.3356888,12.898571 19.8284671,12.898571 C19.3212454,12.898571 18.9076646,12.4736958 18.9076646,11.9526223 C18.9076646,11.4315489 19.3212454,11.0066737 19.8284671,11.0066737 L19.8284671,11.0066737 C20.3356888,11.0066737 20.7492696,11.4315489 20.7492696,11.9526223 L20.7492696,11.9526223 Z" id="Path" fill="#FFFFFF"></path>
                                <path d="M24.7055989,11.9526223 C24.7055989,12.4736958 24.2920181,12.898571 23.7847964,12.898571 C23.2775747,12.898571 22.8639939,12.4736958 22.8639939,11.9526223 C22.8639939,11.4315489 23.2775747,11.0066737 23.7847964,11.0066737 C24.2920181,11.0066737 24.7055989,11.4315489 24.7055989,11.9526223 L24.7055989,11.9526223 Z" id="Path" fill="#49A5E6"></path>
                                <path d="M28.6541248,11.9526223 C28.6541248,12.4736958 28.2405441,12.898571 27.7333223,12.898571 C27.2261006,12.898571 26.8125199,12.4736958 26.8125199,11.9526223 C26.8125199,11.4315489 27.2261006,11.0066737 27.7333223,11.0066737 C28.2405441,11.0066737 28.6541248,11.4315489 28.6541248,11.9526223 L28.6541248,11.9526223 Z" id="Path" fill="#49A5E6"></path>
                                <path d="M4.93175569,16.6743491 C4.93175569,17.1954225 4.51817491,17.6202977 4.0109532,17.6202977 C3.50373149,17.6202977 3.09015072,17.1954225 3.09015072,16.6743491 C3.09015072,16.1532757 3.50373149,15.7284004 4.0109532,15.7284004 C4.52597832,15.7284004 4.93175569,16.1532757 4.93175569,16.6743491 L4.93175569,16.6743491 Z" id="Path" fill="#FFFFFF"></path>
                                <path d="M8.88808502,16.6743491 C8.88808502,17.1954225 8.47450424,17.6202977 7.96728253,17.6202977 C7.46006082,17.6202977 7.04648004,17.1954225 7.04648004,16.6743491 C7.04648004,16.1532757 7.46006082,15.7284004 7.96728253,15.7284004 L7.96728253,15.7284004 C8.47450424,15.7284004 8.88808502,16.1532757 8.88808502,16.6743491 L8.88808502,16.6743491 Z" id="Path" fill="#FFFFFF"></path>
                                <path d="M12.8444143,16.6743491 C12.8444143,17.1954225 12.4308336,17.6202977 11.9236119,17.6202977 C11.4163901,17.6202977 11.0028094,17.1954225 11.0028094,16.6743491 C11.0028094,16.1532757 11.4163901,15.7284004 11.9236119,15.7284004 C12.4308336,15.7284004 12.8444143,16.1532757 12.8444143,16.6743491 L12.8444143,16.6743491 Z" id="Path" fill="#FFFFFF"></path>
                                <path d="M16.7929403,16.6743491 C16.7929403,17.1954225 16.3793595,17.6202977 15.8721378,17.6202977 C15.3649161,17.6202977 14.9513353,17.1954225 14.9513353,16.6743491 C14.9513353,16.1532757 15.3649161,15.7284004 15.8721378,15.7284004 C16.3871629,15.7284004 16.7929403,16.1532757 16.7929403,16.6743491 L16.7929403,16.6743491 Z" id="Path" fill="#FFFFFF"></path>
                                <path d="M20.7492696,16.6743491 C20.7492696,17.1954225 20.3356888,17.6202977 19.8284671,17.6202977 C19.3212454,17.6202977 18.9076646,17.1954225 18.9076646,16.6743491 C18.9076646,16.1532757 19.3212454,15.7284004 19.8284671,15.7284004 L19.8284671,15.7284004 C20.3356888,15.7284004 20.7492696,16.1532757 20.7492696,16.6743491 L20.7492696,16.6743491 Z" id="Path" fill="#FFFFFF"></path>
                                <path d="M24.7055989,16.6743491 C24.7055989,17.1954225 24.2920181,17.6202977 23.7847964,17.6202977 C23.2775747,17.6202977 22.8639939,17.1954225 22.8639939,16.6743491 C22.8639939,16.1532757 23.2775747,15.7284004 23.7847964,15.7284004 C24.2920181,15.7284004 24.7055989,16.1532757 24.7055989,16.6743491 L24.7055989,16.6743491 Z" id="Path" fill="#49A5E6"></path>
                                <path d="M28.6541248,16.6743491 C28.6541248,17.1954225 28.2405441,17.6202977 27.7333223,17.6202977 C27.2261006,17.6202977 26.8125199,17.1954225 26.8125199,16.6743491 C26.8125199,16.1532757 27.2261006,15.7284004 27.7333223,15.7284004 C28.2483475,15.7284004 28.6541248,16.1532757 28.6541248,16.6743491 C28.6619282,16.6743491 28.6619282,16.6743491 28.6541248,16.6743491 Z" id="Path" fill="#49A5E6"></path>
                                <path d="M4.93175569,21.4040923 C4.93175569,21.9251657 4.51817491,22.350041 4.0109532,22.350041 C3.50373149,22.350041 3.09015072,21.9251657 3.09015072,21.4040923 C3.09015072,20.8830189 3.50373149,20.4581437 4.0109532,20.4581437 C4.52597832,20.4581437 4.93175569,20.8830189 4.93175569,21.4040923 L4.93175569,21.4040923 Z" id="Path" fill="#FFFFFF"></path>
                                <path d="M8.88808502,21.4040923 C8.88808502,21.9251657 8.47450424,22.350041 7.96728253,22.350041 C7.46006082,22.350041 7.04648004,21.9251657 7.04648004,21.4040923 C7.04648004,20.8830189 7.46006082,20.4581437 7.96728253,20.4581437 L7.96728253,20.4581437 C8.47450424,20.4581437 8.88808502,20.8830189 8.88808502,21.4040923 L8.88808502,21.4040923 Z" id="Path" fill="#FFFFFF"></path>
                                <path d="M12.8444143,21.4040923 C12.8444143,21.9251657 12.4308336,22.350041 11.9236119,22.350041 C11.4163901,22.350041 11.0028094,21.9251657 11.0028094,21.4040923 C11.0028094,20.8830189 11.4163901,20.4581437 11.9236119,20.4581437 C12.4308336,20.4581437 12.8444143,20.8830189 12.8444143,21.4040923 L12.8444143,21.4040923 Z" id="Path" fill="#FFFFFF"></path>
                                <path d="M16.7929403,21.4040923 C16.7929403,21.9251657 16.3793595,22.350041 15.8721378,22.350041 C15.3649161,22.350041 14.9513353,21.9251657 14.9513353,21.4040923 C14.9513353,20.8830189 15.3649161,20.4581437 15.8721378,20.4581437 C16.3871629,20.4581437 16.7929403,20.8830189 16.7929403,21.4040923 L16.7929403,21.4040923 Z" id="Path" fill="#FFFFFF"></path>
                                <path d="M20.7492696,21.4040923 C20.7492696,21.9251657 20.3356888,22.350041 19.8284671,22.350041 C19.3212454,22.350041 18.9076646,21.9251657 18.9076646,21.4040923 C18.9076646,20.8830189 19.3212454,20.4581437 19.8284671,20.4581437 L19.8284671,20.4581437 C20.3356888,20.4581437 20.7492696,20.8830189 20.7492696,21.4040923 L20.7492696,21.4040923 Z" id="Path" fill="#FFFFFF"></path>
                                <path d="M24.7055989,21.4040923 C24.7055989,21.9251657 24.2920181,22.350041 23.7847964,22.350041 C23.2775747,22.350041 22.8639939,21.9251657 22.8639939,21.4040923 C22.8639939,20.8830189 23.2775747,20.4581437 23.7847964,20.4581437 C24.2920181,20.4581437 24.7055989,20.8830189 24.7055989,21.4040923 L24.7055989,21.4040923 Z" id="Path" fill="#49A5E6"></path>
                                <path d="M28.6541248,21.4040923 C28.6541248,21.9251657 28.2405441,22.350041 27.7333223,22.350041 C27.2261006,22.350041 26.8125199,21.9251657 26.8125199,21.4040923 C26.8125199,20.8830189 27.2261006,20.4581437 27.7333223,20.4581437 C28.2483475,20.4581437 28.6541248,20.8830189 28.6541248,21.4040923 C28.6619282,21.4040923 28.6619282,21.4040923 28.6541248,21.4040923 Z" id="Path" fill="#49A5E6"></path>
                                <path d="M4.93175569,26.1338356 C4.93175569,26.654909 4.51817491,27.0797842 4.0109532,27.0797842 C3.50373149,27.0797842 3.09015072,26.654909 3.09015072,26.1338356 C3.09015072,25.6127622 3.50373149,25.1878869 4.0109532,25.1878869 C4.52597832,25.1878869 4.93175569,25.6127622 4.93175569,26.1338356 L4.93175569,26.1338356 Z" id="Path" fill="#FFFFFF"></path>
                                <path d="M8.88808502,26.1338356 C8.88808502,26.654909 8.47450424,27.0797842 7.96728253,27.0797842 C7.46006082,27.0797842 7.04648004,26.654909 7.04648004,26.1338356 C7.04648004,25.6127622 7.46006082,25.1878869 7.96728253,25.1878869 L7.96728253,25.1878869 C8.47450424,25.1878869 8.88808502,25.6127622 8.88808502,26.1338356 L8.88808502,26.1338356 Z" id="Path" fill="#FFFFFF"></path>
                                <path d="M12.8444143,26.1338356 C12.8444143,26.654909 12.4308336,27.0797842 11.9236119,27.0797842 C11.4163901,27.0797842 11.0028094,26.654909 11.0028094,26.1338356 C11.0028094,25.6127622 11.4163901,25.1878869 11.9236119,25.1878869 C12.4308336,25.1878869 12.8444143,25.6127622 12.8444143,26.1338356 L12.8444143,26.1338356 Z" id="Path" fill="#FFFFFF"></path>
                                <path d="M16.7929403,26.1338356 C16.7929403,26.654909 16.3793595,27.0797842 15.8721378,27.0797842 C15.3649161,27.0797842 14.9513353,26.654909 14.9513353,26.1338356 C14.9513353,25.6127622 15.3649161,25.1878869 15.8721378,25.1878869 C16.3871629,25.1878869 16.7929403,25.6127622 16.7929403,26.1338356 L16.7929403,26.1338356 Z" id="Path" fill="#FFFFFF"></path>
                                <path d="M20.7492696,26.1338356 C20.7492696,26.654909 20.3356888,27.0797842 19.8284671,27.0797842 C19.3212454,27.0797842 18.9076646,26.654909 18.9076646,26.1338356 C18.9076646,25.6127622 19.3212454,25.1878869 19.8284671,25.1878869 L19.8284671,25.1878869 C20.3356888,25.1878869 20.7492696,25.6127622 20.7492696,26.1338356 L20.7492696,26.1338356 Z" id="Path" fill="#FFFFFF"></path>
                                <path d="M24.7055989,26.1338356 C24.7055989,26.654909 24.2920181,27.0797842 23.7847964,27.0797842 C23.2775747,27.0797842 22.8639939,26.654909 22.8639939,26.1338356 C22.8639939,25.6127622 23.2775747,25.1878869 23.7847964,25.1878869 C24.2920181,25.1878869 24.7055989,25.6127622 24.7055989,26.1338356 L24.7055989,26.1338356 Z" id="Path" fill="#49A5E6"></path>
                                <path d="M11.9548255,24.1697896 C10.4721774,24.1697896 9.26264874,22.92723 9.26264874,21.4040923 C9.26264874,19.8809547 10.4721774,18.638395 11.9548255,18.638395 C13.4374736,18.638395 14.6470023,19.8809547 14.6470023,21.4040923 C14.6470023,22.92723 13.4374736,24.1697896 11.9548255,24.1697896 Z M11.9548255,19.7126079 C11.0496298,19.7126079 10.3083058,20.4741767 10.3083058,21.4040923 C10.3083058,22.3340079 11.0496298,23.0955768 11.9548255,23.0955768 C12.8600212,23.0955768 13.6013452,22.3340079 13.6013452,21.4040923 C13.6013452,20.4741767 12.8600212,19.7126079 11.9548255,19.7126079 Z" id="Shape" fill="#02A5A5"></path>
                                <path d="M30.2382172,2.62941659 L24.9709149,2.62941659 L10.8389377,29.9577127 L30.2460207,29.9577127 C31.1356095,29.9577127 31.8535233,29.2201935 31.8535233,28.3063109 L31.8535233,4.28081847 C31.8535233,3.36693587 31.1278061,2.62941659 30.2382172,2.62941659 Z" id="Path" fill="url(#linearGradient-4)"></path>
                                <path d="M6.01642981,0 L6.01642981,0 C6.50024128,0 6.89041183,0.400825699 6.89041183,0.897849566 L6.89041183,4.4170992 C6.89041183,4.91412307 6.50024128,5.31494877 6.01642981,5.31494877 L6.01642981,5.31494877 C5.53261833,5.31494877 5.14244778,4.91412307 5.14244778,4.4170992 L5.14244778,0.897849566 C5.14244778,0.400825699 5.53261833,0 6.01642981,0 Z" id="Path" fill="#5AC4C4"></path>
                                <path d="M25.8448969,0 L25.8448969,0 C26.3287084,0 26.7188789,0.400825699 26.7188789,0.897849566 L26.7188789,4.4170992 C26.7188789,4.91412307 26.3287084,5.31494877 25.8448969,5.31494877 L25.8448969,5.31494877 C25.3610854,5.31494877 24.9709149,4.91412307 24.9709149,4.4170992 L24.9709149,0.897849566 C24.9709149,0.400825699 25.3610854,0 25.8448969,0 Z" id="Path" fill="#5AC4C4"></path>
                            </g>
                        </g>
                        <g id="Donation" transform="translate(0.542531, 0.265494)">
                            <g id="Group-3" transform="translate(47.346499, 0.012697)">
                                <path d="M24.5389306,54.1259384 C25.9696621,48.7187835 33.011452,44.0883387 34.1242433,39.8842647 C34.4186325,38.7855403 33.8607649,36.424103 33.0541385,33.8405354 C31.9074925,30.17017 31.1008661,25.9631143 29.5994811,20.7736172 C28.0980961,15.58412 26.0226522,9.19899616 25.5604611,8.38054344 C25.0982701,7.56209072 24.6243034,7.50245846 23.7558553,7.68135523 C22.8874071,7.860252 21.6759955,9.33615035 21.7922792,12.0046938 C21.908563,14.6732373 22.8756315,21.098613 23.3952285,24.5692103 C23.4644099,25.0328511 23.5115122,25.4979827 23.5424231,25.9601327 C22.7063577,25.8855924 21.933586,26.1092134 21.3757185,26.6936095 C21.3757185,26.7144808 21.3757185,26.735352 21.3683588,26.7577141 C20.6110597,27.2761288 20.0929149,28.0826614 19.9317394,28.9939238 L19.0588754,33.7779216 C18.8764974,34.7812425 18.6156314,35.7682858 18.278744,36.7297183 L17.4029361,39.226819 C15.440832,41.3705986 13.4698962,43.5337588 12.7206757,44.7577108 C11.1545251,47.312953 11.7786302,50.7418078 11.5916931,53.0465945 C11.538042,53.7011086 11.4515763,54.3524376 11.3326306,54.9980601 L10.9764196,54.975698 C9.87342414,54.9196319 8.8801051,55.6473575 8.58745118,56.7259047 L7.43933325,61.0283721 C7.25706279,61.7093757 7.38401002,62.4372253 7.78561405,63.0137666 C8.18721808,63.5903078 8.82167236,63.9555235 9.51624914,64.0099849 C13.7725907,64.3743076 17.9291658,65.5131243 21.7863914,67.3717534 C22.4133152,67.6783327 23.1424557,67.6863228 23.7757821,67.3935535 C24.4091085,67.1007842 24.8808717,66.5376496 25.0629433,65.8570941 L26.2110613,61.5546267 C26.494563,60.4729899 25.9974978,59.337163 25.0158411,58.8234694 C24.7479469,58.6818428 24.4741649,58.5446886 24.1974391,58.4090252 C24.1326734,57.4221113 24.1150101,55.7285553 24.5389306,54.1259384 Z" id="Path" fill-opacity="0.5" fill="url(#linearGradient-5)" fill-rule="nonzero"></path>
                                <path d="M3.4518314,49.392628 C3.4518314,49.392628 4.02147452,48.0404666 4.2319628,45.4449726 C4.41889995,43.1401859 3.79037899,39.7128219 5.36094543,37.1575797 C6.93151187,34.6023375 13.8202194,27.9473777 14.8314463,25.9332982 C15.8426733,23.9192187 16.5580391,20.4411674 16.0384421,16.9735516 C15.5188451,13.5059359 14.5503046,7.07459702 14.4354928,4.40903514 C14.3206811,1.74347327 15.5291488,0.270556528 16.3990689,0.0856965319 C17.268989,-0.0991634638 17.7429556,-0.0350587879 18.2051467,0.783393935 C18.6673377,1.60184666 20.7413097,7.98697054 22.2426947,13.1779585 C23.7440797,18.3689464 24.5507061,22.5700389 25.6973521,26.2448767 C26.5039785,28.8269535 27.0589022,31.1883908 26.7674569,32.288606 C25.6546657,36.4911892 18.6128757,41.121634 17.1821442,46.5302797 C16.533016,48.9871286 16.9216097,51.6571629 16.9216097,51.6571629 L4.41006828,51.1025829 L3.4518314,49.392628 Z" id="Path" fill="#F7B27F" fill-rule="nonzero"></path>
                                <path d="M0.0810749346,53.435695 C-0.10063725,54.1166593 0.0265394563,54.8442125 0.428037819,55.4206021 C0.829536182,55.9969917 1.46363779,56.3623269 2.15799082,56.4173078 C6.4144925,56.7814167 10.5714165,57.9191824 14.4296051,59.7760947 C15.0571757,60.0860151 15.7886366,60.0957714 16.4240478,59.8026967 C17.059459,59.5096219 17.5323711,58.9443651 17.7135167,58.2614354 L18.8557468,53.9544956 C19.1382355,52.8729637 18.6406224,51.7379035 17.6590547,51.2248291 C13.2946983,48.9683062 8.51351982,47.6588111 3.62110519,47.3800393 C2.51564883,47.3221494 1.51958149,48.051783 1.22772091,49.1332277 L0.0810749346,53.435695 Z" id="Path" fill="#2DCCCD"></path>
                                <ellipse id="Oval" fill="#02A5A5" fill-rule="nonzero" cx="15.2377034" cy="55.3185835" rx="1.47194605" ry="1.49080642"></ellipse>
                                <path d="M20.5632043,23.2081041 L19.9214358,27.936942 C19.707464,29.5246034 19.2929042,31.0778276 18.687945,32.5584419 L15.8809439,39.4414951 L8.85240147,37.1158371 L12.0347488,29.3860059 C12.4116527,28.4701633 12.7163175,27.5255147 12.9458834,26.5609277 L14.0395394,21.9602991 C14.2582591,21.0486411 14.8426992,20.2707903 15.6519574,19.8142782 C16.4612157,19.3577661 17.421862,19.2640154 18.3022951,19.5556283 L18.3022951,19.5556283 C19.8277605,20.0605937 20.779078,21.5974374 20.5632043,23.2081041 L20.5632043,23.2081041 Z" id="Path" fill="url(#linearGradient-6)" fill-rule="nonzero"></path>
                                <path d="M19.3326574,22.3016938 L18.9381758,27.1930296 C18.8044408,28.8362296 18.4641234,30.4554144 17.9254769,32.011316 L15.4231686,39.2342731 L8.07962979,37.2410649 L10.9234296,29.1280963 C11.2602738,28.1665355 11.5216206,27.1795354 11.7050329,26.1762996 L12.576425,21.3923018 C12.7488685,20.443523 13.3050472,19.6109449 14.1104614,19.0959083 C14.9158756,18.5808717 15.8971924,18.4302707 16.8171016,18.680525 L16.8171016,18.680525 C18.4092643,19.1135609 19.4680097,20.6376359 19.3326574,22.3016938 Z" id="Path" fill="#F7B27F" fill-rule="nonzero"></path>
                                <path d="M13.6612492,22.2972213 C13.6494737,22.5372412 14.6533409,23.3288594 15.932462,23.3974365 C17.3013718,23.4719768 18.004962,23.0992752 18.0844471,22.7161379 C18.1271335,22.499971 18.333206,20.675224 18.4318264,19.6555124 C18.0182095,18.9235264 17.2851804,18.5254811 16.4167322,18.3927993 L16.4167322,18.3927993 C15.4908782,18.2437187 14.6253739,18.4583948 14.0159882,19.0979508 C13.9041203,20.1131899 13.668609,22.1466499 13.6612492,22.2972213 Z" id="Path" fill="#FACBA9" fill-rule="nonzero"></path>
                            </g>
                            <g id="Group-2" transform="translate(0.055329, 0.006733)">
                                <path d="M32.9721968,56.731868 C32.6788543,55.6533458 31.6848665,54.9261985 30.5817564,54.983152 L30.2255454,55.0055141 C30.1083057,54.3563271 30.0238046,53.7015109 29.9723707,53.0436129 C29.7839616,50.7388262 30.4139545,47.3099714 28.8433881,44.7547292 C28.0926956,43.5307771 26.1217598,41.367617 24.1596557,39.2238374 L23.2838478,36.7267367 C22.9476375,35.7650913 22.686786,34.7781028 22.5037164,33.77494 L21.6323244,28.9909422 C21.4695209,28.0799438 20.9511146,27.27383 20.1942331,26.7547325 C20.1942331,26.7323704 20.1942331,26.7114991 20.1942331,26.6906279 C19.6363655,26.1047409 18.8694816,25.8826108 18.0275285,25.9571511 C18.0554954,25.4950011 18.1011258,25.0298695 18.1747231,24.5662287 C18.69432,21.0971222 19.6613886,14.6657833 19.7776723,12.0017122 C19.8939561,9.33764116 18.6825445,7.86174281 17.8140963,7.67837362 C16.9456481,7.49500443 16.4702095,7.5591091 16.0080185,8.37756183 C15.5458274,9.19601455 13.4718554,15.5811384 11.9704705,20.7706356 C10.4690855,25.9601327 9.66098711,30.162716 8.51434113,33.8375538 C7.70918664,36.4211213 7.15426298,38.7825587 7.44423635,39.881283 C8.55702757,44.0853571 15.5988175,48.7158019 17.029549,54.1229567 C17.4534695,55.7255736 17.4358062,57.4191297 17.3725125,58.403062 C17.0943147,58.5387254 16.8205327,58.6758795 16.5526385,58.8175062 C15.5603969,59.3291538 15.0575105,60.47468 15.3471147,61.5635716 L16.4952326,65.8660389 C16.6778997,66.5464647 17.1501834,67.1092007 17.783803,67.4013976 C18.4174226,67.6935946 19.1465923,67.6849151 19.7732565,67.3777166 C23.6304218,65.5191728 27.7870714,64.3808407 32.0433988,64.0174389 C32.7380172,63.9628743 33.3725205,63.5977122 33.774343,63.0212659 C34.1761655,62.4448196 34.3035261,61.7170271 34.1217866,61.0358261 L32.9721968,56.731868 Z" id="Path" fill="url(#linearGradient-7)" fill-rule="nonzero" opacity="0.7"></path>
                                <path d="M23.3927718,49.3985912 C23.3927718,49.3985912 22.8246007,48.0464298 22.6141124,45.4509358 C22.4271752,43.1461491 23.0556962,39.7187851 21.4851298,37.1635429 C19.9145633,34.6083007 13.0258558,27.9533409 12.0146288,25.9332982 C11.0034019,23.9132555 10.2880361,20.4411674 10.8076331,16.9735516 C11.32723,13.5059359 12.2942986,7.07459702 12.4105823,4.40903514 C12.5268661,1.74347327 11.3154545,0.270556528 10.4470063,0.0856965319 C9.57855813,-0.0991634638 9.10311955,-0.0350587879 8.64092849,0.783393935 C8.17873743,1.60184666 6.10476544,7.98697054 4.60338047,13.1779585 C3.10199549,18.3689464 2.29389711,22.5700389 1.14872308,26.2448767 C0.342096644,28.8269535 -0.212827018,31.1883908 0.0786183001,32.288606 C1.18993757,36.5016249 8.23172749,41.1395237 9.65951516,46.5407153 C10.3101153,48.9975643 9.92152156,51.6675986 9.92152156,51.6675986 L22.433063,51.1130186 L23.3927718,49.3985912 Z" id="Path" fill="#F7B27F" fill-rule="nonzero"></path>
                                <path d="M26.7650002,53.4416582 C26.9467397,54.1228592 26.8193791,54.8506517 26.4175566,55.427098 C26.0157341,56.0035443 25.3812308,56.3687064 24.6866124,56.423271 C20.4305343,56.7871059 16.2740457,57.9248889 12.4164701,59.7820579 C11.7894031,60.0891912 11.0598483,60.0974767 10.426139,59.804662 C9.79242974,59.5118473 9.32042664,58.9483642 9.13844626,58.2673986 L7.99032834,53.9604588 C7.70759947,52.8792918 8.20454926,51.7443485 9.18554853,51.2307923 C13.5505099,48.9744801 18.3321231,47.6650032 23.22497,47.3860025 C24.3286178,47.3283296 25.3234226,48.0556267 25.6168823,49.1347185 L26.7650002,53.4416582 Z" id="Path" fill="#2DCCCD"></path>
                                <ellipse id="Oval" fill="#02A5A5" fill-rule="nonzero" cx="11.6083717" cy="55.3245467" rx="1.47194605" ry="1.49080642"></ellipse>
                                <path d="M6.28139897,23.2140673 L6.91875161,27.9429052 C7.13340847,29.530426 7.54794485,31.0835627 8.1522424,32.5644051 L10.9592435,39.4474584 L17.9892579,37.1218004 L14.8113263,29.3979323 C14.4344225,28.4820898 14.1297577,27.5374412 13.9001917,26.5728542 L12.8050639,21.9722255 C12.5879967,21.0599336 12.0046328,20.2808993 11.195791,19.8231745 C10.3869492,19.3654497 9.42612478,19.2706255 8.545252,19.5615916 L8.545252,19.5615916 C7.01861207,20.0654192 6.0658664,21.6025687 6.28139897,23.2140673 Z" id="Path" fill="url(#linearGradient-8)" fill-rule="nonzero"></path>
                                <path d="M7.51341781,22.307657 L7.9093713,27.1989928 C8.04207407,28.8424829 8.3829271,30.4618624 8.92354213,32.0172792 L11.4258504,39.2402363 L18.7679173,37.2470281 L15.9255895,29.1340596 C15.5880359,28.1727223 15.3266738,27.1856646 15.1439862,26.1822629 L14.2725941,21.3982651 C14.0997391,20.4497114 13.5434774,19.6174281 12.738185,19.1024693 C11.9328925,18.5875106 10.9518029,18.436707 10.0319175,18.6864882 L10.0319175,18.6864882 C8.43893895,19.118857 7.37897967,20.6428959 7.51341781,22.307657 L7.51341781,22.307657 Z" id="Path" fill="#F7B27F" fill-rule="nonzero"></path>
                                <path d="M13.1921857,22.3031846 C13.2039613,22.5432044 12.200094,23.3348226 10.9209729,23.4033997 C9.5520631,23.47794 8.84847289,23.1052384 8.7689878,22.7221012 C8.72482942,22.5059342 8.52022892,20.6811872 8.42160853,19.6614756 C8.83522537,18.9294896 9.56825451,18.5314443 10.4367027,18.3987626 L10.4367027,18.3987626 C11.3610848,18.2496819 12.2265891,18.464358 12.8374467,19.103914 C12.9404829,20.1191532 13.1774662,22.1526131 13.1921857,22.3031846 Z" id="Path" fill="#FACBA9" fill-rule="nonzero"></path>
                            </g>
                        </g>
                    </g>
                </g>
            </g>
        </g>
    </g>
</svg>