<?xml version="1.0" encoding="UTF-8"?>
<svg width="144px" height="144px" viewBox="0 0 144 144" version="1.1" xmlns="http://www.w3.org/2000/svg" xmlns:xlink="http://www.w3.org/1999/xlink">
    <!-- Generator: Sketch 57.1 (83088) - https://sketch.com -->
    <title>Objects/Chronometer@1x</title>
    <desc>Created with Sketch.</desc>
    <defs>
        <linearGradient x1="27.8911724%" y1="8.66468843%" x2="67.722037%" y2="94.9173379%" id="linearGradient-1">
            <stop stop-color="#192647" offset="0%"></stop>
            <stop stop-color="#192647" stop-opacity="0.5" offset="0%"></stop>
            <stop stop-color="#192647" stop-opacity="0" offset="100%"></stop>
        </linearGradient>
        <linearGradient x1="-4.3%" y1="25.1248398%" x2="72.0333333%" y2="58.9633957%" id="linearGradient-2">
            <stop stop-color="#FADE8E" offset="0%"></stop>
            <stop stop-color="#FADE8E" stop-opacity="0.4" offset="100%"></stop>
        </linearGradient>
        <linearGradient x1="6.60249232%" y1="14.6936985%" x2="64.6994886%" y2="54.3694517%" id="linearGradient-3">
            <stop stop-color="#FFFFFF" offset="0%"></stop>
            <stop stop-color="#FFFFFF" stop-opacity="0.1" offset="100%"></stop>
        </linearGradient>
        <linearGradient x1="25.6377893%" y1="11.1138934%" x2="76.0132059%" y2="73.8705497%" id="linearGradient-4">
            <stop stop-color="#FFFFFF" stop-opacity="0.5" offset="0%"></stop>
            <stop stop-color="#EDF8F9" stop-opacity="0.2" offset="100%"></stop>
            <stop stop-color="#FFFFFF" stop-opacity="0" offset="100%"></stop>
        </linearGradient>
    </defs>
    <g id="Objects/Chronometer" stroke="none" stroke-width="1" fill="none" fill-rule="evenodd">
        <g id="Chronometer">
            <g transform="translate(28.560000, 20.640000)">
                <path d="M56.7628673,23.5812973 L56.7628673,20.9050193 L62.6233274,20.9050193 C62.9840231,20.9050193 63.2764248,20.6125351 63.2764248,20.2517375 L63.2764248,10.6702703 C63.2764248,10.3094727 62.9840231,10.0169884 62.6233274,10.0169884 L44.3366018,10.0169884 C43.9759061,10.0169884 43.6835044,10.3094727 43.6835044,10.6702703 L43.6835044,20.2517375 C43.6835044,20.6125351 43.9759061,20.9050193 44.3366018,20.9050193 L50.2318938,20.9050193 L50.2318938,23.5943629 C40.9967221,24.2841822 32.2078946,27.8434942 25.094177,33.7746718 L22.6994867,31.379305 L24.5129204,29.5653591 C24.7675877,29.3103026 24.7675877,28.8971106 24.5129204,28.6420541 L20.8120354,24.9401236 C20.6894913,24.8171185 20.5230299,24.7479791 20.3494248,24.7479791 C20.1758197,24.7479791 20.0093582,24.8171185 19.8868142,24.9401236 L11.6142478,33.215027 C11.3595804,33.4700835 11.3595804,33.8832755 11.6142478,34.138332 L15.3151327,37.8402625 C15.5701172,38.0950019 15.9831925,38.0950019 16.238177,37.8402625 L18.0777345,36.0001853 L20.3918761,38.3171583 C13.0241739,46.4918971 8.94880622,57.1091577 8.95395971,68.1155212 C8.95395971,92.7355367 28.9822832,112.756448 53.5822832,112.756448 C78.1822832,112.756448 98.2106087,92.722471 98.2106087,68.1155212 C98.2236637,44.5647104 79.8955752,25.2166795 56.7628673,23.5812973 Z" id="Path" fill="url(#linearGradient-1)" fill-rule="nonzero"></path>
                <rect id="Rectangle" fill="#004481" fill-rule="nonzero" x="40.0740531" y="4.98454054" width="6.53097345" height="9.7992278"></rect>
                <rect id="Rectangle" fill="#F8CD50" fill-rule="nonzero" x="33.5256637" y="0" width="19.5929204" height="10.8880309" rx="0.653097345"></rect>
                <path d="M34.1787611,0 C33.8180654,0 33.5256637,0.292484248 33.5256637,0.653281853 L33.5256637,10.234749 C33.5256637,10.5955466 33.8180654,10.8880309 34.1787611,10.8880309 L40.6727257,10.8880309 L46.5876106,0 L34.1787611,0 Z" id="Path" fill="url(#linearGradient-2)" fill-rule="nonzero"></path>
                <polygon id="Rectangle" fill="#004481" fill-rule="nonzero" transform="translate(9.515526, 22.954655) rotate(-45.000000) translate(-9.515526, -22.954655) " points="6.25026944 18.0561943 12.7821654 18.0552717 12.7807816 27.8531157 6.24888563 27.8540382"></polygon>
                <path d="M2.05354684,18.1009372 L13.7501798,18.0992852 C14.1108755,18.0990498 14.4033184,18.3914102 14.4033693,18.7521059 C14.4033693,18.7521674 14.4033693,18.7522289 14.4031849,18.7522903 L14.4024468,23.9779916 C14.4022114,24.3386153 14.1098809,24.6309458 13.7492572,24.6311812 L2.0526243,24.6328332 C1.69192863,24.6330686 1.39948569,24.3407083 1.39943475,23.9800126 C1.39943474,23.9799511 1.39943474,23.9798896 1.3996192,23.9798281 L1.40035726,18.7541268 C1.4005927,18.3935032 1.69292321,18.1011727 2.05354684,18.1009372 Z" id="Rectangle" fill="#2DCCCD" fill-rule="nonzero" transform="translate(7.901402, 21.366059) rotate(-45.000000) translate(-7.901402, -21.366059) "></path>
                <path d="M10.6520177,14.9209575 C10.5294736,14.7979525 10.3630122,14.728813 10.1894071,14.728813 C10.015802,14.728813 9.84934051,14.7979525 9.72679646,14.9209575 L1.45423009,23.195861 C1.19956272,23.4509175 1.19956272,23.8641095 1.45423009,24.119166 L4.75237168,27.4182394 L11.1440177,15.4196293 L10.6520177,14.9209575 Z" id="Path" fill="url(#linearGradient-3)" fill-rule="nonzero"></path>
                <path d="M43.3961416,93.2886489 C62.4625164,93.287446 77.9178925,77.8257537 77.9166901,58.7539923 C77.9154878,39.682231 62.4581624,24.2224886 43.3917876,24.2236913 C24.3254127,24.2248939 8.87003666,39.6865862 8.87123894,58.7583475 C8.87123894,67.9171074 12.5088125,76.7006847 18.9836129,83.1764975 C25.4584133,89.6523104 34.2399685,93.2898038 43.3961416,93.2886489 Z" id="Path" stroke="#BABABA" stroke-width="1.65669027"></path>
                <path d="M43.4309735,101.51129 C67.401823,101.51129 86.833646,82.0761544 86.833646,58.0985328 C86.833646,34.1209112 67.401823,14.6835985 43.4309735,14.6835985 C19.4601239,14.6835985 0.0304778761,34.1209112 0.0304778761,58.0985328 C0.0304778761,82.0761544 19.4623009,101.51129 43.4309735,101.51129 Z" id="Path" stroke="#BABABA" stroke-width="1.65669027"></path>
                <path d="M86.844531,58.0985328 C86.844531,82.0848649 67.408354,101.52871 43.4287965,101.52871 C19.4492389,101.52871 0.0174159292,82.0957529 0.0174159292,58.0985328 C0.0174159292,34.1013127 19.4514159,14.6727104 43.4287965,14.6727104 C67.406177,14.6727104 86.844531,34.116556 86.844531,58.0985328" id="Path" fill="#49A5E6" fill-rule="nonzero"></path>
                <path d="M84.8003363,58.0985328 C84.8003363,80.9633977 66.2784956,99.4730502 43.4375044,99.4730502 C20.5965133,99.4730502 2.07467257,80.9459768 2.07467257,58.0985328 C2.07467257,35.2510888 20.5943363,16.7240154 43.4375044,16.7240154 C66.2806726,16.7240154 84.8003363,35.2510888 84.8003363,58.0985328" id="Path" stroke="#1464A5" stroke-width="6.53097345"></path>
                <g id="Group" transform="translate(5.224779, 19.816216)">
                    <path d="M57.1677876,5.24367568 L19.0987434,71.2382085 C30.890865,78.1465092 45.4792752,78.2058041 57.3271325,71.3935884 C69.1749899,64.5813727 76.4660724,51.9419277 76.4332557,38.2723906 C76.4002168,24.6028534 69.0483263,11.998701 57.1677876,5.24367568 L57.1677876,5.24367568 Z" id="Path"></path>
                    <path d="M38.2061947,0.191583124 C20.9843916,0.193137142 5.90670728,11.7550214 1.43278578,28.3902498 C-3.04113571,45.0254783 4.20218872,62.5938249 19.0987434,71.2382085 L57.1677876,5.24367568 C51.4002919,1.92366344 44.8605283,0.181236582 38.2061947,0.191583124 Z" id="Path" fill="url(#linearGradient-4)" fill-rule="nonzero" opacity="0.5"></path>
                </g>
                <ellipse id="Oval" fill="#FFFFFF" fill-rule="nonzero" cx="43.4309735" cy="26.8433514" rx="1.81561062" ry="1.81612355"></ellipse>
                <ellipse id="Oval" fill="#FFFFFF" fill-rule="nonzero" cx="43.4309735" cy="89.3558919" rx="1.81561062" ry="1.81612355"></ellipse>
                <ellipse id="Oval" fill="#FFFFFF" fill-rule="nonzero" cx="74.6773274" cy="58.1007104" rx="1.81561062" ry="1.81612355"></ellipse>
                <ellipse id="Oval" fill="#FFFFFF" fill-rule="nonzero" cx="12.1846195" cy="58.1007104" rx="1.81561062" ry="1.81612355"></ellipse>
                <ellipse id="Oval" fill="#FFFFFF" fill-rule="nonzero" cx="27.806708" cy="31.030888" rx="1.81561062" ry="1.81612355"></ellipse>
                <ellipse id="Oval" fill="#FFFFFF" fill-rule="nonzero" cx="59.0552389" cy="85.1683552" rx="1.81561062" ry="1.81612355"></ellipse>
                <ellipse id="Oval" fill="#FFFFFF" fill-rule="nonzero" cx="70.4909735" cy="42.4720309" rx="1.81561062" ry="1.81612355"></ellipse>
                <ellipse id="Oval" fill="#FFFFFF" fill-rule="nonzero" cx="16.3709735" cy="73.7272124" rx="1.81561062" ry="1.81612355"></ellipse>
                <ellipse id="Oval" fill="#FFFFFF" fill-rule="nonzero" cx="16.3709735" cy="42.4720309" rx="1.81561062" ry="1.81612355"></ellipse>
                <ellipse id="Oval" fill="#FFFFFF" fill-rule="nonzero" cx="70.4909735" cy="73.7272124" rx="1.81561062" ry="1.81612355"></ellipse>
                <ellipse id="Oval" fill="#FFFFFF" fill-rule="nonzero" cx="59.0552389" cy="31.030888" rx="1.81561062" ry="1.81612355"></ellipse>
                <ellipse id="Oval" fill="#FFFFFF" fill-rule="nonzero" cx="27.806708" cy="85.1683552" rx="1.81561062" ry="1.81612355"></ellipse>
                <polygon id="Path" fill="#1464A5" fill-rule="nonzero" points="46.6463894 62.4058378 40.1785487 62.1858996 40.0326903 32.2786564 46.6463894 36.5206332"></polygon>
                <path d="M57.5204602,64.3635058 C59.1628486,65.1158571 59.8977524,67.0473335 59.1710546,68.7016032 C58.4443567,70.355873 56.5249996,71.1207104 54.860177,70.4194286 L42.1334867,64.8099151 C40.4751585,64.0655836 39.7282658,62.1219897 40.4611966,60.4582154 C41.1941275,58.7944411 43.1320959,58.0342588 44.8003009,58.7561699 L57.5204602,64.3635058 Z" id="Path" fill="#2DCCCD" fill-rule="nonzero"></path>
            </g>
        </g>
    </g>
</svg>