<?xml version="1.0" encoding="UTF-8" standalone="no"?>
<svg width="300px" height="120px" viewBox="0 0 300 120" version="1.1" xmlns="http://www.w3.org/2000/svg" xmlns:xlink="http://www.w3.org/1999/xlink">
    <!-- Generator: Sketch 40.3 (33839) - http://www.bohemiancoding.com/sketch -->
    <title>payroll_rejected</title>
    <desc>Created with Sketch.</desc>
        <defs>
          <polygon id="path-1" points="0.473732305 0 36 0 36 22.2886 0.473732305 22.2886"></polygon>
          <polygon id="path-3" points="0 120 300 120 300 0 0 0"></polygon>
        </defs>
        <g id="MX-PayRollAdvance-01-03-05" stroke="none" stroke-width="1" fill="none" fill-rule="evenodd" transform="translate(-30.000000, -110.000000)">
          <g id="Illustration/InfoIncompleta" transform="translate(30.000000, 110.000000)">
            <g id="Page-1">
              <path d="M244.9585,46.3995 L38.0885,46.3995 C29.6025,46.3995 22.6585,39.4565 22.6585,30.9705 L22.6585,30.2835 C22.6585,21.7975 29.6025,14.8545 38.0885,14.8545 L244.9585,14.8545 C253.4445,14.8545 260.3875,21.7975 260.3875,30.2835 L260.3875,30.9705 C260.3875,39.4565 253.4445,46.3995 244.9585,46.3995"
                id="Fill-1" fill="#C9EDFC"></path>
              <path d="M264.3071,109.4898 L57.0861,109.4898 C48.4111,109.4898 41.3131,102.3918 41.3131,93.7178 C41.3131,85.0428 48.4111,77.9448 57.0861,77.9448 L264.3071,77.9448 C272.9821,77.9448 280.0791,85.0428 280.0791,93.7178 C280.0791,102.3918 272.9821,109.4898 264.3071,109.4898"
                id="Fill-3" fill="#C9EDFC"></path>
              <path d="M215.354,62.1725 C215.354,53.4975 223.633,46.4005 233.753,46.3995 L63.757,46.3995 C73.877,46.3995 82.158,53.4975 82.158,62.1725 C82.158,70.8475 73.877,77.9445 63.757,77.9445 L233.755,77.9445 C223.634,77.9445 215.354,70.8475 215.354,62.1725"
                id="Fill-5" fill="#C9EDFC"></path>
              <g id="Group-9" transform="translate(264.000000, 0.000000)">
                <mask id="mask-2" fill="white">
                  <use xlink:href="#path-1"></use>
                </mask>
                <g id="Clip-8"></g>
                <path d="M21.5757,-0.0004 L11.9927,-0.0004 C5.3337,-0.0004 -0.0453,5.4556 0.5137,12.0906 C0.9937,17.8026 5.7827,22.2886 11.6177,22.2886 L24.4827,22.2886 C31.1407,22.2886 36.5177,16.8336 35.9607,10.1986 C35.4807,4.4856 30.6927,-0.0004 24.8557,-0.0004 L21.5757,-0.0004"
                  id="Fill-7" fill="#C9EDFC" mask="url(#mask-2)"></path>
              </g>
              <path d="M24.0098,58.8287 L13.1068,58.8287 C5.5308,58.8287 -0.5902,65.0367 0.0458,72.5867 C0.5928,79.0847 6.0408,84.1887 12.6798,84.1887 L27.3178,84.1887 C34.8938,84.1887 41.0108,77.9827 40.3768,70.4327 C39.8308,63.9337 34.3828,58.8287 27.7418,58.8287 L24.0098,58.8287"
                id="Fill-10" fill="#C9EDFC"></path>
              <mask id="mask-4" fill="white">
                <use xlink:href="#path-3"></use>
              </mask>
              <g id="Clip-13"></g>
              <polygon id="Fill-12" fill="#AAADAF" mask="url(#mask-4)" points="119.336 120 188.253 120 188.253 28.454 119.336 28.454"></polygon>
              <polygon id="Fill-14" fill="#D1D1D1" mask="url(#mask-4)" points="115.765 117.503 184.682 117.503 184.682 25.957 115.765 25.957"></polygon>
              <polygon id="Fill-15" fill="#FFFFFF" mask="url(#mask-4)" points="110.597 114.446 179.514 114.446 179.514 22.899 110.597 22.899"></polygon>
              <polygon id="Fill-16" fill="#004283" mask="url(#mask-4)" points="144.27 36.23 172.042 36.23 172.042 29.373 144.27 29.373"></polygon>
              <polygon id="Fill-17" fill="#EFF1F3" mask="url(#mask-4)" points="179.5137 48.9576 114.0247 114.4466 179.5137 114.4466"></polygon>
              <path d="M172.042,103.5719 C172.042,104.3929 171.376,105.0589 170.556,105.0589 L145.756,105.0589 C144.936,105.0589 144.27,104.3929 144.27,103.5719 L144.27,103.4589 C144.27,102.6379 144.936,101.9729 145.756,101.9729 L170.556,101.9729 C171.376,101.9729 172.042,102.6379 172.042,103.4589 L172.042,103.5719"
                id="Fill-18" fill="#0086CD" mask="url(#mask-4)"></path>
              <path d="M126.707,42.6046 L123.793,42.6046 C123.471,42.6046 123.21,42.3436 123.21,42.0216 C123.21,41.6996 123.471,41.4386 123.793,41.4386 L126.707,41.4386 C127.029,41.4386 127.29,41.6996 127.29,42.0216 C127.29,42.3436 127.029,42.6046 126.707,42.6046 M134.605,42.6046 L131.691,42.6046 C131.369,42.6046 131.108,42.3436 131.108,42.0216 C131.108,41.6996 131.369,41.4386 131.691,41.4386 L134.605,41.4386 C134.927,41.4386 135.188,41.6996 135.188,42.0216 C135.188,42.3436 134.927,42.6046 134.605,42.6046 M142.503,42.6046 L139.589,42.6046 C139.268,42.6046 139.006,42.3436 139.006,42.0216 C139.006,41.6996 139.268,41.4386 139.589,41.4386 L142.503,41.4386 C142.825,41.4386 143.086,41.6996 143.086,42.0216 C143.086,42.3436 142.825,42.6046 142.503,42.6046 M150.401,42.6046 L147.487,42.6046 C147.165,42.6046 146.905,42.3436 146.905,42.0216 C146.905,41.6996 147.165,41.4386 147.487,41.4386 L150.401,41.4386 C150.724,41.4386 150.984,41.6996 150.984,42.0216 C150.984,42.3436 150.724,42.6046 150.401,42.6046 M158.3,42.6046 L155.386,42.6046 C155.064,42.6046 154.803,42.3436 154.803,42.0216 C154.803,41.6996 155.064,41.4386 155.386,41.4386 L158.3,41.4386 C158.622,41.4386 158.882,41.6996 158.882,42.0216 C158.882,42.3436 158.622,42.6046 158.3,42.6046 M166.198,42.6046 L163.284,42.6046 C162.962,42.6046 162.701,42.3436 162.701,42.0216 C162.701,41.6996 162.962,41.4386 163.284,41.4386 L166.198,41.4386 C166.52,41.4386 166.78,41.6996 166.78,42.0216 C166.78,42.3436 166.52,42.6046 166.198,42.6046 M172.042,44.6586 C171.72,44.6586 171.459,44.3976 171.459,44.0756 L171.459,42.6046 L171.182,42.6046 C170.86,42.6046 170.599,42.3436 170.599,42.0216 C170.599,41.6996 170.86,41.4386 171.182,41.4386 L172.042,41.4386 C172.364,41.4386 172.625,41.6996 172.625,42.0216 L172.625,44.0756 C172.625,44.3976 172.364,44.6586 172.042,44.6586 M119.684,46.3936 C119.362,46.3936 119.101,46.1326 119.101,45.8106 L119.101,42.8966 C119.101,42.5746 119.362,42.3136 119.684,42.3136 C120.005,42.3136 120.267,42.5746 120.267,42.8966 L120.267,45.8106 C120.267,46.1326 120.005,46.3936 119.684,46.3936 M172.042,52.5566 C171.72,52.5566 171.459,52.2956 171.459,51.9736 L171.459,49.0596 C171.459,48.7376 171.72,48.4776 172.042,48.4776 C172.364,48.4776 172.625,48.7376 172.625,49.0596 L172.625,51.9736 C172.625,52.2956 172.364,52.5566 172.042,52.5566 M119.684,54.2916 C119.362,54.2916 119.101,54.0306 119.101,53.7086 L119.101,50.7946 C119.101,50.4726 119.362,50.2116 119.684,50.2116 C120.005,50.2116 120.267,50.4726 120.267,50.7946 L120.267,53.7086 C120.267,54.0306 120.005,54.2916 119.684,54.2916 M172.042,60.4546 C171.72,60.4546 171.459,60.1936 171.459,59.8716 L171.459,56.9586 C171.459,56.6356 171.72,56.3756 172.042,56.3756 C172.364,56.3756 172.625,56.6356 172.625,56.9586 L172.625,59.8716 C172.625,60.1936 172.364,60.4546 172.042,60.4546 M119.684,62.1896 C119.362,62.1896 119.101,61.9286 119.101,61.6066 L119.101,58.6926 C119.101,58.3716 119.362,58.1106 119.684,58.1106 C120.005,58.1106 120.267,58.3716 120.267,58.6926 L120.267,61.6066 C120.267,61.9286 120.005,62.1896 119.684,62.1896 M172.042,68.3536 C171.72,68.3536 171.459,68.0916 171.459,67.7706 L171.459,64.8556 C171.459,64.5346 171.72,64.2736 172.042,64.2736 C172.364,64.2736 172.625,64.5346 172.625,64.8556 L172.625,67.7706 C172.625,68.0916 172.364,68.3536 172.042,68.3536 M119.684,70.0876 C119.362,70.0876 119.101,69.8266 119.101,69.5046 L119.101,66.5906 C119.101,66.2696 119.362,66.0086 119.684,66.0086 C120.005,66.0086 120.267,66.2696 120.267,66.5906 L120.267,69.5046 C120.267,69.8266 120.005,70.0876 119.684,70.0876 M172.042,76.2506 C171.72,76.2506 171.459,75.9906 171.459,75.6676 L171.459,72.7546 C171.459,72.4326 171.72,72.1716 172.042,72.1716 C172.364,72.1716 172.625,72.4326 172.625,72.7546 L172.625,75.6676 C172.625,75.9906 172.364,76.2506 172.042,76.2506 M119.684,77.9856 C119.362,77.9856 119.101,77.7256 119.101,77.4036 L119.101,74.4896 C119.101,74.1666 119.362,73.9066 119.684,73.9066 C120.005,73.9066 120.267,74.1666 120.267,74.4896 L120.267,77.4036 C120.267,77.7256 120.005,77.9856 119.684,77.9856 M172.042,84.1496 C171.72,84.1496 171.459,83.8886 171.459,83.5666 L171.459,80.6526 C171.459,80.3306 171.72,80.0696 172.042,80.0696 C172.364,80.0696 172.625,80.3306 172.625,80.6526 L172.625,83.5666 C172.625,83.8886 172.364,84.1496 172.042,84.1496 M119.684,85.8846 C119.362,85.8846 119.101,85.6236 119.101,85.3016 L119.101,82.3876 C119.101,82.0656 119.362,81.8046 119.684,81.8046 C120.005,81.8046 120.267,82.0656 120.267,82.3876 L120.267,85.3016 C120.267,85.6236 120.005,85.8846 119.684,85.8846 M172.042,92.0476 C171.72,92.0476 171.459,91.7866 171.459,91.4646 L171.459,88.5506 C171.459,88.2286 171.72,87.9676 172.042,87.9676 C172.364,87.9676 172.625,88.2286 172.625,88.5506 L172.625,91.4646 C172.625,91.7866 172.364,92.0476 172.042,92.0476 M119.684,93.7826 C119.362,93.7826 119.101,93.5216 119.101,93.1996 L119.101,90.2856 C119.101,89.9636 119.362,89.7026 119.684,89.7026 C120.005,89.7026 120.267,89.9636 120.267,90.2856 L120.267,93.1996 C120.267,93.5216 120.005,93.7826 119.684,93.7826 M124.653,96.7106 L121.739,96.7106 C121.417,96.7106 121.157,96.4506 121.157,96.1276 C121.157,95.8066 121.417,95.5456 121.739,95.5456 L124.653,95.5456 C124.975,95.5456 125.236,95.8066 125.236,96.1276 C125.236,96.4506 124.975,96.7106 124.653,96.7106 M132.551,96.7106 L129.637,96.7106 C129.315,96.7106 129.055,96.4506 129.055,96.1276 C129.055,95.8066 129.315,95.5456 129.637,95.5456 L132.551,95.5456 C132.873,95.5456 133.134,95.8066 133.134,96.1276 C133.134,96.4506 132.873,96.7106 132.551,96.7106 M140.45,96.7106 L137.535,96.7106 C137.213,96.7106 136.953,96.4506 136.953,96.1276 C136.953,95.8066 137.213,95.5456 137.535,95.5456 L140.45,95.5456 C140.771,95.5456 141.032,95.8066 141.032,96.1276 C141.032,96.4506 140.771,96.7106 140.45,96.7106 M148.348,96.7106 L145.434,96.7106 C145.112,96.7106 144.851,96.4506 144.851,96.1276 C144.851,95.8066 145.112,95.5456 145.434,95.5456 L148.348,95.5456 C148.669,95.5456 148.93,95.8066 148.93,96.1276 C148.93,96.4506 148.669,96.7106 148.348,96.7106 M156.246,96.7106 L153.332,96.7106 C153.01,96.7106 152.749,96.4506 152.749,96.1276 C152.749,95.8066 153.01,95.5456 153.332,95.5456 L156.246,95.5456 C156.567,95.5456 156.829,95.8066 156.829,96.1276 C156.829,96.4506 156.567,96.7106 156.246,96.7106 M164.144,96.7106 L161.23,96.7106 C160.908,96.7106 160.647,96.4506 160.647,96.1276 C160.647,95.8066 160.908,95.5456 161.23,95.5456 L164.144,95.5456 C164.466,95.5456 164.727,95.8066 164.727,96.1276 C164.727,96.4506 164.466,96.7106 164.144,96.7106 M172.042,96.7106 L169.128,96.7106 C168.806,96.7106 168.545,96.4506 168.545,96.1276 C168.545,95.8066 168.806,95.5456 169.128,95.5456 L172.042,95.5456 C172.364,95.5456 172.625,95.8066 172.625,96.1276 C172.625,96.4506 172.364,96.7106 172.042,96.7106"
                id="Fill-19" fill="#004283" mask="url(#mask-4)"></path>
              <path d="M143.7451,77.8678 C143.7451,76.5388 144.6411,75.5098 146.2691,75.5098 C147.8961,75.5098 148.8261,76.5388 148.8261,77.8678 C148.8261,79.1958 147.8961,80.2588 146.2691,80.2588 C144.6411,80.2588 143.7451,79.1958 143.7451,77.8678 Z M144.6081,72.7538 C144.5421,71.9568 144.5091,71.2258 144.5091,70.4288 C144.5091,67.9378 145.7041,66.4098 147.7961,65.2478 C149.9221,63.9528 150.9511,63.2558 150.9511,61.3298 C150.9511,59.7028 149.5241,58.6398 147.0661,58.6398 C144.5421,58.6398 142.3501,60.0678 141.0561,61.7618 L138.6641,58.9058 C140.4911,56.7138 143.3131,54.9868 147.4651,54.9868 C152.1801,54.9868 154.9701,57.5108 154.9701,61.0308 C154.9701,64.1858 153.1761,65.6798 150.9181,66.9418 C147.9961,68.5358 147.9631,69.2998 147.9631,72.7538 L144.6081,72.7538 Z"
                id="Fill-20" fill="#FB3551" mask="url(#mask-4)"></path>
            </g>
          </g>
        </g>
</svg>