<?xml version="1.0" encoding="UTF-8" standalone="no"?>
<svg width="300px" height="120px" viewBox="0 0 300 120" version="1.1" xmlns="http://www.w3.org/2000/svg" xmlns:xlink="http://www.w3.org/1999/xlink">
    <!-- Generator: Sketch 40.3 (33839) - http://www.bohemiancoding.com/sketch -->
    <title>payroll_rejected</title>
    <desc>Created with Sketch.</desc>
        <defs>
          <polygon id="path-1" points="0.0002 0.6671 289.8182 0.6671 289.8182 34 0.0002 34"></polygon>
          <polygon id="path-3" points="0.7225 0.6403 56 0.6403 56 23.4943 0.7225 23.4943"></polygon>
        </defs>
        <g id="MX-PayRollAdvance-01-04-05" stroke="none" stroke-width="1" fill="none" fill-rule="evenodd" transform="translate(-30.000000, -110.000000)">
          <g id="ill_save_box_coin_cross_red" transform="translate(30.000000, 110.000000)">
            <g id="Group-3" transform="translate(0.000000, 66.000000)">
              <mask id="mask-2" fill="white">
                <use xlink:href="#path-1"></use>
              </mask>
              <g id="Clip-2"></g>
              <path d="M273.3462,34.0001 L16.4712,34.0001 C7.3742,34.0001 0.0002,26.6251 0.0002,17.5291 L0.0002,17.1381 C0.0002,8.0411 7.3742,0.6671 16.4712,0.6671 L273.3462,0.6671 C282.4432,0.6671 289.8182,8.0411 289.8182,17.1381 L289.8182,17.5291 C289.8182,26.6251 282.4432,34.0001 273.3462,34.0001"
                id="Fill-1" fill="#C9EDFC" mask="url(#mask-2)"></path>
            </g>
            <path d="M233.559,33.3331 L56.259,33.3331 C47.162,33.3331 39.788,25.9591 39.788,16.8621 L39.788,16.4711 C39.788,7.3741 47.162,0.0001 56.259,0.0001 L233.559,0.0001 C242.656,0.0001 250.03,7.3741 250.03,16.4711 L250.03,16.8621 C250.03,25.9591 242.656,33.3331 233.559,33.3331"
              id="Fill-4" fill="#C9EDFC"></path>
            <path d="M219.1342,50.0001 C219.1342,40.7951 226.4222,33.3331 235.4112,33.3331 L55.1592,33.3331 C64.1492,33.3331 71.4372,40.7951 71.4372,50.0001 C71.4372,59.2051 64.1492,66.6671 55.1592,66.6671 L235.4112,66.6671 C226.4222,66.6671 219.1342,59.2051 219.1342,50.0001"
              id="Fill-6" fill="#C9EDFC"></path>
            <g id="Group-10" transform="translate(244.000000, 34.000000)">
              <mask id="mask-4" fill="white">
                <use xlink:href="#path-3"></use>
              </mask>
              <g id="Clip-9"></g>
              <path d="M44.7075,23.4943 L12.0155,23.4943 C5.8045,23.4943 0.7225,18.4123 0.7225,12.2013 L0.7225,11.9333 C0.7225,5.7223 5.8045,0.6403 12.0155,0.6403 L44.7075,0.6403 C50.9185,0.6403 56.0005,5.7223 56.0005,11.9333 L56.0005,12.2013 C56.0005,18.4123 50.9185,23.4943 44.7075,23.4943"
                id="Fill-8" fill="#C9EDFC" mask="url(#mask-4)"></path>
            </g>
            <path d="M97.5258,78.3258 C97.5258,80.0798 98.9468,81.5008 100.7008,81.5008 L153.9658,81.5008 C155.7188,81.5008 157.1408,80.0798 157.1408,78.3258 L157.1408,20.3468 C157.1408,18.5928 155.7188,17.1718 153.9658,17.1718 L100.7008,17.1718 C98.9468,17.1718 97.5258,18.5928 97.5258,20.3468 L97.5258,78.3258 Z"
              id="Fill-11" fill="#004281"></path>
            <path d="M97.5258,25.84 L97.5258,78.326 C97.5258,80.079 98.9468,81.501 100.7008,81.501 L153.1858,81.501 L97.5258,25.84 Z"
              id="Fill-13" fill="#011B45"></path>
            <path d="M227.0424,83.8903 C227.0424,85.6193 228.4444,87.0213 230.1744,87.0213 C231.9024,87.0213 233.3054,85.6193 233.3054,83.8903 L233.3054,79.1193 C233.3054,77.3903 231.9024,75.9883 230.1744,75.9883 C228.4444,75.9883 227.0424,77.3903 227.0424,79.1193 L227.0424,83.8903 Z"
              id="Fill-15" fill="#011B45"></path>
            <path d="M207.56,83.8903 C207.56,85.6193 208.962,87.0213 210.692,87.0213 C212.42,87.0213 213.823,85.6193 213.823,83.8903 L213.823,79.1193 C213.823,77.3903 212.42,75.9883 210.692,75.9883 C208.962,75.9883 207.56,77.3903 207.56,79.1193 L207.56,83.8903 Z"
              id="Fill-17" fill="#011B45"></path>
            <path d="M181.518,83.8903 C181.518,85.6193 182.92,87.0213 184.649,87.0213 C186.378,87.0213 187.78,85.6193 187.78,83.8903 L187.78,79.1193 C187.78,77.3903 186.378,75.9883 184.649,75.9883 C182.92,75.9883 181.518,77.3903 181.518,79.1193 L181.518,83.8903 Z"
              id="Fill-19" fill="#011B45"></path>
            <path d="M161.727,83.8903 C161.727,85.6193 163.129,87.0213 164.858,87.0213 C166.587,87.0213 167.989,85.6193 167.989,83.8903 L167.989,79.1193 C167.989,77.3903 166.587,75.9883 164.858,75.9883 C163.129,75.9883 161.727,77.3903 161.727,79.1193 L161.727,83.8903 Z"
              id="Fill-21" fill="#011B45"></path>
            <path d="M178.6586,78.3258 C178.6586,80.0798 180.0806,81.5008 181.8346,81.5008 L235.0986,81.5008 C236.8526,81.5008 238.2746,80.0798 238.2746,78.3258 L238.2746,20.3468 C238.2746,18.5928 236.8526,17.1718 235.0986,17.1718 L181.8346,17.1718 C180.0806,17.1718 178.6586,18.5928 178.6586,20.3468 L178.6586,78.3258 Z"
              id="Fill-23" fill="#011B45"></path>
            <path d="M157.1411,78.3258 C157.1411,80.0798 158.5621,81.5008 160.3161,81.5008 L213.5811,81.5008 C215.3351,81.5008 216.7561,80.0798 216.7561,78.3258 L216.7561,20.3468 C216.7561,18.5928 215.3351,17.1718 213.5811,17.1718 L160.3161,17.1718 C158.5621,17.1718 157.1411,18.5928 157.1411,20.3468 L157.1411,78.3258 Z"
              id="Fill-25" fill="#004281"></path>
            <path d="M161.727,73.8663 C161.727,75.3493 162.929,76.5523 164.414,76.5523 L209.485,76.5523 C210.968,76.5523 212.17,75.3493 212.17,73.8663 L212.17,24.8053 C212.17,23.3223 210.968,22.1193 209.485,22.1193 L164.414,22.1193 C162.929,22.1193 161.727,23.3223 161.727,24.8053 L161.727,73.8663 Z"
              id="Fill-27" fill="#011B45"></path>
            <path d="M155.1772,43.6339 C155.1772,44.7049 156.0452,45.5729 157.1152,45.5729 C158.1862,45.5729 159.0542,44.7049 159.0542,43.6339 L159.0542,34.7719 C159.0542,33.7009 158.1862,32.8329 157.1152,32.8329 C156.0452,32.8329 155.1772,33.7009 155.1772,34.7719 L155.1772,43.6339 Z"
              id="Fill-29" fill="#FDECC5"></path>
            <path d="M155.1772,65.9992 C155.1772,67.0692 156.0452,67.9372 157.1152,67.9372 C158.1862,67.9372 159.0542,67.0692 159.0542,65.9992 L159.0542,57.1362 C159.0542,56.0652 158.1862,55.1982 157.1152,55.1982 C156.0452,55.1982 155.1772,56.0652 155.1772,57.1362 L155.1772,65.9992 Z"
              id="Fill-31" fill="#FDECC5"></path>
            <path d="M201.2368,49.3361 C201.2368,56.4591 195.4628,62.2331 188.3398,62.2331 C181.2158,62.2331 175.4418,56.4591 175.4418,49.3361 C175.4418,42.2131 181.2158,36.4391 188.3398,36.4391 C195.4628,36.4391 201.2368,42.2131 201.2368,49.3361"
              id="Fill-33" fill="#BD253B"></path>
            <polygon id="Fill-35" fill="#FFFFFF" points="195.0795 44.8556 192.8195 42.5956 188.3395 47.0766 183.8585 42.5956 181.5995 44.8556 186.0805 49.3356 181.5995 53.8166 183.8585 56.0766 188.3395 51.5956 192.8195 56.0766 195.0795 53.8166 190.5995 49.3356"></polygon>
            <path d="M27.2749,49.6007 C27.2749,49.0187 27.7509,48.5427 28.3319,48.5427 C28.9189,48.5427 29.3889,49.0187 29.3889,49.6007 C29.3889,50.1867 28.9189,50.6577 28.3319,50.6577 C27.7509,50.6577 27.2749,50.1867 27.2749,49.6007 M32.5609,49.6007 C32.5609,49.0187 33.0369,48.5427 33.6179,48.5427 C34.2049,48.5427 34.6759,49.0187 34.6759,49.6007 C34.6759,50.1867 34.2049,50.6577 33.6179,50.6577 C33.0369,50.6577 32.5609,50.1867 32.5609,49.6007 M37.8469,49.6007 C37.8469,49.0187 38.3229,48.5427 38.9049,48.5427 C39.4919,48.5427 39.9619,49.0187 39.9619,49.6007 C39.9619,50.1867 39.4919,50.6577 38.9049,50.6577 C38.3229,50.6577 37.8469,50.1867 37.8469,49.6007 M43.1339,49.6007 C43.1339,49.0187 43.6099,48.5427 44.1909,48.5427 C44.7779,48.5427 45.2479,49.0187 45.2479,49.6007 C45.2479,50.1867 44.7779,50.6577 44.1909,50.6577 C43.6099,50.6577 43.1339,50.1867 43.1339,49.6007 M48.4199,49.6007 C48.4199,49.0187 48.8959,48.5427 49.4779,48.5427 C50.0649,48.5427 50.5349,49.0187 50.5349,49.6007 C50.5349,50.1867 50.0649,50.6577 49.4779,50.6577 C48.8959,50.6577 48.4199,50.1867 48.4199,49.6007 M53.7069,49.6007 C53.7069,49.0187 54.1819,48.5427 54.7639,48.5427 C55.3509,48.5427 55.8209,49.0187 55.8209,49.6007 C55.8209,50.1867 55.3509,50.6577 54.7639,50.6577 C54.1819,50.6577 53.7069,50.1867 53.7069,49.6007 M58.9929,49.6007 C58.9929,49.0187 59.4689,48.5427 60.0499,48.5427 C60.6369,48.5427 61.1079,49.0187 61.1079,49.6007 C61.1079,50.1867 60.6369,50.6577 60.0499,50.6577 C59.4689,50.6577 58.9929,50.1867 58.9929,49.6007 M64.2789,49.6007 C64.2789,49.0187 64.7549,48.5427 65.3369,48.5427 C65.9229,48.5427 66.3939,49.0187 66.3939,49.6007 C66.3939,50.1867 65.9229,50.6577 65.3369,50.6577 C64.7549,50.6577 64.2789,50.1867 64.2789,49.6007 M69.5659,49.6007 C69.5659,49.0187 70.0419,48.5427 70.6229,48.5427 C71.2099,48.5427 71.6799,49.0187 71.6799,49.6007 C71.6799,50.1867 71.2099,50.6577 70.6229,50.6577 C70.0419,50.6577 69.5659,50.1867 69.5659,49.6007 M74.8519,49.6007 C74.8519,49.0187 75.3279,48.5427 75.9089,48.5427 C76.4959,48.5427 76.9659,49.0187 76.9659,49.6007 C76.9659,50.1867 76.4959,50.6577 75.9089,50.6577 C75.3279,50.6577 74.8519,50.1867 74.8519,49.6007 M80.1379,49.6007 C80.1379,49.0187 80.6139,48.5427 81.1959,48.5427 C81.7829,48.5427 82.2529,49.0187 82.2529,49.6007 C82.2529,50.1867 81.7829,50.6577 81.1959,50.6577 C80.6139,50.6577 80.1379,50.1867 80.1379,49.6007 M85.4239,49.6007 C85.4239,49.0187 85.8999,48.5427 86.4819,48.5427 C87.0689,48.5427 87.5389,49.0187 87.5389,49.6007 C87.5389,50.1867 87.0689,50.6577 86.4819,50.6577 C85.8999,50.6577 85.4239,50.1867 85.4239,49.6007 M90.7109,49.6007 C90.7109,49.0187 91.1869,48.5427 91.7679,48.5427 C92.3549,48.5427 92.8259,49.0187 92.8259,49.6007 C92.8259,50.1867 92.3549,50.6577 91.7679,50.6577 C91.1869,50.6577 90.7109,50.1867 90.7109,49.6007 M95.9979,49.6007 C95.9979,49.0187 96.4729,48.5427 97.0539,48.5427 C97.6409,48.5427 98.1119,49.0187 98.1119,49.6007 C98.1119,50.1867 97.6409,50.6577 97.0539,50.6577 C96.4729,50.6577 95.9979,50.1867 95.9979,49.6007 M101.2839,49.6007 C101.2839,49.0187 101.7589,48.5427 102.3399,48.5427 C102.9269,48.5427 103.3979,49.0187 103.3979,49.6007 C103.3979,50.1867 102.9269,50.6577 102.3399,50.6577 C101.7589,50.6577 101.2839,50.1867 101.2839,49.6007"
              id="Fill-37" fill="#0086CD"></path>
            <path d="M117.103,50.3649 C117.103,57.9369 110.968,64.0739 103.395,64.0739 C95.824,64.0739 89.684,57.9369 89.684,50.3649 C89.684,42.7929 95.824,36.6549 103.395,36.6549 C110.968,36.6549 117.103,42.7929 117.103,50.3649"
              id="Fill-39" fill="#C29732"></path>
            <path d="M117.103,48.3087 C117.103,55.8797 110.968,62.0177 103.395,62.0177 C95.824,62.0177 89.684,55.8797 89.684,48.3087 C89.684,40.7377 95.824,34.5987 103.395,34.5987 C110.968,34.5987 117.103,40.7377 117.103,48.3087"
              id="Fill-41" fill="#FCCA44"></path>
            <path d="M93.8882,58.1823 C96.3542,60.5563 99.7022,62.0173 103.3952,62.0173 C110.9682,62.0173 117.1032,55.8803 117.1032,48.3083 C117.1032,44.6173 115.6412,41.2673 113.2682,38.8023 L93.8882,58.1823 Z"
              id="Fill-43" fill="#F7B333"></path>
            <path d="M105.2182,52.0582 C105.2182,51.0452 104.8112,50.6352 102.8972,49.7682 C100.1232,48.5112 99.2992,47.5582 99.2992,45.6172 C99.2992,43.7112 100.5162,42.3372 102.4362,41.9262 L102.4362,39.3192 L102.5192,39.3192 L104.7372,40.5862 L104.7372,41.8792 C105.5062,41.9922 106.1702,42.2292 106.8022,42.5912 L106.9222,42.6622 L107.0022,42.7052 L106.9882,42.8012 L106.9642,42.9372 L106.6782,44.7342 L106.6232,45.0722 L106.5892,45.2962 L106.4072,45.1582 L106.1332,44.9532 C105.3852,44.3782 104.4552,44.0492 103.5712,44.0492 C102.3812,44.0492 101.7342,44.5822 101.7342,45.4842 C101.7342,46.3272 102.1522,46.7202 104.0372,47.5822 C106.8192,48.8482 107.6782,49.8562 107.6782,51.9232 C107.6782,53.8472 106.4642,55.2602 104.7372,55.7652 L104.7372,58.5092 L104.6012,58.5092 L102.4362,57.2632 L102.4362,55.9372 C101.2832,55.8432 100.2392,55.5432 99.3472,55.0732 L99.2072,55.0042 L99.1172,54.9592 L99.1262,54.8652 L99.1462,54.7232 L99.4132,52.8872 L99.4592,52.5682 L99.4902,52.3562 L99.6672,52.4752 L99.9362,52.6502 C100.9742,53.3372 102.1322,53.7222 103.2092,53.7222 C104.4592,53.7222 105.2182,53.0882 105.2182,52.0582"
              id="Fill-45" fill="#FFFFFF"></path>
          </g>
        </g>
</svg>