<?xml version="1.0" encoding="UTF-8"?>
<svg width="87px" height="107px" viewBox="0 0 87 107" version="1.1" xmlns="http://www.w3.org/2000/svg" xmlns:xlink="http://www.w3.org/1999/xlink">
    <!-- Generator: Sketch 61.2 (89653) - https://sketch.com -->
    <title>Money/Funds-Dollar</title>
    <desc>Created with Sketch.</desc>
    <defs>
        <linearGradient x1="33.3750173%" y1="4.24784733%" x2="70.54817%" y2="92.2290926%" id="linearGradient-1">
            <stop stop-color="#192647" stop-opacity="0.5" offset="0%"></stop>
            <stop stop-color="#192647" stop-opacity="0" offset="100%"></stop>
        </linearGradient>
        <linearGradient x1="30.8037405%" y1="30.0474293%" x2="60.2041282%" y2="55.5663977%" id="linearGradient-2">
            <stop stop-color="#FFFFFF" stop-opacity="0.6" offset="0%"></stop>
            <stop stop-color="#FFFFFF" stop-opacity="0.2" offset="100%"></stop>
        </linearGradient>
        <linearGradient x1="99.9971223%" y1="50.002948%" x2="-2.28700251e-05%" y2="50.002948%" id="linearGradient-3">
            <stop stop-color="#043263" offset="0%"></stop>
            <stop stop-color="#043263" stop-opacity="0" offset="100%"></stop>
        </linearGradient>
    </defs>
    <g id="Page-1" stroke="none" stroke-width="1" fill="none" fill-rule="evenodd">
        <g id="Payroll_Portability_MX_08_02_04" transform="translate(-121.000000, -93.000000)">
            <g id="Money/Funds-Dollar/pig-portability" transform="translate(102.000000, 84.000000)">
                <g id="Saving-Dollar">
                    <g id="Cuadrados_Blancos">
                        <rect id="Rectangle" x="0" y="0" width="116" height="116"></rect>
                    </g>
                    <g id="Capa_66" transform="translate(19.140000, 9.860000)" fill-rule="nonzero">
                        <g id="Group">
                            <path d="M86.7854,62.2166 C86.7854,62.0986667 86.7854,61.9826667 86.7854,61.8879333 C86.7854,61.5844 86.7622,61.3021333 86.739,60.9986 C86.739,60.8806667 86.739,60.7878667 86.7158,60.6950667 C86.6926,60.32 86.6462,59.9217333 86.623,59.5486 C86.623,59.5022 86.623,59.4306667 86.5998,59.3842667 C86.5766,59.0556 86.5302,58.7288667 86.4818667,58.377 C86.4586667,58.2590667 86.4586667,58.1430667 86.4354667,58.0483333 C86.3890667,57.7448 86.3426667,57.4393333 86.2943333,57.1358 L86.2479333,56.8786667 C86.1783333,56.5036 86.1068,56.1304667 86.0372,55.7554 C86.014,55.6858 86.014,55.6142667 85.9908,55.5446667 C85.9212,55.2411333 85.8496667,54.9356667 85.7800667,54.6321333 C85.7568667,54.5393333 85.7336667,54.4214 85.7104667,54.3286 C85.6408667,53.9999333 85.5461333,53.6732 85.4533333,53.3696667 C85.4301333,53.3232667 85.4301333,53.2768667 85.4069333,53.2285333 C85.3141333,52.8534667 85.1962,52.5035333 85.0782667,52.1284667 C85.0550667,52.0588667 85.0318667,51.9873333 85.0086667,51.8945333 C84.9158667,51.591 84.8211333,51.3087333 84.7051333,51.0052 L84.6123333,50.7480667 C84.3552,50.0230667 84.0748667,49.3193333 83.7694,48.6175333 L83.6766,48.4068 C83.5586667,48.1032667 83.4194667,47.821 83.2783333,47.5174667 L83.1855333,47.3299333 C82.8568667,46.6513333 82.5301333,45.9959333 82.1550667,45.3405333 C85.0338,43.5154667 86.7892667,40.3312667 86.7892667,36.9131333 L86.7892667,26.5427333 C86.7892667,26.1444667 86.4857333,25.8409333 86.0874667,25.8409333 L75.7170667,25.8409333 C72.2757333,25.8409333 69.0915333,27.5964 67.2664667,30.5002667 C66.0484667,29.8448667 64.8092,29.2358667 63.5216,28.7216 C63.7323333,27.7375333 63.8251333,26.7554 63.8502667,25.7481333 C63.8502667,17.9993333 57.5766,11.7024667 49.8278,11.6792028 C42.079,11.6560667 35.7821333,17.9529333 35.7589333,25.7017333 C35.7589333,26.5910667 35.8517333,27.4804 36.0160667,28.3697333 C34.4481333,28.9787333 32.9034,29.6805333 31.4282667,30.4770667 C29.6032,27.5751333 26.419,25.8177333 22.9776667,25.8177333 L12.6072667,25.8177333 C12.209,25.8177333 11.9054667,26.1212667 11.9054667,26.5195333 L11.9054667,36.8899333 C11.9054667,40.3080667 13.6609333,43.4922667 16.5396667,45.3173333 C8.2998,60.3238667 11.2732667,79.0037333 23.7742,90.7081333 L25.8815333,105.3164 C25.9279333,105.668267 26.2334,105.9254 26.5833333,105.9254 L41.6362667,105.9254 C42.0345333,105.9254 42.3380667,105.621867 42.3380667,105.2236 L42.3380667,100.191133 C46.9722667,101.057267 51.7495333,101.057267 56.3837333,100.191133 L56.3837333,105.2468 C56.3837333,105.645067 56.6872667,105.9486 57.0855333,105.9486 L72.1616667,105.9486 C72.5135333,105.9486 72.8170667,105.691467 72.8634667,105.3396 L74.9708,90.7313333 C82.5320667,83.6611333 86.8395333,73.7586 86.8164266,63.3882 C86.8086,62.9899333 86.8086,62.6148667 86.7854,62.2166 Z" id="Path_6_" fill="url(#linearGradient-1)"></path>
                            <path d="M0.8932,14.2274 L11.2636,14.2274 C16.7890667,14.2274 21.2589333,18.6992 21.2589333,24.2227333 L21.2589333,34.8734667 C21.2589333,35.1074 21.0714,35.2949333 20.8374667,35.2949333 L10.1886667,35.2949333 C4.6632,35.2949333 0.193324207,30.8231333 0.193324207,25.2996 L0.193324207,14.9292 C0.1914,14.5309333 0.496866667,14.2274 0.8932,14.2274 Z" id="Path" fill="#2DCCCD"></path>
                            <path d="M65.1069333,35.2949333 L54.4562,35.2949333 C54.2222667,35.2949333 54.0347333,35.1074 54.0347333,34.8734667 L54.0347333,24.2227333 C54.0347333,18.6972667 58.5065333,14.2274 64.0300667,14.2274 L74.4004667,14.2274 C74.7987333,14.2274 75.1022667,14.5309333 75.1022667,14.9292 L75.1022667,14.9292 L75.1022667,25.2996 C75.1022667,30.8250667 70.6324,35.2949333 65.1069333,35.2949333 Z" id="Path" fill="#2DCCCD"></path>
                            <path d="M75.102376,51.7766 C75.102376,31.0822 58.3402667,14.3202 37.6458667,14.3202 C16.9514667,14.3202 0.1914,31.0822 0.1914,51.7766 C0.1914,62.147 4.47566667,72.0495333 12.0601333,79.1197333 L14.1674667,93.728 C14.2138667,94.0798667 14.5193333,94.337 14.8692667,94.337 L29.9222,94.337 C30.3204667,94.337 30.624,94.0334667 30.624,93.6352 L30.624,88.5795333 C35.2582,89.4688667 40.0354667,89.4688667 44.6696667,88.5795333 L44.6696667,93.6352 C44.6696667,94.0334667 44.9732,94.337 45.3714667,94.337 L60.4476,94.337 C60.7994667,94.337 61.103,94.0798667 61.1494,93.728 L63.2567333,79.1197333 C70.8199333,72.0495333 75.1274,62.147 75.102376,51.7766 Z" id="Path" fill="#1464A5"></path>
                            <path d="M47.5039333,24.5746 C53.2865333,19.3778 53.7544,10.5057333 48.5808,4.72313333 C43.4072,-1.05946667 34.51,-1.52733333 28.7293333,3.64626667 C22.9486667,8.81986667 22.4788667,17.7151333 27.6524667,23.4977333 C27.9096,23.8012667 28.1899333,24.0835333 28.4954,24.3406667 C34.6975333,22.4672667 41.3462667,22.5368667 47.5039333,24.5746 Z" id="Path" fill="#F6CB5C"></path>
                            <path d="M44.6948,1.65686667 C37.8121333,-1.972 29.3151333,0.6728 25.6862667,7.55546667 C22.7592,13.1273333 23.8844,19.9868 28.449,24.3174667 C30.0169333,23.8264 31.61,23.4745333 33.2475333,23.2638 L44.6948,1.65686667 Z" id="Path" fill="url(#linearGradient-2)"></path>
                            <path d="M39.3800667,16.5686667 C39.3800667,15.7257333 39.0514,15.399 37.4834667,14.6952667 C35.2118,13.6648 34.5332,12.8934 34.5332,11.3003333 C34.5332,9.7556 35.7976,8.63233333 37.1084,8.30366667 L37.1084,6.38386667 L37.178,6.38386667 L39.0282,7.2036 L39.0282,8.25726667 C39.614,8.35006667 40.1746667,8.5376 40.6908667,8.81986667 L40.7836667,8.86626667 L40.8532667,8.88946667 L40.8300667,8.95906667 L40.8068667,9.05186667 L40.5729333,10.5038 L40.5265333,10.7841333 L40.4801333,10.9716667 L40.3158,10.8788667 L40.0818667,10.7145333 C39.4960667,10.2466667 38.7478667,9.98953333 37.9977333,9.98953333 C37.0136667,9.98953333 36.4994,10.4342 36.4994,11.1592 C36.4994,11.861 36.8512667,12.1664667 38.3728,12.8682667 C40.6676667,13.8987333 41.3694667,14.7184667 41.3694667,16.4024 C41.3694667,17.9703333 40.2694,19.1187333 38.9818,19.5402 L38.9818,21.7403333 L38.8174667,21.7403333 L37.0388,20.7562667 L37.0388,19.6794 C36.3834,19.5866 35.2369333,19.3507333 34.51,18.9776 L34.4172,18.9312 L34.3476,18.8848 L34.3476,18.8152 L34.3708,18.6972667 L34.5815333,17.1989333 L34.6279333,16.9418 L34.6511333,16.7774667 L34.7922667,16.8702667 L35.003,17.0114 C35.7995333,17.5488667 36.7352667,17.8543333 37.6942,17.8775333 C38.7014667,17.9026667 39.3800667,17.3864667 39.3800667,16.5686667" id="Path" fill="#FEF5DC"></path>
                            <path d="M55.8366,19.0491333 L16.9766,94.3350667 L29.9222,94.3350667 C30.3204667,94.3350667 30.624,94.0315333 30.624,93.6332667 L30.624,93.6332667 L30.624,88.5776 C35.2582,89.4669333 40.0354667,89.4669333 44.6696667,88.5776 L44.6696667,93.6332667 C44.6696667,94.0315333 44.9732,94.3350667 45.3714667,94.3350667 L60.4476,94.3350667 C60.7994667,94.3350667 61.103,94.0779333 61.1494,93.7260667 L63.2567333,79.1178 C78.3560667,64.9774 79.1526,41.2882667 65.0122,26.1889333 C62.3442,23.3334 59.2547333,20.9225333 55.8366,19.0491333 L55.8366,19.0491333 Z" id="Path" fill="url(#linearGradient-3)"></path>
                            <path d="M52.3720667,29.0464 C52.1845333,29.0464 51.9738,29 51.8094667,28.9052667 C43.007,23.9192 32.2383333,23.9192 23.4358667,28.9052667 C22.8984,29.2088 22.2178667,29.0232 21.9143333,28.507 C21.6108,27.9927333 21.7964,27.289 22.3126,26.9854667 C31.7936667,21.6011333 43.4284667,21.6011333 52.9095333,26.9854667 C53.447,27.289 53.6345333,27.9695333 53.3078,28.507 C53.1222,28.8356667 52.7703333,29.0464 52.3720667,29.0464 Z" id="Path" fill="#043263"></path>
                            <path d="M30.1561333,50.5354 L45.1375333,50.5354 C48.111,50.5354 50.5218667,52.9462667 50.5218667,55.9197333 L50.5218667,55.9197333 C50.5218667,58.8932 48.111,61.3040667 45.1375333,61.3040667 L30.1561333,61.3040667 C27.1826667,61.3040667 24.7718,58.8932 24.7718,55.9197333 L24.7718,55.9197333 C24.7718,52.9462667 27.1826667,50.5354 30.1561333,50.5354 Z" id="Path" fill="#49A5E6"></path>
                            <circle id="Oval_5_" fill="#1464A5" cx="42.3303333" cy="55.9197333" r="1.40553333"></circle>
                            <circle id="Oval" fill="#1464A5" cx="32.9652667" cy="55.9197333" r="1.40553333"></circle>
                        </g>
                    </g>
                </g>
            </g>
        </g>
    </g>
</svg>