<?xml version="1.0" encoding="utf-8"?>
<!-- Generator: Adobe Illustrator 24.0.0, SVG Export Plug-In . SVG Version: 6.00 Build 0)  -->
<svg version="1.1" id="Layer_1" xmlns="http://www.w3.org/2000/svg" xmlns:xlink="http://www.w3.org/1999/xlink" x="0px" y="0px"
	 viewBox="0 0 83 91" style="enable-background:new 0 0 83 91;" xml:space="preserve">
<style type="text/css">
	.st0{fill:url(#Rectangle_3_);}
	.st1{fill:#D4EDFC;}
	.st2{fill:#1464A5;}
	.st3{fill:url(#Path_5_);}
	.st4{fill:#2DCCCD;}
</style>
<title>🖼 Illustration</title>
<desc>Created with Sketch.</desc>
<g id="Page-1">
	<g id="Planning_x2F_Calendar-Detail" transform="translate(-21.000000, -18.000000)">
		<g id="Calendar-Detail" transform="translate(21.653333, 17.980000)">
			
				<linearGradient id="Rectangle_3_" gradientUnits="userSpaceOnUse" x1="-349.5715" y1="348.5653" x2="-348.9696" y2="347.4153" gradientTransform="matrix(72.5 0 0 -73.66 25368.1309 25686.5176)">
				<stop  offset="0" style="stop-color:#192647"/>
				<stop  offset="0" style="stop-color:#192647;stop-opacity:0.5"/>
				<stop  offset="1" style="stop-color:#192647;stop-opacity:0"/>
			</linearGradient>
			<path id="Rectangle" class="st0" d="M14.2,16.7h63.6c2.5,0,4.4,2,4.4,4.4v64.8c0,2.5-2,4.4-4.4,4.4H14.2c-2.5,0-4.4-2-4.4-4.4
				V21.2C9.8,18.7,11.8,16.7,14.2,16.7z"/>
			<path id="Path" class="st1" d="M72.6,21.5V76c0,2.5-2,4.4-4.4,4.4H4.5c-2.5,0-4.4-2-4.4-4.4V21.5"/>
			<path id="Path_1_" class="st2" d="M68.2,7.2H4.5c-1.2,0-2.3,0.5-3.1,1.3s-1.3,1.9-1.3,3.1v9.9h72.5v-9.9c0-1.2-0.5-2.3-1.3-3.1
				C70.5,7.6,69.3,7.1,68.2,7.2z"/>
			
				<linearGradient id="Path_5_" gradientUnits="userSpaceOnUse" x1="-347.5582" y1="347.9716" x2="-348.5582" y2="347.9716" gradientTransform="matrix(58.0793 0 0 -73.2733 20258.5234 25540.832)">
				<stop  offset="0" style="stop-color:#192647"/>
				<stop  offset="0" style="stop-color:#043263;stop-opacity:0.2"/>
				<stop  offset="1" style="stop-color:#043263;stop-opacity:0"/>
			</linearGradient>
			<path id="Path_2_" class="st3" d="M68.2,7.2H53.6L14.5,80.4h53.6c2.4,0,4.4-2,4.4-4.4V11.6C72.6,9.1,70.6,7.2,68.2,7.2z"/>
			<path id="Rectangle_1_" class="st4" d="M16.8,0L16.8,0c1.3,0,2.4,1.1,2.4,2.4v9.5c0,1.3-1.1,2.4-2.4,2.4h0
				c-1.3,0-2.4-1.1-2.4-2.4V2.4C14.4,1.1,15.5,0,16.8,0z"/>
			<path id="Rectangle_2_" class="st4" d="M56.1,0L56.1,0c1.3,0,2.4,1.1,2.4,2.4v9.5c0,1.3-1.1,2.4-2.4,2.4h0
				c-1.3,0-2.4-1.1-2.4-2.4V2.4C53.7,1.1,54.7,0,56.1,0z"/>
			<path id="Path_3_" class="st2" d="M38,64.6H16.6V64c0-1,0.1-2.1,0.3-3.1c0.2-1.1,0.6-2.2,1.2-3.1c0.7-1.2,1.6-2.3,2.6-3.2
				c1.4-1.3,2.9-2.5,4.5-3.5c1.1-0.7,2-1.3,2.8-1.8c0.7-0.4,1.3-1,1.9-1.5c0.5-0.4,0.8-1,1.1-1.5c0.2-0.6,0.4-1.2,0.3-1.9
				c0-1.1-0.3-1.9-1-2.5c-0.7-0.6-1.6-0.9-2.8-0.9c-1.1,0-2.3,0.4-3.4,1.1c-1.2,0.8-2.2,1.8-3,3.1L17,41.5c1.1-1.8,2.6-3.2,4.4-4.3
				c1.7-1.1,3.9-1.6,6.3-1.6c1.4,0,2.8,0.2,4.1,0.6c1.1,0.3,2.1,0.9,3,1.7c0.8,0.7,1.5,1.6,1.9,2.6c0.4,1.1,0.7,2.2,0.6,3.4
				c0,0.8-0.1,1.6-0.2,2.3c-0.2,0.8-0.5,1.6-0.9,2.3c-0.5,0.9-1.2,1.7-1.9,2.3c-1,0.9-2.1,1.8-3.3,2.5c-1,0.7-2,1.3-2.8,1.9
				c-0.8,0.5-1.5,1.1-2.2,1.7c-0.5,0.5-1,1-1.4,1.5c-0.3,0.4-0.5,0.9-0.6,1.4h13L38,64.6z"/>
			<polygon id="Path_4_" class="st2" points="55.5,64.6 49.5,64.6 49.5,41.8 44,43.1 43.3,37.9 49.6,36.1 55.5,36.1 			"/>
		</g>
	</g>
</g>
</svg>
