<?xml version="1.0" encoding="utf-8"?>
<!-- Generator: Adobe Illustrator 24.0.0, SVG Export Plug-In . SVG Version: 6.00 Build 0)  -->
<svg version="1.1" id="Layer_1" xmlns="http://www.w3.org/2000/svg" xmlns:xlink="http://www.w3.org/1999/xlink" x="0px" y="0px"
	 viewBox="0 0 42 55" style="enable-background:new 0 0 42 55;" xml:space="preserve">
<style type="text/css">
	.st0{fill:url(#Path_11_);}
	.st1{fill:#D4EDFC;}
	.st2{fill:url(#Path_12_);}
	.st3{opacity:0.35;}
	.st4{fill:#49A5E6;}
	.st5{fill:#1464A5;}
</style>
<title>Money/Funds-Dollar</title>
<desc>Created with Sketch.</desc>
<g id="Page-1">
	<g id="Products-and-Services_x2F_Payroll" transform="translate(-18.000000, -12.000000)">
		<g id="Payroll" transform="translate(18.360000, 12.840000)">
			
				<linearGradient id="Path_11_" gradientUnits="userSpaceOnUse" x1="-363.5175" y1="327.1914" x2="-363.0774" y2="326.102" gradientTransform="matrix(35.28 0 0 -46.44 12839.4199 15201.1504)">
				<stop  offset="0" style="stop-color:#192647"/>
				<stop  offset="0" style="stop-color:#192647;stop-opacity:0.5"/>
				<stop  offset="1" style="stop-color:#192647;stop-opacity:0"/>
			</linearGradient>
			<path id="Path" class="st0" d="M29.5,7.2H6.4C6.2,7.2,6,7.4,6,7.6v45.6c0,0.2,0.2,0.4,0.4,0.4h1.2l32.7,0.1h0.6
				c0.2,0,0.4-0.2,0.4-0.4V19L29.5,7.2z"/>
			<path id="Path_1_" class="st1" d="M35.3,11.8L23.5,0H0.4C0.2,0,0,0.2,0,0.4V46c0,0.2,0.2,0.4,0.4,0.4h34.6c0.2,0,0.4-0.2,0.4-0.4
				V11.8z"/>
			
				<linearGradient id="Path_12_" gradientUnits="userSpaceOnUse" x1="-362.2528" y1="326.3818" x2="-363.2528" y2="326.3818" gradientTransform="matrix(33.672 0 0 -44.28 12233.0566 14476.4844)">
				<stop  offset="0" style="stop-color:#043263;stop-opacity:0.1"/>
				<stop  offset="1" style="stop-color:#043263;stop-opacity:0"/>
			</linearGradient>
			<path id="Path_2_" class="st2" d="M25.6,2.2l-24,44.2l32.7,0.1h0.6c0.2,0,0.4-0.2,0.4-0.4V11.9L25.6,2.2z"/>
			<g id="Group" transform="translate(4.080000, 4.920000)" class="st3">
				<path id="Path_3_" class="st4" d="M12.5,1.2H0.6C0.3,1.2,0,0.9,0,0.6S0.3,0,0.6,0h11.9c0.3,0,0.6,0.3,0.6,0.6S12.8,1.2,12.5,1.2
					z"/>
			</g>
			<g id="Group_1_" transform="translate(4.080000, 8.280000)" class="st3">
				<path id="Path_4_" class="st4" d="M12.5,1.2H0.6C0.3,1.2,0,0.9,0,0.6S0.3,0,0.6,0h11.9c0.3,0,0.6,0.3,0.6,0.6S12.8,1.2,12.5,1.2
					z"/>
			</g>
			<g id="Group_2_" transform="translate(20.640000, 39.480000)" class="st3">
				<path id="Path_5_" class="st4" d="M8.8,1.2H0.6C0.3,1.2,0,0.9,0,0.6S0.3,0,0.6,0h8.2c0.3,0,0.6,0.3,0.6,0.6S9.1,1.2,8.8,1.2z"/>
			</g>
			<path id="Path_6_" class="st5" d="M24,11.8h11.3L23.5,0v11.3C23.5,11.6,23.7,11.8,24,11.8z"/>
			<g id="Group_3_" transform="translate(4.080000, 17.280000)" class="st3">
				<g id="Path_7_" transform="translate(3.480000, 3.480000)">
					<path class="st4" d="M10.1,1.2H0.6C0.3,1.2,0,0.9,0,0.6S0.3,0,0.6,0h9.5c0.3,0,0.6,0.3,0.6,0.6S10.4,1.2,10.1,1.2z"/>
				</g>
				<g id="Path_8_" transform="translate(3.480000, 6.840000)">
					<path class="st4" d="M10.1,1.2H0.6C0.3,1.2,0,0.9,0,0.6S0.3,0,0.6,0h9.5c0.3,0,0.6,0.3,0.6,0.6S10.4,1.2,10.1,1.2z"/>
				</g>
				<g id="Path_9_" transform="translate(3.480000, 10.200000)">
					<path class="st4" d="M10.1,1.2H0.6C0.3,1.2,0,0.9,0,0.6S0.3,0,0.6,0h9.5c0.3,0,0.6,0.3,0.6,0.6S10.4,1.2,10.1,1.2z"/>
				</g>
				<g id="Path_10_" transform="translate(3.480000, 13.560000)">
					<path class="st4" d="M10.1,1.2H0.6C0.3,1.2,0,0.9,0,0.6S0.3,0,0.6,0h9.5c0.3,0,0.6,0.3,0.6,0.6S10.4,1.2,10.1,1.2z"/>
				</g>
				<path id="Shape" class="st4" d="M25.3,0H0.6C0.3,0,0,0.3,0,0.6v16.8C0,17.7,0.3,18,0.6,18h24.7c0.3,0,0.6-0.3,0.6-0.6V0.6
					C25.9,0.3,25.7,0,25.3,0z M1.2,1.2h15.2v15.6H1.2V1.2z M24.7,16.8h-7.1V1.2h7.1V16.8z"/>
			</g>
		</g>
	</g>
</g>
</svg>
