<?xml version="1.0" encoding="UTF-8"?>
<svg width="56px" height="39px" viewBox="0 0 56 39" version="1.1" xmlns="http://www.w3.org/2000/svg" xmlns:xlink="http://www.w3.org/1999/xlink">
    <title>Products and Services/Card-Health</title>
    <defs>
        <linearGradient x1="24.6836163%" y1="20.208563%" x2="67.8702776%" y2="74.5415938%" id="linearGradient-1">
            <stop stop-color="#192647" offset="0%"></stop>
            <stop stop-color="#192647" stop-opacity="0.5" offset="0%"></stop>
            <stop stop-color="#192647" stop-opacity="0" offset="100%"></stop>
        </linearGradient>
        <linearGradient x1="100.00109%" y1="50.0123951%" x2="0.0201634877%" y2="50.0123951%" id="linearGradient-2">
            <stop stop-color="#028484" stop-opacity="0.8" offset="0%"></stop>
            <stop stop-color="#028484" stop-opacity="0.1" offset="100%"></stop>
        </linearGradient>
        <linearGradient x1="99.8766362%" y1="50.0024256%" x2="-0.194063927%" y2="50.0024256%" id="linearGradient-3">
            <stop stop-color="#043263" stop-opacity="0.8" offset="0%"></stop>
            <stop stop-color="#043263" stop-opacity="0" offset="100%"></stop>
        </linearGradient>
    </defs>
    <g id="Fixed-Payment-Plan-01" stroke="none" stroke-width="1" fill="none" fill-rule="evenodd">
        <g id="FPP-MX-01-01-00-01" transform="translate(-135.000000, -479.000000)">
            <g id="Products-and-Services/Card-Health" transform="translate(120.000000, 456.000000)">
                <g id="Card-Health" transform="translate(15.200000, 23.466667)">
                    <path d="M53.0933333,17.2533333 C53.0133333,17.16 52.9333333,17.0666667 52.84,16.9733333 C52.76,16.88 52.68,16.8 52.5866667,16.72 C52.5466667,16.68 52.5066667,16.64 52.4666667,16.6133333 C52.4266667,16.5733333 52.3733333,16.5333333 52.3333333,16.4933333 C52.2933333,16.4533333 52.2266667,16.4 52.1733333,16.3733333 C52.1466667,16.3466667 52.0933333,16.3066667 52.0666667,16.28 C52,16.24 51.9466667,16.1866667 51.8933333,16.1466667 C51.8666667,16.12 51.8266667,16.1066667 51.8,16.0666667 C51.7333333,16.0266667 51.6666667,15.9733333 51.6,15.9333333 C51.5733333,15.92 51.56,15.9066667 51.52,15.8933333 C51.44,15.8533333 51.36,15.8 51.2933333,15.76 C51.28,15.7466667 51.2666667,15.7466667 51.2266667,15.7333333 C51.1466667,15.6933333 51.0533333,15.64 50.9733333,15.6 C50.96,15.6 50.96,15.5866667 50.9466667,15.5866667 C50.56,15.3866667 50.16,15.2133333 49.7466667,15.0933333 L49.7466667,12.92 L49.7466667,8.6 L49.7466667,7.6 L49.7466667,7.6 C49.7466667,7.56 49.7466667,7.50666667 49.7466667,7.46666667 C49.7466667,7.42666667 49.7466667,7.37333333 49.7466667,7.33333333 C49.7466667,7.29333333 49.7333333,7.24 49.7333333,7.2 C49.7333333,7.16 49.72,7.10666667 49.72,7.06666667 C49.7066667,7.02666667 49.6933333,6.97333333 49.6933333,6.93333333 C49.68,6.89333333 49.68,6.84 49.6666667,6.81333333 C49.6533333,6.77333333 49.64,6.72 49.6266667,6.68 C49.6133333,6.64 49.6,6.6 49.5866667,6.56 C49.5733333,6.52 49.5466667,6.46666667 49.52,6.42666667 C49.5066667,6.4 49.4933333,6.34666667 49.4533333,6.32 C49.4266667,6.28 49.4133333,6.24 49.3733333,6.2 C49.36,6.17333333 49.3333333,6.12 49.3066667,6.09333333 C49.28,6.05333333 49.24,6.01333333 49.2133333,5.97333333 C49.1866667,5.94666667 49.1733333,5.90666667 49.1333333,5.86666667 C49.1066667,5.84 49.0666667,5.78666667 49.04,5.76 C49.0133333,5.73333333 48.9733333,5.69333333 48.9466667,5.66666667 C48.92,5.64 48.8666667,5.6 48.84,5.57333333 C48.8133333,5.54666667 48.7733333,5.50666667 48.7466667,5.48 C48.72,5.45333333 48.6666667,5.41333333 48.64,5.4 C48.6133333,5.37333333 48.5733333,5.36 48.5333333,5.32 C48.4933333,5.29333333 48.4533333,5.28 48.4133333,5.24 C48.3866667,5.22666667 48.3333333,5.2 48.3066667,5.17333333 C48.2666667,5.16 48.2133333,5.13333333 48.1866667,5.10666667 C48.1466667,5.09333333 48.1066667,5.06666667 48.0666667,5.04 C48.0266667,5.02666667 47.9733333,5.01333333 47.9333333,5 C47.8933333,4.98666667 47.8533333,4.97333333 47.8133333,4.96 C47.7733333,4.94666667 47.72,4.93333333 47.68,4.93333333 C47.64,4.92 47.6,4.90666667 47.56,4.90666667 C47.52,4.89333333 47.4666667,4.89333333 47.4,4.89333333 C47.36,4.89333333 47.3066667,4.88 47.28,4.88 C47.24,4.88 47.1733333,4.88 47.12,4.86666667 C47.08,4.86666667 47.0266667,4.86666667 46.9866667,4.86666667 L46.9866667,4.86666667 L46.9866667,4.86666667 L46.9866667,4.86666667 L34.6533333,4.86666667 L8.30666667,4.86666667 C6.74666667,4.86666667 5.48,6.13333333 5.48,7.69333333 L5.48,8.65333333 L5.48,12.9733333 L5.48,28.6133333 C5.48,30.1733333 6.74666667,31.44 8.30666667,31.44 L20.4266667,31.44 L33.9066667,31.44 C34.96,32.4266667 36.1466667,33.44 37.4266667,34.5466667 L37.4266667,34.5466667 L38.0133333,35.04 C38.9066667,35.8 39.9066667,36.6666667 40.9733333,37.5866667 C41.4,37.96 41.9866667,38.0666667 42.5066667,37.8666667 C42.68,37.8 42.84,37.7066667 42.9866667,37.5866667 C44.04,36.6666667 45.0533333,35.8 45.9466667,35.04 C48.56,32.8133333 50.8266667,30.8933333 52.3866667,28.9866667 C54.1466667,26.8666667 54.96,24.8533333 54.96,22.6533333 C54.9066667,20.52 54.2666667,18.6666667 53.0933333,17.2533333 Z" id="Path" fill="url(#linearGradient-1)" fill-rule="nonzero"></path>
                    <g id="Contenido" fill-rule="nonzero">
                        <path d="M2.89333333,0.12 L41.5333333,0.12 C43.0933333,0.12 44.36,1.38666667 44.36,2.94666667 L44.36,23.84 C44.36,25.4 43.0933333,26.6666667 41.5333333,26.6666667 L2.89333333,26.6666667 C1.33333333,26.6666667 0.0666666667,25.4 0.0666666667,23.84 L0.0666666667,2.94666667 C0.0666666667,1.38666667 1.33333333,0.12 2.89333333,0.12 Z" id="Path" fill="#2DCCCD"></path>
                        <path d="M41.5333333,26.6666667 C43.0933333,26.6666667 44.36,25.4133333 44.36,23.8533333 L44.36,23.8533333 L44.36,2.92 C44.36,1.36 43.0933333,0.0933333333 41.5333333,0.10656236 L41.5333333,0.10656236 L29.2,0.10656236 L15,26.6666667 L41.5333333,26.6666667 L41.5333333,26.6666667 Z" id="Path" fill="url(#linearGradient-2)"></path>
                        <rect id="Rectangle" fill="#028484" opacity="0.8" x="0.0666666667" y="3.89333333" width="44.2933333" height="4.32"></rect>
                        <path d="M6.94666667,13.7733333 L37.48,13.7733333 C37.68,13.7733333 37.8533333,13.9466667 37.8533333,14.1466667 L37.8533333,17.2933333 C37.8533333,17.4933333 37.68,17.6666667 37.48,17.6666667 L6.94666667,17.6666667 C6.74666667,17.6666667 6.57333333,17.4933333 6.57333333,17.2933333 L6.57333333,14.1466667 C6.57333333,13.9466667 6.74666667,13.7733333 6.94666667,13.7733333 Z" id="Path" fill="#FFFFFF"></path>
                        <path d="M47.4533333,12.3466667 C46.12,10.8933333 44.2266667,10.0666667 42.2666667,10.08 C40.7866667,10.08 39.3466667,10.5733333 38.1866667,11.48 C37.56,11.9733333 37,12.5466667 36.5333333,13.2133333 C36.0666667,12.56 35.52,11.9733333 34.88,11.48 C33.72,10.56 32.2933333,10.0666667 30.8,10.08 C28.8266667,10.0666667 26.9466667,10.88 25.6133333,12.3466667 C24.28,13.7866667 23.56,15.76 23.56,17.8933333 C23.56,20.08 24.3733333,22.1066667 26.1333333,24.2266667 C27.7066667,26.12 29.96,28.0533333 32.5733333,30.28 C33.4666667,31.04 34.4666667,31.9066667 35.5333333,32.8266667 C36.1066667,33.3333333 36.9733333,33.3333333 37.5333333,32.8266667 C38.5866667,31.9066667 39.6,31.04 40.4933333,30.28 C43.1066667,28.0533333 45.3733333,26.1333333 46.9333333,24.2266667 C48.6933333,22.1066667 49.5066667,20.0933333 49.5066667,17.8933333 C49.4933333,15.7466667 48.7733333,13.7866667 47.4533333,12.3466667 Z" id="Path" fill="#1464A5"></path>
                        <path d="M47.4533333,12.3466667 C46.2133333,11 44.5066667,10.2 42.68,10.0933333 L32,29.76 L32.5866667,30.2533333 C33.48,31.0133333 34.48,31.88 35.5466667,32.8 C36.12,33.3066667 36.9866667,33.3066667 37.5466667,32.8 C38.6,31.88 39.6133333,31.0133333 40.5066667,30.2533333 C43.12,28.0266667 45.3866667,26.1066667 46.9466667,24.2 C48.7066667,22.08 49.52,20.0666667 49.52,17.8666667 C49.4933333,15.7466667 48.7733333,13.7866667 47.4533333,12.3466667 Z" id="Path" fill="url(#linearGradient-3)"></path>
                    </g>
                </g>
            </g>
        </g>
    </g>
</svg>