<?xml version="1.0" encoding="UTF-8"?>
<svg width="88px" height="88px" viewBox="0 0 88 88" version="1.1" xmlns="http://www.w3.org/2000/svg" xmlns:xlink="http://www.w3.org/1999/xlink">
    <title>Actions/Success</title>
    <defs>
        <rect id="path-1" x="0" y="0" width="88" height="88"></rect>
        <linearGradient x1="25.333538%" y1="-11.8619034%" x2="74.666462%" y2="111.861903%" id="linearGradient-3">
            <stop stop-color="#192647" offset="0%"></stop>
            <stop stop-color="#192647" stop-opacity="0.5" offset="0%"></stop>
            <stop stop-color="#192647" stop-opacity="0" offset="100%"></stop>
        </linearGradient>
        <linearGradient x1="100%" y1="50%" x2="0%" y2="50%" id="linearGradient-4">
            <stop stop-color="#192647" offset="0%"></stop>
            <stop stop-color="#043263" stop-opacity="0.2" offset="0%"></stop>
            <stop stop-color="#043263" stop-opacity="0" offset="100%"></stop>
        </linearGradient>
    </defs>
    <g id="Fixed-Payment-Plan-01" stroke="none" stroke-width="1" fill="none" fill-rule="evenodd">
        <g id="FPP-MX-01-01-02-03" transform="translate(-116.000000, -92.000000)">
            <g id="Actions/Success" transform="translate(116.000000, 92.000000)">
                <mask id="mask-2" fill="white">
                    <use xlink:href="#path-1"></use>
                </mask>
                <g id="Rectangle"></g>
                <g id="Group-4" mask="url(#mask-2)">
                    <g transform="translate(13.991758, 6.285714)">
                        <g id="Planning/Calendar" transform="translate(0.000000, 2.750000)">
                            <g id="Calendar" fill-rule="nonzero">
                                <path d="M59.5217098,0.186385727 C67.1003926,0.186385727 73.2388895,6.33735661 73.2388895,13.9182362 C73.2388895,19.0846792 70.389533,23.5852873 66.1782366,25.931053 L66.1776698,67.5275847 C66.1776698,69.2410211 64.8333674,70.6237944 63.1676014,70.6237944 L9.58546068,70.6237944 C7.91969465,70.6237944 6.57539223,69.2410211 6.57539223,67.5275847 L6.57539223,22.3920621 C6.57539223,20.6786256 7.91969465,19.2958524 9.58546068,19.2958524 L46.8892604,19.2963021 C46.187105,17.6445247 45.7986277,15.8268136 45.7986277,13.9182362 C45.7986277,6.3314479 51.9430271,0.186385727 59.5217098,0.186385727 Z" id="Combined-Shape" fill="url(#linearGradient-3)"></path>
                                <path d="M59.6461136,22.6926649 L59.6461136,60.7489897 C59.6461136,62.4624262 58.3018111,63.8451994 56.6360451,63.8451994 L3.03929241,63.8451994 C1.37352638,63.8451994 0.0292239655,62.4624262 0.0292239655,60.7489897 L0.0292239655,22.6926649" id="Path" fill="#D4EDFC"></path>
                                <path d="M56.6214331,12.6074383 L3.03929241,12.6074383 C1.37352638,12.6074383 0.0292239655,13.9902115 0.0292239655,15.703648 L0.0292239655,22.6926649 L59.6461136,22.6926649 L59.6461136,15.703648 C59.6315016,13.9902115 58.2871992,12.6074383 56.6214331,12.6074383 Z" id="Path" fill="#1464A5"></path>
                                <path d="M31.4449869,30.0874958 C31.4449869,31.0644552 30.6705518,31.8610528 29.7207729,31.8610528 C28.770994,31.8610528 27.9965589,31.0644552 27.9965589,30.0874958 C27.9965589,29.1105365 28.770994,28.3139388 29.7207729,28.3139388 C30.6705518,28.3139388 31.4449869,29.1105365 31.4449869,30.0874958 L31.4449869,30.0874958 Z" id="Path" fill="#FFFFFF"></path>
                                <path d="M38.8532621,30.0874958 C38.8532621,31.0644552 38.078827,31.8610528 37.1290481,31.8610528 C36.1792693,31.8610528 35.4048342,31.0644552 35.4048342,30.0874958 C35.4048342,29.1105365 36.1792693,28.3139388 37.1290481,28.3139388 L37.1290481,28.3139388 C38.078827,28.3139388 38.8532621,29.1105365 38.8532621,30.0874958 L38.8532621,30.0874958 Z" id="Path" fill="#FFFFFF"></path>
                                <path d="M46.2615374,30.0874958 C46.2615374,31.0644552 45.4871023,31.8610528 44.5373234,31.8610528 C43.5875445,31.8610528 42.8131094,31.0644552 42.8131094,30.0874958 C42.8131094,29.1105365 43.5875445,28.3139388 44.5373234,28.3139388 C45.4871023,28.3139388 46.2615374,29.1105365 46.2615374,30.0874958 L46.2615374,30.0874958 Z" id="Path" fill="#49A5E6"></path>
                                <path d="M53.6552006,30.0874958 C53.6552006,31.0644552 52.8807655,31.8610528 51.9309867,31.8610528 C50.9812078,31.8610528 50.2067727,31.0644552 50.2067727,30.0874958 C50.2067727,29.1105365 50.9812078,28.3139388 51.9309867,28.3139388 C52.8807655,28.3139388 53.6552006,29.1105365 53.6552006,30.0874958 L53.6552006,30.0874958 Z" id="Path" fill="#49A5E6"></path>
                                <path d="M9.23477309,38.9402507 C9.23477309,39.91721 8.46033801,40.7138077 7.51055913,40.7138077 C6.56078025,40.7138077 5.78634517,39.91721 5.78634517,38.9402507 C5.78634517,37.9632913 6.56078025,37.1666937 7.51055913,37.1666937 C8.47494999,37.1666937 9.23477309,37.9632913 9.23477309,38.9402507 L9.23477309,38.9402507 Z" id="Path" fill="#FFFFFF"></path>
                                <path d="M16.6430483,38.9402507 C16.6430483,39.91721 15.8686133,40.7138077 14.9188344,40.7138077 C13.9690555,40.7138077 13.1946204,39.91721 13.1946204,38.9402507 C13.1946204,37.9632913 13.9690555,37.1666937 14.9188344,37.1666937 L14.9188344,37.1666937 C15.8686133,37.1666937 16.6430483,37.9632913 16.6430483,38.9402507 L16.6430483,38.9402507 Z" id="Path" fill="#FFFFFF"></path>
                                <path d="M24.0513236,38.9402507 C24.0513236,39.91721 23.2768885,40.7138077 22.3271096,40.7138077 C21.3773308,40.7138077 20.6028957,39.91721 20.6028957,38.9402507 C20.6028957,37.9632913 21.3773308,37.1666937 22.3271096,37.1666937 C23.2768885,37.1666937 24.0513236,37.9632913 24.0513236,38.9402507 L24.0513236,38.9402507 Z" id="Path" fill="#FFFFFF"></path>
                                <path d="M31.4449869,38.9402507 C31.4449869,39.91721 30.6705518,40.7138077 29.7207729,40.7138077 C28.770994,40.7138077 27.9965589,39.91721 27.9965589,38.9402507 C27.9965589,37.9632913 28.770994,37.1666937 29.7207729,37.1666937 C30.6851638,37.1666937 31.4449869,37.9632913 31.4449869,38.9402507 L31.4449869,38.9402507 Z" id="Path" fill="#FFFFFF"></path>
                                <path d="M38.8532621,38.9402507 C38.8532621,39.91721 38.078827,40.7138077 37.1290481,40.7138077 C36.1792693,40.7138077 35.4048342,39.91721 35.4048342,38.9402507 C35.4048342,37.9632913 36.1792693,37.1666937 37.1290481,37.1666937 L37.1290481,37.1666937 C38.078827,37.1666937 38.8532621,37.9632913 38.8532621,38.9402507 L38.8532621,38.9402507 Z" id="Path" fill="#FFFFFF"></path>
                                <path d="M46.2615374,38.9402507 C46.2615374,39.91721 45.4871023,40.7138077 44.5373234,40.7138077 C43.5875445,40.7138077 42.8131094,39.91721 42.8131094,38.9402507 C42.8131094,37.9632913 43.5875445,37.1666937 44.5373234,37.1666937 C45.4871023,37.1666937 46.2615374,37.9632913 46.2615374,38.9402507 L46.2615374,38.9402507 Z" id="Path" fill="#49A5E6"></path>
                                <path d="M53.6552006,38.9402507 C53.6552006,39.91721 52.8807655,40.7138077 51.9309867,40.7138077 C50.9812078,40.7138077 50.2067727,39.91721 50.2067727,38.9402507 C50.2067727,37.9632913 50.9812078,37.1666937 51.9309867,37.1666937 C52.8953775,37.1666937 53.6552006,37.9632913 53.6552006,38.9402507 C53.6698126,38.9402507 53.6698126,38.9402507 53.6552006,38.9402507 Z" id="Path" fill="#49A5E6"></path>
                                <path d="M9.23477309,47.8080357 C9.23477309,48.784995 8.46033801,49.5815927 7.51055913,49.5815927 C6.56078025,49.5815927 5.78634517,48.784995 5.78634517,47.8080357 C5.78634517,46.8310763 6.56078025,46.0344787 7.51055913,46.0344787 C8.47494999,46.0344787 9.23477309,46.8310763 9.23477309,47.8080357 L9.23477309,47.8080357 Z" id="Path" fill="#FFFFFF"></path>
                                <path d="M16.6430483,47.8080357 C16.6430483,48.784995 15.8686133,49.5815927 14.9188344,49.5815927 C13.9690555,49.5815927 13.1946204,48.784995 13.1946204,47.8080357 C13.1946204,46.8310763 13.9690555,46.0344787 14.9188344,46.0344787 L14.9188344,46.0344787 C15.8686133,46.0344787 16.6430483,46.8310763 16.6430483,47.8080357 L16.6430483,47.8080357 Z" id="Path" fill="#FFFFFF"></path>
                                <path d="M24.0513236,47.8080357 C24.0513236,48.784995 23.2768885,49.5815927 22.3271096,49.5815927 C21.3773308,49.5815927 20.6028957,48.784995 20.6028957,47.8080357 C20.6028957,46.8310763 21.3773308,46.0344787 22.3271096,46.0344787 C23.2768885,46.0344787 24.0513236,46.8310763 24.0513236,47.8080357 L24.0513236,47.8080357 Z" id="Path" fill="#FFFFFF"></path>
                                <path d="M31.4449869,47.8080357 C31.4449869,48.784995 30.6705518,49.5815927 29.7207729,49.5815927 C28.770994,49.5815927 27.9965589,48.784995 27.9965589,47.8080357 C27.9965589,46.8310763 28.770994,46.0344787 29.7207729,46.0344787 C30.6851638,46.0344787 31.4449869,46.8310763 31.4449869,47.8080357 L31.4449869,47.8080357 Z" id="Path" fill="#FFFFFF"></path>
                                <path d="M38.8532621,47.8080357 C38.8532621,48.784995 38.078827,49.5815927 37.1290481,49.5815927 C36.1792693,49.5815927 35.4048342,48.784995 35.4048342,47.8080357 C35.4048342,46.8310763 36.1792693,46.0344787 37.1290481,46.0344787 L37.1290481,46.0344787 C38.078827,46.0344787 38.8532621,46.8310763 38.8532621,47.8080357 L38.8532621,47.8080357 Z" id="Path" fill="#FFFFFF"></path>
                                <path d="M46.2615374,47.8080357 C46.2615374,48.784995 45.4871023,49.5815927 44.5373234,49.5815927 C43.5875445,49.5815927 42.8131094,48.784995 42.8131094,47.8080357 C42.8131094,46.8310763 43.5875445,46.0344787 44.5373234,46.0344787 C45.4871023,46.0344787 46.2615374,46.8310763 46.2615374,47.8080357 L46.2615374,47.8080357 Z" id="Path" fill="#49A5E6"></path>
                                <path d="M53.6552006,47.8080357 C53.6552006,48.784995 52.8807655,49.5815927 51.9309867,49.5815927 C50.9812078,49.5815927 50.2067727,48.784995 50.2067727,47.8080357 C50.2067727,46.8310763 50.9812078,46.0344787 51.9309867,46.0344787 C52.8953775,46.0344787 53.6552006,46.8310763 53.6552006,47.8080357 C53.6698126,47.8080357 53.6698126,47.8080357 53.6552006,47.8080357 Z" id="Path" fill="#49A5E6"></path>
                                <path d="M9.23477309,56.6758207 C9.23477309,57.6527801 8.46033801,58.4493777 7.51055913,58.4493777 C6.56078025,58.4493777 5.78634517,57.6527801 5.78634517,56.6758207 C5.78634517,55.6988613 6.56078025,54.9022637 7.51055913,54.9022637 C8.47494999,54.9022637 9.23477309,55.6988613 9.23477309,56.6758207 L9.23477309,56.6758207 Z" id="Path" fill="#FFFFFF"></path>
                                <path d="M16.6430483,56.6758207 C16.6430483,57.6527801 15.8686133,58.4493777 14.9188344,58.4493777 C13.9690555,58.4493777 13.1946204,57.6527801 13.1946204,56.6758207 C13.1946204,55.6988613 13.9690555,54.9022637 14.9188344,54.9022637 L14.9188344,54.9022637 C15.8686133,54.9022637 16.6430483,55.6988613 16.6430483,56.6758207 L16.6430483,56.6758207 Z" id="Path" fill="#FFFFFF"></path>
                                <path d="M24.0513236,56.6758207 C24.0513236,57.6527801 23.2768885,58.4493777 22.3271096,58.4493777 C21.3773308,58.4493777 20.6028957,57.6527801 20.6028957,56.6758207 C20.6028957,55.6988613 21.3773308,54.9022637 22.3271096,54.9022637 C23.2768885,54.9022637 24.0513236,55.6988613 24.0513236,56.6758207 L24.0513236,56.6758207 Z" id="Path" fill="#FFFFFF"></path>
                                <path d="M31.4449869,56.6758207 C31.4449869,57.6527801 30.6705518,58.4493777 29.7207729,58.4493777 C28.770994,58.4493777 27.9965589,57.6527801 27.9965589,56.6758207 C27.9965589,55.6988613 28.770994,54.9022637 29.7207729,54.9022637 C30.6851638,54.9022637 31.4449869,55.6988613 31.4449869,56.6758207 L31.4449869,56.6758207 Z" id="Path" fill="#FFFFFF"></path>
                                <path d="M38.8532621,56.6758207 C38.8532621,57.6527801 38.078827,58.4493777 37.1290481,58.4493777 C36.1792693,58.4493777 35.4048342,57.6527801 35.4048342,56.6758207 C35.4048342,55.6988613 36.1792693,54.9022637 37.1290481,54.9022637 L37.1290481,54.9022637 C38.078827,54.9022637 38.8532621,55.6988613 38.8532621,56.6758207 L38.8532621,56.6758207 Z" id="Path" fill="#FFFFFF"></path>
                                <path d="M46.2615374,56.6758207 C46.2615374,57.6527801 45.4871023,58.4493777 44.5373234,58.4493777 C43.5875445,58.4493777 42.8131094,57.6527801 42.8131094,56.6758207 C42.8131094,55.6988613 43.5875445,54.9022637 44.5373234,54.9022637 C45.4871023,54.9022637 46.2615374,55.6988613 46.2615374,56.6758207 L46.2615374,56.6758207 Z" id="Path" fill="#49A5E6"></path>
                                <path d="M22.3855576,52.9934354 C19.6092808,52.9934354 17.3444235,50.6637631 17.3444235,47.8080357 C17.3444235,44.9523083 19.6092808,42.622636 22.3855576,42.622636 C25.1618343,42.622636 27.4266916,44.9523083 27.4266916,47.8080357 C27.4266916,50.6637631 25.1618343,52.9934354 22.3855576,52.9934354 Z M22.3855576,44.6366753 C20.6905676,44.6366753 19.3024292,46.064539 19.3024292,47.8080357 C19.3024292,49.5515324 20.6905676,50.9793961 22.3855576,50.9793961 C24.0805476,50.9793961 25.4686859,49.5515324 25.4686859,47.8080357 C25.4686859,46.064539 24.0805476,44.6366753 22.3855576,44.6366753 Z" id="Shape" fill="#02A5A5"></path>
                                <path d="M56.6214331,12.6074383 L46.7583448,12.6074383 L20.296044,63.8451994 L56.6360451,63.8451994 C58.3018111,63.8451994 59.6461136,62.4624262 59.6461136,60.7489897 L59.6461136,15.703648 C59.6461136,13.9902115 58.2871992,12.6074383 56.6214331,12.6074383 Z" id="Path" fill="url(#linearGradient-4)"></path>
                                <path d="M11.2658387,7.67755102 L11.2658387,7.67755102 C12.1717816,7.67755102 12.9023808,8.42905822 12.9023808,9.36092716 L12.9023808,15.9591604 C12.9023808,16.8910293 12.1717816,17.6425365 11.2658387,17.6425365 L11.2658387,17.6425365 C10.3598958,17.6425365 9.62929663,16.8910293 9.62929663,15.9591604 L9.62929663,9.36092716 C9.62929663,8.42905822 10.3598958,7.67755102 11.2658387,7.67755102 Z" id="Path" fill="#5AC4C4"></path>
                                <path d="M48.3948868,7.67755102 L48.3948868,7.67755102 C49.3008298,7.67755102 50.0314289,8.42905822 50.0314289,9.36092716 L50.0314289,15.9591604 C50.0314289,16.8910293 49.3008298,17.6425365 48.3948868,17.6425365 L48.3948868,17.6425365 C47.4889439,17.6425365 46.7583448,16.8910293 46.7583448,15.9591604 L46.7583448,9.36092716 C46.7583448,8.42905822 47.4889439,7.67755102 48.3948868,7.67755102 Z" id="Path" fill="#5AC4C4"></path>
                            </g>
                        </g>
                        <g id="Actions/Success" transform="translate(42.821429, 0.000000)">
                            <g id="Success" fill-rule="nonzero">
                                <path d="M27.6147203,13.8014491 C27.6147203,21.429497 21.4354092,27.6147203 13.8132734,27.6147203 C6.19113751,27.6147203 0,21.4413234 0,13.8191887 C0,6.19705401 6.17339786,0.00591745582 13.7955337,0 C21.4176696,-0.00590897503 27.6088071,6.17340115 27.6147203,13.8014491" id="Path" fill="#28AD68"></path>
                                <path d="M19.8668757,7.79855645 C20.4461552,7.22128492 21.383725,7.22291266 21.9609965,7.80219209 C22.5043109,8.34739627 22.5348287,9.20997877 22.05359,9.79084756 L21.9573608,9.89631287 L12.0030058,19.8161638 C11.4592543,20.3580307 10.5994497,20.3900282 10.0183728,19.912068 L9.91283246,19.8164744 L5.6576712,15.5785821 C5.07822023,15.0014827 5.07631388,14.0639134 5.65341323,13.4844625 C6.19656556,12.9390968 7.0590269,12.9053278 7.64170555,13.3843736 L7.74753283,13.4802045 L10.9568462,16.676 L19.8668757,7.79855645 Z" id="Path" fill="#FFFFFF"></path>
                            </g>
                        </g>
                    </g>
                </g>
            </g>
        </g>
    </g>
</svg>