<?xml version="1.0" encoding="UTF-8"?>
<svg width="117px" height="114px" viewBox="0 0 117 114" version="1.1" xmlns="http://www.w3.org/2000/svg" xmlns:xlink="http://www.w3.org/1999/xlink">
    <!-- Generator: Sketch 62 (91390) - https://sketch.com -->
    <title>seand money app</title>
    <desc>Created with Sketch.</desc>
    <defs>
        <linearGradient x1="14.7528153%" y1="-3.10958217%" x2="57.9822243%" y2="76.7178658%" id="linearGradient-1">
            <stop stop-color="#192647" offset="0%"></stop>
            <stop stop-color="#192647" stop-opacity="0.5" offset="0%"></stop>
            <stop stop-color="#192647" stop-opacity="0" offset="100%"></stop>
        </linearGradient>
        <linearGradient x1="100%" y1="50%" x2="0%" y2="50%" id="linearGradient-2">
            <stop stop-color="#028484" stop-opacity="0.8" offset="0%"></stop>
            <stop stop-color="#028484" stop-opacity="0" offset="100%"></stop>
        </linearGradient>
        <linearGradient x1="31.7764323%" y1="21.7112587%" x2="57.7522097%" y2="62.0496521%" id="linearGradient-3">
            <stop stop-color="#FFFFFF" stop-opacity="0.5" offset="0%"></stop>
            <stop stop-color="#EDF8F9" stop-opacity="0.2" offset="100%"></stop>
            <stop stop-color="#FFFFFF" stop-opacity="0" offset="100%"></stop>
        </linearGradient>
    </defs>
    <g id="Page-1" stroke="none" stroke-width="1" fill="none" fill-rule="evenodd">
        <g id="CoDi_Returns_MX_VD_01_00_00_02" transform="translate(-108.000000, -89.000000)">
            <g id="seand-money-app" transform="translate(108.000000, 89.000000)">
                <g id="Send-Money-App-Dollar" transform="translate(0.880000, 0.360000)">
                    <path d="M114.48,40.776 L69.12,40.776 L69.12,17.52 C69.12,14.472 66.648,12 63.6,12 L63.6,12 L17.568,12 C14.52,12 12.048,14.472 12.048,17.52 L12.048,17.52 L12.048,107.76 C12.048,110.808 14.52,113.28 17.568,113.28 L63.6,113.28 C66.648,113.28 69.12,110.808 69.12,107.76 L69.12,84.504 L114.48,84.504 C114.888,84.504 115.2,84.192 115.2,83.784 L115.2,41.496 C115.2,41.088 114.888,40.776 114.48,40.776 Z" id="Path" fill="url(#linearGradient-1)"></path>
                    <path d="M3.168,28.776 L101.76,28.776 C102.168,28.776 102.48,29.088 102.48,29.496 L102.48,71.808 C102.48,72.216 102.168,72.528 101.76,72.528 L3.168,72.528 C2.76,72.528 2.448,72.216 2.448,71.808 L2.448,29.496 C2.448,29.088 2.784,28.776 3.168,28.776 Z" id="Path" fill="#02A5A5" fill-rule="nonzero"></path>
                    <path d="M101.472,28.776 L73.104,28.776 L50.4,72.504 L101.472,72.504 C102.024,72.504 102.48,72.048 102.48,71.496 L102.48,71.496 L102.48,29.784 C102.48,29.232 102.024,28.776 101.472,28.776 Z" id="Path" fill="url(#linearGradient-2)" fill-rule="nonzero"></path>
                    <path d="M89.544,30.96 L99.672,30.96 C100.08,30.96 100.392,31.272 100.392,31.68 L100.392,41.808 C100.392,42.216 100.08,42.528 99.672,42.528 L96.264,42.528 C92.16,42.528 88.824,39.192 88.824,35.088 L88.824,31.68 C88.824,31.272 89.16,30.96 89.544,30.96 Z" id="Path" fill="#5AC4C4" fill-rule="nonzero"></path>
                    <path d="M100.392,59.568 L100.392,69.696 C100.392,70.104 100.08,70.416 99.672,70.416 L89.544,70.416 C89.136,70.416 88.824,70.104 88.824,69.696 L88.824,66.288 C88.824,62.184 92.16,58.848 96.264,58.848 L96.264,58.848 L99.672,58.848 C100.08,58.848 100.392,59.184 100.392,59.568 Z" id="Path" fill="#5AC4C4" fill-rule="nonzero"></path>
                    <path d="M15.312,70.416 L5.184,70.416 C4.776,70.416 4.464,70.104 4.464,69.696 L4.464,59.568 C4.464,59.16 4.776,58.848 5.184,58.848 L8.592,58.848 C12.696,58.848 16.032,62.184 16.032,66.288 L16.032,66.288 L16.032,69.696 C16.032,70.104 15.72,70.416 15.312,70.416 Z" id="Path" fill="#5AC4C4" fill-rule="nonzero"></path>
                    <path d="M4.464,41.808 L4.464,31.68 C4.464,31.272 4.776,30.96 5.184,30.96 L15.312,30.96 C15.72,30.96 16.032,31.272 16.032,31.68 L16.032,35.088 C16.032,39.192 12.696,42.528 8.592,42.528 L5.184,42.528 C4.8,42.528 4.464,42.192 4.464,41.808 Z" id="Path" fill="#5AC4C4" fill-rule="nonzero"></path>
                    <path d="M77.4240695,50.736 C77.4,58.344 71.208,64.488 63.6,64.4640701 C55.992,64.44 49.848,58.248 49.8719299,50.64 C49.896,43.056 56.064,36.912 63.648,36.912 C71.256,36.936 77.448,43.128 77.4240695,50.736 C77.4240695,50.736 77.4240695,50.736 77.4240695,50.736" id="Path" fill="#5AC4C4" fill-rule="nonzero"></path>
                    <path d="M65.256,53.448 C65.256,52.536 64.896,52.176 63.168,51.384 C60.696,50.256 59.952,49.392 59.952,47.664 C59.952,45.936 61.344,44.712 62.76,44.352 L62.76,42.24 L62.832,42.24 L64.872,43.152 L64.872,44.304 C65.52,44.4 66.144,44.616 66.696,44.928 L66.792,45 L66.864,45.048 L66.84,45.12 L66.816,45.24 L66.552,46.848 L66.504,47.16 L66.48,47.376 L66.312,47.256 L66.072,47.064 C65.424,46.56 64.608,46.272 63.792,46.248 C62.736,46.248 62.136,46.728 62.136,47.544 C62.136,48.312 62.52,48.648 64.2,49.416 C66.696,50.544 67.488,51.456 67.488,53.304 C67.464,54.888 66.408,56.304 64.872,56.76 L64.872,59.184 L64.704,59.184 L62.76,58.104 L62.76,56.904 C62.064,56.808 60.792,56.544 60,56.136 L59.88,56.088 L59.808,56.04 L59.808,55.944 L59.832,55.824 L60.072,54.168 L60.12,53.88 L60.144,53.688 L60.312,53.784 L60.552,53.952 C61.416,54.552 62.424,54.888 63.48,54.912 C64.584,54.936 65.256,54.384 65.256,53.448" id="Path" fill="#EAF9FA" fill-rule="nonzero"></path>
                    <path d="M5.568,0 L51.6,0 C54.648,0 57.12,2.472 57.12,5.52 L57.12,95.76 C57.12,98.808 54.648,101.28 51.6,101.28 L5.568,101.28 C2.52,101.28 0.048,98.808 0.048,95.76 L0.048,5.52 C0.048,2.472 2.52,0 5.568,0 Z" id="Path" fill="#1464A5" fill-rule="nonzero"></path>
                    <rect id="Rectangle" fill="#49A5E6" fill-rule="nonzero" x="0.048" y="12.648" width="57.072" height="75.984"></rect>
                    <polygon id="Path" fill="url(#linearGradient-3)" opacity="0.5" points="0.144 12.696 0.144 88.584 7.776 88.584 49.008 12.696"></polygon>
                </g>
            </g>
        </g>
    </g>
</svg>