<?xml version="1.0" encoding="UTF-8"?>
<svg width="116px" height="116px" viewBox="0 0 116 116" version="1.1" xmlns="http://www.w3.org/2000/svg" xmlns:xlink="http://www.w3.org/1999/xlink">
    <!-- Generator: Sketch 58 (84663) - https://sketch.com -->
    <title>Selfdriven@1x</title>
    <desc>Created with Sketch.</desc>
    <defs>
        <linearGradient x1="3.91250016%" y1="-11.7326922%" x2="66.8448785%" y2="95.4432872%" id="linearGradient-1">
            <stop stop-color="#192647" offset="0%"></stop>
            <stop stop-color="#192647" stop-opacity="0.5" offset="0%"></stop>
            <stop stop-color="#192647" stop-opacity="0" offset="100%"></stop>
        </linearGradient>
        <linearGradient x1="100.008631%" y1="50.00337%" x2="0%" y2="50.00337%" id="linearGradient-2">
            <stop stop-color="#028484" stop-opacity="0.3" offset="0%"></stop>
            <stop stop-color="#028484" stop-opacity="0.1" offset="100%"></stop>
        </linearGradient>
        <linearGradient x1="100%" y1="49.9976667%" x2="0%" y2="49.9976667%" id="linearGradient-3">
            <stop stop-color="#043263" stop-opacity="0.3" offset="0%"></stop>
            <stop stop-color="#043263" stop-opacity="0.1" offset="100%"></stop>
        </linearGradient>
    </defs>
    <g id="Selfdriven" stroke="none" stroke-width="1" fill="none" fill-rule="evenodd">
        <g id="Settings-and-Configuration/Selfdriven">
            <g id="Selfdriven" transform="translate(19.720000, 20.493333)">
                <path d="M88.527232,53.2943282 L83.1714132,52.3044703 C82.6848373,50.3602987 81.9134551,48.4986746 80.8822676,46.7799346 L83.9750032,42.2886716 C83.0563044,40.8342752 82.8521491,40.3350047 81.5859518,39.067292 L81.5273115,39.0065113 C80.2567705,37.74314 79.7594135,37.5369197 78.304264,36.6186962 L73.8085038,39.7098313 C73.515302,39.5340013 73.209069,39.3755372 72.9071798,39.2149024 L72.9071798,39.2149024 C71.4443926,38.4302359 69.8907444,37.8280531 68.2811077,37.4218704 L67.2907373,32.0601402 C65.6118857,31.6802606 65.1188724,31.4740402 63.3227402,31.4718694 L63.2380374,31.4718694 C61.4462489,31.4718694 60.9488919,31.6889435 59.2700403,32.0601402 L59.1896813,32.4942884 L44.1495171,20.4966032 L46.4060847,19.2484271 C46.2041013,18.0914222 46.3105227,17.9893974 45.8413998,16.8606121 L45.8196812,16.8063436 C45.3483865,15.679729 45.1941841,15.6862412 44.5165623,14.7289445 L41.1197656,15.7231438 C40.1322138,14.265322 38.8718192,13.0122138 37.4080486,12.0328842 L38.3853878,8.6291624 L38.0878423,8.41208831 L37.8902026,8.26447792 C37.4171221,7.86588187 36.8784887,7.55227012 36.2982256,7.33757154 L36.2461009,7.31586413 C35.1145593,6.8534963 35.0103097,6.96420409 33.8570495,6.76666667 L32.160823,9.86648475 C30.4277645,9.54302415 28.6493697,9.54744206 26.9179412,9.87950919 L25.1826212,6.77969111 C24.0271891,6.98157002 23.9229396,6.87520371 22.7935699,7.34191302 L22.7414451,7.36362043 C21.6142472,7.83684196 21.618591,7.99096456 20.6607986,8.666065 L21.6576845,12.0611038 C20.9338295,12.5534087 20.257609,13.1122737 19.6378502,13.7304036 C19.0152015,14.3564196 18.4537621,15.0404108 17.9611705,15.7730709 L14.5556864,14.7940667 C13.8824083,15.7557049 13.7325496,15.7513635 13.2655987,16.8801488 L13.24388,16.9344173 C12.7812728,18.0653733 12.8920379,18.1695689 12.6965701,19.3222323 L15.7979931,21.0154103 C15.4725477,22.7480649 15.4762316,24.5264568 15.8088524,26.2577497 L12.713945,27.9704643 C12.9159284,29.1252985 12.8095071,29.229494 13.2786299,30.3582793 L13.3003485,30.4125478 C13.7716432,31.5391624 13.9258456,31.5348209 14.6034674,32.4899469 L16.1237729,32.0557987 L13.4002543,45.8400038 C12.9941325,47.8238932 13.5010584,49.8851934 14.7810858,51.4548452 C16.0611133,53.0244969 17.9788593,53.9364849 20.0048954,53.9390383 L28.4404185,53.9390383 C27.1969201,53.8758808 26.01986,54.5030085 25.3791493,55.5700566 C24.7384386,56.6371048 24.7384386,57.9702687 25.3791493,59.0373169 C26.01986,60.104365 27.1969201,60.7314927 28.4404185,60.6683352 L11.5758878,60.6683352 C7.8520778,60.6683352 4.83333333,63.6855175 4.83333333,67.4074005 C4.83333333,71.1292835 7.8520778,74.1464658 11.5758878,74.1464658 L43.749894,74.1464658 C44.1158951,74.6419593 44.5219476,75.1066089 44.9639664,75.53574 L45.0226068,75.5965208 C46.2931477,76.859892 46.7905048,77.0661124 48.2456543,77.9843358 L52.7414145,74.8932007 C53.354439,75.2549531 53.9858549,75.5846265 54.6331088,75.8808878 L54.8741858,75.9915956 C55.1630439,76.1196693 55.4519019,76.2455723 55.7429318,76.3627923 C55.9231966,76.432256 56.1034613,76.4973782 56.285898,76.5646712 C56.5030845,76.6449886 56.720271,76.7274768 56.9548324,76.801282 C57.3892053,76.9402094 57.8235783,77.0704539 58.2579513,77.1811616 L59.2483217,82.5428918 C60.9271732,82.9227715 61.4201865,83.1289919 63.2163188,83.1333333 L63.3010215,83.1333333 C65.09281,83.1333333 65.5901671,82.9162592 67.2690186,82.5428918 L68.259389,77.1811616 C70.2043876,76.6942939 72.0668977,75.9233431 73.7867851,74.8932007 L78.2825454,77.9843358 C79.7376948,77.0661124 80.2372238,76.859892 81.5055928,75.5965208 L81.5642332,75.53574 C82.8304304,74.2680273 83.0345857,73.7687569 83.9532846,72.3143604 L80.860549,67.8230974 C81.8989157,66.1069642 82.6776288,64.2467736 83.1714132,62.3029032 L88.5380913,61.3130453 C88.9159958,59.6350625 89.1244948,59.1423043 89.1266667,57.3449308 L89.1266667,57.2624427 C89.1136355,55.4694106 88.9051365,54.972311 88.527232,53.2943282 Z M11.5758878,64.0438374 L28.4404185,64.0438374 C32.1642285,64.0438374 35.182973,61.0266551 35.182973,57.3047721 C35.182973,53.5828891 32.1642285,50.5657068 28.4404185,50.5657068 L20.0048954,50.5657068 C21.779603,50.5708574 23.254725,49.2005786 23.3792784,47.4311557 C23.5038317,45.6617328 22.2352046,44.0985157 20.4772582,43.8552527 C18.7193117,43.6119897 17.0734697,44.7719052 16.7123482,46.508592 C16.7123482,46.508592 16.7123482,46.508592 16.7123482,46.508592 L19.3489922,33.1585352 C19.4619292,33.2800966 19.5661787,33.4059996 19.6812875,33.5253904 C20.3092217,34.145951 20.9933941,34.7069581 21.7250123,35.2012024 L20.7476732,38.6027535 C20.9648596,38.7503638 21.1147183,38.8697546 21.2558895,38.9761209 L21.2558895,38.9761209 C21.4296387,39.1063654 21.5664662,39.2127317 21.7076374,39.3125857 L21.7315279,39.3277809 C21.7901683,39.369025 21.8509805,39.4080984 21.9161365,39.4493424 L21.9769487,39.4840743 L22.1289792,39.5687332 L22.2180257,39.6143187 L22.4004623,39.7033191 L22.4938525,39.7467339 L22.8348353,39.8943443 L22.8869601,39.9160517 C24.0185016,40.3784196 24.1227512,40.265541 25.2760114,40.4630785 L26.970066,37.3589189 C28.7030254,37.6834629 30.4816239,37.6790445 32.2129478,37.3458944 L33.9265492,40.4392003 C35.0819813,40.2373214 35.1862308,40.3458584 36.3156005,39.8769784 L36.3677253,39.855271 C37.4949232,39.3820495 37.4905794,39.2300976 38.4483718,38.5528264 L37.4514859,35.1577876 C38.1748022,34.6655773 38.8509664,34.1074855 39.4713202,33.4906585 C40.0934929,32.8634291 40.6548882,32.178765 41.1479999,31.4458205 L44.553484,32.4248247 C45.2267621,31.4653572 45.3766208,31.467528 45.8435717,30.3387427 L45.8652904,30.2844741 C46.3278976,29.1556888 46.2171325,29.0493225 46.4126003,27.8966591 L43.3133491,26.2013104 C43.4242503,25.5778378 43.4931808,24.9476317 43.5196763,24.3149365 L58.4859971,36.2540117 L58.2688106,37.4305533 C56.3236823,37.9170287 54.4611161,38.6880027 52.7414145,39.7185143 L48.2456543,36.6273792 C46.7905048,37.5456026 46.2909759,37.751823 45.0226068,39.0151942 L44.9639664,39.075975 C43.6977692,40.3436877 43.4936139,40.8429581 42.5749151,42.2973546 L45.6676507,46.7886176 C44.6364632,48.5073576 43.865081,50.3689817 43.3785051,52.3131533 L38.011827,53.3030112 C37.6339225,54.9809939 37.4254235,55.4737521 37.4232516,57.2711256 L37.4232516,57.3536138 C37.4232516,59.1466458 37.6404381,59.6437455 38.011827,61.3217283 L43.3785051,62.3115861 C43.865081,64.2557578 44.6364632,66.1173819 45.6676507,67.8361218 L43.6434726,70.7883295 L11.5758878,70.7883295 C12.8193863,70.851487 13.9964463,70.2243594 14.637157,69.1573112 C15.2778677,68.090263 15.2778677,66.7570991 14.637157,65.690051 C13.9964463,64.6230028 12.8193863,63.9958751 11.5758878,64.0590326 L11.5758878,64.0438374 Z" id="Shape" fill="url(#linearGradient-1)" fill-rule="nonzero"></path>
                <path d="M51.04,65.7333333 L4.94794868,65.7333333 C2.19884324,65.6762728 0,63.4279752 0,60.6741 C0,57.9202249 2.19884324,55.6719273 4.94794868,55.6148667 L21.7850197,55.6148667 C23.6147212,55.6528441 25.3218988,54.6969519 26.2478714,53.1160025 C27.173844,51.5350531 27.173844,49.5762137 26.2478714,47.9952643 C25.3218988,46.4143149 23.6147212,45.4584227 21.7850197,45.4964001 L13.3675689,45.4964001 C12.027725,45.4969765 10.7425607,44.9643206 9.79494447,44.0156715 C8.84732827,43.0670225 8.31492887,41.7801336 8.31492899,40.4382531 C8.31408923,40.0958747 8.34899005,39.7543463 8.4190624,39.4192364 L13.3675689,14.3066667" id="Path" stroke="#F8CD50" stroke-width="3.00053333"></path>
                <circle id="Oval" fill="#1464A5" fill-rule="nonzero" cx="4.93" cy="60.61" r="3.38333333"></circle>
                <circle id="Oval" fill="#1464A5" fill-rule="nonzero" cx="13.2433333" cy="40.5033333" r="3.38333333"></circle>
                <path d="M28.42,8.7 L65.9266667,38.6666667" id="Path" stroke="#F8CD50" stroke-width="3.00053333"></path>
                <circle id="Oval" fill="#C49735" fill-rule="nonzero" cx="21.75" cy="50.5566667" r="3.38333333"></circle>
                <path d="M36.5426407,19.3986911 C36.8666832,17.6696395 36.8622716,15.8950518 36.5296364,14.1676321 L39.6181616,12.4578949 C39.4165947,11.3050683 39.524964,11.2010539 39.0568086,10.0742309 L39.0351348,10.0222237 C38.5626446,8.89756764 38.4109276,8.90190157 37.7347031,7.94843597 L34.3449112,8.94090698 C33.8533672,8.21868421 33.2953659,7.5439886 32.6781913,6.92562742 C32.0531428,6.30438284 31.3702087,5.7442094 30.6386809,5.25272868 L31.6161721,1.85709096 C30.6581874,1.18316413 30.6603548,1.03364339 29.533314,0.567745426 L29.4791294,0.546075754 C28.3520886,0.0845117238 28.2458866,0.195027055 27.0950046,0 L25.3957739,3.09442927 C23.6664768,2.76613881 21.8908335,2.76613881 20.1615364,3.09442927 L18.4601383,0.0173357382 C17.3049215,0.221030662 17.200887,0.112682298 16.0760136,0.58074723 L16.0218289,0.602416903 C14.8969555,1.07481577 14.9034577,1.22650348 13.9476404,1.90259727 L14.9403032,5.29173409 C13.4847345,6.27705894 12.2335629,7.53461134 11.2557468,8.99508116 L7.85078324,8.01777892 C7.17672616,8.97557846 7.0293439,8.97341149 6.56335588,10.1002345 L6.54168202,10.1522417 C6.07786139,11.2812316 6.19056547,11.3852461 5.99333333,12.5359057 L9.08836072,14.2283071 C8.76430216,15.9580856 8.76871369,17.7333859 9.10136503,19.4615331 L6.01283981,21.1691033 C6.21440672,22.3219299 6.10603741,22.4259443 6.57419281,23.5527673 L6.59586668,23.6047745 C7.06835685,24.7294306 7.22007388,24.7250966 7.89629835,25.6807292 L11.2882576,24.703427 C11.77983,25.4249585 12.3378342,26.0989321 12.9549776,26.7165396 C13.5794395,27.3369222 14.2616407,27.8963641 14.9923205,28.3872713 L14.0148294,31.785076 C14.972814,32.4568359 14.9706467,32.6063566 16.0976874,33.0722546 L16.1518721,33.0939242 C17.2810803,33.5554883 17.3851148,33.4449729 18.5359968,33.64 L20.226558,30.5477377 C21.9567696,30.8706529 23.73221,30.8662427 25.4607955,30.5347359 L27.1708631,33.6226643 C28.3239125,33.4211363 28.4279471,33.5273177 29.5549879,33.0614197 L29.6091725,33.0375831 C30.7340459,32.5673512 30.7297111,32.4134965 31.683361,31.7374027 L30.6906982,28.3482659 C31.4130606,27.8568169 32.0878866,27.2989234 32.7063673,26.6818681 C33.3259688,26.0553499 33.8861089,25.3727203 34.3795894,24.6427519 L37.7758834,25.6178871 C38.4499405,24.6600876 38.5994902,24.6622546 39.0654782,23.5354316 L39.087152,23.4834244 C39.5488053,22.3544344 39.4361012,22.25042 39.6333333,21.0997604 L36.5426407,19.3986911 Z" id="Path" fill="#2DCCCD" fill-rule="nonzero"></path>
                <path d="M36.537764,19.3430801 C36.8620903,17.6067484 36.8576748,15.8246887 36.5247483,14.0899957 L39.6159791,12.3730597 C39.4142356,11.2153791 39.5226998,11.1109267 39.0541343,9.97935926 L39.0324415,9.92713307 C38.5595374,8.79774168 38.4076874,8.80209386 37.7308706,7.84461369 L34.3381092,8.84126351 C33.8461346,8.11599981 33.2876445,7.43846339 32.6699292,6.8174986 C32.0443332,6.19363827 31.3608009,5.63110621 30.6286323,5.13755611 L31.6069797,1.72544495 C31.3900512,1.57964683 31.2382013,1.45996181 31.0993671,1.35333333 L14.5,32.1493775 C14.9696575,32.5439755 15.5030041,32.8552733 16.07707,33.0698641 L16.1313021,33.091625 C17.2614995,33.5551324 17.3656252,33.4441518 18.5175154,33.64 L20.2095575,30.5347177 C21.9412848,30.8589925 23.7182805,30.8545638 25.4483802,30.5216612 L27.1599459,33.6225913 C28.3140054,33.4202148 28.4181311,33.5268433 29.5461592,33.0589836 L29.6003913,33.0350466 C30.7262501,32.5628348 30.7219115,32.4083323 31.6763968,31.7293918 L30.6828644,28.325985 C31.4058595,27.8324668 32.0812767,27.2722243 32.7002992,26.6525708 C33.3204435,26.0234147 33.8810743,25.3379109 34.3749871,24.6048689 L37.7742563,25.58411 C38.4489038,24.6222776 38.5985845,24.6244537 39.0649807,23.4928863 L39.0866736,23.4406601 C39.5487312,22.3069165 39.4359284,22.2024641 39.6333333,21.0469596 L36.537764,19.3430801 Z" id="Path" fill="url(#linearGradient-2)" fill-rule="nonzero"></path>
                <circle id="Oval" fill="#1464A5" fill-rule="nonzero" cx="22.8133333" cy="16.82" r="6.18666667"></circle>
                <path d="M81.7786908,46.5528633 L76.4217212,45.5638415 C75.9352857,43.6214912 75.1650194,41.7615173 74.1357916,40.0439717 L77.2241822,35.5543331 C76.3067741,34.101165 76.1007368,33.6023162 74.8384873,32.3356742 L74.7777605,32.2771137 C73.5111733,31.0126406 73.0123462,30.8087633 71.5592411,29.8913154 L67.0719657,32.9798398 C65.3547517,31.9500564 63.4947805,31.1797246 61.552335,30.6938112 L60.563356,25.3344406 C58.8868631,24.9570507 58.3945424,24.7510045 56.5987647,24.7466667 L56.5163498,24.7466667 C54.7249098,24.7466667 54.2282515,24.9635574 52.5517585,25.3344406 L51.5627795,30.6938112 C49.6203341,31.1797246 47.7603628,31.9500564 46.0431489,32.9798398 L41.5558735,29.8913154 C40.1027684,30.8087633 39.6039413,31.0126406 38.3373541,32.2771137 L38.2766273,32.3356742 C37.0143778,33.6044852 36.8083405,34.101165 35.8909323,35.5543331 L38.9793229,40.0439717 C37.9500951,41.7615173 37.1798289,43.6214912 36.6933934,45.5638415 L31.3299173,46.5528633 C30.9503749,48.2294289 30.7443376,48.7217709 30.74,50.5154574 L30.74,50.5935381 C30.74,52.3828868 30.9568814,52.8795667 31.3299173,54.5561322 L36.6868869,55.5451541 C37.1729304,57.4876338 37.9432199,59.3476639 38.9728165,61.0650238 L35.8844259,65.5590003 C36.8018341,67.0121683 37.0078714,67.5110171 38.2701209,68.7776591 L38.3308477,68.8362196 C39.5974348,70.1006927 40.0962619,70.30457 41.5493671,71.2220179 L46.0366424,68.1334936 C47.7538564,69.1632769 49.6138276,69.9336088 51.5562731,70.4195221 L52.5452521,75.7788927 C54.221745,76.1562826 54.7140657,76.3644978 56.5098434,76.3666667 L56.5922583,76.3666667 C58.3836984,76.3666667 58.8803567,76.1497759 60.5568496,75.7788927 L61.5458286,70.4195221 C63.4882741,69.9336088 65.3482453,69.1632769 67.0654593,68.1334936 L71.5527346,71.2220179 C73.0058398,70.30457 73.5046669,70.1006927 74.771254,68.8362196 L74.8319808,68.7776591 C76.0942303,67.5088482 76.3002676,67.0121683 77.2176758,65.5590003 L74.1292852,61.0693616 C75.1588818,59.3520017 75.9291713,57.4919716 76.4152148,55.5494919 L81.7721844,54.56047 C82.1517268,52.8839045 82.3577641,52.3915625 82.36,50.5978759 L82.36,50.5132885 C82.3642705,48.7261087 82.1582332,48.2294289 81.7786908,46.5528633 Z" id="Path" fill="#1464A5" fill-rule="nonzero"></path>
                <path d="M76.5830598,45.4849123 C76.0945332,43.5377222 75.3209557,41.6731135 74.2873035,39.9512881 L77.3889705,35.4504621 C76.4676186,33.9936731 76.2606956,33.4935813 74.9930198,32.223783 L74.932032,32.1650766 C73.66,30.8974527 73.1590285,30.6930673 71.6996767,29.7733333 L67.1931113,32.8695537 C66.8968846,32.6934344 66.5919455,32.5325353 66.2870063,32.3716363 L46.98,68.6108955 C48.4463341,69.396136 50.0037494,69.9985838 51.6172537,70.404703 L52.6104841,75.7774281 C54.294184,76.1557584 54.7886211,76.3644924 56.5921185,76.3666667 L56.6748877,76.3666667 C58.4740289,76.3666667 58.9728223,76.1492355 60.6565222,75.7774281 L61.6497526,70.404703 C63.6005483,69.9175788 65.4685153,69.1453274 67.1931113,68.1129781 L71.6996767,71.2091984 C73.1590285,70.2894644 73.66,70.0850791 74.932032,68.8174552 L74.9930198,68.7587487 C76.2606956,67.4867762 76.4676186,66.9888587 77.3889705,65.5320696 L74.2873035,61.0312436 C75.3213261,59.3096044 76.094927,57.4449394 76.5830598,55.4976194 L81.9630582,54.5061331 C82.3442322,52.8253899 82.5511552,52.3318211 82.5533333,50.533665 L82.5533333,50.4488668 C82.5533333,48.6550593 82.3355196,48.1571419 81.9630582,46.4763986 L76.5830598,45.4849123 Z" id="Path" fill="url(#linearGradient-3)" fill-rule="nonzero"></path>
                <circle id="Oval" fill="#2DCCCD" fill-rule="nonzero" cx="56.55" cy="50.5566667" r="8.99"></circle>
            </g>
        </g>
    </g>
</svg>