<?xml version="1.0" encoding="UTF-8"?>
<svg width="64px" height="64px" viewBox="0 0 64 64" version="1.1" xmlns="http://www.w3.org/2000/svg" xmlns:xlink="http://www.w3.org/1999/xlink">
    <!-- Generator: Sketch 54.1 (76490) - https://sketchapp.com -->
    <title>Illustration/Smart</title>
    <desc>Created with Sketch.</desc>
    <g id="Illustration/Smart" stroke="none" stroke-width="1" fill="none" fill-rule="evenodd">
        <circle id="Oval" fill="#072146" cx="32" cy="32" r="30"></circle>
        <g id="Icons/smart-assitant" transform="translate(18.000000, 18.000000)" fill="#2DCCCD">
            <path d="M16.1,2.79992943 C16.1,3.95976679 15.1597984,4.9 14,4.9 C12.8402016,4.9 11.9,3.95976679 11.9,2.79992943 C11.9,1.64009207 12.8402016,0.7 14,0.7 C15.1597984,0.7 16.1,1.64009207 16.1,2.79992943" id="Fill-1"></path>
            <path d="M16.1,25.2 C16.1,26.3597984 15.1597984,27.3 14,27.3 C12.8402016,27.3 11.9,26.3597984 11.9,25.2 C11.9,24.0402016 12.8402016,23.1 14,23.1 C15.1597984,23.1 16.1,24.0402016 16.1,25.2" id="Fill-3"></path>
            <path d="M28,2.79992943 C28,4.34646034 26.7464603,5.6 25.2000706,5.6 C23.6536808,5.6 22.4,4.34646034 22.4,2.79992943 C22.4,1.25353966 23.6536808,0 25.2000706,0 C26.7464603,0 28,1.25353966 28,2.79992943" id="Fill-5"></path>
            <path d="M28,25.2 C28,26.7464288 26.7464603,28 25.2000706,28 C23.6536808,28 22.4,26.7464288 22.4,25.2 C22.4,23.6535712 23.6536808,22.4 25.2000706,22.4 C26.7464603,22.4 28,23.6535712 28,25.2" id="Fill-7"></path>
            <path d="M5.6,2.79992943 C5.6,4.34646034 4.34631921,5.6 2.79992943,5.6 C1.25353966,5.6 0,4.34646034 0,2.79992943 C0,1.25353966 1.25353966,0 2.79992943,0 C4.34631921,0 5.6,1.25353966 5.6,2.79992943" id="Fill-9"></path>
            <path d="M15.4,14.0000706 C15.4,14.7733555 14.773246,15.4 14,15.4 C13.2268952,15.4 12.6,14.7733555 12.6,14.0000706 C12.6,13.2267856 13.2268952,12.6 14,12.6 C14.773246,12.6 15.4,13.2267856 15.4,14.0000706" id="Fill-11"></path>
            <path d="M27.3,14.0000706 C27.3,15.1599079 26.3599079,16.1 25.2000706,16.1 C24.0402332,16.1 23.1,15.1599079 23.1,14.0000706 C23.1,12.8402332 24.0402332,11.9 25.2000706,11.9 C26.3599079,11.9 27.3,12.8402332 27.3,14.0000706" id="Fill-13"></path>
            <path d="M5.12105263,14.1106006 C5.12105263,15.331482 4.13133347,16.3210526 2.91045203,16.3210526 C1.6895706,16.3210526 0.7,15.331482 0.7,14.1106006 C0.7,12.8897192 1.6895706,11.9 2.91045203,11.9 C4.13133347,11.9 5.12105263,12.8897192 5.12105263,14.1106006" id="Fill-15"></path>
            <path d="M5.6,25.2 C5.6,26.7464288 4.34631921,28 2.79992943,28 C1.25353966,28 0,26.7464288 0,25.2 C0,23.6535712 1.25353966,22.4 2.79992943,22.4 C4.34631921,22.4 5.6,23.6535712 5.6,25.2" id="Fill-17"></path>
        </g>
    </g>
</svg>