<?xml version="1.0" encoding="UTF-8"?>
<svg width="293px" height="167px" viewBox="0 0 293 167" version="1.1" xmlns="http://www.w3.org/2000/svg" xmlns:xlink="http://www.w3.org/1999/xlink">
    <!-- Generator: Sketch 53.2 (72643) - https://sketchapp.com -->
    <title>Illustration/SMS</title>
    <desc>Created with Sketch.</desc>
    <defs>
        <polygon id="path-1" points="148.411291 147.032286 148.411291 0.400433171 0.000203665831 0.400433171 0.000203665831 147.032286"></polygon>
        <path d="M0.0406652775,45.6915199 C0.255571465,45.8048454 0.502538785,45.8693849 0.765104637,45.8693849 L62.9374939,45.8693849 C63.7670927,45.8693849 64.4398688,45.2274845 64.4398688,44.4353378 L64.4398688,0.615473162 L0.0406652775,0.615473162 L0.0406652775,45.6915199 L0.0406652775,45.6915199 Z" id="path-3"></path>
        <path d="M0.496537295,2.25377406 L2.94840234,0.416530987 C3.2437178,0.195186018 3.63068287,0.0851842758 4.01764795,0.0851842758 C4.40393414,0.0851842758 4.79089922,0.195186018 5.08553579,0.416530987 L35.5777051,23.2646977 C36.1730882,23.4545178 36.6055386,23.9864164 36.6055386,24.617585 L36.6055386,68.5820617 C36.6055386,69.3742084 35.9327625,70.0161088 35.1031637,70.0161088 L0.496537295,70.0161088 L0.496537295,2.25377406 L0.496537295,2.25377406 Z" id="path-5"></path>
        <path d="M0.338085279,11.3643873 L38.3944035,11.3643873 C38.5437584,11.3643873 38.6646002,11.2436537 38.6646002,11.0967611 L38.6646002,0.407140594 C38.6646002,0.260248024 38.5437584,0.141526632 38.3944035,0.141526632 L0.338085279,0.141526632 L0.338085279,11.3643873 L0.338085279,11.3643873 Z" id="path-7"></path>
    </defs>
    <g id="Ω" stroke="none" stroke-width="1" fill="none" fill-rule="evenodd">
        <g id="CoDi-01-00-09" transform="translate(-13.000000, -113.000000)">
            <g id="Illustration/SMS" transform="translate(16.000000, 103.000000)">
                <g id="Template/Illustration-Personal-Key" transform="translate(-2.028169, 0.000000)">
                    <g id="bg" transform="translate(0.000000, 10.140845)" fill="#D4EDFC">
                        <rect x="124.067606" y="0.487362434" width="43.0647887" height="26.8929193" rx="13.4464596"></rect>
                        <rect x="48.1915493" y="131.304264" width="165.993127" height="35.3854201" rx="17.69271"></rect>
                        <path d="M291.2,114.652774 C291.2,124.423868 283.631955,132.344541 274.296877,132.344541 L16.9031232,132.344541 C7.56804458,132.344541 0,124.423868 0,114.652774 L0,114.650887 C0,104.879793 7.56804458,96.9591207 16.9031232,96.9591207 L274.296877,96.9591207 C283.631955,96.9591207 291.2,104.879793 291.2,114.650887 L291.2,114.652774 Z" id="Fill-3"></path>
                        <path d="M49.2169014,45.6338028 C49.2169014,34.9925981 57.8382281,26.3661972 68.4887153,26.3661972 L232.85089,26.3661972 C243.494419,26.3661972 252.122704,34.9902584 252.122704,45.6338028 L252.122704,45.6338028 C252.122704,56.2750076 243.501378,64.9014085 232.85089,64.9014085 L68.4887153,64.9014085 C57.8451864,64.9014085 49.2169014,56.2773473 49.2169014,45.6338028 L49.2169014,45.6338028 Z"></path>
                        <path d="M237.345325,97.2405628 C239.317919,97.9912421 241.445766,98.4045693 243.655086,98.4045693 L29.8693641,98.9047998 C29.1847384,98.9047998 28.5101456,98.8463925 27.8455857,98.8463925 L57.0685447,98.8463925 C59.7184645,98.8463925 62.2357299,98.2708141 64.5013218,97.2405649 L64.8347294,97.2405628 C73.7664871,97.2405628 81.0028169,90.0011965 81.0028169,81.0709856 C81.0028169,72.1388112 73.7631558,64.9014085 64.8325811,64.9014085 L64.2955683,64.9014085 C62.6760002,64.1978073 60.9314798,63.7232468 59.1047448,63.5193798 L238.634816,63.5193798 C237.479279,63.8846907 236.366228,64.3484842 235.310283,64.9014085 L225.508286,64.9014085 C216.577711,64.9014085 209.33805,72.1388112 209.33805,81.0709856 C209.33805,90.0011965 216.57438,97.2405628 225.506138,97.2405628 L237.345325,97.2405628 Z" id="Combined-Shape"></path>
                    </g>
                    <g id="Group-7" transform="translate(98.433803, 49.804530)"></g>
                    <g id="illustration" transform="translate(71.774648, 0.000000)">
                        <g id="Group-8" transform="translate(0.000000, 0.270309)">
                            <g id="Group-3" transform="translate(0.000000, 0.000000)">
                                <mask id="mask-2" fill="white">
                                    <use xlink:href="#path-1"></use>
                                </mask>
                                <g id="Clip-2"></g>
                            </g>
                            <path d="M98.0824769,65.0148528 C98.0824769,66.4924981 96.8706652,67.6897732 95.3764369,67.6897732 C93.8794931,67.6897732 92.6683603,66.4924981 92.6683603,65.0148528 C92.6683603,63.5392197 93.8794931,62.3406031 95.3764369,62.3406031 C96.8706652,62.3406031 98.0824769,63.5392197 98.0824769,65.0148528" id="Fill-4" fill="#2DCCCD"></path>
                            <path d="M106.860882,112.473159 L76.3687123,89.6249925 C75.7787603,89.1829733 74.8222097,89.1829733 74.2315788,89.6249925 L43.742804,112.471147 C43.1453842,112.660296 42.711576,113.192195 42.711576,113.826717 L42.711576,157.790523 C42.711576,158.581328 43.385031,159.225241 44.2139509,159.225241 L106.38634,159.225241 C107.216618,159.225241 107.888715,158.58267 107.888715,157.790523 L107.888715,113.826717 C107.888715,113.195549 107.456265,112.66365 106.860882,112.473159" id="Fill-6" fill="#F8CD51"></path>
                        </g>
                        <g id="Group-15" transform="translate(43.448711, 89.479039)">
                            <g id="Group-11" transform="translate(0.000000, 24.146724)">
                                <mask id="mask-4" fill="white">
                                    <use xlink:href="#path-3"></use>
                                </mask>
                                <g id="Clip-10"></g>
                                <polygon id="Fill-9" fill="#EDBA48" mask="url(#mask-4)" points="76.122073 0.68120591 65.1295492 45.8805193 0.0406652775 0.615473162"></polygon>
                            </g>
                            <g id="Group-14" transform="translate(27.834330, 0.000000)">
                                <mask id="mask-6" fill="white">
                                    <use xlink:href="#path-5"></use>
                                </mask>
                                <g id="Clip-13"></g>
                                <polygon id="Fill-12" fill="#FADE8E" mask="url(#mask-6)" points="0.496537295 -0.941923453 34.8339174 24.7622641 35.003639 71.0984857 42.5562469 70.2600578 41.9622215 -2.96287009 19.0138346 -10.2940838"></polygon>
                            </g>
                        </g>
                        <g id="Group-22" transform="translate(42.090938, 31.795199)">
                            <path d="M63.9876628,0.172917373 L2.4133722,0.447921728 C1.43306067,0.451946182 0.634011731,1.24342213 0.634011731,2.21599851 L0.479904586,54.9792731 C0.469042408,55.9498373 1.02505013,56.1812434 1.72090838,55.4957447 L10.1533527,47.1946376 L63.9971672,47.2630534 C64.9761209,47.2650656 65.7765276,46.4762726 65.7765276,45.5050377 L65.768381,1.92489634 C65.768381,0.956344413 64.9747632,0.172917373 63.9971672,0.172917373 L63.9876628,0.172917373" id="Fill-16" fill="#FFFFFF"></path>
                            <path d="M1.39823382,82.4463057 L32.1402332,104.142137 C32.7308641,104.583486 33.6880935,104.583486 34.2780455,104.142137 L65.0220815,82.4463057 L1.39823382,82.4463057 Z" id="Fill-18" fill="#BA9A3D"></path>
                            <path d="M61.0679094,30.5482216 C61.0679094,30.6951142 60.9470677,30.815177 60.7977128,30.815177 L5.62260259,30.815177 C5.47256876,30.815177 5.35172703,30.6951142 5.35172703,30.5482216 L5.35172703,19.8579303 C5.35172703,19.7117085 5.47256876,19.5929871 5.62260259,19.5929871 L60.7977128,19.5929871 C60.9470677,19.5929871 61.0679094,19.7117085 61.0679094,19.8579303 L61.0679094,30.5482216 Z" id="Fill-20" fill="#68CCCC"></path>
                        </g>
                        <g id="Group-25" transform="translate(64.494180, 51.246726)">
                            <mask id="mask-8" fill="white">
                                <use xlink:href="#path-7"></use>
                            </mask>
                            <g id="Clip-24"></g>
                            <path d="M0.338085279,16.8085345 L37.1941329,-19.6053958 L65.422217,-7.2006872 C65.422217,-7.2006872 50.8119092,24.2953604 49.7487736,24.5576206 C48.6863168,24.8198809 26.6965171,31.6440133 25.2056832,31.6440133 C23.7148493,31.6440133 3.63679285,31.2140675 3.31567972,29.5439191 C2.99388771,27.8751122 0.338085279,16.8085345 0.338085279,16.8085345" id="Fill-23" fill="#02A5A5" mask="url(#mask-8)"></path>
                        </g>
                        <g id="Group-36" transform="translate(57.705319, 55.271180)" fill="#FFFFFF">
                            <path d="M4.02423315,2.04106891 C4.02423315,3.00023044 3.23740415,3.77829154 2.26591814,3.77829154 C1.29511102,3.77829154 0.508960911,3.00023044 0.508960911,2.04106891 C0.508960911,1.08190738 1.29511102,0.303846275 2.26591814,0.303846275 C3.23740415,0.303846275 4.02423315,1.08190738 4.02423315,2.04106891" id="Fill-26"></path>
                            <path d="M11.6882462,2.04106891 C11.6882462,3.00023044 10.9014172,3.77829154 9.92993124,3.77829154 C8.95912411,3.77829154 8.17229512,3.00023044 8.17229512,2.04106891 C8.17229512,1.08190738 8.95912411,0.303846275 9.92993124,0.303846275 C10.9014172,0.303846275 11.6882462,1.08190738 11.6882462,2.04106891" id="Fill-28"></path>
                            <path d="M19.3535492,2.04106891 C19.3535492,3.00023044 18.5660413,3.77829154 17.5952342,3.77829154 C16.6244271,3.77829154 15.8369192,3.00023044 15.8369192,2.04106891 C15.8369192,1.08190738 16.6244271,0.303846275 17.5952342,0.303846275 C18.5660413,0.303846275 19.3535492,1.08190738 19.3535492,2.04106891" id="Fill-30"></path>
                            <path d="M27.0181733,2.04106891 C27.0181733,3.00023044 26.2306654,3.77829154 25.2598583,3.77829154 C24.2883723,3.77829154 23.5022222,3.00023044 23.5022222,2.04106891 C23.5022222,1.08190738 24.2883723,0.303846275 25.2598583,0.303846275 C26.2306654,0.303846275 27.0181733,1.08190738 27.0181733,2.04106891" id="Fill-32"></path>
                            <path d="M34.6828653,2.04106891 C34.6828653,3.00023044 33.8960363,3.77829154 32.9245503,3.77829154 C31.9537432,3.77829154 31.1662353,3.00023044 31.1662353,2.04106891 C31.1662353,1.08190738 31.9537432,0.303846275 32.9245503,0.303846275 C33.8960363,0.303846275 34.6828653,1.08190738 34.6828653,2.04106891" id="Fill-34"></path>
                        </g>
                    </g>
                </g>
            </g>
        </g>
    </g>
</svg>