<?xml version="1.0" encoding="UTF-8"?>
<svg width="120px" height="120px" viewBox="0 0 600 600" version="1.1" xmlns="http://www.w3.org/2000/svg" xmlns:xlink="http://www.w3.org/1999/xlink">
    <!-- Generator: Sketch 54.1 (76490) - https://sketchapp.com -->
    <title>Products and Services/VIP-Account</title>
    <desc>Created with Sketch.</desc>
    <defs>
        <linearGradient x1="21.9877046%" y1="18.9817314%" x2="68.6760654%" y2="79.2683762%" id="linearGradient-1">
            <stop stop-color="#192647" offset="0%"></stop>
            <stop stop-color="#192647" stop-opacity="0.5" offset="0%"></stop>
            <stop stop-color="#192647" stop-opacity="0" offset="100%"></stop>
        </linearGradient>
        <linearGradient x1="14.175141%" y1="34.3842553%" x2="72.5442056%" y2="59.0794613%" id="linearGradient-2">
            <stop stop-color="#E9F8F9" offset="0%"></stop>
            <stop stop-color="#E9F8F9" stop-opacity="0.2" offset="100%"></stop>
            <stop stop-color="#E9F8F9" stop-opacity="0.5" offset="100%"></stop>
        </linearGradient>
        <linearGradient x1="24.3024426%" y1="28.2117177%" x2="61.0455214%" y2="53.1957273%" id="linearGradient-3">
            <stop stop-color="#EAF9FA" stop-opacity="0.5" offset="1%"></stop>
            <stop stop-color="#EAF9FA" stop-opacity="0.1" offset="100%"></stop>
            <stop stop-color="#E9F8F9" stop-opacity="0.2" offset="100%"></stop>
        </linearGradient>
        <linearGradient x1="99.9908027%" y1="50.0114567%" x2="0%" y2="50.0114567%" id="linearGradient-4">
            <stop stop-color="#F8CD50" stop-opacity="0.3" offset="0%"></stop>
            <stop stop-color="#F8CD50" stop-opacity="0" offset="100%"></stop>
        </linearGradient>
    </defs>
    <g id="Products-and-Services/VIP-Account" stroke="none" stroke-width="1" fill="none" fill-rule="evenodd">
        <g id="VIP-Account" transform="translate(105.000000, 166.000000)">
            <path d="M377.27,165.07 L377.27,165.07 L374.93,163.87 L373.31,163.1 L371.74,162.39 C370.98,162.05 370.22,161.73 369.46,161.39 L367.65,160.68 C367.15,160.49 366.65,160.3 366.16,160.13 L365.98,160.06 L365.98,63.32 C365.963525,57.7598081 361.460192,53.2564748 355.9,53.24 L38.39,53.24 C36.2233879,53.2319903 34.1432029,54.0891297 32.6111663,55.6211663 C31.0791297,57.1532029 30.2219903,59.2333879 30.23,61.4 L30.23,62 C30.1664847,62.4506078 30.1330773,62.9049483 30.13,63.36 L30.13,265.48 C30.1332518,265.928404 30.1666605,266.376081 30.23,266.82 L30.23,267.29 C30.1563603,269.46857 30.9748931,271.582853 32.4963073,273.143907 C34.0177215,274.704961 36.1102566,275.577593 38.29,275.56 L263.63,275.56 C263.99,276.29 264.36,277.01 264.75,277.73 C264.91,278.04 265.08,278.35 265.25,278.66 C265.77,279.59 266.25,280.51 266.84,281.42 L267.04,281.75 C267.64,282.75 268.26,283.7 268.9,284.66 L269.51,285.56 C270.04,286.33 270.58,287.09 271.14,287.84 C271.29,288.06 271.44,288.27 271.6,288.48 C272.28,289.39 272.98,290.27 273.7,291.15 L274.4,291.99 C274.96,292.656667 275.53,293.323333 276.11,293.99 L276.79,294.74 C277.54,295.57 278.31,296.37 279.1,297.17 C279.34,297.42 279.6,297.66 279.85,297.91 C280.46,298.5 281.07,299.09 281.7,299.67 C281.98,299.93 282.25,300.19 282.54,300.44 C283.36,301.18 284.2,301.91 285.05,302.62 L285.8,303.22 C286.47,303.77 287.15,304.3 287.8,304.83 L288.8,305.56 C289.68,306.2 290.56,306.84 291.46,307.45 L292.13,307.89 C292.91,308.41 293.7,308.89 294.49,309.4 L295.55,310.04 C296.34,310.52 297.15,310.98 297.96,311.43 C338.370675,333.32809 388.88191,318.320675 410.78,277.91 C432.67809,237.499325 417.670675,186.98809 377.26,165.09 L377.27,165.07 Z" id="Path" fill="url(#linearGradient-1)" fill-rule="nonzero"></path>
            <path d="M10.16,0.8 L325.85,0.8 C331.412466,0.811003921 335.918996,5.31753407 335.93,10.88 L335.93,213 C335.919017,218.564097 331.414083,223.0735 325.85,223.09 L10.16,223.09 C4.59819089,223.068041 0.0964443549,218.561828 0.08,213 L0.08,10.88 C0.058473466,8.20007655 1.11355642,5.62366277 3.0086096,3.7286096 C4.90366277,1.83355642 7.48007655,0.778473466 10.16,0.8 Z" id="Path" fill="#4EA5E2" fill-rule="nonzero"></path>
            <path d="M8.25,223.12 L170.48,223.12 L279.57,0.799901183 L8.35,0.8 C6.18165858,0.789316664 4.09889378,1.64527558 2.56468761,3.17760389 C1.03048144,4.70993221 0.171972325,6.79164712 0.18,8.96 L0.18,8.96 L0.18,214.85 C0.10627736,217.03032 0.926161003,219.146179 2.449766,220.707544 C3.97337099,222.268909 6.06852837,223.140335 8.25,223.12 Z" id="Path" fill="url(#linearGradient-2)" opacity="0.5"></path>
            <rect id="Rectangle" fill="#D4ECFA" fill-rule="nonzero" x="30.13" y="109.59" width="125.53" height="29.54"></rect>
            <rect id="Rectangle" fill="#D4ECFA" fill-rule="nonzero" x="30.13" y="159.39" width="274.05" height="29.54"></rect>
            <path d="M138.51,35.58 L126.42,58.58 C126.209652,58.917394 125.781333,59.0458896 125.42,58.88 L125.12,58.58 L113.02,35.58 C112.88819,35.3607303 112.663637,35.2134826 112.41,35.18 L106.56,35.18 C106.424849,35.171059 106.29241,35.2208593 106.196635,35.3166347 C106.100859,35.4124101 106.051059,35.5448485 106.06,35.68 C106.06,35.78 106.06,35.88 106.16,35.88 L125.22,71.47 C125.385604,71.8010883 125.785631,71.9388753 126.12,71.78 L126.43,71.47 L145.48,35.88 C145.590431,35.6289377 145.506399,35.3348251 145.28,35.18 C145.18,35.18 145.08,35.08 144.98,35.08 L139.13,35.08 C138.870903,35.1638032 138.653026,35.3423903 138.52,35.58" id="Path" fill="#07467F" fill-rule="nonzero"></path>
            <path d="M145.37,66.33 L157.47,43.33 C157.680348,42.992606 158.108667,42.8641104 158.47,43.03 L158.77,43.33 L170.87,66.33 C170.998444,66.5541531 171.223939,66.7057154 171.48,66.74 L177.32,66.74 C177.457802,66.748919 177.592769,66.6980578 177.690413,66.6004135 C177.788058,66.5027691 177.838919,66.3678016 177.83,66.23 C177.83,66.13 177.83,66.03 177.73,66.03 L158.67,30.44 C158.496869,30.1113541 158.094635,29.9787495 157.76,30.14 L157.46,30.44 L138.46,65.93 C138.347118,66.1831498 138.436411,66.4807916 138.67,66.63 C138.77,66.63 138.77,66.74 138.87,66.74 L144.72,66.74 C144.964339,66.6834109 145.178492,66.5370728 145.32,66.33" id="Path" fill="#07467F" fill-rule="nonzero"></path>
            <path d="M55,66.63 L44.14,66.63 C43.9526892,66.6355951 43.771372,66.5636436 43.6388642,66.4311358 C43.5063564,66.298628 43.4344049,66.1173108 43.44,65.93 L43.44,65.93 L43.44,56.15 C43.434522,55.9618122 43.5061785,55.7795581 43.6383562,55.645492 C43.770534,55.511426 43.9517534,55.4371918 44.14,55.44 L55,55.44 C60.14,55.44 62.46,56.96 62.46,60.99 C62.46,65.02 60.24,66.63 55,66.63 M44.11,40.52 L54.8,40.52 C58.73,40.52 60.75,42.23 60.75,45.36 C60.75,48.49 58.75,50.2 54.8,50.2 L44.14,50.2 C43.9517534,50.2028082 43.770534,50.128574 43.6383562,49.994508 C43.5061785,49.8604419 43.434522,49.6781878 43.44,49.49 L43.44,49.49 L43.44,41.23 C43.434522,41.0418122 43.5061785,40.8595581 43.6383562,40.725492 C43.770534,40.591426 43.9517534,40.5171918 44.14,40.52 L44.14,40.52 M62.79,52.22 C65.4408322,50.7369715 67.0391496,47.8955183 66.93,44.86 C66.93,39.11 62.49,35.28 56.14,35.28 L38,35.28 C37.8126892,35.2744049 37.631372,35.3463564 37.4988642,35.4788642 C37.3663564,35.611372 37.2944049,35.7926892 37.3,35.98 L37.3,35.98 L37.3,71.37 C37.294522,71.5581878 37.3661785,71.7404419 37.4983562,71.874508 C37.630534,72.008574 37.8117534,72.0828082 38,72.08 L55.34,72.08 C64.01,72.08 68.55,68.35 68.55,61.08 C68.55,53.81 62.8,52.21 62.8,52.21" id="Shape" fill="#07467F" fill-rule="nonzero"></path>
            <path d="M92.13,66.63 L81.25,66.63 C81.0618122,66.635478 80.8795581,66.5638215 80.745492,66.4316438 C80.611426,66.299466 80.5371918,66.1182466 80.54,65.93 L80.54,56.15 C80.5344092,55.9600375 80.6074157,55.7761796 80.7417977,55.6417977 C80.8761796,55.5074157 81.0600375,55.4344092 81.25,55.44 L92.13,55.44 C97.28,55.44 99.6,56.96 99.6,60.99 C99.6,65.02 97.38,66.63 92.13,66.63 M81.25,40.52 L91.93,40.52 C95.87,40.52 97.88,42.23 97.88,45.36 C97.88,48.49 95.88,50.2 91.93,50.2 L81.25,50.2 C81.0600375,50.2055908 80.8761796,50.1325843 80.7417977,49.9982023 C80.6074157,49.8638204 80.5344092,49.6799625 80.54,49.49 L80.54,41.23 C80.5344092,41.0400375 80.6074157,40.8561796 80.7417977,40.7217977 C80.8761796,40.5874157 81.0600375,40.5144092 81.25,40.52 L81.25,40.52 M100,52.22 C102.645295,50.7326298 104.238828,47.8928225 104.13,44.86 C104.13,39.11 99.7,35.28 93.34,35.28 L75.2,35.28 C75.0118122,35.274522 74.8295581,35.3461785 74.695492,35.4783562 C74.561426,35.610534 74.4871918,35.7917534 74.49,35.98 L74.49,35.98 L74.49,71.37 C74.4844092,71.5599625 74.5574157,71.7438204 74.6917977,71.8782023 C74.8261796,72.0125843 75.0100375,72.0855908 75.2,72.08 L92.54,72.08 C101.21,72.08 105.75,68.35 105.75,61.08 C105.75,53.81 100,52.21 100,52.21" id="Shape" fill="#07467F" fill-rule="nonzero"></path>
            <circle id="Oval" fill="#F8CD50" fill-rule="nonzero" cx="308.13" cy="186.1" r="83.22"></circle>
            <path d="M308.13,102.88 C270.013136,102.868752 236.761162,128.754924 227.422016,165.709975 C218.08287,202.665027 235.044225,241.240927 268.59,259.34 L347.22,112.63 C335.191602,106.21086 321.764052,102.861701 308.13,102.88 Z" id="Path" fill="url(#linearGradient-3)" fill-rule="nonzero"></path>
            <path d="M308.7,145.57 L321.63,171.77 L350.54,175.97 C350.779821,176.002639 350.979741,176.16978 351.054357,176.400023 C351.128973,176.630266 351.065091,176.882899 350.89,177.05 L330,197.45 L334.94,226.24 C334.984968,226.479017 334.888339,226.72257 334.691739,226.865746 C334.495139,227.008923 334.233684,227.026147 334.02,226.91 L308.16,213.32 L282.29,226.91 C282.076316,227.026147 281.814861,227.008923 281.618261,226.865746 C281.421661,226.72257 281.325032,226.479017 281.37,226.24 L286.31,197.45 L265.39,177.05 C265.214909,176.882899 265.151027,176.630266 265.225643,176.400023 C265.300259,176.16978 265.500179,176.002639 265.74,175.97 L294.66,171.77 L307.59,145.57 C307.699781,145.365623 307.913004,145.238119 308.145,145.238119 C308.376996,145.238119 308.590219,145.365623 308.7,145.57 L308.7,145.57 Z" id="Path" fill="#FFFFFF" fill-rule="nonzero"></path>
            <path d="M350.54,176 L321.63,171.8 L319.77,168 L290.37,222.64 L308.13,213.31 L334,226.91 C334.213684,227.026147 334.475139,227.008923 334.671739,226.865746 C334.868339,226.72257 334.964968,226.479017 334.92,226.24 L330,197.45 L350.92,177.05 C351.078478,176.877097 351.127786,176.63047 351.04797,176.409925 C350.968154,176.18938 350.772428,176.031432 350.54,176 L350.54,176 Z" id="Path" fill="url(#linearGradient-4)" fill-rule="nonzero"></path>
        </g>
    </g>
</svg>