<?xml version="1.0" encoding="UTF-8"?>
<svg width="178px" height="178px" viewBox="0 0 178 178" version="1.1" xmlns="http://www.w3.org/2000/svg" xmlns:xlink="http://www.w3.org/1999/xlink">
    <!-- Generator: Sketch 53.2 (72643) - https://sketchapp.com -->
    <title>Illustration</title>
    <desc>Created with Sketch.</desc>
    <g id="Ω" stroke="none" stroke-width="1" fill="none" fill-rule="evenodd">
        <g id="CoDi-01-00-06" transform="translate(-71.000000, -76.000000)">
            <g id="Illustration/Qr3" transform="translate(71.000000, 76.000000)">
                <g id="Bg" stroke-width="1" fill-rule="evenodd">
                    <path d="M88.9146828,178.000032 C39.808327,178.000032 -3.23049002e-05,138.19135 -3.23049002e-05,89.0853172 C-3.23049002e-05,39.9789615 39.808327,0.170602178 88.9146828,0.170602178 C138.020715,0.170602178 177.829398,39.9789615 177.829398,89.0853172 C177.829398,138.19135 138.020715,178.000032 88.9146828,178.000032 Z" id="Fill-1" fill="#FFFFFF"></path>
                    <path d="M88.9146828,178.000032 C39.808327,178.000032 -3.23049002e-05,138.19135 -3.23049002e-05,89.0853172 C-3.23049002e-05,39.9789615 39.808327,0.170602178 88.9146828,0.170602178 C138.020715,0.170602178 177.829398,39.9789615 177.829398,89.0853172 C177.829398,138.19135 138.020715,178.000032 88.9146828,178.000032 Z" id="Fill-1" fill-opacity="0.85" fill="#5BBEFF"></path>
                </g>
                <path d="M129.125102,48.9983212 C124.668342,35.5286242 111.974124,25.81 97.01,25.81 C94.4019769,25.81 91.8629029,26.1052059 89.4243698,26.6640258" id="Oval" stroke="#FFCD4E" stroke-width="3.56" stroke-linecap="round" fill-rule="nonzero"></path>
                <path d="M116.177935,39.7856101 C111.214383,34.9902196 104.456722,32.04 97.01,32.04 C91.530184,32.04 86.4234971,33.6375558 82.1302751,36.3923317" id="Oval" stroke="#FCB73B" stroke-width="3.56" stroke-linecap="round" stroke-linejoin="round" fill-rule="nonzero"></path>
                <polygon id="Fill-54-Copy" fill="#FFCD4E" fill-rule="evenodd" points="138.84 48.06 142.881045 49.3579985 144.179342 53.4 145.478955 49.3579985 149.52 48.06 145.478955 46.7606917 144.179342 42.72 142.881045 46.7606917"></polygon>
                <polygon id="Fill-54-Copy-2" fill="#FFCD4E" fill-rule="evenodd" points="117.48 87.22 120.17403 88.0853324 121.039561 90.78 121.90597 88.0853324 124.6 87.22 121.90597 86.3537945 121.039561 83.66 120.17403 86.3537945"></polygon>
                <g id="Group" stroke-width="1" fill-rule="evenodd" transform="translate(64.080000, 47.170000)">
                    <path d="M49.2668791,86.4845275 C49.2668791,88.6745143 47.3503473,90.4490374 44.989011,90.4490374 L4.3521978,90.4490374 C1.99203516,90.4490374 0.0778505495,88.6745143 0.0778505495,86.4845275 L0.0778505495,6.4702022 C0.0778505495,4.28138901 1.99203516,2.50921319 4.3521978,2.50921319 L44.989011,2.50921319 C47.3503473,2.50921319 49.2668791,4.28138901 49.2668791,6.4702022 L49.2668791,86.4845275" id="Fill-13" fill="#004481"></path>
                    <path d="M49.2668791,84.2014721 C49.2668791,86.3891116 47.3503473,88.1624611 44.989011,88.1624611 L4.3521978,88.1624611 C1.99203516,88.1624611 0.0778505495,86.3891116 0.0778505495,84.2014721 L0.0778505495,4.18245231 C0.0778505495,1.99481275 1.99203516,0.221463297 4.3521978,0.221463297 L44.989011,0.221463297 C47.3503473,0.221463297 49.2668791,1.99481275 49.2668791,4.18245231 L49.2668791,84.2014721" id="Fill-14" fill="#1973B8"></path>
                    <polygon id="Fill-15" fill="#FFFFFF" points="2.63518242 75.0768791 46.7776176 75.0768791 46.7776176 10.8630857 2.63518242 10.8630857"></polygon>
                    <path d="M28.3020391,81.5572919 C28.3020391,83.564193 26.675393,85.1873182 24.6731864,85.1873182 C22.6674589,85.1873182 21.0419864,83.564193 21.0419864,81.5572919 C21.0419864,79.552738 22.6674589,77.9284391 24.6731864,77.9284391 C26.675393,77.9284391 28.3020391,79.552738 28.3020391,81.5572919" id="Fill-16" fill="#004481"></path>
                    <path d="M30.9965679,3.83271165 C30.9965679,4.54158198 30.421491,5.11431165 29.7126207,5.11431165 L19.6323437,5.11431165 C18.9211262,5.11431165 18.3483965,4.54158198 18.3483965,3.83271165 C18.3483965,3.12266769 18.9211262,2.5487644 19.6323437,2.5487644 L29.7126207,2.5487644 C30.421491,2.5487644 30.9965679,3.12266769 30.9965679,3.83271165" id="Fill-17" fill="#004481"></path>
                    <path d="M16.2930246,0.221815385 L3.84084879,0.221815385 C3.20122242,0.221815385 2.50995648,0.502312088 1.89732352,0.940074725 C2.59211033,0.488228571 3.43829495,0.221815385 4.35254989,0.221815385 L16.2930246,0.221815385 M0.571125714,2.33434286 C0.263635604,2.82491868 0.0782026374,3.34718242 0.0782026374,3.83775824 L0.0782026374,4.1828044 C0.0782026374,3.51501099 0.25542022,2.88594725 0.571125714,2.33434286" id="Fill-18" fill="#FFFFFF"></path>
                    <path d="M10.9691033,36.9586681 L20.202022,36.9586681 L20.202022,27.7245758 L10.9691033,27.7245758 L10.9691033,36.9586681 Z M9.49150769,38.4362637 L21.6796176,38.4362637 L21.6796176,26.2481538 L9.49150769,26.2481538 L9.49150769,38.4362637 Z" id="Fill-19" fill="#004481"></path>
                    <path d="M13.6261934,34.301578 L17.5449319,34.301578 L17.5449319,30.3840132 L13.6261934,30.3840132 L13.6261934,34.301578 Z M12.1485978,35.778 L19.0213538,35.778 L19.0213538,28.905244 L12.1485978,28.905244 L12.1485978,35.778 Z" id="Fill-20" fill="#004481"></path>
                    <path d="M29.0253451,36.9586681 L38.2582637,36.9586681 L38.2582637,27.7245758 L29.0253451,27.7245758 L29.0253451,36.9586681 Z M27.5477495,38.4362637 L39.7358593,38.4362637 L39.7358593,26.2481538 L27.5477495,26.2481538 L27.5477495,38.4362637 Z" id="Fill-21" fill="#004481"></path>
                    <path d="M31.6824352,34.301578 L35.6011736,34.301578 L35.6011736,30.3840132 L31.6824352,30.3840132 L31.6824352,34.301578 Z M30.2060132,35.778 L37.0787692,35.778 L37.0787692,28.905244 L30.2060132,28.905244 L30.2060132,35.778 Z" id="Fill-22" fill="#004481"></path>
                    <path d="M10.8024484,54.8599912 L20.035367,54.8599912 L20.035367,45.6270725 L10.8024484,45.6270725 L10.8024484,54.8599912 Z M9.32485275,56.3364132 L21.5129626,56.3364132 L21.5129626,44.1483033 L9.32485275,44.1483033 L9.32485275,56.3364132 Z" id="Fill-23" fill="#004481"></path>
                    <path d="M13.4607121,52.2029011 L17.3782769,52.2029011 L17.3782769,48.2841626 L13.4607121,48.2841626 L13.4607121,52.2029011 Z M11.9831165,53.6793231 L18.8558725,53.6793231 L18.8558725,46.806567 L11.9831165,46.806567 L11.9831165,53.6793231 Z" id="Fill-24" fill="#004481"></path>
                    <polygon id="Fill-25" fill="#004481" points="9.99616703 42.3409187 12.4584352 42.3409187 12.4584352 39.8786505 9.99616703 39.8786505"></polygon>
                    <polygon id="Fill-26" fill="#004481" points="13.6977846 42.1343604 15.7481099 42.1343604 15.7481099 40.0840352 13.6977846 40.0840352"></polygon>
                    <polygon id="Fill-27" fill="#004481" points="17.4310901 42.1343604 19.4814154 42.1343604 19.4814154 40.0840352 17.4310901 40.0840352"></polygon>
                    <polygon id="Fill-28" fill="#004481" points="31.1296571 43.291556 34.1975165 43.291556 34.1975165 40.2236967 31.1296571 40.2236967"></polygon>
                    <polygon id="Fill-29" fill="#004481" points="37.2325143 42.0146505 39.5304747 42.0146505 39.5304747 39.7166901 37.2325143 39.7166901"></polygon>
                    <polygon id="Fill-30" fill="#004481" points="37.2325143 45.2984571 39.5304747 45.2984571 39.5304747 43.0004967 37.2325143 43.0004967"></polygon>
                    <polygon id="Fill-31" fill="#004481" points="23.1478242 54.3447692 25.4457846 54.3447692 25.4457846 52.0468088 23.1478242 52.0468088"></polygon>
                    <polygon id="Fill-32" fill="#004481" points="23.1478242 50.1572703 25.4457846 50.1572703 25.4457846 47.8593099 23.1478242 47.8593099"></polygon>
                    <polygon id="Fill-33" fill="#004481" points="25.6499956 52.1125319 27.947956 52.1125319 27.947956 49.8145714 25.6499956 49.8145714"></polygon>
                    <polygon id="Fill-34" fill="#004481" points="32.2762901 52.6078022 34.5742505 52.6078022 34.5742505 50.3098418 32.2762901 50.3098418"></polygon>
                    <polygon id="Fill-35" fill="#004481" points="29.7588615 56.2448703 39.5304747 56.2448703 39.5304747 46.6117451 29.7588615 46.6117451"></polygon>
                    <polygon id="Fill-36" fill="#004481" points="23.3285626 44.4557934 27.9714286 44.4557934 27.9714286 39.8129275 23.3285626 39.8129275"></polygon>
                    <polygon id="Fill-37" fill="#004481" points="22.4553846 37.0243912 24.5221407 37.0243912 24.5221407 34.9576352 22.4553846 34.9576352"></polygon>
                    <polygon id="Fill-38" fill="#004481" points="22.4553846 33.2593978 24.5221407 33.2593978 24.5221407 31.1926418 22.4553846 31.1926418"></polygon>
                    <polygon id="Fill-39" fill="#004481" points="22.4553846 29.495578 24.5221407 29.495578 24.5221407 27.428822 22.4553846 27.428822"></polygon>
                    <polygon id="Fill-40" fill="#004481" points="24.7064 35.0174901 26.773156 35.0174901 26.773156 32.9507341 24.7064 32.9507341"></polygon>
                    <polygon id="Fill-41" fill="#004481" points="24.7064 31.2524967 26.773156 31.2524967 26.773156 29.1857407 24.7064 29.1857407"></polygon>
                    <path d="M16.2930246,0.221815385 L4.35254989,0.221815385 C3.43829495,0.221815385 2.59211033,0.488228571 1.89732352,0.940074725 C1.37036527,1.31563516 0.900914725,1.80738462 0.571125714,2.33434286 C0.25542022,2.88594725 0.0782026374,3.51501099 0.0782026374,4.1828044 L0.0782026374,43.0521363 L31.1170993,0.221815385 L16.2930246,0.221815385 Z" id="Fill-42" fill="#FFFFFF" opacity="0.3"></path>
                    <path d="M33.1203622,88.1624611 L45.0620105,88.1624611 C45.9750919,88.1624611 46.8224501,87.8960479 47.5172369,87.4442018 C48.0441952,87.0686413 48.5124721,86.5768919 48.8422611,86.0499336 C49.1579666,85.4971556 49.3363578,84.8680919 49.3363578,84.2014721 L49.3363578,33.5958765 L6.56119736,88.1624611 L33.1203622,88.1624611 Z" id="Fill-43" fill="#D3D3D3" opacity="0.3" style="mix-blend-mode: multiply;"></path>
                </g>
                <g id="Group-2" stroke-width="1" fill-rule="evenodd" transform="translate(121.040000, 56.070000)">
                    <path d="M26.1848625,14.6022177 C26.1848625,21.6149111 20.5019524,27.2978212 13.489259,27.2978212 C6.4765656,27.2978212 0.791437292,21.6149111 0.791437292,14.6022177 C0.791437292,7.58952429 6.4765656,1.90550506 13.489259,1.90550506 C20.5019524,1.90550506 26.1848625,7.58952429 26.1848625,14.6022177" id="Fill-45" fill="#BA9A3D"></path>
                    <path d="M26.1848625,12.6981544 C26.1848625,19.7097387 20.5019524,25.393758 13.489259,25.393758 C6.4765656,25.393758 0.791437292,19.7097387 0.791437292,12.6981544 C0.791437292,5.68657011 6.4765656,0.000332723077 13.489259,0.000332723077 C20.5019524,0.000332723077 26.1848625,5.68657011 26.1848625,12.6981544" id="Fill-46" fill="#FFCD4E"></path>
                    <path d="M4.78644328,21.9260071 C7.06005097,24.0709619 10.117776,25.3940907 13.4893699,25.3940907 C20.5020633,25.3940907 26.1849734,19.7089624 26.1849734,12.6984871 C26.1849734,9.32689329 24.8618447,6.26916822 22.7168899,3.99556052 L4.78644328,21.9260071 Z" id="Fill-47" fill="#FCB73B"></path>
                    <path d="M15.1774959,16.1693434 C15.1774959,15.2299552 14.8015188,14.8528691 13.0281048,14.0498974 C10.4594826,12.8842575 9.67536526,12.0025414 9.67536526,10.2047277 C9.67536526,8.44018629 10.796642,7.16585691 12.5567471,6.78766168 L12.5567471,4.45305475 L12.6776365,4.45305475 L14.7294288,5.5466046 L14.7294288,6.7432986 C15.4303654,6.84644275 16.058103,7.06714906 16.6425865,7.40209029 L16.7557123,7.46641675 L16.8300205,7.50856168 L16.8167116,7.59728783 L16.7956391,7.7237226 L16.5305697,9.38844706 L16.4806613,9.70120675 L16.448498,9.90860414 L16.2788093,9.77995122 L16.0270488,9.58808091 C15.3338757,9.05683306 14.472123,8.75183691 13.651406,8.75183691 C12.5512017,8.75183691 11.9511911,9.24648522 11.9511911,10.0816201 C11.9511911,10.8624103 12.3371499,11.2250784 14.0850551,12.0247229 C16.6614408,13.1970172 17.4544308,14.13086 17.4544308,16.0451268 C17.4544308,17.8263043 16.4019168,19.1350151 14.7294288,19.6030455 L14.7294288,22.0840506 L14.6052122,22.0840506 L12.5567471,20.9905008 L12.5567471,19.7627526 C11.5230874,19.6762446 10.5448816,19.3978663 9.71751018,18.9619991 L9.60105711,18.8987817 L9.52231265,18.8566368 L9.53451249,18.7690197 L9.5533668,18.6381486 L9.80180003,16.9368246 L9.84394495,16.6429192 L9.87278095,16.4466126 L10.0380334,16.5564112 L10.2864666,16.7183364 C11.2491454,17.3549466 12.3205137,17.7120694 13.3164648,17.7120694 C14.4754502,17.7120694 15.1774959,17.1242586 15.1774959,16.1693434" id="Fill-48" fill="#FFFFFF"></path>
                </g>
            </g>
        </g>
    </g>
</svg>