<?xml version="1.0" encoding="UTF-8"?>
<svg width="76px" height="113px" viewBox="0 0 76 113" version="1.1" xmlns="http://www.w3.org/2000/svg" xmlns:xlink="http://www.w3.org/1999/xlink">
    <!-- Generator: Sketch 55.2 (78181) - https://sketchapp.com -->
    <title>World/World Copy</title>
    <desc>Created with Sketch.</desc>
    <defs>
        <linearGradient x1="35.3087134%" y1="1.03379895%" x2="64.6941014%" y2="98.9811674%" id="linearGradient-1">
            <stop stop-color="#192647" offset="0%"></stop>
            <stop stop-color="#192647" stop-opacity="0.5" offset="0%"></stop>
            <stop stop-color="#192647" stop-opacity="0" offset="100%"></stop>
        </linearGradient>
        <linearGradient x1="28.0813953%" y1="20.8641667%" x2="62.7915475%" y2="67.0008333%" id="linearGradient-2">
            <stop stop-color="#FFFFFF" stop-opacity="0.5" offset="0%"></stop>
            <stop stop-color="#ECF7F8" stop-opacity="0.1" offset="100%"></stop>
        </linearGradient>
        <linearGradient x1="99.9627699%" y1="49.9880384%" x2="0.0148920328%" y2="49.9880384%" id="linearGradient-3">
            <stop stop-color="#49A5E6" stop-opacity="0.2" offset="0%"></stop>
            <stop stop-color="#49A5E6" stop-opacity="0" offset="100%"></stop>
        </linearGradient>
    </defs>
    <g id="Page-1" stroke="none" stroke-width="1" fill="none" fill-rule="evenodd">
        <g id="Configure_Products_MX_01_01_00_03" transform="translate(-123.000000, -112.000000)">
            <g id="Settings-and-Configuration/Mobile-Settings" transform="translate(90.000000, 92.000000)">
                <g id="Mobile-Settings" transform="translate(33.133333, 19.833333)">
                    <path d="M28.1166667,18.6433333 L70.6766667,18.6433333 C73.5,18.6433333 75.7866667,20.93 75.7866667,23.7533333 L75.7866667,107.1 C75.7866667,109.923333 73.5,112.186667 70.6766667,112.186667 L28.1166667,112.186667 C25.2933333,112.186667 23.0066667,109.9 23.0066667,107.1 L23.0066667,23.7533333 C23.03,20.93 25.2933333,18.6433333 28.1166667,18.6433333 Z" id="Path" fill="url(#linearGradient-1)" fill-rule="nonzero"></path>
                    <path d="M16.9866667,6.95333333 L59.5466667,6.95333333 C62.37,6.95333333 64.6566667,9.24 64.6566667,12.04 L64.6566667,95.3866667 C64.6566667,98.21 62.37,100.496667 59.5466667,100.496667 L16.9866667,100.496667 C14.1633333,100.496667 11.8766667,98.21 11.8766667,95.3866667 L11.8766667,12.04 C11.8766667,9.21666667 14.1633333,6.95333333 16.9866667,6.95333333 Z" id="Path" fill="#1464A5" fill-rule="nonzero"></path>
                    <rect id="Rectangle" fill="#49A5E6" fill-rule="nonzero" x="11.8766667" y="18.69" width="52.7566667" height="70.0466667"></rect>
                    <polygon id="Path" fill="url(#linearGradient-2)" opacity="0.5" points="11.97 18.7366667 11.97 88.69 30.1 88.69 64.6333333 24.92 64.6333333 18.69"></polygon>
                    <path d="M46.9,49.3733333 L43.5166667,55.79 C43.47,55.8833333 43.3533333,55.93 43.2366667,55.86 C43.2133333,55.8366667 43.1666667,55.8133333 43.1666667,55.79 L39.7833333,49.3733333 C39.76,49.3033333 39.69,49.2566667 39.5966667,49.2566667 L37.9633333,49.2566667 C37.8933333,49.2566667 37.8233333,49.3266667 37.8233333,49.3966667 C37.8233333,49.42 37.8233333,49.4433333 37.8466667,49.4666667 L43.1666667,59.4066667 C43.2133333,59.5 43.33,59.5466667 43.4233333,59.4766667 C43.4466667,59.4533333 43.4933333,59.43 43.4933333,59.4066667 L48.8133333,49.4666667 C48.86,49.3966667 48.8366667,49.3033333 48.7433333,49.2566667 C48.72,49.2566667 48.6966667,49.2333333 48.6733333,49.2333333 L47.04,49.2333333 C46.9933333,49.28 46.9233333,49.3033333 46.9,49.3733333" id="Path" fill="#FFFFFF" fill-rule="nonzero"></path>
                    <path d="M48.8133333,57.9366667 L52.1966667,51.52 C52.2433333,51.4266667 52.3833333,51.38 52.4766667,51.45 C52.5,51.4733333 52.5466667,51.4966667 52.5466667,51.52 L55.93,57.9366667 C55.9533333,58.0066667 56.0233333,58.03 56.0933333,58.0533333 L57.7266667,58.0533333 C57.7966667,58.0533333 57.8666667,57.9833333 57.8666667,57.9133333 C57.8666667,57.89 57.8666667,57.8666667 57.8433333,57.8433333 L52.5233333,47.9033333 C52.4766667,47.81 52.36,47.7633333 52.2666667,47.8333333 C52.2433333,47.8566667 52.1966667,47.88 52.1966667,47.9033333 L46.8766667,57.8433333 C46.83,57.9133333 46.8533333,58.0066667 46.9233333,58.03 C46.9466667,58.0533333 46.97,58.0533333 46.9933333,58.0533333 L48.6266667,58.0533333 C48.72,58.0533333 48.79,58.0066667 48.8133333,57.9366667" id="Path" fill="#FFFFFF" fill-rule="nonzero"></path>
                    <path d="M23.59,58.0533333 L20.5566667,58.0533333 C20.44,58.0533333 20.37,57.96 20.37,57.8666667 C20.37,57.8666667 20.37,57.8666667 20.37,57.8666667 L20.37,55.1366667 C20.37,55.02 20.4633333,54.95 20.5566667,54.95 C20.5566667,54.95 20.5566667,54.95 20.5566667,54.95 L23.59,54.95 C25.0366667,54.95 25.69,55.37 25.69,56.5133333 C25.69,57.6566667 25.06,58.0533333 23.59,58.0533333 M20.5566667,50.75 L23.5666667,50.75 C24.6633333,50.75 25.2233333,51.2166667 25.2233333,52.1033333 C25.2233333,52.99 24.6633333,53.4566667 23.5666667,53.4566667 L20.5566667,53.4566667 C20.44,53.4566667 20.37,53.3633333 20.37,53.27 L20.37,50.96 C20.3466667,50.8433333 20.44,50.75 20.5566667,50.75 M25.7833333,54.0166667 C26.4833333,53.6666667 26.9266667,52.8966667 26.9266667,51.9633333 C26.9266667,50.3533333 25.69,49.28 23.9166667,49.28 L18.8533333,49.28 C18.7366667,49.28 18.6666667,49.3733333 18.6666667,49.4666667 L18.6666667,59.3366667 C18.6666667,59.4533333 18.76,59.5233333 18.8533333,59.5233333 L23.6833333,59.5233333 C26.11,59.5233333 27.37,58.4733333 27.37,56.4433333 C27.3933333,54.46 25.7833333,54.0166667 25.7833333,54.0166667" id="Shape" fill="#FFFFFF" fill-rule="nonzero"></path>
                    <path d="M33.95,58.0533333 L30.9166667,58.0533333 C30.8,58.0533333 30.73,57.96 30.73,57.8666667 L30.73,55.1366667 C30.73,55.02 30.8233333,54.95 30.9166667,54.95 L33.95,54.95 C35.3966667,54.95 36.05,55.37 36.05,56.5133333 C36.05,57.6566667 35.42,58.0533333 33.95,58.0533333 M30.9166667,50.75 L33.9266667,50.75 C35.0233333,50.75 35.5833333,51.2166667 35.5833333,52.1033333 C35.5833333,52.99 35.0233333,53.4566667 33.9266667,53.4566667 L30.9166667,53.4566667 C30.8,53.4566667 30.73,53.3633333 30.73,53.27 L30.73,50.96 C30.73,50.8433333 30.8233333,50.75 30.9166667,50.75 M36.1433333,54.0166667 C36.8433333,53.6666667 37.2866667,52.8966667 37.2866667,51.9633333 C37.2866667,50.3533333 36.05,49.28 34.2766667,49.28 L29.2133333,49.28 C29.0966667,49.28 29.0266667,49.3733333 29.0266667,49.4666667 L29.0266667,59.3366667 C29.0266667,59.4533333 29.12,59.5233333 29.2133333,59.5233333 L34.0666667,59.5233333 C36.4933333,59.5233333 37.7533333,58.4733333 37.7533333,56.4433333 C37.7533333,54.46 36.1433333,54.0166667 36.1433333,54.0166667" id="Shape" fill="#FFFFFF" fill-rule="nonzero"></path>
                    <path d="M36.8666667,0.163333333 L2.98666667,0.163333333 C1.33,0.163333333 0,1.49333333 0,3.15 L0,27.02 C0,28.6766667 1.33,30.0066667 2.98666667,30.0066667 L33.2733333,30.0066667 L39.2,35.9333333 C39.34,36.0966667 39.5966667,36.0966667 39.76,35.9333333 C39.83,35.8633333 39.8766667,35.77 39.8766667,35.6533333 L39.8766667,33.46 L39.8766667,3.12666667 C39.8766667,1.49333333 38.5233333,0.163333333 36.8666667,0.163333333 C36.89,0.163333333 36.89,0.163333333 36.8666667,0.163333333 Z" id="Path" fill="#D4EDFC" fill-rule="nonzero"></path>
                    <path d="M36.8666667,0.163333333 L29.54,0.163333333 L8.54,30.0066667 L33.2733333,30.0066667 L39.2,35.9333333 C39.3633333,36.0966667 39.5966667,36.0966667 39.76,35.9333333 C39.83,35.8633333 39.8766667,35.77 39.8766667,35.6533333 L39.8766667,3.15 C39.8766667,1.49333333 38.5233333,0.163333333 36.8666667,0.163333333 C36.8666667,0.163333333 36.8666667,0.163333333 36.8666667,0.163333333 Z" id="Path" fill="url(#linearGradient-3)" fill-rule="nonzero"></path>
                    <path d="M19.6,18.2 C21.42,18.2 22.9133333,16.73 22.9133333,14.8866667 C22.9133333,13.0433333 21.4433333,11.5733333 19.6,11.5733333 C17.78,11.5733333 16.2866667,13.0433333 16.2866667,14.8866667 C16.2866667,14.8866667 16.2866667,14.8866667 16.2866667,14.8866667 C16.2866667,16.7066667 17.78,18.2 19.6,18.2 C19.6,18.2 19.6,18.2 19.6,18.2 Z M27.3466667,16.6133333 L25.4566667,16.8933333 C25.34,17.1966667 25.2233333,17.5 25.06,17.8033333 L26.2266667,19.25 C25.5966667,20.2066667 24.78,21.0233333 23.8,21.63 L22.3533333,20.44 C22.0966667,20.58 21.8166667,20.6966667 21.5366667,20.79 L21.2333333,22.68 C20.1133333,22.9133333 18.9466667,22.9133333 17.8033333,22.6566667 L17.5933333,20.79 C17.3133333,20.6966667 17.0566667,20.6033333 16.8,20.4633333 L15.2833333,21.6066667 C14.3033333,21 13.4866667,20.1833333 12.8566667,19.2033333 L14,17.6866667 C13.86,17.4066667 13.7433333,17.15 13.65,16.8466667 L11.7833333,16.6366667 C11.6433333,16.0533333 11.5966667,15.47 11.5966667,14.8633333 C11.5966667,14.3266667 11.6433333,13.7666667 11.76,13.2533333 L13.6266667,12.9966667 C13.72,12.67 13.86,12.3666667 14.0233333,12.0633333 L12.8566667,10.5933333 C13.4633333,9.66 14.2333333,8.86666667 15.1666667,8.26 L16.7066667,9.38 C17.01,9.21666667 17.3133333,9.1 17.64,8.98333333 L17.8266667,7.11666667 C18.3866667,7 18.9933333,6.93 19.5766667,6.93 C20.16,6.93 20.7433333,7 21.3266667,7.11666667 L21.56,8.98333333 C21.84,9.07666667 22.12,9.19333333 22.4,9.33333333 L23.8933333,8.19 C24.8733333,8.82 25.69,9.66 26.32,10.64 L25.1533333,12.1333333 C25.2933333,12.4133333 25.41,12.7166667 25.5033333,12.9966667 L27.37,13.23 C27.4866667,13.7666667 27.5333333,14.3033333 27.5333333,14.8633333 C27.5566667,15.47 27.4866667,16.0533333 27.3466667,16.6133333 L27.3466667,16.6133333 Z" id="Shape" fill="#004481"></path>
                </g>
            </g>
        </g>
    </g>
</svg>