<svg xmlns="http://www.w3.org/2000/svg" width="98" height="96"><defs><linearGradient id="a" x1="6.336%" x2="47.616%" y1="12.104%" y2="81.056%"><stop offset="0%" stop-color="#1A2542" stop-opacity=".5"/><stop offset="100%" stop-color="#1A2542" stop-opacity="0"/></linearGradient></defs><g fill="none" transform="translate(.6 .64)"><path fill="url(#a)" d="M24.502 95.165h80.032a4.405 4.405 0 003.826-6.588L68.347 18.48a4.404 4.404 0 00-7.651 0l-40.02 70.097a4.404 4.404 0 003.826 6.588z"/><path fill="#DA3951" d="M4.54 78.917h80.034a4.405 4.405 0 003.825-6.59L48.384 2.221a4.404 4.404 0 00-7.651 0L.72 72.326a4.406 4.406 0 003.82 6.59z"/><path fill="#FFF" d="M44.556 56.376a3.473 3.473 0 01-3.473-3.475V23.86a3.475 3.475 0 116.948 0V52.9a3.475 3.475 0 01-3.475 3.475z"/><circle cx="44.556" cy="65.839" r="4.054" fill="#FFF"/></g></svg>