<svg width="300" height="120" xmlns="http://www.w3.org/2000/svg" xmlns:xlink="http://www.w3.org/1999/xlink"><defs><path id="a" d="M299.866.3v92.1H0V.3h299.866z"/><path id="c" d="M43.29 27.222H.26V.187h43.03z"/><path d="M28.331 1.651c.413-.844.96-1.266 1.505-1.266.543 0 1.09.422 1.507 1.266l27.67 56.13c.83 1.686-.019 3.056-1.905 3.056H2.561c-1.88 0-2.737-1.368-1.903-3.056L28.331 1.65zm-1.24 17.557V43.66h5.488v-19.3l-5.207-5.153h-.28zm-.838 31.322a3.435 3.435 0 003.429 3.439c1.894 0 3.43-1.54 3.43-3.44a3.432 3.432 0 00-3.43-3.433 3.432 3.432 0 00-3.43 3.434z" id="e"/></defs><g fill="none" fill-rule="evenodd"><g transform="translate(0 13.797)"><mask id="b" fill="#fff"><use xlink:href="#a"/></mask><path d="M284.517.3h-62.008c-.05 0-.1.004-.15.004-.056 0-.111-.004-.168-.004H49.621c-8.723 0-15.794 6.318-15.794 14.111v2.704c0 6.484 4.898 11.944 11.569 13.596h6.06c8.206 0 14.86 6.662 14.86 14.88s-6.654 14.88-14.86 14.88h-38.38C5.63 61.883 0 68.427 0 76.293v.002C0 85.189 7.2 92.4 16.084 92.4H260.99c8.884 0 16.084-7.21 16.084-16.106v-.002c0-8.895-7.2-16.106-16.084-16.106h-48.68c-6.052-2.585-10.35-8.507-10.35-15.14v-.001c0-6.158 3.705-11.117 9.054-13.82h11.178c.866 0 1.713-.063 2.54-.183h59.786c8.476 0 15.349-6.882 15.349-15.37 0-8.49-6.873-15.372-15.35-15.372" fill="#FCDFDF" mask="url(#b)"/></g><g transform="translate(246.623 92.493)"><mask id="d" fill="#fff"><use xlink:href="#c"/></mask><path d="M43.29 13.704c0 7.466-6.043 13.518-13.498 13.518H13.758C6.304 27.222.26 21.17.26 13.704.26 6.238 6.304.187 13.758.187h16.034c7.455 0 13.498 6.051 13.498 13.517" fill="#FCDFDF" mask="url(#d)"/></g><path d="M82.964 14.097c0 7.513-6.082 13.603-13.583 13.603H14.506C7.005 27.7.923 21.61.923 14.097.923 6.585 7.005.495 14.506.495H69.38c7.501 0 13.583 6.09 13.583 13.602" fill="#FCDFDF"/><path d="M180.174 70.11a2.001 2.001 0 01-2 2.002H76.718a2 2 0 01-2-2.002v-.157c0-1.105.895-2.002 2-2.002h101.454c1.105 0 2 .897 2 2.002v.157zm-9.649-19.847c0 1.15.654 2.081-.494 2.081H23.401a2.08 2.08 0 01-2.077-2.08c0-1.15.93-2.082 2.078-2.082H167.23c1.148 0 2.965.932 2.965 2.081h.33zm.379 9.885a2.08 2.08 0 01-2.077 2.08H14.05a2.08 2.08 0 01-2.079-2.08 2.08 2.08 0 012.079-2.081h154.776a2.08 2.08 0 012.077 2.08m-99.414 9.916c0 1.133-.916 2.05-2.047 2.05h-1.62a2.048 2.048 0 01-2.046-2.05V70c0-1.132.916-2.049 2.046-2.049h1.62c1.131 0 2.047.917 2.047 2.05v.062z" fill="#F69799"/><path fill="#FFF" d="M151.869 78.217h15.635V40.733H151.87z"/><path d="M156.832 24.357l-27.673 56.13c-.834 1.689.023 3.056 1.903 3.056h54.547c1.886 0 2.734-1.37 1.905-3.056l-27.67-56.13c-.417-.845-.964-1.266-1.507-1.266-.546 0-1.092.421-1.505 1.266zm-1.24 17.557h.281l5.207 5.153v19.299h-5.488V41.914zm-.838 31.321a3.43 3.43 0 116.86 0c0 1.9-1.537 3.44-3.431 3.44a3.434 3.434 0 01-3.43-3.44z" fill="#F7893B"/><g transform="translate(128.5 22.706)"><mask id="f" fill="#fff"><use xlink:href="#e"/></mask><path fill="#DA3851" mask="url(#f)" d="M-1.033 62.208h61.737V-.99H-1.033z"/></g></g></svg>