<svg xmlns="http://www.w3.org/2000/svg" width="272" height="112" viewBox="0 0 272 112">
  <defs>
    <linearGradient id="ilu_digital_card_activation-a" x1="26.94%" x2="74.788%" y1="15.717%" y2="86.569%">
      <stop offset="0%" stop-color="#192647"/>
      <stop offset="0%" stop-color="#192647" stop-opacity=".5"/>
      <stop offset="100%" stop-color="#192647" stop-opacity="0"/>
    </linearGradient>
    <linearGradient id="ilu_digital_card_activation-b" x1="100%" x2="0%" y1="50.002%" y2="50.002%">
      <stop offset="0%" stop-color="#043263" stop-opacity=".5"/>
      <stop offset="100%" stop-color="#043263" stop-opacity="0"/>
    </linearGradient>
    <linearGradient id="ilu_digital_card_activation-c" x1="100%" x2="0%" y1="50%" y2="50%">
      <stop offset="0%" stop-color="#043263"/>
      <stop offset="100%" stop-color="#043263" stop-opacity="0"/>
    </linearGradient>
  </defs>
  <g fill="none" transform="translate(104 30)">
    <path fill="url(#ilu_digital_card_activation-a)" d="M60.270303,8.07520857 L18.8560606,8.07520857 C17.0276634,8.07520857 15.5454545,9.55558696 15.5454545,11.3817263 L15.5454545,21.1172644 L10.5176515,21.1172644 C8.68925428,21.1172644 7.20704545,22.5976428 7.20704545,24.4237821 L7.20704545,49.0070223 C7.20704545,50.8331616 8.68925428,52.31354 10.5176515,52.31354 L55.7146212,52.31354 C57.5430185,52.31354 59.0252273,50.8331616 59.0252273,49.0070223 L59.0252273,36.8433501 L60.270303,36.8433501 C61.080878,36.8429694 61.8580602,36.5208052 62.430683,35.9478108 C63.0033059,35.3748165 63.3244036,34.5979885 63.3232606,33.7884153 L63.3232606,11.1243929 C63.3224633,9.44070359 61.9560742,8.07600182 60.270303,8.07520857 Z"/>
    <rect width="47.785" height="28.768" x="8.341" y=".887" fill="#49A5E6" rx="3.973"/>
    <path fill="url(#ilu_digital_card_activation-b)" d="M53.0733333,29.6552682 C53.8839083,29.6548875 54.6610905,29.3327232 55.2337134,28.7597289 C55.8063362,28.1867346 56.1274339,27.4099065 56.1262909,26.6003333 L56.1262909,3.93631099 C56.1254936,2.25262165 54.7591045,0.887919887 53.0733333,0.887126629 L31.1326515,0.887126629 L15.8131818,29.6552682 L53.0733333,29.6552682 Z"/>
    <rect width="47.785" height="4.678" x="8.341" y="4.98" fill="#043263" opacity=".6" style="mix-blend-mode:multiply"/>
    <rect width="33.731" height="4.209" x="15.368" y="18.663" fill="#FFF" rx=".518"/>
    <rect width="51.818" height="31.196" x=".01" y="13.929" fill="#1464A5" rx="3.973"/>
    <path fill="url(#ilu_digital_card_activation-c)" d="M48.5176515,45.1254581 C50.3460488,45.1254581 51.8282576,43.6450797 51.8282576,41.8189404 L51.8282576,17.2357002 C51.8282576,15.4095609 50.3460488,13.9291825 48.5176515,13.9291825 L34.0920455,13.9291825 L17.4785606,45.1254581 L48.5176515,45.1254581 Z"/>
    <rect width="51.818" height="5.072" x=".01" y="18.367" fill="#043263" opacity=".6" style="mix-blend-mode:multiply"/>
    <rect width="36.578" height="4.566" x="7.63" y="33.205" fill="#FFF" rx=".518"/>
  </g>
</svg>
