<svg xmlns="http://www.w3.org/2000/svg" xmlns:xlink="http://www.w3.org/1999/xlink" width="272" height="112" viewBox="0 0 272 112">
  <defs>
    <path id="ilu_notification_bell_s-a" d="M18.6161327,6.30276682 C15.5076529,6.77962263 12.6689834,8.24067279 10.4602229,10.5411906 C7.744745,13.3673366 6.25723382,17.1570018 6.27118499,21.2119991 C6.27381729,22.1248904 6.30724747,31.8634577 6.31303852,33.9378732 L0.331669455,44.3515666 C-0.0737043233,45.0577055 0.255069605,45.6291903 1.06660685,45.6275998 L13.3194241,45.6010931 C13.318108,45.6662997 13.3149493,45.7315062 13.3149493,45.7969777 C13.3289004,49.9826532 16.7227213,53.400164 20.8793819,53.4142126 C25.0357792,53.4282611 28.4061727,50.0340762 28.3930111,45.8484008 C28.3927479,45.7826641 28.389326,45.7179878 28.3874834,45.6522511 L40.9424884,45.7699409 C41.7534991,45.7776278 42.0875377,45.2064082 41.690324,44.4947028 L35.860312,34.0499966 L35.8176688,21.3129897 C35.8047706,17.2627635 34.2646134,13.4603752 31.4814855,10.6061321 C29.3148416,8.38460425 26.580148,6.82362378 23.5990714,6.27175396 L23.5782762,0.0723633334 L18.5950743,0.0553990354 L18.6161327,6.30276682 Z"/>
    <path id="ilu_notification_bell_s-c" d="M0.147224386,0.28659118 L5.68576208,0.274609573 C5.68444593,0.339816093 5.68128717,0.405022614 5.68128717,0.4704942 C5.69523835,4.65616965 9.08905925,8.07368048 13.2457198,8.08772904 C17.4021172,8.1017776 20.7725106,4.70759268 20.7593491,0.521917228 C20.7590859,0.456180574 20.7556638,0.391504188 20.7538213,0.325767534 L24.4922888,0.36081169 L24.4922888,0.192703822 L0.147224386,0.192703822 L0.147224386,0.28659118 Z"/>
    <path id="ilu_notification_bell_s-e" d="M0.180049132,1.07374935 L2.00054592,1.06981104 C1.99922977,1.13501756 1.99607101,1.20022408 1.99607101,1.26569567 C1.99836076,1.95267451 2.0916954,2.61896099 2.26450471,3.25290413 L16.8317087,3.25290413 C16.9918926,2.63498872 17.0762367,1.98616477 17.074133,1.31711869 C17.0738697,1.25138204 17.0704477,1.18670565 17.0686051,1.120969 L18.7230039,1.13647723 L18.7230039,0.176799792 L0.180049132,0.176799792 L0.180049132,1.07374935 Z"/>
    <path id="ilu_notification_bell_s-g" d="M23.5962529,0.13017448 L23.5990714,0.970410855 C26.580148,1.52228068 29.3148416,3.08326115 31.4814855,5.30478898 C34.2646134,8.15903211 35.8047706,11.9614204 35.8176688,16.0116466 L35.860312,28.7486535 L41.690324,39.1933597 C42.0875377,39.9050651 41.7534991,40.4762847 40.9424884,40.4685978 L28.3874834,40.350908 C28.389326,40.4166447 28.3927479,40.481321 28.3930111,40.5470577 C28.4061727,44.7327331 25.0357792,48.126918 20.8793819,48.1128695 C16.7227213,48.0988209 13.3289004,44.6813101 13.3149493,40.4956346 C13.3149493,40.4301631 13.318108,40.3649566 13.3194241,40.29975 L1.06660685,40.3262567 C0.255069605,40.3278472 -0.0737043233,39.7563624 0.331669455,39.0502235 L6.31303852,28.6365301 C6.30724747,26.5621146 6.27381729,16.8235473 6.27118499,15.910656 C6.25723382,11.8556587 7.744745,8.06599354 10.4602229,5.23984752 C12.6689834,2.93932968 15.5076529,1.47827953 18.6161327,1.00142371 L18.6131959,0.13017448 L23.5962529,0.13017448 Z"/>
    <path id="ilu_notification_bell_s-i" d="M23.5962529,0.13017448 L23.5990714,0.970410855 C26.580148,1.52228068 29.3148416,3.08326115 31.4814855,5.30478898 C34.2646134,8.15903211 35.8047706,11.9614204 35.8176688,16.0116466 L35.860312,28.7486535 L41.690324,39.1933597 C42.0875377,39.9050651 41.7534991,40.4762847 40.9424884,40.4685978 L28.3874834,40.350908 C28.389326,40.4166447 28.3927479,40.481321 28.3930111,40.5470577 C28.4061727,44.7327331 25.0357792,48.126918 20.8793819,48.1128695 C16.7227213,48.0988209 13.3289004,44.6813101 13.3149493,40.4956346 C13.3149493,40.4301631 13.318108,40.3649566 13.3194241,40.29975 L1.06660685,40.3262567 C0.255069605,40.3278472 -0.0737043233,39.7563624 0.331669455,39.0502235 L6.31303852,28.6365301 C6.30724747,26.5621146 6.27381729,16.8235473 6.27118499,15.910656 C6.25723382,11.8556587 7.744745,8.06599354 10.4602229,5.23984752 C12.6689834,2.93932968 15.5076529,1.47827953 18.6161327,1.00142371 L18.6131959,0.13017448 L23.5962529,0.13017448 Z"/>
    <path id="ilu_notification_bell_s-k" d="M0.256672322,6.69034801 C0.836761601,6.52481988 1.4296338,6.39527394 2.03265994,6.30276682 L2.01160157,0.0553990354 L6.99480351,0.0723633334 L7.01559865,6.27175396 C7.57891184,6.37603694 8.13342741,6.51635224 8.67697501,6.69034801 L0.256672322,6.69034801 Z"/>
    <polygon id="ilu_notification_bell_s-m" points=".227 4.935 25.585 4.935 25.585 .213 .227 .213"/>
  </defs>
  <g fill="none" fill-rule="evenodd" transform="translate(71 11)">
    <circle cx="64" cy="45" r="45" fill="#237ABA"/>
    <g transform="translate(88.7 33.3)">
      <polygon fill="#F8EFC9" points="1.772 9.887 2.794 10.215 1.772 10.543 1.444 11.566 1.115 10.543 .094 10.215 1.115 9.887 1.444 8.866"/>
      <polygon fill="#F8CD51" points="6.587 1.905 8.192 2.421 6.587 2.937 6.071 4.542 5.555 2.937 3.95 2.421 5.555 1.905 6.071 .301"/>
      <polygon fill="#F8CD51" points="12.156 12.597 15.532 13.682 12.156 14.765 11.072 18.144 9.986 14.765 6.611 13.682 9.986 12.597 11.072 9.222"/>
    </g>
    <g transform="translate(42.3 10.8)">
      <path fill="#072146" d="M42.9685224,64.0181443 C42.9685224,65.82508 33.5526035,67.289622 21.937284,67.289622 C10.3225855,67.289622 0.906666667,65.82508 0.906666667,64.0181443 C0.906666667,62.2112086 10.3225855,60.7466667 21.937284,60.7466667 C33.5526035,60.7466667 42.9685224,62.2112086 42.9685224,64.0181443" opacity=".3"/>
      <g transform="translate(.79 .986)">
        <mask id="ilu_notification_bell_s-b" fill="#fff">
          <use xlink:href="#ilu_notification_bell_s-a"/>
        </mask>
        <polygon fill="#F8CD51" points="-14.771 31.91 21.078 -4.189 56.927 31.91 21.078 68.008" mask="url(#ilu_notification_bell_s-b)"/>
      </g>
      <g transform="translate(8.425 46.313)">
        <mask id="ilu_notification_bell_s-d" fill="#fff">
          <use xlink:href="#ilu_notification_bell_s-c"/>
        </mask>
        <path fill="#BA9A3D" d="M1.37887627,0.574135458 L24.4922888,0.192703822 L23.5451882,8.87312303 C23.5451882,8.87312303 9.99859687,13.451628 9.5253098,13.3562039 C9.05175955,13.2610448 2.61026493,10.6853872 2.61026493,10.6853872 L0.147224386,6.67889711 L1.37887627,0.574135458 Z" mask="url(#ilu_notification_bell_s-d)"/>
      </g>
      <g transform="translate(12.11 45.517)">
        <mask id="ilu_notification_bell_s-f" fill="#fff">
          <use xlink:href="#ilu_notification_bell_s-e"/>
        </mask>
        <polygon fill="#6B5BAC" points=".18 3.253 18.723 3.253 18.723 .177 .18 .177" mask="url(#ilu_notification_bell_s-f)"/>
      </g>
      <g transform="translate(.79 6.288)">
        <mask id="ilu_notification_bell_s-h" fill="#fff">
          <use xlink:href="#ilu_notification_bell_s-g"/>
        </mask>
        <polygon fill="#6B5BAC" points="2.57 32.849 39.799 32.849 39.799 30.22 2.57 30.22" mask="url(#ilu_notification_bell_s-h)" opacity=".608"/>
      </g>
      <g transform="translate(.79 6.288)">
        <mask id="ilu_notification_bell_s-j" fill="#fff">
          <use xlink:href="#ilu_notification_bell_s-i"/>
        </mask>
        <polygon fill="#A28E58" fill-opacity=".47" points="-.4 43.127 42.298 .131 58.142 32.968 36.117 49.995 17.788 53.142" mask="url(#ilu_notification_bell_s-j)"/>
      </g>
      <g transform="translate(17.374 .986)">
        <mask id="ilu_notification_bell_s-l" fill="#fff">
          <use xlink:href="#ilu_notification_bell_s-k"/>
        </mask>
        <path fill="#A28E58" d="M0.256280461,6.69034801 C0.256280461,6.69034801 2.55217013,5.58713851 8.56249447,6.49287299 C14.4364658,7.37819728 12.3353661,0.683396139 12.3353661,0.683396139 L5.82043041,-3.09381082 L0.490028458,-3.49141156 L-1.13989,0.285795407 L0.256280461,6.69034801 Z" mask="url(#ilu_notification_bell_s-l)"/>
      </g>
      <polygon fill="#BA9A3D" points="5.256 37.464 38.221 37.464 38.221 32.742 5.256 32.742"/>
      <g transform="translate(12.635 32.53)">
        <mask id="ilu_notification_bell_s-n" fill="#fff">
          <use xlink:href="#ilu_notification_bell_s-m"/>
        </mask>
        <polygon fill="#072146" points=".227 8.79 13.037 -4.11 35.324 -3.58 32.692 8.79 13.037 10.734" mask="url(#ilu_notification_bell_s-n)" opacity=".27"/>
      </g>
      <g transform="translate(.352 .176)">
        <polygon fill="#FADE8E" points="4.904 33.103 37.87 33.103 37.87 31.926 4.904 31.926"/>
        <polygon fill="#FADE8E" points="18.894 7.158 19.405 7.158 19.405 .866 18.894 .866"/>
        <polygon fill="#BA9A3D" points="23.698 7.158 24.209 7.158 24.209 .866 23.698 .866"/>
        <polygon fill="#FADE8E" points=".597 44.903 42.125 44.903 42.125 43.975 .597 43.975"/>
        <polygon fill="#BA9A3D" points=".216 46.588 42.297 46.588 42.297 44.803 .216 44.803"/>
        <path fill="#FDF0CA" d="M23.1663434,9.81853333 C22.118689,9.49329595 21.0054905,9.31782149 19.8520178,9.31782149 C13.6366376,9.31782149 8.59868384,14.391737 8.59868384,20.6497074 C8.59868384,21.8114968 8.77294192,22.9322007 9.09566159,23.987433 L23.1663434,9.81853333 Z"/>
      </g>
      <path fill="#DA3851" d="M44.1600787,14.3455305 C44.1600787,18.2176315 41.0429122,21.3565567 37.1976524,21.3565567 C33.3521294,21.3565567 30.2352261,18.2176315 30.2352261,14.3455305 C30.2352261,10.4734295 33.3521294,7.33450425 37.1976524,7.33450425 C41.0429122,7.33450425 44.1600787,10.4734295 44.1600787,14.3455305"/>
    </g>
    <g fill="#072146" opacity=".66" transform="rotate(-17 25.202 1.89)">
      <path d="M1.2887014,22.6940708 C0.733565558,22.6940708 0.283007424,22.2427471 0.283007424,21.686366 C0.283007424,9.81881586 9.92193768,0.164110512 21.7690549,0.164110512 C21.880263,0.164110512 21.9908682,0.164714289 22.1020762,0.166525622 C22.657212,0.175582285 23.1005372,0.633849466 23.0917972,1.19023051 C23.0827559,1.74147943 22.6343074,2.18193517 22.0864046,2.18193517 L22.0698289,2.18193517 C21.9697718,2.18012384 21.8697148,2.17921817 21.7690549,2.17921817 C11.0310039,2.17921817 2.29499813,10.9297666 2.29499813,21.686366 C2.29499813,22.2427471 1.84443999,22.6940708 1.2887014,22.6940708"/>
      <path d="M5.7972965,22.6940708 C5.24216066,22.6940708 4.79160253,22.2427471 4.79160253,21.686366 C4.79160253,12.3090964 12.4079939,4.68006489 21.7690549,4.68006489 C22.3247936,4.68006489 22.7747489,5.13108674 22.7747489,5.68776967 C22.7747489,6.24415071 22.3247936,6.69547445 21.7690549,6.69547445 C13.5167587,6.69547445 6.80329186,13.4203491 6.80329186,21.686366 C6.80329186,22.2427471 6.35273373,22.6940708 5.7972965,22.6940708"/>
      <path d="M10.8109085,23.0039294 C10.2693346,23.0039294 9.822393,22.5725304 9.80611866,22.0267154 C9.80250219,21.913809 9.80069391,21.7999969 9.80069391,21.6864868 C9.80069391,15.075726 15.1700208,9.69818112 21.7689646,9.69818112 C22.3247031,9.69818112 22.7746585,10.1495048 22.7746585,10.7058858 C22.7746585,11.2619651 22.3247031,11.7132888 21.7689646,11.7132888 C16.2793884,11.7132888 11.8126846,16.1872806 11.8126846,21.6864868 C11.8126846,21.7797704 11.8138901,21.8733559 11.8166025,21.9660358 C11.8334795,22.5224168 11.3967848,22.9867218 10.8419504,23.0033256 C10.8311008,23.0036276 10.8208539,23.0039294 10.8109085,23.0039294"/>
    </g>
  </g>
</svg>
