<svg xmlns="http://www.w3.org/2000/svg" xmlns:xlink="http://www.w3.org/1999/xlink" width="272" height="112" viewBox="0 0 272 112">
  <defs>
    <path id="ilu_mobile_payment_pattern_s-a" d="M123.300983,90 L44.6982548,90 C20.0118342,90 0,69.8526477 0,45 C0,20.1473523 20.0118342,0 44.6982548,0 L123.300983,0 C147.987403,0 168,20.1473523 168,45 C168,69.8526477 147.987403,90 123.300983,90 Z"/>
  </defs>
  <g fill="none" fill-rule="evenodd" transform="translate(52 11)">
    <path fill="#02A5A5" d="M123.300983,90 L44.6982548,90 C20.0118342,90 0,69.8526477 0,45 C0,20.1473523 20.0118342,0 44.6982548,0 L123.300983,0 C147.987403,0 168,20.1473523 168,45 C168,69.8526477 147.987403,90 123.300983,90 Z"/>
    <mask id="ilu_mobile_payment_pattern_s-b" fill="#fff">
      <use xlink:href="#ilu_mobile_payment_pattern_s-a"/>
    </mask>
    <path fill="#5AC4C4" d="M191.951436,90.85275 C191.951436,107.385 178.339606,120.789 161.547977,120.789 L114.40346,120.789 C97.6118311,120.789 84,107.385 84,90.85275 L84,-1.56225 C84,-18.09525 97.6118311,-31.5 114.40346,-31.5 L161.547977,-31.5 C178.339606,-31.5 191.951436,-18.09525 191.951436,-1.56225 L191.951436,90.85275 Z" mask="url(#ilu_mobile_payment_pattern_s-b)"/>
    <g fill="#FFF" transform="translate(26.88 19.125)">
      <path d="M18.3883392,32.7220762 C19.0762992,32.7220762 19.6349832,32.1290044 19.6349832,31.3977262 L19.6349832,19.747395 C19.6349832,19.0161169 19.0762992,18.423045 18.3883392,18.423045 C17.6988672,18.423045 17.1401832,19.0161169 17.1401832,19.747395 L17.1401832,31.3977262 C17.1401832,32.1290044 17.6988672,32.7220762 18.3883392,32.7220762"/>
      <path fill-rule="nonzero" d="M18.3883392,5.92745344 C11.4338952,5.92745344 5.7767472,11.6106159 5.7767472,18.5961066 L5.7767472,37.4027878 L5.7767472,47.0779847 C5.7767472,47.9611378 5.0623272,48.6779878 4.1830992,48.6779878 C3.3038712,48.6779878 2.5894512,47.9611378 2.5894512,47.0779847 L2.5894512,30.6997847 C2.5894512,30.0079941 2.0307672,29.4475753 1.3420512,29.4475753 C0.6533352,29.4475753 0.0954072,30.0079941 0.0954072,30.6997847 L0.0954072,47.0779847 C0.0954072,49.3424409 1.9294632,51.1846847 4.1830992,51.1846847 C6.2144712,51.1846847 7.9003512,49.6864378 8.2140912,47.7340847 C8.2473552,47.6201784 8.2707912,47.5032347 8.2707912,47.3786972 L8.2707912,47.0779847 L8.2707912,37.4027878 L8.2707912,18.5961066 C8.2707912,12.9926784 12.8098152,8.43263156 18.3883392,8.43263156 C23.9661072,8.43263156 28.5043752,12.9926784 28.5043752,18.5961066 L28.5043752,34.4321128 L28.5043752,38.0512941 L28.5043752,41.3166066 C28.5043752,45.3458503 25.2407232,48.6233128 21.2293872,48.6233128 C17.2172952,48.6233128 13.9528872,45.3458503 13.9528872,41.3166066 L13.9528872,37.6328784 L13.9528872,34.7092847 L13.9528872,28.6540284 L13.9528872,18.9841472 C13.9528872,16.5283284 15.9419232,14.5288941 18.3883392,14.5288941 C20.8324872,14.5288941 22.8222792,16.5283284 22.8222792,18.9841472 L22.8222792,22.8296222 C22.8222792,23.5206534 23.3809632,24.0818316 24.0696792,24.0818316 C24.7583952,24.0818316 25.3163232,23.5206534 25.3163232,22.8296222 L25.3163232,18.9841472 C25.3163232,15.1455066 22.2084072,12.0229566 18.3883392,12.0229566 C14.5667592,12.0229566 11.4588432,15.1455066 11.4588432,18.9841472 L11.4588432,28.6540284 L11.4588432,34.7092847 L11.4588432,37.6328784 L11.4588432,41.3166066 L11.4588432,41.8633566 C11.4588432,41.9711878 11.4762312,42.0737034 11.5011792,42.1724222 C11.9358792,47.1827784 16.1294112,51.1284909 21.2293872,51.1284909 C26.6158872,51.1284909 30.9991752,46.7263941 30.9991752,41.3166066 L30.9991752,38.0512941 L30.9991752,34.4321128 L30.9991752,18.5961066 C30.9991752,11.6106159 25.3412712,5.92745344 18.3883392,5.92745344 M35.0971488,35.77446 C34.4084328,35.77446 33.8505048,36.3363975 33.8505048,37.0274287 L33.8505048,49.3262663 C33.8505048,50.0172975 34.4084328,50.579235 35.0971488,50.579235 C35.7866208,50.579235 36.3445488,50.0172975 36.3445488,49.3262663 L36.3445488,37.0274287 C36.3445488,36.3363975 35.7866208,35.77446 35.0971488,35.77446"/>
      <path d="M18.2200536,0.3274425 C8.2249776,0.3274425 0.0949536,8.49376125 0.0949536,18.5326987 L0.0949536,24.9691612 C0.0949536,25.6609519 0.6536376,26.22213 1.3423536,26.22213 C2.0310696,26.22213 2.5889976,25.6609519 2.5889976,24.9691612 L2.5889976,18.5326987 C2.5889976,9.87582375 9.6016536,2.83262063 18.2200536,2.83262063 C26.8384536,2.83262063 33.8503536,9.87582375 33.8503536,18.5326987 L33.8503536,31.4656144 C33.8503536,32.157405 34.4082816,32.7185831 35.0969976,32.7185831 C35.7864696,32.7185831 36.3451536,32.157405 36.3451536,31.4656144 L36.3451536,18.5326987 C36.3451536,8.49376125 28.2136176,0.3274425 18.2200536,0.3274425"/>
      <path d="M17.1403344,41.2398337 C17.1403344,43.5506119 19.0129464,45.4308244 21.3134544,45.4308244 C23.6139624,45.4308244 25.4858184,43.5506119 25.4858184,41.2398337 L25.4858184,28.6539525 C25.4858184,27.9629213 24.9271344,27.4017431 24.2384184,27.4017431 C23.5489464,27.4017431 22.9910184,27.9629213 22.9910184,28.6539525 L22.9910184,41.2398337 C22.9910184,42.1685494 22.2380424,42.9248869 21.3134544,42.9248869 C20.3873544,42.9248869 19.6351344,42.1685494 19.6351344,41.2398337 L19.6351344,37.0275806 C19.6351344,36.3365494 19.0764504,35.7746119 18.3884904,35.7746119 C17.6990184,35.7746119 17.1403344,36.3365494 17.1403344,37.0275806 L17.1403344,41.2398337 Z"/>
    </g>
    <g transform="translate(99.68 21.375)">
      <path fill="#FFF" fill-rule="nonzero" d="M10.8518414,5.93811116 C10.8518414,8.88029106 8.47917624,11.2643131 5.5515951,11.2643131 C2.62249156,11.2643131 0.249826347,8.88029106 0.249826347,5.93811116 C0.249826347,2.99746046 2.62249156,0.614202991 5.5515951,0.614202991 C8.47917624,0.614202991 10.8518414,2.99746046 10.8518414,5.93811116 M27.8182626,5.93811116 C27.8182626,8.88029106 25.4455974,11.2643131 22.5164939,11.2643131 C19.5889128,11.2643131 17.2147251,8.88029106 17.2147251,5.93811116 C17.2147251,2.99746046 19.5889128,0.614202991 22.5164939,0.614202991 C25.4455974,0.614202991 27.8182626,2.99746046 27.8182626,5.93811116 M44.78476,5.93811116 C44.78476,8.88029106 42.4105724,11.2643131 39.4829913,11.2643131 C36.5538877,11.2643131 34.1797001,8.88029106 34.1797001,5.93811116 C34.1797001,2.99746046 36.5538877,0.614202991 39.4829913,0.614202991 C42.4105724,0.614202991 44.78476,2.99746046 44.78476,5.93811116 M10.8518414,23.1883229 C10.8518414,26.128209 8.47917624,28.5114665 5.5515951,28.5114665 C2.62249156,28.5114665 0.249826347,26.128209 0.249826347,23.1883229 C0.249826347,20.2461431 2.62249156,17.8613564 5.5515951,17.8613564 C8.47917624,17.8613564 10.8518414,20.2461431 10.8518414,23.1883229 M27.8182626,23.1883229 C27.8182626,26.128209 25.4455974,28.5114665 22.5164939,28.5114665 C19.5889128,28.5114665 17.2147251,26.128209 17.2147251,23.1883229 C17.2147251,20.2461431 19.5889128,17.8613564 22.5164939,17.8613564 C25.4455974,17.8613564 27.8182626,20.2461431 27.8182626,23.1883229 M44.78476,23.1883229 C44.78476,26.128209 42.4105724,28.5114665 39.4829913,28.5114665 C36.5538877,28.5114665 34.1797001,26.128209 34.1797001,23.1883229 C34.1797001,20.2461431 36.5538877,17.8613564 39.4829913,17.8613564 C42.4105724,17.8613564 44.78476,20.2461431 44.78476,23.1883229 M10.8518414,41.4576697 C10.8518414,44.3983204 8.47917624,46.7831071 5.5515951,46.7831071 C2.62249156,46.7831071 0.249826347,44.3983204 0.249826347,41.4576697 C0.249826347,38.5154898 2.62249156,36.1322324 5.5515951,36.1322324 C8.47917624,36.1322324 10.8518414,38.5154898 10.8518414,41.4576697 M27.8182626,41.4576697 C27.8182626,44.3983204 25.4455974,46.7831071 22.5164939,46.7831071 C19.5889128,46.7831071 17.2147251,44.3983204 17.2147251,41.4576697 C17.2147251,38.5154898 19.5889128,36.1322324 22.5164939,36.1322324 C25.4455974,36.1322324 27.8182626,38.5154898 27.8182626,41.4576697 M44.78476,41.4576697 C44.78476,44.3983204 42.4105724,46.7831071 39.4829913,46.7831071 C36.5538877,46.7831071 34.1797001,44.3983204 34.1797001,41.4576697 C34.1797001,38.5154898 36.5538877,36.1322324 39.4829913,36.1322324 C42.4105724,36.1322324 44.78476,38.5154898 44.78476,41.4576697"/>
      <path fill="#020202" fill-opacity=".3" d="M39.0229971,43.9582932 L21.7551402,43.9582932 C21.006879,43.9582932 20.3994402,43.347378 20.3994402,42.5942472 C20.3994402,41.8434103 21.006879,41.232495 21.7551402,41.232495 L37.666536,41.232495 L37.666536,8.13679424 L5.09167712,8.13679424 C4.34189361,8.13679424 3.73521597,7.52740823 3.73521597,6.77351286 C3.73521597,6.02114669 4.34189361,5.41176068 5.09167712,5.41176068 L39.0229971,5.41176068 C39.7712582,5.41176068 40.3794583,6.02114669 40.3794583,6.77351286 L40.3794583,42.5942472 C40.3794583,43.347378 39.7712582,43.9582932 39.0229971,43.9582932"/>
      <path fill="#F7CC51" d="M39.7848838,41.4423777 L22.5162655,41.4423777 C21.8517366,41.4423777 21.3120447,40.8995119 21.3120447,40.2304871 C21.3120447,39.5629914 21.8517366,39.0193611 22.5162655,39.0193611 L38.5791405,39.0193611 L38.5791405,5.62011411 L5.85356376,5.62011411 C5.1875124,5.62011411 4.64782051,5.07724828 4.64782051,4.40822349 C4.64782051,3.74072789 5.1875124,3.19786206 5.85356376,3.19786206 L39.7848838,3.19786206 C40.4509352,3.19786206 40.9891046,3.74072789 40.9891046,4.40822349 L40.9891046,40.2304871 C40.9891046,40.8995119 40.4509352,41.4423777 39.7848838,41.4423777"/>
    </g>
  </g>
</svg>
