<svg xmlns="http://www.w3.org/2000/svg" xmlns:xlink="http://www.w3.org/1999/xlink" width="272" height="112" viewBox="0 0 272 112">
  <defs>
    <path id="ilu_cancel_sticker_s-a" d="M0,44.9993561 C0,69.8525533 20.1478761,89.9995707 44.9997854,89.9995707 C69.8529826,89.9995707 90,69.8525533 90,44.9993561 C90,20.1465881 69.8529826,0 44.9997854,0 C20.1478761,0 0,20.1465881 0,44.9993561"/>
  </defs>
  <g fill="none" fill-rule="evenodd" transform="translate(77 11)">
    <path fill="#E67D8D" d="M104,44.9995707 C104,69.8531235 83.8529826,90 59.0002147,90 C34.1478761,90 14,69.8531235 14,44.9995707 C14,20.1464471 34.1478761,0 59.0002147,0 C83.8529826,0 104,20.1464471 104,44.9995707"/>
    <g transform="translate(14)">
      <mask id="ilu_cancel_sticker_s-b" fill="#fff">
        <use xlink:href="#ilu_cancel_sticker_s-a"/>
      </mask>
      <path fill="#D93851" fill-opacity=".6" d="M6.67710724,84.0363734 L85.7528922,4.96188229 C85.7528922,4.96188229 117.875395,67.7409315 113.717756,71.3780027 C109.56098,75.0155052 93.4527186,99.9561618 89.815647,102.555117 C86.1781444,105.15321 62.7957401,112.428215 58.1196906,114.50574 C53.4427784,116.584128 27.9811235,99.9578862 25.3825994,100.47716 C22.7858004,100.996434 6.67710724,84.0363734 6.67710724,84.0363734" mask="url(#ilu_cancel_sticker_s-b)" style="mix-blend-mode:multiply"/>
    </g>
    <g transform="translate(.796 15.476)">
      <polygon fill="#FADE8E" points="12.033 12.454 10.428 12.973 12.033 13.491 12.549 15.105 13.064 13.491 14.669 12.973 13.064 12.454 12.549 10.841"/>
      <polygon fill="#FADE8E" points="2.643 40.021 .194 40.812 2.643 41.604 3.432 44.069 4.219 41.604 6.669 40.812 4.219 40.021 3.432 37.557"/>
      <polygon fill="#FADE8E" points="20.873 44.474 16.728 45.811 20.873 47.152 22.207 51.321 23.538 47.152 27.682 45.811 23.538 44.474 22.207 40.306"/>
      <path fill="#B92A45" fill-opacity=".9" fill-rule="nonzero" d="M1.0035,24.5086401 C1.0035,25.163715 1.53623077,25.6953785 2.19279808,25.6953785 L102.030166,25.6953785 C102.686733,25.6953785 103.219464,25.163715 103.219464,24.5086401 L103.219464,24.5016213 C103.219464,23.8465464 102.686733,23.314883 102.030166,23.314883 L2.19279808,23.314883 C1.53623077,23.314883 1.0035,23.8465464 1.0035,24.5016213 L1.0035,24.5086401 Z M7.24357644,30.1610594 C7.24357644,30.8167193 7.77572308,31.3477979 8.43229039,31.3477979 L108.270242,31.3477979 C108.926809,31.3477979 109.458957,30.8167193 109.458957,30.1610594 L109.458957,30.1552106 C109.458957,29.4995507 108.926809,28.9678872 108.270242,28.9678872 L8.43229039,28.9678872 C7.77572308,28.9678872 7.24357644,29.4995507 7.24357644,30.1552106 L7.24357644,30.1610594 Z M111.836209,30.1793665 C111.836209,30.8250832 112.360762,31.3479734 113.007398,31.3479734 L113.933836,31.3479734 C114.580473,31.3479734 115.105027,30.8250832 115.105027,30.1793665 L115.105027,30.1372545 C115.105027,29.4915378 114.580473,28.9680627 113.933836,28.9680627 L113.007398,28.9680627 C112.360762,28.9680627 111.836209,29.4915378 111.836209,30.1372545 L111.836209,30.1793665 Z"/>
      <polygon fill="#D8BE75" points="56.104 3.067 53.286 3.974 56.104 4.881 57.011 7.702 57.917 4.881 60.734 3.974 57.917 3.067 57.011 .247"/>
      <polygon fill="#FADE8E" points="106.699 14.621 104.504 15.327 106.699 16.034 107.404 18.232 108.111 16.034 110.306 15.327 108.111 14.621 107.404 12.424"/>
      <path fill="#B92A45" fill-opacity=".9" d="M20.0211036,35.8153047 C20.0211036,36.4703797 20.5532502,37.0020432 21.2098175,37.0020432 L121.048354,37.0020432 C121.704921,37.0020432 122.237068,36.4703797 122.237068,35.8153047 L122.237068,35.8082861 C122.237068,35.1532111 121.704921,34.6215476 121.048354,34.6215476 L21.2098175,34.6215476 C20.5532502,34.6215476 20.0211036,35.1532111 20.0211036,35.8082861 L20.0211036,35.8153047 Z"/>
    </g>
    <g transform="translate(39.6 7.2)">
      <g transform="translate(.655 .077)">
        <path fill="#043263" d="M40.89463,71.3786503 C40.89463,73.1769927 39.3350046,74.6327242 37.4107426,74.6327242 L4.22040819,74.6327242 C2.29643577,74.6327242 0.7371,73.1769927 0.7371,71.3786503 L0.7371,6.09300822 C0.7371,4.29554204 2.29643577,2.83981058 4.22040819,2.83981058 L37.4107426,2.83981058 C39.3350046,2.83981058 40.89463,4.29554204 40.89463,6.09300822 L40.89463,71.3786503 Z"/>
        <path fill="#5BBEFF" d="M40.89463,68.7758793 C40.89463,70.5730534 39.3350046,72.0311215 37.4107426,72.0311215 L4.22040819,72.0311215 C2.29643577,72.0311215 0.7371,70.5730534 0.7371,68.7758793 L0.7371,3.49403428 C0.7371,1.69627603 2.29643577,0.2385 4.22040819,0.2385 L37.4107426,0.2385 C39.3350046,0.2385 40.89463,1.69627603 40.89463,3.49403428 L40.89463,68.7758793 Z"/>
        <path fill="#FFF" d="M12.5215378 5.70407243C11.9504364 5.70407243 11.4873302 5.24791404 11.4873302 4.68538062 11.4873302 4.12284722 11.9504364 3.66668882 12.5215378 3.66668882 13.0926392 3.66668882 13.5557455 4.12284722 13.5557455 4.68538062 13.5557455 5.24791404 13.0926392 5.70407243 12.5215378 5.70407243zM10.2421311 4.68540768C10.2421311 5.52618841 9.54982979 6.20624533 8.69765782 6.20624533L5.14324712 6.20624533C4.29154675 6.20624533 3.60018864 5.52618841 3.60018864 4.68540768 3.60018864 3.84602049 4.29154675 3.16457002 5.14324712 3.16457002L8.69765782 3.16457002C9.54982979 3.16457002 10.2421311 3.84602049 10.2421311 4.68540768"/>
      </g>
      <g transform="translate(23.4 10.8)">
        <g transform="translate(.681 .648)">
          <rect width="27.235" height="21.605" y=".419" fill="#FFF"/>
          <polygon fill="#121212" fill-opacity=".05" points="27.235 .47 0 22.09 27.235 22.09"/>
        </g>
        <path fill="#004481" fill-rule="nonzero" d="M20.1471157,4.98414114 C21.5009035,6.90260526 22.296432,9.24537384 22.296432,11.7744881 C22.296432,14.3036024 21.5009035,16.6463711 20.1471157,18.5648352 L18.5348785,17.8298701 C19.7375153,16.1171147 20.4437378,14.0285146 20.4437378,11.7744881 C20.4437378,9.52046163 19.7375153,7.43186169 18.5348785,5.71910616 L20.1471157,4.98414114 Z M16.8116555,6.50466594 C17.9277707,7.96521258 18.5910436,9.7921674 18.5910436,11.7744881 C18.5910436,13.7568089 17.9277707,15.5837637 16.8116555,17.0443103 L15.1994517,16.3093606 C16.1643965,15.0545083 16.7383493,13.48172 16.7383493,11.7744881 C16.7383493,10.0672563 16.1643965,8.49446793 15.1994517,7.23961575 L16.8116555,6.50466594 Z M13.4509775,8.03668662 C14.3426206,9.02542527 14.8856551,10.3363561 14.8856551,11.7744881 C14.8856551,13.2126202 14.3426206,14.5235511 13.4509775,15.5122897 L11.8314019,14.7739792 C12.57565,13.9951827 13.0329609,12.938396 13.0329609,11.7744881 C13.0329609,10.6105803 12.57565,9.55379358 11.8314019,8.77499703 L13.4509775,8.03668662 Z M10.2053912,9.51624099 C10.8054471,10.0811798 11.1802667,10.8839348 11.1802667,11.7744881 C11.1802667,12.6650415 10.8054471,13.4677966 10.2053912,14.0327354 L9.32757246,13.6325671 L9.32757246,9.91640916 L10.2053912,9.51624099 Z" transform="matrix(-1 0 0 1 31.624 0)"/>
      </g>
    </g>
  </g>
</svg>
