<svg xmlns="http://www.w3.org/2000/svg" xmlns:xlink="http://www.w3.org/1999/xlink" width="272" height="112" viewBox="0 0 272 112">
  <defs>
    <path id="ilu_digital_card_s-a" d="M0.09,42.1920803 L60.5638228,42.1920803 C62.4426294,42.1920803 63.9635679,40.6838087 63.9635679,38.8208445 L63.9635679,3.86623563 C63.9635679,2.0049291 62.4426294,0.495 60.5638228,0.495 L0.09,0.495 L0.09,42.1920803 Z"/>
  </defs>
  <g fill="none" fill-rule="evenodd" transform="translate(91 11)">
    <path fill="#5AC4C4" d="M90,45 C90,69.8530809 69.8530809,90 45,90 C20.1469191,90 0,69.8530809 0,45 C0,20.147505 20.1469191,0 45,0 C69.8530809,0 90,20.147505 90,45" opacity=".7"/>
    <g transform="translate(22.5 6.3)">
      <polygon fill="#FADE8E" points="2.692 20.017 0 20.881 2.692 21.748 3.559 24.44 4.423 21.748 7.116 20.881 4.423 20.017 3.559 17.325"/>
      <polygon fill="#FADE8E" points="41.045 23.495 39.375 24.033 41.045 24.57 41.583 26.24 42.12 24.57 43.79 24.033 42.12 23.495 41.583 21.825"/>
      <polygon fill="#FADE8E" points="46.988 13.688 45 14.326 46.988 14.966 47.627 16.953 48.267 14.966 50.254 14.326 48.267 13.688 47.627 11.7"/>
      <path fill="#EAF9FA" fill-opacity=".5" fill-rule="nonzero" d="M19.125,10.6100649 C19.125,11.3183766 19.6971428,11.8922728 20.4031169,11.8922728 L20.522922,11.8922728 C21.2283117,11.8922728 21.8004545,11.3183766 21.8004545,10.6100649 L21.8004545,9.6066234 C21.8004545,8.8983117 21.2283117,8.325 20.522922,8.325 L20.4031169,8.325 C19.6971428,8.325 19.125,8.8983117 19.125,9.6066234 L19.125,10.6100649 Z M12.375,43.0474675 L12.375,22.8085714 C12.375,22.0897403 12.5327921,21.825 13.2492857,21.825 L13.2562987,21.825 C13.9727921,21.825 14.7535714,22.0897403 14.7535714,22.8085714 L14.7535714,43.0474675 L12.375,43.0474675 Z M19.125,42.0101299 L19.125,14.94 C19.125,14.2205845 19.5171428,13.95 20.2336363,13.95 L20.2406494,13.95 C20.9571428,13.95 21.8004545,14.2205845 21.8004545,14.94 L21.8004545,42.0101299 L19.125,42.0101299 Z M24.75,42.4823377 L24.75,1.42597403 C24.75,0.707142861 25.079026,0.45 25.7955194,0.45 L25.8025325,0.45 C26.5196103,0.45 27.4254545,0.707142861 27.4254545,1.42597403 L27.4254545,42.4823377 L24.75,42.4823377 Z"/>
    </g>
    <g transform="translate(7.2 39.6)">
      <path fill="#02A5A5" d="M73.4210922,40.1235493 C73.4210922,41.9754248 71.9091763,43.4738952 70.0415154,43.4738952 L5.17957659,43.4738952 C3.31357824,43.4738952 1.8,41.9754248 1.8,40.1235493 L1.8,5.3761698 C1.8,3.52758942 3.31357824,2.025 5.17957659,2.025 L70.0415154,2.025 C71.9091763,2.025 73.4210922,3.52758942 73.4210922,5.3761698 L73.4210922,40.1235493 Z"/>
      <path fill="#5BBEFF" d="M72.5210922,38.9976589 C72.5210922,40.8495713 71.0091763,42.3488952 69.1415154,42.3488952 L4.27957659,42.3488952 C2.41357824,42.3488952 0.9,40.8495713 0.9,38.9976589 L0.9,4.25041254 C0.9,2.40014781 2.41357824,0.9 4.27957659,0.9 L69.1415154,0.9 C71.0091763,0.9 72.5210922,2.40014781 72.5210922,4.25041254 L72.5210922,38.9976589 Z"/>
      <g transform="translate(8.55 .225)">
        <mask id="ilu_digital_card_s-b" fill="#fff">
          <use xlink:href="#ilu_digital_card_s-a"/>
        </mask>
        <path fill="#004481" fill-opacity=".3" d="M0,50.5488565 L70.7499829,-19.575 L81.6139495,38.9882033 C81.6139495,38.9882033 49.4961413,52.8435841 47.9852363,52.0935919 C46.4743314,51.3427709 20.4034873,49.8444439 20.4034873,49.8444439 L0,50.5488565 Z" mask="url(#ilu_digital_card_s-b)"/>
      </g>
      <polygon fill="#072146" points=".675 13.667 72.724 13.667 72.724 6.525 .675 6.525"/>
      <polygon fill="#FFF" points="9.675 35.098 63.451 35.098 63.451 30.15 9.675 30.15"/>
    </g>
  </g>
</svg>
