<svg xmlns="http://www.w3.org/2000/svg" width="272" height="112" viewBox="0 0 272 112">
  <g fill="none" fill-rule="evenodd" transform="translate(91 11)">
    <path fill="#48AE64" d="M45,90 C20.1471178,90 0,69.852419 0,45 C0,20.1471178 20.1471178,0 45,0 C69.852419,0 90,20.1471178 90,45 C90,69.852419 69.852419,90 45,90 Z"/>
    <path fill="#D8BE75" fill-rule="nonzero" d="M117.749436,51.2542909 C117.749436,52.1084056 117.106963,52.800484 116.314809,52.800484 L115.090247,52.800484 C114.298094,52.800484 113.65562,52.1084056 113.65562,51.2542909 L113.65562,50.9873317 C113.65562,50.133217 114.298094,49.4408802 115.090247,49.4408802 L116.314809,49.4408802 C117.106963,49.4408802 117.749436,50.133217 117.749436,50.9873317 L117.749436,51.2542909 Z M117.316183,41.9464823 L56.1164425,41.9464823 L53.1724768,45.0476551 L117.316183,45.0476551 C118.120873,45.0476551 118.772813,44.4478366 118.772813,43.580542 L118.772813,43.4657986 C118.772813,42.5979869 118.120873,41.9464823 117.316183,41.9464823 Z M109.487092,49.4409835 L49.0017222,49.4409835 L46.0577565,52.5421563 L109.487092,52.5421563 C110.291527,52.5421563 110.841122,51.89091 110.841122,51.0238738 L110.841122,50.9075798 C110.841122,50.0402851 110.291527,49.4409835 109.487092,49.4409835 Z M93.8281923,56.6770536 L42.1322472,56.6770536 L38.9429083,60.0366577 L93.8281923,60.0366577 C94.6326276,60.0366577 95.2333956,59.3334666 95.2333956,58.4664304 L95.2333956,58.3514285 C95.2333956,57.4836169 94.6326276,56.6770536 93.8281923,56.6770536 Z"/>
    <polygon fill="#FFF" points="35.212 54.716 24.578 43.961 19.913 48.823 35.284 64.367 68.174 30.627 63.437 25.839"/>
    <g fill="#F3EBD5" transform="translate(86.734 32.611)">
      <polygon points="16.744 28.697 13.179 29.853 16.744 31.012 17.891 34.614 19.037 31.012 22.604 29.853 19.037 28.697 17.891 25.096"/>
      <polygon points="41.522 14.354 39.097 15.142 41.522 15.93 42.304 18.38 43.084 15.93 45.509 15.142 43.084 14.354 42.304 11.903"/>
      <polygon points="2.001 2.174 .076 2.799 2.001 3.425 2.619 5.369 3.238 3.425 5.162 2.799 3.238 2.174 2.619 .23"/>
    </g>
  </g>
</svg>
