<svg xmlns="http://www.w3.org/2000/svg" xmlns:xlink="http://www.w3.org/1999/xlink" width="272" height="112" viewBox="0 0 272 112">
  <defs>
    <path id="ilu_turn_on_off_s-a" d="M45.3103448,90 C20.1472658,90 0,69.8525502 0,45.3103448 C0,20.1474498 20.1472658,0 45.3103448,0 C69.8527343,0 90,20.1474498 90,45.3103448 C90,69.8525502 69.8527343,90 45.3103448,90 Z"/>
  </defs>
  <g fill="none" fill-rule="evenodd" transform="translate(91 11)">
    <path fill="#E9E9E9" d="M45.3103448,90 C20.1472658,90 0,69.8525502 0,45.3103448 C0,20.1474498 20.1472658,0 45.3103448,0 C69.8527343,0 90,20.1474498 90,45.3103448 C90,69.8525502 69.8527343,90 45.3103448,90 Z"/>
    <mask id="ilu_turn_on_off_s-b" fill="#fff">
      <use xlink:href="#ilu_turn_on_off_s-a"/>
    </mask>
    <polygon fill="#BDBDBD" fill-opacity=".3" points="0 0 90 90 0 90" mask="url(#ilu_turn_on_off_s-b)" transform="matrix(-1 0 0 1 90 0)" style="mix-blend-mode:multiply"/>
    <g transform="translate(22 10)">
      <g transform="translate(.756 1.042)">
        <path fill="#5BBEFF" d="M44.7588281,78.9568121 C44.7588281,81.0124012 43.0163861,82.629222 41.0800204,82.629222 L3.67880779,82.629222 C1.742442,82.629222 0,81.0124012 0,78.9568121 L0,6.12068312 C0,4.06469155 1.742442,2.44827324 3.67880779,2.44827324 L41.0800204,2.44827324 C43.0163861,2.44827324 44.7588281,4.06469155 44.7588281,6.12068312 L44.7588281,78.9568121 Z"/>
        <path fill="#237ABA" d="M44.7588281,76.5085388 C44.7588281,78.5641361 43.0163861,80.1809487 40.4668857,80.1809487 L4.29194242,80.1809487 C1.742442,80.1809487 0,78.5641361 0,76.5085388 L0,3.67240987 C0,1.61641019 1.742442,0 4.29194242,0 L40.4668857,0 C43.0163861,0 44.7588281,1.61641019 44.7588281,3.67240987 L44.7588281,76.5085388 Z"/>
        <polygon fill="#004481" points="0 67.939 44.759 67.939 44.759 9.181 0 9.181"/>
        <ellipse cx="22.38" cy="73.754" fill="#004481" rx="3.373" ry="3.367"/>
        <path fill="#004481" d="M28.8173277,3.67240987 C28.8173277,4.34869587 28.2875621,4.89654649 27.5910585,4.89654649 L18.394039,4.89654649 C17.6967222,4.89654649 17.1677697,4.34869587 17.1677697,3.67240987 C17.1677697,2.99696607 17.6967222,2.44827324 18.394039,2.44827324 L27.5910585,2.44827324 C28.2875621,2.44827324 28.8173277,2.99696607 28.8173277,3.67240987"/>
        <path fill="#FFF" d="M28.2041931,0 L3.67880779,0 C1.87803328,0 0,1.79442362 0,3.06034156 L0,28.1551423 L28.2041931,0 Z" opacity=".3"/>
      </g>
      <g transform="translate(8.727 25.525)">
        <ellipse cx="14.102" cy="14.077" fill="#FFF" rx="14.102" ry="14.077"/>
        <path fill="#2DCCCD" fill-rule="nonzero" d="M8.85892945,8.84352262 L10.1404776,10.122842 C9.15654728,11.1050611 8.54797373,12.4619842 8.54797373,13.9608 C8.54797373,16.9584317 10.9822679,19.3884923 13.985122,19.3884923 C16.987976,19.3884923 19.4222701,16.9584317 19.4222701,13.9608 C19.4222701,12.4619842 18.8136966,11.1050611 17.8297663,10.122842 L19.1113145,8.84352262 C20.4232215,10.1531481 21.234653,11.9623789 21.234653,13.9608 C21.234653,17.9576423 17.9889274,21.1977231 13.985122,21.1977231 C9.98131656,21.1977231 6.73559099,17.9576423 6.73559099,13.9608 C6.73559099,11.9623789 7.54702239,10.1531481 8.85892945,8.84352262 Z M13.0789306,6.72387692 L14.8913133,6.72387692 L14.8913133,11.5484923 L13.0789306,13.3577231 L13.0789306,6.72387692 Z"/>
      </g>
    </g>
  </g>
</svg>
