<svg xmlns="http://www.w3.org/2000/svg" xmlns:xlink="http://www.w3.org/1999/xlink" width="272" height="112" viewBox="0 0 272 112">
  <defs>
    <path id="ilu_password_blocked_s-a" d="M89.0109891,44.8130251 C89.0109891,69.0838306 69.0854006,89.010989 44.8120207,89.010989 C19.9256624,89.010989 0,69.0838306 0,44.8130251 C0,19.9250601 19.9256593,0 44.8120207,0 C69.0854006,0 89.0109891,19.9250601 89.0109891,44.8130251"/>
  </defs>
  <g fill="none" fill-rule="evenodd">
    <rect width="112" height="272" x="80" y="-80" fill="#FFF" transform="rotate(90 136 56)"/>
    <g transform="translate(90 9)">
      <path fill="#DA3851" fill-rule="nonzero" d="M89.0554826,44.8130251 C89.0554826,69.0838306 69.1298941,89.010989 44.8565142,89.010989 C19.9701559,89.010989 0.0444935402,69.0838306 0.0444935402,44.8130251 C0.0444935402,19.9250601 19.9701528,0 44.8565142,0 C69.1298941,0 89.0554826,19.9250601 89.0554826,44.8130251"/>
      <g transform="translate(.044)">
        <path fill="#DA3851" fill-rule="nonzero" d="M89.0109891,44.8130251 C89.0109891,69.0838306 69.0854006,89.010989 44.8120207,89.010989 C19.9256624,89.010989 0,69.0838306 0,44.8130251 C0,19.9250601 19.9256593,0 44.8120207,0 C69.0854006,0 89.0109891,19.9250601 89.0109891,44.8130251"/>
        <mask id="ilu_password_blocked_s-b" fill="#fff">
          <use xlink:href="#ilu_password_blocked_s-a"/>
        </mask>
        <polygon fill="#9E0917" fill-rule="nonzero" points="4.579 82.911 80.056 16.135 88.967 24.519 88.967 90.154 1.469 90.154" mask="url(#ilu_password_blocked_s-b)"/>
      </g>
      <g fill-rule="nonzero" transform="translate(20.77 10.88)">
        <g transform="translate(.816 .642)">
          <path fill="#5BBEFF" d="M45.5873038,76.5308648 C45.5873038,78.5207961 43.8517862,80.134 41.71072,80.134 L4.87539117,80.134 C2.73232271,80.134 0.996806658,78.5207961 0.996806658,76.5308648 L0.996806658,3.72541949 C0.996806658,1.73548826 2.73232271,0.12243268 4.87539117,0.12243268 L41.71072,0.12243268 C43.8517862,0.12243268 45.5873038,1.73548826 45.5873038,3.72541949 L45.5873038,76.5308648" transform="translate(0 2)"/>
          <path fill="#2A86CA" d="M44.5158568,76.2938128 C44.5158568,78.2917665 42.7882704,79.8981033 40.5160227,79.8981033 L4.10010251,79.8981033 C1.82778162,79.8981033 0.09826764,78.2917665 0.09826764,76.2938128 L0.09826764,3.8119392 C0.09826764,1.81398544 1.82778162,0.207648625 4.10010251,0.207648625 L40.5160227,0.207648625 C42.7882704,0.207648625 44.5158568,1.81398544 44.5158568,3.8119392 L44.5158568,76.2938128" transform="translate(1)"/>
          <polyline fill="#004481" points=".997 58.952 45.587 58.952 45.587 .7 .997 .7 .997 58.952" transform="translate(0 9)"/>
          <path fill="#004481" d="M6.584201,3.832913 C6.5825625,5.6500184 5.1085627,7.1219482 3.2914568,7.1210331 C1.4743509,7.1201181 0.0018344,5.6467046 0.0020259,3.8295984 C0.0022174,2.0124923 1.4750445,0.5393892 3.2921506,0.5388572 C4.1655842,0.5389223 5.0031962,0.8860586 5.6206189,1.5038574 C6.2380417,2.1216563 6.5846678,2.9594795 6.584201,3.832913" transform="translate(20 70)"/>
          <path fill="#E57486" d="M29.13476,0.0485272636 L4.41017994,0.0485272636 C2.87143846,0.0485272636 0.996806659,1.84563346 0.996806659,3.3287931 L0.996805002,5.71436398 C0.9966939,5.43804651 1.03074811,5.16277528 1.0981942,4.89481561 L1.0981942,3.81186576 C1.0981942,1.813912 2.82770818,0.207575183 5.10002906,0.207575183 L28.9760826,0.207575183 L29.13476,0.0485272636"/>
          <path fill="#8DD2FF" d="M1.28662251,4.89481249 C1.09382849,5.16277216 0.996484849,5.4380434 0.996807176,5.71436087 L0.996806375,9.70018865 L1.28662251,9.70018865 L1.28662251,4.89481249"/>
          <path fill="#6AABDA" d="M28.9760826,0.207575183 L5.10002906,0.207575183 C2.82770818,0.207575183 1.0981942,1.813912 1.0981942,3.81186576 L1.0981942,9.70018865 L19.5062226,9.70018865 L24.5812965,4.61303425 L18.7057968,4.61303425 C18.0420875,4.61303425 17.5040448,4.07499157 17.5040448,3.41128229 C17.5040448,2.74757301 18.0420875,2.20953033 18.7057968,2.20953033 L26.9790195,2.20953033 L28.9760826,0.207575183"/>
          <polyline fill="#4D7CA7" points="19.506 9.7 1.098 9.7 .997 9.7 .997 28.254 19.506 9.7"/>
          <path fill="#004481" d="M12.1106688,1.41238412 C12.1122956,1.73133592 11.9863171,2.03769585 11.7607882,2.26323878 C11.5352593,2.48878172 11.2289072,2.61477928 10.9099553,2.61317232 L1.7055706,2.61317232 C1.0418613,2.61317232 0.5038186,2.07512964 0.5038186,1.41142036 C0.5038186,0.74771108 1.0418613,0.2096684 1.7055706,0.2096684 L10.9099538,0.2096684 C11.2291154,0.20847234 11.5355213,0.33486703 11.7610162,0.56073793 C11.9865111,0.78660883 12.1123951,1.09322488 12.1106673,1.41238412" transform="translate(17 2)"/>
          <path fill="#4D7CA7" d="M26.9790195,2.20953033 L18.7057968,2.20953033 C18.0420875,2.20953033 17.5040448,2.74757301 17.5040448,3.41128229 C17.5040448,4.07499157 18.0420875,4.61303425 18.7057968,4.61303425 L24.5812965,4.61303425 L26.9790195,2.20953033"/>
          <path fill="#FFF" d="M39.8811812,42.0535765 C39.8817075,42.0929238 39.8664519,42.1308427 39.8388223,42.1588622 C39.8111928,42.1868818 39.7734914,42.2026673 39.7341406,42.2026926 L0.85105404,42.2026926 C0.81149559,42.2027485 0.77354233,42.1870537 0.74557713,42.1590748 C0.71761192,42.1310958 0.70193577,42.0931349 0.70201113,42.0535765 L0.70201113,0.351655 C0.70196108,0.3121044 0.71764536,0.2741581 0.74560508,0.2461847 C0.77356479,0.2182112 0.81150333,0.2025083 0.85105404,0.202539 L39.7341406,0.202539 C39.7734836,0.2025894 39.8111701,0.218383 39.8387942,0.246397 C39.8664183,0.274411 39.8816822,0.3123152 39.8811812,0.351655 L39.8811812,42.0535765" transform="translate(3 16)"/>
        </g>
        <g transform="translate(6.923 32.736)">
          <rect width="32.809" height="6.809" x=".543" y=".757" fill="#E77D8E"/>
          <path fill="#B92A45" d="M6.7785742,0.817633471 L19.3645392,0.817633471 C19.2949432,0.817633471 19.3645392,0.889227066 19.3645392,0.817633471 L19.3645392,7.62451948 C19.3645392,7.55292588 19.2949432,7.62451948 19.3645392,7.62451948 L0.0989353,7.62451948 L6.778568,0.817633471" transform="translate(14)"/>
          <path fill="#FFF" d="M27.2118884,4.44199664 C27.2123236,4.86150648 26.9598984,5.23993194 26.5724079,5.40067963 C26.1849174,5.56142731 25.7387432,5.47281082 25.4420939,5.17618333 C25.1454445,4.87955584 25.0567952,4.43338818 25.2175143,4.04588584 C25.3782335,3.65838351 25.7566403,3.40593047 26.1761502,3.40633472 C26.7479109,3.40689424 27.2112868,3.87023597 27.2118884,4.44199664 M22.6932587,4.44199664 C22.693304,4.86093493 22.4409786,5.23864775 22.0539446,5.39900341 C21.6669106,5.55935906 21.2213902,5.47077715 20.9251347,5.17456442 C20.6288793,4.87835169 20.5402331,4.43284416 20.7005329,4.04578697 C20.8608327,3.65872979 21.238509,3.40634983 21.6574474,3.40633472 C21.9321583,3.40626078 22.1956414,3.51534633 22.3899054,3.70958235 C22.5841694,3.90381837 22.693293,4.16728561 22.6932587,4.44199664 M18.1765551,4.44199664 C18.17699,4.86132455 17.9247811,5.23962334 17.5375361,5.40048801 C17.1502912,5.56135267 16.704274,5.47310258 16.4074676,5.17688977 C16.1106613,4.88067694 16.0215185,4.43483742 16.1816075,4.04727121 C16.3416966,3.659705 16.7194898,3.40673924 17.1388177,3.40633472 C17.7112514,3.40605137 18.1756924,3.86956355 18.1765551,4.44199664 M13.6578522,4.44199664 C13.6582873,4.86150663 13.405862,5.23993218 13.0183713,5.40067977 C12.6308806,5.56142736 12.1847063,5.47281059 11.8880571,5.17618278 C11.5914079,4.87955497 11.5027589,4.43338705 11.6634785,4.04588476 C11.8241982,3.65838248 12.2026055,3.40592984 12.6221155,3.40633472 C12.8968145,3.40627772 13.1602799,3.5153711 13.3545285,3.70960559 C13.548777,3.90384008 13.6578894,4.16729768 13.6578522,4.44199664 M9.14114846,4.44199664 C9.14158342,4.86132455 8.88937449,5.23962334 8.50212955,5.40048801 C8.1148846,5.56135267 7.66886752,5.47310258 7.3720611,5.17688977 C7.07525468,4.88067694 6.98611186,4.43483742 7.14620096,4.04727121 C7.30629006,3.659705 7.68408318,3.40673924 8.10341111,3.40633472 C8.67584479,3.40605137 9.14028583,3.86956355 9.14114846,4.44199664"/>
        </g>
      </g>
    </g>
  </g>
</svg>
