<svg xmlns="http://www.w3.org/2000/svg" xmlns:xlink="http://www.w3.org/1999/xlink" width="272" height="112" viewBox="0 0 272 112">
  <defs>
    <polygon id="ilu_mobile_payment_help_s-a" points=".323 .124 101.941 .124 101.941 2.769 .323 2.769"/>
  </defs>
  <g fill="none" fill-rule="evenodd" transform="translate(75 11)">
    <path fill="#B6A8EE" d="M105,45 C105,20.1472888 84.8527112,0 60,0 C35.1472888,0 15,20.1472888 15,45 C15,69.8527112 35.1472888,90 60,90 C84.8527112,90 105,69.8527112 105,45 Z" opacity=".5"/>
    <g transform="translate(0 2.7)">
      <g transform="translate(20 44.3)">
        <mask id="ilu_mobile_payment_help_s-b" fill="#fff">
          <use xlink:href="#ilu_mobile_payment_help_s-a"/>
        </mask>
        <path fill="#B6A8EE" d="M0.322705339,1.45078303 C0.322705339,2.17864407 0.851740005,2.76938129 1.50446774,2.76938129 L100.759153,2.76938129 C101.411881,2.76938129 101.940915,2.17864407 101.940915,1.45078303 L101.940915,1.44298452 C101.940915,0.715123474 101.411881,0.124386253 100.759153,0.124386253 L1.50446774,0.124386253 C0.851740005,0.124386253 0.322705339,0.715123474 0.322705339,1.44298452 L0.322705339,1.45078303 Z" mask="url(#ilu_mobile_payment_help_s-b)"/>
      </g>
      <path fill="#B6A8EE" fill-rule="nonzero" d="M0,33.6850401 C0,34.340115 0.530538462,34.8717785 1.18440385,34.8717785 L100.610918,34.8717785 C101.264783,34.8717785 101.795322,34.340115 101.795322,33.6850401 L101.795322,33.6780213 C101.795322,33.0229464 101.264783,32.4912829 100.610918,32.4912829 L1.18440385,32.4912829 C0.530538462,32.4912829 0,33.0229464 0,33.6780213 L0,33.6850401 Z M6.21439712,39.3374594 C6.21439712,39.9931193 6.74435385,40.5241979 7.39821923,40.5241979 L106.825315,40.5241979 C107.47918,40.5241979 108.009138,39.9931193 108.009138,39.3374594 L108.009138,39.3316106 C108.009138,38.6759507 107.47918,38.1442872 106.825315,38.1442872 L7.39821923,38.1442872 C6.74435385,38.1442872 6.21439712,38.6759507 6.21439712,39.3316106 L6.21439712,39.3374594 Z M110.376607,39.3557665 C110.376607,40.0014832 110.899002,40.5243734 111.542977,40.5243734 L112.465602,40.5243734 C113.109578,40.5243734 113.631973,40.0014832 113.631973,39.3557665 L113.631973,39.3136545 C113.631973,38.6679378 113.109578,38.1444627 112.465602,38.1444627 L111.542977,38.1444627 C110.899002,38.1444627 110.376607,38.6679378 110.376607,39.3136545 L110.376607,39.3557665 Z"/>
      <polygon fill="#FFF" points="54.874 3.244 52.068 4.15 54.874 5.057 55.777 7.879 56.679 5.057 59.484 4.15 56.679 3.244 55.777 .423"/>
      <polygon fill="#FADE8E" points="109.674 31.209 107.487 31.916 109.674 32.622 110.377 34.821 111.08 32.622 113.266 31.916 111.08 31.209 110.377 29.012"/>
      <polygon fill="#FFF" points="93.617 55.496 91.431 56.201 93.617 56.909 94.32 59.107 95.024 56.909 97.21 56.201 95.024 55.496 94.32 53.298"/>
      <polygon fill="#FADE8E" points="15.35 77.518 11.652 78.711 15.35 79.908 16.539 83.626 17.728 79.908 21.426 78.711 17.728 77.518 16.539 73.8"/>
    </g>
    <g transform="translate(51.089 14.4)">
      <path fill="#072146" d="M35.5107072,62.311769 L2.55278651,62.311769 L2.33805463,59.3823811 C2.33805463,58.4922962 4.14573771,5.43411981 5.02220306,5.43411981 L33.5396226,4.81034291 C34.4139492,4.81034291 35.8422156,58.4745704 35.8422156,59.3633892 L35.5107072,62.311769 Z"/>
      <path fill="#004480" d="M35.8423867,59.4098137 L2.33822574,59.4098137 L0.611387931,2.58238738 C0.611387931,1.69272452 1.32188523,0.127373686 2.19835059,0.127373686 L35.9814064,0.127373686 C36.8578717,0.127373686 37.5692245,1.69272452 37.5692245,2.58238738 L35.8423867,59.4098137 Z"/>
      <polygon fill="#FFF" points="9.027 36.194 13.649 36.194 13.649 31.635 9.027 31.635"/>
      <polygon fill="#FFF" points="16.169 36.194 21.631 36.194 21.631 31.635 16.169 31.635"/>
      <polygon fill="#FFF" points="24.993 36.194 29.615 36.194 29.615 31.635 24.993 31.635"/>
      <polygon fill="#FFF" points="9.027 41.998 13.649 41.998 13.649 38.682 9.027 38.682"/>
      <polygon fill="#FFF" points="16.169 41.998 21.631 41.998 21.631 38.682 16.169 38.682"/>
      <polygon fill="#FFF" points="24.993 41.998 29.615 41.998 29.615 38.682 24.993 38.682"/>
      <polygon fill="#FFF" points="9.027 49.459 13.649 49.459 13.649 46.144 9.027 46.144"/>
      <polygon fill="#FFF" points="17.01 49.459 29.615 49.459 29.615 46.144 17.01 46.144"/>
      <polygon fill="#FFF" points="5.665 27.903 32.977 27.903 32.977 3.859 5.665 3.859"/>
      <path fill="#68CBCB" d="M29.1023724,55.2450267 C29.1023724,55.8903277 28.5736699,56.4145029 27.9183528,56.4145029 L25.7911384,56.4145029 C25.1366767,56.4145029 24.6071188,55.8903277 24.6071188,55.2450267 L24.6071188,54.6267363 C24.6071188,53.9805912 25.1366767,53.4581042 25.7911384,53.4581042 L27.9183528,53.4581042 C28.5736699,53.4581042 29.1023724,53.9805912 29.1023724,54.6267363 L29.1023724,55.2450267 Z"/>
      <path fill="#F7CC51" d="M21.2992214,55.2450267 C21.2992214,55.8903277 20.7683802,56.4145029 20.1143463,56.4145029 L17.9875597,56.4145029 C17.3335257,56.4145029 16.8039679,55.8903277 16.8039679,55.2450267 L16.8039679,54.6267363 C16.8039679,53.9805912 17.3335257,53.4581042 17.9875597,53.4581042 L20.1143463,53.4581042 C20.7683802,53.4581042 21.2992214,53.9805912 21.2992214,54.6267363 L21.2992214,55.2450267 Z"/>
      <path fill="#E67D8D" d="M13.4948299,55.2450267 C13.4948299,55.8903277 12.9644165,56.4145029 12.3099548,56.4145029 L10.1835959,56.4145029 C9.52998976,56.4145029 8.99957631,55.8903277 8.99957631,55.2450267 L8.99957631,54.6267363 C8.99957631,53.9805912 9.52998976,53.4581042 10.1835959,53.4581042 L12.3099548,53.4581042 C12.9644165,53.4581042 13.4948299,53.9805912 13.4948299,54.6267363 L13.4948299,55.2450267 Z"/>
      <polygon fill="#BCBCBC" points="5.665 5.517 32.977 5.517 32.977 3.859 5.665 3.859"/>
      <path fill="#004481" fill-rule="nonzero" d="M23.2613619,10.2558139 C24.4171303,11.8765967 25.0962963,13.8558462 25.0962963,15.9925269 C25.0962963,18.1292074 24.4171303,20.1084569 23.2613619,21.7292397 L21.8849478,21.1083166 C22.9116741,19.6613233 23.5145969,17.896804 23.5145969,15.9925269 C23.5145969,14.0882496 22.9116741,12.3237303 21.8849478,10.8767371 L23.2613619,10.2558139 Z M20.4137818,11.5404043 C21.366642,12.7743231 21.9328976,14.3177958 21.9328976,15.9925269 C21.9328976,17.6672579 21.366642,19.2107306 20.4137818,20.4446494 L19.0373963,19.8237391 C19.8611979,18.7635979 20.3511983,17.4348535 20.3511983,15.9925269 C20.3511983,14.5502001 19.8611979,13.2214558 19.0373963,12.1613145 L20.4137818,11.5404043 Z M17.5446727,12.8347068 C18.3058944,13.6700263 18.7694989,14.7775447 18.7694989,15.9925269 C18.7694989,17.207509 18.3058944,18.3150274 17.5446727,19.1503469 L16.1619934,18.5265976 C16.7973798,17.8686441 17.1877996,16.9758352 17.1877996,15.9925269 C17.1877996,15.0092185 16.7973798,14.1164096 16.1619934,13.4584562 L17.5446727,12.8347068 Z M14.7738204,14.0846839 C15.2861058,14.5619631 15.6061002,15.2401576 15.6061002,15.9925269 C15.6061002,16.7448962 15.2861058,17.4230906 14.7738204,17.9003698 L14.0244009,17.5622943 L14.0244009,14.4227594 L14.7738204,14.0846839 Z"/>
    </g>
    <g transform="translate(28.681 23.4)">
      <path fill="#DB8F5E" d="M19.3057143,42.6487599 C20.6286264,43.5851902 18.4264434,43.6452989 17.537158,45.0425626 C16.9960243,45.8925866 16.5105326,46.7804561 16.0840577,47.7 L4.86484162,39.773033 C3.53909887,38.83536 3.18623695,36.9435229 4.07670246,35.5474966 C4.96716797,34.1514705 6.76375976,33.7799018 8.08950251,34.7175748 L19.3057143,42.6487599"/>
      <path fill="#DB8F5E" d="M19.5876911,40.9705254 C19.9815969,41.8259758 19.4373291,41.7729398 18.6050443,41.7199038 C18.0395987,41.6835644 17.3396746,41.647225 16.7128136,41.8966904 C15.7680676,42.2727253 14.8521166,42.7081753 13.971356,43.2 L8.34866759,31.0213723 C7.88206599,30.0854101 8.00071702,28.9881963 8.65843455,28.1568323 C9.3161521,27.3254683 10.4090112,26.8913168 11.5116055,27.0233756 C12.6141997,27.1554343 13.5523098,27.832837 13.9607671,28.7918977 L19.5845144,40.9705254"/>
      <path fill="#DB8F5E" d="M19.9983034,40.7513882 C19.8196851,42.4073147 18.7716594,40.3923599 17.2085023,40.2039485 C16.2565284,40.0907739 15.2983774,40.0467086 14.3407407,40.0720606 L15.8387663,26.0458819 C16.0320225,24.4043905 17.434417,23.2333525 18.9841131,23.4194311 C20.5338091,23.6055097 21.6539138,25.0794348 21.4963289,26.7252096 L19.9983034,40.7513882"/>
      <path fill="#F8B07E" d="M25.8599969,26.2643718 C25.1445349,26.0050569 24.3599823,26.054088 23.6790568,26.4006711 C22.9981313,26.7472541 22.4766555,27.3629758 22.2294312,28.1122867 L17.874336,41.327521 C17.8100412,41.5228011 17.7655847,41.724634 17.7417036,41.9296738 L17.6783567,41.9234554 C14.7921164,41.2663729 7.58245426,42.4354408 5.63948793,49.8001538 C4.50914277,54.074299 7.40627087,56.5938061 7.40627087,56.5938061 L17.6585608,60.3 L23.2716847,43.2770038 L24.9761106,38.1084387 L27.6287594,30.0607331 C27.8759817,29.3115805 27.8286971,28.4902562 27.4973185,27.7776256 C27.1659398,27.064995 26.5776424,26.5194991 25.8619765,26.2612625"/>
      <path fill="#E59A69" d="M25.0912017,27 L19.8045635,42.2169903 C19.6423439,42.6746536 19.2816476,43.0355954 18.8222222,43.2 L21.5704035,42.2464806 L25.9706593,29.5833495 C26.0834357,28.2916748 25.7569779,27.3833738 25.0912017,27.002949"/>
      <path fill="#5ABCFD" d="M20.0642754,42.9406689 C19.7584312,43.8615953 18.7315971,44.3309035 17.7709456,43.9875073 L1.26839727,38.0748473 C0.309751334,37.7304105 -0.219710022,36.7054245 0.0871369004,35.7855386 L11.3061021,2.0609002 C11.6129491,1.13789257 12.6397832,0.668584293 13.5984291,1.01302119 L30.1009775,6.92464053 C31.0606261,7.27011802 31.5900875,8.29406335 31.2832406,9.21394917 L20.0642754,42.9406689"/>
      <path fill="#2C84C8" d="M20.9608435,42.0399314 C20.6529912,42.9629454 19.6271509,43.4301757 18.6684967,43.0878177 L2.16379907,37.1751167 C1.20514479,36.8306774 0.676681602,35.8046438 0.983531193,34.8857922 L12.2045997,1.15987913 C12.5054325,0.237905701 13.535284,-0.231405832 14.4949411,0.113033452 L30.9986358,6.0257344 C31.9572901,6.37017369 32.4857533,7.39412612 32.1799064,8.31505896 L20.9608435,42.0399314"/>
      <polyline fill="#CEEDEE" points="20.588 37.8 2.689 31.414 11.678 4.5 29.578 10.887 20.588 37.8"/>
      <path fill="#004480" fill-rule="nonzero" d="M13.3465587,37.4861998 C13.1103911,38.1747204 12.4843436,38.6525098 11.7604795,38.69667 C11.0366153,38.7408301 10.357571,38.3426593 10.0401338,37.6879119 C9.72269678,37.0331646 9.82941743,36.2508578 10.3105086,35.7059529 C10.7915998,35.161048 11.552263,34.9609177 12.2376343,35.1989267 C13.1719515,35.5240615 13.6679805,36.5471734 13.3465587,37.4861998 M24.1685129,5.90310053 C24.1188584,6.05133684 24.0143775,6.17299282 23.8781215,6.24122797 C23.7418655,6.30946311 23.5850317,6.31866996 23.4422217,6.26681722 L19.2069066,4.75168969 C18.9089321,4.64501189 18.7507594,4.30800704 18.8536179,3.9989683 C18.9564764,3.68992955 19.2814157,3.52588359 19.5793902,3.63256139 L23.8157429,5.14984109 C23.9588816,5.20114648 24.076486,5.30935872 24.1426533,5.45064375 C24.2088205,5.59192878 24.2181234,5.75469781 24.1685129,5.90310053"/>
      <path fill="#FFF" fill-rule="nonzero" d="M12.1164081,0.417380648 C11.9229999,0.548177575 11.7740966,0.725658955 11.6867192,0.929536974 L11.6518519,1.02248731 C11.7487018,0.790192543 11.9084538,0.583706168 12.1164081,0.422028166 M14.1510213,0.174780283 L25.0962963,3.6 L14.1510213,0.174780283 M13.3818883,3.36600759e-05 C13.199581,0.00194143067 13.0185545,0.0279310389 12.8445207,0.0771824353 C13.002896,0.0397878158 13.1659269,0.0210434547 13.3295872,0.0214122363 C13.5526422,0.0218052061 13.7740807,0.0557276268 13.9848885,0.121798595 L13.7674803,0.0548743557 C13.6431178,0.017624969 13.5128612,-0.000900742005 13.3818883,3.36600759e-05"/>
      <polyline fill="#DDF2F3" points="11.496 4.5 8.963 12.6 18.822 7.291 11.496 4.5"/>
      <path fill="#4D7CA6" d="M19.3782714,3.60000058 C19.10689,3.59963081 18.8749867,3.77495882 18.8299663,4.01454084 C18.784946,4.25412285 18.9400058,4.48772713 19.1965851,4.56686774 L21.8956353,5.4 L23.3037037,4.78554237 L19.5589483,3.62710901 C19.5007877,3.60927454 19.439749,3.60011641 19.3782714,3.60000058"/>
      <path fill="#6194DB" fill-rule="nonzero" d="M20.6148148,42.3 C20.2494154,42.9074299 19.4752847,43.2960854 18.6229974,43.3 C19.4752847,43.2960854 20.2494154,42.9074299 20.6148148,42.3"/>
      <path fill="#2C4D91" d="M11.6532309,35.1000006 C10.7211181,35.0992171 9.94398122,35.8159796 9.86567584,36.7486836 C9.78737047,37.6813876 10.4340358,38.5186881 11.3531226,38.6746255 C12.2722093,38.8305629 13.1569181,38.2530839 13.388112,37.3463199 C13.619306,36.4395559 13.1198106,35.5061927 12.2391826,35.1994165 C12.05074,35.1337476 11.852698,35.1001467 11.6532309,35.1000006"/>
      <path fill="#F8B07E" d="M16.1946214,46.6167109 C15.8687282,47.6107976 15.0638341,48.3463352 14.0831349,48.5462536 C13.1024357,48.7461721 12.094923,48.3800991 11.4401171,47.5859309 C10.7853112,46.7917627 10.5826926,45.6901521 10.908586,44.6960654 L15.1738631,31.6842539 C15.4997564,30.6898025 16.3048352,29.9539281 17.2858344,29.7538273 C18.2668335,29.5537265 19.2747157,29.9197995 19.9298216,30.7141501 C20.5849275,31.5085006 20.7877307,32.610448 20.4618374,33.6048994 L16.1965602,46.6167109"/>
      <polygon fill="#67CACA" points="17.926 64.8 18.822 60.449 5.677 55.8 3.585 62.1 17.03 64.8"/>
      <path fill="#FBCEAF" d="M18.5322441,30.6000017 C17.6420809,30.5989262 16.8493263,31.1070059 16.5586441,31.86489 L16.1333333,32.972445 L20.0755993,34.2 L20.4999233,33.0897783 C20.7206401,32.5164646 20.6196378,31.8823774 20.2288663,31.3880964 C19.8380948,30.8938154 19.205893,30.6004837 18.5322441,30.6008905"/>
    </g>
  </g>
</svg>
