<svg xmlns="http://www.w3.org/2000/svg" xmlns:xlink="http://www.w3.org/1999/xlink" width="272" height="112" viewBox="0 0 272 112">
  <defs>
    <path id="ilu_transaction_alert_s-a" d="M4.05387733,0.46872 C1.95130119,0.46872 0.244367202,2.16673826 0.244367202,4.25996608 L0.244367202,43.5683974 C0.244367202,45.662353 1.95130119,47.3596435 4.05387733,47.3596435 L77.1880353,47.3596435 C79.2935205,47.3596435 80.999,45.662353 80.999,43.5683974 L80.999,4.25996608 C80.999,2.16673826 79.2935205,0.46872 77.1880353,0.46872 L4.05387733,0.46872 Z"/>
    <path id="ilu_transaction_alert_s-c" d="M4.05387733,0.459258261 C1.95130119,0.459258261 0.244367202,2.15363739 0.244367202,4.2490487 L0.244367202,43.5589357 C0.244367202,45.6514357 1.95130119,47.3487261 4.05387733,47.3487261 L77.1880353,47.3487261 C79.2935205,47.3487261 80.999,45.6514357 80.999,43.5589357 L80.999,4.2490487 C80.999,2.15363739 79.2935205,0.459258261 77.1880353,0.459258261 L4.05387733,0.459258261 Z"/>
    <path id="ilu_transaction_alert_s-e" d="M47.8232432,0.459986087 L0.671282521,47.3494539 L59.7317806,47.3494539 C61.8387204,47.3494539 63.5441998,45.6514357 63.5441998,43.5589357 L63.5441998,4.24759305 C63.5441998,2.15582087 61.8387204,0.459986087 59.7317806,0.459986087 L47.8232432,0.459986087 Z"/>
    <path id="ilu_transaction_alert_s-g" d="M0,18.4300122 C0,28.479107 8.14120969,36.6249365 18.1813562,36.6249365 C28.2229572,36.6249365 36.3641669,28.479107 36.3641669,18.4300122 C36.3641669,8.38091739 28.2229572,0.235087826 18.1813562,0.235087826 C8.14120969,0.235087826 0,8.38091739 0,18.4300122 Z"/>
  </defs>
  <g fill="none" fill-rule="evenodd" transform="translate(58 11)">
    <path fill="#2DCCCD" d="M123.208054,44.9995707 C123.208054,69.8531235 103.07606,90 78.2418252,90 C53.4080194,90 33.2751678,69.8531235 33.2751678,44.9995707 C33.2751678,20.1464471 53.4080194,0 78.2418252,0 C103.07606,0 123.208054,20.1464471 123.208054,44.9995707"/>
    <path fill="#F35E61" fill-rule="nonzero" d="M19.003422,51.3349047 C19.003422,51.9899797 19.5351717,52.5216432 20.1912494,52.5216432 L119.955335,52.5216432 C120.611412,52.5216432 121.143162,51.9899797 121.143162,51.3349047 L121.143162,51.327886 C121.143162,50.6728111 120.611412,50.1411477 119.955335,50.1411477 L20.1912494,50.1411477 C19.5351717,50.1411477 19.003422,50.6728111 19.003422,51.327886 L19.003422,51.3349047 Z M0,40.0292544 L0,40.0222357 C0,39.3671608 0.532333505,38.8354973 1.1884112,38.8354973 L100.951329,38.8354973 C101.607407,38.8354973 102.13974,39.3671608 102.13974,40.0222357 L102.13974,40.0292544 C102.13974,40.6843293 101.607407,41.2159928 100.951329,41.2159928 L1.1884112,41.2159928 C0.532333505,41.2159928 0,40.6843293 0,40.0292544 Z M6.23542314,45.6816738 L6.23542314,45.6758249 C6.23542314,45.020165 6.76717295,44.4885016 7.42325065,44.4885016 L107.186752,44.4885016 C107.842829,44.4885016 108.37458,45.020165 108.37458,45.6758249 L108.37458,45.6816738 C108.37458,46.3373336 107.842829,46.8684122 107.186752,46.8684122 L7.42325065,46.8684122 C6.76717295,46.8684122 6.23542314,46.3373336 6.23542314,45.6816738 Z M0.593972121,45.6999808 L0.593972121,45.6578688 C0.593972121,45.0121521 1.11755014,44.488677 1.76428865,44.488677 L2.6900353,44.488677 C3.33619011,44.488677 3.86035183,45.0121521 3.86035183,45.6578688 L3.86035183,45.6999808 C3.86035183,46.3456975 3.33619011,46.8685877 2.6900353,46.8685877 L1.76428865,46.8685877 C1.11755014,46.8685877 0.593972121,46.3456975 0.593972121,45.6999808 Z"/>
    <g transform="translate(49.463 20.7)">
      <g transform="translate(0 2.835)">
        <mask id="ilu_transaction_alert_s-b" fill="#fff">
          <use xlink:href="#ilu_transaction_alert_s-a"/>
        </mask>
        <polygon fill="#004481" points="-3.393 50.998 84.635 50.998 84.635 -3.171 -3.393 -3.171" mask="url(#ilu_transaction_alert_s-b)"/>
      </g>
      <g transform="translate(0 .652)">
        <mask id="ilu_transaction_alert_s-d" fill="#fff">
          <use xlink:href="#ilu_transaction_alert_s-c"/>
        </mask>
        <polygon fill="#2A86CA" points="-3.393 50.988 84.635 50.988 84.635 -3.181 -3.393 -3.181" mask="url(#ilu_transaction_alert_s-d)"/>
      </g>
      <g transform="translate(17.455 .652)">
        <mask id="ilu_transaction_alert_s-f" fill="#fff">
          <use xlink:href="#ilu_transaction_alert_s-e"/>
        </mask>
        <polygon fill="#0977BA" points="-13.436 63.172 85.313 63.172 85.313 -24.737 -13.436 -24.737" mask="url(#ilu_transaction_alert_s-f)"/>
      </g>
      <polygon fill="#072146" points=".322 14.878 81.078 14.878 81.078 6.845 .322 6.845"/>
      <polygon fill="#FFF" points="3.3 37.055 63.574 37.055 63.574 31.49 3.3 31.49"/>
    </g>
    <g fill="#FADE8E" transform="translate(38.671)">
      <polygon points="13.393 13.403 11.691 13.949 13.393 14.496 13.94 16.2 14.486 14.496 16.188 13.949 14.486 13.403 13.94 11.7"/>
      <polygon points="4.083 4.09 0 5.404 4.083 6.721 5.395 10.812 6.709 6.721 10.792 5.404 6.709 4.09 5.395 0"/>
      <polygon points="76.467 8.124 73.745 8.999 76.467 9.876 77.342 12.6 78.217 9.876 80.94 8.999 78.217 8.124 77.342 5.4"/>
    </g>
    <g transform="translate(96.736 47.554)">
      <mask id="ilu_transaction_alert_s-h" fill="#fff">
        <use xlink:href="#ilu_transaction_alert_s-g"/>
      </mask>
      <use fill="#F35E61" xlink:href="#ilu_transaction_alert_s-g"/>
      <path fill="#FFF" fill-rule="nonzero" d="M18.8367593,8.59175645 L27.2736243,24.6623622 C27.5271928,25.1228617 27.2679355,25.4960612 26.6933696,25.4960612 L10.0618309,25.4960612 C9.48785066,25.4960612 9.22767312,25.1234617 9.48165995,24.6623622 L17.9185249,8.59175645 C18.1720098,8.131257 18.5828561,8.13058201 18.8367593,8.59175645 Z M19.1270316,19.4961059 L19.1270316,14.9961113 L17.6281519,13.4961131 L17.6281519,19.4961059 L19.1270316,19.4961059 Z M18.3775917,20.9961041 C17.7567354,20.9961041 17.253432,21.4997832 17.253432,22.1211028 C17.253432,22.7424224 17.7567354,23.2461014 18.3775917,23.2461014 C18.998448,23.2461014 19.5017514,22.7424224 19.5017514,22.1211028 C19.5017514,21.4997832 18.998448,20.9961041 18.3775917,20.9961041 Z" mask="url(#ilu_transaction_alert_s-h)"/>
    </g>
  </g>
</svg>
