<?xml version="1.0" encoding="UTF-8"?>
<svg width="96px" height="96px" viewBox="0 0 96 96" version="1.1" xmlns="http://www.w3.org/2000/svg" xmlns:xlink="http://www.w3.org/1999/xlink">
    <!-- Generator: Sketch 55.2 (78181) - https://sketchapp.com -->
    <title>Assets/Illustration/not-generated</title>
    <desc>Created with Sketch.</desc>
    <defs>
        <path d="M47.8103037,0 C21.3875594,0.102225945 0,21.5529932 0,48 L0,48 C0,74.5098822 21.4902136,96 48.0002139,96 L48.0002139,96 C74.5097864,96 96,74.5098822 96,48 L96,48 C96,21.5529932 74.6128683,0.102225945 48.1896963,0 L48.1896963,0 L47.8103037,0 Z" id="path-1"></path>
        <linearGradient x1="30.4685658%" y1="21.7057242%" x2="58.3140144%" y2="62.0441176%" id="linearGradient-3">
            <stop stop-color="#FFFFFF" stop-opacity="0.5" offset="0%"></stop>
            <stop stop-color="#EDF8F9" stop-opacity="0.2" offset="100%"></stop>
            <stop stop-color="#FFFFFF" stop-opacity="0" offset="100%"></stop>
        </linearGradient>
        <linearGradient x1="100.014738%" y1="49.9939247%" x2="-0.0147383935%" y2="49.9939247%" id="linearGradient-4">
            <stop stop-color="#BDBDBD" offset="0%"></stop>
            <stop stop-color="#BDBDBD" stop-opacity="0" offset="100%"></stop>
        </linearGradient>
        <path d="M11.6941479,6.25129406 L6.06477181,17.3932859 C5.89567184,17.7280869 6.06909467,18 6.45204888,18 L6.45204888,18 L17.547804,18 C17.9317754,18 18.1039268,17.7280869 17.9353354,17.3932859 L17.9353354,17.3932859 L12.3067221,6.25129406 C12.2212821,6.08376469 12.1101593,6 12.0003079,6 L12.0003079,6 C11.8889308,6 11.7783165,6.08376469 11.6941479,6.25129406 L11.6941479,6.25129406 Z M11.3513708,9.14542838 L11.4177394,9.14542838 L12.6589078,10.3431345 L12.6589078,14.8303443 L11.3513708,14.8303443 L11.3513708,9.14542838 Z M11.151248,16.4283168 C11.151248,15.9868124 11.5176737,15.6293305 11.9690307,15.6293305 L11.9690307,15.6293305 C12.4198792,15.6293305 12.7863049,15.9868124 12.7863049,16.4283168 L12.7863049,16.4283168 C12.7863049,16.8700788 12.4198792,17.227303 11.9690307,17.227303 L11.9690307,17.227303 C11.5176737,17.227303 11.151248,16.8700788 11.151248,16.4283168 L11.151248,16.4283168 Z" id="path-5"></path>
    </defs>
    <g id="22_Error_&amp;_Empty_Templates_01" stroke="none" stroke-width="1" fill="none" fill-rule="evenodd">
        <g id="22-Error-&amp;-Empty-01-01-01" transform="translate(-112.000000, -100.000000)">
            <g id="Assets/Illustration/not-generated" transform="translate(24.000000, 92.000000)">
                <rect id="Rectangle" x="0" y="0" width="272" height="112"></rect>
                <g id="Background" transform="translate(88.000000, 8.000000)">
                    <mask id="mask-2" fill="white">
                        <use xlink:href="#path-1"></use>
                    </mask>
                    <use fill="#FCDFDF" xlink:href="#path-1"></use>
                </g>
                <g id="Illustration-min" transform="translate(108.000000, 28.000000)">
                    <g id="Celular">
                        <path d="M3.48191758,0 L32.5180824,0 C34.4407065,0 36,1.56208531 36,3.48815166 L36,60.5118483 C36,62.4379147 34.4407065,64 32.5180824,64 L3.48191758,64 C1.55929352,64 1.24456001e-13,62.4379147 1.24456001e-13,60.5118483 L1.24456001e-13,3.48815166 C1.24456001e-13,1.56208531 1.55929352,0 3.48191758,0 Z" id="Path" fill="#1464A5" fill-rule="nonzero"></path>
                        <rect id="Rectangle" fill="#49A5E6" fill-rule="nonzero" x="1.24456001e-13" y="8" width="36" height="48"></rect>
                        <polygon id="Path" fill="url(#linearGradient-3)" opacity="0.5" points="8.52651283e-14 8 8.52651283e-14 56 5 56 32 8"></polygon>
                    </g>
                    <g id="card" transform="translate(18.000000, 18.000000)" fill-rule="nonzero">
                        <path d="M2.70058708,0 L45.2994129,0 C46.7906067,0 48,1.16808424 48,2.60834346 L48,25.3916565 C48,26.8319158 46.7906067,28 45.2994129,28 L2.70058708,28 C1.20939335,28 0,26.8319158 0,25.3916565 L0,2.60834346 C0,1.16808424 1.20939335,0 2.70058708,0 Z" id="Path" fill="#FFFFFF"></path>
                        <path d="M45.6153846,28 C47.066011,28 48,27.1069259 48,25.6666667 L48,2.33333333 C48,0.893074119 47.066011,0 45.6153846,0 L31.9038462,0 L17,28 L45.6153846,28 Z" id="Path" fill="url(#linearGradient-4)"></path>
                        <g id="Logo" transform="translate(3.000000, 4.000000)" fill="#043263">
                            <path d="M10.0238325,0.521952966 L8.8257649,2.69338154 C8.8057971,2.72195297 8.76586151,2.74100059 8.72592593,2.72195297 C8.71594203,2.71242916 8.70595813,2.70290535 8.69597424,2.69338154 L7.4979066,0.521952966 C7.48792271,0.502905347 7.45797101,0.483857728 7.43800322,0.483857728 L6.8589372,0.483857728 C6.82898551,0.483857728 6.80901771,0.502905347 6.80901771,0.531476776 C6.80901771,0.541000585 6.80901771,0.550524395 6.81900161,0.550524395 L8.70595813,3.91242916 C8.72592593,3.94100059 8.76586151,3.9600482 8.7958132,3.94100059 C8.8057971,3.93147678 8.815781,3.92195297 8.8257649,3.91242916 L10.7127214,0.550524395 C10.7227053,0.521952966 10.7127214,0.493381538 10.6927536,0.483857728 C10.6827697,0.483857728 10.6727858,0.474333919 10.6628019,0.474333919 L10.0837359,0.474333919 C10.0537842,0.483857728 10.0338164,0.502905347 10.0238325,0.521952966" id="Path"></path>
                            <path d="M10.7027375,3.42671487 L11.9008052,1.2552863 C11.9207729,1.22671487 11.9607085,1.20766725 12.0006441,1.22671487 C12.010628,1.23623868 12.0206119,1.24576249 12.0305958,1.2552863 L13.2286634,3.42671487 C13.2386473,3.44576249 13.268599,3.46481011 13.2885668,3.46481011 L13.8676329,3.46481011 C13.8975845,3.46481011 13.9175523,3.44576249 13.9175523,3.41719106 C13.9175523,3.40766725 13.9175523,3.39814344 13.9075684,3.39814344 L12.0206119,0.0362386806 C12.0006441,0.00766725207 11.9607085,-0.011380367 11.9307568,0.00766725207 C11.9207729,0.0171910616 11.910789,0.0267148711 11.9008052,0.0362386806 L10.0238325,3.38861963 C10.0138486,3.41719106 10.0238325,3.44576249 10.0438003,3.4552863 C10.0537842,3.4552863 10.0537842,3.46481011 10.0637681,3.46481011 L10.6428341,3.46481011 C10.6727858,3.4552863 10.6927536,3.44576249 10.7027375,3.42671487" id="Path"></path>
                            <path d="M1.75716586,3.4552863 L0.678904992,3.4552863 C0.638969404,3.4552863 0.609017713,3.42671487 0.609017713,3.38861963 L0.609017713,3.38861963 L0.609017713,2.46481011 C0.609017713,2.42671487 0.638969404,2.39814344 0.678904992,2.39814344 C0.678904992,2.39814344 0.678904992,2.39814344 0.678904992,2.39814344 L1.75716586,2.39814344 C2.26634461,2.39814344 2.49597424,2.54100059 2.49597424,2.92195297 C2.49597424,3.30290535 2.2763285,3.4552863 1.75716586,3.4552863 M0.678904992,0.988619633 L1.73719807,0.988619633 C2.12657005,0.988619633 2.32624799,1.15052439 2.32624799,1.44576249 C2.32624799,1.74100059 2.12657005,1.90290535 1.73719807,1.90290535 L0.678904992,1.90290535 C0.638969404,1.90290535 0.609017713,1.87433392 0.609017713,1.83623868 C0.609017713,1.83623868 0.609017713,1.83623868 0.609017713,1.83623868 L0.609017713,1.0552863 C0.609017713,1.01719106 0.638969404,0.988619633 0.678904992,0.988619633 L0.678904992,0.988619633 M2.52592593,2.09338154 C2.78550725,1.9600482 2.9452496,1.68385773 2.9352657,1.39814344 C2.9352657,0.8552863 2.49597424,0.493381538 1.86698873,0.493381538 L0.0698872786,0.493381538 C0.0299516908,0.493381538 1.42108547e-14,0.521952966 1.42108547e-14,0.560048204 C1.42108547e-14,0.560048204 1.42108547e-14,0.560048204 1.42108547e-14,0.560048204 L1.42108547e-14,3.90290535 C1.42108547e-14,3.94100059 0.0299516908,3.96957201 0.0698872786,3.96957201 L1.78711755,3.96957201 C2.64573269,3.96957201 3.09500805,3.61719106 3.09500805,2.93147678 C3.09500805,2.24576249 2.52592593,2.09338154 2.52592593,2.09338154" id="Shape"></path>
                            <path d="M5.43123994,3.4552863 L4.35297907,3.4552863 C4.31304348,3.4552863 4.28309179,3.42671487 4.28309179,3.38861963 L4.28309179,2.46481011 C4.28309179,2.42671487 4.31304348,2.39814344 4.35297907,2.39814344 L5.43123994,2.39814344 C5.94041868,2.39814344 6.17004831,2.54100059 6.17004831,2.92195297 C6.17004831,3.30290535 5.95040258,3.4552863 5.43123994,3.4552863 M4.35297907,0.988619633 L5.41127214,0.988619633 C5.80064412,0.988619633 6.00032206,1.15052439 6.00032206,1.44576249 C6.00032206,1.74100059 5.80064412,1.90290535 5.41127214,1.90290535 L4.35297907,1.90290535 C4.31304348,1.90290535 4.28309179,1.87433392 4.28309179,1.83623868 L4.28309179,1.0552863 C4.28309179,1.01719106 4.31304348,0.988619633 4.35297907,0.988619633 C4.35297907,0.988619633 4.35297907,0.988619633 4.35297907,0.988619633 M6.2099839,2.09338154 C6.46956522,1.9600482 6.62930757,1.68385773 6.61932367,1.39814344 C6.61932367,0.8552863 6.18003221,0.493381538 5.5510467,0.493381538 L3.75394525,0.493381538 C3.71400966,0.493381538 3.68405797,0.521952966 3.68405797,0.560048204 L3.68405797,0.560048204 L3.68405797,3.90290535 C3.68405797,3.94100059 3.71400966,3.96957201 3.75394525,3.96957201 C3.75394525,3.96957201 3.75394525,3.96957201 3.75394525,3.96957201 L5.47117552,3.96957201 C6.32979066,3.96957201 6.77906602,3.61719106 6.77906602,2.93147678 C6.77906602,2.24576249 6.2099839,2.09338154 6.2099839,2.09338154" id="Shape"></path>
                        </g>
                    </g>
                </g>
                <g id="Alert" transform="translate(156.000000, 12.000000)">
                    <path d="M12.0004842,24 C5.37224785,24 0,18.6271605 0,11.9998326 C0,5.37216991 5.37224785,0 12.0004842,0 C18.6271066,0 24,5.37216991 24,11.9998326 C24,18.6271605 18.6271066,24 12.0004842,24 Z" id="Fill-22" fill="#C0475E"></path>
                    <mask id="mask-6" fill="white">
                        <use xlink:href="#path-5"></use>
                    </mask>
                    <use id="Clip-28" fill="#FFFFFF" xlink:href="#path-5"></use>
                </g>
            </g>
        </g>
    </g>
</svg>