<svg xmlns="http://www.w3.org/2000/svg" xmlns:xlink="http://www.w3.org/1999/xlink" width="272" height="112" viewBox="0 0 272 112">
  <defs>
    <polygon id="ilu_reactivate_mobile_payment_s-a" points=".268 .257 40.812 .257 40.812 42.795 .268 42.795"/>
    <path id="ilu_reactivate_mobile_payment_s-c" d="M0.137348811,9.48232809 C0.137348811,14.5610195 4.25401412,18.6788538 9.33475122,18.6788538 C14.4134427,18.6788538 18.5301079,14.5610195 18.5301079,9.48232809 C18.5301079,4.40275997 14.4134427,0.283756799 9.33475122,0.283756799 C4.25401412,0.283756799 0.137348811,4.40275997 0.137348811,9.48232809 Z"/>
  </defs>
  <g fill="none" fill-rule="evenodd" transform="translate(49 11)">
    <circle cx="86.753" cy="45" r="45" fill="#004481"/>
    <g transform="translate(0 33.86)">
      <path fill="#2DCCCD" fill-opacity=".5" fill-rule="nonzero" d="M86.7635653,7.3877003 C86.7635653,8.33716048 85.9941196,9.10689831 85.045244,9.10689831 L21.5608702,9.10689831 C20.6119945,9.10689831 19.8425489,8.33716048 19.8425489,7.3877003 L19.8425489,7.31931813 C19.8425489,6.36985795 20.6119945,5.60012014 21.5608702,5.60012014 L85.045244,5.60012014 C85.9941196,5.60012014 86.7635653,6.36985795 86.7635653,7.31931813 L86.7635653,7.3877003 Z M67.1840539,13.8173488 C67.1840539,14.7665167 66.4146084,15.5359624 65.4657326,15.5359624 L1.98135887,15.5359624 C1.03248316,15.5359624 0.263037584,14.7665167 0.263037584,13.8173488 L0.263037584,13.7477977 C0.263037584,12.7986297 1.03248316,12.0291842 1.98135887,12.0291842 L65.4657326,12.0291842 C66.4146084,12.0291842 67.1840539,12.7986297 67.1840539,13.7477977 L67.1840539,13.8173488 Z M89.977995,19.3694845 C89.977995,20.3186524 89.2085494,21.0880981 88.2593815,21.0880981 L24.7750077,21.0880981 C23.8267165,21.0880981 23.0572709,20.3186524 23.0572709,19.3694845 L23.0572709,19.3008101 C23.0572709,18.3516421 23.8267165,17.5813199 24.7750077,17.5813199 L88.2593815,17.5813199 C89.2085494,17.5813199 89.977995,18.3516421 89.977995,19.3008101 L89.977995,19.3694845 Z M21.011475,19.3714717 C21.011475,20.3194707 20.2431983,21.0883318 19.2954915,21.0883318 L18.9284487,21.0883318 C17.980742,21.0883318 17.2124653,20.3194707 17.2124653,19.3714717 L17.2124653,19.2984138 C17.2124653,18.3504148 17.980742,17.5815537 18.9284487,17.5815537 L19.2954915,17.5815537 C20.2431983,17.5815537 21.011475,18.3504148 21.011475,19.2984138 L21.011475,19.3714717 Z M72.1519896,13.8193652 C72.1519896,14.7673642 71.3834207,15.5359331 70.4354217,15.5359331 L70.0695479,15.5359331 C69.1215488,15.5359331 68.35298,14.7673642 68.35298,13.8193652 L68.35298,13.7457229 C68.35298,12.7977239 69.1215488,12.0291549 70.0695479,12.0291549 L70.4354217,12.0291549 C71.3834207,12.0291549 72.1519896,12.7977239 72.1519896,13.7457229 L72.1519896,13.8193652 Z"/>
      <polygon fill="#F7CC51" points="131.771 37.646 161.552 37.646 161.552 14.227 131.771 14.227"/>
      <polygon fill="#B9993D" points="113.266 33.969 118.289 33.969 118.289 9.807 113.266 9.807"/>
      <polygon fill="#FCEFC9" points="78.391 23.56 133.034 23.56 133.034 .143 78.391 .143"/>
    </g>
    <g transform="translate(65 8.35)">
      <polygon fill="#C4BA9D" points="41.346 49.07 44.339 49.07 44.339 25.653 41.346 25.653"/>
      <path fill="#004480" d="M41.3195275,70.5894559 C41.3195275,72.3893098 39.7464453,73.8457916 37.8048591,73.8457916 L4.31542003,73.8457916 C2.37383387,73.8457916 0.800751636,72.3893098 0.800751636,70.5894559 L0.800751636,5.27045275 C0.800751636,3.47147555 2.37383387,2.01557816 4.31542003,2.01557816 L37.8048591,2.01557816 C39.7464453,2.01557816 41.3195275,3.47147555 41.3195275,5.27045275 L41.3195275,70.5894559"/>
      <path fill="#2A85C9" d="M41.3195275,68.7464394 C41.3195275,70.5442477 39.7464453,72.0036518 37.8048591,72.0036518 L4.31542003,72.0036518 C2.37383387,72.0036518 0.800751636,70.5442477 0.800751636,68.7464394 L0.800751636,3.43035859 C0.800751636,1.63255032 2.37383387,0.17343838 4.31542003,0.17343838 L37.8048591,0.17343838 C39.7464453,0.17343838 41.3195275,1.63255032 41.3195275,3.43035859 L41.3195275,68.7464394"/>
      <polygon fill="#CFEEEF" points=".801 61.874 41.346 61.874 41.346 9.383 .801 9.383"/>
      <g transform="translate(.533 19.08)">
        <mask id="ilu_reactivate_mobile_payment_s-b" fill="#fff">
          <use xlink:href="#ilu_reactivate_mobile_payment_s-a"/>
        </mask>
        <polygon fill="#B4E5E6" points="40.812 .257 .268 40.802 .268 42.795 40.812 42.795 40.812 29.99 40.812 6.573" mask="url(#ilu_reactivate_mobile_payment_s-b)"/>
      </g>
      <g transform="translate(1.702 .962)">
        <path fill="#004480" fill-rule="nonzero" d="M21.8944525,66.2232551 C21.8944525,67.8699797 20.55837,69.2034321 18.9119377,69.2034321 C17.2643364,69.2034321 15.9262083,67.8699797 15.9262083,66.2232551 C15.9262083,64.5739005 17.2643364,63.2386947 18.9119377,63.2386947 C20.55837,63.2386947 21.8944525,64.5739005 21.8944525,66.2232551 M23.9636269,1.97454988 C23.9636269,2.48449388 23.552165,2.89478692 23.0422209,2.89478692 L14.7545353,2.89478692 C14.2457603,2.89478692 13.8331293,2.48449388 13.8331293,1.97454988 C13.8331293,1.46635928 14.2457603,1.05431285 14.7545353,1.05431285 L23.0422209,1.05431285 C23.552165,1.05431285 23.9636269,1.46635928 23.9636269,1.97454988"/>
        <path fill="#6AAAD9" d="M25.3491549,0.124987418 L2.93908921,0.124987418 C1.54134589,0.124987418 0.240038964,1.93711503 0.240038964,3.27787321 L0.240038964,8.42114782 L17.2528809,8.42114782 L22.6457213,2.89504993 L14.7545937,2.89504993 C14.2455264,2.89504993 13.8331877,2.48446465 13.8331877,1.97452066 C13.8331877,1.46633006 14.2455264,1.05428363 14.7545937,1.05428363 L23.0419872,1.05428363 C23.4253949,1.05428363 23.7526943,1.28689991 23.8920887,1.61799821 L25.3491549,0.124987418"/>
        <polygon fill="#DDF3F4" points="17.253 8.421 .24 8.421 .24 25.854"/>
        <path fill="#4D7CA6" d="M23.0421333,1.05419596 L14.7547399,1.05419596 C14.2456725,1.05419596 13.8330417,1.46624239 13.8330417,1.97443299 C13.8330417,2.48466921 14.2456725,2.89496226 14.7547399,2.89496226 L22.6458673,2.89496226 L23.8919425,1.61820277 C23.7528403,1.28681224 23.4252488,1.05419596 23.0421333,1.05419596"/>
      </g>
    </g>
    <g transform="translate(107.702 33.312)">
      <path fill="#FCEFC9" d="M8.91027985,7.76224677 C9.03330931,7.77598158 9.15926107,7.7517264 9.28608952,7.7517264 L24.8988503,7.7517264 C26.848619,7.7517264 28.4298837,6.17046168 28.4298837,4.22010858 C28.4298837,2.26946325 26.848619,0.68965968 24.8988503,0.68965968 L9.28608952,0.68965968 C9.15926107,0.68965968 9.03330931,0.72735753 8.91027985,0.7408002 L8.91027985,7.76224677 Z"/>
      <polygon fill="#FCEFC9" points="23.408 27.826 28.43 27.826 28.43 3.664 23.408 3.664"/>
      <path fill="#B9993D" d="M8.91045373,31.181229 C9.03348328,31.1949638 9.15943504,31.1710009 9.28626349,31.1710009 L24.8990243,31.1710009 C26.8487929,31.1710009 28.4300576,29.5894439 28.4300576,27.6396753 C28.4300576,25.6881533 26.8487929,24.1080575 24.8990243,24.1080575 L9.28626349,24.1080575 C9.15943504,24.1080575 9.03348328,24.146632 8.91045373,24.1603669 L8.91045373,31.181229 Z"/>
      <path fill="#F7CC51" d="M25.0847667,31.1195974 C24.9608605,31.1067392 24.8354931,31.1309944 24.7086647,31.1309944 L9.09619609,31.1309944 C7.14584299,31.1309944 5.56457827,32.7122591 5.56457827,34.66232 C5.56457827,36.6126731 7.14584299,38.1939379 9.09619609,38.1939379 L24.7086647,38.1939379 C24.8354931,38.1939379 24.9608605,38.1547788 25.0847667,38.1419207 L25.0847667,31.1195974 Z"/>
      <path fill="#B9993D" fill-rule="nonzero" d="M35.2740612,35.2017209 C35.6621446,35.2017209 35.9771702,34.8700382 35.9771702,34.4626675 L35.9771702,18.5050735 C35.9771702,18.0974105 35.6621446,17.7663122 35.2740612,17.7663122 C34.8848089,17.7663122 34.5691988,18.0974105 34.5691988,18.5050735 L34.5691988,34.4626675 C34.5691988,34.8700382 34.8848089,35.2017209 35.2740612,35.2017209 M1.30328761,20.995675 C1.69224772,20.995675 2.00668882,20.6645767 2.00668882,20.2566215 L2.00668882,4.29931974 C2.00668882,3.89194905 1.69224772,3.56026629 1.30328761,3.56026629 C0.91374304,3.56026629 0.59900962,3.89194905 0.59900962,4.29931974 L0.59900962,20.2566215 C0.59900962,20.6645767 0.91374304,20.995675 1.30328761,20.995675 M4.86114781,20.995675 C5.25010792,20.995675 5.56454911,20.6645767 5.56454911,20.2566215 L5.56454911,4.29931974 C5.56454911,3.89194905 5.25010792,3.56026629 4.86114781,3.56026629 C4.47189547,3.56026629 4.15657768,3.89194905 4.15657768,4.29931974 L4.15657768,20.2566215 C4.15657768,20.6645767 4.47189547,20.995675 4.86114781,20.995675 M39.1395827,27.5922754 C39.5279585,27.5922754 39.8432762,27.4049549 39.8432762,27.175261 L39.8432762,18.1824207 C39.8432762,17.9533112 39.5279585,17.766283 39.1395827,17.766283 C38.7509148,17.766283 38.4350126,17.9533112 38.4350126,18.1824207 L38.4350126,27.175261 C38.4350126,27.4049549 38.7509148,27.5922754 39.1395827,27.5922754 M43.1043754,35.2017209 C43.4933355,35.2017209 43.8080688,34.8700382 43.8080688,34.4626675 L43.8080688,18.5050735 C43.8080688,18.0974105 43.4933355,17.7663122 43.1043754,17.7663122 C42.7157074,17.7663122 42.3995129,18.0974105 42.3995129,18.5050735 L42.3995129,34.4626675 C42.3995129,34.8700382 42.7157074,35.2017209 43.1043754,35.2017209"/>
      <polygon fill="#B9993D" points="13.25 6.237 22.742 6.237 22.742 4.742 13.25 4.742"/>
      <polygon fill="#B9993D" points="13.25 13.772 22.742 13.772 22.742 12.278 13.25 12.278"/>
      <polygon fill="#B9993D" points="13.25 16.326 22.742 16.326 22.742 14.831 13.25 14.831"/>
      <polygon fill="#B9993D" points="13.25 11.253 22.742 11.253 22.742 7.543 13.25 7.543"/>
      <polygon fill="#B9993D" points="13.25 21.293 22.742 21.293 22.742 17.584 13.25 17.584"/>
      <path fill="#B9993D" fill-rule="nonzero" d="M47.0257456,15.2021268 C47.0153551,15.2333955 47.0130822,15.2480071 47.0101599,15.2614498 C47.0030164,15.3041156 47.0020423,15.3269097 46.99912,15.3634386 C46.9968471,15.3982142 46.9948989,15.4394188 46.9929507,15.4888059 C46.9841837,15.6974592 47.1653673,15.8730903 47.3972043,15.8806884 C47.6290413,15.8885786 47.8238623,15.7255135 47.8326292,15.5168602 C47.8345774,15.4642585 47.8368504,15.423346 47.8384739,15.3985064 L47.8404221,15.3771735 L47.6800194,15.3611008 L47.8391233,15.3847715 L47.8404221,15.3771735 L47.6800194,15.3611008 L47.8391233,15.3847715 L47.4855231,15.3318776 L47.827434,15.428314 C47.8368504,15.4011365 47.8374998,15.3912005 47.8391233,15.3847715 L47.4855231,15.3318776 L47.827434,15.428314 C47.8969202,15.2293043 47.7738582,15.016852 47.5524117,14.9546067 C47.3309651,14.8920692 47.0952317,15.0028249 47.0257456,15.2024191 L47.0257456,15.2021268 Z M46.9704164,16.976615 C46.9694423,17.0946765 46.9687929,17.2179982 46.9678188,17.3465801 C46.96652,17.5549411 47.1535481,17.7256043 47.3857098,17.726481 C47.6178715,17.7273577 47.8068479,17.5590324 47.8081467,17.3503791 C47.8091208,17.2223817 47.8097702,17.0993522 47.8104196,16.9815829 C47.8120431,16.7726374 47.6253397,16.6025587 47.393178,16.6010975 C47.1610163,16.5996363 46.9717152,16.7679617 46.9704164,16.9769072 L46.9704164,16.976615 Z M46.9619741,18.8252715 C46.9616494,18.9459631 46.9616494,19.0692848 46.9613247,19.1949444 C46.961,19.40389 47.1486776,19.5733842 47.3808393,19.5733842 C47.6126763,19.5739686 47.8010033,19.4050589 47.801328,19.1961134 C47.8016527,19.0710382 47.8019774,18.9477165 47.8023021,18.8270249 C47.8026268,18.6180794 47.6149492,18.4482929 47.3831122,18.4480007 C47.1512752,18.4477085 46.9626236,18.616326 46.9622989,18.8252715 L46.9619741,18.8252715 Z M46.9597012,20.6727592 C46.9593765,20.7946197 46.9593765,20.9179414 46.9593765,21.042432 C46.9593765,21.2513776 47.1473788,21.4205796 47.3795405,21.4205796 C47.6117022,21.4205796 47.7997045,21.2513776 47.7997045,21.042432 L47.7997045,20.6730514 C47.7997045,20.4643981 47.6117022,20.2949038 47.3798652,20.2946116 C47.1477035,20.2946116 46.9597012,20.4641059 46.9597012,20.6727592 Z M46.9600259,22.5214157 C46.9600259,22.6438607 46.9603506,22.7668902 46.9603506,22.8907963 C46.9606753,23.0994496 47.1486776,23.2686517 47.3808393,23.2683595 C47.6126763,23.2683595 47.8006786,23.0988652 47.8006786,22.8902119 C47.8003539,22.7663057 47.8003539,22.6432763 47.8003539,22.5208313 C47.8000292,22.3118857 47.6117022,22.1429759 47.3798652,22.1429759 C47.1477035,22.1429759 46.9597012,22.3124702 46.9600259,22.5214157 Z M46.9622989,24.3694878 C46.9626236,24.4928095 46.9629483,24.6158389 46.9629483,24.7391606 C46.963273,24.9481061 47.1515999,25.117016 47.3837616,25.1164315 C47.6155986,25.1164315 47.8032762,24.9469372 47.8029515,24.7382839 C47.8029515,24.61467 47.8026268,24.4916405 47.8026268,24.3686111 C47.8023021,24.1596656 47.6136504,23.9907557 47.3818134,23.9910479 C47.1496517,23.9913402 46.9619741,24.1608345 46.9622989,24.36978 L46.9622989,24.3694878 Z M46.9658706,26.2181443 L46.9668447,26.5881095 C46.9674941,26.7967628 47.1558211,26.9659647 47.3879828,26.9653803 C47.6198198,26.9647958 47.807822,26.7953016 47.8071726,26.5863561 L47.8061985,26.2163909 C47.8058738,26.0074454 47.6172221,25.8385356 47.3853851,25.8391201 C47.1532234,25.8394123 46.9655459,26.0089065 46.9661953,26.2178521 L46.9658706,26.2181443 Z M46.9707411,28.0665087 C46.9710658,28.1901226 46.9713905,28.3134443 46.9717152,28.4361815 C46.9723646,28.645127 47.1610163,28.8140369 47.3928533,28.8134524 C47.625015,28.812868 47.8123679,28.6430814 47.8120431,28.4344281 C47.8117184,28.3113987 47.8113937,28.188077 47.811069,28.0644631 C47.8104196,27.8558098 47.621768,27.6868999 47.389931,27.6874844 C47.1577693,27.6877766 46.9700917,27.8578554 46.9707411,28.0668009 L46.9707411,28.0665087 Z M46.976261,29.914873 C46.9769104,30.0387791 46.9772351,30.1621008 46.9775598,30.2845458 C46.9782092,30.4931991 47.1668609,30.6621089 47.3990226,30.6615245 C47.6308596,30.66094 47.8185372,30.4908613 47.8178878,30.282208 C47.8172384,30.159763 47.8169137,30.0364413 47.816589,29.9128274 C47.8159396,29.7038818 47.6269632,29.5352642 47.3951262,29.5358487 C47.1632892,29.5364331 46.9756116,29.7062197 46.9765857,29.914873 L46.976261,29.914873 Z M46.9827551,31.7632373 C46.9830798,31.8874356 46.9837292,32.0107574 46.9840539,32.1329102 C46.9847033,32.3415635 47.1733549,32.510181 47.4051919,32.5095965 C47.6373536,32.5090121 47.8247065,32.3392256 47.8240571,32.1305723 C47.8237324,32.0084195 47.823083,31.88539 47.8227583,31.7608994 C47.8221089,31.5519539 47.6334572,31.3833363 47.4016202,31.3839207 C47.1694585,31.3845053 46.9821057,31.5542917 46.9827551,31.7632373 Z M46.9895738,33.6118939 C46.9902232,33.7372612 46.9905479,33.8605829 46.9908726,33.9815667 C46.9918467,34.19022 47.1804984,34.3588376 47.4126601,34.3582531 C47.6448218,34.3573764 47.8321747,34.1875899 47.8312005,33.9789366 C47.8308758,33.8579528 47.8302264,33.7346311 47.829577,33.6089715 C47.8289276,33.4000259 47.640276,33.2317007 47.4081143,33.2322851 C47.1759526,33.233454 46.9885997,33.4029483 46.9895738,33.6118939 Z M46.9973666,35.4608426 C46.9976913,35.5891322 46.9983407,35.7127461 46.9986654,35.8308077 C46.9996395,36.0391688 47.1886159,36.2080786 47.4207776,36.2072019 C47.6526146,36.2063252 47.8399675,36.0365387 47.8389934,35.8275932 C47.838344,35.7098238 47.8380193,35.5862099 47.8373699,35.4576281 C47.8363958,35.2486826 47.6477441,35.0803572 47.4159071,35.0809416 C47.1837454,35.0821106 46.9963925,35.2516049 46.9973666,35.4605504 L46.9973666,35.4608426 Z M47.0056141,37.2995633 C47.0062635,37.4225928 47.0065882,37.4871759 47.0065882,37.4871759 C47.0075623,37.6958292 47.1962139,37.864739 47.4283756,37.8638623 C47.6605373,37.8629856 47.8478902,37.6929069 47.8469161,37.4839613 C47.8469161,37.4839613 47.8462667,37.4187937 47.8456173,37.2960565 C47.8446432,37.0871109 47.6556668,36.9187856 47.4238298,36.9196623 C47.1916681,36.920539 47.00464,37.0906178 47.0056141,37.2995633 Z"/>
      <polygon fill="#F7CC51" points="55.791 36.269 53.85 38.209 51.91 36.269 53.85 34.328"/>
      <polygon fill="#F7CC51" points="55.791 32.387 53.85 34.328 51.91 32.387 53.85 30.446"/>
      <polygon fill="#F7CC51" points="55.791 28.505 53.85 30.446 51.91 28.505 53.85 26.565"/>
      <polygon fill="#F7CC51" points="55.791 24.623 53.85 26.566 51.91 24.623 53.85 22.683"/>
      <polygon fill="#F7CC51" points="55.791 20.742 53.85 22.683 51.91 20.742 53.85 18.802"/>
      <polygon fill="#F7CC51" points="55.791 16.756 53.85 18.698 51.91 16.756 53.85 14.816"/>
    </g>
    <g transform="translate(76 33.35)">
      <path fill="#B9993D" d="M18.8760031,11.3709156 C18.8760031,16.4501916 14.7590456,20.5671491 9.67947746,20.5671491 C4.60020146,20.5671491 0.48265952,16.4501916 0.48265952,11.3709156 C0.48265952,6.29134751 4.60020146,2.17380548 9.67947746,2.17380548 C14.7590456,2.17380548 18.8760031,6.29134751 18.8760031,11.3709156"/>
      <path fill="#F7CC51" d="M18.8760031,9.9916706 C18.8760031,15.0709465 14.7590456,19.1881963 9.67947746,19.1881963 C4.60020146,19.1881963 0.48265952,15.0709465 0.48265952,9.9916706 C0.48265952,4.91239469 4.60020146,0.79339151 9.67947746,0.79339151 C14.7590456,0.79339151 18.8760031,4.91239469 18.8760031,9.9916706"/>
      <g transform="translate(.345 .51)">
        <mask id="ilu_reactivate_mobile_payment_s-d" fill="#fff">
          <use xlink:href="#ilu_reactivate_mobile_payment_s-c"/>
        </mask>
        <polygon fill="#E9B542" points="-.001 21.572 21.827 -.256 27.119 26.864" mask="url(#ilu_reactivate_mobile_payment_s-d)"/>
        <path fill="#FFF" d="M10.5582815,11.995809 C10.5582815,11.3152019 10.285045,11.0407964 9.00010305,10.4601324 C7.13975724,9.61616781 6.58743975,8.97734972 6.58743975,7.67458164 C6.58743975,6.39752993 7.63304409,5.47553951 8.6891688,5.19938073 L8.6891688,3.62805188 L8.74761507,3.62805188 L10.273648,4.29959991 L10.273648,5.16840419 C10.8017104,5.24321546 11.2163869,5.40189716 11.6389536,5.6432804 L11.7105503,5.6914986 L11.7602297,5.72364406 L11.7476637,5.78559714 L11.7321754,5.878819 L11.5387182,7.08427399 L11.501897,7.31046118 L11.4782263,7.4618371 L11.3560735,7.36803078 L11.1731366,7.22951304 C10.6704984,6.84464414 10.0477531,6.62284042 9.45364635,6.62284042 C8.65556217,6.62284042 8.22042945,6.9805318 8.22042945,7.58632772 C8.22042945,8.1517957 8.50126392,8.41480406 9.76604184,8.99283799 C11.6319401,9.842355 12.2275079,10.5194554 12.2275079,11.9063862 C12.2275079,13.1962961 11.3300649,14.1445873 10.273648,14.4838681 L10.273648,16.302717 L10.1433127,16.302717 L8.6891688,15.4876834 L8.6891688,14.5990073 C8.16139863,14.5347164 7.21690641,14.3345378 6.61812399,14.0177588 L6.52490217,13.9724629 L6.46528698,13.9414865 L6.4723005,13.8792411 L6.48515871,13.7825125 L6.66312768,12.5519256 L6.69527316,12.3388889 L6.71572935,12.196572 L6.83583651,12.2754746 L7.01526663,12.3935361 C7.71282324,12.8538007 8.48840571,13.1133023 9.21050973,13.1133023 C10.048922,13.1133023 10.5582815,12.6892744 10.5582815,11.995809" mask="url(#ilu_reactivate_mobile_payment_s-d)"/>
      </g>
    </g>
    <g transform="translate(9.867 5.905)">
      <polygon fill="#F9DD8D" points="33.226 34.336 34.805 34.844 33.226 35.352 32.717 36.933 32.209 35.352 30.629 34.844 32.209 34.336 32.717 32.757"/>
      <polygon fill="#F9DD8D" points="30.057 47.685 31.636 48.192 30.057 48.7 29.548 50.282 29.041 48.7 27.46 48.192 29.041 47.685 29.548 46.105"/>
      <polygon fill="#F9DD8D" points="24.815 32.32 27.049 33.038 24.815 33.756 24.097 35.99 23.379 33.756 21.144 33.038 23.379 32.32 24.097 30.086"/>
      <polygon fill="#F8EFC9" points="1.683 .922 2.371 1.141 1.683 1.363 1.462 2.051 1.24 1.363 .553 1.141 1.24 .922 1.462 .233"/>
    </g>
  </g>
</svg>
