<svg xmlns="http://www.w3.org/2000/svg" xmlns:xlink="http://www.w3.org/1999/xlink" width="272" height="112" viewBox="0 0 272 112">
  <defs>
    <circle id="ilu_token_mobile_s-a" cx="45" cy="45" r="45"/>
    <path id="ilu_token_mobile_s-c" d="M0.0588752351,29.9057256 L0.306067712,29.9057256 C0.931147335,29.9057256 1.43513605,29.404224 1.43513605,28.7828615 L1.43513605,1.15532647 C1.43513605,0.534380111 0.929894671,0.0357918143 0.306067712,0.0357918143 L0.0588752351,0.0357918143 L0.0588752351,29.9057256 Z"/>
    <polygon id="ilu_token_mobile_s-e" points=".228 16.619 64.862 16.619 64.862 .195 .228 .195"/>
    <polygon id="ilu_token_mobile_s-g" points=".228 16.619 64.862 16.619 64.862 .195 .228 .195"/>
    <polygon id="ilu_token_mobile_s-i" points=".228 16.619 64.862 16.619 64.862 .195 .228 .195"/>
    <polygon id="ilu_token_mobile_s-k" points=".228 16.619 64.862 16.619 64.862 .195 .228 .195"/>
    <polygon id="ilu_token_mobile_s-m" points=".228 16.619 64.862 16.619 64.862 .195 .228 .195"/>
    <polygon id="ilu_token_mobile_s-o" points=".228 16.619 64.862 16.619 64.862 .195 .228 .195"/>
    <polygon id="ilu_token_mobile_s-q" points=".228 16.619 64.862 16.619 64.862 .195 .228 .195"/>
    <polygon id="ilu_token_mobile_s-s" points=".228 16.619 64.862 16.619 64.862 .195 .228 .195"/>
    <polygon id="ilu_token_mobile_s-u" points=".228 16.619 64.862 16.619 64.862 .195 .228 .195"/>
    <polygon id="ilu_token_mobile_s-w" points=".228 16.619 64.862 16.619 64.862 .195 .228 .195"/>
  </defs>
  <g fill="none" fill-rule="evenodd" transform="translate(91 11)">
    <circle cx="45" cy="45" r="45" fill="#B79E5E"/>
    <mask id="ilu_token_mobile_s-b" fill="#fff">
      <use xlink:href="#ilu_token_mobile_s-a"/>
    </mask>
    <polygon fill="#9C6C01" fill-opacity=".5" points="0 0 90 90 0 90" mask="url(#ilu_token_mobile_s-b)" opacity=".3" transform="matrix(-1 0 0 1 90 0)" style="mix-blend-mode:multiply"/>
    <g transform="translate(31.034 57.724)">
      <g transform="translate(5.586 .096)">
        <polygon fill="#B79E5E" points="5.973 31.967 5.973 17.515 12.551 17.515 12.551 36.006 12.216 36.006"/>
        <path fill="#F8CF50" d="M0.0670581818,11.3981792 L17.7521767,11.3981792 L16.0598268,11.3981792 L3.45217542,11.3981792 C3.45217542,4.95398785 5.8990469,2.99584266 9.47164627,2.99584266 C12.3790808,2.99584266 14.7249039,4.16448702 15.642272,7.66334496 L19.0804187,7.66334496 C17.9517679,2.38238761 14.2906469,0.0101394546 9.47164627,0.0101394546 C3.82839235,0.0101394546 0.0670581818,3.48735583 0.0670581818,11.3981792"/>
      </g>
      <path fill="#F8CD51" fill-rule="nonzero" d="M25.0328629,11.4943176 L21.6460755,11.4943176 L9.03842408,11.4943176 L5.65330683,11.4943176 L1.13619837,11.4943176 C0.511118746,11.4943176 0.00713003135,11.995403 0.00713003135,12.6138523 L0.00713003135,40.2413873 C0.00713003135,40.8652469 0.513624075,41.3638352 1.13619837,41.3638352 L28.9816792,41.3638352 C29.6071764,41.3638352 30.1111651,40.8623336 30.1111651,40.2413873 L30.1111651,12.6138523 C30.1111651,11.9929059 29.6055062,11.4943176 28.9816792,11.4943176 L25.0328629,11.4943176 Z M13.1780629,31.8773397 L13.1780629,19.183315 L16.9402322,19.183315 L16.9402322,35.4248912 L16.7502448,35.4248912 L13.1780629,31.8773397 Z"/>
      <g transform="translate(28.676 11.459)">
        <mask id="ilu_token_mobile_s-d" fill="#fff">
          <use xlink:href="#ilu_token_mobile_s-c"/>
        </mask>
        <polygon fill="#FEF5DC" points=".059 44.115 20.216 44.115 20.216 -3.516 .059 -3.516" mask="url(#ilu_token_mobile_s-d)"/>
      </g>
    </g>
    <g fill="#FAD256" stroke="#FAD057" stroke-linecap="round" stroke-linejoin="round" transform="translate(15.517 14.276)">
      <path d="M30.7701762,0.609544309 C30.3793448,2.30258036 29.0410815,3.63644972 27.3441386,4.02683021 C29.0410815,4.41762688 30.3793448,5.7523286 30.7701762,7.44453229 C31.1622602,5.75149624 32.5009411,4.41762688 34.2003893,4.02683021 C32.5009411,3.63728209 31.1622602,2.3042451 30.7701762,0.609544309"/>
      <path stroke-width=".656" d="M2.42701166 5.20304911C2.17105053 6.31342772 1.29251511 7.18866243.179313856 7.44461553 1.29251511 7.70056862 2.17105053 8.57621951 2.42701166 9.68576576 2.68464301 8.57580333 3.56234332 7.70056862 4.6772148 7.44461553 3.56234332 7.18866243 2.68464301 6.31467627 2.42701166 5.20304911M58.3654999 50.3028993C58.1087037 51.4132779 57.2310034 52.2880964 56.1178021 52.5444657 57.2310034 52.8004188 58.1087037 53.6756535 58.3654999 54.7856159 58.6222962 53.6756535 59.4999965 52.8004188 60.614868 52.5444657 59.4999965 52.2885126 58.6222962 51.4145264 58.3654999 50.3028993M4.67625442 54.7297224C4.41945818 55.840101 3.54175787 56.7153358 2.42855661 56.9712889 3.54175787 57.2272419 4.41945818 58.1028928 4.67625442 59.2124391 4.93305066 58.1024767 5.81075097 57.2272419 6.92562245 56.9712889 5.81075097 56.7153358 4.93305066 55.8413496 4.67625442 54.7297224"/>
    </g>
    <g transform="translate(13.034 33.517)">
      <polygon fill="#FFF" points=".228 16.619 64.862 16.619 64.862 .195 .228 .195"/>
      <mask id="ilu_token_mobile_s-f" fill="#fff">
        <use xlink:href="#ilu_token_mobile_s-e"/>
      </mask>
      <polygon fill="#F4F4F4" points="-13.621 -34.019 76.379 55.981 -13.621 55.981" mask="url(#ilu_token_mobile_s-f)" transform="matrix(-1 0 0 1 62.757 0)"/>
      <mask id="ilu_token_mobile_s-h" fill="#fff">
        <use xlink:href="#ilu_token_mobile_s-g"/>
      </mask>
      <polygon fill="#5AC4C4" fill-opacity=".3" points="15.251 15.15 15.645 15.15 15.645 1.664 15.251 1.664" mask="url(#ilu_token_mobile_s-h)"/>
      <mask id="ilu_token_mobile_s-j" fill="#fff">
        <use xlink:href="#ilu_token_mobile_s-i"/>
      </mask>
      <polygon fill="#5AC4C4" fill-opacity=".3" points="31.44 15.15 31.832 15.15 31.832 1.664 31.44 1.664" mask="url(#ilu_token_mobile_s-j)"/>
      <mask id="ilu_token_mobile_s-l" fill="#fff">
        <use xlink:href="#ilu_token_mobile_s-k"/>
      </mask>
      <polygon fill="#5AC4C4" fill-opacity=".3" points="47.63 15.15 48.022 15.15 48.022 1.664 47.63 1.664" mask="url(#ilu_token_mobile_s-l)"/>
      <g>
        <mask id="ilu_token_mobile_s-n" fill="#fff">
          <use xlink:href="#ilu_token_mobile_s-m"/>
        </mask>
        <path fill="#02A5A5" d="M8.95846345,12.1104101 L7.55422646,12.1104101 L7.55422646,6.83278221 C7.0377111,7.30972894 6.43350922,7.6647338 5.73786282,7.8944673 L5.73786282,6.62219316 C6.10405843,6.5023322 6.50365843,6.27592816 6.93123461,5.94131632 C7.36340389,5.60961776 7.65778006,5.22006964 7.81728602,4.77225578 L8.95846345,4.77225578 L8.95846345,12.1104101 Z" mask="url(#ilu_token_mobile_s-n)"/>
      </g>
      <g>
        <mask id="ilu_token_mobile_s-p" fill="#fff">
          <use xlink:href="#ilu_token_mobile_s-o"/>
        </mask>
        <path fill="#02A5A5" d="M53.4239639,10.2318809 L54.8236078,10.0874651 C54.8632755,10.4016839 54.981026,10.653059 55.178947,10.8378446 C55.3739451,11.0217979 55.6015125,11.1129422 55.8591438,11.1129422 C56.1518498,11.1129422 56.3998774,10.9955783 56.6036441,10.7587697 C56.808246,10.5190477 56.9097118,10.1636267 56.9097118,9.6833505 C56.9097118,9.23470427 56.8090811,8.89801151 56.6061495,8.67410458 C56.4040529,8.44936528 56.1430811,8.337828 55.8190586,8.337828 C55.4157006,8.337828 55.0532629,8.51512233 54.7346686,8.87095956 L53.5934912,8.70573455 L54.311268,4.90347856 L58.0283413,4.90347856 L58.0283413,6.21487399 L55.3781206,6.21487399 L55.1584868,7.45385342 C55.4716529,7.29986538 55.792335,7.22079044 56.1184454,7.22079044 C56.7431075,7.22079044 57.2708968,7.44719448 57.7039012,7.89958636 C58.1377407,8.35156206 58.353199,8.93754898 58.353199,9.65837947 C58.353199,10.2601814 58.1786611,10.7970586 57.8287501,11.2685949 C57.35232,11.91368 56.6892429,12.2366387 55.8420241,12.2366387 C55.1668379,12.2366387 54.6139952,12.0547663 54.1880893,11.6931025 C53.7609307,11.3310225 53.5070573,10.8424226 53.4239639,10.2318809" mask="url(#ilu_token_mobile_s-p)"/>
      </g>
      <g>
        <mask id="ilu_token_mobile_s-r" fill="#fff">
          <use xlink:href="#ilu_token_mobile_s-q"/>
        </mask>
        <path fill="#02A5A5" d="M24.1478148,4.39556774 C24.5920932,3.99186937 24.8973258,3.67889909 25.0693584,3.46331584 C25.3244844,3.13744385 25.511549,2.82655449 25.6305521,2.52981538 C25.7495552,2.23182771 25.8092656,1.91802506 25.8092656,1.58965598 C25.8092656,1.03696377 25.6142675,0.574167291 25.2372154,0.194607586 L21.69468,0.194607586 C21.3422637,0.536294557 21.1205421,1.03737996 21.0478875,1.71867298 L22.4483665,1.85892695 C22.4734198,1.44940201 22.5744681,1.15890565 22.7469182,0.9820275 C22.9210386,0.807230268 23.1536167,0.71650218 23.4479929,0.71650218 C23.7448744,0.71650218 23.9766173,0.802236061 24.1453095,0.9691258 C24.3140016,1.13684791 24.3983477,1.37573746 24.3983477,1.68954011 C24.3983477,1.97171278 24.3018925,2.25763111 24.1085646,2.54604655 C23.9636731,2.75621941 23.574512,3.15575594 22.9414988,3.74340759 C22.1548255,4.47214558 21.6278712,5.05563539 21.3610537,5.49554176 C21.0959063,5.93544813 20.9355653,6.4011579 20.8825358,6.89308725 L25.8092656,6.89308725 L25.8092656,5.59292879 L23.0174938,5.59292879 C23.0918186,5.46682507 23.1853508,5.3369757 23.304354,5.20421304 C23.4254449,5.07145038 23.7035364,4.80301177 24.1478148,4.39556774" mask="url(#ilu_token_mobile_s-r)"/>
      </g>
      <g>
        <mask id="ilu_token_mobile_s-t" fill="#fff">
          <use xlink:href="#ilu_token_mobile_s-s"/>
        </mask>
        <path fill="#02A5A5" fill-rule="nonzero" d="M39.8526376,3.21772572 L38.1652984,3.21772572 L39.8526376,0.719790033 L39.8526376,3.21772572 Z M41.2130313,0.194565967 L38.9269185,0.194565967 L36.8508357,3.22271993 L36.8508357,4.44963003 L39.8526376,4.44963003 L39.8526376,5.92042389 L41.2130313,5.92042389 L41.2130313,4.44963003 L42.1228834,4.44963003 L42.1228834,3.21772572 L41.2130313,3.21772572 L41.2130313,0.194565967 Z" mask="url(#ilu_token_mobile_s-t)"/>
      </g>
      <g>
        <mask id="ilu_token_mobile_s-v" fill="#fff">
          <use xlink:href="#ilu_token_mobile_s-u"/>
        </mask>
        <path fill="#02A5A5" d="M39.1887671,13.6379158 C39.3607997,13.473107 39.5662367,13.3890378 39.8054957,13.3890378 C40.0485126,13.3890378 40.2430932,13.4610377 40.3909076,13.6075344 C40.5370518,13.7540311 40.610959,13.9504699 40.610959,14.195186 C40.610959,14.4840177 40.5090756,14.717913 40.3103195,14.8927102 C40.1119809,15.0675075 39.8217803,15.1490795 39.4409703,15.1399235 L39.2856399,16.2790188 C39.5361728,16.2107646 39.7516311,16.1745566 39.929927,16.1745566 C40.2050957,16.1745566 40.4347508,16.2777702 40.6247383,16.4850298 C40.8155609,16.6918732 40.9111809,16.9711326 40.9111809,17.3223918 C40.9111809,17.5238248 40.8794468,17.7019515 40.8205715,17.8596852 L42.3016386,17.8596852 C42.3333728,17.7056971 42.3504925,17.5471311 42.3504925,17.3806575 C42.3504925,16.9411673 42.2264787,16.56244 41.9746932,16.2498859 C41.72249,15.9381642 41.3867759,15.736315 40.9658806,15.6485002 C41.6673728,15.2647786 42.0210418,14.7545372 42.0210418,14.1107007 C42.0210418,13.6612221 41.8506794,13.2546105 41.5066142,12.8958599 C41.0890593,12.4567859 40.5362167,12.2387056 39.8443283,12.2387056 C39.4430581,12.2387056 39.0776976,12.3127863 38.7524223,12.4638611 C38.426312,12.6157682 38.1741088,12.8238601 37.9941427,13.0885531 C37.8104186,13.3519975 37.6742957,13.7024243 37.5845214,14.1460763 L38.8797766,14.3658214 C38.9173565,14.0478569 39.0192399,13.8052217 39.1887671,13.6379158" mask="url(#ilu_token_mobile_s-v)"/>
      </g>
      <g>
        <mask id="ilu_token_mobile_s-x" fill="#fff">
          <use xlink:href="#ilu_token_mobile_s-w"/>
        </mask>
        <path fill="#FFF" d="M38.9359377,16.6180978 C38.8920944,16.5019825 38.8578549,16.3746302 38.8403176,16.2302144 L37.4795063,16.3950232 C37.488275,16.4728496 37.5087352,16.5436008 37.5233496,16.6180978 L38.9359377,16.6180978 Z" mask="url(#ilu_token_mobile_s-x)"/>
      </g>
    </g>
  </g>
</svg>
