<svg xmlns="http://www.w3.org/2000/svg" width="272" height="112" viewBox="0 0 272 112">
  <g fill="none" fill-rule="evenodd" transform="translate(69 11)">
    <path fill="#004481" d="M112,45 C112,69.852419 91.8524192,90 66.9999999,90 C42.1471178,90 22,69.852419 22,45 C22,20.1471178 42.1471178,0 66.9999999,0 C91.8524192,0 112,20.1471178 112,45"/>
    <g transform="translate(0 21.6)">
      <path fill="#D8BE75" fill-opacity=".6" fill-rule="nonzero" d="M78.4139244,25.4614114 C78.4139244,26.3112685 77.7746538,26.999897 76.9864489,26.999897 L75.7679904,26.999897 C74.9797855,26.999897 74.3405149,26.3112685 74.3405149,25.4614114 L74.3405149,25.1957829 C74.3405149,24.3459257 74.9797855,23.65704 75.7679904,23.65704 L76.9864489,23.65704 C77.7746538,23.65704 78.4139244,24.3459257 78.4139244,25.1957829 L78.4139244,25.4614114 Z M77.9828305,16.2 L17.0881569,16.2 L14.1588661,19.2857143 L77.9828305,19.2857143 C78.78351,19.2857143 79.4322,18.6888856 79.4322,17.8259143 L79.4322,17.7117429 C79.4322,16.8482571 78.78351,16.2 77.9828305,16.2 Z M70.1927655,23.6571429 L10.0089019,23.6571429 L7.07961117,26.7428571 L70.1927655,26.7428571 C70.9931904,26.7428571 71.5400457,26.0948571 71.5400457,25.2321429 L71.5400457,25.1164286 C71.5400457,24.253457 70.9931904,23.6571429 70.1927655,23.6571429 Z M54.6119227,30.8571428 L3.17366963,30.8571428 L0.00022887,34.2 L54.6119227,34.2 C55.4123478,34.2 56.0101206,33.5003142 56.0101206,32.6375999 L56.0101206,32.5231714 C56.0101206,31.6596857 55.4123478,30.8571428 54.6119227,30.8571428 Z" transform="matrix(-1 0 0 1 79.432 0)"/>
      <path fill="#2DCCCD" d="M123.26243,49.578381 L53.1,49.578381 C51.1117749,49.578381 49.5,47.9666061 49.5,45.978381 L49.5,3.6 C49.5,1.6117749 51.1117749,-1.13410424e-13 53.1,-1.13775656e-13 L123.26243,-1.14575016e-13 C125.250655,-1.14940247e-13 126.86243,1.6117749 126.86243,3.6 L126.86243,45.978381 C126.86243,47.9666061 125.250655,49.578381 123.26243,49.578381 Z"/>
      <path fill="#FFF" d="M50.6559965,31.3479369 L50.6559965,4.08832658 C50.6559965,2.32430382 52.0771489,0.89412381 53.8307413,0.89412381 L92.925,0.89412381" opacity=".24"/>
      <path fill="#FFF" d="M118.661978,28.1814498 L118.661978,46.4143797 C118.661978,47.5942684 117.711423,48.5508621 116.538128,48.5508621 L90.3898287,48.5508621" opacity="0"/>
      <path fill="#02A5A5" fill-opacity=".6" fill-rule="nonzero" d="M120.6,40.2883942 C120.6,40.9020882 120.083242,41.4 119.445824,41.4 L76.7536813,41.4 C76.1167583,41.4 75.6,40.9020882 75.6,40.2883942 L75.6,40.129253 C75.6,39.5155588 76.1167583,39.0176471 76.7536813,39.0176471 L119.445824,39.0176471 C120.083242,39.0176471 120.6,39.5155588 120.6,40.129253 L120.6,40.2883942 Z M120.6,34.570747 C120.6,35.1844411 120.083242,35.6823529 119.445824,35.6823529 L76.7536813,35.6823529 C76.1167583,35.6823529 75.6,35.1844411 75.6,34.570747 L75.6,34.4116058 C75.6,33.7979118 76.1167583,33.3 76.7536813,33.3 L119.445824,33.3 C120.083242,33.3 120.6,33.7979118 120.6,34.4116058 L120.6,34.570747 Z"/>
      <path fill="#FFF" fill-rule="nonzero" d="M88.1510968,13.5748734 L89.745364,8.36273493 L91.3650714,13.5748734 L88.1510968,13.5748734 Z M92.26962,7.45856019 C91.9586817,6.51843972 91.7805987,6.3 90.8562627,6.3 L88.6259849,6.3 L85.0558441,17.7169337 L86.8734217,17.7169337 L87.6366347,15.2477349 L91.8964935,15.2477349 L92.6653608,17.7169337 L95.828454,17.7169337 L92.26962,7.45856019 Z M70.5163979,16.1961506 L70.5163979,7.78760235 L72.0173835,7.78760235 C72.7477937,7.79028048 73.3443833,8.35917651 73.3657264,9.0733554 C73.3608523,9.37439964 73.2556461,9.66565863 73.0660946,9.90287343 L72.0993582,11.3407048 C73.1113221,11.5785 73.795387,12.3388916 73.795387,13.7656626 C73.795387,15.4772349 72.7438492,16.2072108 71.3531055,16.2072108 L70.5163979,16.1961506 Z M74.301369,10.7876928 L74.866712,9.95817465 C76.0821994,8.20236141 75.2454918,6.3 72.8569178,6.3 L67.7688312,6.3 L67.7688312,17.727994 L72.6731813,17.727994 C76.9895748,17.727994 78.295517,12.8144819 74.301369,10.7793976 L74.301369,10.7876928 Z M61.187101,16.1961506 L60.3532201,16.1961506 L60.3532201,7.78760235 L61.8542058,7.78760235 C62.585113,7.79023242 63.1825393,8.35873443 63.2053754,9.0733554 C63.2005013,9.37439964 63.0952951,9.66565863 62.9057436,9.90287343 L61.9333537,11.3407048 C62.9424909,11.5785 63.6293826,12.3388916 63.6293826,13.7656626 C63.6293826,15.4772349 62.575018,16.2072108 61.187101,16.2072108 L61.187101,16.1961506 Z M64.1297111,10.7876928 L64.6950541,9.95817465 C65.8935812,8.20236141 65.0710072,6.3 62.6880866,6.3 L57.6,6.3 L57.6,17.727994 L62.515657,17.727994 C66.8263971,17.727994 68.1295126,12.8144819 64.1297111,10.7793976 L64.1297111,10.7876928 Z M79.3948889,7.79589756 C78.976535,6.50737953 78.7673581,6.3 77.9673979,6.3 L75.9038961,6.3 L79.7256145,17.7362891 L82.5353689,17.7362891 L86.0970297,6.3 L84.2427048,6.3 L81.6138599,14.9850542 L79.3948889,7.79589756 Z"/>
    </g>
  </g>
</svg>
