<?xml version="1.0" encoding="UTF-8"?>
<svg width="54px" height="50px" viewBox="0 0 54 50" version="1.1" xmlns="http://www.w3.org/2000/svg" xmlns:xlink="http://www.w3.org/1999/xlink">
    <!-- Generator: Sketch 59.1 (86144) - https://sketch.com -->
    <title>Money/Funds-Dollar</title>
    <desc>Created with Sketch.</desc>
    <defs>
        <linearGradient x1="11.1776648%" y1="-22.348645%" x2="163.163717%" y2="256.098414%" id="linearGradient-1">
            <stop stop-color="#192647" offset="0%"></stop>
            <stop stop-color="#192647" stop-opacity="0.5" offset="0%"></stop>
            <stop stop-color="#192647" stop-opacity="0" offset="100%"></stop>
        </linearGradient>
        <linearGradient x1="9.56435509%" y1="-7.99145272%" x2="59.1326752%" y2="86.7503131%" id="linearGradient-2">
            <stop stop-color="#192647" offset="0%"></stop>
            <stop stop-color="#192647" stop-opacity="0.5" offset="0%"></stop>
            <stop stop-color="#192647" stop-opacity="0" offset="100%"></stop>
        </linearGradient>
        <linearGradient x1="103.378819%" y1="54.4675407%" x2="-3.40919145%" y2="46.3360373%" id="linearGradient-3">
            <stop stop-color="#028484" stop-opacity="0.5" offset="0%"></stop>
            <stop stop-color="#028484" stop-opacity="0" offset="100%"></stop>
        </linearGradient>
        <linearGradient x1="140.100746%" y1="44.8778591%" x2="47.5774463%" y2="44.8778591%" id="linearGradient-4">
            <stop stop-color="#028484" stop-opacity="0.5" offset="0%"></stop>
            <stop stop-color="#028484" stop-opacity="0" offset="100%"></stop>
        </linearGradient>
        <linearGradient x1="26.5302222%" y1="29.6760856%" x2="60.9838335%" y2="53.0714755%" id="linearGradient-5">
            <stop stop-color="#FFFFFF" stop-opacity="0.6" offset="0%"></stop>
            <stop stop-color="#FFFFFF" stop-opacity="0.2" offset="100%"></stop>
        </linearGradient>
    </defs>
    <g id="Symbols" stroke="none" stroke-width="1" fill="none" fill-rule="evenodd">
        <g id="Component/OfferPage/Header" transform="translate(-135.000000, -20.000000)">
            <g id="Money/Funds-Dollar" transform="translate(124.000000, 8.000000)">
                <g id="Funds-Dollar" transform="translate(11.280000, 12.720000)">
                    <path d="M7.1741907,14.7438277 L7.1741907,14.7935747 C7.1741907,14.8272271 7.1741907,14.8608795 7.1741907,14.8959951 C7.1741907,14.9311106 7.1741907,14.9281843 7.1741907,14.944279 C7.1741907,14.9603736 7.1741907,15.0188995 7.1741907,15.0569414 C7.1741907,15.073036 7.1741907,15.0905938 7.1741907,15.1066884 L7.1741907,15.2281297 C7.1741907,15.2456875 7.1741907,15.2647084 7.1741907,15.2822662 C7.1741907,15.3246975 7.1741907,15.3671288 7.1741907,15.4110233 C7.1741907,15.428581 7.1741907,15.4461388 7.1741907,15.4636966 C7.1741907,15.5105173 7.1741907,15.5558749 7.18150672,15.6100114 L7.18150672,15.6626848 C7.18150672,15.7124318 7.18150672,15.7621788 7.19174914,15.8089996 C7.19174914,15.8250942 7.19174914,15.842652 7.19174914,15.8587466 L7.20491797,16.0196929 L7.20491797,16.0679768 C7.20491797,16.1250396 7.2151604,16.1821024 7.22101321,16.2406283 C7.22101321,16.2552598 7.22101321,16.2713544 7.22101321,16.2859859 C7.22101321,16.345975 7.23271884,16.405964 7.24003486,16.4674163 C7.24003486,16.4835109 7.24003486,16.4981424 7.24003486,16.514237 C7.24735087,16.5771524 7.25466689,16.6386046 7.26344611,16.7029831 C7.26344611,16.7176146 7.26344611,16.7322461 7.26344611,16.7468776 C7.26344611,16.8127193 7.28100455,16.8785609 7.28978377,16.9458657 C7.28978377,16.9590341 7.28978377,16.9722024 7.28978377,16.9868339 C7.3000262,17.0556019 7.31026862,17.1243698 7.32197425,17.1946009 C7.32197425,17.2077693 7.32197425,17.2194745 7.32197425,17.2326428 C7.33367988,17.3043371 7.3453855,17.3789576 7.35855433,17.4491887 C7.35855433,17.4608939 7.35855433,17.4725991 7.35855433,17.4843043 C7.37172317,17.5589248 7.3863552,17.6306191 7.40098723,17.7110923 C7.40098723,17.7213343 7.40098723,17.7315763 7.40098723,17.7432815 C7.41561927,17.8193652 7.43171451,17.8983752 7.44780974,17.9759221 C7.44780974,17.9861641 7.44780974,17.9964062 7.45512576,18.0051851 C7.47073327,18.0851705 7.48829171,18.1656436 7.50780109,18.2466045 C7.50780109,18.2553834 7.50780109,18.2641623 7.50780109,18.2729412 C7.52682273,18.3548775 7.54730758,18.4382769 7.56779243,18.5216764 L7.56779243,18.5421604 C7.58974048,18.627023 7.61168853,18.7133488 7.63509978,18.7996745 L7.63509978,18.8157692 C7.65851104,18.9035581 7.6833855,18.9928101 7.70972316,19.0820621 L7.70972316,19.0923042 C7.73606082,19.1830194 7.76386169,19.2737346 7.79166255,19.3659129 L7.79166255,19.3659129 C7.82092662,19.4595544 7.85019069,19.5517327 7.88238117,19.6453742 L7.88238117,19.6453742 C9.17000019,23.4715068 12.4695239,27.7716994 20.8288052,27.4644383 C20.8443231,27.4638778 20.8594374,27.4593437 20.8727013,27.45127 C20.9721991,27.4205438 20.9912208,27.342997 21,27.224482 C20.9546407,13.8630124 9.76406079,13.8132654 7.49609546,13.9405593 C7.29543648,13.9515637 7.12787573,14.0974204 7.0893249,14.2946412 C7.08347818,14.3095566 7.08049963,14.3254416 7.08054568,14.3414619 L7.08054568,14.3707249 L7.08054568,14.3707249 C7.07981811,14.380954 7.07981811,14.3912219 7.08054568,14.401451 C7.08054568,14.4233982 7.08054568,14.4468086 7.08054568,14.4716821 L7.08054568,14.7350488 L7.1741907,14.7438277 Z" id="Path" fill="url(#linearGradient-1)" fill-rule="nonzero"></path>
                    <path d="M38.648348,22.6122501 C37.5694661,22.611987 36.4938773,22.7312594 35.4412729,22.9678838 C38.4180217,20.3108335 40.7198269,16.102987 40.8699763,9.45671737 C40.8699763,9.41299191 40.8699763,9.36635143 40.8699763,9.32116845 C40.8699763,9.10691371 40.8699763,8.89265897 40.8699763,8.67403168 C40.8699763,8.34463323 40.8699763,8.01086223 40.8553987,7.66834615 C40.8532447,7.60403499 40.8215012,7.54432426 40.7693908,7.50656195 C40.6804674,7.38267316 40.5215714,7.32 40.2810407,7.32 C20.7995173,7.51384953 21.1362602,24.2898502 21.3301425,27.0635017 C21.3464651,27.2868875 21.5289798,27.4618203 21.7528933,27.468691 C24.075323,27.5222425 26.3926647,27.2274651 28.6276961,26.5941818 C27.8796667,27.2995583 27.207391,28.0811422 26.6218164,28.9262062 L9.91732842,28.9262062 C9.6757986,28.9262062 9.48,29.1219718 9.48,29.3634608 L9.48,33.10636 C9.48,33.347849 9.6757986,33.5436146 9.91732842,33.5436146 L24.5095201,33.5436146 C24.3846832,34.0240281 24.2844532,34.5104994 24.2092212,35.0011298 L9.92315947,35.0011298 C9.68162965,35.0011298 9.48583105,35.1968954 9.48583105,35.4383844 L9.48583105,39.1827411 C9.48583105,39.4242302 9.68162965,39.6199957 9.92315947,39.6199957 L24.247123,39.6199957 C24.3285365,40.1109738 24.4350932,40.5974517 24.5663728,41.077511 L9.91732842,41.077511 C9.6757986,41.077511 9.48,41.2732765 9.48,41.5147655 L9.48,45.2591222 C9.48,45.5006113 9.6757986,45.6963768 9.91732842,45.6963768 L26.764677,45.6963768 C27.2169554,46.327763 27.7185356,46.9223447 28.2647135,47.4745454 L28.3171929,47.5284735 L28.3944542,47.6057218 C29.408851,48.615761 30.5666072,49.4707942 31.8303979,50.1432559 L31.8303979,50.1432559 C37.2040932,52.9861613 43.7768441,52.2058047 48.3352093,48.1837051 C52.8935746,44.1616055 54.4852896,37.7379989 52.3321594,32.0534093 C50.1790292,26.3688198 44.730853,22.6107855 38.6512635,22.6166227 L38.648348,22.6122501 Z" id="Path" fill="url(#linearGradient-2)" fill-rule="nonzero"></path>
                    <path d="M24.84,38.4 L2.7175202,38.4 C2.47588447,38.4 2.28,38.2015807 2.28,37.9568182 L2.28,34.1631818 C2.28,33.9184193 2.47588447,33.72 2.7175202,33.72 L24.84,33.72 L24.84,38.4 Z" id="Path" fill="#F8CD51" fill-rule="nonzero"></path>
                    <path d="M24.84,32.28 L2.7175202,32.28 C2.47588447,32.28 2.28,32.0816434 2.28,31.836958 L2.28,28.043042 C2.28,27.7983566 2.47588447,27.6 2.7175202,27.6 L24.84,27.6 L24.84,32.28 Z" id="Path" fill="#F8CD51" fill-rule="nonzero"></path>
                    <path d="M24.84,26.28 L2.7175202,26.28 C2.47588447,26.28 2.28,26.0816434 2.28,25.836958 L2.28,22.043042 C2.28,21.7983566 2.47588447,21.6 2.7175202,21.6 L24.84,21.6 L24.84,26.28 Z" id="Path" fill="#F8CD51" fill-rule="nonzero"></path>
                    <path d="M13.92,19.9056221 C13.874649,6.54269712 2.68611469,6.49441326 0.418563941,6.62024393 C0.188161345,6.63252445 0.00660866751,6.82113635 0.00309012604,7.05187241 C-0.0481126329,9.33438232 0.37906467,20.6181749 13.7195778,20.1455783 C13.8878154,20.13241 13.9112224,20.0475474 13.92,19.9056221 Z" id="Path" fill="#2DCCCD" fill-rule="nonzero"></path>
                    <path d="M0.00363231525,6.99593392 C-0.0503336118,9.19521828 0.320135185,20.5141243 13.7138949,20.0245874 C13.7497804,20.0223327 13.7810484,19.9994387 13.7939141,19.9659984 C13.8067798,19.932558 13.798879,19.8947163 13.773695,19.8691558 L0.283671721,6.88698655 C0.237362681,6.84173167 0.168704085,6.82774506 0.108272524,6.85125553 C0.0478409628,6.87476601 0.00688040002,6.9313992 0.00363231525,6.99593392 L0.00363231525,6.99593392 Z" id="Path" fill="url(#linearGradient-3)" fill-rule="nonzero"></path>
                    <path d="M33.1250969,0 C13.6769366,0.192397982 14.0132034,16.9747492 14.2009888,19.7441141 C14.2165772,19.9680794 14.3990271,20.1438331 14.623142,20.1507735 C17.4122644,20.2440573 34.2751004,20.0050174 33.7059214,0.502858361 C33.7073771,0.166161893 33.5268703,0 33.1250969,0 Z" id="Path" fill="#2DCCCD" fill-rule="nonzero"></path>
                    <path d="M14.5702722,20.1507883 C17.3760471,20.2440356 34.3099645,20.0050895 33.704139,0.442113179 C33.6999165,0.357755421 33.6460876,0.283882144 33.5669795,0.253879401 C33.4878715,0.223876658 33.3984719,0.243428735 33.3391838,0.30369933 L14.4491071,19.8506488 C14.4009693,19.9011182 14.3868172,19.9750052 14.4129089,20.0396371 C14.4390005,20.104269 14.5005233,20.1477247 14.5702722,20.1507883 Z" id="Path" fill="url(#linearGradient-4)" fill-rule="nonzero"></path>
                    <path d="M46.2,29.8821909 C46.2,37.9630099 39.651768,44.5151641 31.5709499,44.52 C23.5059925,44.52 16.92,37.9500677 16.92,29.8807309 C16.9264295,21.8021028 23.4704292,15.2528787 31.5490501,15.24 L31.5490501,15.24 C35.4337992,15.2380652 39.1601232,16.7798184 41.9078774,19.5259295 C44.6556315,22.2720405 46.1996132,25.9974415 46.2,29.8821909" id="Path" fill="#F8CD51" fill-rule="nonzero"></path>
                    <path d="M38.4,16.9426415 C31.285289,13.1646993 22.4647969,15.8900587 18.6450135,22.978614 C14.8252301,30.0671692 17.5719751,38.9420578 24.6852282,42.72 L38.4,16.9426415 Z" id="Path" fill="url(#linearGradient-5)" fill-rule="nonzero"></path>
                    <path d="M33.290108,32.7063721 C33.290108,31.7379087 32.9053132,31.3546195 31.0870842,30.5265979 C28.4537365,29.3357683 27.6635853,28.4272852 27.6635853,26.5913009 C27.6635853,24.7962788 29.1425486,23.4840255 30.6420734,23.1007364 L30.6420734,20.88 L30.722851,20.88 L32.8847516,21.8338341 L32.8847516,23.064163 C33.5688123,23.1638004 34.2282452,23.3895314 34.8292873,23.7297987 L34.9306263,23.791242 L35.0114039,23.8307413 L34.9908423,23.9126657 L34.9717495,24.0326264 L34.6868251,25.7281689 L34.6266091,26.0514777 L34.585486,26.2738439 L34.4033693,26.1524202 L34.1404752,25.9505351 C33.4502367,25.4014267 32.5931644,25.1022383 31.7098056,25.1020324 C30.574514,25.1020324 29.9664795,25.6067452 29.9664795,26.4552479 C29.9664795,27.2613255 30.3718359,27.6255965 32.1548164,28.4521551 C34.8087257,29.6429848 35.64,30.6114482 35.64,32.5688562 C35.64,34.3858223 34.3637149,35.7375749 32.8641901,36.2013255 L32.8641901,38.76 L32.6864795,38.76 L30.6200432,37.6101325 L30.6200432,36.3593225 C29.8695464,36.25838 28.5330454,35.9745704 27.6826782,35.5313009 L27.5607775,35.4713206 L27.48,35.4303584 L27.48,35.3498969 L27.5005616,35.2036033 L27.7428942,33.4685616 L27.7840173,33.1657339 L27.8031102,32.9638488 L27.9661339,33.0852725 L28.2084665,33.2461954 C29.1318436,33.8702377 30.2141315,34.2202879 31.3294168,34.255621 C32.5234557,34.255621 33.294514,33.6704467 33.294514,32.7019833" id="Path" fill="#FEF5DC" fill-rule="nonzero"></path>
                </g>
            </g>
        </g>
    </g>
</svg>