<?xml version="1.0" encoding="UTF-8" standalone="no"?><!DOCTYPE svg PUBLIC "-//W3C//DTD SVG 1.1//EN" "http://www.w3.org/Graphics/SVG/1.1/DTD/svg11.dtd">
<svg width="100%" height="100%" viewBox="0 0 234 120" version="1.1" xmlns="http://www.w3.org/2000/svg" xmlns:xlink="http://www.w3.org/1999/xlink" xml:space="preserve" xmlns:serif="http://www.serif.com/" style="fill-rule:evenodd;clip-rule:evenodd;stroke-linejoin:round;stroke-miterlimit:1.41421;">

<g id="Illustration-checkUp" serif:id="Illustration/checkUp">
        <path id="Clip-2" d="M31.104,30.001c-5.466,-0.001 -9.9,4.135 -9.9,9.238l0,1.771c0,5.103 4.434,9.242 9.9,9.242c3.952,1.608 6.5,5.201 6.5,9.47c0,4.036 -2.274,7.652 -5.614,9.493l-21.908,0.001c-5.568,-0.001 -10.082,4.721 -10.082,10.547c0,5.828 4.514,10.549 10.082,10.549l212.993,0c5.569,0 10.082,-4.722 10.082,-10.548c0,-5.827 -4.513,-10.549 -10.082,-10.549l-30.516,0.001c-3.795,-1.693 -6.49,-5.571 -6.49,-9.914c0,-4.034 2.325,-7.282 5.677,-9.05l7.007,0c5.469,0 9.903,-4.139 9.903,-9.242l0,-1.771c0,-5.103 -4.434,-9.239 -9.903,-9.239l-167.649,0Z"
          style="fill:#0a5694;" />
        <g id="smartphone">
          <path id="Fill-4" d="M148.92,114.674c0,2.926 -2.456,5.295 -5.49,5.295l-52.294,0c-3.033,0 -5.489,-2.369 -5.489,-5.295l0,-106.203c0,-2.923 2.456,-5.293 5.489,-5.293l52.294,0c3.034,0 5.49,2.37 5.49,5.293l0,106.203Z"
            style="fill:#1e84d2;" />
          <path id="Fill-7" d="M148.92,111.677c0,2.925 -2.464,5.296 -5.505,5.296l-52.426,0c-3.042,0 -5.503,-2.371 -5.503,-5.296l0,-106.198c0,-2.923 2.461,-5.296 5.503,-5.296l52.426,0c3.041,0 5.505,2.373 5.505,5.296l0,106.198Z"
            style="fill:#2593e0;" />
          <path id="Fill-14" d="M85.49,16.77l0,-11.394c0,-3.057 2.966,-5.196 5.163,-5.196l36.976,0l-17.868,16.546l-24.271,0.044Z"
            style="fill:#61b2eb;fill-opacity:0.8;" />
          <path id="Fill-9" d="M85.486,100.503l63.473,0l0,-85.347l-63.473,0l0,85.347Z" style="fill:#eaf9fa;" />
          <path id="Fill-13" d="M85.485,15.141l0,26.876l25.221,-26.842l-25.221,-0.034Z" style="fill:#f0fafb;" />
          <path id="Fill-141" serif:id="Fill-14" d="M85.486,78.094l0,22.403l24.248,0.052l-24.248,-22.455Z" style="fill:#f0fafb;" />
          <path id="Fill-12" d="M124.41,4.674c0,0.829 -0.645,1.498 -1.44,1.498l-12.977,0c-0.796,0 -1.442,-0.669 -1.442,-1.498c0,-0.827 0.646,-1.495 1.442,-1.495l12.977,0c0.795,0 1.44,0.668 1.44,1.495"
            style="fill:#4a7aa8;" />
          <path id="Fill-121" serif:id="Fill-12" d="M122.97,6.172c-0.804,0 -1.408,0 -1.81,0c1.864,-1.726 2.796,-2.589 2.796,-2.589c0.279,0.273 0.454,0.66 0.454,1.091c0,0.829 -0.645,1.498 -1.44,1.498Z"
            style="fill:#004481;" />
          <path id="Fill-142" serif:id="Fill-14" d="M85.486,100.526l0,12.394c0,2.173 2.966,4.196 5.163,4.196l36.976,0l-17.868,-16.546l-24.271,-0.044Z"
            style="fill:#61b2eb;" />
          <path id="Fill-11" d="M121.172,109.138c0,2.678 -2.093,4.844 -4.669,4.844c-2.58,0 -4.675,-2.166 -4.675,-4.844c0,-2.683 2.095,-4.854 4.675,-4.854c2.576,0 4.669,2.171 4.669,4.854"
            style="fill:#004481;" />
          <path id="Fill-111" serif:id="Fill-11" d="M116.503,113.982c-2.58,0 -4.675,-2.166 -4.675,-4.844c0,-1.882 1.031,-3.512 2.536,-4.318l6.503,6.045c-0.671,1.824 -2.373,3.117 -4.364,3.117Z"
            style="fill:#4a7aa8;" />
        </g>
        <g id="badge-good" serif:id="badge/good">
          <g id="icon-base-yellow" serif:id="icon/base/yellow">
            <path id="shadow" d="M69.234,32.101c0,6.116 -4.975,11.072 -11.111,11.072c-6.138,0 -11.114,-4.956 -11.114,-11.072c0,-6.115 4.976,-11.075 11.114,-11.075c6.136,0 11.111,4.96 11.111,11.075"
              style="fill:#ba9a3d;" />
            <path id="base" d="M58.123,41.155c-6.138,0 -11.114,-4.956 -11.114,-11.071c0,-6.116 4.976,-11.075 11.114,-11.075c6.136,0 11.111,4.959 11.111,11.075c0,6.115 -4.975,11.071 -11.111,11.071Z"
              style="fill:#f8cd51;" />
            <path id="base1" serif:id="base" d="M58.123,41.155c-2.72,0 -5.211,-0.973 -7.143,-2.588l15.61,-15.655c1.649,1.932 2.644,4.436 2.644,7.172c0,6.115 -4.975,11.071 -11.111,11.071Z"
              style="fill:#eab642;" />
          </g>
          <path id="icon-money-sign" serif:id="icon/money-sign" d="M59.678,32.553c0,-0.82 -0.329,-1.151 -1.883,-1.85c-2.247,-1.016 -2.933,-1.785 -2.933,-3.353c0,-1.539 0.981,-2.649 2.52,-2.981l0,-2.036l0.108,0l1.795,0.953l0,1.046c0.613,0.09 1.164,0.281 1.674,0.572l0.099,0.057l0.066,0.038l-0.013,0.076l-0.018,0.112l-0.232,1.452l-0.043,0.271l-0.028,0.183l-0.148,-0.113l-0.22,-0.167c-0.609,-0.463 -1.361,-0.73 -2.079,-0.73c-0.964,0 -1.491,0.431 -1.491,1.16c0,0.68 0.341,0.998 1.869,1.694c2.254,1.023 2.949,1.837 2.949,3.508c0,1.553 -0.922,2.694 -2.385,3.103l0,2.162l-0.108,0l-1.795,-0.952l0,-1.072c-0.902,-0.077 -1.76,-0.318 -2.483,-0.699l-0.102,-0.055l-0.07,-0.037l0.012,-0.075l0.016,-0.116l0.217,-1.482l0.039,-0.257l0.025,-0.17l0.144,0.095l0.217,0.141c0.843,0.554 1.78,0.867 2.653,0.867c1.014,0 1.628,-0.512 1.628,-1.345"
            style="fill:#fff;" />
        </g>
        <g id="badge-good1" serif:id="badge/good">
          <g id="icon-base-yellow1" serif:id="icon/base/yellow">
            <path id="shadow1" serif:id="shadow" d="M186.234,91.101c0,6.116 -4.975,11.072 -11.111,11.072c-6.138,0 -11.114,-4.956 -11.114,-11.072c0,-6.115 4.976,-11.075 11.114,-11.075c6.136,0 11.111,4.96 11.111,11.075"
              style="fill:#ba9a3d;" />
            <path id="base2" serif:id="base" d="M175.123,100.155c-6.138,0 -11.114,-4.956 -11.114,-11.071c0,-6.116 4.976,-11.075 11.114,-11.075c6.136,0 11.111,4.959 11.111,11.075c0,6.115 -4.975,11.071 -11.111,11.071Z"
              style="fill:#f8cd51;" />
            <path id="base3" serif:id="base" d="M175.123,100.155c-2.72,0 -5.211,-0.973 -7.143,-2.588l15.61,-15.655c1.649,1.932 2.644,4.436 2.644,7.172c0,6.115 -4.975,11.071 -11.111,11.071Z"
              style="fill:#eab642;" />
          </g>
          <path id="icon-money-sign1" serif:id="icon/money-sign" d="M176.678,91.553c0,-0.82 -0.329,-1.151 -1.883,-1.85c-2.247,-1.016 -2.933,-1.785 -2.933,-3.353c0,-1.539 0.981,-2.649 2.52,-2.981l0,-2.036l0.108,0l1.795,0.953l0,1.046c0.613,0.09 1.164,0.281 1.674,0.572l0.099,0.057l0.066,0.038l-0.013,0.076l-0.018,0.112l-0.232,1.452l-0.043,0.271l-0.028,0.183l-0.148,-0.113l-0.22,-0.167c-0.609,-0.463 -1.361,-0.73 -2.079,-0.73c-0.964,0 -1.491,0.431 -1.491,1.16c0,0.68 0.341,0.998 1.869,1.694c2.254,1.023 2.949,1.837 2.949,3.508c0,1.553 -0.922,2.694 -2.385,3.103l0,2.162l-0.108,0l-1.795,-0.952l0,-1.072c-0.902,-0.077 -1.76,-0.318 -2.483,-0.699l-0.102,-0.055l-0.07,-0.037l0.012,-0.075l0.016,-0.116l0.217,-1.482l0.039,-0.257l0.025,-0.17l0.144,0.095l0.217,0.141c0.843,0.554 1.78,0.867 2.653,0.867c1.014,0 1.628,-0.512 1.628,-1.345"
            style="fill:#fff;" />
        </g>
        <path id="heart" d="M101.84,61.349l5.243,0l1.417,-1.362l4.25,4.087l5.667,-5.45l2.833,2.725l4.25,0l2.833,-2.725l-5.666,0l-4.25,-4.087l-5.667,5.45l-4.25,-4.088l-2.833,2.725l-5.016,0c-0.421,-1.324 -0.629,-2.68 -0.624,-4.087c-0.018,-0.225 -0.027,-0.452 -0.027,-0.681c0,-4.891 4.123,-8.856 9.208,-8.856c3.281,0 6.161,1.65 7.792,4.134c1.631,-2.484 4.511,-4.134 7.792,-4.134c5.085,0 9.208,3.965 9.208,8.856c0,0.229 -0.009,0.456 0,0.681c0,7.266 -5.667,13.17 -17,20.436c-7.613,-4.88 -12.669,-9.147 -15.16,-13.624Z"
          style="fill:#2dcccd;" />
      </g>
	
</svg>