<?xml version="1.0" encoding="UTF-8" standalone="no"?><!DOCTYPE svg PUBLIC "-//W3C//DTD SVG 1.1//EN" "http://www.w3.org/Graphics/SVG/1.1/DTD/svg11.dtd"><svg width="100%" height="100%" viewBox="0 0 120 110" version="1.1" xmlns="http://www.w3.org/2000/svg" xmlns:xlink="http://www.w3.org/1999/xlink" xml:space="preserve" xmlns:serif="http://www.serif.com/" style="fill-rule:evenodd;clip-rule:evenodd;stroke-linejoin:round;stroke-miterlimit:1.41421;"><g id="salud-healthy" serif:id="salud/healthy"><g id="base-healthy" serif:id="base/healthy"><path id="base" d="M10,55c0,-30.376 24.625,-55 55,-55c30.376,0 55,24.624 55,55c0,30.375 -24.624,55 -55,55c-30.375,0 -55,-24.625 -55,-55Z" style="fill:#5bbeff;"/><path id="depth" d="M65.153,109.819c30.218,-0.157 54.666,-24.703 54.666,-54.958c0,-15.176 -6.152,-28.916 -16.097,-38.861l-77.722,77.722c9.882,9.882 23.509,16.018 38.569,16.097l0.584,0Z" style="fill:#49a5e6;"/></g><g id="badge-good" serif:id="badge/good"><path id="shadow" d="M21.298,56.017c0,5.645 -4.56,10.22 -10.186,10.22c-5.626,0 -10.187,-4.575 -10.187,-10.22c0,-5.645 4.561,-10.223 10.187,-10.223c5.626,0 10.186,4.578 10.186,10.223" style="fill:#ba9a3d;"/><path id="base1" serif:id="base" d="M11.112,64.374c-5.626,0 -10.187,-4.575 -10.187,-10.22c0,-5.645 4.561,-10.223 10.187,-10.223c5.626,0 10.186,4.578 10.186,10.223c0,5.645 -4.56,10.22 -10.186,10.22Z" style="fill:#f8cd51;"/><path id="base2" serif:id="base" d="M11.112,64.374c-2.492,0 -4.776,-0.898 -6.547,-2.39l14.309,-14.45c1.512,1.784 2.424,4.095 2.424,6.62c0,5.645 -4.56,10.22 -10.186,10.22Z" style="fill:#eab642;"/><path id="icon-money-sign" serif:id="icon/money-sign" d="M12.538,56.433c0,-0.756 -0.302,-1.062 -1.726,-1.707c-2.06,-0.938 -2.689,-1.648 -2.689,-3.095c0,-1.421 0.9,-2.445 2.31,-2.752l0,-1.879l0.099,0l1.646,0.88l0,0.965c0.562,0.083 1.067,0.259 1.535,0.528l0.09,0.052l0.061,0.036l-0.012,0.07l-0.016,0.103l-0.214,1.34l-0.039,0.251l-0.026,0.168l-0.135,-0.104l-0.202,-0.154c-0.558,-0.427 -1.247,-0.673 -1.905,-0.673c-0.884,0 -1.367,0.397 -1.367,1.07c0,0.628 0.312,0.921 1.713,1.563c2.066,0.945 2.703,1.697 2.703,3.239c0,1.434 -0.845,2.486 -2.186,2.864l0,1.996l-0.099,0l-1.646,-0.879l0,-0.989c-0.826,-0.072 -1.613,-0.294 -2.275,-0.645l-0.094,-0.051l-0.064,-0.034l0.011,-0.07l0.014,-0.107l0.199,-1.368l0.036,-0.237l0.023,-0.157l0.132,0.087l0.199,0.131c0.773,0.512 1.631,0.8 2.432,0.8c0.929,0 1.492,-0.472 1.492,-1.242" style="fill:#fff;"/></g><path id="heart-healthy" serif:id="heart/healthy" d="M40.923,56.893l4.577,0l2.282,0.032l4.468,4.45l9,-8.964l4.5,4.482l12.75,0l4.5,-4.482l-15,0l-6.75,-6.723l-9,8.964l-2.241,-2.232l-4.509,0l-4.5,-0.009l-1.965,0c-0.67,-2.179 -1.001,-4.409 -0.992,-6.723c-0.029,-0.37 -0.043,-0.744 -0.043,-1.121c0,-8.045 6.548,-14.567 14.625,-14.567c5.21,0 9.785,2.714 12.375,6.8c2.59,-4.086 7.165,-6.8 12.375,-6.8c8.077,0 14.625,6.522 14.625,14.567c0,0.377 -0.014,0.751 0,1.121c0,11.952 -9,21.664 -27,33.616c-12.091,-8.028 -20.121,-15.046 -24.077,-22.411Z" style="fill:#fff;"/></g></svg>