<svg clip-rule="evenodd" fill-rule="evenodd" stroke-linejoin="round" stroke-miterlimit="1.41421" viewBox="0 0 120 110" xmlns="http://www.w3.org/2000/svg"><path d="m10 55c0-30.376 24.625-55 55-55 30.376 0 55 24.624 55 55 0 30.375-24.624 55-55 55-30.375 0-55-24.625-55-55z" fill="#f7893b"/><path d="m65.153 109.819c30.218-.157 54.666-24.703 54.666-54.958 0-15.176-6.152-28.916-16.097-38.861l-77.722 77.722c9.882 9.882 23.509 16.018 38.569 16.097z" fill="#d8732c"/><path d="m21.298 56.017c0 5.645-4.56 10.22-10.186 10.22s-10.187-4.575-10.187-10.22 4.561-10.223 10.187-10.223 10.186 4.578 10.186 10.223" fill="#ba9a3d"/><path d="m11.112 64.374c-5.626 0-10.187-4.575-10.187-10.22s4.561-10.223 10.187-10.223 10.186 4.578 10.186 10.223-4.56 10.22-10.186 10.22z" fill="#f8cd51"/><path d="m11.112 64.374c-2.492 0-4.776-.898-6.547-2.39l14.309-14.45c1.512 1.784 2.424 4.095 2.424 6.62 0 5.645-4.56 10.22-10.186 10.22z" fill="#eab642"/><g fill="#fff"><path d="m12.538 56.433c0-.756-.302-1.062-1.726-1.707-2.06-.938-2.689-1.648-2.689-3.095 0-1.421.9-2.445 2.31-2.752v-1.879h.099l1.646.88v.965c.562.083 1.067.259 1.535.528l.09.052.061.036-.012.07-.016.103-.214 1.34-.039.251-.026.168-.135-.104-.202-.154c-.558-.427-1.247-.673-1.905-.673-.884 0-1.367.397-1.367 1.07 0 .628.312.921 1.713 1.563 2.066.945 2.703 1.697 2.703 3.239 0 1.434-.845 2.486-2.186 2.864v1.996h-.099l-1.646-.879v-.989c-.826-.072-1.613-.294-2.275-.645l-.094-.051-.064-.034.011-.07.014-.107.199-1.368.036-.237.023-.157.132.087.199.131c.773.512 1.631.8 2.432.8.929 0 1.492-.472 1.492-1.242"/><path d="m40.926 56.899h.074 2.256l4.494.018h4.476l4.524-4.506 4.5 4.482h17.25l4.5-4.482h-19.5l-6.75-6.723-6.751 6.724-2.249.012h-2.237-4.513l-1.963-.005c-.671-2.182-1.003-4.414-.994-6.731-.029-.37-.043-.744-.043-1.121 0-8.045 6.548-14.567 14.625-14.567 5.21 0 9.785 2.714 12.375 6.8 2.59-4.086 7.165-6.8 12.375-6.8 8.077 0 14.625 6.522 14.625 14.567 0 .377-.014.751 0 1.121 0 11.952-9 21.664-27 33.616-12.088-8.026-20.117-15.042-24.074-22.405z"/></g></svg>