<?xml version="1.0" encoding="UTF-8" standalone="no"?><!DOCTYPE svg PUBLIC "-//W3C//DTD SVG 1.1//EN" "http://www.w3.org/Graphics/SVG/1.1/DTD/svg11.dtd"><svg width="100%" height="100%" viewBox="0 0 120 110" version="1.1" xmlns="http://www.w3.org/2000/svg" xmlns:xlink="http://www.w3.org/1999/xlink" xml:space="preserve" xmlns:serif="http://www.serif.com/" style="fill-rule:evenodd;clip-rule:evenodd;stroke-linejoin:round;stroke-miterlimit:1.41421;"><g id="salud-crítica" serif:id="salud/crítica"><g id="base-warning" serif:id="base/warning"><path id="base" d="M10,55c0,-30.376 24.625,-55 55,-55c30.376,0 55,24.624 55,55c0,30.375 -24.624,55 -55,55c-30.375,0 -55,-24.625 -55,-55Z" style="fill:#f35e61;"/><path id="depth" d="M65.153,109.819c30.218,-0.157 54.666,-24.703 54.666,-54.958c0,-15.176 -6.152,-28.916 -16.097,-38.861l-77.722,77.722c9.882,9.882 23.509,16.018 38.569,16.097l0.584,0Z" style="fill:#d44b50;"/></g><g id="badge-warning" serif:id="badge/warning"><path id="shadow" d="M21.298,56.017c0,5.645 -4.56,10.22 -10.186,10.22c-5.626,0 -10.187,-4.575 -10.187,-10.22c0,-5.645 4.561,-10.223 10.187,-10.223c5.626,0 10.186,4.578 10.186,10.223" style="fill:#b92a45;"/><path id="base1" serif:id="base" d="M11.112,64.374c-5.626,0 -10.187,-4.575 -10.187,-10.22c0,-5.645 4.561,-10.223 10.187,-10.223c5.626,0 10.186,4.578 10.186,10.223c0,5.645 -4.56,10.22 -10.186,10.22Z" style="fill:#d44b50;"/><path id="icon-warning" serif:id="icon/warning" d="M10.722,47.951c0.076,-0.153 0.177,-0.229 0.278,-0.229c0.101,0 0.201,0.076 0.279,0.229l5.117,10.11c0.153,0.304 -0.004,0.55 -0.352,0.55l-10.088,0c-0.348,0 -0.506,-0.246 -0.351,-0.55l5.117,-10.11Zm-0.229,3.162l0,4.405l1.014,0l0,-3.477l-0.963,-0.928l-0.051,0Zm-0.155,5.642c0,0.342 0.284,0.619 0.634,0.619c0.35,0 0.634,-0.277 0.634,-0.619c0,-0.342 -0.284,-0.618 -0.634,-0.618c-0.35,0 -0.634,0.276 -0.634,0.618Z" style="fill:#fff;"/></g><path id="heart-critical" serif:id="heart/critical" d="M40.923,56.951l37.577,0l4.5,-4.492l-43.965,0c-0.67,-2.184 -1.001,-4.419 -0.992,-6.738c-0.029,-0.37 -0.043,-0.745 -0.043,-1.123c0,-8.062 6.548,-14.598 14.625,-14.598c5.21,0 9.785,2.72 12.375,6.815c2.59,-4.095 7.165,-6.815 12.375,-6.815c8.077,0 14.625,6.536 14.625,14.598c0,0.378 -0.014,0.753 0,1.123c0,11.978 -9,21.71 -27,33.688c-12.091,-8.045 -20.121,-15.078 -24.077,-22.458Z" style="fill:#fff;"/></g></svg>