<svg height="104" viewBox="0 0 200 104" width="200" xmlns="http://www.w3.org/2000/svg"><g fill="none" fill-rule="evenodd"><path d="m59.5006536 8-2.5534359 7.5686275-7.9472177 2.4288826 7.9472177 2.4326175 2.5534359 7.5698724 2.5534358-7.5698724 7.9459106-2.4326175-7.9459106-2.4288826-2.5527823-7.5686275z" fill="#fade8e"/><path d="m142 72.1471339c0 17.2022511-13.879481 16.8523313-31.000304 16.8523313-17.1208226 0-30.999696.3499198-30.999696-16.8523313s13.8788734-31.1471339 30.999696-31.1471339c17.120823 0 31.000304 13.9448828 31.000304 31.1471339" fill="#fade8e" opacity=".5"/><path d="m134 72.0746113c0 12.7431077-10.297622 16.9253887-23.000306 16.9253887-12.7020716 0-22.999694-4.182281-22.999694-16.9253887 0-12.7437211 10.2976224-23.0746113 22.999694-23.0746113 12.702684 0 23.000306 10.3308902 23.000306 23.0746113" fill="#fdd18e"/><path d="m42.2216442 96c-6.1716711 0-11.2216442-4.9496571-11.2216442-11 0-6.0497714 5.0499731-11 11.2216442-11h97.5567118c6.171671 0 11.221644 4.9502286 11.221644 11 0 6.0503429-5.049973 11-11.221644 11z" fill="#b6a8ee"/><g fill="#ddd7f7"><path d="m178.268171 31.7166033h5.843315c.3528-.5458076.558514-1.1906197.558514-1.8867295 0-1.9164823-1.557257-3.4728546-3.480686-3.4728546-.616628 0-1.197257.1610748-1.6992.4447511-.184114-3.2348332-2.869714-5.8017703-6.156514-5.8017703-2.952514 0-5.416971 2.0693494-6.023314 4.8317307-.642343-.4191022-1.407086-.6648182-2.234057-.6648182-2.25 0-4.076229 1.8226074-4.076229 4.0694468 0 .9336182.3168 1.7913158.846 2.480244h6.462"/><path d="m27.0533143 61.4802312h4.0793143c.2458285-.381142.3893143-.8315358.3893143-1.3168121 0-1.3383571-1.0872-2.4248424-2.4294858-2.4248424-.4304571 0-.8357142.1133679-1.1864571.311377-.1285714-2.2586379-2.0026286-4.0499537-4.2968571-4.0499537-2.0612572 0-3.7810286 1.4435174-4.2042858 3.372311-.4484571-.2923969-.9822857-.4637312-1.5593142-.4637312-1.5711429 0-2.8455429 1.2716701-2.8455429 2.8403539 0 .6519938.2211429 1.250638.5909143 1.7312975h4.5097714"/><path d="m99.906286 85c-.498372 0-.906286-.3956954-.906286-.8791391v-.2417218c0-.4834437.407914-.8791391.906286-.8791391h24.187428c.498372 0 .906286.3956954.906286.8791391v.2417218c0 .4834437-.407914.8791391-.906286.8791391z"/><path d="m106.923526 90.9229388c-.507852 0-.923526-.380449-.923526-.8452653v-.2324082c0-.4648163.415674-.8452653.923526-.8452653h6.102091c.507852 0 .923526.380449.923526.8452653v.2324082c0 .4648163-.415674.8452653-.923526.8452653z"/><ellipse cx="116.909091" cy="90" rx="1.090909" ry="1"/><path d="m97.2504462 79.9229388c-.5043257 0-.9171129-.380449-.9171129-.8452653v-.2324082c0-.4648163.4127872-.8452653.9171129-.8452653h32.0597148c.504326 0 .917113.380449.917113.8452653v.2324082c0 .4648163-.412787.8452653-.917113.8452653z"/><ellipse cx="93.083333" cy="79" rx="1.083333" ry="1"/></g></g></svg>