<?xml version="1.0" encoding="UTF-8" standalone="no"?><!DOCTYPE svg PUBLIC "-//W3C//DTD SVG 1.1//EN" "http://www.w3.org/Graphics/SVG/1.1/DTD/svg11.dtd"><svg width="100%" height="100%" viewBox="0 0 191 90" version="1.1" xmlns="http://www.w3.org/2000/svg" xmlns:xlink="http://www.w3.org/1999/xlink" xml:space="preserve" xmlns:serif="http://www.serif.com/" style="fill-rule:evenodd;clip-rule:evenodd;stroke-linejoin:round;stroke-miterlimit:1.41421;"><path id="Shape" d="M15.672,63.916c-3.115,0 -5.852,1.469 -7.433,3.687c-0.613,-0.104 -1.234,-0.158 -1.857,-0.161c-5.048,0 -6.167,3.977 -6.382,5.077l0,0.238l32.2,0c-0.038,-1.622 -2.234,-3.907 -4.971,-3.907c-1.078,-0.003 -2.14,0.261 -3.092,0.767c-1.118,-3.303 -4.486,-5.701 -8.465,-5.701" style="fill:#ace1e1;fill-rule:nonzero;"/><path id="Shape1" serif:id="Shape" d="M173.475,5.403c-0.686,-0.362 -1.451,-0.551 -2.228,-0.55c-1.971,0 -3.552,1.645 -3.577,2.811l23.185,0l0,-0.18c-0.18,-0.878 -1.157,-4.327 -5.933,-3.537c-1.138,-1.598 -3.11,-2.654 -5.353,-2.654c-2.865,0 -5.29,1.725 -6.094,4.101" style="fill:#ace1e1;"/><path id="Shape2" serif:id="Shape" d="M103.196,19.194c0.478,0.023 0.93,-0.219 1.176,-0.63c0.245,-0.411 0.245,-0.923 0,-1.334c-0.246,-0.411 -0.698,-0.653 -1.176,-0.63c-0.693,0.033 -1.237,0.604 -1.237,1.297c0,0.693 0.544,1.264 1.237,1.297" style="fill:#d0eff0;fill-rule:nonzero;"/><path id="Shape3" serif:id="Shape" d="M62.229,63.771c0.223,-0.579 -0.054,-1.231 -0.626,-1.472c-0.572,-0.241 -1.232,0.015 -1.492,0.579c-0.175,0.381 -0.129,0.828 0.121,1.165c0.25,0.337 0.664,0.512 1.079,0.455c0.416,-0.057 0.768,-0.335 0.918,-0.727Zm-1.734,4.677c0.125,-0.347 0.023,-0.725 -0.265,-0.988c-0.289,-0.263 -0.718,-0.369 -1.123,-0.277c-0.404,0.091 -0.719,0.367 -0.823,0.719c-0.155,0.525 0.2,1.062 0.8,1.21c0.599,0.148 1.226,-0.146 1.411,-0.664Zm-0.957,5.122c0.054,-0.401 -0.126,-0.798 -0.468,-1.034c-0.342,-0.236 -0.791,-0.273 -1.17,-0.096c-0.378,0.177 -0.625,0.54 -0.643,0.944c-0.054,0.401 0.126,0.798 0.468,1.034c0.342,0.236 0.791,0.273 1.17,0.095c0.379,-0.177 0.626,-0.539 0.643,-0.943Zm0.347,4.877c-0.187,-0.588 -0.803,-0.923 -1.398,-0.761c-0.594,0.163 -0.955,0.765 -0.818,1.365c0.094,0.412 0.406,0.739 0.813,0.853c0.407,0.113 0.843,-0.006 1.136,-0.31c0.293,-0.305 0.396,-0.745 0.267,-1.147Zm2.351,3.895c-0.482,-0.389 -1.185,-0.326 -1.59,0.142c-0.406,0.467 -0.368,1.172 0.084,1.594c0.308,0.287 0.748,0.383 1.147,0.25c0.399,-0.132 0.694,-0.472 0.769,-0.887c0.075,-0.414 -0.083,-0.836 -0.41,-1.099Zm4.204,1.911c-0.614,-0.093 -1.191,0.318 -1.304,0.929c-0.112,0.611 0.282,1.201 0.889,1.332c0.41,0.088 0.835,-0.053 1.11,-0.37c0.275,-0.316 0.356,-0.757 0.212,-1.151c-0.145,-0.394 -0.492,-0.677 -0.907,-0.74Zm4.937,0.098c-0.405,0.036 -0.76,0.295 -0.926,0.676c-0.166,0.38 -0.117,0.824 0.128,1.157c0.245,0.333 0.648,0.503 1.051,0.445c0.406,-0.036 0.761,-0.295 0.927,-0.675c0.166,-0.381 0.116,-0.825 -0.129,-1.158c-0.245,-0.333 -0.647,-0.503 -1.051,-0.445Zm5.01,-1.024c-0.611,0.175 -0.964,0.811 -0.789,1.422c0.175,0.61 0.811,0.963 1.422,0.788c0.395,-0.113 0.699,-0.428 0.799,-0.826c0.099,-0.399 -0.021,-0.82 -0.317,-1.106c-0.295,-0.285 -0.72,-0.391 -1.115,-0.278Zm4.877,-1.708c-0.431,0.176 -0.714,0.595 -0.716,1.061c-0.001,0.466 0.278,0.887 0.707,1.066c0.43,0.18 0.925,0.082 1.255,-0.246c0.33,-0.329 0.429,-0.825 0.251,-1.255c-0.239,-0.583 -0.904,-0.862 -1.487,-0.626l-0.01,0Zm4.731,-2.18c-0.377,0.179 -0.627,0.549 -0.653,0.966c-0.026,0.417 0.176,0.816 0.528,1.041c0.352,0.225 0.798,0.241 1.166,0.043c0.548,-0.297 0.761,-0.976 0.479,-1.532c-0.283,-0.556 -0.957,-0.786 -1.52,-0.518Zm4.548,-2.518c-0.525,0.333 -0.689,1.024 -0.371,1.559c0.318,0.534 1.004,0.719 1.547,0.416c0.366,-0.204 0.592,-0.59 0.591,-1.009c-0.002,-0.419 -0.231,-0.804 -0.598,-1.005c-0.368,-0.201 -0.815,-0.186 -1.169,0.039Zm4.422,-2.812c-0.34,0.231 -0.53,0.626 -0.5,1.036c0.031,0.409 0.278,0.772 0.648,0.95c0.37,0.178 0.807,0.146 1.146,-0.085c0.525,-0.358 0.661,-1.073 0.303,-1.598c-0.357,-0.525 -1.073,-0.661 -1.597,-0.303Zm4.277,-3.032c-0.373,0.279 -0.541,0.754 -0.425,1.205c0.115,0.45 0.491,0.787 0.952,0.853c0.461,0.065 0.916,-0.154 1.152,-0.554c0.237,-0.401 0.208,-0.904 -0.072,-1.276c-0.183,-0.244 -0.455,-0.405 -0.756,-0.448c-0.302,-0.042 -0.608,0.037 -0.851,0.22Zm4.127,-3.246c-0.36,0.295 -0.506,0.778 -0.37,1.222c0.136,0.444 0.527,0.763 0.99,0.808c0.463,0.044 0.907,-0.194 1.126,-0.605c0.218,-0.41 0.167,-0.911 -0.129,-1.269c-0.195,-0.237 -0.476,-0.387 -0.782,-0.416c-0.305,-0.029 -0.61,0.065 -0.846,0.26l0.011,0Zm3.972,-3.422c-0.316,0.261 -0.464,0.675 -0.385,1.078c0.079,0.403 0.372,0.73 0.763,0.852c0.392,0.121 0.818,0.017 1.11,-0.271c0.316,-0.261 0.464,-0.675 0.385,-1.078c-0.079,-0.403 -0.372,-0.73 -0.764,-0.852c-0.391,-0.121 -0.817,-0.017 -1.109,0.271Zm3.825,-3.595c-0.294,0.287 -0.413,0.709 -0.311,1.107c0.101,0.398 0.408,0.712 0.803,0.823c0.396,0.111 0.82,0.003 1.114,-0.284c0.294,-0.287 0.413,-0.709 0.311,-1.107c-0.101,-0.398 -0.407,-0.712 -0.803,-0.823c-0.396,-0.111 -0.82,-0.003 -1.114,0.284Zm3.68,-3.753c-0.294,0.297 -0.404,0.73 -0.287,1.131c0.117,0.401 0.442,0.707 0.85,0.8c0.408,0.092 0.833,-0.044 1.112,-0.356c0.415,-0.464 0.384,-1.176 -0.07,-1.603c-0.454,-0.428 -1.166,-0.415 -1.605,0.028Zm3.496,-3.883c-0.392,0.483 -0.329,1.19 0.143,1.596c0.471,0.406 1.18,0.364 1.599,-0.096c0.283,-0.309 0.375,-0.747 0.241,-1.144c-0.135,-0.397 -0.474,-0.689 -0.886,-0.763c-0.413,-0.074 -0.833,0.082 -1.097,0.407Zm3.334,-4.058c-0.391,0.501 -0.302,1.224 0.198,1.615c0.5,0.391 1.223,0.303 1.614,-0.198c0.391,-0.5 0.303,-1.223 -0.197,-1.615c-0.241,-0.188 -0.547,-0.272 -0.85,-0.234c-0.304,0.039 -0.579,0.197 -0.765,0.44l0,-0.008Zm3.105,-4.187c-0.333,0.519 -0.197,1.208 0.308,1.562c0.505,0.354 1.2,0.247 1.574,-0.244c0.256,-0.335 0.308,-0.784 0.135,-1.169c-0.173,-0.385 -0.543,-0.644 -0.964,-0.675c-0.421,-0.031 -0.825,0.17 -1.053,0.526Zm2.887,-4.368c-0.333,0.541 -0.165,1.249 0.376,1.582c0.54,0.333 1.249,0.165 1.582,-0.376c0.333,-0.54 0.165,-1.249 -0.376,-1.582c-0.541,-0.333 -1.249,-0.165 -1.582,0.376Zm2.586,-4.528c-0.188,0.357 -0.17,0.786 0.047,1.126c0.218,0.34 0.603,0.54 1.009,0.523c0.406,-0.017 0.772,-0.247 0.961,-0.604c0.21,-0.359 0.204,-0.803 -0.015,-1.157c-0.219,-0.353 -0.616,-0.559 -1.034,-0.537c-0.418,0.023 -0.79,0.271 -0.968,0.646l0,0.003Zm2.201,-4.689c-0.208,0.578 0.075,1.218 0.643,1.453c0.568,0.235 1.22,-0.019 1.481,-0.576c0.179,-0.383 0.133,-0.834 -0.12,-1.174c-0.253,-0.339 -0.672,-0.512 -1.09,-0.45c-0.419,0.062 -0.77,0.349 -0.914,0.747Zm1.685,-4.861c-0.138,0.614 0.225,1.229 0.823,1.395c0.599,0.165 1.219,-0.177 1.407,-0.777c0.167,-0.626 -0.196,-1.27 -0.812,-1.44c-0.616,-0.17 -1.251,0.199 -1.418,0.825l0,-0.003Zm0.883,-5.002c-0.034,0.414 0.158,0.813 0.502,1.046c0.344,0.232 0.786,0.261 1.158,0.076c0.371,-0.186 0.614,-0.557 0.635,-0.971c0.031,-0.628 -0.447,-1.165 -1.074,-1.206c-0.627,-0.041 -1.171,0.429 -1.221,1.055Zm-0.461,-4.818c0.122,0.392 0.444,0.689 0.845,0.78c0.4,0.09 0.819,-0.04 1.098,-0.342c0.278,-0.302 0.375,-0.73 0.253,-1.122c-0.122,-0.392 -0.445,-0.689 -0.845,-0.78c-0.401,-0.09 -0.82,0.04 -1.098,0.342c-0.279,0.302 -0.376,0.729 -0.253,1.122Zm-2.515,-3.773c0.365,0.288 0.867,0.328 1.272,0.102c0.406,-0.227 0.635,-0.676 0.581,-1.138c-0.054,-0.462 -0.381,-0.846 -0.828,-0.973c-0.447,-0.127 -0.926,0.029 -1.214,0.394c-0.19,0.239 -0.278,0.543 -0.242,0.846c0.035,0.304 0.189,0.58 0.429,0.769l0.002,0Zm-4.308,-1.752c0.461,0.073 0.92,-0.141 1.162,-0.54c0.242,-0.399 0.218,-0.905 -0.059,-1.28c-0.278,-0.375 -0.755,-0.545 -1.207,-0.43c-0.452,0.114 -0.791,0.491 -0.856,0.953c-0.089,0.621 0.338,1.199 0.958,1.297l0.002,0Zm-4.956,0.004c0.408,-0.052 0.757,-0.317 0.916,-0.696c0.16,-0.378 0.105,-0.813 -0.144,-1.14c-0.248,-0.328 -0.652,-0.498 -1.06,-0.446c-0.408,0.052 -0.757,0.317 -0.916,0.695c-0.159,0.379 -0.104,0.814 0.144,1.141c0.249,0.327 0.653,0.497 1.06,0.446Zm-5.001,1.082c0.409,-0.103 0.728,-0.422 0.832,-0.831c0.103,-0.408 -0.024,-0.841 -0.334,-1.127c-0.309,-0.286 -0.75,-0.381 -1.15,-0.245c-0.585,0.198 -0.909,0.822 -0.733,1.415c0.175,0.592 0.786,0.94 1.385,0.788Zm-4.898,1.734c0.381,-0.145 0.655,-0.491 0.712,-0.903c0.057,-0.411 -0.11,-0.821 -0.437,-1.069c-0.327,-0.247 -0.76,-0.293 -1.129,-0.118c-0.381,0.145 -0.654,0.491 -0.712,0.903c-0.057,0.411 0.111,0.821 0.437,1.069c0.327,0.247 0.76,0.293 1.129,0.118Zm-4.66,2.241c0.561,-0.296 0.778,-0.992 0.485,-1.557c-0.292,-0.565 -0.984,-0.785 -1.547,-0.493c-0.563,0.293 -0.784,0.988 -0.495,1.554c0.142,0.272 0.385,0.475 0.676,0.566c0.291,0.09 0.606,0.06 0.876,-0.083l0.005,0.013Z" style="fill:#d0eff0;fill-rule:nonzero;"/><g id="Group"><path id="Fill-5" d="M127.329,57.794c0,1.83 -1.479,3.314 -3.303,3.314l-63.394,0c-1.825,0 -3.303,-1.484 -3.303,-3.314l0,-34.371c0,-1.83 1.478,-3.315 3.303,-3.315l63.394,0c1.824,0 3.303,1.485 3.303,3.315l0,34.371Z" style="fill:#004481;"/><path id="Fill-10" d="M127.329,55.794c0,1.83 -1.479,3.314 -3.303,3.314l-63.394,0c-1.825,0 -3.303,-1.484 -3.303,-3.314l0,-34.371c0,-1.829 1.478,-3.315 3.303,-3.315l63.394,0c1.824,0 3.303,1.486 3.303,3.315l0,34.371Z" style="fill:#2a86ca;"/><path id="Clip-13" d="M73.329,59.108c11.273,0 28.183,0 50.729,0c1.806,0 3.271,-1.483 3.271,-3.313l0,-34.372c0,-1.829 -1.465,-3.315 -3.271,-3.315c-4.537,0 -7.94,0 -10.209,0c-27.013,27.333 -40.52,41 -40.52,41Z" style="fill:#0977ba;"/><rect id="Fill-15" x="57.329" y="23.108" width="70" height="7" style="fill:#072146;"/><rect id="Fill-17" x="66.329" y="43.108" width="52" height="5" style="fill:#fff;"/></g><g id="badge-good" serif:id="badge/good"><path id="shadow" d="M144.659,11.582c0,5.41 -4.353,9.794 -9.722,9.794c-5.371,0 -9.725,-4.384 -9.725,-9.794c0,-5.41 4.354,-9.797 9.725,-9.797c5.369,0 9.722,4.387 9.722,9.797" style="fill:#ba9a3d;"/><path id="base" d="M134.937,19.591c-5.371,0 -9.725,-4.384 -9.725,-9.794c0,-5.41 4.354,-9.797 9.725,-9.797c5.369,0 9.722,4.387 9.722,9.797c0,5.41 -4.353,9.794 -9.722,9.794Z" style="fill:#f8cd51;"/><path id="base1" serif:id="base" d="M134.937,19.591c-2.38,0 -4.56,-0.861 -6.25,-2.29l13.658,-13.848c1.443,1.709 2.314,3.924 2.314,6.344c0,5.41 -4.353,9.794 -9.722,9.794Z" style="fill:#eab642;"/><path id="icon-money-sign" serif:id="icon/money-sign" d="M136.298,11.981c0,-0.725 -0.289,-1.018 -1.648,-1.636c-1.966,-0.899 -2.567,-1.579 -2.567,-2.966c0,-1.362 0.859,-2.344 2.206,-2.637l0,-1.801l0.094,0l1.571,0.843l0,0.925c0.536,0.08 1.018,0.248 1.465,0.506l0.086,0.05l0.058,0.034l-0.011,0.067l-0.016,0.099l-0.204,1.284l-0.037,0.241l-0.025,0.161l-0.129,-0.1l-0.193,-0.147c-0.532,-0.409 -1.19,-0.646 -1.818,-0.646c-0.844,0 -1.305,0.382 -1.305,1.026c0,0.602 0.298,0.883 1.635,1.498c1.972,0.906 2.58,1.626 2.58,3.104c0,1.374 -0.806,2.383 -2.086,2.745l0,1.913l-0.095,0l-1.57,-0.843l0,-0.948c-0.79,-0.068 -1.54,-0.282 -2.173,-0.618l-0.089,-0.049l-0.061,-0.033l0.01,-0.067l0.014,-0.102l0.19,-1.311l0.034,-0.227l0.022,-0.151l0.126,0.084l0.19,0.125c0.737,0.491 1.557,0.768 2.321,0.768c0.887,0 1.425,-0.453 1.425,-1.191" style="fill:#fff;"/></g><g id="badge-good1" serif:id="badge/good"><path id="shadow1" serif:id="shadow" d="M69.234,81.412c0,4.469 -3.524,8.091 -7.871,8.091c-4.347,0 -7.872,-3.622 -7.872,-8.091c0,-4.469 3.525,-8.093 7.872,-8.093c4.347,0 7.871,3.624 7.871,8.093" style="fill:#ba9a3d;"/><path id="base2" serif:id="base" d="M61.363,88.029c-4.347,0 -7.872,-3.622 -7.872,-8.091c0,-4.469 3.525,-8.093 7.872,-8.093c4.347,0 7.871,3.624 7.871,8.093c0,4.469 -3.524,8.091 -7.871,8.091Z" style="fill:#f8cd51;"/><path id="base3" serif:id="base" d="M61.363,88.029c-1.926,0 -3.691,-0.711 -5.059,-1.892l11.057,-11.44c1.168,1.412 1.873,3.242 1.873,5.241c0,4.469 -3.524,8.091 -7.871,8.091Z" style="fill:#eab642;"/><path id="icon-money-sign1" serif:id="icon/money-sign" d="M62.465,81.742c0,-0.599 -0.233,-0.841 -1.334,-1.351c-1.591,-0.743 -2.078,-1.305 -2.078,-2.45c0,-1.125 0.696,-1.937 1.786,-2.179l0,-1.488l0.076,0l1.272,0.697l0,0.764c0.434,0.066 0.824,0.205 1.185,0.418l0.071,0.041l0.046,0.028l-0.009,0.056l-0.012,0.081l-0.165,1.061l-0.031,0.199l-0.02,0.133l-0.104,-0.082l-0.156,-0.122c-0.431,-0.338 -0.964,-0.533 -1.472,-0.533c-0.684,0 -1.056,0.315 -1.056,0.847c0,0.497 0.241,0.73 1.323,1.238c1.597,0.748 2.089,1.343 2.089,2.563c0,1.136 -0.653,1.969 -1.689,2.268l0,1.58l-0.077,0l-1.271,-0.696l0,-0.783c-0.639,-0.056 -1.247,-0.233 -1.759,-0.511l-0.073,-0.04l-0.049,-0.027l0.009,-0.055l0.011,-0.085l0.153,-1.083l0.028,-0.188l0.018,-0.124l0.102,0.07l0.154,0.103c0.597,0.405 1.26,0.634 1.879,0.634c0.718,0 1.153,-0.375 1.153,-0.984" style="fill:#fff;"/></g></svg>