<?xml version="1.0" encoding="UTF-8" standalone="no"?>
<!DOCTYPE svg PUBLIC "-//W3C//DTD SVG 1.1//EN" "http://www.w3.org/Graphics/SVG/1.1/DTD/svg11.dtd">
<svg width="100%" height="100%" viewBox="0 0 153 74" version="1.1" xmlns="http://www.w3.org/2000/svg" xmlns:xlink="http://www.w3.org/1999/xlink" xml:space="preserve" xmlns:serif="http://www.serif.com/" style="fill-rule:evenodd;clip-rule:evenodd;stroke-linejoin:round;stroke-miterlimit:1.41421;">
	<g id="Group">
		<path id="Fill-2" d="M143.349,44.67l-26.739,0c-3.324,-1.493 -5.684,-4.914 -5.684,-8.746l0,-0.001c0,-3.557 2.034,-6.422 4.973,-7.983l6.14,0c4.791,0 8.675,-3.65 8.675,-8.152l0,-1.563c0,-4.501 -3.884,-8.151 -8.675,-8.151l-94.784,0c-4.792,0 -8.676,3.65 -8.676,8.151l0,1.563c0,4.502 3.884,8.152 8.676,8.152l0.255,0c3.208,1.419 5.439,4.589 5.439,8.356c0,3.56 -1.992,6.749 -4.919,8.374l-19.196,0c-4.878,0 -8.834,4.166 -8.834,9.304l0,0.002c0,5.138 3.956,9.304 8.834,9.304l134.515,0c4.879,0 8.834,-4.166 8.834,-9.304l0,-0.002c0,-5.138 -3.955,-9.304 -8.834,-9.304" style="fill:#fcdfdf;"/>
		<g id="Group-23">
			<path id="Fill-7" d="M63.097,15.776l-10.574,10.518l0,40.94l10.574,-10.424l0,-41.034Z" style="fill:#c569b9;"/>
			<path id="Fill-9" d="M99.66,0l-10.575,10.518l0,20.672l10.575,-10.425l0,-20.765Z" style="fill:#c569b9;"/>
			<path id="Fill-11" d="M81.378,9.466l-10.574,10.518l0,29.228l10.574,-10.424l0,-29.322Z" style="fill:#c569b9;"/>
			<path id="Fill-13" d="M52.983,73.354l9.654,0c0.253,0 0.46,-0.208 0.46,-0.464l0,-16.079l-10.574,10.424l0,5.655c0,0.256 0.207,0.464 0.46,0.464" style="fill:#ad53a1;"/>
			<path id="Fill-15" d="M89.546,73.354l9.654,0c0.253,0 0.46,-0.208 0.46,-0.464l0,-52.124l-10.574,10.424l0,41.7c0,0.256 0.207,0.464 0.46,0.464" style="fill:#ad53a1;"/>
			<path id="Fill-17" d="M71.264,73.354l9.654,0c0.253,0 0.46,-0.208 0.46,-0.464l0,-34.102l-10.573,10.424l0,23.678c0,0.256 0.207,0.464 0.459,0.464" style="fill:#ad53a1;"/>
			<g id="Group-3">
				<path id="Fill-1" d="M125.092,10.297c-0.001,4.694 -3.806,8.5 -8.5,8.5c-4.695,0 -8.501,-3.806 -8.501,-8.5c0.001,-4.695 3.806,-8.5 8.501,-8.5c4.694,0 8.499,3.805 8.499,8.5" style="fill:#da3851;"/>
				<path id="Fill-4" d="M121.092,7.306l-1.509,-1.509l-2.992,2.991l-2.991,-2.991l-1.508,1.509l2.991,2.99l-2.992,2.992l1.509,1.509l2.992,-2.991l2.991,2.991l1.508,-1.509l-2.991,-2.992l2.992,-2.99Z" style="fill:#fff;"/>
			</g>
		</g>
	</g>
</svg>