<?xml version="1.0" encoding="UTF-8" standalone="no"?>
<!DOCTYPE svg PUBLIC "-//W3C//DTD SVG 1.1//EN" "http://www.w3.org/Graphics/SVG/1.1/DTD/svg11.dtd">
<svg width="100%" height="100%" viewBox="0 0 151 71" version="1.1" xmlns="http://www.w3.org/2000/svg" xmlns:xlink="http://www.w3.org/1999/xlink" xml:space="preserve" xmlns:serif="http://www.serif.com/" style="fill-rule:evenodd;clip-rule:evenodd;stroke-linecap:round;stroke-linejoin:round;">
	<g id="Group">
		<path id="Fill-2" d="M142.217,42.332l-26.528,0c-3.298,-1.461 -5.639,-4.81 -5.639,-8.56l0,-0.001c0,-3.481 2.018,-6.286 4.933,-7.813l6.092,0c4.753,0 8.607,-3.572 8.607,-7.978l0,-1.529c0,-4.406 -3.854,-7.978 -8.607,-7.978l-94.034,0c-4.755,0 -8.608,3.572 -8.608,7.978l0,1.529c0,4.406 3.853,7.978 8.608,7.978l0.252,0c3.183,1.389 5.396,4.491 5.396,8.178l0,0.001c0,3.483 -1.977,6.604 -4.88,8.195l-19.045,0c-4.839,0 -8.764,4.077 -8.764,9.106l0,0.002c0,5.029 3.925,9.106 8.764,9.106l133.453,0c4.84,0 8.764,-4.077 8.764,-9.106l0,-0.002c0,-5.029 -3.924,-9.106 -8.764,-9.106" style="fill:#d3edfd;"/>
		<g id="Group-2">
			<path id="Clip-8" d="M48.589,18.78c-8.451,16.588 -3.391,36.593 11.299,44.674c14.695,8.084 33.458,1.187 41.908,-15.401c8.45,-16.588 3.387,-36.585 -11.307,-44.669c-4.173,-2.297 -8.678,-3.383 -13.177,-3.384c-11.343,-0.001 -22.674,6.904 -28.723,18.78Zm17.584,33.855c-8.979,-4.94 -12.075,-17.166 -6.909,-27.307c5.166,-10.141 16.635,-14.357 25.616,-9.417c8.982,4.943 12.077,17.171 6.911,27.312c-3.698,7.259 -10.626,11.481 -17.559,11.481c-2.754,0 -5.506,-0.664 -8.059,-2.069Z" style="fill:#da3851;"/>
			<path id="Path" d="M80.704,14.296c1.429,0.34 2.83,0.875 4.176,1.615c2,1.101 3.707,2.562 5.098,4.281l7.975,-10.838c-2.104,-2.367 -4.6,-4.394 -7.464,-5.97c-1.387,-0.764 -2.811,-1.393 -4.259,-1.894l-5.526,12.806Z" style="fill:#fff;fill-rule:nonzero;"/>
			<path id="Path1" serif:id="Path" d="M51.593,56.503c2.265,2.791 5.044,5.162 8.295,6.951c1.571,0.865 3.19,1.557 4.838,2.086l5.445,-11.333c-1.366,-0.341 -2.707,-0.862 -3.998,-1.572c-2.599,-1.431 -4.706,-3.471 -6.262,-5.896l-8.318,9.764Z" style="fill:#fff;fill-rule:nonzero;"/>
			<path id="Path2" serif:id="Path" d="M48.589,18.78c-0.822,1.611 -1.515,3.256 -2.084,4.918l11.11,5.834c0.403,-1.424 0.95,-2.833 1.649,-4.204c1.078,-2.115 2.43,-3.973 3.975,-5.544l-10.859,-6.976c-1.417,1.818 -2.691,3.813 -3.791,5.972Z" style="fill:#fff;fill-rule:nonzero;"/>
			<path id="Path3" serif:id="Path" d="M91.791,43.223c-1.002,1.967 -2.242,3.712 -3.654,5.209l9.208,6.416c1.683,-2.036 3.183,-4.306 4.451,-6.795c0.816,-1.602 1.506,-3.236 2.073,-4.888l-10.089,-5.515c-0.409,1.889 -1.068,3.765 -1.989,5.573Z" style="fill:#fff;fill-rule:nonzero;"/>
			<path id="Stroke-16" d="M28.593,21.895c15.444,-14.288 8.778,22.222 22.921,-5.194c26.632,22.396 1.632,35.978 6.886,45.403c13.291,18.182 47.111,-0.669 42.961,-12.762c29.984,-16.821 -1.739,-56.886 -12.385,-44.811c-4.122,9.081 -19.362,6.659 -26.228,2.171c-6.881,-4.498 -16.894,-1.023 -11.34,9.864" style="fill:none;stroke:#c49735;stroke-width:0.75px;"/>
		</g>
	</g>
</svg>