<?xml version="1.0" encoding="UTF-8" standalone="no"?><!DOCTYPE svg PUBLIC "-//W3C//DTD SVG 1.1//EN" "http://www.w3.org/Graphics/SVG/1.1/DTD/svg11.dtd"><svg width="100%" height="100%" viewBox="0 0 153 60" version="1.1" xmlns="http://www.w3.org/2000/svg" xmlns:xlink="http://www.w3.org/1999/xlink" xml:space="preserve" xmlns:serif="http://www.serif.com/" style="fill-rule:evenodd;clip-rule:evenodd;stroke-linejoin:round;stroke-miterlimit:1.41421;"><path id="Clip-3" d="M27.327,0c-4.805,0 -8.699,3.649 -8.699,8.151l0,1.562c0,4.502 3.895,8.152 8.699,8.152l0.256,0c3.217,1.419 5.454,4.589 5.454,8.355l0,0.001c0,3.559 -1.998,6.748 -4.933,8.374l-19.246,0c-4.892,0 -8.858,4.165 -8.858,9.304l0,0.001c0,5.138 3.966,9.304 8.858,9.304l134.871,0c4.891,0 8.857,-4.166 8.857,-9.304l0,-0.001c0,-5.139 -3.966,-9.304 -8.857,-9.304l-26.811,0c-3.333,-1.493 -5.698,-4.914 -5.698,-8.746l0,-0.002c0,-3.556 2.04,-6.421 4.986,-7.982l6.156,0c4.803,0 8.698,-3.65 8.698,-8.152l0,-1.562c0,-4.502 -3.895,-8.151 -8.698,-8.151l-95.035,0Z" style="fill:#d3edfd;"/><g id="Group"><path id="Fill-5" d="M114.052,55.701c0,1.978 -1.598,3.581 -3.567,3.581l-68.457,0c-1.971,0 -3.567,-1.603 -3.567,-3.581l0,-37.154c0,-1.978 1.596,-3.584 3.567,-3.584l68.457,0c1.969,0 3.567,1.606 3.567,3.584l0,37.154Z" style="fill:#004481;"/><path id="Fill-10" d="M114.052,54.026c0,1.979 -1.598,3.582 -3.567,3.582l-68.457,0c-1.971,0 -3.567,-1.603 -3.567,-3.582l0,-37.154c0,-1.978 1.596,-3.584 3.567,-3.584l68.457,0c1.969,0 3.567,1.606 3.567,3.584l0,37.154Z" style="fill:#2a86ca;"/><path id="Fill-101" serif:id="Fill-10" d="M114.052,54.026c0,1.979 -1.598,3.582 -3.567,3.582l-68.457,0c-1.971,0 -3.567,-1.603 -3.567,-3.582l0,-37.154c0,-1.978 1.596,-3.584 3.567,-3.584l68.457,0c1.969,0 3.567,1.606 3.567,3.584l0,37.154Z" style="fill:#2a86ca;"/><path id="Clip-13" d="M55.169,57.607c12.293,0 30.731,0 55.316,0c1.969,0 3.567,-1.602 3.567,-3.581l0,-37.155c0,-1.977 -1.598,-3.584 -3.567,-3.584c-4.948,0 -8.659,0 -11.132,0c-29.456,29.547 -44.184,44.32 -44.184,44.32Z" style="fill:#0977ba;"/><path id="Fill-15" d="M38.533,26.303l75.592,0l0,-7.593l-75.592,0l0,7.593Z" style="fill:#072146;"/><path id="Fill-17" d="M48.12,45.657l56.419,0l0,-5.255l-56.419,0l0,5.255Z" style="fill:#fff;"/></g><g id="badge-good" serif:id="badge/good"><g id="icon-base-yellow" serif:id="icon/base/yellow"><path id="shadow" d="M123.219,14.414c0,4.619 -3.732,8.362 -8.334,8.362c-4.603,0 -8.335,-3.743 -8.335,-8.362c0,-4.619 3.732,-8.364 8.335,-8.364c4.602,0 8.334,3.745 8.334,8.364" style="fill:#ba9a3d;"/><path id="base" d="M114.885,21.252c-4.603,0 -8.335,-3.743 -8.335,-8.362c0,-4.618 3.732,-8.364 8.335,-8.364c4.602,0 8.334,3.746 8.334,8.364c0,4.619 -3.732,8.362 -8.334,8.362Z" style="fill:#f8cd51;"/><path id="base1" serif:id="base" d="M114.885,21.252c-2.04,0 -3.908,-0.735 -5.357,-1.955l11.707,-11.823c1.237,1.459 1.984,3.35 1.984,5.416c0,4.619 -3.732,8.362 -8.334,8.362Z" style="fill:#eab642;"/></g><path id="icon-money-sign" serif:id="icon/money-sign" d="M116.052,14.755c0,-0.619 -0.248,-0.869 -1.413,-1.397c-1.685,-0.767 -2.2,-1.348 -2.2,-2.532c0,-1.163 0.737,-2.001 1.89,-2.251l0,-1.538l0.081,0l1.347,0.72l0,0.789c0.459,0.069 0.873,0.212 1.255,0.432l0.075,0.043l0.049,0.029l-0.009,0.057l-0.014,0.085l-0.174,1.096l-0.033,0.206l-0.021,0.138l-0.111,-0.086l-0.165,-0.126c-0.456,-0.349 -1.02,-0.551 -1.558,-0.551c-0.724,0 -1.119,0.326 -1.119,0.876c0,0.514 0.256,0.754 1.402,1.279c1.69,0.773 2.211,1.388 2.211,2.65c0,1.173 -0.691,2.034 -1.788,2.343l0,1.633l-0.081,0l-1.347,-0.719l0,-0.81c-0.676,-0.058 -1.319,-0.24 -1.862,-0.527l-0.076,-0.042l-0.053,-0.028l0.009,-0.057l0.012,-0.087l0.163,-1.12l0.029,-0.194l0.019,-0.128l0.108,0.072l0.163,0.106c0.632,0.419 1.334,0.655 1.989,0.655c0.761,0 1.222,-0.386 1.222,-1.016" style="fill:#fff;"/></g></svg>