<?xml version="1.0" encoding="UTF-8" standalone="no"?>
<!DOCTYPE svg PUBLIC "-//W3C//DTD SVG 1.1//EN" "http://www.w3.org/Graphics/SVG/1.1/DTD/svg11.dtd">
<svg width="100%" height="100%" viewBox="0 0 153 74" version="1.1" xmlns="http://www.w3.org/2000/svg" xmlns:xlink="http://www.w3.org/1999/xlink" xml:space="preserve" xmlns:serif="http://www.serif.com/" style="fill-rule:evenodd;clip-rule:evenodd;stroke-linejoin:round;stroke-miterlimit:1.41421;">
	<g id="Group">
		<path id="Fill-2" d="M143.349,44.67l-26.739,0c-3.324,-1.493 -5.684,-4.914 -5.684,-8.746l0,-0.001c0,-3.557 2.034,-6.422 4.973,-7.983l6.14,0c4.791,0 8.675,-3.65 8.675,-8.152l0,-1.562c0,-4.502 -3.884,-8.152 -8.675,-8.152l-94.784,0c-4.792,0 -8.676,3.65 -8.676,8.152l0,1.562c0,4.502 3.884,8.152 8.676,8.152l0.255,0c3.208,1.419 5.439,4.589 5.439,8.355l0,0.002c0,3.559 -1.992,6.748 -4.919,8.373l-19.196,0c-4.878,0 -8.834,4.165 -8.834,9.304l0,0.002c0,5.138 3.956,9.304 8.834,9.304l134.515,0c4.879,0 8.834,-4.166 8.834,-9.304l0,-0.002c0,-5.139 -3.955,-9.304 -8.834,-9.304" style="fill:#d4edfc;"/>
		<g id="Group-19">
			<path id="Fill-7" d="M63.097,15.776l-10.574,10.518l0,40.941l10.574,-10.424l0,-41.035Z" style="fill:#c569b9;"/>
			<path id="Fill-9" d="M99.66,0l-10.575,10.518l0,20.672l10.575,-10.425l0,-20.765Z" style="fill:#c569b9;"/>
			<path id="Fill-11" d="M81.378,9.466l-10.574,10.518l0,29.228l10.574,-10.424l0,-29.322Z" style="fill:#c569b9;"/>
			<path id="Fill-13" d="M52.983,73.354l9.654,0c0.253,0 0.46,-0.208 0.46,-0.463l0,-16.08l-10.574,10.424l0,5.656c0,0.255 0.207,0.463 0.46,0.463" style="fill:#ad53a1;"/>
			<path id="Fill-15" d="M89.546,73.354l9.654,0c0.253,0 0.46,-0.208 0.46,-0.463l0,-52.126l-10.574,10.425l0,41.701c0,0.255 0.207,0.463 0.46,0.463" style="fill:#ad53a1;"/>
			<path id="Fill-17" d="M71.264,73.354l9.654,0c0.253,0 0.46,-0.208 0.46,-0.463l0,-34.103l-10.573,10.424l0,23.679c0,0.255 0.207,0.463 0.459,0.463" style="fill:#ad53a1;"/>
		</g>
	</g>
</svg>