<?xml version="1.0" encoding="UTF-8" standalone="no"?><!DOCTYPE svg PUBLIC "-//W3C//DTD SVG 1.1//EN" "http://www.w3.org/Graphics/SVG/1.1/DTD/svg11.dtd"><svg width="100%" height="100%" viewBox="0 0 154 60" version="1.1" xmlns="http://www.w3.org/2000/svg" xmlns:xlink="http://www.w3.org/1999/xlink" xml:space="preserve" xmlns:serif="http://www.serif.com/" style="fill-rule:evenodd;clip-rule:evenodd;stroke-linejoin:round;stroke-miterlimit:1.41421;"><g id="Group-2"><path id="Clip-5" d="M27.42,0c-4.821,0 -8.728,3.656 -8.728,8.166l0,1.564c0,4.51 3.907,8.167 8.728,8.167l0.256,0c3.228,1.421 5.472,4.597 5.472,8.37l0,0.001c0,3.565 -2.005,6.759 -4.948,8.388l-19.313,0c-4.908,0 -8.887,4.172 -8.887,9.32l0,0.002c0,5.147 3.979,9.32 8.887,9.32l135.329,0c4.908,0 8.887,-4.173 8.887,-9.32l0,-0.002c0,-5.148 -3.979,-9.32 -8.887,-9.32l-26.901,0c-3.344,-1.495 -5.718,-4.923 -5.718,-8.761l0,-0.002c0,-3.562 2.046,-6.432 5.003,-7.996l6.176,0c4.82,0 8.729,-3.657 8.729,-8.167l0,-1.564c0,-4.51 -3.909,-8.166 -8.729,-8.166l-95.356,0Z" style="fill:#fcdfdf;"/><g id="Group"><path id="Fill-5" d="M114.569,55.634c0,1.978 -1.598,3.581 -3.567,3.581l-68.457,0c-1.97,0 -3.566,-1.603 -3.566,-3.581l0,-37.154c0,-1.978 1.596,-3.584 3.566,-3.584l68.457,0c1.969,0 3.567,1.606 3.567,3.584l0,37.154Z" style="fill:#004481;"/><path id="Fill-10" d="M114.569,53.959c0,1.979 -1.598,3.582 -3.567,3.582l-68.457,0c-1.97,0 -3.566,-1.603 -3.566,-3.582l0,-37.154c0,-1.978 1.596,-3.584 3.566,-3.584l68.457,0c1.969,0 3.567,1.606 3.567,3.584l0,37.154Z" style="fill:#2a86ca;"/><path id="Fill-101" serif:id="Fill-10" d="M114.569,53.959c0,1.979 -1.598,3.582 -3.567,3.582l-68.457,0c-1.97,0 -3.566,-1.603 -3.566,-3.582l0,-37.154c0,-1.978 1.596,-3.584 3.566,-3.584l68.457,0c1.969,0 3.567,1.606 3.567,3.584l0,37.154Z" style="fill:#2a86ca;"/><path id="Clip-13" d="M55.687,57.54c12.292,0 30.731,0 55.315,0c1.97,0 3.567,-1.602 3.567,-3.581l0,-37.155c0,-1.977 -1.597,-3.584 -3.567,-3.584c-4.948,0 -8.658,0 -11.132,0c-29.455,29.547 -44.183,44.32 -44.183,44.32Z" style="fill:#0977ba;"/><path id="Fill-15" d="M39.051,26.236l75.591,0l0,-7.593l-75.591,0l0,7.593Z" style="fill:#072146;"/><path id="Fill-17" d="M48.637,45.59l56.419,0l0,-5.255l-56.419,0l0,5.255Z" style="fill:#fff;"/></g><g id="Group-3"><path id="Fill-1" d="M122.374,14.152c0,4.694 -3.806,8.5 -8.5,8.5c-4.695,0 -8.5,-3.806 -8.5,-8.5c0,-4.695 3.805,-8.5 8.5,-8.5c4.694,0 8.5,3.805 8.5,8.5" style="fill:#da3851;"/><path id="Fill-4" d="M118.374,11.161l-1.509,-1.509l-2.991,2.991l-2.991,-2.991l-1.509,1.509l2.992,2.99l-2.992,2.992l1.509,1.509l2.991,-2.991l2.991,2.991l1.509,-1.509l-2.991,-2.992l2.991,-2.99Z" style="fill:#fff;"/></g></g></svg>