<?xml version="1.0" encoding="UTF-8"?>
<svg width="60px" height="40px" viewBox="0 0 60 40" version="1.1" xmlns="http://www.w3.org/2000/svg" xmlns:xlink="http://www.w3.org/1999/xlink">
    <!-- Generator: Sketch 51 (57462) - http://www.bohemiancoding.com/sketch -->
    <title>Avatars/account</title>
    <desc>Created with Sketch.</desc>
    <defs>
        <path d="M57.0081787,-1.58760644e-14 L19.0582524,40.0377442 L59.0082375,40.0009143 C59.5559728,40.0004093 60,39.5622071 60,38.9972053 L60,1.01739502 C60,0.359307942 59.4629517,-1.56795449e-14 58.9833984,-1.58760644e-14 C58.5038452,-1.61417581e-14 57.0081787,-1.58760644e-14 57.0081787,-1.58760644e-14 Z" id="path-1"></path>
    </defs>
    <g id="Avatars/account" stroke="none" stroke-width="1" fill="none" fill-rule="evenodd">
        <path d="M0,38.9912248 C0,39.548356 0.448458195,40 0.991352499,40 L59.0086475,40 C59.5561564,40 60,39.5507813 60,38.9912248 L60,1.00877516 C60,0.451644023 59.5515418,0 59.0086475,0 L0.991352499,0 C0.443843632,0 0,0.44921875 0,1.00877516 L0,38.9912248 Z" id="Fill-1" fill="#004481"></path>
        <polygon id="Fill-7" fill="#237ABA" points="6.9215534 32.4561952 53.3003883 32.4561952 53.3003883 27.9890426 6.9215534 27.9890426"></polygon>
        <polygon id="Fill-8" fill="#237ABA" points="31.9532039 24.1603917 53.2998058 24.1603917 53.2998058 19.693239 31.9532039 19.693239"></polygon>
        <g id="BBVA" transform="translate(7.000000, 6.000000)" fill="#FFFFFF">
            <path d="M22.6894251,0.811484461 C22.4863963,0.153336488 22.3714066,0 21.7754962,0 L20.3243498,0 L18,8 L19.1804415,8 L19.6757358,6.27228269 L22.4456708,6.27228269 L22.9451574,8 L25,8 L22.6894251,0.811484461 Z M20.0129192,5.09985802 L21.0484257,1.45196403 L22.1013005,5.09985802 L20.0129192,5.09985802 Z" id="Fill-29"></path>
            <path d="M11.3900773,3.13945605 L11.7652023,2.55798187 C12.5816874,1.33133622 12.0189998,0 10.4151236,0 L7,0 L7,8 L10.295653,8 C13.1951344,8 14.0716642,4.56286953 11.3900773,3.13945605 Z M8.84653137,6.92912889 L8.84653137,1.04627513 L9.85491206,1.04627513 C10.3383653,1.04627513 10.7599167,1.45557745 10.7599167,1.94371305 C10.7599167,2.11651557 10.7227756,2.27481277 10.5599738,2.52518723 L9.91000468,3.5241624 C10.5896867,3.69065826 11.0446651,4.22294048 11.0446651,5.22002365 C11.0446651,6.41891998 10.3383653,6.92912889 9.40488581,6.92912889 L8.84653137,6.92912889 Z" id="Fill-31"></path>
            <path d="M4.38581986,3.13945605 L4.77085585,2.55798187 C5.57683149,1.33133622 5.02280061,0 3.42199184,0 L0,0 L0,8 L3.3012812,8 C6.19647944,8 7.07178632,4.56286953 4.38581986,3.13945605 M2.40926054,6.92912889 L1.84718228,6.92912889 L1.84718228,1.04627513 L2.85619941,1.04627513 C3.34151808,1.04627513 3.7636958,1.45557745 3.7636958,1.94371305 C3.7636958,2.11651557 3.72593504,2.27481277 3.56374946,2.52518723 L2.91067396,3.5241624 C3.58851062,3.69065826 4.0484491,4.22294048 4.0484491,5.22002365 C4.0484491,6.41891998 3.34151808,6.92912889 2.40926054,6.92912889" id="Fill-33"></path>
            <path d="M14.3962025,1.04438313 C14.1107595,0.142530548 13.9658228,0 13.4164557,0 L12,0 L14.6227848,8 L16.5544304,8 L19,0 L17.7265823,0 L15.9202532,6.07394561 L14.3962025,1.04438313 Z" id="Fill-35"></path>
        </g>
        <mask id="mask-2" fill="white">
            <use xlink:href="#path-1"></use>
        </mask>
        <use id="Clip-10" fill="#FFFFFF" opacity="0.2" xlink:href="#path-1"></use>
    </g>
</svg>