<svg xmlns="http://www.w3.org/2000/svg" viewBox="0 0 60 42" style="padding: 6px 0 0 10px"><title>Avatar_Tarjeta</title><g style="isolation:isolate"><path d="M38.57,0H1.43A1.43,1.43,0,0,0,0,1.43V26.57A1.43,1.43,0,0,0,1.44,28H38.56A1.43,1.43,0,0,0,40,26.57V1.43A1.43,1.43,0,0,0,38.57,0Z" style="fill:#fff"/><path d="M38.57,0H1.43A1.43,1.43,0,0,0,0,1.43V26.57A1.43,1.43,0,0,0,1.44,28H38.56A1.43,1.43,0,0,0,40,26.57V1.43A1.43,1.43,0,0,0,38.57,0Z" style="fill:#666;opacity:0.6000000000000001"/><path d="M38.57,0H34L5.91,28H38.56A1.43,1.43,0,0,0,40,26.57V1.43A1.43,1.43,0,0,0,38.57,0Z" style="fill:#bdbdbd;opacity:0.4;mix-blend-mode:multiply"/><rect x="5" y="20.5" width="30" height="3" style="fill:#d3d3d3"/><rect y="3" width="40" height="3.99" style="fill:#d3d3d3"/></g></svg>