<?xml version="1.0" encoding="UTF-8"?>
<svg width="100px" height="60px" viewBox="0 0 100 60" version="1.1" xmlns="http://www.w3.org/2000/svg" xmlns:xlink="http://www.w3.org/1999/xlink">
    <!-- Generator: Sketch 48.2 (47327) - http://www.bohemiancoding.com/sketch -->
    <title>ill_bbva_card_oval_gray_background</title>
    <desc>Created with Sketch.</desc>
    <defs>
        <path d="M51.3392752,0 L0.371266675,0 C0.165859993,0 0,0.137372498 0,0.306818751 L0.0224294652,39.6413457 C0.0224294652,39.8107919 0.165859993,39.9197217 0.371266675,39.9197217 L20.6055956,39.9197217 L59.701334,39.9197217 C59.9067406,39.9197217 60,40.0958247 60,39.9263785 L60,0.306818751 C60,0.137372498 59.9067406,0 59.701334,0 L51.3392752,0 Z" id="path-1"></path>
        <path d="M39.4118447,0.430782228 L0.26038835,39.3575626 L41.3650485,39.3575626 C41.567767,39.3575626 41.6598058,39.5292854 41.6598058,39.3640538 L41.6598058,0.729969337 C41.6598058,0.564737797 41.567767,0.430782228 41.3650485,0.430782228 L39.4118447,0.430782228 Z" id="path-3"></path>
    </defs>
    <g id="Receipt/Module/Origin-Receipt-1-line" stroke="none" stroke-width="1" fill="none" fill-rule="evenodd" transform="translate(-130.000000, 0.000000)">
        <g id="Receipt/Resources/Account" transform="translate(130.000000, 0.000000)">
            <g id="Account">
                <rect id="bg" fill="#F4F4F4" x="0" y="0" width="100" height="60" rx="30"></rect>
                <g id="ill_bbva_card" transform="translate(20.000000, 10.000000)">
                    <g id="account-microillustration">
                        <g id="Group-3" transform="translate(0.000000, 0.118023)">
                            <mask id="mask-2" fill="white">
                                <use xlink:href="#path-1"></use>
                            </mask>
                            <g id="Clip-2"></g>
                            <polygon id="Fill-1" fill="#004481" mask="url(#mask-2)" points="-5.79669903 45.8175257 66.0174757 45.8175257 66.0174757 -5.95128598 -5.79669903 -5.95128598"></polygon>
                        </g>
                        <polygon id="Fill-7" fill="#237ABA" points="6.9215534 32.4561952 53.3003883 32.4561952 53.3003883 27.9890426 6.9215534 27.9890426"></polygon>
                        <polygon id="Fill-8" fill="#237ABA" points="31.9532039 24.1603917 53.2998058 24.1603917 53.2998058 19.693239 31.9532039 19.693239"></polygon>
                        <g id="Group-11" transform="translate(18.058252, 0.118023)">
                            <mask id="mask-4" fill="white">
                                <use xlink:href="#path-3"></use>
                            </mask>
                            <g id="Clip-10"></g>
                            <polygon id="Fill-9" fill="#FFFFFF" opacity="0.200000003" mask="url(#mask-4)" points="-6 40 41.698835 40 41.698835 0 -6 0"></polygon>
                        </g>
                    </g>
                    <g id="Group-37" transform="translate(7.000000, 6.000000)" fill="#FFFFFF">
                        <path d="M22.6894251,0.811484461 C22.4863963,0.153336488 22.3714066,0 21.7754962,0 L20.3243498,0 L18,8 L19.1804415,8 L19.6757358,6.27228269 L22.4456708,6.27228269 L22.9451574,8 L25,8 L22.6894251,0.811484461 Z M20.0129192,5.09985802 L21.0484257,1.45196403 L22.1013005,5.09985802 L20.0129192,5.09985802 Z" id="Fill-29"></path>
                        <path d="M11.3900773,3.13945605 L11.7652023,2.55798187 C12.5816874,1.33133622 12.0189998,0 10.4151236,0 L7,0 L7,8 L10.295653,8 C13.1951344,8 14.0716642,4.56286953 11.3900773,3.13945605 Z M8.84653137,6.92912889 L8.84653137,1.04627513 L9.85491206,1.04627513 C10.3383653,1.04627513 10.7599167,1.45557745 10.7599167,1.94371305 C10.7599167,2.11651557 10.7227756,2.27481277 10.5599738,2.52518723 L9.91000468,3.5241624 C10.5896867,3.69065826 11.0446651,4.22294048 11.0446651,5.22002365 C11.0446651,6.41891998 10.3383653,6.92912889 9.40488581,6.92912889 L8.84653137,6.92912889 Z" id="Fill-31"></path>
                        <path d="M4.38581986,3.13945605 L4.77085585,2.55798187 C5.57683149,1.33133622 5.02280061,0 3.42199184,0 L0,0 L0,8 L3.3012812,8 C6.19647944,8 7.07178632,4.56286953 4.38581986,3.13945605 M2.40926054,6.92912889 L1.84718228,6.92912889 L1.84718228,1.04627513 L2.85619941,1.04627513 C3.34151808,1.04627513 3.7636958,1.45557745 3.7636958,1.94371305 C3.7636958,2.11651557 3.72593504,2.27481277 3.56374946,2.52518723 L2.91067396,3.5241624 C3.58851062,3.69065826 4.0484491,4.22294048 4.0484491,5.22002365 C4.0484491,6.41891998 3.34151808,6.92912889 2.40926054,6.92912889" id="Fill-33"></path>
                        <path d="M14.3962025,1.04438313 C14.1107595,0.142530548 13.9658228,0 13.4164557,0 L12,0 L14.6227848,8 L16.5544304,8 L19,0 L17.7265823,0 L15.9202532,6.07394561 L14.3962025,1.04438313 Z" id="Fill-35"></path>
                    </g>
                </g>
            </g>
        </g>
    </g>
</svg>