<?xml version="1.0" encoding="UTF-8"?>
<svg width="60px" height="40px" viewBox="0 0 60 40" version="1.1" xmlns="http://www.w3.org/2000/svg" xmlns:xlink="http://www.w3.org/1999/xlink">
    <!-- Generator: Sketch 51 (57462) - http://www.bohemiancoding.com/sketch -->
    <title>Avatars/Pocket</title>
    <desc>Created with Sketch.</desc>
    <defs></defs>
    <g id="Avatars/Pocket" stroke="none" stroke-width="1" fill="none" fill-rule="evenodd">
        <path d="M44.0875,37.6904 C34.9425,40.7694 25.0565,40.7694 15.9125,37.6904 C11.1865,36.0994 8.0005,31.6314 8.0005,26.5984 L8.0005,2.6944 C8.0005,1.2064 9.1935,0.0004 10.6665,0.0004 L49.3335,0.0004 C50.8055,0.0004 52.0005,1.2064 52.0005,2.6944 L52.0005,26.5984 C52.0005,31.6314 48.8125,36.0994 44.0875,37.6904" id="Fill-1" fill="#49A5E6"></path>
        <path d="M26.3439,36.4697 C26.3249,36.4697 26.3059,36.4697 26.2879,36.4677 C23.7469,36.3277 21.2089,35.9347 18.7439,35.2987 C18.2099,35.1607 17.8869,34.6157 18.0259,34.0807 C18.1629,33.5467 18.7089,33.2247 19.2429,33.3627 C21.5809,33.9647 23.9889,34.3377 26.3979,34.4707 C26.9489,34.5017 27.3719,34.9737 27.3419,35.5257 C27.3119,36.0577 26.8709,36.4697 26.3439,36.4697 M11.4099,16.1677 L11.4099,8.7187 C11.4099,8.1667 11.8579,7.7187 12.4099,7.7187 C12.9629,7.7187 13.4099,8.1667 13.4099,8.7187 L13.4099,16.1677 C13.4099,16.7197 12.9629,17.1677 12.4099,17.1677 C11.8579,17.1677 11.4099,16.7197 11.4099,16.1677 M13.0229,30.5557 C11.9679,28.8697 11.4099,26.9297 11.4099,24.9437 L11.4099,22.8527 C11.4099,22.3007 11.8579,21.8527 12.4099,21.8527 C12.9629,21.8527 13.4099,22.3007 13.4099,22.8527 L13.4099,24.9437 C13.4099,26.5537 13.8629,28.1277 14.7179,29.4947 C15.0109,29.9627 14.8689,30.5797 14.4009,30.8727 C14.2359,30.9767 14.0519,31.0257 13.8709,31.0257 C13.5379,31.0257 13.2119,30.8587 13.0229,30.5557 M32.5689,35.5257 C32.5389,34.9737 32.9609,34.5017 33.5119,34.4707 C35.9219,34.3377 38.3289,33.9647 40.6669,33.3627 C41.2009,33.2247 41.7469,33.5467 41.8849,34.0807 C42.0229,34.6157 41.7009,35.1607 41.1659,35.2987 C38.7009,35.9347 36.1639,36.3277 33.6229,36.4677 C33.6039,36.4697 33.5849,36.4697 33.5669,36.4697 C33.0399,36.4697 32.5979,36.0577 32.5689,35.5257 M47.4999,17.1677 C46.9479,17.1677 46.4999,16.7197 46.4999,16.1677 L46.4999,8.7187 C46.4999,8.1667 46.9479,7.7187 47.4999,7.7187 C48.0519,7.7187 48.4999,8.1667 48.4999,8.7187 L48.4999,16.1677 C48.4999,16.7197 48.0519,17.1677 47.4999,17.1677 M46.0389,31.0257 C45.8579,31.0257 45.6749,30.9767 45.5099,30.8727 C45.0419,30.5797 44.8999,29.9627 45.1929,29.4947 C46.0479,28.1277 46.4999,26.5537 46.4999,24.9437 L46.4999,22.8527 C46.4999,22.3007 46.9479,21.8527 47.4999,21.8527 C48.0519,21.8527 48.4999,22.3007 48.4999,22.8527 L48.4999,24.9437 C48.4999,26.9297 47.9429,28.8697 46.8879,30.5557 C46.6979,30.8587 46.3719,31.0257 46.0389,31.0257" id="Fill-4" fill="#1464A5"></path>
        <path d="M10.672,0 L49.334,0 C50.806,0 52,1.225 52,2.735 L52,9.2 L30.104,17.955 L8,9.2 L8.006,2.732 C8.007,1.223 9.201,0 10.672,0" id="Fill-6" fill="#1464A5"></path>
        <path d="M31.3649,14.272 C31.3249,14.256 31.2819,14.249 31.2409,14.233 C31.0679,14.169 30.8939,14.108 30.7099,14.072 C30.4839,14.026 30.2509,14.002 30.0109,14.001 C30.0069,14.001 30.0039,14 29.9999,14 C28.0169,14 26.4099,15.607 26.4099,17.59 C26.4099,17.833 26.4349,18.071 26.4819,18.3 C26.5179,18.481 26.5779,18.651 26.6409,18.821 C26.6569,18.864 26.6639,18.912 26.6819,18.955 C27.2199,20.26 28.5019,21.18 29.9999,21.18 C31.9819,21.18 33.5899,19.573 33.5899,17.59 C33.5899,16.091 32.6699,14.81 31.3649,14.272" id="Fill-8" fill="#D4EDFC"></path>
    </g>
</svg>