<?xml version="1.0" encoding="utf-8"?>
<!-- Generator: Adobe Illustrator 24.1.2, SVG Export Plug-In . SVG Version: 6.00 Build 0)  -->
<svg version="1.1" id="Capa_1" xmlns="http://www.w3.org/2000/svg" xmlns:xlink="http://www.w3.org/1999/xlink" x="0px" y="0px"
	 viewBox="0 0 80 80" style="enable-background:new 0 0 80 80;" xml:space="preserve">
<style type="text/css">
	.st0{fill:none;}
	.st1{fill:url(#Shape_1_);}
	.st2{fill:#F8CD50;}
	.st3{fill:url(#Path_15_);}
	.st4{fill:#2DCCCD;}
	.st5{fill:url(#Path_16_);}
	.st6{fill:#D4EDFC;}
	.st7{fill:#D4BF7E;}
</style>
<desc>Created with Sketch.</desc>
<g id="Symbols">
	<g id="Artboard-Copy" transform="translate(-9.000000, -3.000000)">
		<g id="World_x2F_cactus">
			<g id="Cactus">
				<g id="Cuadrados_Blancos">
					<rect id="Rectangle" x="9" y="3" class="st0" width="80" height="80"/>
				</g>
				<g id="Capa_1_1_" transform="translate(9.733333, 3.733333)">
					
						<linearGradient id="Shape_1_" gradientUnits="userSpaceOnUse" x1="0.7455" y1="79.7846" x2="1.1859" y2="78.7389" gradientTransform="matrix(54.9448 0 0 -69.3507 -7.956 5539.2852)">
						<stop  offset="0" style="stop-color:#192647;stop-opacity:0.5"/>
						<stop  offset="1" style="stop-color:#192647;stop-opacity:0"/>
					</linearGradient>
					<path id="Shape" class="st1" d="M69.1,32.4h-1.9v-6.9c0-2.1-1.7-3.7-3.7-3.7c-2,0-3.7,1.7-3.7,3.7v1.1h-1.5
						c-0.3,0-0.5,0.3-0.5,0.6c0,0.3,0.2,0.5,0.5,0.5h1.5v6.7h-5.6V20.1c0-1.8-0.7-3.6-1.9-5l1.3-1.3c0.2-0.2,0.2-0.6,0-0.8
						c-0.2-0.2-0.6-0.2-0.8,0l-1.3,1.3c-2.9-2.5-7.2-2.5-10,0.1c-1.1-1.1-2.3-2-3.7-2.7l0,0c-0.1-0.1-0.3-0.2-0.4-0.2l-0.3-0.1
						l-0.3-0.1c-0.1-0.1-0.3-0.1-0.4-0.2c-0.1,0-0.2-0.1-0.3-0.1c-0.1,0-0.2-0.1-0.3-0.1c-0.2-0.1-0.3-0.1-0.5-0.2
						c-0.1,0-0.2,0-0.2-0.1c-0.1,0-0.3-0.1-0.4-0.1l-0.2-0.1c-0.2-0.1-0.4-0.1-0.6-0.1l-0.2,0c-0.2,0-0.4-0.1-0.6-0.1l-0.1,0
						c-0.2,0-0.4-0.1-0.6-0.1c0,0-0.1,0-0.1,0c-0.2,0-0.5,0-0.7-0.1h-0.1c-0.2,0-0.5,0-0.7,0c-8.7,0-15.8,7.1-15.8,15.8
						c0,0.2,0,0.5,0,0.7l0,0.2c0,0.2,0,0.4,0,0.6c0,0,0,0.1,0,0.1c0,0.2,0.1,0.5,0.1,0.7c0,0.1,0,0.1,0,0.2c0,0.2,0.1,0.4,0.1,0.6
						c0,0,0,0.1,0,0.1c0,0.2,0.1,0.4,0.2,0.7l0,0.2c0,0.2,0.1,0.4,0.2,0.5c0,0.1,0,0.1,0,0.2c0.1,0.2,0.1,0.4,0.2,0.6
						c0,0,0,0.1,0,0.1c0.1,0.2,0.1,0.3,0.2,0.5l0.1,0.2c0.1,0.2,0.2,0.4,0.3,0.6c0,0,0,0.1,0,0.1c0.1,0.2,0.2,0.3,0.3,0.5l0.1,0.2
						c0.1,0.2,0.2,0.4,0.3,0.5c0,0,0,0,0,0.1c0.1,0.2,0.2,0.4,0.4,0.6c0,0.1,0.1,0.1,0.1,0.2c0.1,0.1,0.2,0.3,0.3,0.4l0.1,0.1
						c0.1,0.2,0.3,0.3,0.4,0.5l0.1,0.2c0.1,0.1,0.2,0.3,0.3,0.4l0.1,0.1c0.1,0.2,0.3,0.3,0.4,0.5l0.1,0.1c0.1,0.1,0.2,0.2,0.4,0.3
						c0.1,0,0.1,0.1,0.2,0.1c0.2,0.1,0.3,0.3,0.5,0.4c0,0,0.1,0.1,0.1,0.1c0.1,0.1,0.3,0.2,0.4,0.3l0.2,0.1c0.2,0.1,0.3,0.2,0.5,0.4
						l0.1,0.1c0.1,0.1,0.3,0.2,0.4,0.3l0.2,0.1c0.2,0.1,0.3,0.2,0.5,0.3c1,0.6,2.1,1,3.2,1.3v12.5c0,2,1.7,3.7,3.7,3.7h3.2v1.9
						c0,0.3,0.3,0.5,0.6,0.5c0.3,0,0.5-0.2,0.5-0.5v-1.8h5v17.4h-2.5c-1.9,0-3.7,0.6-4.8,1.7l-2.4,2.3c-0.2,0.2-0.2,0.5,0,0.6
						c0.1,0.1,0.2,0.1,0.3,0.1h34.2c0.3,0,0.5-0.2,0.5-0.5c0-0.1,0-0.2-0.1-0.3l-2.4-2.3c-1.1-1.1-2.9-1.7-4.8-1.7h-2.8v-6.2h0.4
						c0.3,0,0.6-0.2,0.6-0.6s-0.2-0.6-0.6-0.6l0,0h-0.4V46.9h1.9c0.3,0,0.6-0.2,0.6-0.6c0-0.3-0.2-0.6-0.6-0.6h-1.9v-3.9h9.3
						c2.1,0,3.7-1.7,3.7-3.7v-4.6h1.9c0.3,0,0.5-0.3,0.5-0.6C69.6,32.6,69.4,32.4,69.1,32.4z M33.5,49.7v-8.5c2-0.4,3.9-1.1,5.6-2.2
						v1.8h-0.4c-0.3,0-0.5,0.3-0.5,0.6c0,0.3,0.2,0.5,0.5,0.5H39v7.8L33.5,49.7z"/>
					<circle id="Oval" class="st2" cx="24.9" cy="18.8" r="15.8"/>
					
						<linearGradient id="Path_15_" gradientUnits="userSpaceOnUse" x1="0.9386" y1="79.5318" x2="1.3167" y2="79.048" gradientTransform="matrix(23.1947 0 0 -29.6733 -5.0573 2367.4883)">
						<stop  offset="0" style="stop-color:#FFFFFF;stop-opacity:0.4"/>
						<stop  offset="1" style="stop-color:#EBF7F8;stop-opacity:0.1"/>
					</linearGradient>
					<path id="Path" class="st3" d="M24.9,3C16.2,3,9.1,10.1,9.1,18.8c0,5.8,3.2,11.1,8.3,13.9L32.3,4.9C30,3.7,27.5,3,24.9,3z"/>
					<path id="Path_1_" class="st4" d="M58,14.9c-2.1,0-3.7,1.7-3.7,3.7v8.9h-5.6V13.3c0-4.2-3.4-7.6-7.6-7.6c0,0,0,0,0,0l0,0
						c-4.2,0-7.6,3.4-7.6,7.6v0v29.5h-5.6V26.5c0-2.1-1.7-3.7-3.7-3.7l0,0c-2.1,0-3.7,1.7-3.7,3.7v20.1c0,2.1,1.7,3.7,3.7,3.7h0.7
						l0,0h8.5v17.5h15.2V35H58c2.1,0,3.7-1.7,3.7-3.7V18.7C61.7,16.6,60,14.9,58,14.9C58,14.9,58,14.9,58,14.9z"/>
					
						<linearGradient id="Path_16_" gradientUnits="userSpaceOnUse" x1="1.5501" y1="79.2192" x2="0.5501" y2="79.2192" gradientTransform="matrix(28.2213 0 0 -52.7213 17.9383 4217.8501)">
						<stop  offset="0" style="stop-color:#028484;stop-opacity:0.7"/>
						<stop  offset="1" style="stop-color:#028484;stop-opacity:0.1"/>
					</linearGradient>
					<path id="Path_2_" class="st5" d="M58,14.9c-2.1,0-3.7,1.7-3.7,3.7v8.9h-5.6v-3.2L33.5,53v14.6h15.2V35H58
						c2.1,0,3.7-1.7,3.7-3.7V18.7C61.7,16.6,60,14.9,58,14.9z"/>
					<path id="Path_3_" class="st6" d="M52.8,19.8h2.6c0.3,0,0.6,0.2,0.6,0.6l0,0c0,0.3-0.2,0.6-0.6,0.6h-2.6
						c-0.3,0-0.6-0.2-0.6-0.6l0,0C52.2,20,52.5,19.8,52.8,19.8z"/>
					<path id="Path_4_" class="st6" d="M60.9,25.5h2.6c0.3,0,0.6,0.2,0.6,0.6l0,0c0,0.3-0.2,0.6-0.6,0.6h-2.6
						c-0.3,0-0.6-0.2-0.6-0.6l0,0C60.4,25.8,60.6,25.5,60.9,25.5z"/>
					<path id="Path_5_" class="st6" d="M32.2,14.4h2.6c0.3,0,0.6,0.2,0.6,0.6l0,0c0,0.3-0.2,0.6-0.6,0.6h-2.6
						c-0.3,0-0.6-0.2-0.6-0.6l0,0C31.6,14.6,31.9,14.4,32.2,14.4z"/>
					<path id="Path_6_" class="st6" d="M27.3,52.1v-2.6c0-0.3,0.2-0.6,0.6-0.6l0,0c0.3,0,0.6,0.2,0.6,0.6v2.6c0,0.3-0.2,0.6-0.6,0.6
						l0,0C27.6,52.6,27.3,52.4,27.3,52.1z"/>
					<path id="Path_7_" class="st6" d="M42.7,23.5v-2.6c0-0.3,0.2-0.6,0.6-0.6l0,0c0.3,0,0.6,0.2,0.6,0.6v2.6c0,0.3-0.2,0.6-0.6,0.6
						l0,0C43,24,42.7,23.8,42.7,23.5z"/>
					<path id="Path_8_" class="st6" d="M38.1,55.8v-2.6c0-0.3,0.2-0.6,0.6-0.6l0,0c0.3,0,0.6,0.2,0.6,0.6v2.6c0,0.3-0.2,0.6-0.6,0.6
						l0,0C38.4,56.4,38.1,56.1,38.1,55.8z"/>
					<path id="Path_9_" class="st6" d="M47.9,38.9h2.6c0.3,0,0.6,0.2,0.6,0.6l0,0c0,0.3-0.2,0.6-0.6,0.6h-2.6
						c-0.3,0-0.6-0.2-0.6-0.6l0,0C47.4,39.1,47.6,38.9,47.9,38.9z"/>
					<path id="Path_10_" class="st6" d="M45.5,8l1.8-1.8c0.2-0.2,0.6-0.2,0.8,0l0,0c0.2,0.2,0.2,0.6,0,0.8l-1.8,1.8
						c-0.2,0.2-0.6,0.2-0.8,0l0,0C45.3,8.6,45.3,8.3,45.5,8z"/>
					<path id="Path_11_" class="st6" d="M20.7,22.1l1.8,1.8c0.2,0.2,0.2,0.6,0,0.8l0,0c-0.2,0.2-0.6,0.2-0.8,0l-1.8-1.8
						c-0.2-0.2-0.2-0.6,0-0.8l0,0C20.1,21.9,20.5,21.9,20.7,22.1z"/>
					<path id="Path_12_" class="st6" d="M33.1,33.9h2.6c0.3,0,0.6,0.2,0.6,0.6l0,0c0,0.3-0.2,0.6-0.6,0.6h-2.6
						c-0.3,0-0.6-0.2-0.6-0.6l0,0C32.5,34.1,32.8,33.9,33.1,33.9z"/>
					<path id="Path_13_" class="st6" d="M46.5,60.2h2.6c0.3,0,0.6,0.2,0.6,0.6l0,0c0,0.3-0.2,0.6-0.6,0.6h-2.6
						c-0.3,0-0.6-0.2-0.6-0.6l0,0C45.9,60.5,46.2,60.2,46.5,60.2z"/>
					<path id="Path_14_" class="st7" d="M58.4,72.4H24.2c-0.3,0-0.5-0.2-0.5-0.5c0-0.1,0-0.2,0.1-0.3l2.4-2.3
						c1.1-1.1,2.9-1.7,4.8-1.7h20.5c1.9,0,3.7,0.6,4.8,1.7l2.4,2.3c0.2,0.2,0.2,0.5,0,0.6C58.6,72.3,58.5,72.4,58.4,72.4z"/>
				</g>
			</g>
		</g>
	</g>
</g>
</svg>
