<?xml version="1.0" encoding="utf-8"?>
<!-- Generator: Adobe Illustrator 24.1.2, SVG Export Plug-In . SVG Version: 6.00 Build 0)  -->
<svg version="1.1" id="Capa_1" xmlns="http://www.w3.org/2000/svg" xmlns:xlink="http://www.w3.org/1999/xlink" x="0px" y="0px"
	 viewBox="0 0 80 80" style="enable-background:new 0 0 80 80;" xml:space="preserve">
<style type="text/css">
	.st0{fill:none;}
	.st1{fill:url(#Path_5_);}
	.st2{fill:#2DCCCD;}
	.st3{fill:url(#Path_6_);}
	.st4{opacity:0.8;fill:#028484;enable-background:new    ;}
	.st5{fill:#FFFFFF;}
	.st6{fill:#1464A5;}
	.st7{fill:url(#SVGID_1_);}
</style>
<desc>Created with Sketch.</desc>
<g id="Artboard-Copy-6">
	<g id="Products-and-Services_x2F_Card-Health">
		<g id="Card-Health">
			<g id="Cuadrados_Blancos">
				<rect id="Rectangle" class="st0" width="80" height="80"/>
			</g>
			<g id="Capa_21" transform="translate(9.333333, 20.666667)">
				<g id="Group">
					
						<linearGradient id="Path_5_" gradientUnits="userSpaceOnUse" x1="-9.0565" y1="59.1715" x2="-8.6096" y2="58.5866" gradientTransform="matrix(65.0613 0 0 -45.275 612.8444 2692.3301)">
						<stop  offset="0" style="stop-color:#192647;stop-opacity:0.5"/>
						<stop  offset="1" style="stop-color:#192647;stop-opacity:0"/>
					</linearGradient>
					<path id="Path" class="st1" d="M70.7,32.5c0-2.6-0.9-5-2.5-6.8c-0.1-0.1-0.2-0.2-0.3-0.3c-0.1-0.1-0.2-0.2-0.3-0.3c0,0,0,0,0,0
						c-0.1-0.1-0.2-0.2-0.3-0.2c0,0,0,0,0,0c-0.1-0.1-0.2-0.2-0.3-0.2c0,0,0,0,0,0c-0.7-0.5-1.5-0.9-2.3-1.2v-6.5v-5.8V9.8
						c0-2.1-1.7-3.8-3.8-3.8H44.4h-35C7.3,6,5.6,7.7,5.6,9.8v1.3v5.8v20.9c0,2.1,1.7,3.8,3.8,3.8h16.1h17.6c1.8,1.9,4.1,3.9,6.8,6.2
						c1.1,0.9,2.3,2,3.6,3.1c0.7,0.6,1.8,0.6,2.5,0c1.3-1.1,2.5-2.2,3.6-3.1c3.2-2.7,6-5.1,7.9-7.4c0.8-1,1.5-2,2-2.9
						C70.3,35.7,70.7,34.1,70.7,32.5z"/>
					<path id="Path_1_" class="st2" d="M3.9,0.1h51.4c2.1,0,3.8,1.7,3.8,3.8v28c0,2.1-1.7,3.8-3.8,3.8H3.9c-2.1,0-3.8-1.7-3.8-3.8
						v-28C0.1,1.8,1.8,0.1,3.9,0.1z"/>
					
						<linearGradient id="Path_6_" gradientUnits="userSpaceOnUse" x1="-8.3333" y1="58.8333" x2="-9.3333" y2="58.8333" gradientTransform="matrix(39.0693 0 0 -35.5267 384.6364 2108.0342)">
						<stop  offset="0" style="stop-color:#028484"/>
						<stop  offset="1" style="stop-color:#028484;stop-opacity:0"/>
					</linearGradient>
					<path id="Path_2_" class="st3" d="M55.3,35.6c2.1,0,3.8-1.7,3.8-3.8v-28c0-2.1-1.7-3.8-3.8-3.8H38.9L20,35.6H55.3z"/>
					<rect id="Rectangle_1_" x="0.1" y="5.2" class="st4" width="58.9" height="5.8"/>
					<path id="Path_3_" class="st5" d="M9.3,22.1h40.6c0.3,0,0.5,0.2,0.5,0.5v4.2c0,0.3-0.2,0.5-0.5,0.5H9.3c-0.3,0-0.5-0.2-0.5-0.5
						v-4.2C8.8,22.3,9,22.1,9.3,22.1z"/>
					<g id="Path_4_" transform="translate(33.200000, 16.933333)">
						<path class="st6" d="M29.4,2.8c-1.6-1.8-4-2.8-6.4-2.8c-1.8,0-3.6,0.6-5,1.7c-0.8,0.6-1.5,1.3-2,2.1c-0.6-0.8-1.2-1.5-2-2.1
							C12.6,0.7,10.8,0,9,0.1C6.6,0,4.3,1,2.6,2.8C1,4.6,0.1,7,0.1,9.7c0,2.7,1,5.2,3.2,7.8c1.9,2.3,4.7,4.7,7.9,7.4
							c1.1,0.9,2.3,2,3.6,3.1c0.7,0.6,1.8,0.6,2.5,0c1.3-1.1,2.5-2.2,3.6-3.1c3.2-2.7,6-5.1,7.9-7.4C31,14.8,32,12.4,32,9.7
							C31.9,7,31.1,4.6,29.4,2.8z"/>
						
							<linearGradient id="SVGID_1_" gradientUnits="userSpaceOnUse" x1="-41.5346" y1="41.9" x2="-42.5346" y2="41.9" gradientTransform="matrix(21.5133 0 0 -28.347 925.5031 1201.9941)">
							<stop  offset="0" style="stop-color:#043263"/>
							<stop  offset="1" style="stop-color:#043263;stop-opacity:0"/>
						</linearGradient>
						<path class="st7" d="M29.4,2.8c-1.5-1.7-3.6-2.6-5.9-2.8L10.5,24.2l0.7,0.6c1.1,0.9,2.3,2,3.6,3.1c0.7,0.6,1.8,0.6,2.5,0
							c1.3-1.1,2.5-2.2,3.6-3.1c3.2-2.7,6-5.1,7.9-7.4C31,14.8,32,12.3,32,9.6C31.9,7,31.1,4.6,29.4,2.8z"/>
					</g>
				</g>
			</g>
		</g>
	</g>
</g>
</svg>
