<?xml version="1.0" encoding="utf-8"?>
<!-- Generator: Adobe Illustrator 24.1.2, SVG Export Plug-In . SVG Version: 6.00 Build 0)  -->
<svg version="1.1" id="Capa_1" xmlns="http://www.w3.org/2000/svg" xmlns:xlink="http://www.w3.org/1999/xlink" x="0px" y="0px"
	 viewBox="0 0 80 80" style="enable-background:new 0 0 80 80;" xml:space="preserve">
<style type="text/css">
	.st0{fill:none;}
	.st1{fill:url(#Path_20_);}
	.st2{fill:#1464A5;}
	.st3{fill:#2DCCCD;}
	.st4{opacity:0.5;fill:url(#Path_21_);enable-background:new    ;}
	.st5{fill:#02A5A5;}
	.st6{fill:#F7B27F;}
	.st7{fill:#072146;}
	.st8{fill:#EB5E62;}
	.st9{fill:#004481;}
</style>
<desc>Created with Sketch.</desc>
<g id="Artboard">
	<g id="Team-Collaboration_x2F_Customer-Comes-First">
		<g id="Values-Customer-Comes-First">
			<g id="Cuadrados_Blancos">
				<rect id="Rectangle" class="st0" width="80" height="80"/>
			</g>
			<g id="Capa_4" transform="translate(10.133333, 6.800000)">
				
					<linearGradient id="Path_20_" gradientUnits="userSpaceOnUse" x1="-9.867" y1="73.1429" x2="-9.3996" y2="72.2571" gradientTransform="matrix(64.8 0 0 -65.3333 661.7071 4789.8667)">
					<stop  offset="0" style="stop-color:#192647;stop-opacity:0.5"/>
					<stop  offset="1" style="stop-color:#192647;stop-opacity:0"/>
				</linearGradient>
				<path id="Path" class="st1" d="M65,23.9C59.5,14.1,49.1,7.5,37.1,7.5c-17.6,0-32,14.3-32,32c0,6,1.7,11.9,4.9,16.9
					c5.5,9.8,15.9,16.4,27.9,16.4c17.6,0,32-14.3,32-32C69.9,34.8,68.2,29,65,23.9z"/>
				<path id="Path_1_" class="st2" d="M60.9,30.4c0,16.8-13.6,30.4-30.4,30.4S0.1,47.2,0.1,30.4S13.7,0,30.5,0S60.9,13.6,60.9,30.4"
					/>
				<path id="Path_2_" class="st3" d="M60.4,24.6C53.5,15,42.4,9.2,30.5,9.2c-11.9,0-23,5.7-29.9,15.4c-0.4,1.9-0.5,3.8-0.5,5.7
					c0,16.8,13.6,30.4,30.4,30.4s30.4-13.6,30.4-30.4C60.9,28.4,60.8,26.5,60.4,24.6z"/>
				<path id="Path_3_" class="st0" d="M60.9,30.4c0,16.8-13.6,30.4-30.4,30.4S0.1,47.2,0.1,30.4S13.7,0,30.5,0S60.9,13.6,60.9,30.4"
					/>
				
					<linearGradient id="Path_21_" gradientUnits="userSpaceOnUse" x1="-9.8626" y1="73.1014" x2="-9.3565" y2="72.4737" gradientTransform="matrix(45.6 0 0 -56.6667 462.08 4148.0024)">
					<stop  offset="0" style="stop-color:#FFFFFF;stop-opacity:0.5"/>
					<stop  offset="1" style="stop-color:#EDF8F9;stop-opacity:0.2"/>
					<stop  offset="1" style="stop-color:#FFFFFF;stop-opacity:0"/>
				</linearGradient>
				<path id="Path_4_" class="st4" d="M30.4,0C13.6,0,0,13.6,0,30.4c0,10.8,5.8,20.9,15.2,26.3L45.6,4C41,1.4,35.8,0,30.4,0z"/>
				<path id="Path_5_" class="st0" d="M60.9,30.4c0,16.8-13.6,30.4-30.4,30.4S0.1,47.2,0.1,30.4S13.7,0,30.5,0S60.9,13.6,60.9,30.4"
					/>
				<path id="Path_6_" class="st5" d="M30.5,60.8c5.5,0,10.9-1.5,15.7-4.3L34.7,9.7c0-0.2-0.2-0.3-0.4-0.3c-2.6-0.3-5.2-0.3-7.7,0
					c-0.2,0-0.3,0.2-0.4,0.3L14.8,56.5C19.5,59.3,24.9,60.8,30.5,60.8L30.5,60.8z"/>
				<circle id="Oval" class="st0" cx="30.5" cy="30.4" r="30.4"/>
				<path id="Path_7_" class="st0" d="M53.6,10.7C47.8,3.9,39.3,0,30.4,0C39.3,0,47.8,3.9,53.6,10.7L53.6,10.7z"/>
				<path id="Path_8_" class="st0" d="M53.3,50.4c3.3-3.8,5.7-8.3,6.8-13.2C59,42.1,56.7,46.6,53.3,50.4L53.3,50.4z"/>
				<path id="Path_9_" class="st0" d="M0.1,30.4C0.1,13.6,13.7,0,30.5,0C13.7,0,0.1,13.6,0.1,30.4c0,7.4,2.7,14.6,7.7,20.2v0
					C2.9,45,0.1,37.8,0.1,30.4L0.1,30.4z"/>
				<path id="Path_10_" class="st6" d="M45,34.7L45,34.7C45,34.7,45,34.7,45,34.7L45,34.7z"/>
				<path id="Path_11_" class="st7" d="M43.6,19.5h-3.5c-1,0-1.9,0.4-2.5,1.1c-0.7,0.7-1.1,1.6-1.1,2.6v4.6c0,3,2.4,5.4,5.3,5.4
					c2.9,0,5.3-2.4,5.3-5.4v-4.6c0-1-0.4-1.9-1.1-2.6C45.5,19.8,44.6,19.5,43.6,19.5L43.6,19.5z"/>
				<path id="Path_12_" class="st8" d="M30.5,60.8L30.5,60.8c8.7,0,17-3.8,22.8-10.4v0C47.6,57,39.3,60.8,30.5,60.8L30.5,60.8z"/>
				<path id="Path_13_" class="st8" d="M44.9,34.8L44.9,34.8c0,0.6-1.4,1-3,1c-1.7,0-3-0.4-3-1h0c-4.2,0.1-7.8,3.3-8.3,7.5
					c1.8,3.8,4.7,3.7,8.4,3.6c0.4,0,1.3,0,1.4,0c0.3,0,0.5,0.2,0.6,0.4c0.9-0.6,2.1-1.3,2.6-1.2c0.9,0.1-0.7,1.8,0.4,2
					c1.1,0.2,4-0.1,4,0.8c0,0.9-0.9,2.4-2.1,3.1c-1,0.5-2.5,0.8-4.8,0.4c-0.2,0.4-0.4,0.6-0.7,0.6c0,0-0.8,0.1-1.2,0.1
					c-0.5,0-1,0-1.6,0c-2,0-4.5-0.2-6.9-1.3v10.1c8.7,0,17-3.8,22.7-10.4v-7C53.3,38.8,49.6,35,44.9,34.8z"/>
				<path id="Path_14_" class="st6" d="M41.9,33c-1.1,0-2.2-0.3-3.1-1v2.7l0,0c0,0.6,1.4,1,3.1,1c1.7,0,3.1-0.5,3.1-1c0,0,0,0,0,0
					V32C44,32.6,43,33,41.9,33z"/>
				<path id="Path_15_" class="st6" d="M45.9,51c1.2-0.6,2.1-2.1,2.1-3.1c0-0.9-2.9-0.6-4-0.8s0.5-1.9-0.4-2
					c-0.5-0.1-1.7,0.6-2.6,1.3c0.3,0.5,0.5,1.5,0.5,2.6c0,1-0.1,1.9-0.4,2.5C43.3,51.8,44.8,51.5,45.9,51z"/>
				<path id="Path_16_" class="st6" d="M16.2,34.7L16.2,34.7L16.2,34.7C16.2,34.7,16.2,34.7,16.2,34.7z"/>
				<path id="Path_17_" class="st7" d="M20.9,19.5h-3.5c-1,0-1.9,0.4-2.5,1.1c-0.7,0.7-1.1,1.6-1.1,2.6v4.6c0,3,2.4,5.4,5.3,5.4
					s5.3-2.4,5.3-5.4v-4.6C24.5,21.1,22.9,19.5,20.9,19.5L20.9,19.5z"/>
				<path id="Path_18_" class="st9" d="M41,46.3c-0.1-0.2-0.4-0.4-0.6-0.4c-0.1,0-1,0-1.4,0c-3.7,0.1-6.6,0.2-8.4-3.6c0,0,0,0,0,0
					c-0.6-4.2-4.1-7.4-8.3-7.5h0c0,0.6-1.4,1-3,1c-1.7,0-3-0.4-3-1h0c-4.7,0.2-8.4,4-8.4,8.7v7.1c5.8,6.5,14.1,10.2,22.8,10.2
					c0,0,0.1,0,0.1,0V50.7c2.4,1.1,4.9,1.3,6.9,1.3c0.6,0,1.1,0,1.6,0c0.4,0,1.2-0.1,1.2-0.1c0.3,0,0.6-0.2,0.7-0.6
					c0.3-0.5,0.4-1.4,0.4-2.4C41.5,47.8,41.3,46.8,41,46.3z"/>
				<path id="Path_19_" class="st6" d="M19.2,33c-1.1,0-2.2-0.3-3.1-1v2.7c0,0,0,0,0,0c0,0.6,1.4,1,3.1,1c1.7,0,3.1-0.5,3.1-1l0,0
					V32C21.4,32.6,20.3,33,19.2,33L19.2,33z"/>
			</g>
		</g>
	</g>
</g>
</svg>
