<?xml version="1.0" encoding="utf-8"?>
<!-- Generator: Adobe Illustrator 24.1.2, SVG Export Plug-In . SVG Version: 6.00 Build 0)  -->
<svg version="1.1" id="Capa_1" xmlns="http://www.w3.org/2000/svg" xmlns:xlink="http://www.w3.org/1999/xlink" x="0px" y="0px"
	 viewBox="0 0 80 80" style="enable-background:new 0 0 80 80;" xml:space="preserve">
<style type="text/css">
	.st0{fill:none;}
	.st1{fill:url(#Path_7_);}
	.st2{fill:#F1873E;}
	.st3{fill:#F7B27F;}
	.st4{fill:url(#Oval_2_);}
	.st5{fill:#2DCCCD;}
	.st6{fill:#02A5A5;}
	.st7{fill:#5AC4C4;}
	.st8{fill:#EAF9FA;}
	.st9{fill:url(#SVGID_1_);}
	.st10{opacity:0.71;fill:#028484;enable-background:new    ;}
</style>
<desc>Created with Sketch.</desc>
<g id="Symbols">
	<g id="Artboard-Copy-4" transform="translate(-5.000000, -15.000000)">
		<g id="Actions_x2F_Extraordinary-Contribution-Dollar">
			<g id="Extraordinary-Contribution-Dollar">
				<g id="Cuadrados_Blancos">
					<rect id="Rectangle" x="5" y="15" class="st0" width="80" height="80"/>
				</g>
				<g id="Capa_26" transform="translate(5.066667, 15.866667)">
					<g id="Group">
						
							<linearGradient id="Path_7_" gradientUnits="userSpaceOnUse" x1="0.898" y1="79.533" x2="1.1432" y2="79.2318" gradientTransform="matrix(71.3151 0 0 -46.5799 -26.7852 3740.0627)">
							<stop  offset="0" style="stop-color:#192647;stop-opacity:0.5"/>
							<stop  offset="1" style="stop-color:#192647;stop-opacity:0"/>
						</linearGradient>
						<path id="Path" class="st1" d="M79.9,40.1l-1.6-18.3c0-0.2-0.2-0.4-0.5-0.4l-2,0.2l-14.5,1.2l0,0.1L35,25.2
							c-0.2,0-0.4,0.2-0.4,0.5l0.1,0.8l-2,0c-0.2,0-0.4,0.2-0.4,0.4l0,1.1c-2.4,0.7-5,1.7-7.5,2.8c-1.8,0.9-3.9,2.4-5.8,5.3
							s-1.8,12.3-3.2,13.9L15,50.9c-0.9-0.4-1.9-0.2-2.6,0.5l-3.1,3.1c-0.9,0.9-0.9,2.4,0,3.3c0.1,0.1,0.2,0.2,0.3,0.3
							c1.7,1.2,3.4,2.6,4.9,4.1c1.5,1.5,2.9,3.1,4.1,4.9c0.7,1.1,2.2,1.3,3.2,0.6c0.1-0.1,0.2-0.2,0.3-0.3l3.1-3.1
							c0.8-0.8,0.9-2,0.3-2.9c0,0,0,0,0,0l1.4-1.7c0.8-1,4.4-1.9,7.1-4.4c1.6-1.6,2.6-3.9,3.1-5.4c0,0,0-0.1,0.1-0.1
							c0.3-0.8,1.7-2.4,3.2-4l3.4,0l0.9,0.1c0.3,0,0.6,0,0.8-0.1l30.1,0c0.2,0,0.4-0.2,0.4-0.4l0-4.3l3.4-0.3c0.1,0,0.2-0.1,0.3-0.1
							C79.9,40.4,79.9,40.3,79.9,40.1z"/>
						<path id="Path_1_" class="st2" d="M29.6,27.6c0.1,0,6.5-2.7,10.4-4.4c1.6-0.7,3.4,0,4.1,1.6l0,0c0.7,1.6,0,3.5-1.5,4.2
							c-0.1,0-0.2,0.1-0.2,0.1c-3.6,1.3-8.9,3.3-9.9,4.4c-1.5,1.7-3.1,4-4.6,4.4C26.4,38.5,29.6,27.6,29.6,27.6z"/>
						<path id="Path_2_" class="st3" d="M25.4,31.7l3.7,6.6l12.1,1.1c0.9,0.1,1.8-0.4,2.3-1.2l0,0c0.6-1.1,0.2-2.5-1-3.1
							c-0.2-0.1-0.4-0.2-0.6-0.2L25.4,31.7z"/>
						<path id="Path_3_" class="st3" d="M11.1,44.8l1-1.2c1.4-1.7,1.2-11,3.2-13.9s4-4.4,5.8-5.3c7-3.2,15.2-4.8,15.2-4.8l-5.2,15.8
							l3,6.5c0,0-0.9,4.3-3.5,6.9c-2.7,2.6-6.3,3.5-7.1,4.4l-1.6,1.9L11.1,44.8z"/>
						
							<linearGradient id="Oval_2_" gradientUnits="userSpaceOnUse" x1="1.3638" y1="78.1522" x2="1.7363" y2="77.265" gradientTransform="matrix(7.2 0 0 -7.2 16.048 594.528)">
							<stop  offset="0" style="stop-color:#AD8565"/>
							<stop  offset="1" style="stop-color:#AD8565;stop-opacity:0"/>
						</linearGradient>
						<circle id="Oval" class="st4" cx="27.3" cy="35.2" r="3.6"/>
						<path id="Path_4_" class="st5" d="M5.7,48c-0.9,0.9-0.9,2.4,0,3.3c0.1,0.1,0.2,0.2,0.3,0.3c1.7,1.2,3.4,2.6,4.9,4.1
							c1.5,1.5,2.9,3.1,4.1,4.9c0.7,1.1,2.2,1.3,3.2,0.6c0.1-0.1,0.2-0.2,0.3-0.3l3.1-3.1c0.8-0.8,0.9-2,0.3-2.9
							c-1.3-2.1-2.9-4-4.6-5.7c-1.7-1.7-3.6-3.3-5.7-4.6c-0.9-0.6-2.1-0.5-2.9,0.3L5.7,48z"/>
						<circle id="Oval_1_" class="st6" cx="17.7" cy="57" r="1.5"/>
						<g id="Path_5_" transform="translate(23.600000, 0.000000)">
							<path class="st6" d="M7.8,18.8L50.7,15c0.2,0,0.4,0.2,0.5,0.4l1.6,18.3c0,0.2-0.2,0.4-0.4,0.5L9.5,37.9
								c-0.2,0-0.4-0.2-0.5-0.4L7.4,19.3C7.4,19,7.6,18.8,7.8,18.8z"/>
							<path class="st7" d="M36.2,26c0.3,3.3-2.2,6.3-5.5,6.5s-6.3-2.2-6.5-5.5c-0.3-3.3,2.2-6.2,5.5-6.5C33,20.2,35.9,22.7,36.2,26
								L36.2,26"/>
							<path class="st8" d="M31,27.7c0-0.4-0.2-0.5-1-0.8c-1.1-0.4-1.5-0.8-1.5-1.5c-0.1-0.8,0.5-1.3,1.1-1.6l-0.1-0.9l0,0l0.9,0.3
								l0,0.5c0.3,0,0.6,0.1,0.8,0.2l0.1,0l0,0l0,0l0,0.1l0,0.7l0,0.1l0,0.1l-0.1,0l-0.1-0.1c-0.3-0.2-0.7-0.3-1-0.3
								c-0.5,0-0.7,0.3-0.7,0.6c0,0.4,0.2,0.5,1,0.7c1.1,0.4,1.5,0.8,1.6,1.6c0.1,0.7-0.4,1.3-1,1.6l0.1,1.1l-0.1,0l-0.9-0.4l0-0.5
								c-0.4,0-0.8-0.1-1.2-0.2l-0.1,0l0,0l0,0l0-0.1l0-0.7l0-0.1l0-0.1l0.1,0l0.1,0.1c0.4,0.2,0.9,0.3,1.3,0.3
								C30.7,28.3,31,28.1,31,27.7"/>
							
								<linearGradient id="SVGID_1_" gradientUnits="userSpaceOnUse" x1="-22.0425" y1="78.6942" x2="-22.9778" y2="79.2336" gradientTransform="matrix(26.7775 0 0 -21.3614 641.8113 1712.8221)">
								<stop  offset="0" style="stop-color:#028484"/>
								<stop  offset="1" style="stop-color:#028484;stop-opacity:0"/>
							</linearGradient>
							<path class="st9" d="M50.7,15.1l-16.5,1.4l-8.3,20l26.4-2.2c0.2,0,0.4-0.2,0.4-0.5l0,0l-1.6-18.2
								C51.1,15.2,50.9,15,50.7,15.1z"/>
							<path class="st7" d="M45.7,16.5l4.2-0.4c0.2,0,0.4,0.2,0.5,0.4l0.4,4.2c0,0.2-0.2,0.4-0.4,0.5l-0.2,0c-2.4,0.2-4.6-1.6-4.8-4
								l0-0.2C45.3,16.7,45.4,16.5,45.7,16.5z"/>
							<path class="st7" d="M51.4,28.7l0.4,4.2c0,0.2-0.2,0.4-0.4,0.5l-4.2,0.4c-0.2,0-0.4-0.2-0.5-0.4l0-0.2
								c-0.2-2.4,1.6-4.6,4-4.8l0.2,0C51.2,28.3,51.4,28.5,51.4,28.7z"/>
							<path class="st7" d="M14.5,36.6l-4.2,0.4c-0.2,0-0.4-0.2-0.5-0.4l-0.4-4.2c0-0.2,0.2-0.4,0.4-0.5l0.2,0
								c2.4-0.2,4.6,1.6,4.8,4l0,0.2C14.9,36.3,14.7,36.5,14.5,36.6z"/>
							<path class="st7" d="M8.7,24.4l-0.4-4.2c0-0.2,0.2-0.4,0.4-0.5l4.2-0.4c0.2,0,0.4,0.2,0.5,0.4l0,0.2c0.2,2.4-1.6,4.6-4,4.8
								l-0.2,0C9,24.8,8.8,24.6,8.7,24.4L8.7,24.4z"/>
							<path class="st10" d="M7.8,18.8L50.7,15c0.2,0,0.4,0.2,0.5,0.4l1.6,18.3c0,0.2-0.2,0.4-0.4,0.5L9.5,37.9
								c-0.2,0-0.4-0.2-0.5-0.4L7.4,19.3C7.4,19,7.6,18.8,7.8,18.8z"/>
							<path class="st6" d="M5.4,20.1l43.1,0c0.2,0,0.4,0.2,0.4,0.4l0,18.3c0,0.2-0.2,0.4-0.4,0.4l-43.1,0c-0.2,0-0.4-0.2-0.4-0.4
								l0-18.3C5,20.3,5.2,20.1,5.4,20.1z"/>
							<path class="st7" d="M43.4,21l4.2,0c0.2,0,0.4,0.2,0.4,0.4l0,4.2c0,0.2-0.2,0.4-0.4,0.4l-0.2,0c-2.4,0-4.4-2-4.4-4.4l0-0.2
								C42.9,21.2,43.1,21,43.4,21L43.4,21z"/>
							<path class="st7" d="M48,33.7l0,4.2c0,0.2-0.2,0.4-0.4,0.4l-4.2,0c-0.2,0-0.4-0.2-0.4-0.4l0-0.2c0-2.4,2-4.4,4.4-4.4l0.2,0
								C47.8,33.2,48,33.4,48,33.7L48,33.7z"/>
							<path class="st7" d="M10.6,38.3l-4.2,0c-0.2,0-0.4-0.2-0.4-0.4l0-4.2c0-0.2,0.2-0.4,0.4-0.4l0.2,0c2.4,0,4.4,2,4.4,4.4l0,0.2
								C11,38.2,10.8,38.3,10.6,38.3z"/>
							<path class="st7" d="M5.9,25.7l0-4.2c0-0.2,0.2-0.4,0.4-0.4l4.2,0c0.2,0,0.4,0.2,0.4,0.4l0,0.2c0,2.4-2,4.4-4.4,4.4l-0.2,0
								C6.1,26.1,5.9,25.9,5.9,25.7z"/>
							<path class="st7" d="M33.1,29.7c0,3.3-2.7,6-6.1,6c-3.3,0-6-2.7-6-6.1c0-3.3,2.7-6,6-6C30.4,23.6,33.1,26.3,33.1,29.7"/>
							<path class="st8" d="M27.8,30.9c0-0.4-0.2-0.6-0.9-0.9c-1.1-0.5-1.4-0.9-1.4-1.6s0.6-1.3,1.2-1.5l0-0.9l0,0l0.9,0.4l0,0.5
								c0.3,0,0.6,0.1,0.8,0.3l0,0l0,0l0,0l0,0.1L28.3,28l0,0.1l0,0.1l-0.1-0.1l-0.1-0.1c-0.3-0.2-0.6-0.3-1-0.4
								c-0.5,0-0.7,0.2-0.7,0.6c0,0.4,0.2,0.5,0.9,0.8c1.1,0.5,1.4,0.9,1.4,1.7c0,0.7-0.5,1.3-1.1,1.5l0,1.1l-0.1,0l-0.8-0.5l0-0.5
								c-0.4,0-0.8-0.2-1.2-0.3l-0.1,0l0,0l0,0l0-0.1l0.1-0.7l0-0.1l0-0.1l0.1,0l0.1,0.1c0.4,0.3,0.8,0.4,1.3,0.4
								C27.5,31.5,27.8,31.3,27.8,30.9"/>
						</g>
						<path id="Path_6_" class="st3" d="M33.7,43.3c-0.9,2.3-2-2.4-2-2.4s-6.1,1.8-8.3,0.1c6-3.2,11.8-7.6,11.8-7.6
							c2-1.5,3.4-1.8,4.6-1.9c0.5,0,0.9,0,1.3,0.2c0.3,0.1,0.5,0.3,0.7,0.5c0.2,0.4,0.3,0.9,0.2,1.3c0,0.3-0.2,0.5-0.3,0.8
							C41.7,34.3,34.4,41.4,33.7,43.3z"/>
					</g>
				</g>
			</g>
		</g>
	</g>
</g>
</svg>
