<?xml version="1.0" encoding="utf-8"?>
<!-- Generator: Adobe Illustrator 24.1.2, SVG Export Plug-In . SVG Version: 6.00 Build 0)  -->
<svg version="1.1" id="Capa_1" xmlns="http://www.w3.org/2000/svg" xmlns:xlink="http://www.w3.org/1999/xlink" x="0px" y="0px"
	 viewBox="0 0 80 80" style="enable-background:new 0 0 80 80;" xml:space="preserve">
<style type="text/css">
	.st0{fill:none;}
	.st1{fill:url(#SVGID_1_);}
	.st2{fill:url(#SVGID_2_);}
	.st3{fill:url(#SVGID_3_);}
	.st4{fill:url(#SVGID_4_);}
	.st5{fill:url(#SVGID_5_);}
	.st6{fill:url(#SVGID_6_);}
	.st7{fill:url(#SVGID_7_);}
	.st8{fill:url(#SVGID_8_);}
	.st9{fill:url(#SVGID_9_);}
	.st10{fill:url(#Path_20_);}
	.st11{fill:url(#Path_21_);}
	.st12{fill:url(#Path_22_);}
	.st13{fill:#2DCCCD;}
	.st14{fill:url(#Path_23_);}
	.st15{fill:#004481;}
	.st16{fill:#F8CD50;}
	.st17{fill:url(#Path_24_);}
</style>
<desc>Created with Sketch.</desc>
<g id="Symbols">
	<g id="Artboard-Copy-2" transform="translate(-5.000000, -1.000000)">
		<g id="Objects_x2F_Idea">
			<g id="Idea">
				<g id="Cuadrados_Blancos">
					<rect id="Rectangle" x="5" y="1" class="st0" width="80" height="80"/>
				</g>
				<g id="Capa_49" transform="translate(5.733333, 1.066667)">
					<g id="Group">
						<g id="Path" transform="translate(7.600000, 5.733333)">
							
								<linearGradient id="SVGID_1_" gradientUnits="userSpaceOnUse" x1="-6.2862" y1="74.0995" x2="-5.9661" y2="73.8587" gradientTransform="matrix(5.656 0 0 -2.2627 42.6053 200.8387)">
								<stop  offset="0" style="stop-color:#192647;stop-opacity:0.5"/>
								<stop  offset="1" style="stop-color:#192647;stop-opacity:0"/>
							</linearGradient>
							<path class="st1" d="M10.8,33.4c0-0.6-0.5-1.1-1.1-1.1H6.3h0c-0.6,0-1.1,0.5-1.1,1.1c0,0.6,0.5,1.1,1.1,1.1h3.4
								C10.3,34.6,10.8,34.1,10.8,33.4z"/>
							
								<linearGradient id="SVGID_2_" gradientUnits="userSpaceOnUse" x1="-6.2862" y1="74.0995" x2="-5.9661" y2="73.8587" gradientTransform="matrix(5.656 0 0 -2.2627 101.704 200.8387)">
								<stop  offset="0" style="stop-color:#192647;stop-opacity:0.5"/>
								<stop  offset="1" style="stop-color:#192647;stop-opacity:0"/>
							</linearGradient>
							<path class="st2" d="M68.8,32.3h-3.4h0c-0.6,0-1.1,0.5-1.1,1.1c0,0.6,0.5,1.1,1.1,1.1h3.4c0.6,0,1.1-0.5,1.1-1.1
								S69.4,32.3,68.8,32.3z"/>
							
								<linearGradient id="SVGID_3_" gradientUnits="userSpaceOnUse" x1="-5.1524" y1="74.5228" x2="-4.9793" y2="73.7023" gradientTransform="matrix(2.2633 0 0 -5.7037 48.9711 426.5931)">
								<stop  offset="0" style="stop-color:#192647;stop-opacity:0.5"/>
								<stop  offset="1" style="stop-color:#192647;stop-opacity:0"/>
							</linearGradient>
							<path class="st3" d="M37.5,1c-0.6,0-1.1,0.6-1.1,1.2v3.4l0,0c0,0.6,0.5,1.1,1.1,1.1h0c0.6,0,1.1-0.5,1.1-1.1V2.2
								c0,0,0-0.1,0-0.1C38.6,1.5,38.1,1,37.5,1z"/>
							
								<linearGradient id="SVGID_4_" gradientUnits="userSpaceOnUse" x1="-6.1686" y1="74.2277" x2="-5.9538" y2="73.9199" gradientTransform="matrix(5.1779 0 0 -3.9444 43.2927 340.4075)">
								<stop  offset="0" style="stop-color:#192647;stop-opacity:0.5"/>
								<stop  offset="1" style="stop-color:#192647;stop-opacity:0"/>
							</linearGradient>
							<path class="st4" d="M12.8,46.4l-3,1.7c-0.3,0.2-0.5,0.6-0.6,1c0,0.6,0.5,1.1,1.1,1.1c0.2,0,0.4-0.1,0.6-0.2l2.9-1.7
								c0.5-0.3,0.7-1,0.4-1.5C14.1,46.3,13.4,46.1,12.8,46.4z"/>
							
								<linearGradient id="SVGID_5_" gradientUnits="userSpaceOnUse" x1="-6.1669" y1="74.2285" x2="-5.9507" y2="73.9182" gradientTransform="matrix(5.1633 0 0 -3.9391 94.3679 310.4664)">
								<stop  offset="0" style="stop-color:#192647;stop-opacity:0.5"/>
								<stop  offset="1" style="stop-color:#192647;stop-opacity:0"/>
							</linearGradient>
							<path class="st5" d="M61.6,20.7c0.2,0,0.4,0,0.6-0.1l2.9-1.7c0.5-0.3,0.7-1,0.4-1.5c-0.3-0.5-1-0.7-1.5-0.4l-2.9,1.7
								c-0.3,0.2-0.5,0.6-0.6,1C60.5,20.1,61,20.6,61.6,20.7z"/>
							
								<linearGradient id="SVGID_6_" gradientUnits="userSpaceOnUse" x1="-6.0131" y1="74.5831" x2="-5.6254" y2="73.6244" gradientTransform="matrix(3.9443 0 0 -5.1859 45.6892 392.1579)">
								<stop  offset="0" style="stop-color:#192647;stop-opacity:0.5"/>
								<stop  offset="1" style="stop-color:#192647;stop-opacity:0"/>
							</linearGradient>
							<path class="st6" d="M22.9,5.8c-0.3-0.5-1-0.7-1.5-0.4c-0.5,0.3-0.7,1-0.5,1.5l1.7,2.9c0.2,0.4,0.6,0.6,1,0.6
								c0.2,0,0.4-0.1,0.6-0.2l0,0c0.5-0.3,0.7-1,0.4-1.5L22.9,5.8z"/>
							
								<linearGradient id="SVGID_7_" gradientUnits="userSpaceOnUse" x1="-5.9569" y1="74.4483" x2="-5.6768" y2="73.7578" gradientTransform="matrix(3.9345 0 0 -5.1573 75.1583 390.0516)">
								<stop  offset="0" style="stop-color:#192647;stop-opacity:0.5"/>
								<stop  offset="1" style="stop-color:#192647;stop-opacity:0"/>
							</linearGradient>
							<path class="st7" d="M53.7,5.5c-0.5-0.3-1.2-0.2-1.6,0.3l-1.7,2.9c-0.1,0.2-0.2,0.4-0.2,0.6c0,0.6,0.5,1.1,1.1,1.1
								c0.4,0,0.8-0.2,1-0.6L54.1,7C54.4,6.4,54.2,5.8,53.7,5.5z"/>
							
								<linearGradient id="SVGID_8_" gradientUnits="userSpaceOnUse" x1="-6.2974" y1="74.4077" x2="-5.8334" y2="73.7421" gradientTransform="matrix(5.2094 0 0 -3.9738 43.494 313.0213)">
								<stop  offset="0" style="stop-color:#192647;stop-opacity:0.5"/>
								<stop  offset="1" style="stop-color:#192647;stop-opacity:0"/>
							</linearGradient>
							<path class="st8" d="M9.9,18.8l2.9,1.7c0.2,0.1,0.4,0.2,0.6,0.2l0,0c0.4,0,0.8-0.2,1-0.6c0.3-0.5,0.1-1.2-0.4-1.6L11,16.8
								c0,0,0,0,0,0c-0.5-0.3-1.2-0.1-1.5,0.4C9.1,17.8,9.3,18.5,9.9,18.8z"/>
							
								<linearGradient id="SVGID_9_" gradientUnits="userSpaceOnUse" x1="-6.2994" y1="74.4069" x2="-5.8357" y2="73.7427" gradientTransform="matrix(5.2251 0 0 -3.9792 94.7743 342.9706)">
								<stop  offset="0" style="stop-color:#192647;stop-opacity:0.5"/>
								<stop  offset="1" style="stop-color:#192647;stop-opacity:0"/>
							</linearGradient>
							<path class="st9" d="M65.1,48.1l-2.9-1.7c0,0,0,0-0.1,0c-0.6-0.3-1.2-0.1-1.5,0.5c-0.3,0.6-0.1,1.2,0.5,1.5l2.9,1.7
								c0.2,0.1,0.4,0.2,0.6,0.2l0,0c0.4,0,0.8-0.2,1-0.6C65.8,49.1,65.7,48.4,65.1,48.1z"/>
						</g>
						
							<linearGradient id="Path_20_" gradientUnits="userSpaceOnUse" x1="0.7195" y1="80.6264" x2="1.0859" y2="79.4758" gradientTransform="matrix(35.712 0 0 -59.6227 13.5048 4815.4634)">
							<stop  offset="0" style="stop-color:#192647;stop-opacity:0.5"/>
							<stop  offset="1" style="stop-color:#192647;stop-opacity:0"/>
						</linearGradient>
						<path id="Path_1_" class="st10" d="M47.4,20.5c-0.1,0-0.3,0-0.4,0l-0.4,0c-0.2,0-0.4,0-0.7,0l-0.2,0c-0.3,0-0.5,0-0.8,0
							c-4.7,0-9.3,1.9-12.6,5.2c-0.2,0.2-0.4,0.4-0.6,0.6c-3,3.3-4.6,7.5-4.6,12l0,0c0,0.3,0,0.6,0,0.9c0,0,0,0.1,0,0.1
							c0,0.3,0,0.5,0.1,0.8c0,0,0,0.1,0,0.1c0,0.3,0.1,0.5,0.1,0.8l0,0.1c0,0.3,0.1,0.5,0.2,0.8c0,0,0,0,0,0
							c0.1,0.6,0.3,1.1,0.4,1.7c0,0,0,0,0,0c0.1,0.3,0.2,0.5,0.3,0.8c0,0,0,0,0,0c0.1,0.3,0.2,0.5,0.3,0.8l0,0c1.2,2.7,3,5,5.3,6.8
							c3,2.4,3,6.9,3,9.3v1.2l0,0v2.9h-0.2c-0.4,0-0.7,0.3-0.7,0.7v0.6c0,0.4,0.3,0.7,0.7,0.7h0.2v2.3h-0.2c-0.4,0-0.7,0.3-0.7,0.7
							V71c0,0.4,0.3,0.7,0.7,0.7h0.2v2.3h-0.2c-0.4,0-0.7,0.3-0.7,0.7v0.6c0,0.4,0.3,0.7,0.7,0.7h0.2c0.3,1.9,1.7,3.5,3.6,3.9l0,0h0
							l0.1,0c0.1,0,0.2,0,0.4,0.1h0.1c0.1,0,0.3,0,0.4,0h6.8c2.3,0,4.3-1.7,4.6-4h0.2c0.4,0,0.7-0.3,0.7-0.7v-0.6
							c0-0.4-0.3-0.7-0.7-0.7H53v-2.2h0.2c0.4,0,0.7-0.3,0.7-0.7v-0.6c0-0.4-0.3-0.7-0.7-0.7H53v-2.3h0.2c0.4,0,0.7-0.3,0.7-0.7
							v-0.6c0-0.4-0.3-0.7-0.7-0.7H53v-2.9l0,0v-1.2c0-2.4,0.4-7,3-9.3c3.9-3.5,6.7-8.3,6.7-13.9C62.7,29.1,56,21.7,47.4,20.5z"/>
						
							<linearGradient id="Path_21_" gradientUnits="userSpaceOnUse" x1="1.3759" y1="80.817" x2="6.5335" y2="68.0556" gradientTransform="matrix(3.98 0 0 -5.236 26.8981 437.1823)">
							<stop  offset="0" style="stop-color:#192647"/>
							<stop  offset="0" style="stop-color:#192647;stop-opacity:0.5"/>
							<stop  offset="1" style="stop-color:#192647;stop-opacity:0"/>
						</linearGradient>
						<path id="Path_2_" class="st11" d="M33.8,21.2c0.3,0.5,1,0.7,1.5,0.4c0.5-0.3,0.7-1,0.4-1.5l-1.7-2.9c-0.3-0.6-1-0.8-1.5-0.5
							c-0.6,0.3-0.8,1-0.5,1.5c0,0,0,0,0,0.1L33.8,21.2z"/>
						
							<linearGradient id="Path_22_" gradientUnits="userSpaceOnUse" x1="0.8236" y1="80.8173" x2="7.3132" y2="71.5544" gradientTransform="matrix(5.2333 0 0 -3.9719 15.1513 346.9792)">
							<stop  offset="0" style="stop-color:#192647"/>
							<stop  offset="0" style="stop-color:#192647;stop-opacity:0.5"/>
							<stop  offset="1" style="stop-color:#192647;stop-opacity:0"/>
						</linearGradient>
						<path id="Path_3_" class="st12" d="M25.2,29.9l-2.9-1.7c-0.5-0.3-1.2-0.1-1.5,0.4c-0.3,0.5-0.1,1.2,0.4,1.5l0,0l2.9,1.7
							c0.5,0.3,1.2,0.2,1.6-0.4C25.9,30.9,25.8,30.2,25.2,29.9C25.2,29.9,25.2,29.9,25.2,29.9L25.2,29.9z"/>
						<path id="Path_4_" class="st13" d="M40.8,74.4H34c-2.6,0-4.7-2.1-4.7-4.7V57h16.2v12.7C45.5,72.3,43.4,74.4,40.8,74.4
							L40.8,74.4z"/>
						
							<linearGradient id="Path_23_" gradientUnits="userSpaceOnUse" x1="1.5869" y1="79.9046" x2="0.5869" y2="79.9046" gradientTransform="matrix(12.4907 0 0 -17.392 25.6812 1455.379)">
							<stop  offset="0" style="stop-color:#028484;stop-opacity:0.3"/>
							<stop  offset="1" style="stop-color:#028484;stop-opacity:0.1"/>
						</linearGradient>
						<path id="Path_5_" class="st14" d="M33,74.3c0.3,0.1,0.7,0.1,1,0.1h6.8c2.6,0,4.7-2.1,4.7-4.7V57h-4L33,74.3z"/>
						<path id="Path_6_" class="st15" d="M29.2,59.8h16.5c0.4,0,0.7,0.3,0.7,0.7v0.6c0,0.4-0.3,0.7-0.7,0.7H29.2
							c-0.4,0-0.7-0.3-0.7-0.7v-0.6C28.5,60.1,28.8,59.8,29.2,59.8z"/>
						<path id="Path_7_" class="st15" d="M29.2,64.1h16.5c0.4,0,0.7,0.3,0.7,0.7v0.6c0,0.4-0.3,0.7-0.7,0.7H29.2
							c-0.4,0-0.7-0.3-0.7-0.7v-0.6C28.5,64.4,28.8,64.1,29.2,64.1z"/>
						<path id="Path_8_" class="st15" d="M29.2,68.4h16.5c0.4,0,0.7,0.3,0.7,0.7v0.6c0,0.4-0.3,0.7-0.7,0.7H29.2
							c-0.4,0-0.7-0.3-0.7-0.7v-0.6C28.5,68.7,28.8,68.4,29.2,68.4z"/>
						<path id="Path_9_" class="st16" d="M37.4,14.7c-9.9,0-17.9,8-17.9,17.8c0,5.4,2.5,10.5,6.7,13.9c3,2.4,3,6.9,3,9.3V57h16.2
							v-1.2c0-2.4,0.4-7,3-9.3c3.9-3.5,6.7-8.3,6.7-13.9C55.3,22.7,47.3,14.7,37.4,14.7z"/>
						
							<linearGradient id="Path_24_" gradientUnits="userSpaceOnUse" x1="0.745" y1="80.1392" x2="1.0397" y2="79.9261" gradientTransform="matrix(22.484 0 0 -30.5667 9.5869 2472.8174)">
							<stop  offset="0" style="stop-color:#FFFFFF;stop-opacity:0.6"/>
							<stop  offset="1" style="stop-color:#FFFFFF;stop-opacity:0.15"/>
						</linearGradient>
						<path id="Path_10_" class="st17" d="M37.4,14.7c-9.9,0-17.9,8-17.9,17.8c0,4.8,2,9.5,5.5,12.8l17-30
							C40.6,14.9,39,14.7,37.4,14.7z"/>
						<path id="Path_11_" class="st16" d="M9.6,34.6H6.2c-0.6,0-1.1-0.5-1.1-1.1c0-0.6,0.5-1.1,1.1-1.1h0h3.4c0.6,0,1.1,0.5,1.1,1.1
							C10.7,34.1,10.2,34.6,9.6,34.6z"/>
						<path id="Path_12_" class="st16" d="M68.7,34.6h-3.4c-0.6,0-1.1-0.5-1.1-1.1c0-0.6,0.5-1.1,1.1-1.1h0h3.4
							c0.6,0,1.1,0.5,1.1,1.1S69.3,34.6,68.7,34.6z"/>
						<path id="Path_13_" class="st16" d="M37.5,6.7c-0.6,0-1.1-0.5-1.1-1.1l0,0V2.2c0-0.6,0.5-1.2,1.1-1.2c0.6,0,1.2,0.5,1.2,1.1
							c0,0,0,0.1,0,0.1v3.4C38.6,6.2,38.1,6.7,37.5,6.7C37.5,6.7,37.5,6.7,37.5,6.7z"/>
						<path id="Path_14_" class="st16" d="M10.4,50.2c-0.6,0-1.1-0.5-1.1-1.1c0-0.4,0.2-0.8,0.6-1l3-1.7c0.5-0.3,1.2-0.1,1.5,0.4
							c0.3,0.5,0.1,1.2-0.4,1.5L11,50C10.8,50.1,10.6,50.2,10.4,50.2z"/>
						<path id="Path_15_" class="st16" d="M61.6,20.7c-0.6,0-1.1-0.5-1.1-1.1c0-0.4,0.2-0.8,0.6-1l2.9-1.7c0.5-0.3,1.2-0.1,1.5,0.4
							c0.3,0.5,0.1,1.2-0.4,1.5l-2.9,1.7C62,20.6,61.8,20.7,61.6,20.7z"/>
						<path id="Path_16_" class="st16" d="M23.5,10.5c-0.4,0-0.8-0.2-1-0.6l-1.7-2.9c-0.3-0.5-0.1-1.2,0.4-1.5
							c0.5-0.3,1.2-0.1,1.5,0.4l1.7,2.9c0.3,0.5,0.1,1.2-0.4,1.5l0,0C23.9,10.4,23.7,10.5,23.5,10.5z"/>
						<path id="Path_17_" class="st16" d="M51.4,10.5c-0.6,0-1.1-0.5-1.1-1.1c0-0.2,0.1-0.4,0.2-0.6l1.7-2.9c0.3-0.5,1-0.7,1.6-0.3
							c0.5,0.3,0.7,1,0.4,1.5l-1.7,2.9C52.2,10.2,51.8,10.5,51.4,10.5z"/>
						<path id="Path_18_" class="st16" d="M13.3,20.7c-0.2,0-0.4-0.1-0.6-0.2l-2.9-1.7c-0.5-0.3-0.7-1-0.4-1.5
							c0.3-0.5,1-0.7,1.5-0.4c0,0,0,0,0,0l2.9,1.7c0.5,0.3,0.7,1,0.4,1.6C14.1,20.4,13.7,20.6,13.3,20.7L13.3,20.7z"/>
						<path id="Path_19_" class="st16" d="M64.5,50.2c-0.2,0-0.4-0.1-0.6-0.2L61,48.4c-0.6-0.3-0.8-1-0.5-1.5c0.3-0.6,1-0.8,1.5-0.5
							c0,0,0,0,0.1,0l2.9,1.7c0.5,0.3,0.7,1,0.4,1.6C65.3,50,64.9,50.2,64.5,50.2L64.5,50.2z"/>
					</g>
				</g>
			</g>
		</g>
	</g>
</g>
</svg>
