<?xml version="1.0" encoding="utf-8"?>
<!-- Generator: Adobe Illustrator 24.1.2, SVG Export Plug-In . SVG Version: 6.00 Build 0)  -->
<svg version="1.1" id="Capa_1" xmlns="http://www.w3.org/2000/svg" xmlns:xlink="http://www.w3.org/1999/xlink" x="0px" y="0px"
	 viewBox="0 0 80 80" style="enable-background:new 0 0 80 80;" xml:space="preserve">
<style type="text/css">
	.st0{fill:none;}
	.st1{fill:url(#Oval_1_);}
	.st2{fill:#28AD68;}
	.st3{fill:#FFFFFF;}
</style>
<desc>Created with Sketch.</desc>
<g id="Symbols">
	<g id="Artboard-Copy-3" transform="translate(-6.000000, -6.000000)">
		<g id="Actions_x2F_Success">
			<g id="Succes">
				<g id="Cuadrados_Blancos">
					<rect id="Rectangle" x="6" y="6" class="st0" width="80" height="80"/>
				</g>
				<g id="Capa_5" transform="translate(6.666667, 6.666667)">
					<g id="Group">
						
							<linearGradient id="Oval_1_" gradientUnits="userSpaceOnUse" x1="0.6753" y1="80.1982" x2="1.1448" y2="79.3151" gradientTransform="matrix(65.1813 0 0 -65.1813 -12.5751 5245.3857)">
							<stop  offset="0" style="stop-color:#1C2645;stop-opacity:0.5"/>
							<stop  offset="1" style="stop-color:#1C2645;stop-opacity:0"/>
						</linearGradient>
						<circle id="Oval" class="st1" cx="46.7" cy="46.7" r="32.6"/>
						<g id="Path">
							<path class="st2" d="M71.2,38.6c0,18-14.6,32.6-32.6,32.6S6,56.6,6,38.6S20.6,6,38.6,6C56.6,6,71.2,20.6,71.2,38.6"/>
							<path class="st3" d="M31.9,53.1c-0.7,0-1.5-0.3-2-0.8l-10-10c-1.1-1.1-1.1-2.9,0-3.9c1.1-1.1,2.9-1.1,3.9,0l8.1,8.1
								l21.5-21.5c1.1-1.1,2.9-1.1,3.9,0c1.1,1.1,1.1,2.9,0,3.9L33.8,52.3C33.3,52.8,32.6,53.1,31.9,53.1L31.9,53.1z"/>
						</g>
					</g>
				</g>
			</g>
		</g>
	</g>
</g>
</svg>
