<?xml version="1.0" encoding="utf-8"?>
<!-- Generator: Adobe Illustrator 24.1.2, SVG Export Plug-In . SVG Version: 6.00 Build 0)  -->
<svg version="1.1" id="Capa_1" xmlns="http://www.w3.org/2000/svg" xmlns:xlink="http://www.w3.org/1999/xlink" x="0px" y="0px"
	 viewBox="0 0 80 80" style="enable-background:new 0 0 80 80;" xml:space="preserve">
<style type="text/css">
	.st0{fill:none;}
	.st1{fill:url(#Path_16_);}
	.st2{fill:#1464A5;}
	.st3{fill:#2DCCCD;}
	.st4{fill:url(#Path_17_);}
	.st5{fill:url(#Path_18_);}
	.st6{fill:#D4EDFC;}
	.st7{opacity:0.5;fill:url(#Path_19_);enable-background:new    ;}
	.st8{fill:#004481;}
	.st9{fill:#F8CD50;}
	.st10{fill:url(#Path_20_);}
</style>
<desc>Created with Sketch.</desc>
<g id="Artboard-Copy-5">
	<g id="Team-Collaboration_x2F_Think-Big">
		<g id="Values-Think-Big">
			<g id="Cuadrados_Blancos">
				<rect id="Rectangle" class="st0" width="80" height="80"/>
			</g>
			<g id="Capa_5" transform="translate(9.066667, 5.733333)">
				
					<linearGradient id="Path_16_" gradientUnits="userSpaceOnUse" x1="-8.7638" y1="74.2283" x2="-8.2941" y2="73.3452" gradientTransform="matrix(62.8001 0 0 -62.8 577.5205 4675.0151)">
					<stop  offset="0" style="stop-color:#192647;stop-opacity:0.5"/>
					<stop  offset="1" style="stop-color:#192647;stop-opacity:0"/>
				</linearGradient>
				<path id="Path" class="st1" d="M68.2,29.7c1-1.8,1.5-3.7,1.5-5.8c0-0.2,0-0.4,0-0.5v-0.1c0-0.2,0-0.3,0-0.5v0
					c0-0.2,0-0.3-0.1-0.5c0,0,0-0.1,0-0.1c0-0.2-0.1-0.3-0.1-0.5c0,0,0-0.1,0-0.1c0-0.1-0.1-0.3-0.1-0.4c0,0,0-0.1,0-0.1
					c0-0.2-0.1-0.3-0.1-0.5c0,0,0-0.1,0-0.1c0-0.1-0.1-0.3-0.1-0.4c0,0,0-0.1,0-0.1c-0.1-0.2-0.1-0.3-0.2-0.4l-0.1-0.1
					c-0.1-0.1-0.1-0.2-0.2-0.3c0,0,0-0.1-0.1-0.1c-0.1-0.1-0.1-0.3-0.2-0.4c0,0,0-0.1-0.1-0.1c-0.1-0.1-0.1-0.2-0.2-0.3
					c0,0,0-0.1-0.1-0.1c-0.1-0.1-0.2-0.3-0.2-0.4l-0.1-0.2c-0.1-0.1-0.1-0.2-0.2-0.3l-0.1-0.1c-0.1-0.1-0.2-0.2-0.3-0.3
					c0-0.1-0.1-0.1-0.1-0.2c-0.1-0.1-0.1-0.2-0.2-0.2L66.6,16c-0.1-0.1-0.2-0.2-0.2-0.2l-0.2-0.2c-0.1-0.1-0.2-0.2-0.2-0.2
					c-0.1-0.1-0.1-0.1-0.2-0.2c-0.1-0.1-0.2-0.1-0.2-0.2l-0.2-0.1c-0.1-0.1-0.2-0.1-0.3-0.2l-0.2-0.2c-0.1-0.1-0.2-0.1-0.2-0.2
					c-0.1-0.1-0.1-0.1-0.2-0.1c-0.1-0.1-0.2-0.2-0.3-0.2c-3.6-2.2-8.2-2.3-11.9-0.2c-4-1.8-8.4-2.7-12.8-2.7
					c-17.3,0-31.4,14.1-31.4,31.4s14.1,31.4,31.4,31.4s31.4-14.1,31.4-31.4C70.9,38.1,70,33.7,68.2,29.7L68.2,29.7z"/>
				<path id="Path_1_" class="st2" d="M22.2,17.9c0.8-0.5,1.7-0.6,2.6-0.3c0.9,0.2,1.6,0.8,2.1,1.6l1.3,2.3l4.5,7.8l0,0L49,57.5
					c8.7-5.8,13.9-15.6,13.9-26.1C62.9,14.1,48.9,0,31.5,0S0.1,14.1,0.1,31.4c0,5.7,1.5,11.3,4.5,16.2L21,19.1
					C21.3,18.6,21.7,18.2,22.2,17.9z"/>
				<path id="Path_2_" class="st3" d="M15.9,58.5l11.9-20.6l-1.6-2.7c-0.6-1.1-1.8-1.7-3-1.7c-1.2,0-2.4,0.7-3,1.7
					c-0.6,1.1-1.8,1.7-3,1.7c-1.2,0-2.4-0.6-3-1.7l-1.2-2l8-14c0.5-0.9,1.5-1.6,2.5-1.7s2.1,0.2,2.9,1c-0.8-0.8-1.8-1.1-2.9-1
					c-1.1,0.1-2,0.8-2.5,1.7L4.7,47.5C7.4,52.1,11.3,55.9,15.9,58.5L15.9,58.5z"/>
				<polygon id="Path_3_" class="st3" points="32.8,29.2 28.3,21.5 32.8,29.2 				"/>
				<polygon id="Path_4_" class="st2" points="32.8,29.2 49.1,57.5 49.1,57.5 32.8,29.2 				"/>
				
					<linearGradient id="Path_17_" gradientUnits="userSpaceOnUse" x1="-7.673" y1="73.7667" x2="-10.4604" y2="73.7667" gradientTransform="matrix(16.2667 0 0 -28.2667 180.2844 2128.4712)">
					<stop  offset="0" style="stop-color:#028484;stop-opacity:0.5"/>
					<stop  offset="1" style="stop-color:#028484;stop-opacity:0"/>
				</linearGradient>
				<polygon id="Path_5_" class="st4" points="32.8,29.2 49.1,57.5 49.1,57.5 32.8,29.2 				"/>
				<path id="Path_6_" class="st3" d="M32.8,29.2l4.8,8.3L35.6,41c-0.6,1.1-1.8,1.8-3,1.8c-1.3,0-2.4-0.7-3-1.7l-1.8-3.1L15.9,58.6
					c10.4,6,23.2,5.6,33.2-1.1L32.8,29.2L32.8,29.2z"/>
				
					<linearGradient id="Path_18_" gradientUnits="userSpaceOnUse" x1="-7.8735" y1="73.7667" x2="-9.2409" y2="73.7667" gradientTransform="matrix(33.2 0 0 -33.6 316.88 2524.5598)">
					<stop  offset="0" style="stop-color:#028484;stop-opacity:0.5"/>
					<stop  offset="1" style="stop-color:#028484;stop-opacity:0"/>
				</linearGradient>
				<path id="Path_7_" class="st5" d="M32.8,29.2l4.8,8.3L35.6,41c-0.6,1.1-1.8,1.8-3,1.8c-1.3,0-2.4-0.7-3-1.7l-1.8-3.1L15.9,58.6
					c10.4,6,23.2,5.6,33.2-1.1L32.8,29.2L32.8,29.2z"/>
				<path id="Path_8_" class="st6" d="M28.3,21.3l-1.3-2.2c-0.1-0.2-0.3-0.5-0.5-0.7c0.2,0.2,0.4,0.4,0.5,0.7L28.3,21.3z"/>
				<path id="Path_9_" class="st6" d="M28.3,21.4L27,19.2c-0.6-1.1-1.7-1.7-3-1.7c-1.2,0-2.4,0.7-3,1.7l-8,13.9l1.2,2
					c0.6,1.1,1.8,1.7,3,1.7c1.2,0,2.4-0.7,3-1.7c0.6-1.1,1.8-1.7,3-1.7s2.4,0.7,3,1.7l1.6,2.7l5-8.7L28.3,21.4z"/>
				<path id="Path_10_" class="st6" d="M34.2,42.3c0.5-0.3,1-0.8,1.3-1.3l1.9-3.5l-4.8-8.3l-5,8.7l1.8,3.1
					C30.5,42.7,32.6,43.3,34.2,42.3z"/>
				
					<linearGradient id="Path_19_" gradientUnits="userSpaceOnUse" x1="-8.7955" y1="74.1681" x2="-8.2902" y2="73.5404" gradientTransform="matrix(47.0667 0 0 -58.5334 426.7378 4347.0781)">
					<stop  offset="0" style="stop-color:#FFFFFF;stop-opacity:0.5"/>
					<stop  offset="1" style="stop-color:#EDF8F9;stop-opacity:0.2"/>
					<stop  offset="1" style="stop-color:#FFFFFF;stop-opacity:0"/>
				</linearGradient>
				<path id="Path_11_" class="st7" d="M31.4,0C14.1,0,0,14.1,0,31.4c0,11.2,6,21.5,15.7,27.2L47.1,4.2C42.3,1.4,36.9,0,31.4,0z"/>
				<path id="Path_12_" class="st0" d="M62.9,31.3c0,17.3-14.1,31.3-31.4,31.3S0.1,48.6,0.1,31.3S14.2,0,31.5,0S62.9,14,62.9,31.3"
					/>
				<path id="Path_13_" class="st8" d="M52.7,35.3h-5c-0.3,0-0.5-0.2-0.5-0.5l0,0v-3.2h6v3.2C53.2,35.1,53,35.3,52.7,35.3L52.7,35.3
					z"/>
				<path id="Path_14_" class="st9" d="M61.7,12.7c0-5.1-3.3-9.6-8.2-11.1S43.4,1.9,40.5,6.1s-2.7,9.8,0.4,13.8l0,0l7.3,9.1h4l7-9.1
					l0,0C60.9,17.9,61.7,15.3,61.7,12.7z"/>
				
					<linearGradient id="Path_20_" gradientUnits="userSpaceOnUse" x1="-8.0667" y1="73.7667" x2="-9.0667" y2="73.7667" gradientTransform="matrix(17.6 0 0 -26.2667 203.7067 1953.6711)">
					<stop  offset="0" style="stop-color:#C49735;stop-opacity:0.5"/>
					<stop  offset="1" style="stop-color:#C49735;stop-opacity:0"/>
				</linearGradient>
				<path id="Path_15_" class="st10" d="M61.7,12.9c0-4.1-2.1-7.8-5.6-9.9l-12,21.2l4,5.1h4l7-9.2l0,0C60.9,18,61.7,15.5,61.7,12.9z
					"/>
			</g>
		</g>
	</g>
</g>
</svg>
